<svg width="565" height="446" viewBox="0 0 565 446" fill="none" xmlns="http://www.w3.org/2000/svg">
<path opacity="0.37" d="M71.2717 362.197H14.8705C-0.226731 346.52 -4.25851 321.529 4.75822 301.721C13.3477 282.844 31.8084 270.365 42.9834 252.89C66.8455 215.596 55.3089 160.039 87.7274 129.888C103.931 114.813 127.235 110.463 149.3 108.699C171.365 106.935 194.164 106.99 214.564 98.4116C239.719 87.8392 258.684 65.1275 284.605 56.571C313.704 46.9626 348.511 58.9484 365.515 84.4428C376.153 100.395 380.174 120.433 392.751 134.906C413.097 158.297 448.944 160.115 474.318 177.93C491.727 190.146 503.472 210.107 505.718 231.252C508.424 256.79 498.728 285.791 514.044 306.399C521.505 316.445 533.612 322.121 541.653 331.707C549.673 341.272 551.93 349.982 549.399 362.197H71.2717Z" fill="url(#paint0_linear)"/>
<path opacity="0.37" d="M85.6906 362.197H29.2895C14.1922 346.52 10.1604 321.529 19.1772 301.721C27.7666 282.844 46.2273 270.365 57.4024 252.89C81.2644 215.596 69.7278 160.039 102.146 129.888C118.35 114.813 141.653 110.463 163.719 108.699C185.784 106.935 208.583 106.99 228.983 98.4116C254.138 87.8392 273.103 65.1275 299.024 56.571C328.123 46.9626 362.93 58.9484 379.934 84.4428C390.572 100.395 394.593 120.433 407.17 134.906C427.516 158.297 463.363 160.115 488.737 177.93C506.146 190.146 517.891 210.107 520.137 231.252C522.843 256.79 513.147 285.791 528.463 306.399C535.924 316.445 548.031 322.121 556.072 331.707C564.092 341.272 566.349 349.982 563.818 362.197H85.6906Z" fill="url(#paint1_linear)"/>
<path d="M215.507 169.055L213.184 169.132H3.42212L2.91815 169.198C0.836527 155.284 11.7267 141.151 25.4326 137.404C37.4184 134.128 51.4419 137.042 61.4776 129.713C70.4724 123.15 72.7074 110.879 78.5907 101.425C82.25 95.5412 87.465 90.6329 93.5675 87.3571C101.215 83.2487 110.757 81.8134 118.602 85.5275C132.494 92.123 135.156 110.529 144.447 122.789C146.517 125.528 149.125 128.08 152.445 128.99C155.501 129.833 158.744 129.176 161.878 128.617C172.143 126.809 184.458 126.974 190.845 135.213C193.847 139.091 194.921 144.065 196.586 148.666C198.251 153.279 200.979 158.012 205.592 159.666C207.805 160.444 210.314 160.466 212.264 161.77C214.609 163.336 215.365 166.13 215.507 169.055Z" fill="url(#paint2_linear)"/>
<path d="M552.906 195.547H308.293C306.343 192.983 306.102 189.017 307.493 185.971C309.301 181.973 313.07 179.255 316.827 176.999C320.585 174.731 324.584 172.649 327.4 169.286C332.801 162.833 332.483 153.575 333.678 145.248C335.08 135.366 339.221 125.582 346.693 118.954C349.651 116.325 353.081 114.243 356.674 112.578C366.918 107.812 379.605 106.618 389.18 112.622C398.34 118.362 402.832 129.286 410.818 136.571C412.703 138.302 414.861 139.847 417.359 140.428C424.513 142.071 430.594 135.585 435.962 130.578C443.588 123.468 453.777 118.154 464.119 119.48C476.28 121.058 485.68 131.488 490.293 142.849C492.221 147.582 493.689 152.819 497.524 156.182C507.362 164.805 523.971 155.141 535.442 161.408C539.748 163.764 542.629 168.048 544.93 172.386C548.764 179.628 551.471 187.472 552.906 195.547Z" fill="url(#paint3_linear)"/>
<path d="M210.665 331.258H193.07V362.186H150.44V331.258H86.7207V299.562L153.179 202.394H193.07V299.015H210.665V331.258ZM150.44 299.015V280.433C150.44 276.938 150.572 272.216 150.824 266.278C151.076 260.34 151.273 257.229 151.426 256.933H150.221C147.745 262.542 144.941 267.79 141.807 272.677L124.102 299.015H150.44Z" fill="url(#paint4_linear)"/>
<path d="M199.029 331.268H181.423V362.197H138.805V331.268H75.085V299.573L141.544 202.405H181.434V299.025H199.029V331.268ZM138.805 299.025V280.444C138.805 276.949 138.936 272.227 139.188 266.289C139.44 260.351 139.637 257.239 139.791 256.943H138.586C136.109 262.553 133.305 267.801 130.171 272.687L112.467 299.025H138.805Z" fill="url(#paint5_linear)"/>
<path d="M488.835 332.331L482.711 300.669L471.284 302.882L465.433 304.01L447.093 209.143L407.915 216.725L361.122 324.739L367.137 355.865L429.706 343.759L433.267 362.197H476.685L471.558 335.673L477.408 334.545L488.835 332.331ZM412.155 314.32L397.726 317.103L408.024 292.802L410.106 287.883C412.253 282.493 414.006 276.807 415.376 270.825L416.559 270.606C416.471 270.913 416.866 274.013 417.742 279.896C418.619 285.769 419.386 290.425 420.054 293.865L423.582 312.107L412.155 314.32Z" fill="url(#paint6_linear)"/>
<path d="M477.407 334.545L471.283 302.893L454.006 306.235L435.654 211.367L407.914 216.725L396.487 218.938L349.694 326.963L355.709 358.078L367.136 355.865L418.278 345.983L421.412 362.198H464.83L460.13 337.886L471.557 335.673L477.407 334.545ZM408.024 292.803C408.232 293.997 408.44 295.082 408.626 296.079L412.154 314.32L386.287 319.327L398.678 290.097C400.826 284.717 402.579 279.031 403.948 273.049L405.131 272.819C405.044 273.137 405.438 276.237 406.315 282.11C406.939 286.295 407.509 289.867 408.024 292.803Z" fill="url(#paint7_linear)"/>
<path d="M216.612 281.146H190.592L174.06 160.093C174.06 160.093 150.176 133.996 122.753 129.11L148.872 126.294L207.738 127.894L216.612 281.146Z" fill="url(#paint8_linear)"/>
<path d="M113.9 214.599C113.9 214.599 99.1097 236.248 105.672 254.829L133.183 214.599L129.611 209.801L113.9 214.599Z" fill="#111023"/>
<path d="M190.593 281.146L189.706 286.733C189.706 286.733 181.861 287.829 181.423 299.026H201.812L212.888 288.212L213.918 281.146H190.593Z" fill="#111023"/>
<path d="M159.105 160.006L126.489 158.79L131.792 208.738L109.683 216.659L96.9412 154.977C93.2162 143.484 101.006 131.466 113.014 130.162L122.731 129.11H122.742C150.165 133.996 174.049 160.093 174.049 160.093L159.105 160.006Z" fill="url(#paint9_linear)"/>
<path d="M99.0451 20.5916V22.0487L97.2812 22.2788C96.832 21.3037 96.339 20.5258 95.857 20.0986C93.5014 18.0608 91.8581 16.4612 90.1708 17.4363C88.9 18.1813 88.9986 21.6653 89.1191 23.3086L84.3094 23.9222L41.6909 29.3235L41.6689 29.2468C44.4298 28.5894 46.5772 23.6373 46.5772 17.6116C46.5772 11.6625 44.4956 6.76521 41.7895 5.99829L99.0561 12.4623V13.6127V20.5916H99.0451Z" fill="url(#paint10_linear)"/>
<path d="M44.8568 9.12082C44.7363 9.29611 44.6268 9.47141 44.5282 9.66862C43.9146 10.8519 43.6298 12.2104 42.8738 13.295C42.326 14.1058 41.5153 14.7303 40.6169 15.0808C39.6637 15.4533 38.612 15.5191 37.5821 15.6505C36.9028 15.7382 36.2016 15.8806 35.5771 16.1655C35.9058 10.4794 38.1408 6.05316 40.9017 5.89978L41.7892 5.99838C42.9724 6.32706 44.0352 7.45552 44.8568 9.12082Z" fill="url(#paint11_linear)"/>
<path d="M46.5551 16.6585C46.5332 16.6804 46.5222 16.7023 46.5003 16.7132C45.7991 17.6555 45.4595 18.8277 44.8131 19.7919C44.0571 20.9313 42.841 21.753 41.5044 22.0597C40.2664 22.3336 38.9407 22.1912 37.8122 22.75C37.2425 23.0458 36.7714 23.5059 36.4318 24.0428C35.8621 22.1912 35.5225 19.9781 35.5225 17.6007C35.5225 17.1077 35.5334 16.6256 35.5772 16.1435C36.2017 15.8587 36.9029 15.7163 37.5822 15.6286C38.612 15.4862 39.6528 15.4314 40.617 15.0589C41.5263 14.7083 42.3261 14.0838 42.8739 13.2731C43.6299 12.1885 43.9257 10.8299 44.5282 9.64667C44.6268 9.46042 44.7364 9.28513 44.8569 9.09888C45.821 11.049 46.4455 13.6894 46.5551 16.6585Z" fill="url(#paint12_linear)"/>
<path d="M46.5768 17.6115C46.5768 23.6373 44.4295 28.6003 41.6686 29.2467C41.4714 29.3015 41.2522 29.3234 41.0441 29.3234C39.1158 29.3234 37.4177 27.2308 36.4316 24.0536C36.7822 23.5058 37.2424 23.0566 37.8121 22.7608C38.9405 22.2021 40.2772 22.3445 41.5042 22.0706C42.8409 21.7638 44.0569 20.9312 44.8129 19.8027C45.4703 18.8386 45.7989 17.6553 46.5001 16.7241C46.522 16.7022 46.533 16.6803 46.5549 16.6693C46.5659 16.9651 46.5768 17.2828 46.5768 17.6115Z" fill="url(#paint13_linear)"/>
<path d="M132.788 14.7411H150.011C148.214 15.4642 146.68 16.2859 145.99 16.9323C145.442 17.4362 145.683 18.3565 146.352 19.5288H132.777V14.7411H132.788Z" fill="#111023"/>
<path d="M170.971 17.6335V19.5398H161.637C160.738 17.4691 160.07 15.7162 159.84 14.7521H170.971V17.6335Z" fill="#111023"/>
<path d="M132.789 19.5399V20.5917H99.0449V13.6128H132.789V14.7413V19.5399Z" fill="url(#paint14_linear)"/>
<path d="M100.382 32.5226L92.9538 38.1759C92.9538 38.1759 83.9371 28.7209 84.2987 23.9222L89.1083 23.3087C88.9878 21.6544 88.8892 18.1704 90.1601 17.4363C91.8473 16.4613 93.4907 18.0608 95.8462 20.0986C96.3283 20.5259 96.8103 21.3038 97.2705 22.2789C99.0234 25.9929 100.382 32.5226 100.382 32.5226Z" fill="url(#paint15_linear)"/>
<path d="M50.4007 6.04217C49.9077 4.95754 48.2972 5.88879 48.7902 6.96247C51.8469 13.6456 51.4525 20.997 47.7932 27.3624C47.2016 28.3923 48.8012 29.3235 49.3928 28.2937C53.3917 21.3367 53.7204 13.3169 50.4007 6.04217Z" fill="#5B2B89"/>
<path d="M182.694 39.9838V45.7137L175.847 39.2388L182.694 39.9838Z" fill="url(#paint16_linear)"/>
<path d="M182.695 45.7136L189.597 52.2324L196.182 58.4553C196.182 58.4553 211.279 47.8829 217.129 47.7952C217.546 47.7843 217.94 47.8171 218.324 47.8719C223.495 48.606 226.65 54.5769 225.741 60.3069C224.766 66.486 224.941 73.3116 218.992 74.4181C213.043 75.5356 186.847 81.8901 186.847 81.8901L158.187 42.9965L161.561 40.641L169.088 35.3712L170.611 34.3085L173.919 37.4309L175.837 39.2386L182.695 45.7136Z" fill="url(#paint17_linear)"/>
<path d="M201.21 41.1779L218.334 47.8719C217.95 47.8171 217.556 47.7843 217.14 47.7952C211.278 47.8829 196.192 58.4554 196.192 58.4554L189.607 52.2324L201.21 41.1779Z" fill="url(#paint18_linear)"/>
<path d="M219.014 74.4291L209.066 101.512L207.729 127.883C207.729 127.883 206.568 128.091 204.541 128.376C195.053 129.735 166.633 132.967 148.863 126.284L155.787 93.5144L152.588 67.6693L113.968 71.9421L89.7227 40.641L92.9547 38.176L100.383 32.5227L123.292 54.8947L159.139 39.2277C160.443 40.1699 161.572 40.6301 161.572 40.6301L158.197 42.9856L186.869 81.8901C186.869 81.9011 213.064 75.5466 219.014 74.4291Z" fill="url(#paint19_linear)"/>
<path d="M169.099 35.3712L161.572 40.641C161.572 40.641 160.444 40.1809 159.14 39.2386C157.442 38.0225 155.437 36.0176 155.185 33.191C154.856 29.4002 148.458 23.2211 146.365 19.5399C145.697 18.3676 145.456 17.4473 146.004 16.9433C146.694 16.286 148.228 15.4753 150.025 14.7522C154.002 13.1745 159.315 12.0899 159.797 14.555C159.808 14.6097 159.83 14.6864 159.852 14.7522C160.082 15.7163 160.75 17.4692 161.649 19.5399C164.366 25.8943 169.099 35.3712 169.099 35.3712Z" fill="url(#paint20_linear)"/>
<path opacity="0.38" d="M209.066 101.512C165.187 92.1996 158.197 42.9966 158.197 42.9966L186.88 81.923L219.025 74.4291L209.066 101.512Z" fill="url(#paint21_linear)"/>
<path d="M200.956 17.2612C201.887 17.0092 202.818 17.1954 203.202 18.6745C204.067 22.0599 200.265 26.1355 200.265 26.1355L201.208 41.178L189.605 52.2325L194.152 39.2278L182.703 39.9838L175.845 39.2278L173.927 37.4201C173.927 37.4201 172.591 24.9413 172.591 17.6227C172.591 15.9355 172.657 14.5222 172.843 13.6019L172.898 13.2513C180.917 14.6098 192.049 11.4764 192.049 11.4764C192.049 11.4764 193.604 26.6723 195.741 26.9353C197.877 27.1872 198.534 18.6745 198.534 18.6745C198.534 18.6745 199.751 17.5898 200.956 17.2612Z" fill="url(#paint22_linear)"/>
<path d="M201.055 6.21753L200.967 17.2611C199.762 17.5898 198.546 18.6744 198.546 18.6744C198.546 18.6744 197.889 27.1872 195.752 26.9352C193.616 26.6722 192.06 11.4764 192.06 11.4764C192.06 11.4764 180.929 14.6098 172.909 13.2512V13.2403C170.389 12.824 168.187 11.9584 166.73 10.4136C160.595 3.94965 162.731 0.290369 171.518 2.28435C180.294 4.28928 198.524 -6.29414 201.055 6.21753Z" fill="#111023"/>
<path d="M194.141 39.2388L189.606 52.2325L182.692 45.7137V39.9838L194.141 39.2388Z" fill="#F79244"/>
<path d="M172.131 15.2563C173.895 14.3688 175.736 14.2702 177.587 14.9385C178.716 15.3439 177.861 17.0202 176.743 16.6148C175.571 16.1985 174.256 16.2752 173.15 16.8339C172.087 17.3598 171.057 15.804 172.131 15.2563Z" fill="#111023"/>
<path d="M189.258 21.6994C190.001 21.6605 190.557 20.7376 190.5 19.6379C190.442 18.5382 189.793 17.6782 189.05 17.717C188.307 17.7559 187.751 18.6788 187.808 19.7785C187.866 20.8782 188.515 21.7382 189.258 21.6994Z" fill="#111023"/>
<path d="M191.523 14.8072C189.672 14.106 187.842 14.1936 186.056 15.0592C184.972 15.585 185.991 17.1517 187.064 16.6368C188.182 16.1 189.507 16.0452 190.669 16.4834C191.786 16.8997 192.652 15.2344 191.523 14.8072Z" fill="#111023"/>
<path d="M178.519 25.8836C179.122 23.057 180.579 20.1756 181.565 17.4475C181.773 16.8778 182.606 17.3051 182.398 17.8639C181.773 19.5839 181.149 21.2931 180.524 23.0131C180.305 23.6048 179.779 24.5908 179.724 25.2153C179.516 27.3517 180.502 27.1874 181.609 27.7023C182.157 27.9543 181.729 28.7979 181.193 28.5349C179.834 27.9104 178.114 27.8228 178.519 25.8836Z" fill="#F79244"/>
<path d="M177.488 19.9345C176.611 19.2333 175.614 18.7622 174.497 18.6198C173.806 18.5321 173.522 19.5948 174.223 19.6825C174.793 19.7592 175.318 19.9126 175.822 20.1536C175.242 20.3398 174.65 20.537 174.069 20.7233C173.401 20.9424 173.686 22.0051 174.354 21.786C175.318 21.4683 176.283 21.1615 177.247 20.8438C177.586 20.7343 177.827 20.2084 177.488 19.9345Z" fill="#111023"/>
<path d="M182.013 37.7487C183.357 37.7487 184.446 36.1741 184.446 34.2318C184.446 32.2895 183.357 30.715 182.013 30.715C180.67 30.715 179.581 32.2895 179.581 34.2318C179.581 36.1741 180.67 37.7487 182.013 37.7487Z" fill="white"/>
<path opacity="0.5" d="M517.825 362.197H78.2071C78.2071 362.197 54.5533 377.897 89.7218 380.56C124.89 383.222 179.736 385.731 178.388 397.695C177.03 409.658 145.279 407.292 145.279 428.415C145.279 449.538 291.76 444.663 291.76 444.663C291.76 444.663 374.51 445.747 386.299 431.757C398.087 417.777 352.938 404.969 361.133 399.458C369.328 393.948 428.808 410.491 437.671 397.092C446.534 383.704 435.896 375.224 452.242 373.46C468.589 371.696 515.075 378.105 517.825 362.197Z" fill="url(#paint23_linear)"/>
<path d="M484.595 399.469C502.953 399.469 517.835 395.236 517.835 390.014C517.835 384.793 502.953 380.559 484.595 380.559C466.237 380.559 451.354 384.793 451.354 390.014C451.354 395.236 466.237 399.469 484.595 399.469Z" fill="url(#paint24_linear)"/>
<path d="M130.697 405.375C146.743 405.375 159.752 402.157 159.752 398.188C159.752 394.218 146.743 391 130.697 391C114.65 391 101.642 394.218 101.642 398.188C101.642 402.157 114.65 405.375 130.697 405.375Z" fill="url(#paint25_linear)"/>
<path d="M297.228 432.567C315.453 432.567 330.227 429.722 330.227 426.213C330.227 422.703 315.453 419.858 297.228 419.858C279.003 419.858 264.229 422.703 264.229 426.213C264.229 429.722 279.003 432.567 297.228 432.567Z" fill="#E9FDFF"/>
<path d="M340.864 277.661C334.093 262.181 321.395 252.539 302.77 248.738C300.743 248.321 298.76 247.993 296.821 247.752C280.387 245.67 266.834 249.592 256.163 259.518C244.221 270.606 235.413 290.074 229.716 317.924C226.232 334.983 225.257 349.74 226.801 362.197H267.514C266.999 354.922 268.434 343.024 271.808 326.525C275.457 308.678 279.072 296.626 282.655 290.359C284.736 286.722 287.092 284.323 289.721 283.161C291.617 282.318 293.665 282.12 295.846 282.57C301.061 283.643 304.063 287.883 304.851 295.289C305.64 302.707 304.26 315.087 300.721 332.43C298.059 345.435 295.386 355.35 292.712 362.197H337.347C339.417 355.788 341.236 348.732 342.803 341.03C343.844 335.936 344.665 331.05 345.257 326.371C347.81 306.432 346.342 290.195 340.864 277.661Z" fill="url(#paint26_linear)"/>
<path d="M329.459 275.339C323.378 261.436 312.499 252.233 296.821 247.752C295.057 247.248 293.238 246.799 291.354 246.415C272.225 242.504 256.689 246.097 244.747 257.196C232.816 268.294 223.997 287.763 218.311 315.602C217.149 321.266 216.273 326.689 215.67 331.849C214.345 343.189 214.356 353.312 215.714 362.197H256.372C256.317 361.934 256.284 361.671 256.251 361.398C255.397 354.309 256.777 341.907 260.392 324.202C264.041 306.355 267.656 294.303 271.25 288.048C274.832 281.781 279.226 279.184 284.441 280.258C286.577 280.696 288.341 281.66 289.721 283.161C291.748 285.331 292.975 288.595 293.446 292.967C294.235 300.384 292.855 312.764 289.316 330.107C286.336 344.657 283.345 355.35 280.343 362.197H325.186C327.552 355.186 329.623 347.363 331.398 338.719C336.865 311.942 336.218 290.819 329.459 275.339Z" fill="url(#paint27_linear)"/>
<path d="M360.54 170.929L360.266 171.137L331.638 193.421L313.769 207.324L298.891 248.497L294.761 247.007L310.088 204.64L357.856 167.467L360.54 170.929Z" fill="#2A2A2A"/>
<path d="M374.257 263.331C371.003 267.198 366.566 269.85 362.217 272.424L361.921 271.909C363.641 269.707 365.46 267.122 364.945 264.372C364.583 262.498 363.203 261.008 361.789 259.748C359.39 257.634 356.717 255.848 354.427 253.624C352.137 251.4 350.198 248.606 349.826 245.44C349.343 241.277 351.589 237.344 352.466 233.246C352.816 231.603 352.937 229.85 352.28 228.305C350.812 224.821 346.374 224.021 342.858 222.619C339.713 221.348 336.755 218.992 335.879 215.717C334.608 210.962 337.993 206.097 337.533 201.2C337.215 197.782 334.783 194.725 331.639 193.421L360.266 171.137C365.12 175.344 369.305 180.92 369.36 187.286C369.382 191.318 367.749 195.152 366.588 199.009C366.128 200.564 365.733 202.186 366.018 203.775C366.468 206.207 368.407 208.047 370.193 209.767C373.885 213.306 377.599 217.612 377.533 222.728C377.467 228.469 372.57 233.586 373.425 239.261C373.972 242.887 376.766 245.78 377.884 249.264C379.417 254.084 377.511 259.464 374.257 263.331Z" fill="url(#paint28_linear)"/>
<defs>
<linearGradient id="paint0_linear" x1="272.594" y1="377.55" x2="290.32" y2="109.881" gradientUnits="userSpaceOnUse">
<stop stop-color="#31D1D6"/>
<stop offset="0.3733" stop-color="#32CED8"/>
<stop offset="0.6175" stop-color="#36C6DF"/>
<stop offset="0.824" stop-color="#3CB7EB"/>
<stop offset="1" stop-color="#45A3FA"/>
</linearGradient>
<linearGradient id="paint1_linear" x1="287.01" y1="377.55" x2="304.736" y2="109.881" gradientUnits="userSpaceOnUse">
<stop stop-color="#31D1D6"/>
<stop offset="0.3733" stop-color="#32CED8"/>
<stop offset="0.6175" stop-color="#36C6DF"/>
<stop offset="0.824" stop-color="#3CB7EB"/>
<stop offset="1" stop-color="#45A3FA"/>
</linearGradient>
<linearGradient id="paint2_linear" x1="109.081" y1="169.939" x2="109.081" y2="123.259" gradientUnits="userSpaceOnUse">
<stop stop-color="#F9E6D9"/>
<stop offset="0.121" stop-color="#FCF1EA"/>
<stop offset="0.2698" stop-color="#FEF9F6"/>
<stop offset="0.4751" stop-color="#FFFEFD"/>
<stop offset="1" stop-color="white"/>
</linearGradient>
<linearGradient id="paint3_linear" x1="447.731" y1="195.373" x2="446.99" y2="151.71" gradientUnits="userSpaceOnUse">
<stop stop-color="#F9E6D9"/>
<stop offset="0.121" stop-color="#FCF1EA"/>
<stop offset="0.2698" stop-color="#FEF9F6"/>
<stop offset="0.434021" stop-color="#FFFEFD"/>
<stop offset="1" stop-color="white"/>
</linearGradient>
<linearGradient id="paint4_linear" x1="86.7191" y1="282.291" x2="210.668" y2="282.291" gradientUnits="userSpaceOnUse">
<stop stop-color="#31D1D6"/>
<stop offset="0.3733" stop-color="#32CED8"/>
<stop offset="0.6175" stop-color="#36C6DF"/>
<stop offset="0.824" stop-color="#3CB7EB"/>
<stop offset="1" stop-color="#45A3FA"/>
</linearGradient>
<linearGradient id="paint5_linear" x1="138.18" y1="372.715" x2="136.999" y2="312.446" gradientUnits="userSpaceOnUse">
<stop stop-color="#F9E6D9"/>
<stop offset="0.121" stop-color="#FCF1EA"/>
<stop offset="0.2698" stop-color="#FEF9F6"/>
<stop offset="0.4751" stop-color="#FFFEFD"/>
<stop offset="1" stop-color="white"/>
</linearGradient>
<linearGradient id="paint6_linear" x1="357.474" y1="305.853" x2="479.171" y2="282.314" gradientUnits="userSpaceOnUse">
<stop stop-color="#31D1D6"/>
<stop offset="0.3733" stop-color="#32CED8"/>
<stop offset="0.6175" stop-color="#36C6DF"/>
<stop offset="0.824" stop-color="#3CB7EB"/>
<stop offset="1" stop-color="#45A3FA"/>
</linearGradient>
<linearGradient id="paint7_linear" x1="414.272" y1="367.303" x2="413.09" y2="307.033" gradientUnits="userSpaceOnUse">
<stop stop-color="#F9E6D9"/>
<stop offset="0.121" stop-color="#FCF1EA"/>
<stop offset="0.2698" stop-color="#FEF9F6"/>
<stop offset="0.4751" stop-color="#FFFEFD"/>
<stop offset="1" stop-color="white"/>
</linearGradient>
<linearGradient id="paint8_linear" x1="165.597" y1="206.182" x2="200.656" y2="197.122" gradientUnits="userSpaceOnUse">
<stop stop-color="#31D1D6"/>
<stop offset="0.3733" stop-color="#32CED8"/>
<stop offset="0.6175" stop-color="#36C6DF"/>
<stop offset="0.824" stop-color="#3CB7EB"/>
<stop offset="1" stop-color="#45A3FA"/>
</linearGradient>
<linearGradient id="paint9_linear" x1="96.0082" y1="172.883" x2="174.057" y2="172.883" gradientUnits="userSpaceOnUse">
<stop stop-color="#31D1D6"/>
<stop offset="0.3733" stop-color="#32CED8"/>
<stop offset="0.6175" stop-color="#36C6DF"/>
<stop offset="0.824" stop-color="#3CB7EB"/>
<stop offset="1" stop-color="#45A3FA"/>
</linearGradient>
<linearGradient id="paint10_linear" x1="41.6673" y1="17.6605" x2="99.0494" y2="17.6605" gradientUnits="userSpaceOnUse">
<stop stop-color="#51ADC6"/>
<stop offset="0.0060817" stop-color="#55AFC4"/>
<stop offset="0.0663" stop-color="#74BFB5"/>
<stop offset="0.1333" stop-color="#8FCDA7"/>
<stop offset="0.2102" stop-color="#A5D89D"/>
<stop offset="0.3001" stop-color="#B6E094"/>
<stop offset="0.4112" stop-color="#C1E78E"/>
<stop offset="0.5672" stop-color="#C8EA8B"/>
<stop offset="1" stop-color="#CAEB8A"/>
</linearGradient>
<linearGradient id="paint11_linear" x1="44.8577" y1="11.0275" x2="35.5722" y2="11.0275" gradientUnits="userSpaceOnUse">
<stop stop-color="#8AEBD6"/>
<stop offset="0.4615" stop-color="#89E9D7"/>
<stop offset="0.6276" stop-color="#84E2DA"/>
<stop offset="0.7461" stop-color="#7DD7DE"/>
<stop offset="0.8419" stop-color="#72C6E5"/>
<stop offset="0.9229" stop-color="#64B0EE"/>
<stop offset="0.9944" stop-color="#5395F9"/>
<stop offset="1" stop-color="#5193FA"/>
</linearGradient>
<linearGradient id="paint12_linear" x1="46.5567" y1="16.5839" x2="35.5229" y2="16.5839" gradientUnits="userSpaceOnUse">
<stop stop-color="#31D1D6"/>
<stop offset="0.3733" stop-color="#32CED8"/>
<stop offset="0.6175" stop-color="#36C6DF"/>
<stop offset="0.824" stop-color="#3CB7EB"/>
<stop offset="1" stop-color="#45A3FA"/>
</linearGradient>
<linearGradient id="paint13_linear" x1="46.5764" y1="22.9897" x2="36.4315" y2="22.9897" gradientUnits="userSpaceOnUse">
<stop stop-color="#8AEBD6"/>
<stop offset="0.4615" stop-color="#89E9D7"/>
<stop offset="0.6276" stop-color="#84E2DA"/>
<stop offset="0.7461" stop-color="#7DD7DE"/>
<stop offset="0.8419" stop-color="#72C6E5"/>
<stop offset="0.9229" stop-color="#64B0EE"/>
<stop offset="0.9944" stop-color="#5395F9"/>
<stop offset="1" stop-color="#5193FA"/>
</linearGradient>
<linearGradient id="paint14_linear" x1="99.0492" y1="17.1026" x2="132.793" y2="17.1026" gradientUnits="userSpaceOnUse">
<stop stop-color="#31D1D6"/>
<stop offset="0.3733" stop-color="#32CED8"/>
<stop offset="0.6175" stop-color="#36C6DF"/>
<stop offset="0.824" stop-color="#3CB7EB"/>
<stop offset="1" stop-color="#45A3FA"/>
</linearGradient>
<linearGradient id="paint15_linear" x1="84.2908" y1="27.658" x2="100.383" y2="27.658" gradientUnits="userSpaceOnUse">
<stop stop-color="#F7BE86"/>
<stop offset="0.3293" stop-color="#F7BC83"/>
<stop offset="0.5448" stop-color="#F7B67B"/>
<stop offset="0.7276" stop-color="#F7AC6C"/>
<stop offset="0.8912" stop-color="#F79E57"/>
<stop offset="1" stop-color="#F79244"/>
</linearGradient>
<linearGradient id="paint16_linear" x1="179.34" y1="39.9584" x2="178.807" y2="59.3151" gradientUnits="userSpaceOnUse">
<stop stop-color="#7B6ED6"/>
<stop offset="0.4804" stop-color="#796DD5"/>
<stop offset="0.6535" stop-color="#7268D0"/>
<stop offset="0.7768" stop-color="#6760C9"/>
<stop offset="0.8765" stop-color="#5655BE"/>
<stop offset="0.961" stop-color="#4047B0"/>
<stop offset="1" stop-color="#333EA8"/>
</linearGradient>
<linearGradient id="paint17_linear" x1="192.386" y1="40.2129" x2="190.965" y2="85.1418" gradientUnits="userSpaceOnUse">
<stop stop-color="#7B6ED6"/>
<stop offset="0.4804" stop-color="#796DD5"/>
<stop offset="0.6535" stop-color="#7268D0"/>
<stop offset="0.7768" stop-color="#6760C9"/>
<stop offset="0.8765" stop-color="#5655BE"/>
<stop offset="0.961" stop-color="#4047B0"/>
<stop offset="1" stop-color="#333EA8"/>
</linearGradient>
<linearGradient id="paint18_linear" x1="204.23" y1="40.6432" x2="203.697" y2="59.9999" gradientUnits="userSpaceOnUse">
<stop stop-color="#7B6ED6"/>
<stop offset="0.4804" stop-color="#796DD5"/>
<stop offset="0.6535" stop-color="#7268D0"/>
<stop offset="0.7768" stop-color="#6760C9"/>
<stop offset="0.8765" stop-color="#5655BE"/>
<stop offset="0.961" stop-color="#4047B0"/>
<stop offset="1" stop-color="#333EA8"/>
</linearGradient>
<linearGradient id="paint19_linear" x1="89.7255" y1="81.4475" x2="219.01" y2="81.4475" gradientUnits="userSpaceOnUse">
<stop stop-color="#7B6ED6"/>
<stop offset="0.4804" stop-color="#796DD5"/>
<stop offset="0.6535" stop-color="#7268D0"/>
<stop offset="0.7768" stop-color="#6760C9"/>
<stop offset="0.8765" stop-color="#5655BE"/>
<stop offset="0.961" stop-color="#4047B0"/>
<stop offset="1" stop-color="#333EA8"/>
</linearGradient>
<linearGradient id="paint20_linear" x1="145.702" y1="26.8668" x2="169.097" y2="26.8668" gradientUnits="userSpaceOnUse">
<stop stop-color="#F7BE86"/>
<stop offset="0.3293" stop-color="#F7BC83"/>
<stop offset="0.5448" stop-color="#F7B67B"/>
<stop offset="0.7276" stop-color="#F7AC6C"/>
<stop offset="0.8912" stop-color="#F79E57"/>
<stop offset="1" stop-color="#F79244"/>
</linearGradient>
<linearGradient id="paint21_linear" x1="158.191" y1="72.2571" x2="219.011" y2="72.2571" gradientUnits="userSpaceOnUse">
<stop stop-color="#3C0887"/>
<stop offset="0.3227" stop-color="#3F0987"/>
<stop offset="0.5338" stop-color="#470E87"/>
<stop offset="0.7129" stop-color="#561588"/>
<stop offset="0.8732" stop-color="#6B1F89"/>
<stop offset="1" stop-color="#822A8A"/>
</linearGradient>
<linearGradient id="paint22_linear" x1="172.591" y1="31.8556" x2="203.332" y2="31.8556" gradientUnits="userSpaceOnUse">
<stop stop-color="#F7BE86"/>
<stop offset="0.3293" stop-color="#F7BC83"/>
<stop offset="0.5448" stop-color="#F7B67B"/>
<stop offset="0.7276" stop-color="#F7AC6C"/>
<stop offset="0.8912" stop-color="#F79E57"/>
<stop offset="1" stop-color="#F79244"/>
</linearGradient>
<linearGradient id="paint23_linear" x1="292.956" y1="448.134" x2="294.137" y2="366.593" gradientUnits="userSpaceOnUse">
<stop stop-color="#8AEBD6"/>
<stop offset="0.4615" stop-color="#89E9D7"/>
<stop offset="0.6276" stop-color="#84E2DA"/>
<stop offset="0.7461" stop-color="#7DD7DE"/>
<stop offset="0.8419" stop-color="#72C6E5"/>
<stop offset="0.9229" stop-color="#64B0EE"/>
<stop offset="0.9944" stop-color="#5395F9"/>
<stop offset="1" stop-color="#5193FA"/>
</linearGradient>
<linearGradient id="paint24_linear" x1="484.59" y1="442.901" x2="484.59" y2="371.109" gradientUnits="userSpaceOnUse">
<stop stop-color="#8AEBD6"/>
<stop offset="0.4615" stop-color="#89E9D7"/>
<stop offset="0.6276" stop-color="#84E2DA"/>
<stop offset="0.7461" stop-color="#7DD7DE"/>
<stop offset="0.8419" stop-color="#72C6E5"/>
<stop offset="0.9229" stop-color="#64B0EE"/>
<stop offset="0.9944" stop-color="#5395F9"/>
<stop offset="1" stop-color="#5193FA"/>
</linearGradient>
<linearGradient id="paint25_linear" x1="130.702" y1="442.901" x2="130.702" y2="371.109" gradientUnits="userSpaceOnUse">
<stop stop-color="#8AEBD6"/>
<stop offset="0.4615" stop-color="#89E9D7"/>
<stop offset="0.6276" stop-color="#84E2DA"/>
<stop offset="0.7461" stop-color="#7DD7DE"/>
<stop offset="0.8419" stop-color="#72C6E5"/>
<stop offset="0.9229" stop-color="#64B0EE"/>
<stop offset="0.9944" stop-color="#5395F9"/>
<stop offset="1" stop-color="#5193FA"/>
</linearGradient>
<linearGradient id="paint26_linear" x1="233.566" y1="299.052" x2="346.647" y2="322.16" gradientUnits="userSpaceOnUse">
<stop stop-color="#31D1D6"/>
<stop offset="0.3733" stop-color="#32CED8"/>
<stop offset="0.6175" stop-color="#36C6DF"/>
<stop offset="0.824" stop-color="#3CB7EB"/>
<stop offset="1" stop-color="#45A3FA"/>
</linearGradient>
<linearGradient id="paint27_linear" x1="275.723" y1="370.019" x2="274.541" y2="309.749" gradientUnits="userSpaceOnUse">
<stop stop-color="#F9E6D9"/>
<stop offset="0.121" stop-color="#FCF1EA"/>
<stop offset="0.2698" stop-color="#FEF9F6"/>
<stop offset="0.4751" stop-color="#FFFEFD"/>
<stop offset="1" stop-color="white"/>
</linearGradient>
<linearGradient id="paint28_linear" x1="331.639" y1="221.781" x2="378.422" y2="221.781" gradientUnits="userSpaceOnUse">
<stop stop-color="#7B6ED6"/>
<stop offset="0.4804" stop-color="#796DD5"/>
<stop offset="0.6535" stop-color="#7268D0"/>
<stop offset="0.7768" stop-color="#6760C9"/>
<stop offset="0.8765" stop-color="#5655BE"/>
<stop offset="0.961" stop-color="#4047B0"/>
<stop offset="1" stop-color="#333EA8"/>
</linearGradient>
</defs>
</svg>
