<svg width="188" height="7" viewBox="0 0 188 7" fill="none" xmlns="http://www.w3.org/2000/svg">
<circle cx="72.999" cy="3.4082" r="3" transform="rotate(-90 72.999 3.4082)" fill="#5193FA"/>
<circle cx="184.998" cy="3" r="3" transform="rotate(-90 184.998 3)" fill="#5193FA"/>
<circle cx="58.999" cy="3.45996" r="3" transform="rotate(-90 58.999 3.45996)" fill="#5193FA"/>
<circle cx="170.999" cy="3.05078" r="3" transform="rotate(-90 170.999 3.05078)" fill="#5193FA"/>
<circle cx="45" cy="3.51074" r="3" transform="rotate(-90 45 3.51074)" fill="#5193FA"/>
<circle cx="156.999" cy="3.10156" r="3" transform="rotate(-90 156.999 3.10156)" fill="#5193FA"/>
<circle cx="31" cy="3.56152" r="3" transform="rotate(-90 31 3.56152)" fill="#5193FA"/>
<circle cx="142.999" cy="3.15332" r="3" transform="rotate(-90 142.999 3.15332)" fill="#5193FA"/>
<circle cx="17" cy="3.61328" r="3" transform="rotate(-90 17 3.61328)" fill="#5193FA"/>
<circle cx="128.999" cy="3.2041" r="3" transform="rotate(-90 128.999 3.2041)" fill="#5193FA"/>
<circle cx="3" cy="3.66406" r="3" transform="rotate(-90 3 3.66406)" fill="#5193FA"/>
<circle cx="114.999" cy="3.25488" r="3" transform="rotate(-90 114.999 3.25488)" fill="#5193FA"/>
<circle cx="100.999" cy="3.30664" r="3" transform="rotate(-90 100.999 3.30664)" fill="#5193FA"/>
<circle cx="86.999" cy="3.35742" r="3" transform="rotate(-90 86.999 3.35742)" fill="#5193FA"/>
</svg>
