<svg width="260" height="146" viewBox="0 0 260 146" fill="none" xmlns="http://www.w3.org/2000/svg">
<path d="M252.677 41.6069C254.241 46.8525 255.967 51.8036 257.167 56.8809C259.587 67.0916 257.707 76.9025 253.771 86.4189C248.812 98.4319 241.699 109.126 233.631 119.239C230.923 122.633 230.895 122.942 233.308 126.56C235.652 130.06 236.627 133.91 236.423 138.103C236.199 142.627 233.561 145.221 229.029 145.151C217.195 144.969 205.36 144.745 193.526 144.534C180.569 144.296 167.619 144.036 154.662 143.854C153.814 143.84 152.958 144.471 152.095 144.78C150.881 145.214 149.647 146.014 148.433 146C121.895 145.684 95.3499 145.193 68.8118 144.927C52.7753 144.766 36.7389 144.822 20.7024 144.99C6.2022 145.144 -1.04438 131.925 0.113108 121.371C0.344605 119.274 1.25657 117.549 3.19974 116.686C6.58101 115.186 9.99034 113.72 13.4909 112.528C15.6445 111.791 17.0124 110.697 17.9595 108.565C21.1373 101.405 24.9956 94.701 31.7441 90.1778C36.2548 87.1552 41.3688 86.1314 46.6161 85.6054C49.1836 85.3459 51.7932 85.3529 54.3818 85.4511C55.8199 85.5072 56.6897 85.0163 57.5596 83.9364C62.8069 77.4495 68.2085 71.0187 75.0272 66.1659C79.608 62.9049 84.8272 60.5346 89.7027 57.6733C90.9795 56.923 92.3264 56.0113 93.1682 54.8331C104.084 39.5522 116.739 26.0315 132.382 15.4631C155.574 -0.210525 180.625 -3.82213 207.367 3.96211C216.023 6.48672 224.077 10.3999 231.197 16.0172C232.502 17.048 233.323 16.9288 234.62 16.0522C243.116 10.2877 253.133 11.9708 258.696 20.0004C260.548 22.6723 260.436 23.7874 258.303 26.305C257.868 26.8239 257.461 27.7917 257.651 28.3527C259.699 34.3767 258.38 38.0935 252.852 41.4527C252.733 41.5228 252.649 41.635 252.677 41.6069ZM235.132 18.8363C236.388 20.1337 237.644 21.2627 238.675 22.5601C239.405 23.4788 241.495 24.2993 240.148 25.6878C238.773 27.1114 237.868 25.1198 237.055 24.2993C229.64 16.8026 220.913 11.2695 211.092 7.65085C201.502 4.11639 191.456 2.58058 181.221 2.44032C163.726 2.19488 148.075 7.86124 133.715 17.4688C118.254 27.8057 105.858 41.2072 95.1254 56.2708C94.1573 57.6242 92.7543 58.9637 91.2531 59.5878C80.8637 63.8937 72.2632 70.5419 64.9535 78.9783C63.1436 81.0751 61.3337 83.172 59.8115 84.9322C60.513 86.0122 61.011 86.7766 61.5091 87.5339C60.6392 87.7233 59.7764 88.0459 58.8995 88.0739C53.5259 88.2562 48.0752 87.8986 42.7929 88.677C39.117 89.217 35.3358 90.7739 32.1931 92.8006C27.0089 96.1387 23.7399 101.433 21.446 107.009C19.5168 111.707 16.795 114.828 11.681 115.613C10.4884 115.796 10.1306 116.49 10.3692 117.724C10.8672 120.319 10.4183 122.879 8.74867 124.884C7.31058 126.602 5.38845 127.907 3.51542 129.534C4.79918 137.044 12.7192 143.054 21.0742 142.507C25.6199 142.213 29.5905 140.439 33.2804 137.858C34.0661 137.311 35.0552 136.091 35.9532 137.374C36.9002 138.728 35.399 139.289 34.5572 139.913C33.554 140.663 32.4667 141.294 31.2741 142.073C31.7231 142.283 31.8423 142.395 31.9686 142.395C40.7936 142.353 49.6185 142.374 58.4435 142.22C61.3969 142.171 63.8942 139.927 64.3292 137.108C64.5326 135.782 64.0626 134.366 64.0696 132.991C64.0696 132.353 64.4835 131.715 64.715 131.07C65.2552 131.483 65.8865 131.827 66.3144 132.332C66.6021 132.668 66.6161 133.244 66.7283 133.72C67.4509 136.862 66.3846 139.583 64.3993 142.276C65.171 142.346 65.641 142.423 66.111 142.43C90.9023 142.781 115.694 143.111 140.485 143.517C142.309 143.545 142.912 142.837 142.807 141.217C142.758 140.453 142.463 139.695 142.505 138.945C142.547 138.174 142.856 137.409 143.045 136.645C143.642 137.192 144.596 137.641 144.75 138.293C145.157 139.948 145.213 141.694 145.424 143.524C146.146 143.559 146.834 143.608 147.528 143.615C150.425 143.644 151.085 143.012 151.218 140.109C151.4 136.105 149.085 132.928 145.108 131.946C136.072 129.716 127.016 127.549 117.966 125.354C116.535 125.01 115.069 124.765 113.701 124.267C113.217 124.092 112.958 123.292 112.593 122.773C113.098 122.507 113.582 122.149 114.115 122.009C114.487 121.911 114.943 122.086 115.35 122.191C125.417 124.639 135.469 127.121 145.543 129.534C150.082 130.621 152.635 133.517 153.512 137.984C153.708 138.994 153.673 140.046 153.757 141.266C157.37 141.266 160.885 141.266 164.575 141.266C163.221 137.844 163.235 134.59 165.417 131.617C167.717 128.475 171.618 129.288 174.992 128.026C174.326 127.57 173.905 127.248 173.449 126.981C147.276 111.567 144.049 76.4887 167.03 56.6144C167.5 56.2076 168.44 56.3339 169.163 56.2076C168.98 56.9159 168.854 57.6453 168.594 58.3255C168.482 58.613 168.089 58.7884 167.823 59.0198C145.851 78.5154 151.176 114.442 177.861 126.42C179.096 126.974 180.688 127.009 182.077 126.89C184.441 126.68 186.77 126.097 189.127 125.803C189.59 125.747 190.124 126.28 190.629 126.546C190.278 127.058 190.004 127.647 189.555 128.054C189.289 128.292 188.756 128.243 188.342 128.321C182.554 129.344 176.76 130.361 170.972 131.399C166.735 132.157 164.813 136.336 166.883 140.151C167.605 141.477 168.573 141.862 170.032 141.357C169.92 140.719 169.675 140.151 169.759 139.639C170.046 137.879 170.369 136.119 170.881 134.422C171.001 134.029 171.962 133.903 172.53 133.65C172.663 134.253 172.979 134.885 172.895 135.46C172.768 136.336 172.207 137.157 172.116 138.033C171.842 140.81 172.684 141.708 175.42 141.764C177.798 141.813 180.183 141.82 182.561 141.862C197.826 142.143 213.091 142.437 228.356 142.718C232.425 142.795 233.975 141.287 234.024 137.213C234.066 133.601 233.028 130.319 230.93 127.374C228.412 123.825 228.496 121.771 231.246 118.334C238.626 109.126 245.185 99.4066 250.194 88.677C255.792 76.6781 257.742 64.3566 253.315 51.5932C251.695 46.9227 249.373 42.4976 247.465 37.9252C247.198 37.2871 247.43 36.4385 247.43 35.6881C248.138 36.0388 249.015 36.2351 249.52 36.7751C250.208 37.5044 250.615 38.4933 251.12 39.3418C255.666 37.5746 257.51 33.2126 255.217 29.2293C254.038 27.1886 253.75 26.0104 256.107 24.8253C257.118 24.3133 257.882 23.3385 257.04 21.8588C252.768 14.3621 241.551 12.7422 235.132 18.8363Z" fill="black" fill-opacity="0.8"/>
<path d="M235.131 18.8363C241.557 12.7422 252.774 14.3621 257.047 21.8659C257.888 23.3456 257.124 24.3274 256.114 24.8323C253.756 26.0174 254.044 27.1956 255.223 29.2363C257.517 33.2196 255.672 37.5816 251.126 39.3488C250.621 38.5073 250.214 37.5115 249.526 36.7821C249.014 36.2421 248.144 36.0458 247.436 35.6951C247.436 36.4455 247.204 37.2941 247.471 37.9322C249.386 42.5046 251.701 46.9297 253.322 51.6002C257.755 64.3636 255.798 76.6851 250.2 88.684C245.191 99.4137 238.632 109.133 231.252 118.341C228.495 121.778 228.411 123.832 230.936 127.381C233.034 130.333 234.072 133.608 234.03 137.22C233.981 141.294 232.431 142.802 228.362 142.725C213.097 142.444 197.832 142.15 182.567 141.869C180.189 141.827 177.804 141.813 175.426 141.771C172.697 141.715 171.848 140.817 172.122 138.04C172.206 137.164 172.774 136.343 172.901 135.467C172.985 134.892 172.669 134.26 172.536 133.657C171.961 133.91 171 134.043 170.887 134.429C170.368 136.126 170.053 137.893 169.765 139.646C169.681 140.165 169.926 140.733 170.038 141.364C168.579 141.869 167.611 141.484 166.889 140.158C164.812 136.343 166.734 132.164 170.979 131.406C176.766 130.368 182.553 129.351 188.348 128.328C188.762 128.257 189.295 128.307 189.561 128.061C190.01 127.654 190.284 127.065 190.635 126.553C190.13 126.294 189.597 125.754 189.134 125.81C186.776 126.104 184.447 126.687 182.083 126.897C180.694 127.016 179.102 126.981 177.867 126.427C151.182 114.449 145.857 78.5295 167.829 59.0268C168.088 58.7954 168.488 58.6201 168.6 58.3325C168.86 57.6523 168.986 56.923 169.169 56.2147C168.446 56.3409 167.513 56.2147 167.036 56.6214C144.062 76.4958 147.282 111.574 173.455 126.988C173.911 127.255 174.332 127.584 174.998 128.033C171.624 129.302 167.724 128.489 165.423 131.624C163.241 134.597 163.227 137.851 164.581 141.273C160.891 141.273 157.376 141.273 153.764 141.273C153.679 140.053 153.714 139.001 153.518 137.991C152.641 133.524 150.088 130.628 145.549 129.541C135.475 127.121 125.423 124.646 115.356 122.198C114.949 122.1 114.493 121.925 114.121 122.016C113.581 122.156 113.104 122.514 112.599 122.78C112.964 123.299 113.223 124.099 113.707 124.274C115.082 124.772 116.548 125.017 117.973 125.361C127.022 127.556 136.071 129.723 145.114 131.953C149.084 132.935 151.406 136.105 151.224 140.116C151.091 143.019 150.424 143.658 147.534 143.623C146.84 143.615 146.152 143.566 145.43 143.531C145.219 141.701 145.163 139.955 144.756 138.3C144.595 137.648 143.641 137.192 143.051 136.652C142.862 137.416 142.553 138.181 142.511 138.952C142.469 139.702 142.764 140.46 142.813 141.224C142.918 142.844 142.315 143.552 140.491 143.524C115.7 143.118 90.9084 142.788 66.1171 142.437C65.6471 142.43 65.17 142.353 64.4054 142.283C66.3907 139.597 67.4569 136.876 66.7344 133.727C66.6222 133.251 66.6081 132.675 66.3205 132.339C65.8926 131.827 65.2612 131.483 64.7211 131.077C64.4966 131.715 64.0757 132.353 64.0757 132.998C64.0687 134.373 64.5457 135.789 64.3352 137.115C63.9003 139.934 61.4029 142.178 58.4496 142.227C49.6246 142.381 40.7996 142.36 31.9747 142.402C31.8554 142.402 31.7291 142.297 31.2802 142.08C32.4797 141.301 33.5601 140.663 34.5632 139.92C35.398 139.296 36.9063 138.735 35.9592 137.381C35.0613 136.098 34.0722 137.318 33.2865 137.865C29.6036 140.446 25.626 142.213 21.0802 142.514C12.7253 143.061 4.80524 137.051 3.52148 129.541C5.39451 127.914 7.31664 126.609 8.75474 124.891C10.4313 122.893 10.8803 120.326 10.3752 117.731C10.1367 116.497 10.4875 115.803 11.687 115.62C16.801 114.842 19.5159 111.714 21.452 107.016C23.746 101.44 27.015 96.1457 32.1991 92.8076C35.3419 90.7879 39.123 89.231 42.7989 88.684C48.0813 87.9056 53.532 88.2633 58.9056 88.0809C59.7824 88.0529 60.6453 87.7303 61.5152 87.541C61.0171 86.7766 60.526 86.0192 59.8175 84.9392C61.3398 83.172 63.1497 81.0751 64.9596 78.9853C72.2693 70.5489 80.8698 63.9007 91.2591 59.5949C92.7603 58.9707 94.1704 57.6313 95.1314 56.2778C105.865 41.2142 118.26 27.8127 133.721 17.4758C148.081 7.86826 163.725 2.20189 181.228 2.44734C191.463 2.5876 201.508 4.12341 211.098 7.65787C220.919 11.2765 229.646 16.8096 237.061 24.3063C237.874 25.1268 238.772 27.1185 240.154 25.6949C241.501 24.3063 239.411 23.4858 238.681 22.5671C237.636 21.2628 236.38 20.1337 235.131 18.8363ZM59.8666 92.6042C58.5057 93.1512 55.9171 94.0909 53.4408 95.2691C52.8726 95.5426 52.6902 96.6296 52.3324 97.3379C53.1181 97.3028 54.0511 97.5272 54.6614 97.1836C57.0255 95.8371 59.4668 94.8693 62.2237 95.206C66.1732 95.6828 67.7025 98.6282 65.8926 102.177C64.6158 104.673 62.4341 106.104 59.9999 107.303C59.4808 107.563 59.2283 108.369 58.8565 108.923C59.572 109.098 60.4068 109.596 60.975 109.386C63.7249 108.369 65.9768 106.644 67.5622 104.112C69.0985 101.658 69.793 99.0911 68.3408 96.3982C66.8396 93.6351 64.23 92.7936 59.8666 92.6042ZM36.7309 117.857C40.2034 117.871 42.8971 115.08 42.5744 111.658C42.5183 111.048 41.8729 110.494 41.4941 109.919C41.0662 110.501 40.3156 111.055 40.2665 111.665C40.1262 113.467 39.4878 114.835 37.6779 115.291C35.5804 115.817 34.2405 114.849 33.3356 112.941C33.0971 112.429 32.2412 112.212 31.666 111.854C31.5046 112.528 31.0767 113.264 31.224 113.867C31.7852 116.223 34.1283 117.843 36.7309 117.857Z" fill="url(#paint0_linear_1338:1764)"/>
<path d="M59.8674 92.6041C64.2308 92.7865 66.8404 93.635 68.3346 96.3981C69.7937 99.091 69.0992 101.665 67.5559 104.112C65.9705 106.637 63.7187 108.369 60.9688 109.386C60.4005 109.596 59.5657 109.098 58.8502 108.923C59.222 108.369 59.4745 107.555 59.9937 107.303C62.4279 106.104 64.6166 104.673 65.8863 102.177C67.6962 98.6351 66.1669 95.6827 62.2174 95.2059C59.4605 94.8693 57.0193 95.837 54.6552 97.1835C54.0449 97.5271 53.1119 97.3027 52.3262 97.3378C52.6839 96.6225 52.8663 95.5355 53.4346 95.269C55.9179 94.0908 58.5065 93.1581 59.8674 92.6041Z" fill="black" fill-opacity="0.8"/>
<path d="M36.7313 117.857C34.1357 117.85 31.7857 116.223 31.2245 113.86C31.0842 113.257 31.5051 112.521 31.6664 111.847C32.2417 112.198 33.0975 112.422 33.336 112.934C34.241 114.849 35.5879 115.817 37.6783 115.284C39.4882 114.828 40.1266 113.467 40.2669 111.658C40.316 111.048 41.0666 110.494 41.4946 109.912C41.8664 110.494 42.5188 111.048 42.5749 111.651C42.8976 115.08 40.2038 117.864 36.7313 117.857Z" fill="black" fill-opacity="0.8"/>
<defs>
<linearGradient id="paint0_linear_1338:1764" x1="300" y1="-89.9998" x2="32" y2="154" gradientUnits="userSpaceOnUse">
<stop stop-color="#A1CCFF"/>
<stop offset="1" stop-color="white" stop-opacity="0"/>
</linearGradient>
</defs>
</svg>
