<svg width="28" height="24" viewBox="0 0 28 24" fill="none" xmlns="http://www.w3.org/2000/svg">
<path d="M14.0002 0.753906C13.5082 0.753906 13.021 0.850806 12.5665 1.03907C12.112 1.22734 11.699 1.50329 11.3512 1.85116C11.0033 2.19903 10.7273 2.61201 10.5391 3.06653C10.3508 3.52104 10.2539 4.00819 10.2539 4.50016C10.2539 4.99212 10.3508 5.47927 10.5391 5.93378C10.7273 6.3883 11.0033 6.80128 11.3512 7.14915C11.699 7.49703 12.112 7.77297 12.5665 7.96124C13.021 8.14951 13.5082 8.24641 14.0002 8.24641C14.9937 8.24641 15.9466 7.85171 16.6492 7.14915C17.3517 6.4466 17.7464 5.49372 17.7464 4.50016C17.7464 3.50659 17.3517 2.55372 16.6492 1.85116C15.9466 1.1486 14.9937 0.753906 14.0002 0.753906Z" fill="#FFB34C"/>
<path d="M22.4375 2.625C21.6916 2.625 20.9762 2.92132 20.4488 3.44876C19.9213 3.97621 19.625 4.69158 19.625 5.4375C19.625 6.18342 19.9213 6.89879 20.4488 7.42624C20.9762 7.95368 21.6916 8.25 22.4375 8.25C23.1834 8.25 23.8988 7.95368 24.4262 7.42624C24.9537 6.89879 25.25 6.18342 25.25 5.4375C25.25 4.69158 24.9537 3.97621 24.4262 3.44876C23.8988 2.92132 23.1834 2.625 22.4375 2.625Z" fill="#FFB34C"/>
<path d="M5.5625 2.625C4.81658 2.625 4.10121 2.92132 3.57376 3.44876C3.04632 3.97621 2.75 4.69158 2.75 5.4375C2.75 6.18342 3.04632 6.89879 3.57376 7.42624C4.10121 7.95368 4.81658 8.25 5.5625 8.25C6.30842 8.25 7.02379 7.95368 7.55124 7.42624C8.07868 6.89879 8.375 6.18342 8.375 5.4375C8.375 4.69158 8.07868 3.97621 7.55124 3.44876C7.02379 2.92132 6.30842 2.625 5.5625 2.625Z" fill="#FFB34C"/>
<path d="M8.375 11.9869C8.37847 11.4919 8.57754 11.0183 8.92879 10.6695C9.28005 10.3207 9.75498 10.125 10.25 10.125H17.75C18.2473 10.125 18.7242 10.3225 19.0758 10.6742C19.4275 11.0258 19.625 11.5027 19.625 12V17.625C19.6249 18.2151 19.5325 18.8016 19.3512 19.3631C18.9361 20.6357 18.0808 21.7186 16.9391 22.4173C15.7974 23.116 14.4439 23.3849 13.1218 23.1755C11.7997 22.9662 10.5955 22.2923 9.72553 21.275C8.85553 20.2577 8.37669 18.9636 8.375 17.625V12V11.9869Z" fill="#FFB34C"/>
<path d="M6.5 12C6.5 11.3156 6.68188 10.6762 7.0025 10.125H2.75C2.25272 10.125 1.77581 10.3225 1.42417 10.6742C1.07254 11.0258 0.875 11.5027 0.875 12V16.6875C0.874745 17.4549 1.06292 18.2107 1.42301 18.8884C1.7831 19.5662 2.30408 20.1451 2.9402 20.5744C3.57633 21.0038 4.30813 21.2703 5.07136 21.3508C5.83458 21.4312 6.60587 21.323 7.3175 21.0356C6.77784 19.9792 6.4976 18.8094 6.5 17.6231V12Z" fill="#FFB34C"/>
<path d="M21.5001 12V17.625C21.5001 18.8531 21.2057 20.0119 20.6826 21.0356C21.3942 21.323 22.1655 21.4312 22.9288 21.3508C23.692 21.2703 24.4238 21.0038 25.0599 20.5744C25.696 20.1451 26.217 19.5662 26.5771 18.8884C26.9372 18.2107 27.1254 17.4549 27.1251 16.6875V12C27.1251 11.5027 26.9276 11.0258 26.5759 10.6742C26.2243 10.3225 25.7474 10.125 25.2501 10.125H20.9976C21.3164 10.6762 21.5001 11.3156 21.5001 12Z" fill="#FFB34C"/>
</svg>
