<svg width="82" height="80" viewBox="0 0 82 80" fill="none" xmlns="http://www.w3.org/2000/svg">
<path d="M65.2945 40.1607C65.0345 41.4207 63.8945 42.3407 63.9545 43.7207C63.4745 43.9807 63.2845 44.3807 63.3545 44.9207C63.1545 45.5207 62.9545 46.1107 62.7545 46.7107C61.9445 47.0907 61.5845 47.6707 61.9145 48.5707C61.7545 48.9407 61.5945 49.3107 61.4445 49.6707C60.9645 49.8207 60.7845 50.1907 60.7345 50.6507C60.7345 50.6507 60.7045 50.6807 60.7045 50.6907C59.8945 50.8307 59.4145 51.3607 59.0745 52.0507C58.3745 52.5107 58.4945 53.1907 58.5945 53.8607C58.5745 56.2507 58.5445 58.6507 58.5245 61.0407C57.7945 62.0007 56.7345 61.7707 55.7645 61.7707C41.4945 61.7807 27.2245 61.7207 12.9445 61.8307C10.3845 61.8507 9.76453 60.9407 9.77453 58.5407C9.86453 42.8307 9.83448 27.1207 9.84448 11.4107C10.6845 10.9607 11.4745 11.1707 12.2645 11.5607C12.2545 26.4707 12.2945 41.3907 12.1745 56.3007C12.1545 58.7707 12.8445 59.5107 15.3445 59.4907C27.9145 59.3707 40.4945 59.3807 53.0645 59.4807C55.5545 59.5007 56.6645 58.8407 56.0445 56.2807C56.1645 55.8107 56.2745 55.3007 55.6045 55.2107C55.0245 55.1407 54.8645 55.6707 54.6545 56.0907C53.3945 56.2107 52.5645 55.9207 52.5845 54.3907C52.6145 52.4307 52.5045 50.4707 52.4545 48.5107C52.4545 47.5007 52.4545 46.4907 52.4645 45.4807C53.7145 42.5007 54.9645 39.5207 56.2145 36.5407C57.4545 36.3007 57.3045 35.3207 57.3045 34.4507C57.3045 28.4407 57.2745 22.4207 57.3245 16.4107C57.3345 14.9907 56.8045 14.1707 55.4145 13.9007C55.0645 13.8907 54.7145 13.8907 54.3645 13.8807C53.5145 12.8807 52.3445 13.3107 51.3045 13.2707C49.7245 13.2007 48.0845 13.5107 46.5745 13.1807C44.7245 12.7807 46.3145 12.3107 46.7245 11.9007C48.3845 11.9507 50.0545 12.0507 51.7145 12.0407C52.5245 12.0307 53.7445 12.5507 54.0345 11.4507C54.6645 9.09069 55.5345 10.4507 56.3945 11.1707C57.0645 11.7207 57.5745 12.5007 58.5145 12.6607V12.6507C58.5145 18.4107 58.5145 24.1707 58.5145 29.9307C59.9545 28.0507 61.3645 26.2907 61.4145 23.9507C61.5145 23.4607 61.6245 22.9707 61.7245 22.4807C63.1045 21.0407 63.6045 18.4807 66.3945 18.8307C66.7845 18.9307 67.1645 19.0307 67.5545 19.1307C67.7745 19.6507 68.1745 19.8607 68.7245 19.8407C72.3545 21.1707 72.7045 22.1607 71.3745 25.5507C70.0445 28.9207 68.2345 32.1007 67.3545 35.6507C66.6445 35.8007 66.1245 36.9807 65.2945 36.1807C64.7645 35.6707 64.9645 34.8507 65.2145 34.2007C65.6245 33.0907 66.0245 31.9607 66.5645 30.9107C67.9945 28.1307 65.2945 28.4007 64.1145 27.6407C62.5645 26.6407 62.2645 27.8707 61.6145 29.0107C58.9445 33.7107 57.7645 39.0207 55.4645 43.8507C54.6145 45.6307 55.5745 46.3307 56.7545 46.8207C58.0145 47.3407 59.6045 48.3407 60.4345 46.0807C61.2245 43.9607 62.0745 41.8507 62.9345 39.7607C63.2045 39.1207 63.6245 38.4207 64.4145 38.5007C65.3945 38.5907 64.9945 39.6007 65.2945 40.1607ZM69.5545 23.9807C69.2545 21.8407 67.4945 21.4307 66.0845 21.3307C64.2245 21.2007 63.6145 23.0907 63.6345 24.4107C63.6645 26.4007 65.9645 26.3907 67.1945 26.6907C68.9045 27.1107 68.8245 24.9607 69.5545 23.9807ZM54.5745 50.4507C54.8245 50.9507 54.3245 52.2807 55.3545 52.1707C56.4445 52.0407 57.5045 50.9107 57.6145 49.8207C57.6845 49.0807 56.4545 48.5407 55.5545 48.5307C54.3245 48.5107 54.6645 49.5507 54.5745 50.4507Z" fill="#7AAF52"/>
<path d="M80.6939 79.5708C78.5239 79.7308 77.1939 78.7308 75.8439 77.6308C71.5639 74.1008 69.3239 74.1108 65.0939 77.5308C61.3539 80.5608 56.2039 80.5408 52.4739 77.4708C48.4639 74.1708 45.8139 74.1707 41.9239 77.4407C38.3039 80.4907 33.1239 80.7407 29.6739 77.5807C26.3139 74.5007 22.3439 74.3108 18.7639 77.3808C14.6739 80.8908 10.0339 80.5508 5.7839 77.0908C4.7039 76.2208 3.67392 75.2308 2.17392 75.1308C1.09392 75.0608 0.823947 74.3708 0.953947 73.4908C1.13395 72.3008 2.13392 72.6008 2.86392 72.6808C4.62392 72.8708 5.95395 73.9408 7.27395 75.0208C11.164 78.2108 13.7239 78.2108 17.6439 75.0708C22.0339 71.5508 26.1539 71.5608 30.6339 75.1008C34.6239 78.2508 36.9139 78.2208 40.9639 74.9808C45.1639 71.6208 49.2439 71.6008 53.394 74.9108C57.6339 78.2908 59.9239 78.2908 64.2639 74.8908C68.3539 71.6808 72.3939 71.6508 76.4739 74.8208C77.8039 75.8508 78.9939 77.1208 80.8039 77.3108C81.6939 77.4008 81.9639 77.9608 81.9439 78.7508C81.8939 79.8908 81.0039 79.5108 80.6939 79.5708Z" fill="#7AAF52"/>
<path d="M9.93451 7.85067C9.46451 0.0206728 9.46453 0.000672646 17.2745 0.0306726C26.9645 0.0606726 36.6545 0.140673 46.3445 0.200673C46.8345 0.910673 47.3345 1.62067 47.8245 2.33067C46.6845 4.66067 45.3645 2.17067 44.1445 2.47067C43.9545 2.41067 43.7545 2.34067 43.5645 2.28067C43.2045 1.08067 42.1945 1.32067 41.3345 1.32067C32.4545 1.31067 23.5745 1.31067 14.6945 1.32067C13.7545 1.32067 12.5845 1.00067 12.3545 2.48067C10.5545 2.86067 11.3645 4.32067 11.1945 5.35067C11.0245 6.33067 11.6145 7.64067 9.93451 7.85067Z" fill="#7AAF52"/>
<path d="M58.514 12.6606C57.564 12.5006 57.054 11.7306 56.394 11.1706C55.524 10.4506 54.6639 9.09063 54.0339 11.4506C53.7439 12.5506 52.5239 12.0306 51.7139 12.0406C50.0539 12.0606 48.3839 11.9606 46.7239 11.9006C46.6439 10.0206 46.5539 8.13063 46.4939 6.25063C46.4739 5.69063 46.174 4.97063 46.874 4.66063C47.754 4.27063 48.104 5.10063 48.524 5.60063C49.714 7.02063 50.824 8.55063 53.264 7.94063C52.714 7.08063 52.2439 6.35063 51.7839 5.62063C51.8639 5.55063 51.934 5.47063 52.014 5.40063C54.744 7.31063 57.484 9.22063 58.514 12.6606Z" fill="#DCEBDA"/>
<path d="M61.4136 23.9506C61.3536 26.2906 59.9437 28.0506 58.5137 29.9306C58.5137 24.1706 58.5137 18.4106 58.5137 12.6506C59.9637 12.8506 59.7037 13.9706 59.7037 14.9106C59.7237 17.2506 59.7337 19.6006 59.7037 21.9406C59.6837 23.1506 59.8336 24.1206 61.4136 23.9506Z" fill="#DCEBDA"/>
<path d="M9.93457 7.85071C11.6146 7.64071 11.0346 6.32071 11.1946 5.35071C11.3646 4.31071 10.5546 2.86071 12.3546 2.48071C12.2946 4.59071 12.2346 6.71071 12.1746 8.82071C11.4646 8.88071 10.7546 8.94071 10.0446 9.01071C9.99456 8.62071 9.96457 8.24071 9.93457 7.85071Z" fill="#8BBA69"/>
<path d="M58.5244 61.0406C58.5444 58.6506 58.5744 56.2506 58.5944 53.8606C60.2344 55.6106 60.1944 59.4606 58.5244 61.0406Z" fill="#DCEBDA"/>
<path d="M66.3947 18.8307C63.6047 18.4807 63.1046 21.0407 61.7246 22.4807C62.2546 18.3907 63.6047 17.3307 66.3947 18.8307Z" fill="#DCEBDA"/>
<path d="M10.0338 9.01068C10.7438 8.95068 11.4538 8.89068 12.1638 8.82068C12.1938 9.73068 12.2238 10.6507 12.2538 11.5607C11.4738 11.1707 10.6738 10.9507 9.83384 11.4107C9.13384 10.5507 9.14379 9.74068 10.0338 9.01068Z" fill="#DCEBDA"/>
<path d="M47.814 2.33069C47.324 1.62069 46.824 0.910688 46.334 0.200688C48.274 0.150688 48.7339 1.81069 49.5939 3.01069C49.5139 3.09069 49.444 3.16069 49.364 3.24069C48.854 2.93069 48.334 2.63069 47.814 2.33069Z" fill="#DCEBDA"/>
<path d="M61.9041 48.5607C61.5741 47.6707 61.9341 47.0907 62.7441 46.7007C63.8141 47.9307 62.5741 48.1107 61.9041 48.5607Z" fill="#DCEBDA"/>
<path d="M59.0742 52.0407C59.4142 51.3407 59.8942 50.8207 60.7042 50.6807C61.0042 52.1307 60.0142 52.0607 59.0742 52.0407Z" fill="#DCEBDA"/>
<path d="M68.7139 19.8407C68.1739 19.8607 67.7639 19.6507 67.5439 19.1307C68.5639 18.3507 68.6239 19.1207 68.7139 19.8407Z" fill="#DCEBDA"/>
<path d="M63.3441 44.9107C63.2741 44.3807 63.4642 43.9707 63.9442 43.7107C64.8042 44.6407 64.1241 44.8007 63.3441 44.9107Z" fill="#DCEBDA"/>
<path d="M49.594 3.01062C50.284 3.12062 50.704 3.50062 50.794 4.21062C50.724 4.28062 50.644 4.36062 50.574 4.43062C49.984 4.23062 49.574 3.83062 49.374 3.24062C49.444 3.16062 49.514 3.09062 49.594 3.01062Z" fill="#DCEBDA"/>
<path d="M50.7944 4.21069C51.4944 4.31069 51.8944 4.71069 51.9944 5.41069C51.9144 5.48069 51.8445 5.56069 51.7645 5.63069C51.1745 5.42069 50.7745 5.02069 50.5645 4.43069C50.6445 4.35069 50.7144 4.28069 50.7944 4.21069Z" fill="#DCEBDA"/>
<path d="M60.7246 50.6406C60.7746 50.1806 60.9546 49.8106 61.4346 49.6606C61.8046 49.8606 62.0746 50.2006 61.7546 50.5206C61.5646 50.7106 61.0746 50.6106 60.7246 50.6406Z" fill="#DCEBDA"/>
<path d="M54.3541 14.4707C51.5441 14.4707 48.7341 14.4607 45.9341 14.4607C45.6741 13.9807 45.2141 13.8807 44.7241 13.8707C43.4641 10.1307 44.4841 6.2707 44.1441 2.4807C45.3641 2.1807 46.6841 4.6707 47.8241 2.3407C48.3441 2.6407 48.8541 2.9407 49.3741 3.2507C49.5841 3.8407 49.9841 4.2407 50.5741 4.4407C50.7841 5.0307 51.1841 5.4307 51.7741 5.6407C52.2441 6.3707 52.7041 7.1007 53.2541 7.9607C50.8041 8.5707 49.7041 7.0407 48.5141 5.6207C48.0941 5.1207 47.7441 4.2907 46.8641 4.6807C46.1641 4.9907 46.4641 5.7107 46.4841 6.2707C46.5441 8.1607 46.6341 10.0407 46.7141 11.9207C46.3041 12.3207 44.7141 12.8007 46.5641 13.2007C48.0741 13.5307 49.7141 13.2207 51.2941 13.2907C52.3341 13.3307 53.4941 12.9007 54.3541 13.9007C54.3341 14.0807 54.3341 14.2707 54.3541 14.4707Z" fill="#8BBA69"/>
<path d="M56.2045 36.5506C55.9245 29.3506 56.3545 22.1306 55.6845 14.9406C55.5845 14.6006 55.4945 14.2506 55.3945 13.9106C56.7845 14.1806 57.3145 15.0006 57.3045 16.4206C57.2545 22.4306 57.2945 28.4506 57.2845 34.4606C57.2945 35.3306 57.4445 36.3106 56.2045 36.5506Z" fill="#8BBA69"/>
<path d="M69.554 23.9807C68.834 24.9607 68.904 27.1107 67.204 26.6907C65.974 26.3807 63.674 26.4007 63.644 24.4107C63.624 23.0907 64.234 21.2007 66.094 21.3307C67.494 21.4307 69.254 21.8407 69.554 23.9807Z" fill="#DCEBDA"/>
<path d="M54.5742 50.4507C54.6642 49.5507 54.3242 48.5107 55.5542 48.5207C56.4542 48.5307 57.6842 49.0707 57.6142 49.8107C57.5042 50.9007 56.4442 52.0307 55.3542 52.1607C54.3242 52.2907 54.8242 50.9507 54.5742 50.4507Z" fill="#DCEBDA"/>
<path d="M52.4538 48.5107C51.8738 48.5007 51.2937 48.4907 50.7137 48.4807C51.8137 47.3707 50.6938 46.7907 50.1338 46.0707C50.7538 45.2607 51.6638 45.6107 52.4538 45.4907C52.4538 46.4907 52.4538 47.5007 52.4538 48.5107Z" fill="#DCEBDA"/>
<path d="M55.4039 13.9106C55.5039 14.2506 55.5939 14.6006 55.6939 14.9406C55.1639 15.0206 54.6639 15.0006 54.3539 14.4706C54.3339 14.2806 54.3339 14.0806 54.3539 13.8906C54.6939 13.9006 55.0539 13.9006 55.4039 13.9106Z" fill="#DCEBDA"/>
<path d="M56.0443 56.2806C55.5843 56.2206 55.1143 56.1506 54.6543 56.0906C54.8643 55.6806 55.0243 55.1406 55.6043 55.2106C56.2743 55.3006 56.1643 55.8106 56.0443 56.2806Z" fill="#DCEBDA"/>
<path d="M43.5538 2.28074C33.1538 2.35074 22.7437 2.41074 12.3438 2.48074C12.5837 1.01074 13.7538 1.32074 14.6838 1.32074C23.5638 1.30074 32.4438 1.31074 41.3238 1.32074C42.1838 1.32074 43.2038 1.08074 43.5538 2.28074Z" fill="#8BBA69"/>
<path d="M20.6442 42.6106C19.3142 42.2706 17.0742 43.5006 16.3942 41.3306C15.6342 38.9006 15.5942 36.2406 16.4842 33.7806C16.8942 32.6406 18.2442 32.7206 19.3542 32.6406C21.4742 32.4906 23.7442 33.2506 25.6542 31.6406C26.0742 31.2806 26.6342 31.5106 26.8942 32.0206C27.1742 32.5906 27.1442 33.2206 26.6742 33.6706C25.4642 34.8606 25.5742 36.3306 25.6142 37.8306C25.7242 42.5706 25.6742 42.6106 20.6442 42.6106ZM18.1242 37.0406C18.3442 40.5006 19.4242 41.5206 21.9742 40.6506C22.6242 40.4306 23.3342 40.0806 23.2242 39.2306C23.0542 37.8106 22.2742 38.8906 21.7542 38.9306C20.2942 39.0506 19.7642 37.8606 18.9942 37.0106C18.7442 36.1906 20.2542 35.9706 19.6242 34.8806C18.6342 35.3006 17.6142 35.5806 18.1242 37.0406Z" fill="#7AAF52"/>
<path d="M20.4638 30.4707C19.2038 30.1307 17.0338 31.3507 16.3838 29.4307C15.5738 27.0207 15.7038 24.3507 16.4038 21.8407C16.6438 20.9907 17.6638 21.0507 18.4738 21.0007C20.8738 20.8407 23.4638 21.6807 25.5538 19.7207C25.8138 19.4707 26.3138 19.4407 26.5938 19.8607C26.9638 20.4007 27.0138 21.0307 26.6138 21.5207C25.6838 22.6907 25.5038 23.9807 25.5838 25.4207C25.8438 30.4707 25.8138 30.4707 20.4638 30.4707ZM19.5638 25.6807C19.2338 24.7407 21.0638 24.2007 20.0538 23.1507C19.6838 22.7707 19.1438 22.7207 18.7138 22.9707C17.6038 23.6307 17.4738 24.5807 18.0838 25.6707C17.9838 28.8607 20.2838 28.1907 22.1638 28.1707C22.7238 28.1607 23.0738 27.8407 23.0438 27.2507C22.9838 26.3507 22.4738 26.3907 21.8538 26.7407C20.5838 27.4607 20.1438 26.4307 19.5638 25.6807Z" fill="#7AAF52"/>
<path d="M16.0137 49.5607C16.0137 44.8307 16.0137 44.8307 21.1337 44.8407C25.8137 44.8507 25.8237 44.8607 25.8137 50.1007C25.8037 54.5907 25.5737 54.7907 20.4337 54.7807C16.0837 54.7807 16.0137 54.7007 16.0137 49.5607ZM23.2437 49.6407C23.5637 47.8707 22.9237 47.1207 21.0137 47.1907C19.2737 47.2507 18.2037 47.4407 18.2437 49.6107C18.2737 51.5207 18.8336 52.2607 20.8036 52.3007C22.8236 52.3207 23.5637 51.5507 23.2437 49.6407Z" fill="#7AAF52"/>
<path d="M40.914 34.2107C43.704 34.2107 46.504 34.1707 49.294 34.2307C50.234 34.2507 51.5741 34.1007 51.5041 35.5407C51.4541 36.5407 50.434 36.9207 49.474 36.9207C43.594 36.9407 37.7041 36.9407 31.8241 36.9407C30.8341 36.9407 29.9141 36.6507 29.9441 35.5207C29.9741 34.3507 31.0241 34.2307 31.9441 34.2307C34.9341 34.2007 37.924 34.2107 40.914 34.2107Z" fill="#8BBA69"/>
<path d="M40.5343 22.3006C43.5243 22.3006 46.5144 22.2706 49.5144 22.3106C50.2644 22.3206 51.2644 22.2206 51.3044 23.3706C51.3344 24.4006 50.5144 24.7406 49.6844 24.7506C43.6044 24.7906 37.5244 24.7806 31.4344 24.7706C30.6844 24.7706 30.0044 24.4406 29.9544 23.5906C29.8844 22.5006 30.7044 22.3106 31.5544 22.3006C34.5544 22.3006 37.5443 22.3106 40.5343 22.3006Z" fill="#7AAF52"/>
<path d="M31.964 50.4607C36.624 51.0407 41.304 50.6707 45.974 50.8007C46.844 50.8207 48.1841 50.2207 48.2741 51.8407C48.3641 53.3407 47.134 53.2307 46.164 53.2407C41.484 53.2607 36.814 53.2607 32.134 53.2507C31.334 53.2507 30.434 53.2907 30.044 52.4407C29.604 51.4807 30.504 51.0607 31.064 50.5307C31.364 50.5007 31.664 50.4807 31.964 50.4607Z" fill="#8BBA69"/>
<path d="M38.9939 26.8606C41.2939 26.8606 43.5939 26.8506 45.8939 26.8706C46.5939 26.8806 47.4339 26.9306 47.5039 27.8306C47.5839 28.8306 46.8439 29.2306 45.9539 29.2406C41.1539 29.2606 36.3539 29.2606 31.5639 29.2506C30.6639 29.2506 29.9239 28.9106 29.9839 27.8906C30.0539 26.7506 31.0339 26.8806 31.8039 26.8706C34.1939 26.8406 36.5939 26.8506 38.9939 26.8606Z" fill="#7AAF52"/>
<path d="M50.1339 46.0707C50.6938 46.7907 51.8138 47.3707 50.7138 48.4807C50.5238 48.4807 50.3338 48.5207 50.1538 48.6007C49.7538 48.5107 49.3538 48.4307 48.9438 48.3407C50.0738 47.3907 49.5838 47.2407 48.4438 47.2507C42.3538 47.2707 36.2638 47.2607 30.1738 47.2507C30.6538 45.5507 32.0838 46.1407 33.1538 46.1307C38.8238 46.0607 44.4739 46.0807 50.1339 46.0707Z" fill="#8BBA69"/>
<path d="M29.134 10.2507C32.624 10.1907 36.104 10.1207 39.594 10.0807C40.264 10.0707 41.074 9.9807 41.124 11.0207C41.184 12.1307 40.404 12.3507 39.564 12.3707C36.074 12.4707 32.594 12.6007 29.124 12.0207C29.144 11.4207 29.134 10.8307 29.134 10.2507Z" fill="#7AAF52"/>
<path d="M48.9541 48.3407C49.3541 48.4307 49.7541 48.5107 50.1641 48.6007C49.7341 50.1507 48.4341 49.6407 47.4541 49.6507C43.3041 49.7007 39.1441 49.6607 34.9841 49.6807C33.9341 49.6907 32.7641 49.3607 31.9741 50.4507C31.6741 50.4707 31.3741 50.4907 31.0741 50.5207C31.0241 49.8707 30.9641 49.2207 30.9141 48.5707C36.9241 48.4907 42.9341 48.4207 48.9541 48.3407Z" fill="#DCEBDA"/>
<path d="M48.9543 48.3407C42.9443 48.4107 36.9243 48.4907 30.9143 48.5607C30.5243 48.2107 30.0243 47.9107 30.1943 47.2507C36.2843 47.2507 42.3743 47.2707 48.4643 47.2507C49.5943 47.2507 50.0743 47.3907 48.9543 48.3407Z" fill="#7AAF52"/>
<path d="M33.8242 38.8807C34.8942 39.2607 37.3042 38.0907 37.3242 39.9307C37.3542 42.0807 34.9041 41.1207 33.4741 41.3307C32.9941 41.4007 32.4942 41.3407 31.9942 41.3307C30.9242 41.3307 29.8042 41.0407 29.9342 39.8107C30.0542 38.7007 31.2742 38.9207 32.1342 38.8807C32.6242 38.8607 33.1142 38.8807 33.8242 38.8807Z" fill="#8BBA69"/>
<path d="M29.1337 10.2507C29.1337 10.8407 29.1337 11.4207 29.1437 12.0107C28.4837 11.9807 28.1137 11.6507 28.1637 10.9807C28.2037 10.4007 28.6437 10.2607 29.1337 10.2507Z" fill="#8BBA69"/>
<path d="M44.7139 13.8606C45.2039 13.8806 45.6539 13.9806 45.9239 14.4506C45.0039 15.3106 44.8439 14.6206 44.7139 13.8606Z" fill="#DCEBDA"/>
<path d="M18.994 37.0106C19.764 37.8606 20.294 39.0606 21.754 38.9306C22.284 38.8906 23.054 37.8106 23.224 39.2306C23.324 40.0706 22.624 40.4206 21.974 40.6506C19.424 41.5306 18.344 40.5106 18.124 37.0406C18.414 37.0306 18.704 37.0206 18.994 37.0106Z" fill="#DCEBDA"/>
<path d="M18.9941 37.0106C18.7041 37.0206 18.4141 37.0306 18.1241 37.0406C17.6141 35.5806 18.6341 35.3006 19.6241 34.8806C20.2641 35.9706 18.7441 36.1906 18.9941 37.0106Z" fill="#8BBA69"/>
<path d="M19.5642 25.6807C20.1442 26.4307 20.5842 27.4607 21.8542 26.7407C22.4742 26.3907 22.9842 26.3507 23.0442 27.2507C23.0842 27.8407 22.7342 28.1607 22.1642 28.1707C20.2842 28.1907 17.9842 28.8607 18.0842 25.6707C18.5742 25.6707 19.0742 25.6707 19.5642 25.6807Z" fill="#DCEBDA"/>
<path d="M19.5645 25.6807C19.0745 25.6807 18.5745 25.6707 18.0845 25.6707C17.4745 24.5807 17.6044 23.6307 18.7144 22.9707C19.1344 22.7207 19.6845 22.7707 20.0545 23.1507C21.0645 24.2007 19.2345 24.7407 19.5645 25.6807Z" fill="#8BBA69"/>
<path d="M23.244 49.6406C23.564 51.5506 22.834 52.3306 20.814 52.2906C18.844 52.2606 18.284 51.5106 18.254 49.6006C18.214 47.4406 19.284 47.2406 21.024 47.1806C22.914 47.1206 23.564 47.8606 23.244 49.6406Z" fill="#E8F3F4"/>
</svg>
