<svg width="30" height="30" viewBox="0 0 30 30" fill="none" xmlns="http://www.w3.org/2000/svg">
<g clip-path="url(#clip0)">
<path d="M10.0898 13.289C9.23438 13.1191 8.4375 13.8105 8.4375 14.6835V17.6367C8.4375 18.2343 8.85352 18.7148 9.41602 18.9257C10.4824 19.3242 11.25 20.3554 11.25 21.5625C11.25 23.1152 9.99023 24.375 8.4375 24.375C6.88477 24.375 5.625 23.1152 5.625 21.5625V7.0312C5.625 6.25191 4.99805 5.62496 4.21875 5.62496H1.40625C0.626953 5.62496 0 6.25191 0 7.0312V21.5625C0 26.8066 4.81055 30.9492 10.2539 29.8066C13.4414 29.1386 16.0137 26.5605 16.6816 23.3789C17.7012 18.5214 14.5137 14.1679 10.0898 13.289ZM12.2461 -4.47456e-05C11.707 -0.0293416 11.25 0.398393 11.25 0.937455V2.78902C11.25 3.28706 11.6367 3.69722 12.1289 3.72066C19.7109 4.13081 25.8047 10.2832 26.2441 17.871C26.2734 18.3632 26.6836 18.75 27.1758 18.75H29.0566C29.5957 18.75 30.0234 18.2929 29.9941 17.7539C29.4961 8.19136 21.8086 0.503861 12.2461 -4.47456e-05ZM12.2637 5.62496C11.7188 5.58394 11.25 6.01753 11.25 6.56831V8.44917C11.25 8.94136 11.6309 9.34566 12.1172 9.38081C16.6172 9.74995 20.2031 13.3769 20.6074 17.8886C20.6543 18.375 21.0527 18.75 21.5391 18.75H23.4258C23.9707 18.75 24.4102 18.2812 24.3691 17.7363C23.877 11.2851 18.7148 6.123 12.2637 5.62496Z" fill="#FFB34C"/>
</g>
<defs>
<clipPath id="clip0">
<rect width="30" height="30" fill="white"/>
</clipPath>
</defs>
</svg>
