<svg width="61" height="61" viewBox="0 0 61 61" fill="none" xmlns="http://www.w3.org/2000/svg">
<circle cx="30.5" cy="30.5" r="30.5" fill="#FBECF3"/>
<path d="M39.1632 33.4379C38.5518 33.2738 38.0021 33.1296 37.4551 32.9799C36.5825 32.7405 35.7126 32.4892 34.8363 32.2607C34.5896 32.1963 34.4617 32.1028 34.4227 31.8271C34.1869 30.1664 33.7551 28.5475 33.3124 26.9331C33.2417 26.6746 33.2997 26.5821 33.5456 26.4787C35.4604 25.6742 36.7739 24.2838 37.4859 22.3356C37.5712 22.1007 37.6637 22.0571 37.896 22.1125C40.5147 22.7374 42.2282 24.3391 42.9793 26.9113C43.9862 30.3596 44.9477 33.8207 45.911 37.2808C46.1695 38.2096 45.9418 39.0512 45.2252 39.7115C44.5114 40.3691 43.6569 40.555 42.7525 40.2049C41.4953 39.7179 40.2644 39.1637 39.0162 38.654C36.8619 37.7751 34.7039 36.9062 32.5459 36.0373C31.8048 35.7389 31.5373 35.3299 31.5391 34.5163C31.5436 31.926 31.5409 29.3357 31.5418 26.7453C31.5418 26.5403 31.4964 26.2809 31.7831 26.2474C32.0616 26.2138 32.0906 26.4641 32.1423 26.6691C32.4443 27.8618 32.7691 29.049 33.0485 30.2472C33.2263 31.0127 33.346 31.7927 33.4766 32.569C33.5283 32.8765 33.688 33.0506 33.9828 33.1314C35.8514 33.6411 37.7191 34.1553 39.5868 34.6678C39.6657 34.6896 39.7446 34.7104 39.8235 34.7267C40.239 34.8147 40.5882 34.4846 40.473 34.0801C40.1337 32.8874 39.78 31.7002 39.4208 30.5129C39.3273 30.2027 39.0425 30.0621 38.7604 30.1483C38.4729 30.2363 38.3223 30.5247 38.4148 30.8467C38.6343 31.6122 38.8638 32.3749 39.0888 33.1386C39.1087 33.2166 39.126 33.2937 39.1632 33.4379Z" fill="#FB6F9C"/>
<path d="M28.7357 26.7208C28.5652 27.3421 28.3811 27.9379 28.2405 28.5438C27.9829 29.653 27.7434 30.7677 27.5148 31.8833C27.4722 32.0919 27.3923 32.1899 27.1873 32.2443C25.8322 32.6071 24.4797 32.9817 23.1263 33.3517C23.0256 33.3789 22.9213 33.398 22.7744 33.4306C22.973 32.754 23.1581 32.1237 23.3431 31.4924C23.4039 31.2838 23.4701 31.077 23.5263 30.8675C23.6189 30.5237 23.4755 30.2326 23.1798 30.1473C22.8814 30.0612 22.6056 30.2244 22.5013 30.5709C22.2174 31.5151 21.9426 32.4629 21.6641 33.4089C21.6024 33.6175 21.5316 33.8233 21.479 34.0338C21.3629 34.4981 21.6904 34.8392 22.1539 34.7149C23.7894 34.2777 25.4203 33.827 27.054 33.3807C27.3688 33.2946 27.6826 33.2084 27.9965 33.1222C28.2704 33.047 28.4301 32.8701 28.4682 32.5889C28.7457 30.5646 29.3063 28.6073 29.8669 26.6491C29.9249 26.446 29.9667 26.2038 30.247 26.2501C30.5055 26.2918 30.4556 26.533 30.4556 26.7162C30.4583 29.1705 30.4574 31.6257 30.4574 34.08C30.4574 34.2977 30.4792 34.5163 30.461 34.7312C30.4111 35.3371 30.1009 35.7543 29.5294 35.9838C28.0772 36.5688 26.624 37.1547 25.1772 37.7533C23.3113 38.5251 21.45 39.3051 19.5896 40.0897C18.3396 40.6175 17.1295 40.3255 16.4274 39.3006C16.0211 38.7074 15.8977 38.0453 16.0864 37.356C17.0751 33.7526 18.0384 30.141 19.0916 26.5557C19.79 24.1785 21.4564 22.7419 23.8529 22.1432C24.0134 22.1033 24.1232 22.0979 24.2012 22.3083C24.9786 24.4107 26.4163 25.8601 28.5298 26.6283C28.5915 26.6509 28.6468 26.6809 28.7357 26.7208Z" fill="#FB6F9C"/>
<path d="M36.8449 19.9747C36.804 22.4217 35.3572 24.6012 33.1721 25.4882C32.9634 25.5726 32.8074 25.5843 32.6079 25.4347C32.1743 25.1109 31.6917 25.0946 31.1919 25.3059C31.0921 25.3485 30.9443 25.3594 30.849 25.3177C30.2648 25.0592 29.7333 25.1354 29.2552 25.5462C29.1264 25.6569 29.0239 25.6759 28.8679 25.6215C26.5331 24.8025 24.9366 22.6094 24.8749 20.127C24.8132 17.6347 26.2845 15.3853 28.5904 14.4466C32.1017 13.0163 36.0276 15.1604 36.726 18.8972C36.7932 19.2509 36.8068 19.6146 36.8449 19.9747Z" fill="#FB6F9C"/>
<path d="M31.0274 36.3048C31.6325 36.9977 32.5795 37.19 33.4194 37.571C35.0849 38.3256 36.7684 39.0394 38.4492 39.7595C38.6334 39.8384 38.6842 39.9409 38.6833 40.1268C38.6769 41.3222 38.6824 42.5176 38.6796 43.713C38.6778 44.3597 38.3939 44.6427 37.7499 44.6427C33.0747 44.6436 28.3996 44.6436 23.7245 44.6418C23.0469 44.6418 22.7711 44.3624 22.7702 43.6813C22.7684 42.5675 22.7747 41.4537 22.7657 40.34C22.7639 40.1495 22.8228 40.0552 22.9997 39.979C25.2937 38.9904 27.5878 38.0009 29.8736 36.9914C30.2709 36.8163 30.6265 36.547 31.0274 36.3048Z" fill="#FB6F9C"/>
</svg>
