<svg width="224" height="81" viewBox="0 0 224 81" fill="none" xmlns="http://www.w3.org/2000/svg">
<rect x="12.5" y="12.5" width="190" height="55" stroke="#FBA229" stroke-linejoin="round"/>
<path d="M11.4889 13.4002L5.75381 11.7939L5.74821 11.7925C4.92351 11.5778 4.14443 11.1468 3.49919 10.5009C1.56697 8.56675 1.56785 5.43205 3.50271 3.49913C5.43688 1.56691 8.57228 1.56849 10.5045 3.50266C11.1497 4.14855 11.5793 4.92876 11.7931 5.75368L11.7938 5.75298L13.3957 11.4953C13.7193 12.657 12.6496 13.7256 11.4889 13.4002Z" fill="#FBA229"/>
<path d="M13.5336 69.1454L11.9272 74.8805L11.9258 74.8861C11.7111 75.7108 11.28 76.4898 10.6341 77.1351C8.69994 79.0672 5.56524 79.0663 3.63236 77.1314C1.70018 75.1972 1.70182 72.0618 3.63603 70.1296C4.28193 69.4844 5.06215 69.0549 5.88708 68.8411L5.88638 68.8404L11.6287 67.2385C12.7904 66.915 13.8591 67.9847 13.5336 69.1454Z" fill="#FBA229"/>
<path d="M201.237 11.6212L202.844 5.88615L202.845 5.88054C203.06 5.05585 203.491 4.27677 204.137 3.63155C206.071 1.69937 209.206 1.70031 211.139 3.63521C213.071 5.56942 213.069 8.70482 211.135 10.637C210.489 11.2822 209.709 11.7117 208.884 11.9255L208.885 11.9263L203.142 13.5281C201.981 13.8516 200.912 12.7819 201.237 11.6212Z" fill="#FBA229"/>
<path d="M203.146 66.2366L208.881 67.843L208.887 67.8444C209.711 68.0591 210.491 68.4901 211.136 69.136C213.068 71.0702 213.067 74.2049 211.132 76.1378C209.198 78.07 206.063 78.0683 204.13 76.1341C203.485 75.4882 203.056 74.708 202.842 73.8831L202.841 73.8838L201.239 68.1415C200.916 66.9797 201.985 65.9111 203.146 66.2366Z" fill="#FBA229"/>
<path d="M46.431 22.602V29.315H32.417V36.567H42.903V43.084H32.417V57H24.038V22.602H46.431ZM59.2139 34.215C60.1939 32.7123 61.4189 31.5363 62.8889 30.687C64.3589 29.805 65.9922 29.364 67.7889 29.364V38.233H65.4859C63.3952 38.233 61.8272 38.6903 60.7819 39.605C59.7365 40.487 59.2139 42.055 59.2139 44.309V57H50.8349V29.658H59.2139V34.215ZM97.5679 42.888C97.5679 43.672 97.5189 44.4887 97.4209 45.338H78.4579C78.5885 47.0367 79.1275 48.3433 80.0749 49.258C81.0549 50.14 82.2472 50.581 83.6519 50.581C85.7425 50.581 87.1962 49.699 88.0129 47.935H96.9309C96.4735 49.7317 95.6405 51.3487 94.4319 52.786C93.2559 54.2233 91.7695 55.3503 89.9729 56.167C88.1762 56.9837 86.1672 57.392 83.9459 57.392C81.2672 57.392 78.8825 56.8203 76.7919 55.677C74.7012 54.5337 73.0679 52.9003 71.8919 50.777C70.7159 48.6537 70.1279 46.171 70.1279 43.329C70.1279 40.487 70.6995 38.0043 71.8429 35.881C73.0189 33.7577 74.6522 32.1243 76.7429 30.981C78.8335 29.8377 81.2345 29.266 83.9459 29.266C86.5919 29.266 88.9439 29.8213 91.0019 30.932C93.0599 32.0427 94.6605 33.627 95.8039 35.685C96.9799 37.743 97.5679 40.144 97.5679 42.888ZM88.9929 40.683C88.9929 39.2457 88.5029 38.1023 87.5229 37.253C86.5429 36.4037 85.3179 35.979 83.8479 35.979C82.4432 35.979 81.2509 36.3873 80.2709 37.204C79.3235 38.0207 78.7355 39.1803 78.5069 40.683H88.9929ZM118.648 29.364C121.85 29.364 124.398 30.4093 126.292 32.5C128.22 34.558 129.183 37.4 129.183 41.026V57H120.853V42.153C120.853 40.3237 120.38 38.9027 119.432 37.89C118.485 36.8773 117.211 36.371 115.61 36.371C114.01 36.371 112.736 36.8773 111.788 37.89C110.841 38.9027 110.367 40.3237 110.367 42.153V57H101.988V29.658H110.367V33.284C111.217 32.0753 112.36 31.128 113.797 30.442C115.235 29.7233 116.852 29.364 118.648 29.364ZM133.34 43.329C133.34 40.487 133.911 38.0043 135.055 35.881C136.231 33.7577 137.848 32.1243 139.906 30.981C141.996 29.8377 144.381 29.266 147.06 29.266C150.49 29.266 153.348 30.1643 155.635 31.961C157.954 33.7577 159.473 36.2893 160.192 39.556H151.274C150.522 37.4653 149.069 36.42 146.913 36.42C145.377 36.42 144.152 37.0243 143.238 38.233C142.323 39.409 141.866 41.1077 141.866 43.329C141.866 45.5503 142.323 47.2653 143.238 48.474C144.152 49.65 145.377 50.238 146.913 50.238C149.069 50.238 150.522 49.1927 151.274 47.102H160.192C159.473 50.3033 157.954 52.8187 155.635 54.648C153.315 56.4773 150.457 57.392 147.06 57.392C144.381 57.392 141.996 56.8203 139.906 55.677C137.848 54.5337 136.231 52.9003 135.055 50.777C133.911 48.6537 133.34 46.171 133.34 43.329ZM181.481 29.364C184.617 29.364 187.132 30.4093 189.027 32.5C190.921 34.558 191.869 37.4 191.869 41.026V57H183.539V42.153C183.539 40.3237 183.065 38.9027 182.118 37.89C181.17 36.8773 179.896 36.371 178.296 36.371C176.695 36.371 175.421 36.8773 174.474 37.89C173.526 38.9027 173.053 40.3237 173.053 42.153V57H164.674V20.74H173.053V33.333C173.902 32.1243 175.062 31.1607 176.532 30.442C178.002 29.7233 179.651 29.364 181.481 29.364Z" fill="#2D3092"/>
</svg>
