<svg width="412" height="398" viewBox="0 0 412 398" fill="none" xmlns="http://www.w3.org/2000/svg">
<g opacity="0.2">
<path d="M205.551 3.86567C203.132 2.71267 200.092 2.76335 197.724 3.9797C199.091 6.04497 196.938 8.465 195.469 10.4796C190.846 16.8274 192.86 25.3039 191.327 32.8047C189.909 39.7734 185.134 46.1212 178.535 49.821C169.618 54.8257 157.7 55.2059 150.417 62.0858C147.416 64.924 145.579 69.6247 148.226 72.7416C145.794 75.453 143.147 78.2912 139.474 79.3048C130.355 81.8009 118.918 72.0954 112.129 78.2025C106.771 75.6558 104.542 68.7758 107.519 63.9737C104.986 63.8724 102.604 62.2759 101.756 60.0839C97.1582 62.618 91.0027 62.58 86.4558 59.9699C82.3774 71.4239 96.4616 82.6878 94.4858 94.5853C94.1818 96.4351 93.4852 98.2977 93.9032 100.122C94.7771 103.961 99.7674 105.482 103.96 106.293C102.149 109.714 97.4875 111.64 93.4852 110.601C89.4829 109.562 86.6204 105.684 87.0384 101.909C84.5179 101.63 82.3014 104.443 83.378 106.546C77.5645 103.087 68.5465 106.001 66.3934 112.032C63.8856 112.653 64.3289 112.425 62.4543 110.778C60.0985 108.725 59.3259 105.418 56.7421 103.594C56.0455 103.1 55.2349 102.732 54.627 102.149C53.981 101.516 53.6264 100.68 53.0818 99.9701C50.7893 96.8913 44.8997 97.0433 42.7973 100.236C38.073 101.769 37.047 102.631 32.3228 104.164C28.6624 105.355 24.508 107.015 23.5075 110.461C15.5788 106.47 4.17967 110.892 1.77319 118.862C4.5723 118.912 7.38408 118.963 10.1832 119.014C9.75256 122.143 13.6536 125.045 16.9213 124.006C17.4279 126.591 13.6789 127.807 11.0318 128.808C8.372 129.809 6.59881 134.028 9.44858 134.421C5.48423 133.737 1.16524 136.131 0 139.666C3.47039 140.401 6.76346 141.757 9.6639 143.645C17.314 138.602 28.2191 141.085 36.1984 145.672C41.746 148.865 47.1669 154.174 45.8623 160.066C51.2199 155.542 59.2626 155.314 66.558 155.339C65.3674 158.9 65.8741 162.916 67.9386 166.135C71.3456 166.439 74.816 166.084 78.0584 165.108C77.8305 171.748 76.9439 178.374 75.4113 184.861C81.8075 185.051 83.226 193.084 87.165 197.696C90.4328 201.51 95.8537 203.056 100.363 205.615C104.872 208.175 108.849 213.192 106.619 217.589C104.96 218.64 103.301 219.679 101.642 220.731C107.379 229.651 113.674 238.254 120.514 246.49C117.791 245.666 115.067 244.843 112.344 244.019C109.634 251.267 106.923 258.527 104.2 265.774C106.746 267.117 109.469 268.156 112.306 268.866C102.035 276.29 102.554 290.304 99.2987 301.91C97.2469 309.233 93.3205 316.113 87.925 321.853C94.4985 319.192 100.603 325.857 105.644 330.532C111.356 335.828 118.956 339.376 126.999 340.504C132.153 341.226 139.259 342.67 138.879 347.422C143.857 345.268 150.405 346.852 153.571 350.982C160.93 347.244 167.541 342.265 172.962 336.373C182.765 338.286 187.452 348.929 196.432 353.022C208.616 358.584 224.207 350.425 236.607 355.569C234.391 347.08 235.113 337.957 238.634 329.848C232.681 325.464 231.592 316.531 236.354 311.045C236.062 308.701 236.417 306.053 238.368 304.507C240.318 302.962 244.118 303.595 244.536 305.914C246.385 302.138 250.375 299.3 254.833 298.578C251.363 301.289 255.77 306.484 260.254 307.269C264.725 308.055 270.032 307.358 273.224 310.336C274.756 311.755 275.44 313.744 276.618 315.416C279.1 318.939 283.989 320.89 288.498 320.155C292.437 319.522 295.743 317.089 298.656 314.58C300.113 316.937 300.163 319.978 298.795 322.372C306.192 326.49 313.754 330.672 322.164 332.559C330.574 334.447 340.149 333.712 346.887 328.733C344.962 323.804 351.32 319.851 356.272 317.228C368.647 310.678 378.247 299.87 382.731 287.453C375.068 292.09 363.72 290.621 357.779 284.209C351.763 280.066 365.277 269.829 359.388 265.533C353.866 265.141 348.951 260.883 348.23 255.853C354.499 253.319 359.844 248.91 363.251 243.474C362.858 241.472 361.832 239.635 360.807 237.836C358.172 233.186 355.538 228.523 352.903 223.873C354.993 223.595 357.095 223.328 359.185 223.05C360.199 219.984 356.855 216.487 353.397 216.993C355.487 211.216 356.133 204.45 352.422 199.42C348.711 194.377 339.389 192.869 335.551 197.823C339.414 203.575 333.119 212.318 325.824 211.33C330.954 207.579 333.449 201.054 332.017 195.188C337.426 189.511 343.049 184.012 348.875 178.704C352.181 175.688 355.677 172.546 357.019 168.453C358.349 164.361 356.564 159.065 352.093 157.836C355.208 156.138 358.058 154.022 360.515 151.576C359.033 155.061 363.365 158.735 367.443 158.634C371.534 158.52 375.017 156.036 378.184 153.654C376.689 152.615 375.182 151.576 373.687 150.537C376.081 143.518 375.663 135.979 376.879 128.706C379.007 115.973 386.353 104.025 397.157 95.7763C390.431 91.1389 382.135 88.4275 373.725 88.1107C373.662 88.1107 371.902 83.1819 371.636 82.7131C358.311 84.677 349.015 89.099 336.45 81.2434C332.929 82.0543 332.727 82.1557 329.206 82.9666C329.484 77.2522 324.127 71.804 317.895 71.4492C314.438 71.2592 310.613 72.3488 307.725 70.6003C305.407 69.1939 304.546 66.3938 302.393 64.7846C300.949 63.7076 299.074 63.2769 297.491 62.4026C290.727 58.6522 292.083 49.4662 294.299 42.5229C293.147 41.2431 290.778 41.6613 289.461 42.8016C288.144 43.9419 287.498 45.5764 286.51 46.9575C283.597 51.0373 277.34 52.7858 272.438 50.8853C271.742 47.515 273.3 43.8279 276.301 41.7626C274.389 40.0521 271.336 39.52 268.867 40.4576C267.473 35.6049 264.915 31.0309 261.432 27.1664C256.885 28.6742 252.338 30.1693 247.791 31.677C247.588 29.219 247.398 26.7483 247.196 24.2902C242.801 22.9852 237.823 23.53 233.669 21.6675C229.514 19.8049 227.501 13.4191 231.718 11.6833C229.755 9.78271 226.766 8.81977 223.941 9.17454C224.499 6.29837 224.891 2.89005 222.586 0.862801C218.419 -2.74824 210.668 6.29837 205.551 3.86567Z" fill="white"/>
<path d="M163.184 55.4973C158.435 57.0304 153.9 58.8296 150.43 62.1112C147.428 64.9494 145.592 69.6501 148.239 72.767C145.807 75.4784 143.16 78.3166 139.487 79.3302C130.368 81.8263 118.931 72.1208 112.142 78.2279C106.784 75.6812 104.555 68.8012 107.531 63.9991C104.998 63.8977 102.617 62.3013 101.769 60.1093C97.1709 62.6434 91.0154 62.6054 86.4685 59.9953C82.3901 71.4493 96.4743 82.7132 94.4985 94.6106C94.1945 96.4605 93.4979 98.323 93.9159 100.148C94.7898 103.987 99.7801 105.507 103.972 106.318C102.161 109.739 97.5003 111.665 93.4979 110.626C89.4956 109.587 86.6331 105.71 87.0511 101.934C84.5306 101.655 82.3141 104.468 83.3907 106.571C77.5772 103.112 68.5592 106.027 66.4061 112.058C63.8983 112.679 64.3416 112.45 62.467 110.803C60.1112 108.751 59.3386 105.444 56.7548 103.619C56.0582 103.125 55.2476 102.758 54.6397 102.175C53.9937 101.541 53.6391 100.705 53.0945 99.9955C50.802 96.9166 44.9124 97.0687 42.8099 100.262C38.0857 101.795 37.0597 102.656 32.3354 104.189C28.6751 105.38 24.5207 107.04 23.5202 110.487C15.5915 106.495 4.19236 110.917 1.78589 118.887L10.1959 119.039C9.76525 122.169 13.6663 125.07 16.934 124.031C17.4406 126.616 13.6916 127.832 11.0445 128.833C8.38469 129.834 6.6115 134.053 9.46127 134.446C5.49692 133.762 1.17794 136.157 0.0126953 139.692C3.48308 140.427 6.77616 141.782 9.67659 143.67C17.3266 138.627 28.2318 141.111 36.2111 145.697C41.7587 148.89 47.1796 154.199 45.875 160.091C51.2326 155.568 59.2753 155.34 66.5707 155.365C65.3801 158.925 65.8868 162.942 67.9513 166.16C71.3583 166.464 74.8287 166.109 78.0711 165.134C77.8431 171.773 76.9566 178.4 75.424 184.887C81.8202 185.077 83.2387 193.11 87.1777 197.722C90.4455 201.536 95.8664 203.081 100.375 205.641C104.884 208.2 108.861 213.218 106.632 217.614C104.973 218.666 103.314 219.705 101.655 220.756C107.392 229.676 113.687 238.28 120.526 246.515C117.803 245.692 115.08 244.868 112.357 244.045C109.647 251.292 106.936 258.552 104.213 265.799C106.759 267.143 109.482 268.182 112.319 268.891C102.047 276.316 102.567 290.329 99.3114 301.935C97.2596 309.259 93.3333 316.139 87.9377 321.878C94.5112 319.218 100.616 325.882 105.657 330.558C111.369 335.854 118.969 339.401 127.011 340.529C132.166 341.251 139.272 342.696 138.892 347.447C143.869 345.293 150.43 346.877 153.584 351.007C156.953 349.297 160.145 347.308 163.159 345.116V55.4973H163.184Z" fill="#1855A4"/>
<path d="M397.182 95.8016C390.457 91.1643 382.161 88.4528 373.751 88.1361C373.687 88.1361 371.927 83.2073 371.661 82.7385C358.337 84.7024 349.04 89.1243 336.476 81.2687C332.955 82.0796 332.752 82.181 329.231 82.9919C329.51 77.2776 324.152 71.8293 317.921 71.4746C314.463 71.2845 310.638 72.3742 307.75 70.6257C305.432 69.2192 304.571 66.4191 302.418 64.81C300.974 63.733 299.099 63.3022 297.516 62.4279C290.753 58.6775 292.108 49.4915 294.324 42.5482C293.172 41.2685 290.803 41.6866 289.486 42.8269C288.169 43.9673 287.523 45.6017 286.535 46.9828C284.648 49.6309 281.342 51.2907 277.922 51.6075V316.899C280.595 319.471 284.698 320.789 288.524 320.168C292.463 319.534 295.768 317.102 298.681 314.593C300.138 316.95 300.189 319.99 298.821 322.385C306.217 326.503 313.779 330.684 322.189 332.572C330.599 334.46 340.174 333.725 346.912 328.746C344.987 323.817 351.345 319.864 356.297 317.241C368.672 310.69 378.272 299.883 382.756 287.466C375.093 292.103 363.745 290.633 357.805 284.222C351.788 280.079 365.303 269.841 359.413 265.546C353.891 265.153 348.977 260.896 348.255 255.866C354.524 253.332 359.869 248.923 363.276 243.487C362.884 241.485 361.858 239.648 360.832 237.849L352.928 223.886C355.031 223.607 357.121 223.341 359.211 223.062C360.224 219.996 356.88 216.499 353.422 217.006C355.512 211.228 356.158 204.462 352.447 199.432C348.736 194.389 339.414 192.882 335.576 197.836C339.439 203.588 333.145 212.331 325.849 211.342C330.979 207.592 333.474 201.067 332.043 195.2C337.451 189.524 343.075 184.025 348.901 178.716C352.206 175.701 355.702 172.558 357.045 168.466C358.375 164.373 356.589 159.077 352.118 157.848C355.234 156.15 358.083 154.034 360.54 151.589C359.059 155.073 363.39 158.76 367.469 158.646C371.56 158.532 375.043 156.049 378.209 153.667C376.714 152.628 375.207 151.589 373.713 150.55C376.107 143.531 375.689 135.992 376.904 128.719C379.02 115.998 386.378 104.063 397.182 95.8016Z" fill="#EE3831"/>
<path d="M411.266 364.058C411.393 364.539 411.482 365.071 411.241 365.515C411.051 365.882 410.671 366.123 410.317 366.364C406.479 368.999 404.351 373.18 402.375 377.184C400.019 381.961 397.651 386.738 395.295 391.527C394.256 393.63 393.117 395.848 391.014 397.14C388.912 398.42 385.542 398.268 384.365 396.215C382.338 392.706 388.342 388.499 386.454 384.913C384.289 380.783 374.891 383.405 373.979 378.895C373.396 376.031 377.576 373.092 375.815 370.659C375.22 369.836 374.131 369.481 373.244 368.923C370.977 367.517 370.04 364.552 371.154 362.246C372.231 362.031 373.307 361.828 374.384 361.613C372.13 358.356 375.169 353.301 379.374 353.313C390.419 353.326 386.163 336.069 396.245 340.086C400.868 341.923 400.703 347.384 402.679 350.729C405.402 355.366 409.924 358.736 411.266 364.058Z" fill="#EE3831"/>
</g>
</svg>
