<svg width="493" height="449" viewBox="0 0 493 449" fill="none" xmlns="http://www.w3.org/2000/svg">
<g clip-path="url(#clip0)">
<path d="M484.187 72.59H445.912H425.267H408.919H389.154H386.992H350.879C346.01 72.59 342.066 68.6392 342.066 63.7713C342.066 58.8987 346.014 54.9526 350.879 54.9526H389.154H391.274H409.803H416.299C421.169 54.9526 425.112 51.0019 425.112 46.1339C425.112 41.2613 421.164 37.3153 416.299 37.3153H378.024H368.656C363.481 33.8066 358.146 30.519 352.67 27.4619H329.657H286.258H259.452C255.663 27.4619 252.589 24.3906 252.589 20.5951C252.589 16.8042 255.659 13.7282 259.452 13.7282H286.258H323.043H328.83H329.657H356.463H376.999C380.788 13.7282 383.862 10.657 383.862 6.86144C383.862 3.07058 380.792 -0.00537109 376.999 -0.00537109H328.82H306.785H258.615C258.009 -0.00537109 257.421 0.0792882 256.862 0.229794C256.848 0.229794 256.839 0.229794 256.824 0.229794C256.265 0.0839915 255.682 -0.00537109 255.076 -0.00537109H214.291H184.866H144.086C140.297 -0.00537109 137.223 3.06588 137.223 6.86144C137.223 10.6523 140.292 13.7282 144.086 13.7282H170.826H191.202C197.111 13.7282 201.9 18.5209 201.9 24.4282C201.9 30.3403 197.111 35.1329 191.202 35.1329H128.523C120.993 40.0432 113.778 45.4049 106.934 51.1853H39.1589C33.2505 51.1853 28.4655 55.9779 28.4655 61.8853C28.4655 67.7973 33.2552 72.59 39.1589 72.59H57.1285H84.9313H116.053C120.922 72.59 124.866 76.5407 124.866 81.4087C124.866 86.2813 120.917 90.2273 116.053 90.2273H70.7831C64.7055 98.6462 59.1967 107.507 54.3553 116.773H8.90723C3.98593 116.777 0 120.771 0 125.69C0 130.615 3.98593 134.603 8.90723 134.603H34.5807H46.0497H100.396C103.691 134.603 106.36 137.274 106.36 140.571C106.36 143.868 103.691 146.54 100.396 146.54H41.5467C39.0508 153.783 36.9215 161.2 35.1965 168.772H13.4525C9.59819 168.772 6.47243 171.9 6.47243 175.757C6.47243 179.613 9.59819 182.741 13.4525 182.741H30.717C30.8533 182.732 30.9896 182.722 31.126 182.722H40.4703C44.3246 182.722 47.4504 185.85 47.4504 189.707C47.4504 193.563 44.3246 196.691 40.4703 196.691H31.1307C30.999 196.691 30.8674 196.677 30.7358 196.672C30.0919 203.469 29.7487 210.359 29.7487 217.324C29.7487 264.513 44.7853 308.183 70.3178 343.81H423.547C449.08 308.178 464.116 264.513 464.116 217.324C464.116 199.551 461.968 182.28 457.94 165.748H358.475C354.494 165.748 351.265 162.517 351.265 158.533C351.265 154.55 354.494 151.318 358.475 151.318H453.897H458.227H468.262C472.243 151.318 475.472 148.087 475.472 144.104C475.472 140.12 472.243 136.889 468.262 136.889H448.741C446.447 131.137 443.909 125.507 441.155 120.009H424.605C420.497 120.009 417.169 116.679 417.169 112.568C417.169 108.457 420.497 105.127 424.605 105.127H432.929C429.846 100.024 426.551 95.0623 423.072 90.2461H425.267H445.912H484.187C489.056 90.2461 493 86.2954 493 81.4275C493 76.5407 489.056 72.59 484.187 72.59ZM131.545 146.54H123.235C119.94 146.54 117.27 143.868 117.27 140.571C117.27 137.274 119.94 134.603 123.235 134.603H131.545C134.84 134.603 137.51 137.274 137.51 140.571C137.51 143.868 134.84 146.54 131.545 146.54ZM215.607 108.834H164.401C159.479 108.834 155.493 104.845 155.493 99.9208C155.493 94.9965 159.479 91.0081 164.401 91.0081H147.799C142.718 91.0081 138.596 86.8833 138.596 81.799C138.596 76.7148 142.718 72.59 147.799 72.59H180.763C185.844 72.59 189.966 76.7148 189.966 81.799C189.966 86.8833 185.844 91.0081 180.763 91.0081H215.602C220.523 91.0081 224.509 94.9965 224.509 99.9208C224.514 104.84 220.528 108.834 215.607 108.834ZM335.302 165.739H327.175C323.194 165.739 319.965 162.508 319.965 158.524C319.965 154.54 323.194 151.309 327.175 151.309H335.302C339.283 151.309 342.512 154.54 342.512 158.524C342.512 162.508 339.283 165.739 335.302 165.739ZM377.826 105.113H319.015C314.907 105.113 311.579 101.783 311.579 97.6726C311.579 93.562 314.907 90.232 319.015 90.232H377.826C381.935 90.232 385.262 93.562 385.262 97.6726C385.262 101.783 381.93 105.113 377.826 105.113Z" fill="#ACDFF0"/>
<path d="M424.543 336.511H39.6611C33.56 336.511 28.6152 341.459 28.6152 347.564C28.6152 353.669 33.56 358.616 39.6611 358.616H78.9564C81.1702 358.616 82.9658 360.413 82.9658 362.628C82.9658 364.844 81.1702 366.64 78.9564 366.64H64.733C58.6319 366.64 53.6871 371.588 53.6871 377.693C53.6871 383.798 58.6319 388.746 64.733 388.746H113.965C116.179 388.746 117.974 390.542 117.974 392.758C117.974 394.973 116.179 396.77 113.965 396.77H100.672C94.571 396.77 89.6262 401.717 89.6262 407.822C89.6262 413.927 94.571 418.875 100.672 418.875H138.792C141.006 418.875 142.802 420.672 142.802 422.887C142.802 425.102 141.006 426.899 138.792 426.899H105.321C99.2197 426.899 94.2749 431.847 94.2749 437.952C94.2749 444.056 99.2197 449.004 105.321 449.004H370.672C376.773 449.004 381.718 444.056 381.718 437.952C381.718 431.847 376.773 426.899 370.672 426.899H348.514C346.3 426.899 344.505 425.102 344.505 422.887C344.505 420.672 346.3 418.875 348.514 418.875H414C420.101 418.875 425.046 413.927 425.046 407.822C425.046 401.717 420.101 396.77 414 396.77H365.703C363.49 396.77 361.694 394.973 361.694 392.758C361.694 390.542 363.49 388.746 365.703 388.746H378.065C384.167 388.746 389.111 383.798 389.111 377.693C389.111 371.588 384.167 366.64 378.065 366.64H365.703C363.49 366.64 361.694 364.844 361.694 362.628C361.694 360.413 363.49 358.616 365.703 358.616H424.543C430.644 358.616 435.589 353.669 435.589 347.564C435.589 341.459 430.644 336.511 424.543 336.511Z" fill="#8DC63F"/>
<path d="M304.726 112.554C304.726 108.444 301.399 105.114 297.29 105.114H275.321C271.213 105.114 267.885 108.444 267.885 112.554C267.885 116.665 271.213 119.995 275.321 119.995H297.29C301.399 120 304.726 116.665 304.726 112.554Z" fill="white"/>
<path d="M381.83 225.34H348.561V338.021H381.83V225.34Z" fill="#BFBCA5"/>
<path d="M365.125 298.076C355.635 304.51 348.561 316.922 348.561 316.922V330.341H365.125H381.689V316.922C381.684 316.922 374.615 304.51 365.125 298.076Z" fill="#DDDAC5"/>
<path d="M348.42 181.693H311.033V338.026H348.42V181.693Z" fill="#E9E8DC"/>
<path d="M342.713 181.693H316.738V230.574H342.713V181.693Z" fill="#BFBCA5"/>
<path d="M342.713 250.864H316.738V284.488H342.713V250.864Z" fill="#BFBCA5"/>
<path d="M324.905 189.152C324.905 189.152 321.352 199.895 321.352 225.34H324.905H328.459C328.459 199.895 324.905 189.152 324.905 189.152Z" fill="#918E7A"/>
<path d="M334.788 189.152C334.788 189.152 331.234 199.895 331.234 225.34H334.788H338.341C338.341 199.895 334.788 189.152 334.788 189.152Z" fill="#918E7A"/>
<path d="M342.713 230.57H316.738V250.864H342.713V230.57Z" fill="#DDDAC5"/>
<path d="M342.713 284.488H316.738V291.952H342.713V284.488Z" fill="#918E7A"/>
<path d="M342.713 271.69C340.767 267.415 336.461 259.354 329.725 254.316C322.994 259.354 318.684 267.415 316.738 271.69V284.493H342.713V271.69Z" fill="#DDDAC5"/>
<path d="M328.459 281.257H321.352V269.725C321.352 267.763 322.94 266.169 324.905 266.169C326.865 266.169 328.459 267.759 328.459 269.725V281.257Z" fill="#918E7A"/>
<path d="M338.341 281.257H331.234V269.725C331.234 267.763 332.823 266.169 334.788 266.169C336.748 266.169 338.341 267.759 338.341 269.725V281.257Z" fill="#918E7A"/>
<path d="M342.713 291.952H316.738V330.345H342.713V291.952Z" fill="#BFBCA5"/>
<path d="M342.713 317.543C340.767 313.268 336.461 305.206 329.725 300.169C322.994 305.206 318.684 313.268 316.738 317.543V330.345H342.713V317.543Z" fill="#DDDAC5"/>
<path d="M328.459 330.345H321.352V318.813C321.352 316.851 322.94 315.257 324.905 315.257C326.865 315.257 328.459 316.847 328.459 318.813V330.345Z" fill="#918E7A"/>
<path d="M338.341 330.345H331.234V318.813C331.234 316.851 332.823 315.257 334.788 315.257C336.748 315.257 338.341 316.847 338.341 318.813V330.345Z" fill="#918E7A"/>
<path d="M363.804 330.345H356.697V318.813C356.697 316.851 358.286 315.257 360.251 315.257C362.211 315.257 363.804 316.847 363.804 318.813V330.345Z" fill="#918E7A"/>
<path d="M373.695 330.345H366.588V318.813C366.588 316.851 368.177 315.257 370.141 315.257C372.101 315.257 373.695 316.847 373.695 318.813V330.345Z" fill="#918E7A"/>
<path d="M419.217 181.693H381.83V338.026H419.217V181.693Z" fill="#E9E8DC"/>
<path d="M413.511 181.693H387.537V230.574H413.511V181.693Z" fill="#BFBCA5"/>
<path d="M413.511 250.864H387.537V284.488H413.511V250.864Z" fill="#BFBCA5"/>
<path d="M405.346 189.152C405.346 189.152 408.9 199.895 408.9 225.34H405.346H401.793C401.793 199.895 405.346 189.152 405.346 189.152Z" fill="#918E7A"/>
<path d="M395.456 189.152C395.456 189.152 399.009 199.895 399.009 225.34H395.456H391.902C391.902 199.895 395.456 189.152 395.456 189.152Z" fill="#918E7A"/>
<path d="M413.511 230.57H387.537V250.864H413.511V230.57Z" fill="#DDDAC5"/>
<path d="M413.511 284.488H387.537V291.952H413.511V284.488Z" fill="#918E7A"/>
<path d="M387.537 271.69C389.483 267.415 393.789 259.354 400.524 254.316C407.255 259.354 411.565 267.415 413.511 271.69V284.493H387.537V271.69Z" fill="#DDDAC5"/>
<path d="M401.793 281.257H408.9V269.725C408.9 267.763 407.311 266.169 405.346 266.169C403.386 266.169 401.793 267.759 401.793 269.725V281.257Z" fill="#918E7A"/>
<path d="M391.902 281.257H399.009V269.725C399.009 267.763 397.421 266.169 395.456 266.169C393.496 266.169 391.902 267.759 391.902 269.725V281.257Z" fill="#918E7A"/>
<path d="M413.511 291.952H387.537V330.345H413.511V291.952Z" fill="#BFBCA5"/>
<path d="M387.537 317.543C389.483 313.268 393.789 305.206 400.524 300.169C407.255 305.206 411.565 313.268 413.511 317.543V330.345H387.537V317.543Z" fill="#DDDAC5"/>
<path d="M401.793 330.345H408.9V318.813C408.9 316.851 407.311 315.257 405.346 315.257C403.386 315.257 401.793 316.847 401.793 318.813V330.345Z" fill="#918E7A"/>
<path d="M391.902 330.345H399.009V318.813C399.009 316.851 397.421 315.257 395.456 315.257C393.496 315.257 391.902 316.847 391.902 318.813V330.345Z" fill="#918E7A"/>
<path d="M381.83 225.34H348.561V228.467H381.83V225.34Z" fill="#918E7A"/>
<path d="M381.83 250.864H348.561V253.992H381.83V250.864Z" fill="#DDDAC5"/>
<path d="M381.83 285.363H348.561V291.642H381.83V285.363Z" fill="#918E7A"/>
<path d="M376.822 271.568C378.019 265.13 373.773 258.94 367.339 257.742C360.906 256.545 354.72 260.793 353.523 267.23C352.326 273.668 356.571 279.858 363.005 281.056C369.439 282.253 375.625 278.006 376.822 271.568Z" fill="#DDDAC5"/>
<path d="M353.675 234.93C353.675 234.93 351.682 241.919 351.682 250.897H353.675H355.668C355.668 241.919 353.675 234.93 353.675 234.93Z" fill="#918E7A"/>
<path d="M360.589 234.93C360.589 234.93 358.596 241.919 358.596 250.897H360.589H362.582C362.582 241.919 360.589 234.93 360.589 234.93Z" fill="#918E7A"/>
<path d="M376.829 234.93C376.829 234.93 378.822 241.919 378.822 250.897H376.829H374.836C374.841 241.919 376.829 234.93 376.829 234.93Z" fill="#918E7A"/>
<path d="M369.919 234.93C369.919 234.93 371.912 241.919 371.912 250.897H369.919H367.926C367.926 241.919 369.919 234.93 369.919 234.93Z" fill="#918E7A"/>
<path d="M422.033 329.386H308.213V338.021H422.033V329.386Z" fill="#918E7A"/>
<path d="M89.3346 252.28H45.5176V337.951H89.3346V252.28Z" fill="#E5DBAE"/>
<path d="M85.2277 256.88H49.627V275.068H85.2277V256.88Z" fill="#BFB891"/>
<path d="M80.9786 332.142H53.8809V303.047C53.8809 295.56 59.9491 289.492 67.4274 289.492C74.9104 289.492 80.9739 295.564 80.9739 303.047V332.142H80.9786Z" fill="#F9F2D7"/>
<path d="M177.401 252.28H133.584V337.951H177.401V252.28Z" fill="#E5DBAE"/>
<path d="M111.46 248.701H43.4316V252.158H111.46H179.494V248.701H111.46Z" fill="#B5AE83"/>
<path d="M173.294 256.88H137.693V275.068H173.294V256.88Z" fill="#BFB891"/>
<path d="M141.947 332.142H169.045V303.047C169.045 295.56 162.977 289.492 155.498 289.492C148.015 289.492 141.952 295.564 141.952 303.047V332.142H141.947Z" fill="#F9F2D7"/>
<path d="M111.46 235.259H37.6641L43.4314 248.701H111.46H179.494L185.261 235.259H111.46Z" fill="#E5DBAE"/>
<path d="M111.46 232.089H37.6641V235.259H111.46H185.261V232.089H111.46Z" fill="#B5AE83"/>
<path d="M111.46 223.435H43.4316V232.089H111.46H179.494V223.435H111.46Z" fill="#E5DBAE"/>
<path d="M111.459 220.307H40.8359L43.4306 223.435H111.459H179.493L182.087 220.307H111.459Z" fill="#B5AE83"/>
<path d="M111.459 216.798H40.8359V220.307H111.459H182.087V216.798H111.459Z" fill="#E5DBAE"/>
<path d="M89.3359 252.28V282.856H92.9411V276.389C92.9411 266.155 101.233 257.858 111.461 257.858C121.689 257.858 129.98 266.155 129.98 276.389V282.856H133.585V252.28H89.3359Z" fill="#D8CEA4"/>
<path d="M117.086 214.555H106.359V217.32H117.086V214.555Z" fill="#E5DBAE"/>
<path d="M101.355 214.555H90.6289V217.32H101.355V214.555Z" fill="#E5DBAE"/>
<path d="M85.6228 214.555H74.8965V217.32H85.6228V214.555Z" fill="#E5DBAE"/>
<path d="M69.8903 214.555H59.1641V217.32H69.8903V214.555Z" fill="#E5DBAE"/>
<path d="M54.1579 214.555H43.4316V217.32H54.1579V214.555Z" fill="#E5DBAE"/>
<path d="M180.015 214.555H169.289V217.32H180.015V214.555Z" fill="#E5DBAE"/>
<path d="M164.283 214.555H153.557V217.32H164.283V214.555Z" fill="#E5DBAE"/>
<path d="M148.551 214.555H137.824V217.32H148.551V214.555Z" fill="#E5DBAE"/>
<path d="M132.818 214.555H122.092V217.32H132.818V214.555Z" fill="#E5DBAE"/>
<path d="M92.9407 279.681H41.918V282.856H92.9407V279.681Z" fill="#B5AE83"/>
<path d="M181.007 279.681H129.984V282.856H181.007V279.681Z" fill="#B5AE83"/>
<path d="M205.587 250.812H203.199V256.668H205.587V250.812Z" fill="#002F49"/>
<path d="M212.372 250.812H209.984V256.668H212.372V250.812Z" fill="#002F49"/>
<path d="M219.161 250.812H216.773V256.668H219.161V250.812Z" fill="#002F49"/>
<path d="M225.948 250.812H223.561V256.668H225.948V250.812Z" fill="#002F49"/>
<path d="M232.739 250.812H230.352V256.668H232.739V250.812Z" fill="#002F49"/>
<path d="M238.583 250.812H236.195V256.668H238.583V250.812Z" fill="#002F49"/>
<path d="M246.316 250.812H243.928V256.668H246.316V250.812Z" fill="#002F49"/>
<path d="M197.826 330.453H155.16V338.021H197.826V330.453Z" fill="#002F49"/>
<path d="M341.136 330.453H298.471V338.021H341.136V330.453Z" fill="#002F49"/>
<path d="M248.533 278.153H247.758V280.739H248.533V278.153Z" fill="#002F49"/>
<path d="M243.504 278.153H242.729V281.007H243.504V278.153Z" fill="#002F49"/>
<path d="M238.475 278.153H237.699V281.464H238.475V278.153Z" fill="#002F49"/>
<path d="M233.44 278.153H232.664V282.287H233.44V278.153Z" fill="#002F49"/>
<path d="M228.41 278.153H227.635V283.477H228.41V278.153Z" fill="#002F49"/>
<path d="M223.381 278.153H222.605V285.424H223.381V278.153Z" fill="#002F49"/>
<path d="M218.352 278.153H217.576V287.71H218.352V278.153Z" fill="#002F49"/>
<path d="M272.059 187.854H248.148H224.232V192.952H228.143L226.804 197.016H236.9H241.107H248.148H255.184H259.391H269.488L268.148 192.952H272.059V187.854Z" fill="#002F49"/>
<path d="M271.767 203.953H260.707H256.401H248.148H239.889H235.583H224.523L223.391 207.396H235.583H239.278H248.148H257.012H260.707H272.9L271.767 203.953Z" fill="#002F49"/>
<path d="M248.148 247.614H202.254V250.812H248.148H294.043V247.614H248.148Z" fill="#002F49"/>
<path d="M248.148 256.673H202.254V262.528H248.148H294.043V256.673H248.148Z" fill="#002F49"/>
<path d="M293.093 250.812H290.705V256.668H293.093V250.812Z" fill="#002F49"/>
<path d="M286.306 250.812H283.918V256.668H286.306V250.812Z" fill="#002F49"/>
<path d="M279.519 250.812H277.131V256.668H279.519V250.812Z" fill="#002F49"/>
<path d="M272.728 250.812H270.34V256.668H272.728V250.812Z" fill="#002F49"/>
<path d="M265.939 250.812H263.551V256.668H265.939V250.812Z" fill="#002F49"/>
<path d="M260.097 250.812H257.709V256.668H260.097V250.812Z" fill="#002F49"/>
<path d="M252.364 250.812H249.977V256.668H252.364V250.812Z" fill="#002F49"/>
<path d="M294.733 264.8H285.112H272.872H248.143H223.415H211.175H201.553C199.457 268.558 196.89 272.993 193.76 278.153H211.175H216.618H248.143H279.673H285.117H302.531C299.401 272.993 296.83 268.558 294.733 264.8Z" fill="#002F49"/>
<path d="M287.214 306.17C278.217 293.166 268.13 284.888 257.611 281.779C277.987 284.483 288.568 295.174 288.69 295.296L289.249 294.755C289.108 294.609 285.686 291.106 278.885 287.555C272.619 284.286 262.203 280.387 248.149 280.387C221.239 280.387 207.185 294.614 207.044 294.755L207.603 295.296C207.721 295.174 218.292 284.479 238.687 281.774C228.168 284.883 218.076 293.161 209.079 306.165C200.294 318.869 195.57 331.737 195.523 331.869L196.252 332.132C196.435 331.624 215.162 281.158 248.149 281.158C281.141 281.158 299.863 331.624 300.046 332.132L300.774 331.869C300.727 331.742 296.004 318.869 287.214 306.17Z" fill="#002F49"/>
<path d="M248.533 278.153H247.758V280.739H248.533V278.153Z" fill="#002F49"/>
<path d="M253.563 278.153H252.787V281.007H253.563V278.153Z" fill="#002F49"/>
<path d="M258.596 278.153H257.82V281.464H258.596V278.153Z" fill="#002F49"/>
<path d="M263.627 278.153H262.852V282.287H263.627V278.153Z" fill="#002F49"/>
<path d="M268.654 278.153H267.879V283.477H268.654V278.153Z" fill="#002F49"/>
<path d="M273.686 278.153H272.91V285.424H273.686V278.153Z" fill="#002F49"/>
<path d="M278.719 278.153H277.943V287.71H278.719V278.153Z" fill="#002F49"/>
<path d="M240.138 204.786L236.589 200.976L232.006 204.494L229.195 200.802L224.758 204.255L224.283 203.643L228.725 200.186L226.492 197.251L227.108 196.781L229.336 199.711L233.472 196.494L236.673 199.932L241.656 196.104L240.138 204.786ZM229.811 200.327L232.152 203.403L236.058 200.403L233.393 197.538L229.811 200.327ZM237.209 200.501L239.644 203.116L240.556 197.933L237.209 200.501Z" fill="#002F49"/>
<path d="M255.921 204.786L254.398 196.104L259.381 199.932L262.582 196.494L266.718 199.711L268.946 196.781L269.562 197.251L267.329 200.186L271.771 203.643L271.296 204.255L266.859 200.802L264.048 204.494L259.465 200.976L255.921 204.786ZM259.997 200.407L263.903 203.408L266.243 200.332L262.662 197.548L259.997 200.407ZM255.508 197.933L256.42 203.116L258.854 200.501L255.508 197.933Z" fill="#002F49"/>
<path d="M256.965 204.932L251.964 200.732L248.142 204.494L244.321 200.732L240.133 204.25L239.635 203.657L243.762 200.186L240.829 197.294L241.374 196.739L244.363 199.683L248.142 196.508L251.922 199.683L255.437 196.221L256.965 204.932ZM244.923 200.233L248.147 203.408L251.372 200.233L248.147 197.524L244.923 200.233ZM252.519 200.186L255.832 202.971L254.925 197.816L252.519 200.186Z" fill="#002F49"/>
<path d="M266.099 187.953L265.718 186.8L259.894 183.169L264.191 179.623C264.087 179.092 263.989 178.551 263.89 178.01L258.296 173.852L262.48 169.93C262.386 169.361 262.296 168.787 262.202 168.208L256.98 163.891L260.938 159.813C260.853 159.22 260.769 158.623 260.689 158.026L255.843 153.802L259.608 149.79C259.533 149.188 259.457 148.586 259.382 147.979L254.865 143.963L258.466 140.12C258.4 139.509 258.329 138.893 258.263 138.281L253.995 134.307L257.455 130.488C257.394 129.881 257.333 129.27 257.276 128.663L253.347 125.136L256.632 121.824C256.576 121.204 256.52 120.583 256.468 119.967L252.877 116.354L255.88 113.062C255.829 112.427 255.777 111.797 255.725 111.162L252.585 108.274L255.293 105.598C255.246 104.958 255.199 104.323 255.152 103.693L252.285 100.862L254.757 98.228C254.715 97.5883 254.668 96.9534 254.625 96.3232L252.04 93.8351L254.306 91.4976C254.263 90.872 254.226 90.2512 254.188 89.6351L251.815 87.274L253.906 85.0588C253.869 84.4332 253.831 83.8171 253.798 83.2057L251.645 81.1362L253.572 79.1797C253.54 78.5682 253.507 77.9615 253.474 77.3689L251.514 75.5393L253.29 73.8085C253.258 73.1782 253.229 72.5621 253.196 71.9507L251.373 70.2105L253.032 68.5455C253.004 67.9388 252.976 67.3415 252.947 66.763L251.274 65.272L252.816 63.8422C252.787 63.2355 252.764 62.6429 252.74 62.0738L251.166 60.611L252.623 59.2048C252.604 58.7674 252.59 58.3488 252.571 57.9396H248.52V59.2142L250.033 60.6158L248.52 62.0738V63.8516L250.118 65.2767L248.52 66.7583V68.5549L250.263 70.2199L248.52 71.9695V73.8038L250.39 75.5487L248.52 77.3736V79.2032L250.545 81.1456L248.52 83.201V85.0823L250.733 87.2834L248.52 89.6257V91.5117L250.94 93.8398L248.52 96.3373V98.2233L251.199 100.871L248.52 103.726V105.589L251.457 108.284L248.52 111.186V113.057L251.805 116.364L248.52 119.962V121.834L252.214 125.15L248.693 128.691C248.726 129.237 248.764 129.848 248.806 130.526L252.896 134.335L249.305 138.3C249.347 138.907 249.384 139.528 249.431 140.163L253.742 143.996L249.981 148.003C250.024 148.61 250.071 149.216 250.113 149.833L254.71 153.84L250.748 158.063C250.795 158.661 250.846 159.263 250.893 159.86L255.824 163.938L251.622 168.26C251.674 168.834 251.73 169.408 251.782 169.972L257.07 173.904L252.618 178.081C252.679 178.617 252.74 179.139 252.802 179.651L258.555 183.24L253.859 187.116C253.897 187.337 253.939 187.553 253.977 187.765C253.981 187.779 253.995 187.863 254.014 187.995L259.246 183.673L266.099 187.953ZM249.135 58.7297H252.021L250.607 60.0937L249.135 58.7297ZM250.616 61.1613L252.186 62.6147H249.112L250.616 61.1613ZM249.164 63.3907H252.181L250.701 64.7641L249.164 63.3907ZM250.715 65.8129L252.36 67.2803H249.135L250.715 65.8129ZM249.116 68.0564H252.449L250.827 69.6884L249.116 68.0564ZM250.837 70.7702L252.689 72.5386H249.079L250.837 70.7702ZM249.131 73.3146H252.703L250.954 75.0172L249.131 73.3146ZM250.973 76.0943L252.933 77.9192H249.102L250.973 76.0943ZM249.112 78.6952H252.99L251.105 80.6095L249.112 78.6952ZM251.119 81.7006L253.281 83.7795H249.074L251.119 81.7006ZM249.088 84.5508H253.347L251.283 86.7331L249.088 84.5508ZM251.297 87.8478L253.695 90.2324H249.046L251.297 87.8478ZM249.107 91.0084H253.718L251.495 93.3036L249.107 91.0084ZM251.514 94.3995L254.141 96.9252H249.065L251.514 94.3995ZM249.093 97.7012H254.212L251.749 100.326L249.093 97.7012ZM251.768 101.44L254.701 104.342H249.041L251.768 101.44ZM249.145 105.114H254.701L252.021 107.762L249.145 105.114ZM252.045 108.834L255.222 111.75H249.093L252.045 108.834ZM249.079 112.526H255.335L252.341 115.809L249.079 112.526ZM252.364 116.933L256.003 120.597H249.027L252.364 116.933ZM249.159 121.373H256.003L252.778 124.623L249.159 121.373ZM252.811 125.691L256.736 129.213H249.309L252.811 125.691ZM249.366 129.989H256.872L253.436 133.78L249.366 129.989ZM253.483 134.885L257.765 138.874H249.873L253.483 134.885ZM250.019 139.65H257.855L254.292 143.45L250.019 139.65ZM254.339 144.532L258.86 148.549H250.569L254.339 144.532ZM250.71 149.325H258.983L255.26 153.294L250.71 149.325ZM255.312 154.371L260.167 158.604H251.34L255.312 154.371ZM251.523 159.38H260.285L256.379 163.397L251.523 159.38ZM256.44 164.45L261.662 168.768H252.247L256.44 164.45ZM252.501 169.544H261.761L257.666 173.382L252.501 169.544ZM257.718 174.393L263.269 178.523H253.314L257.718 174.393ZM253.69 179.299H263.363L259.199 182.737L253.69 179.299Z" fill="#002F49"/>
<path d="M285.742 247.657C285.728 247.614 285.709 247.567 285.695 247.53L285.356 246.495L274 239.346L280.825 232.719L280.299 231.115L270.076 224.747L276.313 218.999L275.815 217.48L266.987 212.537L272.712 208.045L272.374 207.011H257.352C257.417 207.382 257.488 207.759 257.554 208.14L265.596 212.645L259.274 217.603C259.368 218.101 259.457 218.6 259.551 219.103L268.802 224.864L261.864 231.252C261.967 231.778 262.071 232.3 262.174 232.818L272.755 239.478L265.159 246.857C265.211 247.083 265.262 247.304 265.314 247.52C265.319 247.534 265.347 247.6 265.394 247.708L273.432 239.901L285.742 247.657ZM258.503 207.782H271.777L266.245 212.123L258.503 207.782ZM266.32 213.054L275.002 217.918H260.12L266.32 213.054ZM260.355 218.694H275.495L269.385 224.319L260.355 218.694ZM269.479 225.292L279.641 231.623H262.607L269.479 225.292ZM262.954 232.394H280.04L273.323 238.923L262.954 232.394Z" fill="#002F49"/>
<path d="M311.584 330.063H312.153L318.259 321.828L335.542 330.063H336.51C336.364 329.861 336.228 329.663 336.087 329.461L318.733 321.193L324.731 313.103C324.35 312.548 323.988 312.007 323.617 311.461L307.053 303.395L313.116 295.658C312.769 295.127 312.421 294.591 312.082 294.064L296.543 286.224L302.498 278.811C302.282 278.454 302.075 278.11 301.864 277.758H279.932C280.157 278.186 280.388 278.618 280.618 279.051L295.344 286.482L289.046 294.327C289.351 294.859 289.661 295.395 289.972 295.936L305.854 303.668L299.509 311.762C299.842 312.299 300.181 312.83 300.524 313.371L317.563 321.489L311.41 329.786C311.457 329.88 311.518 329.974 311.584 330.063ZM281.299 278.538H301.713L295.824 285.871L281.299 278.538ZM296.04 286.844L311.485 294.638H289.779L296.04 286.844ZM290.653 295.414H312.313L306.324 303.047L290.653 295.414ZM306.55 304.021L323.048 312.054H300.251L306.55 304.021ZM301.173 312.83H323.965L318.014 320.854L301.173 312.83Z" fill="#002F49"/>
<path d="M247.578 128.715L244.058 125.173L247.752 121.853V119.986L244.466 116.383L247.752 113.077V111.209L244.814 108.307L247.752 105.608V103.745L245.073 100.89L247.752 98.2423V96.3563L245.331 93.8589L247.752 91.5307V89.6447L245.538 87.2978L247.752 85.0966V83.2153L245.726 81.16L247.752 79.2175V77.3879L245.881 75.563L247.752 73.8181V71.9885L246.008 70.2389L247.752 68.574V66.7773L246.154 65.2958L247.752 63.8707V62.0928L246.239 60.6348L247.752 59.2332V57.9586H243.7C243.686 58.3631 243.667 58.7864 243.649 59.2238L245.106 60.6301L243.531 62.0928C243.508 62.6619 243.479 63.2545 243.456 63.8612L244.998 65.2911L243.324 66.782C243.296 67.3652 243.268 67.9578 243.24 68.5645L244.899 70.2295L243.075 71.9697C243.047 72.5765 243.014 73.1973 242.981 73.8275L244.758 75.5583L242.798 77.3879C242.765 77.9852 242.732 78.592 242.699 79.1987L244.626 81.1553L242.473 83.2247C242.436 83.8361 242.403 84.457 242.365 85.0778L244.457 87.2931L242.088 89.6494C242.05 90.2655 242.008 90.8864 241.971 91.5119L244.236 93.8494L241.651 96.3375C241.609 96.9724 241.566 97.6074 241.519 98.247L243.992 100.881L241.129 103.712C241.082 104.347 241.035 104.982 240.988 105.622L243.696 108.298L240.556 111.181C240.504 111.811 240.452 112.446 240.401 113.081L243.399 116.369L239.813 119.981C239.757 120.602 239.705 121.223 239.649 121.843L242.934 125.15L239.009 128.673C238.948 129.284 238.892 129.891 238.831 130.502L242.29 134.321L238.022 138.291C237.956 138.907 237.891 139.518 237.82 140.135L241.421 143.972L236.908 147.984C236.833 148.591 236.758 149.193 236.683 149.8L240.448 153.812L235.606 158.035C235.522 158.637 235.442 159.235 235.357 159.832L239.315 163.905L234.097 168.218C234.003 168.796 233.914 169.37 233.82 169.944L238.003 173.867L232.415 178.024C232.316 178.565 232.213 179.106 232.109 179.638L236.401 183.179L230.572 186.815L230.191 187.967L237.026 183.701L242.257 188.023C242.281 187.897 242.29 187.817 242.295 187.802C242.332 187.591 242.375 187.37 242.412 187.149L237.717 183.273L243.47 179.685C243.531 179.172 243.592 178.65 243.653 178.114L239.202 173.937L244.49 170.005C244.542 169.441 244.598 168.867 244.65 168.293L240.448 163.971L245.378 159.893C245.425 159.296 245.477 158.694 245.524 158.096L241.562 153.873L246.159 149.866C246.206 149.25 246.248 148.638 246.29 148.036L242.53 144.029L246.84 140.196C246.882 139.561 246.925 138.94 246.967 138.333L243.376 134.368L247.465 130.559C247.508 129.872 247.545 129.261 247.578 128.715ZM244.269 58.73H247.155L245.684 60.0939L244.269 58.73ZM245.674 61.1616L247.183 62.6149H244.105L245.674 61.1616ZM244.109 63.3909H247.127L245.585 64.7643L244.109 63.3909ZM245.576 65.8131L247.155 67.2805H243.931L245.576 65.8131ZM243.846 68.0566H247.179L245.468 69.6886L243.846 68.0566ZM245.454 70.7704L247.211 72.5388H243.602L245.454 70.7704ZM243.587 73.3149H247.16L245.331 75.0175L243.587 73.3149ZM245.322 76.0945L247.193 77.9194H243.362L245.322 76.0945ZM243.305 78.6954H247.183L245.19 80.6097L243.305 78.6954ZM245.172 81.7008L247.216 83.7797H243.009L245.172 81.7008ZM242.948 84.551H247.207L245.012 86.7334L242.948 84.551ZM244.993 87.848L247.244 90.2326H242.596L244.993 87.848ZM242.572 91.0087H247.183L244.795 93.3039L242.572 91.0087ZM244.777 94.3997L247.226 96.9254H242.149L244.777 94.3997ZM242.083 97.7015H247.202L244.546 100.326L242.083 97.7015ZM244.528 101.441L247.249 104.343H241.59L244.528 101.441ZM241.59 105.114H247.146L244.264 107.762L241.59 105.114ZM244.25 108.834L247.202 111.75H241.073L244.25 108.834ZM240.955 112.526H247.211L243.949 115.809L240.955 112.526ZM243.926 116.933L247.268 120.597H240.288L243.926 116.933ZM240.288 121.373H247.132L243.512 124.623L240.288 121.373ZM243.484 125.691L246.981 129.214H239.559L243.484 125.691ZM237.092 182.737L232.927 179.299H242.6L237.092 182.737ZM242.976 178.523H233.021L238.572 174.393L242.976 178.523ZM238.629 173.387L234.535 169.549H243.794L238.629 173.387ZM244.048 168.768H234.633L239.855 164.451L244.048 168.768ZM239.907 163.397L236.001 159.38H244.763L239.907 163.397ZM244.951 158.604H236.123L240.979 154.371L244.951 158.604ZM241.03 153.294L237.308 149.325H245.58L241.03 153.294ZM245.721 148.549H237.43L241.952 144.532L245.721 148.549ZM241.999 143.446L238.436 139.645H246.271L241.999 143.446ZM246.417 138.874H238.525L242.807 134.886L246.417 138.874ZM242.854 133.78L239.418 129.99H246.925L242.854 133.78Z" fill="#002F49"/>
<path d="M238.954 207.006H223.927L223.589 208.041L229.314 212.532L220.482 217.48L219.984 218.999L226.226 224.747L216.002 231.115L215.476 232.719L222.301 239.35L210.945 246.499L210.606 247.525C210.592 247.567 210.569 247.619 210.555 247.661L222.87 239.91L230.903 247.713C230.964 247.572 230.997 247.487 231.006 247.468C231.053 247.271 231.1 247.069 231.147 246.866L223.547 239.482L234.132 232.818C234.235 232.3 234.339 231.783 234.442 231.256L227.5 224.864L236.755 219.098C236.849 218.599 236.938 218.101 237.032 217.602L230.71 212.64L238.752 208.135C238.818 207.758 238.884 207.382 238.954 207.006ZM222.973 238.922L216.256 232.399H233.342L222.973 238.922ZM233.69 231.618H216.656L226.818 225.288L233.69 231.618ZM226.907 224.319L220.797 218.694H235.937L226.907 224.319ZM236.172 217.917H221.29L229.972 213.054L236.172 217.917ZM230.047 212.123L224.515 207.782H237.789L230.047 212.123Z" fill="#002F49"/>
<path d="M216.37 277.762H194.438C194.226 278.115 194.019 278.458 193.803 278.816L199.758 286.228L184.219 294.069C183.88 294.591 183.533 295.131 183.185 295.663L189.248 303.395L172.684 311.461C172.313 312.012 171.946 312.548 171.57 313.103L177.568 321.192L160.214 329.461C160.073 329.663 159.937 329.856 159.791 330.063H160.755L178.038 321.827L184.144 330.063H184.712C184.778 329.969 184.839 329.879 184.905 329.785L178.757 321.489L195.796 313.371C196.134 312.835 196.473 312.298 196.807 311.762L190.461 303.668L206.344 295.936C206.654 295.395 206.964 294.859 207.27 294.327L200.971 286.487L215.693 279.056C215.914 278.623 216.144 278.19 216.37 277.762ZM178.278 320.854L172.332 312.83H195.124L178.278 320.854ZM196.04 312.054H173.244L189.742 304.021L196.04 312.054ZM189.963 303.052L183.974 295.418H205.639L189.963 303.052ZM206.513 294.638H184.811L200.252 286.844L206.513 294.638ZM200.463 285.871L194.574 278.538H214.988L200.463 285.871Z" fill="#002F49"/>
<path d="M224.076 262.528C216.532 278.087 203.047 303.734 184.706 330.063H159.785C181.975 298.697 195.677 276.37 203.273 262.528H202.347C195.315 275.368 182.234 297.036 158.718 330.228L158.285 330.839H185.11L185.228 330.674C203.785 304.068 217.388 278.129 224.937 262.528H224.076Z" fill="#002F49"/>
<path d="M209.242 250.812C209.844 249.472 210.3 248.367 210.605 247.52L230.784 186.161C241.158 137.961 243.753 57.6245 243.941 51.4068H247.762V125.733C247.734 126.208 244.998 173.523 242.3 187.793C242.23 188.211 235.226 229.779 231.005 247.468C230.977 247.534 230.483 248.715 229.543 250.817H230.389C231.254 248.87 231.71 247.783 231.738 247.708C235.988 229.934 242.991 188.343 243.062 187.929C245.769 173.617 248.505 126.255 248.533 125.756V50.6307H243.179L243.17 51.007C243.146 51.8536 240.749 136.155 230.032 185.959L209.867 247.271C209.849 247.318 209.435 248.442 208.34 250.817H209.242V250.812Z" fill="#002F49"/>
<path d="M337.573 330.228C314.057 297.032 300.975 275.368 293.944 262.528H293.018C300.613 276.365 314.315 298.697 336.506 330.063H311.584C293.239 303.729 279.748 278.068 272.214 262.528H271.354C278.893 278.11 292.501 304.058 311.062 330.674L311.18 330.839H338.005L337.573 330.228Z" fill="#002F49"/>
<path d="M265.901 250.812H266.747C265.821 248.738 265.337 247.581 265.309 247.525C261.069 229.775 254.066 188.207 253.991 187.784C251.293 173.523 248.562 126.208 248.533 125.752V51.4068H252.355C252.543 57.6245 255.133 137.962 265.521 186.199L285.695 247.529C285.995 248.376 286.451 249.477 287.053 250.812H287.956C286.86 248.442 286.447 247.323 286.433 247.275L266.273 185.996C255.546 136.155 253.149 51.8536 253.126 51.007L253.116 50.6307H247.758V125.775C247.786 126.25 250.522 173.617 253.229 187.92C253.3 188.339 260.308 229.93 264.576 247.765C264.599 247.826 265.051 248.898 265.901 250.812Z" fill="#002F49"/>
<path d="M253.686 51.3082H242.64C241.098 51.3082 239.848 50.0571 239.848 48.5144V42.9645C239.848 41.4219 241.098 40.1708 242.64 40.1708H253.686C255.227 40.1708 256.478 41.4219 256.478 42.9645V48.5191C256.478 50.0571 255.223 51.3082 253.686 51.3082ZM242.64 40.9468C241.526 40.9468 240.623 41.8499 240.623 42.9645V48.5191C240.623 49.6338 241.526 50.5368 242.64 50.5368H253.686C254.8 50.5368 255.702 49.6338 255.702 48.5191V42.9645C255.702 41.8499 254.8 40.9468 253.686 40.9468H242.64Z" fill="#002F49"/>
<path d="M256.087 44.0133H240.232V47.4702H256.087V44.0133Z" fill="#002F49"/>
<path d="M252.82 40.9466H243.504L243.523 40.5421C243.593 38.9477 244.895 37.6967 246.489 37.6967H249.84C251.429 37.6967 252.731 38.9477 252.806 40.5421L252.82 40.9466ZM244.35 40.1659H251.969C251.744 39.1876 250.869 38.468 249.835 38.468H246.484C245.45 38.4727 244.58 39.1876 244.35 40.1659Z" fill="#002F49"/>
<path d="M248.665 24.4335H248.162H247.659L246.484 38.0824H248.162H249.841L248.665 24.4335Z" fill="#002F49"/>
<path d="M109.274 334.103C108.856 333.068 107.944 332.283 106.825 332.048C106.059 330.552 104.503 329.527 102.708 329.527C100.508 329.527 98.67 331.065 98.2 333.125C97.9697 333.078 97.7347 333.054 97.4949 333.054C95.972 333.054 94.6841 334.018 94.1859 335.368C93.6359 335.025 92.992 334.823 92.301 334.818C92.3339 334.602 92.3527 334.381 92.3527 334.155C92.3527 331.596 90.2799 329.522 87.7228 329.522C85.194 329.522 83.14 331.554 83.0977 334.08H83.093C80.4984 334.08 78.3926 336.187 78.3926 338.783C78.3926 341.379 80.4984 343.486 83.093 343.486H108.4V343.463C108.555 343.477 108.715 343.486 108.879 343.486C111.474 343.486 113.58 341.379 113.58 338.783C113.584 336.323 111.685 334.305 109.274 334.103Z" fill="#769B2F"/>
<path d="M285.186 334.103C285.605 333.068 286.517 332.283 287.635 332.048C288.401 330.552 289.957 329.527 291.753 329.527C293.953 329.527 295.79 331.065 296.26 333.125C296.491 333.078 296.726 333.054 296.966 333.054C298.488 333.054 299.776 334.018 300.275 335.368C300.825 335.025 301.469 334.823 302.159 334.818C302.127 334.602 302.108 334.381 302.108 334.155C302.108 331.596 304.181 329.522 306.738 329.522C309.266 329.522 311.32 331.554 311.363 334.08H311.367C313.962 334.08 316.068 336.187 316.068 338.783C316.068 341.379 313.962 343.486 311.367 343.486H286.061V343.463C285.906 343.477 285.746 343.486 285.581 343.486C282.987 343.486 280.881 341.379 280.881 338.783C280.876 336.323 282.77 334.305 285.186 334.103Z" fill="#769B2F"/>
<path d="M428.017 331.61C427.562 330.477 426.565 329.621 425.343 329.362C424.506 327.73 422.809 326.611 420.849 326.611C418.447 326.611 416.436 328.29 415.923 330.543C415.674 330.491 415.416 330.463 415.152 330.463C413.493 330.463 412.078 331.516 411.538 332.993C410.941 332.617 410.236 332.396 409.479 332.391C409.512 332.156 409.536 331.916 409.536 331.667C409.536 328.873 407.275 326.611 404.483 326.611C401.719 326.611 399.477 328.831 399.434 331.587H399.43C396.595 331.587 394.297 333.887 394.297 336.723C394.297 339.559 396.595 341.859 399.43 341.859H427.068V341.831C427.237 341.849 427.411 341.859 427.59 341.859C430.424 341.859 432.723 339.559 432.723 336.723C432.723 334.033 430.654 331.827 428.017 331.61Z" fill="#769B2F"/>
<path d="M64.6534 336.563C64.5782 336.563 64.5077 336.568 64.4325 336.572C64.4889 336.234 64.5265 335.89 64.5265 335.538C64.5265 332.048 61.6969 329.216 58.2092 329.216C54.7215 329.216 51.8918 332.048 51.8918 335.538C51.8918 335.89 51.9295 336.234 51.9812 336.568C51.953 336.568 51.9248 336.563 51.9012 336.563C51.8965 336.563 51.8966 336.563 51.8918 336.563C51.8918 334.498 50.2185 332.824 48.155 332.824C46.6227 332.824 45.3066 333.746 44.7332 335.067C44.6298 335.058 44.5263 335.053 44.4182 335.053C42.0022 335.053 40.0469 337.014 40.0469 339.427C40.0469 341.84 42.0069 343.801 44.4182 343.801H64.6534C66.6511 343.801 68.2727 342.179 68.2727 340.18C68.2727 338.186 66.6511 336.563 64.6534 336.563Z" fill="#769B2F"/>
<path d="M182.84 343.561C182.934 343.561 183.023 343.571 183.117 343.576C183.047 343.152 183 342.715 183 342.273C183 337.88 186.558 334.324 190.943 334.324C195.333 334.324 198.887 337.885 198.887 342.273C198.887 342.715 198.84 343.148 198.774 343.566C198.807 343.566 198.84 343.561 198.878 343.561C198.882 343.561 198.887 343.561 198.887 343.561C198.887 340.965 200.993 338.858 203.587 338.858C205.515 338.858 207.169 340.02 207.893 341.68C208.025 341.671 208.156 341.661 208.288 341.661C211.324 341.661 213.787 344.126 213.787 347.164C213.787 350.203 211.324 352.667 208.288 352.667H182.835C180.32 352.667 178.285 350.631 178.285 348.114C178.285 345.598 180.325 343.561 182.84 343.561Z" fill="#769B2F"/>
<path d="M255.481 369.115C255.546 369.115 255.612 369.119 255.673 369.124C255.622 368.828 255.593 368.522 255.593 368.207C255.593 365.126 258.089 362.624 261.173 362.624C264.252 362.624 266.752 365.121 266.752 368.207C266.752 368.517 266.719 368.818 266.672 369.115C266.696 369.115 266.719 369.11 266.743 369.11C266.747 369.11 266.747 369.11 266.752 369.11C266.752 367.285 268.228 365.808 270.052 365.808C271.406 365.808 272.567 366.622 273.074 367.788C273.168 367.784 273.257 367.774 273.351 367.774C275.485 367.774 277.211 369.505 277.211 371.636C277.211 373.766 275.481 375.497 273.351 375.497H255.485C253.723 375.497 252.289 374.067 252.289 372.299C252.284 370.544 253.713 369.115 255.481 369.115Z" fill="#769B2F"/>
<path d="M137.693 368.705C145.236 368.705 151.352 362.586 151.352 355.038C151.352 347.489 145.236 341.37 137.693 341.37C130.149 341.37 124.033 347.489 124.033 355.038C124.033 362.586 130.149 368.705 137.693 368.705Z" fill="#ADCC56"/>
<path d="M137.693 341.37C137.359 341.37 137.03 341.384 136.701 341.407C142.896 341.812 147.798 346.957 147.798 353.26C147.798 359.826 142.478 365.15 135.916 365.15C129.617 365.15 124.475 360.244 124.071 354.045C124.047 354.374 124.033 354.704 124.033 355.038C124.033 362.586 130.148 368.705 137.693 368.705C145.237 368.705 151.352 362.586 151.352 355.038C151.352 347.489 145.237 341.37 137.693 341.37Z" fill="#87AA3C"/>
<path d="M137.694 380.125C137.087 380.125 136.594 379.631 136.594 379.024V357.827C136.594 357.22 137.087 356.726 137.694 356.726C138.3 356.726 138.794 357.22 138.794 357.827V379.024C138.794 379.631 138.305 380.125 137.694 380.125Z" fill="#5B4D07"/>
<path d="M238.083 335.951C245.627 335.951 251.742 329.832 251.742 322.284C251.742 314.735 245.627 308.616 238.083 308.616C230.539 308.616 224.424 314.735 224.424 322.284C224.424 329.832 230.539 335.951 238.083 335.951Z" fill="#A0C947"/>
<path d="M238.083 308.616C238.417 308.616 238.746 308.63 239.075 308.653C232.88 309.058 227.977 314.203 227.977 320.506C227.977 327.072 233.298 332.396 239.86 332.396C246.158 332.396 251.301 327.49 251.705 321.291C251.728 321.62 251.742 321.95 251.742 322.284C251.742 329.832 245.627 335.951 238.083 335.951C230.539 335.951 224.424 329.832 224.424 322.284C224.424 314.735 230.539 308.616 238.083 308.616Z" fill="#87AA3C"/>
<path d="M238.082 347.371C238.689 347.371 239.182 346.877 239.182 346.27V325.073C239.182 324.466 238.689 323.972 238.082 323.972C237.476 323.972 236.982 324.466 236.982 325.073V346.27C236.982 346.877 237.476 347.371 238.082 347.371Z" fill="#5B4D07"/>
<path d="M311.065 339.131C315.732 339.131 319.516 335.345 319.516 330.674C319.516 326.004 315.732 322.218 311.065 322.218C306.397 322.218 302.613 326.004 302.613 330.674C302.613 335.345 306.397 339.131 311.065 339.131Z" fill="#769B2F"/>
<path d="M311.063 322.218C311.27 322.218 311.472 322.227 311.674 322.241C307.839 322.491 304.807 325.675 304.807 329.574C304.807 333.637 308.097 336.93 312.159 336.93C316.055 336.93 319.237 333.891 319.487 330.058C319.501 330.26 319.51 330.463 319.51 330.67C319.51 335.34 315.726 339.126 311.059 339.126C306.391 339.126 302.607 335.34 302.607 330.67C302.612 326.004 306.396 322.218 311.063 322.218Z" fill="#87AA3C"/>
<path d="M311.064 346.2C311.44 346.2 311.746 345.894 311.746 345.518V332.4C311.746 332.024 311.44 331.719 311.064 331.719C310.688 331.719 310.383 332.024 310.383 332.4V345.518C310.388 345.894 310.688 346.2 311.064 346.2Z" fill="#5B4D07"/>
<path d="M347.156 389.725C352.026 384.852 352.026 376.952 347.156 372.079C342.286 367.206 334.391 367.206 329.521 372.079C324.651 376.952 324.651 384.852 329.521 389.725C334.391 394.598 342.286 394.598 347.156 389.725Z" fill="#9FC945"/>
<path d="M338.343 368.423C338.038 368.423 337.737 368.437 337.441 368.461C343.1 368.832 347.575 373.526 347.575 379.283C347.575 385.28 342.719 390.138 336.726 390.138C330.978 390.138 326.282 385.656 325.911 379.998C325.887 380.299 325.873 380.6 325.873 380.901C325.873 387.791 331.457 393.379 338.343 393.379C345.229 393.379 350.813 387.791 350.813 380.901C350.813 374.011 345.229 368.423 338.343 368.423Z" fill="#87AA3C"/>
<path d="M338.343 403.806C337.788 403.806 337.342 403.355 337.342 402.804V383.45C337.342 382.895 337.793 382.448 338.343 382.448C338.898 382.448 339.344 382.9 339.344 383.45V402.804C339.349 403.359 338.898 403.806 338.343 403.806Z" fill="#5B4D07"/>
<path d="M96.6293 316.659C96.5447 316.659 96.4601 316.616 96.4131 316.536C96.3473 316.419 96.3849 316.268 96.5024 316.198L98.9701 314.777V314.138C98.9701 314.001 99.0829 313.893 99.2145 313.893C99.3508 313.893 99.4589 314.001 99.4589 314.138V314.919C99.4589 315.008 99.4119 315.088 99.3367 315.13L96.7468 316.626C96.7139 316.649 96.6669 316.659 96.6293 316.659Z" fill="#F40348"/>
<path d="M108.667 326.357C102.584 326.357 97.6348 331.309 97.6348 337.396C97.6348 343.482 102.584 348.429 108.667 348.429C114.749 348.429 119.698 343.477 119.698 337.396C119.698 331.309 114.749 326.357 108.667 326.357ZM108.667 346.943C103.407 346.943 99.1248 342.659 99.1248 337.396C99.1248 332.133 103.407 327.848 108.667 327.848C113.926 327.848 118.208 332.133 118.208 337.396C118.208 342.659 113.931 346.943 108.667 346.943Z" fill="#414042"/>
<path d="M96.6148 337.395C96.1307 337.395 95.7405 336.986 95.7734 336.502C96.2106 330.077 101.357 324.927 107.778 324.49C108.262 324.457 108.671 324.847 108.671 325.332C102.011 325.332 96.6148 330.731 96.6148 337.395Z" fill="#231F20"/>
<path d="M110.058 337.395C110.058 338.162 109.438 338.783 108.672 338.783C107.906 338.783 107.285 338.162 107.285 337.395C107.285 336.629 107.906 336.008 108.672 336.008C109.438 336.008 110.058 336.629 110.058 337.395Z" fill="#F40348"/>
<path d="M71.233 326.357C65.1507 326.357 60.2012 331.309 60.2012 337.396C60.2012 343.482 65.1507 348.429 71.233 348.429C77.3153 348.429 82.2648 343.477 82.2648 337.396C82.2601 331.309 77.3153 326.357 71.233 326.357ZM71.233 346.943C65.9732 346.943 61.6912 342.659 61.6912 337.396C61.6912 332.133 65.9732 327.848 71.233 327.848C76.4927 327.848 80.7748 332.133 80.7748 337.396C80.7701 342.659 76.4927 346.943 71.233 346.943Z" fill="#414042"/>
<path d="M83.3511 337.395C83.2289 337.395 83.1349 337.297 83.1302 337.179C83.0127 330.712 77.72 325.491 71.2335 325.491C64.747 325.491 59.4543 330.717 59.3368 337.179C59.3368 337.301 59.2381 337.395 59.1159 337.395C58.7493 337.395 58.4625 337.085 58.4813 336.723C58.8339 329.988 64.4179 324.616 71.2335 324.616C78.0491 324.616 83.6331 329.988 83.9856 336.723C84.0044 337.085 83.713 337.395 83.3511 337.395Z" fill="#231F20"/>
<path d="M71.2343 338.783C72.0001 338.783 72.6209 338.162 72.6209 337.395C72.6209 336.629 72.0001 336.008 71.2343 336.008C70.4685 336.008 69.8477 336.629 69.8477 337.395C69.8477 338.162 70.4685 338.783 71.2343 338.783Z" fill="#F40348"/>
<path d="M108.447 337.701C108.343 337.626 105.941 335.82 104.282 331.474C102.9 327.862 100.423 321.23 99.6994 319.283C99.408 318.502 99.4832 317.637 99.9015 316.974C100.071 316.706 100.287 316.471 100.541 316.282C100.663 316.193 100.743 316.052 100.762 315.897C100.78 315.732 100.729 315.563 100.616 315.44C100.207 314.98 99.5725 314.429 98.8345 314.429H94.7969V313.677H98.8345C99.6383 313.677 100.451 314.114 101.18 314.947C101.429 315.229 101.551 315.61 101.509 315.986C101.471 316.353 101.279 316.687 100.987 316.899C100.809 317.03 100.658 317.19 100.541 317.383C100.249 317.849 100.198 318.465 100.409 319.029C101.138 320.976 103.61 327.603 104.992 331.215C106.567 335.335 108.875 337.085 108.898 337.104L108.447 337.701Z" fill="#F40348"/>
<path d="M97.6268 314.843H95.0697C94.6326 314.843 94.2754 314.486 94.2754 314.048C94.2754 313.611 94.6326 313.253 95.0697 313.253H97.6268C98.0639 313.253 98.4211 313.611 98.4211 314.048C98.4211 314.486 98.0639 314.843 97.6268 314.843Z" fill="#414042"/>
<path d="M79.9612 319.527L79.2637 319.808L87.1534 339.395L87.8509 339.114L79.9612 319.527Z" fill="#F40348"/>
<path d="M71.1764 338.167L64.516 324.01C64.328 323.61 64.3562 323.149 64.5912 322.777C64.8262 322.406 65.2304 322.185 65.6723 322.185H101.325V322.937H81.1553L71.1764 338.167ZM65.6723 322.937C65.489 322.937 65.3244 323.027 65.2304 323.182C65.1317 323.337 65.1223 323.521 65.1975 323.69L71.2845 336.624L80.2529 322.937H65.6723Z" fill="#F40348"/>
<path d="M87.5339 340.246L71.1719 337.767L71.2847 337.019L87.4822 339.474C88.0745 339.286 92.1403 337.856 93.6961 333.525C95.3789 328.845 96.836 325.642 101.593 323.817L101.861 324.523C97.3953 326.235 96.0651 329.16 94.4059 333.779C92.5962 338.816 87.8112 340.17 87.6091 340.227L87.5339 340.246Z" fill="#F40348"/>
<path d="M87.5152 341.008C88.1461 341.008 88.6574 340.496 88.6574 339.865C88.6574 339.233 88.1461 338.722 87.5152 338.722C86.8844 338.722 86.373 339.233 86.373 339.865C86.373 340.496 86.8844 341.008 87.5152 341.008Z" fill="#6D6E71"/>
<path d="M87.5152 343.27C85.6397 343.27 84.1074 341.741 84.1074 339.86C84.1074 339.051 84.3941 338.27 84.9159 337.654C85.5645 336.892 86.5093 336.455 87.5105 336.455C89.3906 336.455 90.9183 337.983 90.9183 339.865C90.9183 341.741 89.3907 343.27 87.5152 343.27ZM87.5152 337.033C86.6832 337.033 85.8983 337.395 85.3624 338.03C84.93 338.538 84.6903 339.192 84.6903 339.86C84.6903 341.417 85.9594 342.687 87.5152 342.687C89.071 342.687 90.3401 341.417 90.3401 339.86C90.3401 338.303 89.071 337.033 87.5152 337.033Z" fill="#6D6E71"/>
<path d="M85.3332 337.624L84.9746 338.078L89.8568 341.94L90.2154 341.486L85.3332 337.624Z" fill="#6D6E71"/>
<path d="M90.1422 338.184L84.5039 340.819L84.7486 341.344L90.3869 338.708L90.1422 338.184Z" fill="#6D6E71"/>
<path d="M86.8731 340.533L85.582 344.042L86.2922 344.304L87.5832 340.795L86.8731 340.533Z" fill="#6D6E71"/>
<path d="M86.8807 345.466L84.3942 344.549C84.1639 344.465 84.0464 344.211 84.131 343.98C84.2156 343.75 84.4694 343.632 84.6997 343.717L87.1862 344.634C87.4165 344.718 87.534 344.972 87.4494 345.203C87.3648 345.433 87.111 345.551 86.8807 345.466Z" fill="#6D6E71"/>
<path d="M88.7622 335.613L87.4707 339.122L88.1764 339.382L89.4679 335.873L88.7622 335.613Z" fill="#6D6E71"/>
<path d="M88.1743 334.451L90.6608 335.368C90.8911 335.453 91.0086 335.707 90.924 335.937C90.8394 336.168 90.5856 336.285 90.3553 336.201L87.8688 335.284C87.6385 335.199 87.521 334.945 87.6056 334.714C87.6902 334.484 87.944 334.366 88.1743 334.451Z" fill="#6D6E71"/>
<path d="M76.2717 317.303L77.8134 317.665H82.7911C83.2893 317.665 83.7688 317.853 84.1354 318.187C84.4221 318.451 84.4503 318.897 84.1965 319.194L84.0179 319.401C83.8816 319.565 83.6748 319.659 83.4633 319.659H81.5032C79.9756 320.374 78.1894 320.28 76.7511 319.401L75.6794 318.747C75.4021 318.578 75.2564 318.253 75.3128 317.929C75.3974 317.482 75.8345 317.2 76.2717 317.303Z" fill="#414042"/>
<path d="M462.095 46.1345C462.095 41.2619 458.146 37.3158 453.281 37.3158H442.696C437.826 37.3158 433.883 41.2666 433.883 46.1345C433.883 51.0071 437.831 54.9531 442.696 54.9531H453.281C458.146 54.9531 462.095 51.0024 462.095 46.1345Z" fill="#ACDFF0"/>
<path d="M120.532 13.7289H81.0813C77.2928 13.7289 74.2188 10.6576 74.2188 6.86205C74.2188 3.07119 77.2881 -0.00476074 81.0813 -0.00476074H120.532C124.32 -0.00476074 127.394 3.06649 127.394 6.86205C127.39 10.6576 124.32 13.7289 120.532 13.7289Z" fill="#ACDFF0"/>
<path d="M92.4709 181.693L88.3393 183.659L86.3745 187.793L84.3581 183.72L80.2734 181.693L84.5132 179.83L86.3745 175.588L88.4568 179.623L92.4709 181.693Z" fill="white"/>
<path d="M371.801 189.152L367.669 191.123L365.705 195.257L363.693 191.184L359.604 189.152L363.843 187.294L365.705 183.052L367.787 187.083L371.801 189.152Z" fill="white"/>
<path d="M284.434 63.3909L282.31 64.4069L281.299 66.528L280.265 64.4351L278.164 63.3909L280.345 62.4362L281.299 60.2585L282.371 62.328L284.434 63.3909Z" fill="white"/>
<path d="M231.573 13.7289L229.448 14.7401L228.438 16.866L227.399 14.773L225.303 13.7289L227.479 12.7741L228.438 10.5918L229.505 12.6659L231.573 13.7289Z" fill="white"/>
<path d="M168.345 140.572L165.595 141.884L164.284 144.636L162.944 141.922L160.223 140.572L163.048 139.335L164.284 136.508L165.675 139.194L168.345 140.572Z" fill="white"/>
<path d="M205.944 50.6308L204.083 51.515L203.199 53.3775L202.292 51.5433L200.449 50.6308L202.358 49.7936L203.199 47.8794L204.134 49.6996L205.944 50.6308Z" fill="white"/>
<path d="M151.301 200.577L149.44 201.466L148.552 203.328L147.644 201.494L145.807 200.577L147.715 199.739L148.552 197.83L149.492 199.645L151.301 200.577Z" fill="white"/>
<path d="M130.201 58.7299L128.344 59.6188L127.456 61.4813L126.549 59.647L124.711 58.7299L126.619 57.8927L127.456 55.9832L128.396 57.7986L130.201 58.7299Z" fill="white"/>
<path d="M341.092 38.4729L339.231 39.3571L338.343 41.2196L337.436 39.3853L335.598 38.4729L337.506 37.631L338.343 35.7214L339.283 37.5369L341.092 38.4729Z" fill="white"/>
<path d="M206.042 176.59L202.836 178.114L201.313 181.321L199.753 178.165L196.58 176.59L199.87 175.146L201.313 171.854L202.93 174.981L206.042 176.59Z" fill="white"/>
<path d="M347.946 124.623L344.402 126.312L342.715 129.858L340.985 126.363L337.479 124.623L341.117 123.024L342.715 119.384L344.501 122.845L347.946 124.623Z" fill="white"/>
<path d="M306.498 397.08H289.158C287.133 397.08 285.492 395.439 285.492 393.412C285.492 386.597 291.015 381.07 297.826 381.07C304.637 381.07 310.16 386.597 310.16 393.412C310.165 395.439 308.524 397.08 306.498 397.08Z" fill="#686868"/>
<path d="M171.715 421.406H155.649C153.012 421.406 150.873 419.266 150.873 416.627C150.873 409.549 156.608 403.811 163.682 403.811C170.756 403.811 176.49 409.549 176.49 416.627C176.49 419.266 174.351 421.406 171.715 421.406Z" fill="#808285"/>
<path d="M183.061 425.836H173.515C171.183 425.836 169.289 423.945 169.289 421.608C169.289 416.636 173.317 412.606 178.286 412.606C183.254 412.606 187.282 416.636 187.282 421.608C187.287 423.945 185.393 425.836 183.061 425.836Z" fill="#6F7072"/>
<path d="M294.047 401.261H288.975C287.367 401.261 286.061 399.959 286.061 398.345C286.061 395.335 288.5 392.894 291.508 392.894C294.517 392.894 296.956 395.335 296.956 398.345C296.956 399.959 295.654 401.261 294.047 401.261Z" fill="#7C7C7C"/>
<path d="M321.201 428.437H316.129C314.522 428.437 313.215 427.134 313.215 425.521C313.215 422.511 315.654 420.07 318.663 420.07C321.671 420.07 324.11 422.511 324.11 425.521C324.115 427.13 322.808 428.437 321.201 428.437Z" fill="#666666"/>
<path d="M343.67 344.046H338.598C336.99 344.046 335.684 342.743 335.684 341.13C335.684 338.12 338.123 335.679 341.131 335.679C344.14 335.679 346.579 338.12 346.579 341.13C346.584 342.743 345.277 344.046 343.67 344.046Z" fill="#777777"/>
</g>
<defs>
<clipPath id="clip0">
<rect width="493" height="449" fill="white"/>
</clipPath>
</defs>
</svg>
