<svg width="538" height="486" viewBox="0 0 538 486" fill="none" xmlns="http://www.w3.org/2000/svg">
<path d="M70.28 404.51C47.12 342.1 -11.6 309.37 18.66 241.98C35.93 203.52 80.87 150.27 121.31 142.3C312.73 104.58 283.34 55.9299 341.26 40.6299C408.91 22.7699 432.63 51.9399 465.98 113.01C507.86 189.7 538.12 394.96 457.2 457.96C410.03 494.68 338.04 486.6 282.76 481.45C241.64 477.62 119.54 480.41 89.61 449.17" fill="#ABD6D3"/>
<g filter="url(#filter0_d)">
<path d="M200.94 148.66C196.5 142.2 179.16 139.17 173.71 144.32C168.5 133.41 165.09 124.12 150.95 122.78C146.6 122.37 142.82 122.07 140.67 126.28C139.78 128.03 140.05 130.02 138.8 131.62C132.89 125.18 120.83 114.92 111.11 117.84C104.2 119.92 102.1 130.13 98.8701 135.57C88.4201 133.18 73.6301 126.11 63.5501 134.57C60.2801 137.32 59.4501 143.19 61.2601 146.96C52.0101 145.7 41.4001 144.43 32.3301 148.17C26.1001 150.74 18.1901 154.84 17.6701 162.25C17.3701 166.55 21.2201 178.48 51.4201 174.8C59.4001 173.83 85.3501 177.05 128.07 173.73C152.43 171.83 222.76 180.38 200.94 148.66Z" fill="white"/>
</g>
<path d="M376.52 233.05C372.08 226.59 354.74 223.56 349.29 228.71C344.08 217.8 340.68 208.51 326.53 207.17C322.18 206.76 318.4 206.46 316.25 210.67C315.36 212.42 315.63 214.41 314.38 216.01C308.47 209.57 296.41 199.31 286.69 202.23C279.78 204.31 277.68 214.52 274.45 219.96C264 217.57 249.21 210.5 239.13 218.96C235.86 221.71 235.03 227.58 236.84 231.35C227.59 230.09 216.98 228.82 207.91 232.56C201.68 235.13 193.77 239.23 193.25 246.64C192.95 250.94 196.8 262.87 227 259.19C234.98 258.22 260.93 261.44 303.65 258.12C328.02 256.22 398.35 264.77 376.52 233.05Z" fill="white"/>
<path d="M188.29 19.8199H182.39V37.8399H188.29V19.8199Z" fill="#4F6885"/>
<path d="M194.71 35.7H175.97V42.1399H194.71V35.7Z" fill="#4F6885"/>
<path d="M186.7 0.0899658H183.98V23.69H186.7V0.0899658Z" fill="#4F6885"/>
<path d="M202.5 42.13H168.19V59.29H202.5V42.13Z" fill="#4F6885"/>
<path d="M163.1 267.48H207.58" stroke="#4F6885" stroke-width="4.4569" stroke-miterlimit="10"/>
<path d="M235.39 228.43H135.28V245.59H235.39V228.43Z" fill="#4F6885"/>
<path d="M232.5 248.37H138.18V256.95H232.5V248.37Z" fill="#4F6885"/>
<path d="M268.97 332.7H99.5598V347.2H268.97V332.7Z" fill="#4F6885"/>
<path d="M104.78 347.2H146.44L109.44 437.87H68.5598L104.78 347.2Z" fill="#4F6885"/>
<path d="M111.76 437.87H63.3599V445.46H111.76V437.87Z" fill="#4F6885"/>
<path d="M299.79 437.87H258.92L221.91 347.2H263.57L299.79 437.87Z" fill="#4F6885"/>
<path d="M307.32 437.87H258.92V445.46H307.32V437.87Z" fill="#4F6885"/>
<path d="M130.85 347.2V382.56C144.54 368.93 163.42 360.5 184.27 360.5C204.44 360.5 222.76 368.38 236.32 381.24V347.2H130.85ZM143.27 368.27C141.67 369.3 140.11 370.39 138.6 371.54L146.87 349.57H150.31L143.27 368.27ZM154.46 362.32C153.15 362.88 151.85 363.48 150.58 364.12L154.83 349.57H158.18L154.46 362.32ZM164.13 358.93C162.95 359.25 161.78 359.61 160.62 359.99L162.8 349.57H166.08L164.13 358.93ZM173.06 357.04C171.95 357.2 170.84 357.39 169.75 357.61L170.76 349.56H174L173.06 357.04ZM181.64 356.27C180.56 356.3 179.48 356.36 178.41 356.44L178.69 349.57H181.91L181.64 356.27ZM186.89 356.27L186.61 349.57H189.83L190.11 356.44C189.06 356.36 187.98 356.3 186.89 356.27ZM195.47 357.04L194.53 349.57H197.77L198.78 357.61C197.69 357.39 196.59 357.2 195.47 357.04ZM204.4 358.92L202.44 349.56H205.72L207.9 359.97C206.75 359.59 205.58 359.25 204.4 358.92ZM214.07 362.3L210.34 349.56H213.69L217.94 364.1C216.67 363.47 215.38 362.86 214.07 362.3ZM225.26 368.26L218.23 349.56H221.67L229.94 371.53C228.42 370.39 226.86 369.29 225.26 368.26Z" fill="#4F6885"/>
<path d="M147.83 242.03L112.22 332.7H156.06L170.34 242.03H147.83ZM163.33 257.51L151.51 267.9L146.91 257.51H163.33ZM145.82 257.45L148.99 268.29L138.28 279.13L145.82 257.45ZM150.97 270.07L157.2 280.46H138.28L150.97 270.07ZM156.12 281.98L143.38 292.37L138.42 281.98H156.12ZM137.25 281.92L140.65 292.76L129.11 303.6L137.25 281.92ZM142.79 294.54L149.51 304.93H129.11L142.79 294.54ZM148.57 307.05L135.21 317.44L130.01 307.05H148.57ZM128.76 306.98L132.34 317.82L120.23 328.66L128.76 306.98ZM120.23 329.99L134.58 319.6L141.63 329.99H120.23ZM143.19 329.99L137.34 318.51L150.62 307.04L143.19 329.99ZM150.99 304.92L145.42 293.45L158.08 281.97L150.99 304.92ZM153.4 268.99L165.14 257.51L158.57 280.45L153.4 268.99Z" fill="#4F6885"/>
<path d="M200.34 242.03L214.62 332.7H258.46L222.85 242.03H200.34ZM223.76 257.51L219.16 267.9L207.34 257.51H223.76ZM232.4 279.12L221.69 268.28L224.86 257.44L232.4 279.12ZM232.4 280.45H213.48L219.71 270.06L232.4 280.45ZM232.25 281.98L227.29 292.37L214.55 281.98H232.25ZM241.57 303.59L230.03 292.75L233.43 281.91L241.57 303.59ZM241.57 304.92H221.17L227.89 294.53L241.57 304.92ZM240.67 307.05L235.47 317.44L222.11 307.05H240.67ZM250.45 328.65L238.34 317.81L241.92 306.97L250.45 328.65ZM229.04 329.99L236.09 319.6L250.44 329.99H229.04ZM220.06 307.05L233.34 318.52L227.49 330L220.06 307.05ZM212.6 281.98L225.26 293.46L219.69 304.93L212.6 281.98ZM212.11 280.45L205.54 257.51L217.28 268.99L212.11 280.45Z" fill="#4F6885"/>
<path d="M219.23 233.45C197.18 211.4 199.45 59.2999 199.45 59.2999H186.02C186.02 59.2999 188.94 224.46 198.23 233.74H173.81C184.2 223.35 186.02 59.2999 186.02 59.2999H172.6C172.6 59.2999 176.32 208.58 151.44 233.45C146.69 238.2 223.98 238.2 219.23 233.45ZM174.68 222.57L170.57 216.61L176.14 211.99L174.68 222.57ZM166.82 206.07L172.28 201.81L176.71 207.13L166.82 206.07ZM177.6 205.36L173.6 199.93L178.65 195.47L177.6 205.36ZM178.96 189.55L175.53 184.75L180.01 180.91L178.96 189.55ZM178.15 191.09L169.51 190.03L174.34 186.37L178.15 191.09ZM180.6 173.91L176.81 169.39L180.98 165.21L180.6 173.91ZM179.93 175.51L171.23 175.14L175.76 171.11L179.93 175.51ZM181.63 159.37L177.84 154.85L182.01 150.67L181.63 159.37ZM180.95 160.96L172.25 160.59L176.78 156.56L180.95 160.96ZM174.32 105.66H183.03L178.68 109.88L174.32 105.66ZM183.03 117.28H174.32L178.67 113.06L183.03 117.28ZM174.56 103.31L178.91 99.0899L183.26 103.31H174.56ZM174.56 91.6899H183.27L178.92 95.9099L174.56 91.6899ZM174.7 89.3499L179.05 85.1299L183.4 89.3499H174.7ZM174.7 77.7299H183.41L179.06 81.9499L174.7 77.7299ZM178.16 83.3699L174.35 87.7199V79.0099L178.16 83.3699ZM178.01 97.3299L174.2 101.68V92.9699L178.01 97.3299ZM177.78 111.3L173.97 115.65V106.94L177.78 111.3ZM182.82 120.26L178.27 124.26L174.13 119.83L182.82 120.26ZM182.25 131.87L173.55 131.45L178.1 127.45L182.25 131.87ZM182.25 134.81L177.72 138.84L173.55 134.44L182.25 134.81ZM181.75 146.41L173.05 146.04L177.58 142.01L181.75 146.41ZM182.43 144.82L178.64 140.3L182.81 136.12L182.43 144.82ZM182.94 130.28L179.17 125.74L183.36 121.59L182.94 130.28ZM183.64 115.65L179.66 111.3L183.64 106.95V115.65ZM183.87 101.69L179.89 97.3399L183.87 92.9899V101.69ZM184.02 87.7199L180.04 83.3699L184.02 79.0199V87.7199ZM174.2 75.3799L179.18 70.5499L184.16 75.3799H174.2ZM184.86 73.5199L180.3 68.5399L184.86 63.5599V73.5199ZM184.16 62.0899L179.18 66.9199L174.2 62.0899H184.16ZM173.79 63.5599L178.15 68.5399L173.79 73.5199V63.5599ZM173.7 121.11L177.3 125.64L173.28 129.8L173.7 121.11ZM173.14 135.7L176.76 140.21L172.76 144.4L173.14 135.7ZM181.45 149.35L176.92 153.38L172.75 148.98L181.45 149.35ZM172.34 150.25L175.96 154.76L171.96 158.95L172.34 150.25ZM180.43 163.9L175.9 167.93L171.73 163.53L180.43 163.9ZM171.31 164.8L174.93 169.31L170.93 173.5L171.31 164.8ZM179.57 179.55L174.74 183.21L170.93 178.49L179.57 179.55ZM170.41 179.73L173.67 184.51L169.36 188.37L170.41 179.73ZM178.12 193.93L172.66 198.19L168.23 192.87L178.12 193.93ZM167.67 194.3L171.47 199.71L166.61 204.19L167.67 194.3ZM175.61 210.32L169.61 214.72L165.03 208.86L175.61 210.32ZM164.38 210.37L168.29 216.3L162.93 220.95L164.38 210.37ZM163.08 222.98L169.08 218.58L173.66 224.44L163.08 222.98ZM205.67 204.18L200.81 199.7L204.61 194.29L205.67 204.18ZM207.25 208.87L202.67 214.73L196.67 210.33L207.25 208.87ZM199.62 198.2L194.16 193.94L204.05 192.88L199.62 198.2ZM194.13 191.09L197.94 186.37L202.77 190.03L194.13 191.09ZM202.93 188.37L198.62 184.51L201.88 179.73L202.93 188.37ZM197.55 183.21L192.72 179.55L201.36 178.49L197.55 183.21ZM192.36 175.51L196.53 171.11L201.06 175.14L192.36 175.51ZM201.34 173.5L197.34 169.31L200.96 164.8L201.34 173.5ZM196.39 167.93L191.86 163.9L200.56 163.53L196.39 167.93ZM191.34 160.96L195.51 156.56L200.04 160.59L191.34 160.96ZM200.32 158.95L196.32 154.76L199.94 150.25L200.32 158.95ZM195.37 153.38L190.84 149.35L199.54 148.98L195.37 153.38ZM198.08 101.69L194.27 97.3399L198.08 92.9899V101.69ZM198.32 106.95V115.66L194.51 111.31L198.32 106.95ZM197.94 87.7199L194.13 83.3699L197.94 79.0199V87.7199ZM193.23 81.9499L188.88 77.7299H197.59L193.23 81.9499ZM197.58 89.3499H188.87L193.22 85.1299L197.58 89.3499ZM197.73 91.6899L193.38 95.9099L189.03 91.6899H197.73ZM197.73 103.31H189.02L193.37 99.0899L197.73 103.31ZM197.96 105.66L193.61 109.88L189.26 105.66H197.96ZM197.96 117.28H189.25L193.6 113.06L197.96 117.28ZM198.16 119.84L194.02 124.27L189.47 120.27L198.16 119.84ZM194.18 127.44L198.73 131.44L190.03 131.86L194.18 127.44ZM198.73 134.43L194.56 138.83L190.03 134.8L198.73 134.43ZM194.7 142.01L199.23 146.04L190.53 146.41L194.7 142.01ZM199.52 144.4L195.52 140.21L199.14 135.7L199.52 144.4ZM199.01 129.81L194.99 125.65L198.59 121.12L199.01 129.81ZM198.49 73.5199L194.13 68.5399L198.49 63.5599V73.5199ZM198.08 62.0899L193.1 66.9199L188.12 62.0899H198.08ZM187.43 63.5599L191.99 68.5399L187.43 73.5199V63.5599ZM193.1 70.5499L198.08 75.3799H188.12L193.1 70.5499ZM188.27 79.0199L192.25 83.3699L188.27 87.7199V79.0199ZM188.41 92.9799L192.39 97.3299L188.41 101.68V92.9799ZM188.65 106.95L192.63 111.3L188.65 115.65V106.95ZM188.92 121.58L193.11 125.73L189.34 130.27L188.92 121.58ZM189.48 136.12L193.65 140.3L189.86 144.82L189.48 136.12ZM190.28 150.67L194.45 154.85L190.66 159.37L190.28 150.67ZM191.3 165.21L195.47 169.39L191.68 173.91L191.3 165.21ZM192.27 180.91L196.75 184.75L193.32 189.55L192.27 180.91ZM193.62 195.47L198.67 199.93L194.67 205.36L193.62 195.47ZM200 201.81L205.46 206.07L195.57 207.13L200 201.81ZM197.61 222.57L196.15 211.99L201.72 216.61L197.61 222.57ZM198.62 224.44L203.2 218.58L209.2 222.98L198.62 224.44ZM204 216.3L207.91 210.37L209.37 220.95L204 216.3Z" fill="#4F6885"/>
<path d="M425.69 243.03H398.14V411.26H425.69V243.03Z" fill="#66412B"/>
<path d="M348.23 209.19L360.63 238.12L409.58 239.51L406.41 252.42L355.54 242.89L348.23 209.19Z" fill="#66412B"/>
<path d="M371.44 199.97L375.25 214.91L402.28 244.48H418.49L378.91 212.68L371.44 199.97Z" fill="#66412B"/>
<path d="M438.2 198.22L410.7 246.22L423.42 244.63L438.2 198.22Z" fill="#66412B"/>
<path d="M464.27 213.95L450.28 234.62L418.49 241.93L424.53 252.42L453.14 241.3L464.27 213.95Z" fill="#66412B"/>
<path d="M317.86 123.91C322.76 87.5099 353.92 59.4399 391.66 59.4399C419.74 59.4399 444.17 74.9799 456.87 97.9199C461.85 96.6999 467.04 96.0399 472.4 96.0399C508.27 96.0399 537.34 125.12 537.34 160.98C537.34 196.85 508.26 225.92 472.4 225.92C454.03 225.92 437.46 218.28 425.64 206.02C421.44 223 406.14 235.61 387.86 235.61C375.25 235.61 364.07 229.59 356.95 220.31C347.27 228.79 334.59 233.94 320.71 233.94C290.3 233.94 265.65 209.29 265.65 178.88C265.65 149.44 288.77 125.39 317.86 123.91Z" fill="#9E8E00"/>
<path opacity="0.2" d="M230.52 289.84C243.75 307.79 269.19 300.71 277.99 270.67C274.67 265.56 264.07 253.25 260.17 250.07C260.17 250.07 213.6 263.47 230.52 289.84Z" fill="#DDDDDD"/>
<path d="M368.84 208.72H329.71V303.47H368.84V208.72Z" fill="#D89A98"/>
<path d="M368.83 271.77C368.83 271.77 407.64 316.22 421.42 340.63C435.19 365.05 421.42 430.15 421.42 430.15H288.02L304.03 316.61L368.83 271.77Z" fill="white"/>
<path d="M292.98 346.18L405.56 310.81" stroke="#050402" stroke-width="1.2521" stroke-miterlimit="10"/>
<path d="M291.8 355.56L412.6 324.61" stroke="#050402" stroke-width="1.2521" stroke-miterlimit="10"/>
<path d="M290.62 364.93L419.65 338.41" stroke="#050402" stroke-width="1.2521" stroke-miterlimit="10"/>
<path d="M289.44 374.31L426.69 352.21" stroke="#050402" stroke-width="1.2521" stroke-miterlimit="10"/>
<path d="M288.27 383.69L433.73 366.01" stroke="#050402" stroke-width="1.2521" stroke-miterlimit="10"/>
<path d="M287.09 393.07L440.77 379.81" stroke="#050402" stroke-width="1.2521" stroke-miterlimit="10"/>
<path d="M285.91 402.45L447.82 393.61" stroke="#050402" stroke-width="1.2521" stroke-miterlimit="10"/>
<path d="M284.73 411.83L454.86 407.41" stroke="#050402" stroke-width="1.2521" stroke-miterlimit="10"/>
<path d="M283.55 421.21H461.9" stroke="#050402" stroke-width="1.2521" stroke-miterlimit="10"/>
<path d="M329.71 281.87C317.71 286.74 294.96 287.21 298.72 303.62C302.75 321.18 279.84 324.13 292.98 337.28C306.13 350.43 414.36 298.58 393.75 287.21C377.84 278.43 377.84 276.76 377.84 268.1C377.83 243.27 350.5 273.42 329.71 281.87Z" fill="#050402"/>
<path d="M298.68 311.87C300.73 309.71 303.01 307.75 305.57 306.17C308.1 304.54 310.99 303.45 313.95 302.95C315.43 302.68 316.91 302.51 318.39 302.4C319.13 302.33 319.88 302.3 320.62 302.3C321.37 302.27 322.1 302.28 322.83 302.24C325.77 302.09 328.69 301.66 331.61 301.21C337.43 300.29 343.19 298.95 348.84 297.33C351.67 296.52 354.46 295.58 357.16 294.43C358.51 293.86 359.84 293.23 361.11 292.5C362.39 291.79 363.62 290.97 364.72 289.98L364.81 290.07C362.82 292.33 360.18 293.87 357.53 295.23C354.84 296.55 352.05 297.62 349.21 298.54C343.53 300.37 337.66 301.51 331.76 302.26C328.81 302.63 325.83 302.82 322.85 302.82C321.35 302.81 319.89 302.68 318.42 302.79C316.95 302.89 315.49 303.12 314.09 303.56C312.68 303.96 311.32 304.51 310 305.12C308.68 305.72 307.37 306.37 306.11 307.1C303.57 308.53 301.18 310.25 298.75 311.98L298.68 311.87Z" fill="#EFECE7"/>
<path d="M325.25 296.85C326.8 294.48 329.07 292.7 331.35 291.08C333.66 289.47 336.12 288.1 338.62 286.85C343.64 284.33 349.01 282.65 354.32 280.95C356.98 280.1 359.66 279.31 362.39 278.67C365.16 278.09 367.89 277.64 370.61 277.13C373.32 276.57 376.01 275.97 378.6 275.12C379.9 274.7 381.14 274.15 382.31 273.47C383.45 272.77 384.5 271.86 385.05 270.58L385.17 270.62C384.9 272.04 383.89 273.24 382.76 274.12C381.63 275.03 380.32 275.66 379.01 276.22C376.37 277.32 373.59 277.92 370.82 278.33C369.43 278.55 368.04 278.71 366.65 278.84C365.95 278.91 365.26 278.95 364.56 279C363.88 279.07 363.19 279.17 362.51 279.29C359.78 279.75 357.09 280.49 354.44 281.33C349.14 283.06 344.12 285.49 339.12 287.86C336.62 289.06 334.18 290.37 331.82 291.8C330.64 292.52 329.5 293.29 328.4 294.13C327.29 294.95 326.26 295.88 325.35 296.93L325.25 296.85Z" fill="#EFECE7"/>
<path d="M310.6 329.38C318.45 327.79 326.33 326.01 333.45 322.47C337.01 320.73 340.36 318.54 343.21 315.74C344.64 314.35 345.91 312.8 347.19 311.25C348.46 309.7 349.69 308.09 351.18 306.71C351.92 306.01 352.7 305.35 353.56 304.79C354.4 304.2 355.35 303.77 356.19 303.28C357.91 302.29 359.51 301.12 361.05 299.87C364.13 297.36 366.9 294.48 369.73 291.62C372.56 288.78 375.51 285.95 378.93 283.71C382.3 281.43 386.39 279.99 390.44 280.24V280.37C388.44 280.49 386.49 280.95 384.66 281.68C382.82 282.4 381.13 283.44 379.52 284.58C376.31 286.9 373.53 289.77 370.68 292.58C367.83 295.39 364.95 298.25 361.71 300.7C360.09 301.93 358.37 303.03 356.54 303.93C355.62 304.38 354.71 304.76 353.88 305.29C353.04 305.8 352.23 306.38 351.51 307.06C348.57 309.75 346.42 313.21 343.63 316.14C340.89 319.11 337.61 321.65 333.97 323.47C326.65 327.08 318.62 328.75 310.63 329.51L310.6 329.38Z" fill="#EFECE7"/>
<path d="M244.87 335.17C233.12 357.22 219.6 339.54 217.84 338.19C216.09 336.83 208.52 324.14 208.52 324.14C208.52 324.14 197.38 317.67 199.79 312C202.81 304.92 216.01 297.71 220.99 296.16C221.89 295.88 222.51 295.78 222.77 295.9C230.03 300.67 237.01 315.31 241.12 325.3C243.46 330.98 244.87 335.17 244.87 335.17Z" fill="#D89A98"/>
<path d="M241.12 325.29C238.5 327.13 230.31 323.51 229 316.79C226.65 304.75 220.47 297.74 220.47 297.74C220.62 297.13 220.8 296.6 221 296.14C221.9 295.86 222.52 295.76 222.78 295.88C230.03 300.66 237.01 315.3 241.12 325.29Z" fill="#F1C4A1"/>
<path d="M225.58 337.67C225.58 337.67 221.66 327.07 218.85 319.59C216.04 312.11 211.57 305.53 217.74 303.62C220.1 303.62 220 312.56 226.28 315.58C232.56 318.59 238.44 319.97 239.73 322.02C253.64 344.05 232.86 346.97 225.58 337.67Z" fill="#F1C4A1"/>
<path d="M208.52 317.88C208.52 317.88 184.39 313.33 183.37 317.88C182.35 322.43 204.68 323.53 208.52 324.13C212.37 324.74 208.52 317.88 208.52 317.88Z" fill="#D89A98"/>
<path d="M226.28 280.78C226.28 280.78 250.8 286.49 270.96 285.89C263.89 296.56 251.3 304.2 235.94 296.46C223.13 290.01 226.28 280.78 226.28 280.78Z" fill="#C32433"/>
<path d="M254.26 255.48C254.26 255.48 235.09 258.07 227.97 276.48L254.26 255.48Z" fill="#FEFEFE"/>
<path d="M210.53 304.18C210.53 304.18 208.97 298.79 203.3 302.76C197.62 306.73 192 314.51 197.07 317.43C202.14 320.35 201.24 308.41 210.53 304.18Z" fill="#F1C4A1"/>
<path d="M215.28 296.6C215.28 296.6 212.88 291.53 207.91 296.36C202.94 301.19 198.64 309.77 204.11 311.84C209.58 313.9 206.78 302.27 215.28 296.6Z" fill="#DDB4AC"/>
<path d="M223.58 296.3C223.58 296.3 221.21 290.51 215.53 294.48C209.85 298.45 204.23 306.23 209.3 309.15C214.38 312.06 213.83 304.42 223.58 296.3Z" fill="#F1C4A1"/>
<path d="M291.03 408.82C291.03 408.82 263.76 414.55 255.99 412.46C236.79 407.32 216.24 343.61 216.24 343.61L244.1 327.53L291.03 408.82Z" fill="white"/>
<path d="M220.47 375.98L262.83 350.96" stroke="#050402" stroke-width="1.2521" stroke-miterlimit="10"/>
<path d="M225.49 383.52L267.85 358.5" stroke="#050402" stroke-width="1.2521" stroke-miterlimit="10"/>
<path d="M230.52 391.06L272.88 366.04" stroke="#050402" stroke-width="1.2521" stroke-miterlimit="10"/>
<path d="M235.54 398.59L277.9 373.57" stroke="#050402" stroke-width="1.2521" stroke-miterlimit="10"/>
<path d="M240.57 406.13L282.93 381.11" stroke="#050402" stroke-width="1.2521" stroke-miterlimit="10"/>
<path d="M245.6 413.67L287.96 388.65" stroke="#050402" stroke-width="1.2521" stroke-miterlimit="10"/>
<path d="M250.62 421.21L292.98 396.19" stroke="#050402" stroke-width="1.2521" stroke-miterlimit="10"/>
<path d="M359.52 235.7C359.52 262.5 339.43 278.43 317.82 278.43C296.21 278.43 290.59 248.88 290.59 222.09C290.59 195.29 296.86 173.57 329.72 173.57C366.33 173.56 359.52 208.9 359.52 235.7Z" fill="#F1C4A1"/>
<path d="M292.84 199.7C306.38 173.56 318.38 211.47 336.86 221.85C339.91 223.56 347.94 227.23 352.24 227.71C361.87 228.78 363.12 239.15 368.83 243.27C368.83 243.27 399.82 187.96 353.76 171.06C332.7 163.33 287.85 168.08 292.84 199.7Z" fill="#050402"/>
<path d="M386.36 184.21C400.76 203.3 394.33 214.76 365.08 214.76C335.82 214.76 283.55 200.04 283.55 186.18C283.55 172.32 307.27 161.09 336.52 161.09C365.77 161.09 378.02 173.14 386.36 184.21Z" fill="#C32433"/>
<path d="M355.93 167.22C351.6 173.43 346.84 177.6 345.31 176.53C343.78 175.46 346.05 169.56 350.38 163.35C354.71 157.14 363.12 158.95 364.66 160.02C366.19 161.09 360.26 161.01 355.93 167.22Z" fill="#A81214"/>
<path d="M296.85 219C296.85 219 296.85 227.42 309.37 214.76L296.85 219Z" fill="#050402"/>
<path d="M290.58 222.08L283.07 249.31H292.98L290.58 222.08Z" fill="#F86E70"/>
<path d="M294.95 257.02C294.95 257.02 306.31 259.17 308.19 253.54L294.95 257.02Z" fill="#050402"/>
<path d="M294.84 250.73C295.45 248.7 297.09 246.85 299.34 246.22C299.9 246.05 300.47 246.01 301.04 245.96C301.6 245.99 302.19 245.96 302.74 246.09C303.3 246.19 303.85 246.31 304.37 246.5L305.17 246.76L305.88 247.01C307.79 247.66 309.76 247.9 311.67 248.31C313.6 248.71 315.55 249 317.68 249.19L317.75 249.43C316.8 250.05 315.73 250.39 314.65 250.6C313.56 250.81 312.45 250.87 311.35 250.8C309.12 250.72 307.06 249.78 305.12 248.87L304.39 248.52L303.73 248.22C303.29 248 302.84 247.85 302.38 247.72C301.47 247.44 300.52 247.3 299.6 247.44C297.73 247.63 296.02 249.01 295.08 250.81L294.84 250.73Z" fill="#050402"/>
<path d="M362.58 225.99C362.58 235.53 353.8 243.27 348.95 243.27C344.1 243.27 345.02 235.53 345.02 225.99C345.02 216.45 348.95 208.71 353.8 208.71C358.65 208.71 362.58 216.45 362.58 225.99Z" fill="#F1C4A1"/>
<path d="M277.99 270.67C269.19 300.71 243.75 307.79 230.52 289.84C213.6 263.47 260.17 250.07 260.17 250.07C259.44 249.48 258.95 249.2 258.78 249.35C258.78 249.35 226.53 257.21 225.38 275.69C225.08 280.41 225.44 284.33 226.6 287.56C227.63 290.4 226.83 293.57 224.51 295.51L197.09 318.47C195.51 319.79 193.29 320.03 191.47 319.08L182.87 314.6L199.13 334.96L196.55 325.18C196.05 323.27 196.7 321.25 198.21 319.98L225.86 296.83C228.13 294.93 231.35 294.62 233.92 296.09C237.22 297.98 241.57 299.28 247.14 300.13C266 303.01 278.94 272.87 278.94 272.87C279.16 272.69 278.78 271.88 277.99 270.67Z" fill="white"/>
<path d="M351.67 393.86C344.31 432.77 319.79 428.13 327.15 389.22L346.52 286.91C351.87 258.62 376.39 263.26 371.04 291.55L351.67 393.86Z" fill="#E7863A"/>
<path d="M367.46 296.04L357.39 302.17C353.76 304.38 349.04 303.22 346.83 299.6L356.9 293.47C360.53 291.26 365.25 292.41 367.46 296.04Z" fill="#E6B39D"/>
<path d="M364.32 312.6L354.25 318.73C350.62 320.94 345.9 319.78 343.69 316.16L353.76 310.03C357.39 307.83 362.12 308.98 364.32 312.6Z" fill="#E6B39D"/>
<path d="M361.19 329.17L351.12 335.3C347.49 337.51 342.77 336.35 340.56 332.73L350.63 326.6C354.26 324.39 358.98 325.54 361.19 329.17Z" fill="#E6B39D"/>
<path d="M358.05 345.73L347.98 351.86C344.35 354.07 339.63 352.91 337.42 349.29L347.49 343.16C351.12 340.96 355.85 342.11 358.05 345.73Z" fill="#E6B39D"/>
<path d="M354.92 362.3L344.85 368.43C341.22 370.64 336.5 369.48 334.29 365.86L344.36 359.73C347.98 357.52 352.71 358.67 354.92 362.3Z" fill="#E6B39D"/>
<path d="M351.78 378.87L341.71 385C338.08 387.21 333.36 386.05 331.15 382.43L341.22 376.3C344.85 374.09 349.58 375.24 351.78 378.87Z" fill="#E6B39D"/>
<path d="M366.67 285.09C366.36 286.72 363.25 289 361.62 288.7C359.99 288.39 360.47 285.61 360.78 283.98C361.09 282.35 362.66 281.28 364.28 281.59C365.91 281.89 366.98 283.46 366.67 285.09Z" fill="#E66B36"/>
<path d="M346.04 403.58C345.73 405.21 345.37 405.12 344.61 404.97C343.85 404.83 342.98 404.68 343.29 403.06C343.6 401.43 344.46 400.23 345.22 400.37C345.98 400.52 346.34 401.95 346.04 403.58Z" fill="#E66B36"/>
<path d="M341.62 401.34C341.31 402.97 338.2 405.25 336.57 404.95C334.94 404.65 335.42 401.86 335.73 400.23C336.04 398.6 337.61 397.53 339.23 397.84C340.85 398.15 341.92 399.72 341.62 401.34Z" fill="#E66B36"/>
<path d="M354.61 368.3C354.3 369.93 351.19 372.21 349.56 371.91C347.93 371.6 348.41 368.82 348.72 367.19C349.03 365.56 350.6 364.49 352.22 364.8C353.85 365.11 354.92 366.67 354.61 368.3Z" fill="#E66B36"/>
<path d="M347.29 308.04C347.11 309.01 345.24 310.38 344.27 310.2C343.3 310.02 343.58 308.35 343.76 307.37C343.94 306.4 344.88 305.75 345.86 305.94C346.83 306.13 347.47 307.07 347.29 308.04Z" fill="#E66B36"/>
<path d="M364.18 320.93C364 321.9 362.13 323.27 361.16 323.09C360.19 322.91 360.47 321.24 360.65 320.26C360.83 319.29 361.77 318.64 362.75 318.83C363.73 319.01 364.37 319.95 364.18 320.93Z" fill="#E66B36"/>
<path d="M368.49 290.42C368.28 291.54 367.28 291.84 366.17 291.63C365.05 291.42 364.24 290.77 364.45 289.66C364.66 288.54 366.85 288.02 367.97 288.23C369.08 288.43 368.7 289.3 368.49 290.42Z" fill="#E66B36"/>
<path d="M341.93 408.52C341.72 409.64 340.72 409.94 339.61 409.73C338.49 409.52 337.68 408.87 337.89 407.76C338.1 406.64 340.29 406.12 341.41 406.33C342.52 406.54 342.14 407.41 341.93 408.52Z" fill="#E66B36"/>
<path d="M346.5 395.45C346.29 396.57 345.29 396.87 344.18 396.66C343.06 396.45 342.25 395.8 342.46 394.69C342.67 393.57 344.86 393.05 345.98 393.26C347.1 393.47 346.71 394.34 346.5 395.45Z" fill="#E66B36"/>
<path d="M337.89 374.64C337.68 375.76 336.68 376.06 335.57 375.85C334.45 375.64 333.64 374.99 333.85 373.88C334.06 372.76 336.25 372.24 337.37 372.45C338.49 372.66 338.1 373.53 337.89 374.64Z" fill="#E66B36"/>
<path d="M341.23 357.02C341.02 358.14 340.02 358.44 338.91 358.23C337.79 358.02 336.98 357.37 337.19 356.26C337.4 355.14 339.59 354.62 340.71 354.83C341.82 355.04 341.44 355.91 341.23 357.02Z" fill="#E66B36"/>
<path d="M358.68 322.18C358.47 323.3 357.47 323.6 356.36 323.39C355.24 323.18 354.43 322.53 354.64 321.42C354.85 320.3 357.04 319.78 358.16 319.99C359.28 320.2 358.9 321.07 358.68 322.18Z" fill="#E66B36"/>
<path d="M369.77 284.63C370.3 284.92 370.29 285.47 370 286C369.71 286.53 369.25 286.83 368.72 286.54C368.19 286.25 368.29 285.06 368.58 284.53C368.87 284 369.24 284.34 369.77 284.63Z" fill="#E66B36"/>
<path d="M348.12 398.01C348.65 398.3 348.64 398.85 348.35 399.38C348.06 399.91 347.6 400.21 347.07 399.92C346.54 399.63 346.64 398.44 346.93 397.91C347.22 397.38 347.59 397.72 348.12 398.01Z" fill="#E66B36"/>
<path d="M340.7 371.87C341.23 372.16 341.22 372.71 340.93 373.24C340.64 373.77 340.18 374.07 339.65 373.78C339.12 373.49 339.22 372.3 339.51 371.77C339.8 371.25 340.17 371.58 340.7 371.87Z" fill="#E66B36"/>
<path d="M368.67 278.98C369.31 279.33 369.29 279.99 368.94 280.63C368.59 281.26 368.04 281.63 367.4 281.28C366.77 280.93 366.88 279.5 367.23 278.86C367.59 278.22 368.04 278.63 368.67 278.98Z" fill="#E66B36"/>
<path d="M337.92 359.8C338.55 360.15 338.54 360.81 338.19 361.45C337.84 362.08 337.29 362.45 336.65 362.1C336.02 361.75 336.13 360.32 336.48 359.68C336.84 359.05 337.29 359.45 337.92 359.8Z" fill="#E66B36"/>
<path d="M360.94 324.34C361.47 324.63 361.46 325.18 361.17 325.71C360.88 326.24 360.42 326.54 359.89 326.25C359.36 325.96 359.46 324.77 359.75 324.24C360.04 323.71 360.42 324.05 360.94 324.34Z" fill="#E66B36"/>
<path d="M349.78 304.18C350.31 304.47 350.3 305.02 350.01 305.55C349.72 306.08 349.26 306.38 348.73 306.09C348.2 305.8 348.3 304.61 348.59 304.08C348.88 303.55 349.25 303.89 349.78 304.18Z" fill="#E66B36"/>
<path d="M357.62 398.92C340.12 434.44 317.73 423.41 335.24 387.89L381.27 294.48C394 268.66 416.38 279.69 403.65 305.51L357.62 398.92Z" fill="#E79C3A"/>
<path d="M399.01 308.89L387.67 312.1C383.59 313.26 379.34 310.88 378.18 306.8L389.52 303.59C393.6 302.43 397.85 304.81 399.01 308.89Z" fill="#E6BC9D"/>
<path d="M391.55 324.01L380.21 327.22C376.13 328.38 371.88 326 370.72 321.92L382.06 318.71C386.15 317.55 390.4 319.93 391.55 324.01Z" fill="#E6BC9D"/>
<path d="M384.1 339.13L372.76 342.34C368.68 343.5 364.43 341.12 363.27 337.04L374.61 333.83C378.7 332.68 382.94 335.05 384.1 339.13Z" fill="#E6BC9D"/>
<path d="M376.65 354.26L365.31 357.47C361.23 358.63 356.98 356.25 355.82 352.17L367.16 348.96C371.25 347.8 375.49 350.17 376.65 354.26Z" fill="#E6BC9D"/>
<path d="M369.2 369.38L357.86 372.59C353.78 373.75 349.53 371.37 348.37 367.29L359.71 364.08C363.79 362.92 368.04 365.3 369.2 369.38Z" fill="#E6BC9D"/>
<path d="M361.74 384.5L350.4 387.71C346.32 388.87 342.07 386.49 340.91 382.41L352.25 379.2C356.34 378.05 360.59 380.42 361.74 384.5Z" fill="#E6BC9D"/>
<path d="M401.17 298.13C400.44 299.62 396.83 300.99 395.34 300.25C393.86 299.52 395.06 296.96 395.79 295.48C396.52 293.99 398.32 293.38 399.8 294.12C401.3 294.85 401.91 296.64 401.17 298.13Z" fill="#E68134"/>
<path d="M349.6 406.78C348.87 408.26 348.55 408.08 347.85 407.74C347.16 407.4 346.36 407.03 347.09 405.54C347.82 404.05 348.98 403.13 349.67 403.47C350.36 403.81 350.33 405.3 349.6 406.78Z" fill="#E68134"/>
<path d="M345.93 403.44C345.2 404.93 341.59 406.3 340.1 405.56C338.61 404.83 339.82 402.27 340.55 400.79C341.28 399.3 343.08 398.69 344.56 399.43C346.06 400.16 346.67 401.96 345.93 403.44Z" fill="#E68134"/>
<path d="M367.29 375.08C366.56 376.57 362.95 377.94 361.46 377.2C359.97 376.47 361.18 373.91 361.91 372.43C362.64 370.94 364.44 370.33 365.92 371.07C367.42 371.8 368.03 373.6 367.29 375.08Z" fill="#E68134"/>
<path d="M376.36 315.06C375.92 315.95 373.76 316.77 372.87 316.33C371.98 315.89 372.7 314.36 373.14 313.47C373.58 312.58 374.66 312.21 375.55 312.65C376.43 313.09 376.8 314.17 376.36 315.06Z" fill="#E68134"/>
<path d="M389.19 331.99C388.75 332.88 386.59 333.7 385.7 333.26C384.81 332.82 385.53 331.29 385.97 330.4C386.41 329.51 387.49 329.14 388.37 329.58C389.26 330.03 389.63 331.1 389.19 331.99Z" fill="#E68134"/>
<path d="M401.5 303.75C401 304.77 399.96 304.8 398.94 304.29C397.92 303.79 397.31 302.95 397.81 301.93C398.31 300.91 400.57 300.99 401.58 301.5C402.6 302 402 302.73 401.5 303.75Z" fill="#E68134"/>
<path d="M344.31 410.44C343.81 411.46 342.77 411.49 341.75 410.98C340.73 410.48 340.12 409.64 340.62 408.62C341.12 407.6 343.38 407.68 344.39 408.19C345.42 408.69 344.82 409.42 344.31 410.44Z" fill="#E68134"/>
<path d="M352.22 399.08C351.72 400.1 350.68 400.13 349.66 399.62C348.64 399.12 348.03 398.28 348.53 397.26C349.03 396.24 351.29 396.32 352.3 396.83C353.32 397.33 352.72 398.06 352.22 399.08Z" fill="#E68134"/>
<path d="M349.49 376.72C348.99 377.74 347.95 377.77 346.93 377.26C345.91 376.76 345.3 375.92 345.8 374.9C346.3 373.88 348.56 373.96 349.57 374.47C350.59 374.97 349.99 375.7 349.49 376.72Z" fill="#E68134"/>
<path d="M357.42 360.64C356.92 361.66 355.88 361.69 354.86 361.18C353.84 360.68 353.23 359.84 353.73 358.82C354.23 357.8 356.49 357.88 357.5 358.39C358.52 358.88 357.92 359.62 357.42 360.64Z" fill="#E68134"/>
<path d="M383.56 331.74C383.06 332.76 382.02 332.79 381 332.28C379.98 331.78 379.37 330.94 379.87 329.92C380.37 328.9 382.63 328.98 383.64 329.49C384.66 329.98 384.06 330.72 383.56 331.74Z" fill="#E68134"/>
<path d="M404.28 298.51C404.71 298.93 404.55 299.46 404.13 299.89C403.71 300.32 403.18 300.49 402.75 300.07C402.32 299.65 402.73 298.53 403.15 298.09C403.58 297.67 403.85 298.09 404.28 298.51Z" fill="#E68134"/>
<path d="M353.1 401.97C353.53 402.39 353.37 402.92 352.95 403.35C352.53 403.78 352 403.95 351.57 403.53C351.14 403.11 351.55 401.99 351.97 401.55C352.39 401.13 352.66 401.55 353.1 401.97Z" fill="#E68134"/>
<path d="M352.93 374.8C353.36 375.22 353.2 375.75 352.78 376.18C352.36 376.61 351.83 376.78 351.4 376.36C350.97 375.94 351.38 374.82 351.8 374.38C352.23 373.96 352.5 374.38 352.93 374.8Z" fill="#E68134"/>
<path d="M404.74 292.77C405.26 293.28 405.07 293.91 404.56 294.43C404.05 294.95 403.42 295.15 402.9 294.65C402.38 294.14 402.88 292.79 403.39 292.28C403.9 291.76 404.22 292.27 404.74 292.77Z" fill="#E68134"/>
<path d="M353.49 362.43C354.01 362.94 353.82 363.57 353.31 364.09C352.8 364.61 352.17 364.81 351.65 364.31C351.13 363.8 351.63 362.45 352.14 361.94C352.65 361.41 352.97 361.92 353.49 362.43Z" fill="#E68134"/>
<path d="M385.16 334.42C385.59 334.84 385.43 335.37 385.01 335.8C384.59 336.23 384.06 336.4 383.63 335.98C383.2 335.56 383.61 334.44 384.03 334C384.46 333.57 384.73 334 385.16 334.42Z" fill="#E68134"/>
<path d="M379.8 312C380.23 312.42 380.07 312.95 379.65 313.38C379.23 313.81 378.7 313.98 378.27 313.56C377.84 313.14 378.25 312.02 378.67 311.58C379.09 311.16 379.36 311.58 379.8 312Z" fill="#E68134"/>
<path d="M393.91 331.7L392.03 342.44L390.3 352.26L388.78 360.94L371.39 459.99L279.77 443.9L284.74 415.6L297.16 344.85L300.41 326.35L302.29 315.61L306.44 325.61L313.74 317.62L317.89 327.62L325.19 319.64L329.34 329.63L336.64 321.64L340.79 331.65L348.09 323.65L352.24 333.65L359.55 325.67L363.69 335.66L371 327.68L375.15 337.68L382.46 329.68L386.6 339.69L393.91 331.7Z" fill="#C19371"/>
<path d="M390.3 352.26L388.78 360.94L371.39 459.99L279.77 443.9L284.74 415.6C287.59 411.48 291.18 407.87 298.13 405.1C305.8 402.04 323.46 387.92 336.79 379.07C345.23 373.48 381.04 361.14 388.2 354.14C388.83 353.52 389.56 352.89 390.3 352.26Z" fill="#BB806A"/>
<path d="M301.41 404.16C306.4 400.03 311.58 396.15 316.84 392.38C322.11 388.62 327.48 385 332.97 381.55C334.33 380.68 335.74 379.87 337.12 379.03C338.51 378.2 339.89 377.36 341.31 376.57L345.54 374.18L349.84 371.92C355.62 369.01 361.54 366.31 367.72 364.34L363.24 366.2C361.74 366.81 360.31 367.56 358.84 368.23C357.37 368.89 355.93 369.62 354.49 370.36C353.06 371.11 351.6 371.8 350.2 372.61C344.51 375.66 338.97 378.98 333.5 382.41C327.99 385.78 322.64 389.4 317.28 393.02C314.6 394.82 311.95 396.67 309.31 398.54C306.65 400.37 304.03 402.26 301.41 404.16Z" fill="#050402"/>
<path d="M424.89 348.46C424.89 348.46 432.46 380.92 430.17 390.26C424.53 413.35 348.89 439.61 348.89 439.61L328.92 406.73L424.89 348.46Z" fill="white"/>
<path d="M387.49 433.7L356.45 383.71" stroke="#050402" stroke-width="1.4974" stroke-miterlimit="10"/>
<path d="M396.37 427.49L365.33 377.5" stroke="#050402" stroke-width="1.4974" stroke-miterlimit="10"/>
<path d="M405.25 421.28L374.22 371.29" stroke="#050402" stroke-width="1.4974" stroke-miterlimit="10"/>
<path d="M414.13 415.08L383.1 365.09" stroke="#050402" stroke-width="1.4974" stroke-miterlimit="10"/>
<path d="M423.01 408.87L391.98 358.88" stroke="#050402" stroke-width="1.4974" stroke-miterlimit="10"/>
<path d="M431.89 402.66L400.86 352.67" stroke="#050402" stroke-width="1.4974" stroke-miterlimit="10"/>
<path d="M440.77 396.45L409.74 346.46" stroke="#050402" stroke-width="1.4974" stroke-miterlimit="10"/>
<defs>
<filter id="filter0_d" x="0.654785" y="106.329" width="217.427" height="88.166" filterUnits="userSpaceOnUse" color-interpolation-filters="sRGB">
<feFlood flood-opacity="0" result="BackgroundImageFix"/>
<feColorMatrix in="SourceAlpha" type="matrix" values="0 0 0 0 0 0 0 0 0 0 0 0 0 0 0 0 0 0 127 0" result="hardAlpha"/>
<feOffset dx="-2" dy="4"/>
<feGaussianBlur stdDeviation="7.5"/>
<feComposite in2="hardAlpha" operator="out"/>
<feColorMatrix type="matrix" values="0 0 0 0 0 0 0 0 0 0 0 0 0 0 0 0 0 0 0.15 0"/>
<feBlend mode="normal" in2="BackgroundImageFix" result="effect1_dropShadow"/>
<feBlend mode="normal" in="SourceGraphic" in2="effect1_dropShadow" result="shape"/>
</filter>
</defs>
</svg>
