<svg width="61" height="61" viewBox="0 0 61 61" fill="none" xmlns="http://www.w3.org/2000/svg">
<circle cx="30.5" cy="30.5" r="30.5" fill="#FFF1EF"/>
<g clip-path="url(#clip0)">
<path d="M19.4082 43.6643C19.1354 43.6643 18.9145 43.6662 18.6936 43.6643C16.3726 43.641 14.5574 42.148 14.0896 39.8642C14.0321 39.5831 14.0089 39.2909 14.008 39.0033C14.0005 37.2134 13.995 35.4234 14.007 33.6335C14.0219 31.4141 15.4613 29.5887 17.6078 29.0789C17.9911 28.9883 18.3966 28.9743 18.7929 28.965C19.514 28.9473 20.2351 28.9603 20.9775 28.9603C20.9775 28.8081 20.9886 28.6812 20.9757 28.5579C20.5283 24.0397 22.0383 20.2778 25.3625 17.2507C27.0663 15.698 29.0774 14.6868 31.3381 14.2666C35.9792 13.4029 40.0022 14.6541 43.332 18.0229C45.2642 19.9781 46.4354 22.3618 46.8381 25.0836C47.4144 28.9799 46.4567 32.4879 43.9575 35.528C42.0318 37.8707 39.5605 39.3516 36.6028 39.9902C35.2897 40.2741 33.9607 40.3525 32.6234 40.1779C32.5315 40.1657 32.4369 40.1723 32.3469 40.1527C32.1715 40.1135 32.1065 40.1928 32.0536 40.3525C31.4745 42.0882 30.2941 43.1816 28.5113 43.5392C27.8654 43.669 27.1814 43.6503 26.5179 43.6261C26.0028 43.6074 25.6659 43.7512 25.3309 44.1732C24.2442 45.5402 23.0081 46.7577 21.5046 47.6737C21.075 47.9351 20.6258 48.0752 20.1274 47.9641C19.153 47.7465 18.6361 46.7642 18.9414 45.7717C19.1057 45.2395 19.23 44.6942 19.3618 44.1527C19.3961 44.0089 19.3906 43.8586 19.4082 43.6643ZM32.2615 37.7792C32.8397 37.824 33.3928 37.9174 33.9422 37.9006C38.4329 37.7624 41.6346 35.6027 43.629 31.5859C43.6856 31.472 43.6782 31.2955 43.6373 31.1685C43.5121 30.7792 43.3441 30.4038 43.2169 30.0145C43.1613 29.8436 43.1344 29.6522 43.1464 29.4739C43.1835 28.9258 43.2457 28.3786 43.2977 27.8315C43.3181 27.6177 43.2392 27.472 43.0202 27.4141C42.5209 27.2815 42.0198 27.2302 41.5103 27.3572C41.1725 27.4421 41.1038 27.613 41.3052 27.9006C41.4927 28.1667 41.6978 28.4206 41.8778 28.6914C41.9381 28.7829 41.9873 28.922 41.9641 29.021C41.8917 29.3263 41.514 29.5495 41.1938 29.5112C40.7892 29.4627 40.3846 29.4029 39.9781 29.3749C39.8556 29.3665 39.6589 29.4104 39.6143 29.4944C39.4148 29.8688 39.1958 30.2526 39.1002 30.6597C38.9842 31.1545 38.9758 31.6756 38.9387 32.1872C38.8663 33.1732 38.4478 34.0266 37.9457 34.8474C37.7935 35.0957 37.6645 35.1032 37.4121 34.9417C36.8896 34.6083 36.4154 34.2339 36.2001 33.6139C36.149 33.4664 36.0637 33.3282 35.982 33.1928C35.8196 32.9249 35.7268 32.6447 35.7184 32.3245C35.7101 31.9809 35.6507 31.6382 35.6265 31.2946C35.6117 31.091 35.5291 30.9585 35.3509 30.8483C35.014 30.6401 34.6772 30.4757 34.2651 30.4823C33.97 30.4869 33.6749 30.4281 33.3798 30.4076C33.1515 30.3917 33.0067 30.2834 32.9111 30.0752C32.6986 29.6093 32.4545 29.1573 32.2615 28.684C32.191 28.5103 32.177 28.2806 32.2225 28.0985C32.3367 27.6485 32.5102 27.2134 32.642 26.7671C32.7023 26.5635 32.8211 26.4552 33.0169 26.402C33.3742 26.3049 33.7306 26.2031 34.0851 26.0948C34.7625 25.8866 35.4335 26.021 36.0785 26.1947C36.7244 26.3684 37.31 26.7026 37.748 27.2442C37.7889 27.2946 37.8408 27.3347 37.8891 27.3796C38.0339 27.515 38.1861 27.5262 38.3355 27.3926C38.5777 27.176 38.8348 26.9715 39.0473 26.7278C39.128 26.6345 39.1754 26.3842 39.1141 26.3142C38.8014 25.9585 38.6686 25.5262 38.5072 25.1004C38.4209 24.8716 38.2557 24.8333 38.0339 24.9342C37.9021 24.9949 37.761 25.035 37.62 25.0714C37.4427 25.1163 37.2079 25.0892 37.0947 25.1966C36.8488 25.43 36.6789 25.3497 36.4757 25.1695C36.1175 24.8511 35.7305 24.6858 35.2303 24.8483C34.7616 25.0005 34.5027 24.8735 34.2382 24.444C34.1268 24.2638 34.1575 24.1051 34.3589 24.0042C34.4331 23.9669 34.511 23.937 34.5871 23.9024C35.0855 23.6774 35.1347 23.6662 35.0196 23.1433C34.9008 22.6037 35.0874 22.3077 35.5272 22.0313C35.8344 21.838 36.0739 21.7839 36.3912 21.9641C36.5332 22.0444 36.7652 22.1265 36.8794 22.064C37.3165 21.8268 37.7109 21.9687 38.1387 22.0705C38.4905 22.1536 38.8691 22.1592 39.2329 22.1405C39.3563 22.134 39.5159 21.9743 39.579 21.8446C39.696 21.6046 39.7702 21.3394 39.8287 21.077C39.8575 20.9482 39.8584 20.739 39.7823 20.6784C39.6876 20.6027 39.4797 20.5897 39.3591 20.641C39.0111 20.7867 38.6621 20.7979 38.2974 20.7717C38.0793 20.7558 37.9411 20.6765 37.8557 20.4627C37.7434 20.1826 37.5717 20.1499 37.336 20.3432C37.1569 20.4907 37 20.6718 36.8061 20.7932C36.7031 20.8567 36.485 20.8866 36.4172 20.8231C36.2316 20.6522 36.0794 20.4496 36.1221 20.1424C36.2715 19.0518 36.3625 17.9575 36.2752 16.8539C36.2558 16.6037 36.1806 16.4981 35.9328 16.4561C34.137 16.1499 32.3691 16.2442 30.6346 16.8165C30.2838 16.9323 29.9442 17.0817 29.5312 17.2423C29.8087 17.3562 29.9999 17.4272 30.1845 17.5122C30.4082 17.6149 30.5706 17.7792 30.5855 18.0397C30.6384 18.9519 30.6922 19.8632 30.7302 20.7764C30.746 21.1452 30.5418 21.373 30.1808 21.4281C29.9247 21.4664 29.663 21.4739 29.4096 21.5234C29.1136 21.5812 28.9057 21.8333 28.8723 22.1284C28.8426 22.3936 28.9939 22.6298 29.2806 22.7605C29.3818 22.8063 29.4867 22.8427 29.5906 22.8838C30.0556 23.0658 30.1743 23.2591 30.1094 23.7643C29.9934 24.6699 29.8857 25.5775 29.7363 26.4776C29.702 26.6821 29.5544 26.9426 29.3827 27.0369C28.2375 27.6653 27.0422 28.1135 25.6975 27.8427C25.5973 27.8221 25.4952 27.8128 25.3959 27.7895C24.8743 27.6681 24.5755 28.0602 24.427 28.4356C24.2971 28.7624 24.4298 28.9192 24.7825 28.9192C25.7003 28.9192 26.6181 28.9202 27.5359 28.9192C30.2022 28.9155 32.2494 30.9529 32.2606 33.6298C32.2661 34.8884 32.2615 36.1471 32.2615 37.4057C32.2615 37.514 32.2615 37.6242 32.2615 37.7792ZM21.0731 45.655C21.0712 45.6559 21.1 45.6513 21.1214 45.6363C21.2123 45.5719 21.3033 45.5075 21.3905 45.4384C22.5468 44.5196 23.5426 43.4431 24.4131 42.2526C24.7064 41.852 25.0572 41.6755 25.5462 41.6896C26.2404 41.7092 26.9364 41.7045 27.6306 41.6886C27.896 41.683 28.1707 41.6522 28.4222 41.5719C29.6138 41.1919 30.3497 40.2302 30.3711 38.7596C30.3961 37.036 30.3887 35.3114 30.3739 33.5878C30.3599 32.0425 29.2166 30.8698 27.6816 30.8595C24.6609 30.8408 21.6401 30.8418 18.6194 30.8604C17.0844 30.8698 15.9401 32.0462 15.929 33.5887C15.916 35.3684 15.916 37.1489 15.9271 38.9286C15.9374 40.5327 17.1048 41.6877 18.6955 41.6942C19.2328 41.6961 19.7701 41.6914 20.3075 41.6952C20.9172 41.6998 21.319 42.0742 21.3645 42.6849C21.3812 42.9071 21.3877 43.134 21.3617 43.3544C21.2763 44.12 21.1724 44.8828 21.0731 45.655Z" fill="#F66757"/>
<path d="M32.2621 37.7788C32.2621 37.6238 32.2621 37.5146 32.2621 37.4044C32.2621 36.1458 32.2668 34.8871 32.2612 33.6285C32.2491 30.9516 30.2028 28.9142 27.5366 28.9179C26.6187 28.9189 25.7009 28.9179 24.7831 28.9179C24.4314 28.9179 24.2977 28.7611 24.4276 28.4343C24.5761 28.0599 24.875 27.6668 25.3965 27.7882C25.4958 27.8115 25.5979 27.8208 25.6981 27.8414C27.0428 28.1131 28.2382 27.664 29.3834 27.0356C29.555 26.9413 29.7026 26.6808 29.7369 26.4763C29.8863 25.5762 29.9931 24.6687 30.11 23.763C30.175 23.2578 30.0562 23.0645 29.5912 22.8825C29.4873 22.8414 29.3824 22.805 29.2813 22.7592C28.9936 22.6285 28.8423 22.3923 28.8729 22.1271C28.9063 21.8321 29.1142 21.5799 29.4103 21.5221C29.6636 21.4726 29.9253 21.4651 30.1815 21.4268C30.5425 21.3727 30.7466 21.1448 30.7309 20.7751C30.6919 19.8629 30.639 18.9506 30.5861 18.0384C30.5712 17.7779 30.4088 17.6145 30.1852 17.5109C30.0005 17.4259 29.8093 17.3549 29.5318 17.241C29.9448 17.0804 30.2845 16.931 30.6353 16.8152C32.3698 16.2429 34.1377 16.1486 35.9334 16.4548C36.1803 16.4969 36.2555 16.6024 36.2759 16.8526C36.3631 17.9572 36.2722 19.0505 36.1227 20.1411C36.081 20.4483 36.2323 20.6509 36.4179 20.8218C36.4865 20.8843 36.7046 20.8554 36.8067 20.7919C37.0007 20.6705 37.1575 20.4894 37.3366 20.3419C37.5723 20.1486 37.7431 20.1813 37.8563 20.4614C37.9426 20.6752 38.08 20.7546 38.2981 20.7704C38.6628 20.7975 39.0117 20.7854 39.3597 20.6397C39.4813 20.5893 39.6883 20.6014 39.7829 20.6771C39.8581 20.7377 39.8572 20.946 39.8293 21.0757C39.7718 21.3381 39.6966 21.6033 39.5797 21.8433C39.5166 21.9721 39.3569 22.1327 39.2335 22.1392C38.8697 22.157 38.4911 22.1523 38.1394 22.0692C37.7115 21.9674 37.3162 21.8264 36.88 22.0627C36.7659 22.1243 36.5339 22.0431 36.3919 21.9628C36.0754 21.7826 35.8351 21.8367 35.5279 22.03C35.088 22.3064 34.9024 22.6024 35.0202 23.142C35.1353 23.6649 35.0852 23.6761 34.5878 23.9011C34.5117 23.9357 34.4337 23.9656 34.3595 24.0029C34.1581 24.1038 34.1275 24.2625 34.2388 24.4427C34.5033 24.8722 34.7622 24.9992 35.2309 24.847C35.7311 24.6845 36.1172 24.8498 36.4763 25.1682C36.6805 25.3484 36.8494 25.4296 37.0953 25.1953C37.2085 25.0879 37.4443 25.115 37.6206 25.0701C37.7617 25.0347 37.9027 24.9936 38.0345 24.9329C38.2563 24.8311 38.4215 24.8703 38.5078 25.0991C38.6693 25.5249 38.802 25.9572 39.1147 26.3129C39.176 26.382 39.1286 26.6332 39.0479 26.7265C38.8354 26.9702 38.5783 27.1747 38.3361 27.3913C38.1867 27.5249 38.0345 27.5137 37.8897 27.3783C37.8424 27.3344 37.7895 27.2933 37.7487 27.2429C37.3116 26.7013 36.725 26.3671 36.0791 26.1934C35.4341 26.0197 34.7622 25.8853 34.0857 26.0935C33.7312 26.2027 33.3748 26.3036 33.0175 26.4007C32.8217 26.4539 32.7029 26.5613 32.6426 26.7658C32.5108 27.2121 32.3373 27.6462 32.2231 28.0972C32.1767 28.2793 32.1907 28.509 32.2621 28.6827C32.4551 29.156 32.6992 29.608 32.9117 30.0739C33.0073 30.283 33.1521 30.3913 33.3804 30.4063C33.6764 30.4268 33.9716 30.4856 34.2657 30.481C34.6778 30.4744 35.0147 30.6378 35.3515 30.847C35.5297 30.9572 35.6123 31.0897 35.6272 31.2933C35.6513 31.6369 35.7107 31.9796 35.719 32.3232C35.7274 32.6434 35.8202 32.9235 35.9826 33.1915C36.0643 33.3269 36.1487 33.4642 36.2007 33.6126C36.416 34.2326 36.8902 34.607 37.4127 34.9404C37.6661 35.1019 37.7941 35.0944 37.9463 34.8461C38.4484 34.0253 38.8669 33.1719 38.9393 32.1859C38.9765 31.6752 38.9857 31.1532 39.1008 30.6584C39.1964 30.2503 39.4145 29.8675 39.6149 29.4931C39.6595 29.4091 39.8572 29.3652 39.9787 29.3736C40.3852 29.4016 40.7889 29.4604 41.1945 29.5099C41.5146 29.5482 41.8923 29.325 41.9647 29.0197C41.9879 28.9207 41.9387 28.7807 41.8784 28.6901C41.6993 28.4184 41.4933 28.1654 41.3058 27.8993C41.1044 27.6126 41.1731 27.4408 41.5109 27.3559C42.0195 27.2279 42.5206 27.2802 43.0208 27.4128C43.2389 27.4707 43.3178 27.6164 43.2983 27.8302C43.2463 28.3773 43.1842 28.9245 43.147 29.4726C43.135 29.6509 43.1619 29.8433 43.2176 30.0132C43.3447 30.4016 43.5127 30.7779 43.638 31.1672C43.6788 31.2942 43.6862 31.4707 43.6296 31.5846C41.6353 35.6014 38.4335 37.7601 33.9428 37.8993C33.3934 37.917 32.8403 37.8227 32.2621 37.7788Z" fill="#F6CAC9"/>
<path d="M21.0735 45.6546C21.1728 44.8824 21.2768 44.1196 21.3649 43.3548C21.39 43.1345 21.3844 42.9076 21.3677 42.6854C21.3223 42.0747 20.9195 41.7003 20.3107 41.6956C19.7734 41.691 19.236 41.6966 18.6987 41.6947C17.108 41.6882 15.9406 40.5322 15.9304 38.9291C15.9183 37.1494 15.9192 35.3689 15.9322 33.5892C15.9434 32.0467 17.0876 30.8712 18.6226 30.8609C21.6434 30.8422 24.6641 30.8413 27.6849 30.86C29.2189 30.8693 30.3632 32.043 30.3771 33.5883C30.3919 35.3119 30.3994 37.0365 30.3743 38.7601C30.353 40.2316 29.617 41.1933 28.4254 41.5724C28.1739 41.6527 27.8983 41.6826 27.6338 41.6891C26.9397 41.705 26.2436 41.7097 25.5495 41.69C25.0604 41.676 24.7096 41.8525 24.4163 42.2531C23.5449 43.4435 22.5491 44.5192 21.3937 45.4389C21.3065 45.508 21.2155 45.5724 21.1246 45.6368C21.1014 45.6508 21.0726 45.6546 21.0735 45.6546ZM23.1802 33.4361V33.437C21.957 33.437 20.7339 33.4286 19.5107 33.4407C18.9688 33.4464 18.5734 33.8553 18.5651 34.3754C18.5558 34.902 18.9289 35.3063 19.4708 35.3539C19.572 35.3632 19.6741 35.3623 19.7761 35.3623C21.6202 35.3632 23.4642 35.3632 25.3082 35.3623C25.7898 35.3623 26.2715 35.3661 26.754 35.3595C27.1698 35.353 27.489 35.17 27.6617 34.7816C27.9466 34.1401 27.4928 33.4473 26.767 33.4389C25.5708 33.4258 24.3755 33.4361 23.1802 33.4361ZM23.1728 37.0831C21.9682 37.0831 20.7636 37.0785 19.559 37.085C18.9279 37.0887 18.4769 37.6088 18.5734 38.2008C18.6532 38.6938 19.0486 39.0112 19.6156 39.014C20.7645 39.0206 21.9134 39.0168 23.0633 39.0168C24.2678 39.0168 25.4724 39.0159 26.677 39.0159C27.0983 39.0159 27.4426 38.8721 27.6394 38.4772C27.9642 37.8254 27.5067 37.0934 26.7587 37.0869C25.5643 37.0766 24.3681 37.0841 23.1728 37.0831Z" fill="#F6CAC9"/>
<path d="M23.1806 33.4361C24.3759 33.4361 25.5713 33.4268 26.7666 33.4398C27.4923 33.4482 27.9461 34.1401 27.6612 34.7825C27.4886 35.1718 27.1693 35.3549 26.7536 35.3605C26.2719 35.3679 25.7903 35.3633 25.3077 35.3633C23.4637 35.3633 21.6197 35.3633 19.7757 35.3633C19.6736 35.3633 19.5715 35.3642 19.4704 35.3549C18.9284 35.3072 18.5562 34.9029 18.5646 34.3763C18.5739 33.8563 18.9683 33.4464 19.5103 33.4417C20.7334 33.4305 21.9566 33.438 23.1797 33.438C23.1806 33.437 23.1806 33.4361 23.1806 33.4361Z" fill="#F66757"/>
<path d="M23.1727 37.0839C24.368 37.0839 25.5633 37.0765 26.7586 37.0867C27.5066 37.0933 27.9641 37.8253 27.6393 38.477C27.4426 38.872 27.0974 39.0158 26.677 39.0158C25.4724 39.0158 24.2678 39.0167 23.0632 39.0167C21.9143 39.0167 20.7654 39.0195 19.6155 39.0139C19.0485 39.0111 18.6532 38.6936 18.5734 38.2006C18.4778 37.6077 18.9279 37.0877 19.5589 37.0849C20.7635 37.0793 21.9681 37.083 23.1727 37.0839Z" fill="#F66757"/>
</g>
<defs>
<clipPath id="clip0">
<rect width="33" height="34" fill="white" transform="translate(14 14)"/>
</clipPath>
</defs>
</svg>
