<svg width="640" height="592" viewBox="0 0 640 592" fill="none" xmlns="http://www.w3.org/2000/svg">
<circle cx="353.5" cy="254.5" r="201.5" fill="#FFE566"/>
<g clip-path="url(#clip0)">
<path d="M636.748 448.178C630.911 450.287 458.332 453.674 451.828 449.732C451.078 449.344 448.27 392.306 448.27 392.306C448.465 391.501 445.602 386.006 441.183 378.373C428.87 356.918 404.827 318.532 404.827 318.532L507.251 287.612L549.333 371.795L560.062 393.278C560.062 393.278 583.576 402.465 604.117 411.624C604.144 411.652 604.172 411.652 604.172 411.679C616.819 417.286 627.826 422.449 630.383 424.364C636.97 429.36 642.557 446.124 636.748 448.178Z" fill="#EFBDB7"/>
<path d="M636.748 448.179C630.911 450.288 458.332 453.674 451.828 449.733C451.078 449.344 448.271 392.307 448.271 392.307C448.465 391.502 445.602 386.006 441.183 378.373L549.333 371.768L560.062 393.25C560.062 393.25 583.576 402.437 604.117 411.597C604.144 411.625 604.172 411.625 604.172 411.652C616.819 417.259 627.826 422.421 630.383 424.337C636.97 429.36 642.557 446.125 636.748 448.179Z" fill="white"/>
<path d="M637.47 448.817C631.467 450.927 458.638 453.897 451.967 449.844C449.438 448.318 446.38 421.756 448.243 392.279L559.672 390.503C559.672 390.503 624.212 418.98 631.022 424.198C637.832 429.444 643.474 446.68 637.47 448.817Z" fill="#73EEFF"/>
<path opacity="0.1" d="M497.189 451.814C472.591 451.703 454.08 451.12 451.967 449.871C449.438 448.345 446.38 421.783 448.243 392.306L450.967 392.251L497.189 451.814Z" fill="black"/>
<path d="M634.857 441.963C605.867 441.741 488.962 443.628 460.278 445.599C460.055 445.627 460.055 445.766 460.278 445.793C488.99 446.626 605.895 443.823 634.857 442.435C635.497 442.407 635.469 441.963 634.857 441.963Z" fill="#263238"/>
<path d="M619.82 418.204C612.955 418.038 606.284 421.424 602.615 425.559C599.086 429.556 596.111 435.107 596.417 441.102C596.417 441.269 596.751 441.269 596.779 441.102C598.252 429.75 608.369 419.62 619.848 418.565C620.043 418.537 620.043 418.204 619.82 418.204Z" fill="#263238"/>
<path d="M568.817 393.279C557.226 393.307 543.857 397.636 536.797 407.24C536.519 407.601 537.047 407.989 537.409 407.823C547.804 402.244 557.699 398.053 569.039 394.722C569.845 394.445 569.651 393.251 568.817 393.279Z" fill="#263238"/>
<path d="M577.822 396.61C566.232 396.638 552.863 400.967 545.803 410.571C545.525 410.932 546.053 411.32 546.414 411.154C556.809 405.575 566.704 401.384 578.045 398.053C578.851 397.776 578.656 396.582 577.822 396.61Z" fill="#263238"/>
<path d="M586.828 399.941C575.237 399.969 561.868 404.299 554.808 413.902C554.53 414.263 555.058 414.651 555.42 414.485C565.815 408.906 575.71 404.715 587.05 401.384C587.856 401.107 587.662 399.913 586.828 399.941Z" fill="#263238"/>
<path d="M595.861 403.271C584.271 403.299 570.901 407.629 563.842 417.233C563.564 417.593 564.092 417.982 564.453 417.815C574.848 412.237 584.743 408.045 596.084 404.715C596.862 404.437 596.667 403.271 595.861 403.271Z" fill="#263238"/>
<path d="M467.199 417.982C454.191 418.232 454.58 438.438 467.616 438.16C480.624 437.91 480.235 417.732 467.199 417.982Z" fill="#263238"/>
<path d="M580.824 362.164C574.876 357.418 567.566 362.275 564.036 367.382C558.31 375.653 554.475 387.172 554.002 397.164C554.002 397.414 554.169 397.497 554.364 397.497C554.614 398.329 555.614 398.996 556.476 398.385C564.62 392.529 574.07 387.311 580.213 379.123C583.743 374.376 586.439 366.66 580.824 362.164ZM567.01 387.005C563.063 389.975 559.005 392.723 555.17 395.859C557.143 390.058 558.839 384.202 561.396 378.595C562.619 375.931 563.925 373.211 565.509 370.713C567.955 366.855 579.184 356.974 580.546 369.547C581.297 376.486 571.708 383.452 567.01 387.005Z" fill="#263238"/>
<path d="M525.262 401.966C535.38 403.354 545.747 400.301 555.642 398.58C556.67 398.413 556.893 397.22 556.476 396.443C556.615 396.332 556.698 396.11 556.504 395.943C549.027 389.282 538.131 383.925 528.208 382.176C522.094 381.094 513.477 382.898 512.699 390.475C511.948 397.664 519.342 401.161 525.262 401.966ZM518.147 395.471C510.142 385.674 525.04 384.619 529.515 385.59C532.405 386.201 535.241 387.2 538.02 388.199C543.801 390.309 549.194 393.195 554.725 395.86C549.805 396.415 544.997 397.359 540.105 398.08C534.268 398.968 522.566 400.884 518.147 395.471Z" fill="#263238"/>
<path d="M433.373 377.235L554.892 358.833C554.892 358.833 496.467 242.565 460.306 179.477C440.21 144.394 385.204 142.673 358.438 184.723C322.693 240.872 294.982 293.469 279.083 322.64L251.51 324.999L257.459 369.963L349.071 390.447C384.176 394.638 408.802 332.243 409.358 333.298C413.833 341.542 433.373 377.235 433.373 377.235Z" fill="#37474F"/>
<path d="M410.053 333.604C406.606 326.526 403.91 319.032 400.825 311.788C397.851 304.794 394.877 297.772 391.903 290.777C385.954 276.594 379.756 262.494 373.975 248.228C370.723 240.234 367.749 232.13 364.719 224.053C364.636 223.859 364.358 223.942 364.413 224.136C366.748 231.769 369.194 239.374 371.751 246.951C371.084 245.647 370.389 244.342 369.694 243.066C367.749 239.568 365.72 236.127 363.719 232.685C363.635 232.546 363.441 232.685 363.524 232.824C365.386 236.293 367.249 239.735 369.194 243.149C370.167 244.842 371.223 246.535 372.224 248.228C379.423 269.433 387.594 290.278 397.434 310.4C401.297 318.311 405.828 325.916 409.691 333.798C409.803 334.104 410.164 333.854 410.053 333.604Z" fill="#263238"/>
<path d="M436.096 355.67C430.232 346.649 416.279 319.31 411.275 309.873C401.158 290.777 391.902 271.265 383.175 251.503C378.227 240.345 373.613 229.077 369.027 217.752C368.999 217.669 368.888 217.697 368.916 217.78C375.809 238.18 384.009 258.137 392.903 277.732C401.825 297.355 430.565 350.174 435.735 355.892C435.902 356.114 436.235 355.892 436.096 355.67Z" fill="#263238"/>
<path d="M360.661 232.824C350.182 251.503 339.481 270.044 328.975 288.695C323.666 298.132 318.357 307.541 313.076 317.006C310.602 321.447 308.212 325.943 305.627 330.356C303.209 334.52 300.29 337.961 296.01 340.293C291.313 342.874 285.893 344.095 280.778 345.594C274.858 347.315 268.993 349.175 263.045 350.812C262.767 350.896 262.906 351.312 263.184 351.229C268.493 349.813 273.83 348.592 279.139 347.287C283.975 346.094 288.95 345.095 293.62 343.374C297.872 341.82 301.541 339.516 304.349 335.963C307.378 332.161 309.546 327.664 311.881 323.418C322.387 304.239 332.783 285.004 343.095 265.714C348.959 254.75 354.769 243.759 360.717 232.851C360.772 232.824 360.689 232.768 360.661 232.824Z" fill="#263238"/>
<path d="M430.621 360.222C437.903 358.89 445.352 358.279 452.69 357.335C460.056 356.392 467.421 355.448 474.787 354.477C489.463 352.561 539.466 344.623 543.246 343.374C543.496 343.291 543.413 342.902 543.162 342.902C539.577 342.791 506.862 347.149 499.497 348.232C484.821 350.396 470.229 352.978 455.581 355.448C451.411 356.142 447.242 356.947 443.073 357.696C438.904 358.446 434.735 359.334 430.538 359.861C430.287 359.861 430.371 360.25 430.621 360.222Z" fill="#263238"/>
<path d="M503.499 486.23C501.554 480.346 397.378 342.9 390.263 340.264C389.457 339.903 342.872 373.015 342.872 373.015C340.955 375.569 252.428 356.889 252.428 356.889L251.538 463.526L412.777 460.112C412.777 460.112 434.568 472.907 454.469 483.316C454.497 483.316 454.525 483.343 454.525 483.316C466.782 489.755 477.65 495.195 480.735 496C488.851 498.054 505.473 492.059 503.499 486.23Z" fill="#EFBDB7"/>
<path d="M480.791 496C477.678 495.195 466.838 489.755 454.58 483.288C454.552 483.316 454.524 483.288 454.497 483.288C434.595 472.88 412.804 460.084 412.804 460.084L376.921 460.861L320.748 370.323C333.088 372.516 342.289 373.82 342.9 372.987C342.9 372.987 389.457 339.903 390.263 340.264C397.378 342.9 501.553 480.346 503.499 486.23C505.472 492.059 488.851 498.082 480.791 496Z" fill="white"/>
<path d="M504.444 486.397C502.388 480.374 397.74 343.012 390.43 340.292C387.65 339.237 364.886 353.309 342.873 372.988L410.442 461.472C410.442 461.472 472.786 494.446 481.124 496.583C489.435 498.693 506.501 492.42 504.444 486.397Z" fill="#73EEFF"/>
<path d="M497.44 488.617C479.318 466.024 408.441 373.155 392.236 349.451C392.097 349.257 392.236 349.174 392.375 349.34C410.803 371.35 480.958 464.775 497.801 488.34C498.163 488.839 497.829 489.089 497.44 488.617Z" fill="#263238"/>
<path d="M469.451 491.504C465.059 486.203 463.586 478.903 464.586 473.463C465.531 468.218 468.061 462.444 472.98 458.975C473.119 458.864 473.314 459.114 473.203 459.253C465.17 467.413 463.502 481.651 469.756 491.31C469.867 491.477 469.59 491.699 469.451 491.504Z" fill="#263238"/>
<path d="M418.252 466.94C411.109 457.809 406.217 444.652 409.413 433.189C409.525 432.745 410.164 432.94 410.247 433.3C412.304 444.902 415.111 455.255 419.531 466.219C419.837 467.023 418.78 467.606 418.252 466.94Z" fill="#263238"/>
<path d="M426.452 471.965C419.308 462.833 414.416 449.677 417.613 438.214C417.724 437.77 418.363 437.964 418.447 438.325C420.503 449.927 423.311 460.279 427.73 471.243C428.036 472.02 426.98 472.603 426.452 471.965Z" fill="#263238"/>
<path d="M434.651 476.961C427.508 467.829 422.616 454.673 425.812 443.21C425.923 442.766 426.563 442.96 426.646 443.321C428.703 454.923 431.51 465.276 435.93 476.239C436.208 477.016 435.179 477.627 434.651 476.961Z" fill="#263238"/>
<path d="M442.851 481.956C435.708 472.824 430.816 459.668 434.012 448.205C434.123 447.761 434.763 447.955 434.846 448.316C436.903 459.918 439.71 470.271 444.129 481.234C444.407 482.039 443.351 482.622 442.851 481.956Z" fill="#263238"/>
<path d="M374.809 371.96C366.971 361.608 383.092 349.395 390.93 359.776C398.796 370.156 382.675 382.341 374.809 371.96Z" fill="#263238"/>
<path d="M414.194 484.621C416.835 474.767 415.111 464.109 414.639 454.09C414.583 453.063 413.444 452.702 412.638 453.007C412.527 452.841 412.332 452.757 412.165 452.924C404.605 459.474 397.906 469.633 394.932 479.236C393.098 485.176 393.793 493.919 401.214 495.639C408.246 497.249 412.638 490.366 414.194 484.621ZM406.856 490.838C396.128 497.555 396.934 482.65 398.462 478.32C399.435 475.545 400.769 472.824 402.131 470.215C404.966 464.748 408.496 459.779 411.859 454.645C411.776 459.585 412.137 464.47 412.221 469.411C412.332 475.295 412.777 487.146 406.856 490.838Z" fill="#263238"/>
<path d="M381.34 424.641C375.865 429.943 379.784 437.798 384.426 441.933C391.93 448.65 402.909 453.868 412.776 455.617C413.027 455.672 413.138 455.478 413.138 455.284C413.999 455.117 414.778 454.229 414.305 453.313C409.524 444.487 405.494 434.495 398.156 427.389C393.848 423.281 386.51 419.645 381.34 424.641ZM404.299 441.434C406.745 445.708 408.996 450.093 411.609 454.284C406.078 451.592 400.491 449.177 395.238 445.93C392.736 444.376 390.179 442.738 387.928 440.878C384.398 437.964 376.004 425.613 388.65 425.835C395.627 425.946 401.353 436.354 404.299 441.434Z" fill="#263238"/>
<path d="M298.706 332.243C298.706 332.243 122.014 301.268 71.7611 311.454C1.63451 325.638 -11.2345 408.404 40.7697 439.269C106.644 478.348 371.946 470.771 371.946 470.771L308.574 363.524C308.574 363.524 211.097 343.04 122.709 346.01L299.457 372.961L298.706 332.243Z" fill="#37474F"/>
<path d="M312.799 370.435C312.715 370.296 312.715 370.046 312.66 369.88C312.632 369.741 312.576 369.575 312.548 369.436C312.465 369.075 312.382 368.742 312.271 368.409C312.076 367.687 311.798 366.993 311.548 366.299C311.27 365.606 310.964 364.939 310.658 364.246C310.325 363.552 309.88 362.997 309.463 362.358C309.408 362.303 309.352 362.275 309.296 362.247C309.269 362.219 309.213 362.192 309.185 362.164C309.13 362.136 309.074 362.108 309.019 362.108C308.963 362.081 308.935 362.053 308.852 362.053C298.123 360.054 225.3 349.646 214.46 348.425C203.537 347.176 192.586 346.177 181.634 345.261C159.788 343.429 137.83 342.513 115.9 342.902C113.843 342.929 111.786 343.013 109.729 343.096C109.284 342.957 108.84 342.874 108.367 342.763C107.311 342.513 106.282 342.263 105.198 342.041C103.225 341.653 101.224 341.375 99.2504 341.07C95.1089 340.431 90.9397 339.987 86.826 339.238C86.5759 339.182 86.4647 339.571 86.7427 339.626C90.8841 340.542 94.9699 341.736 99.1114 342.652C100.307 342.902 101.502 343.179 102.697 343.401C94.6642 343.817 86.6315 344.456 78.5987 345.178C78.3486 345.205 78.3486 345.594 78.5987 345.566C89.5221 344.928 100.501 344.844 111.452 345.039C122.32 345.233 133.16 345.455 144 346.093C165.93 347.342 187.833 349.313 209.68 351.589C221.937 352.866 296.205 363.69 308.518 364.218C308.574 364.218 308.629 364.19 308.657 364.19C308.768 364.468 308.852 364.745 308.991 365.023C309.324 365.689 309.658 366.355 310.019 366.993C310.38 367.632 310.714 368.242 311.131 368.853C311.325 369.158 311.52 369.436 311.742 369.741C311.854 369.88 311.937 370.046 312.048 370.185C312.132 370.324 312.326 370.491 312.382 370.657C312.521 370.879 312.938 370.685 312.799 370.435Z" fill="#263238"/>
<path d="M349.071 464.249C345.152 457.976 341.817 451.287 338.203 444.82C334.59 438.325 331.004 431.858 327.391 425.391C320.192 412.485 294.315 369.02 291.758 365.994C291.591 365.8 291.258 366.022 291.341 366.244C292.564 369.603 308.713 398.357 312.437 404.797C319.886 417.62 327.697 430.193 335.396 442.877C337.592 446.485 339.871 450.066 342.094 453.674C344.318 457.255 346.681 460.807 348.737 464.499C348.849 464.693 349.21 464.471 349.071 464.249Z" fill="#263238"/>
<path d="M291.007 376.792C284.531 375.237 277.916 374.238 271.384 372.989C264.824 371.74 258.293 370.519 251.733 369.298C238.614 366.855 225.495 364.524 212.348 362.331C186.109 357.918 159.788 354.254 133.299 351.728C118.345 350.285 103.364 349.341 88.4102 348.259C88.1045 348.231 88.1045 348.731 88.4102 348.759C115.093 349.952 141.721 353.56 168.126 357.363C194.281 361.11 220.353 365.245 246.424 369.631C253.79 370.88 261.128 372.129 268.493 373.405C275.942 374.682 283.419 376.292 290.924 377.236C291.202 377.263 291.313 376.875 291.007 376.792Z" fill="#263238"/>
<path d="M269.077 166.819C274.192 198.655 301.319 297.52 330.087 308.067C348.988 314.978 447.493 309.316 463.614 292.58C470.646 285.28 462.141 223.052 451.328 223.829C440.516 224.634 363.858 237.54 356.409 234.237C349.015 230.935 313.966 166.098 295.01 141.812C265.797 104.342 265.075 141.784 269.077 166.819Z" fill="#EFBDB7"/>
<path d="M280.557 226.3L334.784 194.715C334.784 194.715 312.66 159.715 294.76 139.009C276.86 118.276 261.573 113.446 266.048 156.134C270.328 197.379 280.557 226.3 280.557 226.3Z" fill="#263238"/>
<path d="M311.937 330.828C309.018 333.215 145.418 316.478 144.723 315.34C142.833 312.26 176.937 211.535 198.951 174.148C227.19 126.214 240.032 123.217 247.731 121.107C257.57 118.415 273.691 120.552 281.085 125.881C285.198 128.851 296.261 152.998 300.041 172.122C307.573 210.48 314.466 328.719 311.937 330.828Z" fill="#73EEFF"/>
<path d="M277.026 148.697C267.687 150.945 251.594 136.762 245.229 125.244C244.784 124.439 245.979 116.112 246.924 105.898C247.48 99.7085 247.953 92.7696 247.925 86.4414C247.925 85.1369 287.811 95.9338 287.811 95.9338C287.811 95.9338 283.947 109.256 284.058 120.303C284.086 121.219 284.17 122.079 284.336 122.912C284.364 123.023 284.392 123.19 284.392 123.356C285.226 128.269 286.032 146.532 277.026 148.697Z" fill="#EFBDB7"/>
<path d="M250.371 86.5811C252.261 97.2947 259.071 123.191 280.306 123.579C281.779 123.607 283.141 123.524 284.392 123.329C284.392 123.163 284.364 123.024 284.336 122.885C284.17 122.053 284.059 121.22 284.031 120.304C283.92 109.23 287.783 95.9069 287.783 95.9069C287.783 95.9069 259.015 88.1354 250.371 86.5811Z" fill="#263238"/>
<path d="M250.037 33.8449C243.033 46.8345 242.338 88.2458 250.399 99.1259C262.1 114.891 285.226 120.803 299.651 105.871C313.632 91.3821 313.604 37.3976 304.238 27.1003C290.396 11.9181 260.377 14.6659 250.037 33.8449Z" fill="#EFBDB7"/>
<path d="M281.529 70.8677C281.501 70.7566 281.307 71.0064 281.307 71.1175C281.334 73.9208 280.89 77.1127 278.333 77.9731C278.249 78.0008 278.249 78.1396 278.36 78.1396C281.446 77.751 282.002 73.5044 281.529 70.8677Z" fill="#263238"/>
<path d="M279.083 67.8987C274.608 67.4546 274.052 76.4474 278.194 76.8638C282.307 77.2523 282.863 68.2596 279.083 67.8987Z" fill="#263238"/>
<path d="M297.122 71.897C297.15 71.7859 297.344 72.0357 297.316 72.1468C297.066 74.9223 297.233 78.1419 299.707 79.2244C299.79 79.2522 299.762 79.3909 299.679 79.3909C296.622 78.7803 296.427 74.4782 297.122 71.897Z" fill="#263238"/>
<path d="M299.79 69.1487C304.292 69.0932 304.098 78.086 299.929 78.1415C295.815 78.197 296.01 69.2042 299.79 69.1487Z" fill="#263238"/>
<path d="M275.386 60.5168C276.665 60.5168 277.832 60.2947 279.083 60.156C280.501 59.9894 281.64 60.0172 282.78 59.0735C283.391 58.5739 283.475 57.4082 283.03 56.7698C282.002 55.2987 280.223 55.0489 278.499 55.1877C276.637 55.3265 275.247 55.8816 273.913 57.1584C272.579 58.3519 273.719 60.5445 275.386 60.5168Z" fill="#263238"/>
<path d="M304.321 62.8206C303.098 62.5431 301.986 62.0712 300.791 61.6827C299.457 61.2386 298.317 61.0165 297.428 59.823C296.955 59.1847 297.122 58.0467 297.678 57.5193C299.012 56.2981 300.791 56.4369 302.431 56.9087C304.21 57.4361 305.46 58.2965 306.516 59.823C307.545 61.2941 305.961 63.2092 304.321 62.8206Z" fill="#263238"/>
<path d="M275.275 96.4595C275.914 97.1533 276.526 98.097 277.526 98.2358C278.499 98.3746 279.667 98.0138 280.556 97.7084C280.639 97.6807 280.723 97.7917 280.667 97.8472C279.889 98.8742 278.305 99.457 277.026 99.1517C275.775 98.8464 275.219 97.7362 274.969 96.5427C274.969 96.4039 275.192 96.3484 275.275 96.4595Z" fill="#263238"/>
<path d="M278.722 88.3C280.139 90.8257 282.363 92.269 284.809 92.9074C285.893 93.185 287.06 93.296 288.228 93.2682C288.45 93.2682 288.672 93.2682 288.895 93.2405C289.089 93.2405 289.284 93.2127 289.506 93.185C289.84 93.1572 290.034 92.9074 290.118 92.6021V92.5743C290.118 92.4633 290.118 92.38 290.118 92.2968C290.118 92.2968 290.118 92.2968 290.118 92.269V92.0192C290.312 89.882 290.284 86.6069 290.284 86.6069C291.035 87.051 294.926 89.0771 294.954 87.9669C294.954 78.6688 294.982 68.316 293.036 59.0457C292.981 58.7403 292.508 58.7681 292.536 59.0734C292.175 68.0107 293.37 76.9757 293.147 85.9685C291.897 85.4134 289.868 84.3864 288.756 84.3309C288.45 84.4142 288.895 90.6592 288.728 91.6029C288.728 91.6029 288.728 91.6306 288.7 91.7139C285.059 91.9637 282.419 90.687 279.055 88.0779C278.805 87.8836 278.583 88.0779 278.722 88.3Z" fill="#263238"/>
<path d="M287.005 92.1026C287.005 92.1026 284.948 94.5451 282.28 95.3222C281.307 95.5998 280.251 95.683 279.194 95.3222C276.999 94.6006 277.082 92.5467 277.582 90.8258C277.999 89.4103 278.75 88.2168 278.75 88.2168C278.75 88.2168 281.807 91.4642 287.005 92.1026Z" fill="#263238"/>
<path d="M282.28 95.3226C281.307 95.6001 280.251 95.6834 279.194 95.3226C276.999 94.6009 277.082 92.547 277.582 90.8262C279.973 91.2147 282.224 92.9911 282.28 95.3226Z" fill="#FF98B9"/>
<path d="M246.202 70.9812C254.79 73.4514 263.574 36.3978 263.574 36.3978C263.574 36.3978 271.162 43.0313 278.249 45.6126C285.337 48.1939 294.065 49.5816 295.371 49.5816C296.677 49.5816 283.391 39.4509 283.391 39.4509C283.391 39.4509 296.844 45.3351 309.268 44.6134C315.911 44.2248 315.55 41.3938 315.828 39.2288C316.078 37.0639 307.656 14.6652 280.751 12.0839C262.601 10.3353 252.261 24.8237 252.261 24.8237C252.261 24.8237 239.892 33.1781 238.614 39.3121C236.835 47.611 237.085 68.3721 246.202 70.9812Z" fill="#263238"/>
<path d="M295.566 73.1743C296.01 66.8738 299.79 61.9611 303.96 62.2664C308.129 62.5717 311.186 67.9286 310.714 74.2568C310.269 80.5573 306.489 85.47 302.32 85.1647C298.15 84.8594 295.121 79.4749 295.566 73.1743ZM297.094 73.2854C296.705 78.7532 299.095 83.3884 302.431 83.6382C305.766 83.888 308.796 79.6136 309.185 74.1735C309.574 68.7057 307.184 64.0705 303.848 63.8207C300.513 63.5709 297.483 67.8175 297.094 73.2854Z" fill="#455A64"/>
<path d="M266.77 71.1202C267.214 64.8197 272.384 60.018 278.305 60.4343C284.197 60.8507 288.644 66.3185 288.2 72.6468C287.755 78.9473 282.585 83.749 276.693 83.3326C270.744 82.9163 266.297 77.4207 266.77 71.1202ZM268.299 71.2312C267.909 76.6991 271.689 81.4453 276.748 81.8061C281.807 82.1669 286.226 78.0036 286.615 72.5635C287.004 67.0957 283.224 62.3495 278.166 61.9886C273.107 61.6278 268.688 65.7634 268.299 71.2312Z" fill="#455A64"/>
<path d="M287.727 71.591C293.62 69.9811 296.066 72.0351 296.094 72.0628L297.122 70.9248C297.011 70.8138 294.092 68.2603 287.311 70.0922L287.727 71.591Z" fill="#455A64"/>
<path d="M267.604 70.1774L267.993 68.6786C267.02 68.4288 243.923 62.4336 241.393 62.1283C238.725 61.7397 232.221 64.8483 231.498 65.1814L232.165 66.5692C234 65.681 239.114 63.4883 241.088 63.6271C241.115 63.6271 241.171 63.6271 241.199 63.6271C243.144 63.9046 259.321 68.0402 267.604 70.1774Z" fill="#455A64"/>
<path d="M252.039 68.1222C252.039 68.1222 245.285 53.5228 238.808 55.6877C232.332 57.8527 235.779 77.8922 242.227 81.6947C248.676 85.4972 252.344 79.613 252.344 79.613L252.039 68.1222Z" fill="#EFBDB7"/>
<path d="M239.948 61.406C239.837 61.3782 239.781 61.517 239.865 61.5725C244.367 64.4036 246.118 69.344 247.063 74.34C245.952 72.2861 244.145 70.9539 241.449 72.2306C241.31 72.2861 241.393 72.5082 241.532 72.5082C243.589 72.4527 244.979 73.0355 246.035 74.8674C246.786 76.1719 247.175 77.6985 247.619 79.114C247.758 79.5858 248.592 79.5026 248.509 78.9752C248.509 78.9475 248.509 78.8919 248.481 78.8642C249.732 72.7302 246.48 63.2101 239.948 61.406Z" fill="#263238"/>
<path d="M346.931 272.319C346.903 282.561 317.857 279.98 310.603 280.868C303.348 281.811 302.292 283.643 305.933 285.753C306.323 286.002 307.184 286.28 308.324 286.585C297.039 284.254 259.71 271.264 259.71 271.264C259.71 271.264 282.113 263.854 293.982 261.467C305.794 259.107 346.959 262.049 346.931 272.319Z" fill="#EFBDB7"/>
<path d="M416.668 219.64C416.668 219.64 426.591 210.62 435.68 205.957C444.741 201.294 464.948 192.995 468.395 190.469L474.676 189.054L454.33 326.305L400.436 350.202L302.876 340.099L316.579 210.564L322.944 209.038C322.944 209.038 335.424 210.814 345.569 211.258C355.658 211.647 389.818 207.4 416.668 219.64Z" fill="white"/>
<path d="M392.626 354.949L409.414 223.221L312.326 209.954L297.873 343.93L392.626 354.949Z" fill="#73EEFF"/>
<path opacity="0.1" d="M392.626 354.949L409.414 223.221L312.326 209.954L297.873 343.93L392.626 354.949Z" fill="black"/>
<path d="M392.626 354.948L406.218 353.422L423.145 221.666L409.414 223.22L392.626 354.948Z" fill="#73EEFF"/>
<path d="M406.217 353.421L423.144 221.666L477.233 187.443L455.998 327.276L406.217 353.421Z" fill="#73EEFF"/>
<path opacity="0.1" d="M406.217 353.421L423.144 221.666L477.233 187.443L455.998 327.276L406.217 353.421Z" fill="black"/>
<path d="M202.23 154.58C181.746 177.45 115.872 273.04 124.683 302.35C130.464 321.585 237.864 348.369 260.933 351.255C270.995 352.504 284.198 283.449 277.082 275.288C269.967 267.128 205.316 266.878 203.509 258.968C201.73 251.086 235.251 179.032 240.754 152.054C250.371 105.064 215.266 140.036 202.23 154.58Z" fill="#EFBDB7"/>
<path d="M369.167 312.981C368.722 322.057 354.63 325.055 353.685 325.249C354.519 325.166 367.054 323.917 365.942 332.882C364.775 342.18 352.462 346.982 352.462 346.982C352.462 346.982 356.631 349.119 352.879 355.336C347.459 364.218 325.139 366.91 313.132 365.578C301.152 364.273 258.209 350.479 251.677 348.231L259.71 271.265C259.71 271.265 297.039 284.254 308.324 286.586C308.351 286.586 308.463 286.613 308.49 286.613C314.299 288.168 327.558 290.305 332.144 290.666C344.79 291.582 362.162 282.367 364.302 291.526C366.193 299.714 353.518 304.932 353.518 304.932C353.518 304.932 369.667 303.628 369.167 312.981Z" fill="#EFBDB7"/>
<path d="M352.767 304.876C334.589 310.899 325.612 310.399 307.323 305.903C306.961 305.82 306.767 306.319 307.128 306.458C324.639 312.509 335.84 314.757 353.129 305.736C353.962 305.292 353.657 304.571 352.767 304.876Z" fill="#263238"/>
<path d="M354.38 324.832C334.951 329.44 325.195 328.995 305.683 325.693C305.405 325.637 305.294 326.109 305.572 326.164C324.444 331.022 335.646 333.02 354.435 325.859C355.297 325.526 355.269 324.61 354.38 324.832Z" fill="#263238"/>
<path d="M352.212 346.898C333.089 350.006 322.36 349.979 303.848 344.316C303.404 344.178 303.181 344.816 303.598 344.983C321.943 352.588 335.312 352.726 352.239 347.481C353.379 347.12 353.407 346.703 352.212 346.898Z" fill="#263238"/>
<path d="M476.261 225.552C482.348 234.211 495.634 243.981 497.885 251.531C499.914 258.331 494.55 261.773 494.55 261.773C494.55 261.773 502.888 264.298 503.805 271.459C504.278 275.151 498.774 279.148 498.774 279.148C498.774 279.148 505.39 281.451 505.779 287.891C506.112 293.025 500.553 296.245 500.553 296.245C500.553 296.245 505.862 301.408 504.5 306.737C501.776 317.534 458.249 324.972 448.799 310.095C444.38 303.156 455.109 301.935 455.109 301.935C455.109 301.935 439.266 299.992 437.487 291.083C435.736 282.173 449.772 281.396 449.772 281.396C449.772 281.396 434.429 279.37 433.54 269.961C432.623 260.135 446.77 261.773 446.77 261.773C446.77 261.773 435.986 256.86 436.959 249.505C438.571 237.32 459.361 248.755 468.561 244.842L471.146 228.189L476.261 225.552Z" fill="#EFBDB7"/>
<path d="M487.323 237.764C482.264 229.049 491.826 215.615 488.212 206.595C483.293 194.41 471.146 209.259 471.119 228.188L473.676 242.899L487.323 237.764Z" fill="#EFBDB7"/>
<path d="M499.72 296.883C499.859 296.855 499.942 297.049 499.803 297.105C486.072 303.017 469.201 305.348 454.525 302.073C454.052 301.962 453.997 301.129 454.553 301.157C470.313 301.629 484.349 300.796 499.72 296.883Z" fill="#100E3A"/>
<path d="M498.969 279.204C499.136 279.148 499.219 279.426 499.052 279.509C484.877 285.532 465.782 287.613 449.327 281.868C448.772 281.674 448.466 280.924 449.133 281.119C460.334 284.116 485.155 282.784 498.969 279.204Z" fill="#100E3A"/>
<path d="M445.686 260.967C461.696 265.852 477.678 265.131 493.966 262.05C494.188 262.022 494.216 262.3 494.049 262.383C486.489 266.074 475.899 266.963 467.589 266.963C459.639 266.963 452.468 265.353 445.519 261.523C445.242 261.384 445.325 260.856 445.686 260.967Z" fill="#100E3A"/>
<path d="M164.124 195.658L222.132 219.667C222.132 219.667 236.64 180.893 242.311 154.136C248.009 127.38 242.616 112.281 211.264 141.674C180.995 170.04 164.124 195.658 164.124 195.658Z" fill="#263238"/>
</g>
<g filter="url(#filter0_d)">
<circle cx="503.5" cy="72.5" r="64.5" fill="#FBA229"/>
</g>
<circle cx="114.5" cy="477.5" r="114.5" fill="#A2FF93"/>
<defs>
<filter id="filter0_d" x="431" y="0" width="149" height="149" filterUnits="userSpaceOnUse" color-interpolation-filters="sRGB">
<feFlood flood-opacity="0" result="BackgroundImageFix"/>
<feColorMatrix in="SourceAlpha" type="matrix" values="0 0 0 0 0 0 0 0 0 0 0 0 0 0 0 0 0 0 127 0" result="hardAlpha"/>
<feOffset dx="2" dy="2"/>
<feGaussianBlur stdDeviation="5"/>
<feComposite in2="hardAlpha" operator="out"/>
<feColorMatrix type="matrix" values="0 0 0 0 0 0 0 0 0 0 0 0 0 0 0 0 0 0 0.15 0"/>
<feBlend mode="normal" in2="BackgroundImageFix" result="effect1_dropShadow"/>
<feBlend mode="normal" in="SourceGraphic" in2="effect1_dropShadow" result="shape"/>
</filter>
<clipPath id="clip0">
<rect width="631" height="485" fill="white" transform="translate(9 12)"/>
</clipPath>
</defs>
</svg>
