<svg width="224" height="81" viewBox="0 0 224 81" fill="none" xmlns="http://www.w3.org/2000/svg">
<rect x="12.5" y="12.5" width="199" height="55" stroke="#FBA229" stroke-linejoin="round"/>
<path d="M11.4889 13.4002L5.75381 11.7939L5.74821 11.7925C4.92351 11.5778 4.14443 11.1468 3.49919 10.5009C1.56697 8.56675 1.56785 5.43205 3.50271 3.49913C5.43688 1.56691 8.57228 1.56849 10.5045 3.50266C11.1497 4.14855 11.5793 4.92876 11.7931 5.75368L11.7938 5.75298L13.3957 11.4953C13.7193 12.657 12.6496 13.7256 11.4889 13.4002Z" fill="#FBA229"/>
<path d="M13.5336 69.1454L11.9272 74.8805L11.9258 74.8861C11.7111 75.7108 11.28 76.4898 10.6341 77.1351C8.69994 79.0672 5.56524 79.0663 3.63236 77.1314C1.70018 75.1972 1.70182 72.0618 3.63603 70.1296C4.28193 69.4844 5.06215 69.0549 5.88708 68.8411L5.88638 68.8404L11.6287 67.2385C12.7904 66.915 13.8591 67.9847 13.5336 69.1454Z" fill="#FBA229"/>
<path d="M210.237 11.6212L211.844 5.88615L211.845 5.88054C212.06 5.05585 212.491 4.27677 213.137 3.63155C215.071 1.69937 218.206 1.70031 220.139 3.63521C222.071 5.56942 222.069 8.70482 220.135 10.637C219.489 11.2822 218.709 11.7117 217.884 11.9255L217.885 11.9263L212.142 13.5281C210.981 13.8516 209.912 12.7819 210.237 11.6212Z" fill="#FBA229"/>
<path d="M212.146 67.2366L217.881 68.843L217.887 68.8444C218.711 69.0591 219.491 69.4901 220.136 70.136C222.068 72.0702 222.067 75.2049 220.132 77.1378C218.198 79.07 215.063 79.0683 213.13 77.1341C212.485 76.4882 212.056 75.708 211.842 74.8831L211.841 74.8838L210.239 69.1415C209.916 67.9797 210.985 66.9111 212.146 67.2366Z" fill="#FBA229"/>
<path d="M50.9633 23.7344V58.1324H42.5843V43.9714H29.5503V58.1324H21.1713V23.7344H29.5503V37.2094H42.5843V23.7344H50.9633ZM69.4581 58.5244C66.7795 58.5244 64.3621 57.9528 62.2061 56.8094C60.0828 55.6661 58.4005 54.0328 57.1591 51.9094C55.9505 49.7861 55.3461 47.3034 55.3461 44.4614C55.3461 41.6521 55.9668 39.1858 57.2081 37.0624C58.4495 34.9064 60.1481 33.2568 62.3041 32.1134C64.4601 30.9701 66.8775 30.3984 69.5561 30.3984C72.2348 30.3984 74.6521 30.9701 76.8081 32.1134C78.9641 33.2568 80.6628 34.9064 81.9041 37.0624C83.1455 39.1858 83.7661 41.6521 83.7661 44.4614C83.7661 47.2708 83.1291 49.7534 81.8551 51.9094C80.6138 54.0328 78.8988 55.6661 76.7101 56.8094C74.5541 57.9528 72.1368 58.5244 69.4581 58.5244ZM69.4581 51.2724C71.0588 51.2724 72.4145 50.6844 73.5251 49.5084C74.6685 48.3324 75.2401 46.6501 75.2401 44.4614C75.2401 42.2728 74.6848 40.5904 73.5741 39.4144C72.4961 38.2384 71.1568 37.6504 69.5561 37.6504C67.9228 37.6504 66.5671 38.2384 65.4891 39.4144C64.4111 40.5578 63.8721 42.2401 63.8721 44.4614C63.8721 46.6501 64.3948 48.3324 65.4401 49.5084C66.5181 50.6844 67.8575 51.2724 69.4581 51.2724ZM96.5903 21.8724V58.1324H88.2113V21.8724H96.5903ZM106.877 27.9484C105.407 27.9484 104.198 27.5238 103.251 26.6744C102.336 25.7924 101.879 24.7144 101.879 23.4404C101.879 22.1338 102.336 21.0558 103.251 20.2064C104.198 19.3244 105.407 18.8834 106.877 18.8834C108.314 18.8834 109.49 19.3244 110.405 20.2064C111.352 21.0558 111.826 22.1338 111.826 23.4404C111.826 24.7144 111.352 25.7924 110.405 26.6744C109.49 27.5238 108.314 27.9484 106.877 27.9484ZM111.042 30.7904V58.1324H102.663V30.7904H111.042ZM128.237 58.5244C125.852 58.5244 123.729 58.1161 121.867 57.2994C120.005 56.4828 118.535 55.3721 117.457 53.9674C116.379 52.5301 115.774 50.9294 115.644 49.1654H123.925C124.023 50.1128 124.464 50.8804 125.248 51.4684C126.032 52.0564 126.995 52.3504 128.139 52.3504C129.184 52.3504 129.984 52.1544 130.54 51.7624C131.128 51.3378 131.422 50.7988 131.422 50.1454C131.422 49.3614 131.013 48.7898 130.197 48.4304C129.38 48.0384 128.057 47.6138 126.228 47.1564C124.268 46.6991 122.634 46.2254 121.328 45.7354C120.021 45.2128 118.894 44.4124 117.947 43.3344C116.999 42.2238 116.526 40.7374 116.526 38.8754C116.526 37.3074 116.95 35.8864 117.8 34.6124C118.682 33.3058 119.956 32.2768 121.622 31.5254C123.32 30.7741 125.329 30.3984 127.649 30.3984C131.079 30.3984 133.774 31.2478 135.734 32.9464C137.726 34.6451 138.87 36.8991 139.164 39.7084H131.422C131.291 38.7611 130.866 38.0098 130.148 37.4544C129.462 36.8991 128.547 36.6214 127.404 36.6214C126.424 36.6214 125.672 36.8174 125.15 37.2094C124.627 37.5688 124.366 38.0751 124.366 38.7284C124.366 39.5124 124.774 40.1004 125.591 40.4924C126.44 40.8844 127.747 41.2764 129.511 41.6684C131.536 42.1911 133.186 42.7138 134.46 43.2364C135.734 43.7264 136.844 44.5431 137.792 45.6864C138.772 46.7971 139.278 48.2998 139.311 50.1944C139.311 51.7951 138.853 53.2324 137.939 54.5064C137.057 55.7478 135.766 56.7278 134.068 57.4464C132.402 58.1651 130.458 58.5244 128.237 58.5244ZM159.676 51.0274V58.1324H155.413C152.375 58.1324 150.007 57.3974 148.308 55.9274C146.609 54.4248 145.76 51.9911 145.76 48.6264V37.7484H142.428V30.7904H145.76V24.1264H154.139V30.7904H159.627V37.7484H154.139V48.7244C154.139 49.5411 154.335 50.1291 154.727 50.4884C155.119 50.8478 155.772 51.0274 156.687 51.0274H159.676ZM168.557 27.9484C167.087 27.9484 165.879 27.5238 164.931 26.6744C164.017 25.7924 163.559 24.7144 163.559 23.4404C163.559 22.1338 164.017 21.0558 164.931 20.2064C165.879 19.3244 167.087 18.8834 168.557 18.8834C169.995 18.8834 171.171 19.3244 172.085 20.2064C173.033 21.0558 173.506 22.1338 173.506 23.4404C173.506 24.7144 173.033 25.7924 172.085 26.6744C171.171 27.5238 169.995 27.9484 168.557 27.9484ZM172.722 30.7904V58.1324H164.343V30.7904H172.722ZM177.128 44.4614C177.128 41.6194 177.7 39.1368 178.843 37.0134C180.019 34.8901 181.636 33.2568 183.694 32.1134C185.785 30.9701 188.17 30.3984 190.848 30.3984C194.278 30.3984 197.137 31.2968 199.423 33.0934C201.743 34.8901 203.262 37.4218 203.98 40.6884H195.062C194.311 38.5978 192.857 37.5524 190.701 37.5524C189.166 37.5524 187.941 38.1568 187.026 39.3654C186.112 40.5414 185.654 42.2401 185.654 44.4614C185.654 46.6828 186.112 48.3978 187.026 49.6064C187.941 50.7824 189.166 51.3704 190.701 51.3704C192.857 51.3704 194.311 50.3251 195.062 48.2344H203.98C203.262 51.4358 201.743 53.9511 199.423 55.7804C197.104 57.6098 194.246 58.5244 190.848 58.5244C188.17 58.5244 185.785 57.9528 183.694 56.8094C181.636 55.6661 180.019 54.0328 178.843 51.9094C177.7 49.7861 177.128 47.3034 177.128 44.4614Z" fill="#2D3092"/>
</svg>
