<svg width="283" height="55" viewBox="0 0 283 55" fill="none" xmlns="http://www.w3.org/2000/svg">
<path d="M17.1367 29.2281V30.8101H13.0627V33.3161H16.1847V34.8701H13.0627V39.0001H11.1027V29.2281H17.1367ZM23.5665 39.0001L21.4105 35.1921H20.4865V39.0001H18.5265V29.2281H22.1945C22.9505 29.2281 23.5945 29.3635 24.1265 29.6341C24.6585 29.8955 25.0552 30.2548 25.3165 30.7121C25.5872 31.1601 25.7225 31.6641 25.7225 32.2241C25.7225 32.8681 25.5359 33.4515 25.1625 33.9741C24.7892 34.4875 24.2339 34.8421 23.4965 35.0381L25.8345 39.0001H23.5665ZM20.4865 33.7221H22.1245C22.6565 33.7221 23.0532 33.5961 23.3145 33.3441C23.5759 33.0828 23.7065 32.7235 23.7065 32.2661C23.7065 31.8181 23.5759 31.4728 23.3145 31.2301C23.0532 30.9781 22.6565 30.8521 22.1245 30.8521H20.4865V33.7221ZM29.4553 30.8101V33.2601H32.7453V34.8141H29.4553V37.4041H33.1653V39.0001H27.4953V29.2141H33.1653V30.8101H29.4553ZM36.9065 30.8101V33.2601H40.1965V34.8141H36.9065V37.4041H40.6165V39.0001H34.9465V29.2141H40.6165V30.8101H36.9065ZM58.7956 29.2281L56.0656 39.0001H53.7556L51.9216 32.0421L50.0036 39.0001L47.7076 39.0141L45.0756 29.2281H47.1756L48.8976 36.8161L50.8856 29.2281H53.0696L54.9456 36.7741L56.6816 29.2281H58.7956ZM64.6114 39.0981C63.6967 39.0981 62.8567 38.8835 62.0914 38.4541C61.326 38.0248 60.7194 37.4321 60.2714 36.6761C59.8234 35.9108 59.5994 35.0475 59.5994 34.0861C59.5994 33.1341 59.8234 32.2801 60.2714 31.5241C60.7194 30.7588 61.326 30.1615 62.0914 29.7321C62.8567 29.3028 63.6967 29.0881 64.6114 29.0881C65.5354 29.0881 66.3754 29.3028 67.1314 29.7321C67.8967 30.1615 68.4987 30.7588 68.9374 31.5241C69.3854 32.2801 69.6094 33.1341 69.6094 34.0861C69.6094 35.0475 69.3854 35.9108 68.9374 36.6761C68.4987 37.4321 67.8967 38.0248 67.1314 38.4541C66.366 38.8835 65.526 39.0981 64.6114 39.0981ZM64.6114 37.3481C65.1994 37.3481 65.7174 37.2175 66.1654 36.9561C66.6134 36.6855 66.9634 36.3028 67.2154 35.8081C67.4674 35.3135 67.5934 34.7395 67.5934 34.0861C67.5934 33.4328 67.4674 32.8635 67.2154 32.3781C66.9634 31.8835 66.6134 31.5055 66.1654 31.2441C65.7174 30.9828 65.1994 30.8521 64.6114 30.8521C64.0234 30.8521 63.5007 30.9828 63.0434 31.2441C62.5954 31.5055 62.2454 31.8835 61.9934 32.3781C61.7414 32.8635 61.6154 33.4328 61.6154 34.0861C61.6154 34.7395 61.7414 35.3135 61.9934 35.8081C62.2454 36.3028 62.5954 36.6855 63.0434 36.9561C63.5007 37.2175 64.0234 37.3481 64.6114 37.3481ZM76.1076 39.0001L73.9516 35.1921H73.0276V39.0001H71.0676V29.2281H74.7356C75.4916 29.2281 76.1356 29.3635 76.6676 29.6341C77.1996 29.8955 77.5962 30.2548 77.8576 30.7121C78.1282 31.1601 78.2636 31.6641 78.2636 32.2241C78.2636 32.8681 78.0769 33.4515 77.7036 33.9741C77.3302 34.4875 76.7749 34.8421 76.0376 35.0381L78.3756 39.0001H76.1076ZM73.0276 33.7221H74.6656C75.1976 33.7221 75.5942 33.5961 75.8556 33.3441C76.1169 33.0828 76.2476 32.7235 76.2476 32.2661C76.2476 31.8181 76.1169 31.4728 75.8556 31.2301C75.5942 30.9781 75.1976 30.8521 74.6656 30.8521H73.0276V33.7221ZM85.5523 39.0001L81.9963 34.6461V39.0001H80.0363V29.2281H81.9963V33.6101L85.5523 29.2281H87.9183L83.8863 34.0721L88.0303 39.0001H85.5523ZM92.6935 39.0981C92.0122 39.0981 91.3962 38.9815 90.8455 38.7481C90.3042 38.5148 89.8748 38.1788 89.5575 37.7401C89.2402 37.3015 89.0768 36.7835 89.0675 36.1861H91.1675C91.1955 36.5875 91.3355 36.9048 91.5875 37.1381C91.8488 37.3715 92.2035 37.4881 92.6515 37.4881C93.1088 37.4881 93.4682 37.3808 93.7295 37.1661C93.9908 36.9421 94.1215 36.6528 94.1215 36.2981C94.1215 36.0088 94.0328 35.7708 93.8555 35.5841C93.6782 35.3975 93.4542 35.2528 93.1835 35.1501C92.9222 35.0381 92.5582 34.9168 92.0915 34.7861C91.4568 34.5995 90.9388 34.4175 90.5375 34.2401C90.1455 34.0535 89.8048 33.7781 89.5155 33.4141C89.2355 33.0408 89.0955 32.5461 89.0955 31.9301C89.0955 31.3515 89.2402 30.8475 89.5295 30.4181C89.8188 29.9888 90.2248 29.6621 90.7475 29.4381C91.2702 29.2048 91.8675 29.0881 92.5395 29.0881C93.5475 29.0881 94.3642 29.3355 94.9895 29.8301C95.6242 30.3155 95.9742 30.9968 96.0395 31.8741H93.8835C93.8648 31.5381 93.7202 31.2628 93.4495 31.0481C93.1882 30.8241 92.8382 30.7121 92.3995 30.7121C92.0168 30.7121 91.7088 30.8101 91.4755 31.0061C91.2515 31.2021 91.1395 31.4868 91.1395 31.8601C91.1395 32.1215 91.2235 32.3408 91.3915 32.5181C91.5688 32.6861 91.7835 32.8261 92.0355 32.9381C92.2968 33.0408 92.6608 33.1621 93.1275 33.3021C93.7622 33.4888 94.2802 33.6755 94.6815 33.8621C95.0828 34.0488 95.4282 34.3288 95.7175 34.7021C96.0068 35.0755 96.1515 35.5655 96.1515 36.1721C96.1515 36.6948 96.0162 37.1801 95.7455 37.6281C95.4748 38.0761 95.0782 38.4355 94.5555 38.7061C94.0328 38.9675 93.4122 39.0981 92.6935 39.0981ZM105.957 29.2281V39.0001H103.997V34.8421H99.8108V39.0001H97.8508V29.2281H99.8108V33.2461H103.997V29.2281H105.957ZM112.422 39.0981C111.507 39.0981 110.667 38.8835 109.902 38.4541C109.137 38.0248 108.53 37.4321 108.082 36.6761C107.634 35.9108 107.41 35.0475 107.41 34.0861C107.41 33.1341 107.634 32.2801 108.082 31.5241C108.53 30.7588 109.137 30.1615 109.902 29.7321C110.667 29.3028 111.507 29.0881 112.422 29.0881C113.346 29.0881 114.186 29.3028 114.942 29.7321C115.707 30.1615 116.309 30.7588 116.748 31.5241C117.196 32.2801 117.42 33.1341 117.42 34.0861C117.42 35.0475 117.196 35.9108 116.748 36.6761C116.309 37.4321 115.707 38.0248 114.942 38.4541C114.177 38.8835 113.337 39.0981 112.422 39.0981ZM112.422 37.3481C113.01 37.3481 113.528 37.2175 113.976 36.9561C114.424 36.6855 114.774 36.3028 115.026 35.8081C115.278 35.3135 115.404 34.7395 115.404 34.0861C115.404 33.4328 115.278 32.8635 115.026 32.3781C114.774 31.8835 114.424 31.5055 113.976 31.2441C113.528 30.9828 113.01 30.8521 112.422 30.8521C111.834 30.8521 111.311 30.9828 110.854 31.2441C110.406 31.5055 110.056 31.8835 109.804 32.3781C109.552 32.8635 109.426 33.4328 109.426 34.0861C109.426 34.7395 109.552 35.3135 109.804 35.8081C110.056 36.3028 110.406 36.6855 110.854 36.9561C111.311 37.2175 111.834 37.3481 112.422 37.3481ZM126.004 32.2521C126.004 32.7748 125.878 33.2648 125.626 33.7221C125.383 34.1795 124.996 34.5481 124.464 34.8281C123.941 35.1081 123.279 35.2481 122.476 35.2481H120.838V39.0001H118.878V29.2281H122.476C123.232 29.2281 123.876 29.3588 124.408 29.6201C124.94 29.8815 125.337 30.2408 125.598 30.6981C125.869 31.1555 126.004 31.6735 126.004 32.2521ZM122.392 33.6661C122.933 33.6661 123.335 33.5448 123.596 33.3021C123.857 33.0501 123.988 32.7001 123.988 32.2521C123.988 31.3001 123.456 30.8241 122.392 30.8241H120.838V33.6661H122.392ZM129.93 29.0601L129.706 35.8221H128.054L127.816 29.0601H129.93ZM128.922 39.0981C128.567 39.0981 128.273 38.9908 128.04 38.7761C127.816 38.5521 127.704 38.2768 127.704 37.9501C127.704 37.6235 127.816 37.3528 128.04 37.1381C128.273 36.9141 128.567 36.8021 128.922 36.8021C129.267 36.8021 129.552 36.9141 129.776 37.1381C130 37.3528 130.112 37.6235 130.112 37.9501C130.112 38.2768 130 38.5521 129.776 38.7761C129.552 38.9908 129.267 39.0981 128.922 39.0981Z" fill="#2D3092"/>
<rect x="7.50049" y="25.5001" width="128" height="17" stroke="#FBA229" stroke-linejoin="round"/>
<path d="M7.06079 26.7262L3.68148 25.8557L3.67818 25.855C3.19223 25.7386 2.73317 25.5051 2.35297 25.1551C1.21443 24.107 1.21495 22.4083 2.35505 21.3609C3.49473 20.3138 5.34223 20.3147 6.48076 21.3628C6.86096 21.7128 7.11405 22.1356 7.24005 22.5826L7.24047 22.5822L8.18437 25.6939C8.37505 26.3235 7.74474 26.9025 7.06079 26.7262Z" fill="#FBA229"/>
<path d="M8.44585 42.5615L7.5533 45.4919L7.55252 45.4948C7.43324 45.9162 7.19376 46.3143 6.83489 46.6439C5.76022 47.6312 4.01854 47.6307 2.94461 46.6421C1.87107 45.6538 1.87198 44.0517 2.94665 43.0644C3.30552 42.7347 3.73902 42.5152 4.19736 42.406L4.19697 42.4056L7.38747 41.5872C8.03296 41.4218 8.62669 41.9684 8.44585 42.5615Z" fill="#FBA229"/>
<path d="M134.676 24.7025L135.543 21.8558L135.543 21.8531C135.659 21.4437 135.892 21.057 136.241 20.7367C137.285 19.7777 138.976 19.7781 140.02 20.7386C141.063 21.6986 141.062 23.2549 140.018 24.214C139.669 24.5342 139.248 24.7474 138.803 24.8536L138.803 24.8539L135.704 25.649C135.077 25.8096 134.5 25.2786 134.676 24.7025Z" fill="#FBA229"/>
<path d="M135.537 41.342L138.438 42.0894L138.441 42.09C138.858 42.1899 139.252 42.3904 139.579 42.691C140.556 43.5909 140.556 45.0493 139.577 45.9486C138.598 46.8475 137.012 46.8468 136.034 45.9469C135.708 45.6464 135.491 45.2834 135.383 44.8996L135.382 44.8999L134.572 42.2282C134.408 41.6877 134.949 41.1905 135.537 41.342Z" fill="#FBA229"/>
<path d="M11.3365 5.27V6.572H8.74649V15H7.15049V6.572H4.54649V5.27H11.3365ZM14.5488 8.406C14.7822 8.014 15.0902 7.71067 15.4728 7.496C15.8648 7.272 16.3268 7.16 16.8588 7.16V8.812H16.4528C15.8275 8.812 15.3515 8.97067 15.0248 9.288C14.7075 9.60533 14.5488 10.156 14.5488 10.94V15H12.9528V7.286H14.5488V8.406ZM25.2699 7.286L20.5379 18.626H18.8859L20.4539 14.874L17.4159 7.286H19.1939L21.3639 13.166L23.6179 7.286H25.2699ZM30.923 6.264C30.6337 6.264 30.391 6.166 30.195 5.97C29.999 5.774 29.901 5.53133 29.901 5.242C29.901 4.95267 29.999 4.71 30.195 4.514C30.391 4.318 30.6337 4.22 30.923 4.22C31.203 4.22 31.441 4.318 31.637 4.514C31.833 4.71 31.931 4.95267 31.931 5.242C31.931 5.53133 31.833 5.774 31.637 5.97C31.441 6.166 31.203 6.264 30.923 6.264ZM31.707 7.286V15H30.111V7.286H31.707ZM35.6644 8.588V12.858C35.6644 13.1473 35.7298 13.3573 35.8604 13.488C36.0004 13.6093 36.2338 13.67 36.5604 13.67H37.5404V15H36.2804C35.5618 15 35.0111 14.832 34.6284 14.496C34.2458 14.16 34.0544 13.614 34.0544 12.858V8.588H33.1444V7.286H34.0544V5.368H35.6644V7.286H37.5404V8.588H35.6644ZM49.5921 7.286L44.8601 18.626H43.2081L44.7761 14.874L41.7381 7.286H43.5161L45.6861 13.166L47.9401 7.286H49.5921ZM54.1426 15.126C53.4146 15.126 52.7566 14.9627 52.1686 14.636C51.5806 14.3 51.1186 13.8333 50.7826 13.236C50.4466 12.6293 50.2786 11.9293 50.2786 11.136C50.2786 10.352 50.4512 9.65667 50.7966 9.05C51.1419 8.44333 51.6132 7.97667 52.2106 7.65C52.8079 7.32333 53.4752 7.16 54.2126 7.16C54.9499 7.16 55.6172 7.32333 56.2146 7.65C56.8119 7.97667 57.2832 8.44333 57.6286 9.05C57.9739 9.65667 58.1466 10.352 58.1466 11.136C58.1466 11.92 57.9692 12.6153 57.6146 13.222C57.2599 13.8287 56.7746 14.3 56.1586 14.636C55.5519 14.9627 54.8799 15.126 54.1426 15.126ZM54.1426 13.74C54.5532 13.74 54.9359 13.642 55.2906 13.446C55.6546 13.25 55.9486 12.956 56.1726 12.564C56.3966 12.172 56.5086 11.696 56.5086 11.136C56.5086 10.576 56.4012 10.1047 56.1866 9.722C55.9719 9.33 55.6872 9.036 55.3326 8.84C54.9779 8.644 54.5952 8.546 54.1846 8.546C53.7739 8.546 53.3912 8.644 53.0366 8.84C52.6912 9.036 52.4159 9.33 52.2106 9.722C52.0052 10.1047 51.9026 10.576 51.9026 11.136C51.9026 11.9667 52.1126 12.6107 52.5326 13.068C52.9619 13.516 53.4986 13.74 54.1426 13.74ZM66.7103 7.286V15H65.1143V14.09C64.8623 14.4073 64.531 14.6593 64.1203 14.846C63.719 15.0233 63.2896 15.112 62.8323 15.112C62.2256 15.112 61.6796 14.986 61.1943 14.734C60.7183 14.482 60.3403 14.1087 60.0603 13.614C59.7896 13.1193 59.6543 12.522 59.6543 11.822V7.286H61.2363V11.584C61.2363 12.2747 61.409 12.8067 61.7543 13.18C62.0996 13.544 62.571 13.726 63.1683 13.726C63.7656 13.726 64.237 13.544 64.5823 13.18C64.937 12.8067 65.1143 12.2747 65.1143 11.584V7.286H66.7103ZM70.4121 8.406C70.6454 8.014 70.9534 7.71067 71.3361 7.496C71.7281 7.272 72.1901 7.16 72.7221 7.16V8.812H72.3161C71.6908 8.812 71.2148 8.97067 70.8881 9.288C70.5708 9.60533 70.4121 10.156 70.4121 10.94V15H68.8161V7.286H70.4121V8.406ZM76.9892 15.126C76.3825 15.126 75.8365 15.0187 75.3512 14.804C74.8752 14.58 74.4972 14.2813 74.2172 13.908C73.9372 13.5253 73.7878 13.1007 73.7692 12.634H75.4212C75.4492 12.9607 75.6032 13.236 75.8832 13.46C76.1725 13.6747 76.5318 13.782 76.9612 13.782C77.4092 13.782 77.7545 13.698 77.9972 13.53C78.2492 13.3527 78.3752 13.1287 78.3752 12.858C78.3752 12.5687 78.2352 12.354 77.9552 12.214C77.6845 12.074 77.2505 11.92 76.6532 11.752C76.0745 11.5933 75.6032 11.4393 75.2392 11.29C74.8752 11.1407 74.5578 10.912 74.2872 10.604C74.0258 10.296 73.8952 9.89 73.8952 9.386C73.8952 8.97533 74.0165 8.602 74.2592 8.266C74.5018 7.92067 74.8472 7.65 75.2952 7.454C75.7525 7.258 76.2752 7.16 76.8632 7.16C77.7405 7.16 78.4452 7.384 78.9772 7.832C79.5185 8.27067 79.8078 8.87267 79.8452 9.638H78.2492C78.2212 9.29267 78.0812 9.01733 77.8292 8.812C77.5772 8.60667 77.2365 8.504 76.8072 8.504C76.3872 8.504 76.0652 8.58333 75.8412 8.742C75.6172 8.90067 75.5052 9.11067 75.5052 9.372C75.5052 9.57733 75.5798 9.75 75.7292 9.89C75.8785 10.03 76.0605 10.142 76.2752 10.226C76.4898 10.3007 76.8072 10.3987 77.2272 10.52C77.7872 10.6693 78.2445 10.8233 78.5992 10.982C78.9632 11.1313 79.2758 11.3553 79.5372 11.654C79.7985 11.9527 79.9338 12.3493 79.9432 12.844C79.9432 13.2827 79.8218 13.6747 79.5792 14.02C79.3365 14.3653 78.9912 14.636 78.5432 14.832C78.1045 15.028 77.5865 15.126 76.9892 15.126ZM88.7377 10.954C88.7377 11.2433 88.719 11.5047 88.6817 11.738H82.7877C82.8343 12.354 83.063 12.8487 83.4737 13.222C83.8843 13.5953 84.3883 13.782 84.9857 13.782C85.8443 13.782 86.451 13.4227 86.8057 12.704H88.5277C88.2943 13.4133 87.8697 13.9967 87.2537 14.454C86.647 14.902 85.891 15.126 84.9857 15.126C84.2483 15.126 83.5857 14.9627 82.9977 14.636C82.419 14.3 81.9617 13.8333 81.6257 13.236C81.299 12.6293 81.1357 11.9293 81.1357 11.136C81.1357 10.3427 81.2943 9.64733 81.6117 9.05C81.9383 8.44333 82.391 7.97667 82.9697 7.65C83.5577 7.32333 84.2297 7.16 84.9857 7.16C85.7137 7.16 86.3623 7.31867 86.9317 7.636C87.501 7.95333 87.9443 8.40133 88.2617 8.98C88.579 9.54933 88.7377 10.2073 88.7377 10.954ZM87.0717 10.45C87.0623 9.862 86.8523 9.39067 86.4417 9.036C86.031 8.68133 85.5223 8.504 84.9157 8.504C84.365 8.504 83.8937 8.68133 83.5017 9.036C83.1097 9.38133 82.8763 9.85267 82.8017 10.45H87.0717ZM91.9043 4.64V15H90.3083V4.64H91.9043ZM97.2337 8.588H95.8057V15H94.1957V8.588H93.2857V7.286H94.1957V6.74C94.1957 5.85333 94.429 5.20933 94.8957 4.808C95.3717 4.39733 96.1137 4.192 97.1217 4.192V5.522C96.6364 5.522 96.2957 5.61533 96.0997 5.802C95.9037 5.97933 95.8057 6.292 95.8057 6.74V7.286H97.2337V8.588ZM112.645 7.286L110.251 15H108.571L107.017 9.302L105.463 15H103.783L101.375 7.286H102.999L104.609 13.488L106.247 7.286H107.913L109.481 13.46L111.077 7.286H112.645ZM114.65 6.264C114.36 6.264 114.118 6.166 113.922 5.97C113.726 5.774 113.628 5.53133 113.628 5.242C113.628 4.95267 113.726 4.71 113.922 4.514C114.118 4.318 114.36 4.22 114.65 4.22C114.93 4.22 115.168 4.318 115.364 4.514C115.56 4.71 115.658 4.95267 115.658 5.242C115.658 5.53133 115.56 5.774 115.364 5.97C115.168 6.166 114.93 6.264 114.65 6.264ZM115.434 7.286V15H113.838V7.286H115.434ZM119.391 8.588V12.858C119.391 13.1473 119.456 13.3573 119.587 13.488C119.727 13.6093 119.96 13.67 120.287 13.67H121.267V15H120.007C119.288 15 118.738 14.832 118.355 14.496C117.972 14.16 117.781 13.614 117.781 12.858V8.588H116.871V7.286H117.781V5.368H119.391V7.286H121.267V8.588H119.391ZM126.728 7.16C127.316 7.16 127.839 7.286 128.296 7.538C128.763 7.79 129.127 8.16333 129.388 8.658C129.659 9.15267 129.794 9.75 129.794 10.45V15H128.212V10.688C128.212 9.99733 128.039 9.47 127.694 9.106C127.349 8.73267 126.877 8.546 126.28 8.546C125.683 8.546 125.207 8.73267 124.852 9.106C124.507 9.47 124.334 9.99733 124.334 10.688V15H122.738V4.64H124.334V8.182C124.605 7.85533 124.945 7.60333 125.356 7.426C125.776 7.24867 126.233 7.16 126.728 7.16ZM138.813 15.126C138.085 15.126 137.427 14.9627 136.839 14.636C136.251 14.3 135.789 13.8333 135.453 13.236C135.117 12.6293 134.949 11.9293 134.949 11.136C134.949 10.352 135.121 9.65667 135.467 9.05C135.812 8.44333 136.283 7.97667 136.881 7.65C137.478 7.32333 138.145 7.16 138.883 7.16C139.62 7.16 140.287 7.32333 140.885 7.65C141.482 7.97667 141.953 8.44333 142.299 9.05C142.644 9.65667 142.817 10.352 142.817 11.136C142.817 11.92 142.639 12.6153 142.285 13.222C141.93 13.8287 141.445 14.3 140.829 14.636C140.222 14.9627 139.55 15.126 138.813 15.126ZM138.813 13.74C139.223 13.74 139.606 13.642 139.961 13.446C140.325 13.25 140.619 12.956 140.843 12.564C141.067 12.172 141.179 11.696 141.179 11.136C141.179 10.576 141.071 10.1047 140.857 9.722C140.642 9.33 140.357 9.036 140.003 8.84C139.648 8.644 139.265 8.546 138.855 8.546C138.444 8.546 138.061 8.644 137.707 8.84C137.361 9.036 137.086 9.33 136.881 9.722C136.675 10.1047 136.573 10.576 136.573 11.136C136.573 11.9667 136.783 12.6107 137.203 13.068C137.632 13.516 138.169 13.74 138.813 13.74ZM151.38 7.286V15H149.784V14.09C149.532 14.4073 149.201 14.6593 148.79 14.846C148.389 15.0233 147.96 15.112 147.502 15.112C146.896 15.112 146.35 14.986 145.864 14.734C145.388 14.482 145.01 14.1087 144.73 13.614C144.46 13.1193 144.324 12.522 144.324 11.822V7.286H145.906V11.584C145.906 12.2747 146.079 12.8067 146.424 13.18C146.77 13.544 147.241 13.726 147.838 13.726C148.436 13.726 148.907 13.544 149.252 13.18C149.607 12.8067 149.784 12.2747 149.784 11.584V7.286H151.38ZM155.082 8.406C155.315 8.014 155.623 7.71067 156.006 7.496C156.398 7.272 156.86 7.16 157.392 7.16V8.812H156.986C156.361 8.812 155.885 8.97067 155.558 9.288C155.241 9.60533 155.082 10.156 155.082 10.94V15H153.486V7.286H155.082V8.406Z" fill="black"/>
</svg>
