<svg width="472" height="481" viewBox="0 0 472 481" fill="none" xmlns="http://www.w3.org/2000/svg">
<path d="M211.715 106.223C211.715 106.223 242.121 76.288 267.36 93.1523C292.595 110.017 292.595 122.14 309.944 124.772C327.293 127.408 363.043 108.435 381.971 132.149C400.898 155.864 358.314 223.853 369.351 239.663C380.393 255.472 409.831 238.081 411.935 272.864C414.039 307.647 364.617 315.552 365.669 330.312C366.721 345.067 379.336 358.245 361.987 364.568C344.638 370.891 221.09 373 221.09 373L104.902 367.204C104.902 367.204 44.9686 330.839 48.1201 286.569C51.2761 242.299 107.001 232.285 99.1154 200.666C91.2298 169.046 62.3131 154.814 77.5582 135.84C95.2378 113.843 130.658 145.327 154.314 133.204C174.959 122.625 159.258 103.474 182.547 96.2041C205.835 88.9339 211.715 106.223 211.715 106.223Z" fill="#DEFFC4"/>
<path d="M85.4386 385.779H359.061C359.061 385.779 458.8 380.522 470.611 401.544C482.423 422.559 353.158 421.245 349.219 433.724C345.28 446.203 411.554 455.396 411.554 468.532C411.554 481.668 378.745 477.726 233.074 479.04C163.512 479.668 102.822 483.965 102.822 473.132C102.822 462.293 150.393 462.624 152.363 452.117C154.332 441.609 19.1594 448.831 19.1594 435.695C19.1594 422.559 53.2808 436.352 54.5939 423.216C55.9069 410.08 -3.15062 417.308 0.131968 400.886C3.41456 384.465 85.4386 385.779 85.4386 385.779Z" fill="url(#paint0_linear)"/>
<path d="M161.257 395.775C155.738 395.775 153.885 395.647 153.269 395.554C153.112 391.99 151.596 368.357 149.992 343.411C149.237 331.7 148.481 319.901 147.866 310.213C145.919 279.563 146.872 242.661 146.884 242.294V242.236L141.056 207.23C143.787 206.474 156.906 202.898 162.1 202.462L167.968 201.973L297.854 208.864C297.929 208.864 300.137 208.788 303.24 208.788C308.068 208.788 314.79 208.969 319.432 209.841L334.625 212.69L306.731 391.443C298.644 391.763 192.247 395.775 161.257 395.775Z" fill="#66B4BF"/>
<path d="M167.968 202.56L297.813 209.451H297.866H297.918C297.941 209.451 300.143 209.376 303.228 209.376C308.027 209.376 314.714 209.556 319.316 210.422L333.957 213.167L306.226 390.89C295.135 391.309 191.725 395.194 161.258 395.194C156.697 395.194 154.698 395.101 153.821 395.025C153.571 390.082 152.107 367.311 150.567 343.335C149.818 331.636 149.057 319.855 148.447 310.173C146.506 279.551 147.453 242.672 147.465 242.306L147.471 242.195L147.453 242.085L141.719 207.654C145.269 206.677 157.272 203.45 162.152 203.049L167.968 202.56ZM167.951 201.392C167.951 201.392 167.951 201.392 162.048 201.886C156.145 202.38 140.394 206.811 140.394 206.811L146.297 242.277C146.297 242.277 145.315 279.219 147.279 310.248C149.249 341.277 152.694 393.984 152.694 395.955C152.694 396.234 155.849 396.357 161.252 396.357C193.694 396.357 307.219 392.013 307.219 392.013L335.27 212.225C335.27 212.225 327.397 210.748 319.519 209.271C314.796 208.387 307.946 208.207 303.222 208.207C300.073 208.207 297.866 208.288 297.866 208.288L167.951 201.392Z" fill="#1E344A"/>
<path d="M296.483 319.843C296.408 316.988 295.798 289.21 300.417 267.02C305.279 243.643 324.22 214.255 335.357 212.801C335.932 212.725 336.496 212.69 337.036 212.69C347.384 212.69 352.415 226.716 352.415 255.57C352.415 285.529 342.66 352.808 341.266 362.252L296.483 319.843Z" fill="#4980A9"/>
<path d="M337.03 213.277C346.988 213.277 351.828 227.111 351.828 255.576C351.828 284.517 342.701 348.389 340.847 361.065L297.052 319.587C296.954 315.697 296.483 288.75 300.98 267.142C303.263 256.18 308.928 243.004 316.132 231.891C323.121 221.116 330.511 214.028 335.421 213.388C335.979 213.312 336.519 213.277 337.03 213.277ZM337.03 212.115C336.461 212.115 335.874 212.155 335.276 212.231C323.958 213.708 304.762 243.26 299.841 266.903C294.92 290.547 295.902 320.099 295.902 320.099L341.672 363.444C341.672 363.444 352.99 288.082 352.99 255.57C352.996 224.791 347.256 212.115 337.03 212.115Z" fill="#1E344A"/>
<path d="M93.8511 310.307C94.9085 305.881 102.2 276.353 114.354 248.418C125.73 222.268 137.838 210.283 140.865 207.556L148.104 239.689C148.813 242.824 149.138 246.045 149.08 249.255L147.709 322.82L93.8511 310.307Z" fill="#4980A9"/>
<path d="M140.516 208.672L147.535 239.823C148.232 242.911 148.551 246.086 148.493 249.249L147.134 322.094L94.5542 309.876C96.0008 303.928 103.188 275.545 114.889 248.656C125.451 224.367 136.635 212.365 140.516 208.672ZM141.213 206.486C141.213 206.486 127.107 217.651 113.82 248.191C100.533 278.731 93.1482 310.749 93.1482 310.749L148.267 323.553L149.649 249.272C149.707 246.01 149.376 242.754 148.662 239.567L141.213 206.486Z" fill="#1E344A"/>
<path d="M281.145 205.334C269.525 201.322 264.105 195.681 262.489 193.722C261.223 184.226 263.797 173.038 263.797 173.038L202.549 177.009C202.549 177.009 206.656 180.801 207.661 188.075C207.661 188.075 206.558 196.245 195.24 199.694C183.922 203.142 170.304 202.101 170.304 202.101C170.304 202.101 178.868 251.255 227.99 254.093C279.17 257.047 297.599 209.323 297.599 209.323C297.599 209.323 288.059 207.724 281.145 205.334Z" fill="#EED58C" stroke="#1E344A" stroke-width="2" stroke-miterlimit="10"/>
<path d="M202.549 177.015L263.797 173.044C263.797 173.044 251.451 211.085 235.375 212.4C219.299 213.714 207.662 188.081 207.662 188.081L202.549 177.015Z" fill="#1E344A"/>
<path d="M181.093 117.598C181.093 117.598 165.656 117.598 162.699 109.916C159.741 102.229 162.873 98.0884 162.873 98.0884C162.873 98.0884 154.408 96.4137 154.083 88.5112C153.763 80.6086 156.976 74.5029 156.976 74.5029C156.976 74.5029 148.43 68.0133 148.697 60.6748C149.086 49.8473 158.527 45.6431 158.527 45.6431C158.527 45.6431 150.451 34.7807 160.264 27.9713C170.077 21.162 179.931 28.8087 179.931 28.8087C179.931 28.8087 174.655 13.7944 186.252 11.3288C197.848 8.86326 205.564 12.8058 205.564 12.8058C205.564 12.8058 217.939 -0.14416 229.1 0.00121487C240.261 0.14659 244.589 14.1375 244.589 14.1375C244.589 14.1375 256.11 5.75224 268.328 11.858C280.546 17.9637 277.961 24.7556 277.961 24.7556C277.961 24.7556 299.818 20.4235 308.004 28.6633C316.19 36.8973 308.974 44.4801 308.974 44.4801C308.974 44.4801 325.161 42.2122 328.525 55.8251C331.888 69.4438 322.517 73.6481 322.517 73.6481C322.517 73.6481 330.14 87.447 323.499 97.0243C316.852 106.602 310.328 105.665 310.328 105.665C310.328 105.665 311.972 113.295 304.716 121.86C297.459 130.426 280.709 130.373 280.709 130.373L181.093 117.598Z" fill="#1E344A"/>
<path d="M184.881 154.267C180.553 155.314 174.94 147.44 172.355 136.688C169.769 125.936 171.181 116.377 175.51 115.33L183.434 114.353L191.737 153.435L184.881 154.267Z" fill="#D65555" stroke="#1E344A" stroke-width="1.5" stroke-miterlimit="10" stroke-linejoin="round"/>
<path d="M191.732 153.442C196.062 152.399 197.475 142.838 194.889 132.088C192.303 121.338 186.696 113.47 182.366 114.513C178.036 115.557 176.623 125.117 179.209 135.867C181.795 146.617 187.402 154.486 191.732 153.442Z" fill="#A23D3D" stroke="#1E344A" stroke-width="1.5" stroke-miterlimit="10" stroke-linejoin="round"/>
<path d="M183.574 90.0986C183.574 90.0986 182.034 118.627 184.01 126.274C185.985 133.915 188.03 139.921 188.03 139.921C188.03 139.921 188.303 152.15 192.684 161.809C204.995 188.953 229.303 196.559 229.303 196.559C229.303 196.559 250.672 188.261 263.797 173.044C276.921 157.826 275.051 139.997 275.051 139.997L279.298 101.723L254.96 63.8788L200.957 75.061L183.574 90.0986Z" fill="#EED58C" stroke="#1E344A" stroke-width="2" stroke-miterlimit="10"/>
<path d="M264.686 116.528C264.686 116.528 254.571 112.376 246.669 112.917C242.236 113.219 238.983 114.952 236.978 116.417C235.619 117.412 233.696 117.005 232.836 115.551C232.057 114.237 232.447 112.55 233.713 111.695C236.339 109.928 241.15 107.427 247.105 107.677C258.911 108.177 264.686 116.528 264.686 116.528Z" fill="#1E344A"/>
<path d="M236.275 136.706C236.275 136.706 241.423 131.501 247.854 130.786C254.286 130.071 260.584 132.641 260.584 132.641C260.584 132.641 257.383 138.421 249.121 139.712C240.854 141.009 236.275 136.706 236.275 136.706Z" fill="white" stroke="#1E344A" stroke-width="2" stroke-miterlimit="10"/>
<path d="M192.37 138.811C192.37 138.811 194.967 134.426 202.857 134.572C210.747 134.717 215.865 139.096 215.865 139.096C215.865 139.096 212.054 142.056 203.705 142.591C197.425 142.986 192.37 138.811 192.37 138.811Z" fill="white" stroke="#1E344A" stroke-width="2" stroke-miterlimit="10"/>
<path d="M184.806 121.546C184.806 121.546 193.282 117.295 198.988 116.766C204.693 116.237 208.237 118.371 208.237 118.371C209.684 118.621 211.107 117.813 211.63 116.441C212.292 114.702 211.27 112.771 209.457 112.353C206.268 111.614 201.195 110.998 196.089 112.649C187.682 115.365 184.806 121.546 184.806 121.546Z" fill="#1E344A"/>
<path d="M220.135 141.771L216.783 158.884C216.783 158.884 220.344 160.024 223.516 158.843C226.689 157.663 228.734 155.779 228.734 155.779" stroke="#1E344A" stroke-width="2" stroke-miterlimit="10"/>
<path d="M221.983 170.52C221.983 170.52 221.582 167.513 225.509 166.583C232.656 164.885 235.514 167.415 239.279 166.792C243.044 166.17 245.461 164.304 245.461 164.304C245.461 164.304 243.102 170.119 232.621 171.537C222.134 172.95 221.983 170.52 221.983 170.52Z" fill="#D65555" stroke="#1E344A" stroke-width="2" stroke-miterlimit="10" stroke-linejoin="round"/>
<path d="M224.749 172.171C224.749 172.171 227.049 176.748 230.663 177.126C239.947 178.091 243.892 166.758 243.892 166.758C243.892 166.758 238.541 170.514 232.615 171.538C226.689 172.555 224.749 172.171 224.749 172.171Z" fill="#D65555" stroke="#1E344A" stroke-width="2" stroke-miterlimit="10" stroke-linejoin="round"/>
<path d="M196.205 140.753C196.205 140.753 197.367 136.531 202.294 136.572C207.215 136.618 208.969 141.788 208.969 141.788C208.969 141.788 205.814 142.643 201.887 142.311C197.959 141.98 196.205 140.753 196.205 140.753Z" fill="#56A219" stroke="#1E344A" stroke-width="1.3096" stroke-miterlimit="10"/>
<path d="M240.778 138.869C240.778 138.869 241.963 134.153 247.733 133.577C253.502 133.002 255.105 137.834 255.105 137.834C255.105 137.834 252.073 139.677 247.291 140.131C242.515 140.584 240.778 138.869 240.778 138.869Z" fill="#56A219" stroke="#1E344A" stroke-width="1.3096" stroke-miterlimit="10"/>
<path d="M291.591 110.131C291.754 108.73 291.864 107.305 291.928 105.875C293.293 73.6247 268.282 46.3698 236.054 44.9975C215.737 44.1369 197.407 53.7723 186.293 69.089C197.349 58.6627 212.431 52.5395 228.81 53.2315C259.602 54.5399 283.806 79.4804 284.706 109.835L291.591 110.131Z" fill="#D65555" stroke="#1E344A" stroke-width="2" stroke-miterlimit="10" stroke-linejoin="round"/>
<path d="M190.232 64.7452C190.232 64.7452 177.381 81.2889 176.352 90.1218C175.324 98.9548 168.887 103.607 174.604 108.125C180.321 112.643 183.441 108.829 183.441 108.829C183.441 108.829 187.571 104.403 190.372 100.252C193.172 96.0996 192.004 92.7618 192.004 92.7618C192.004 92.7618 197.954 99.5886 207.313 95.71C216.673 91.8373 222.692 81.5738 222.692 81.5738C222.692 81.5738 225.678 88.6041 233.626 86.9701C241.574 85.3361 242.399 81.4284 242.399 81.4284C242.399 81.4284 240.999 91.2267 249.11 93.5469C257.22 95.8612 260.393 90.7382 260.393 90.7382C260.393 90.7382 258.336 100.513 264.808 102.758C271.28 105.002 273.203 106.072 273.203 106.072C273.203 106.072 268.718 111.143 271.245 113.55C273.773 115.958 280.611 117.237 280.611 117.237L284.707 109.852C284.707 109.852 288.669 97.5301 284.713 90.1335C280.756 82.7368 276.195 81.882 276.195 81.882C276.195 81.882 274.104 69.3042 266.772 64.0649C259.44 58.8256 254.78 60.2677 254.78 60.2677C254.78 60.2677 242.37 50.8648 234.533 49.8763C226.695 48.8878 222.919 52.6675 222.919 52.6675C222.919 52.6675 212.473 51.237 206.785 53.627C201.103 56.0169 196.246 62.0529 196.246 62.0529L190.232 64.7452Z" fill="#1E344A"/>
<path opacity="0.2" d="M191.737 76.2298C191.737 76.2298 190.424 91.7733 200.487 91.5523C210.549 91.3313 222.797 73.3805 222.797 73.3805C222.797 73.3805 224.11 82.574 231.982 82.1378C239.854 81.7017 242.481 71.8511 242.481 71.8511C242.481 71.8511 235.7 79.7304 231.105 75.5727C226.509 71.415 224.545 63.0938 224.545 63.0938C224.545 63.0938 208.098 83.7718 200.922 82.5798C193.05 81.2656 191.737 76.2298 191.737 76.2298Z" fill="#66B4BF"/>
<path opacity="0.2" d="M185.178 96.4775C185.178 96.4775 179.275 104.031 173.366 98.7744C167.463 93.5176 174.023 82.0272 174.023 82.0272C174.023 82.0272 164.506 97.7917 170.415 104.357C176.318 110.928 185.178 96.4775 185.178 96.4775Z" fill="#66B4BF"/>
<path opacity="0.2" d="M163.849 70.2113C163.849 70.2113 157.29 67.9144 159.91 59.3722C162.536 50.8358 171.722 52.4756 171.722 52.4756C171.722 52.4756 161.88 43.2821 167.457 38.6825C173.035 34.0828 184.846 39.9966 184.846 39.9966C184.846 39.9966 172.384 26.2035 165.493 31.4602C158.603 36.717 163.855 48.533 163.855 48.533C163.855 48.533 155.535 49.6204 153.682 57.7265C151.056 69.2228 163.849 70.2113 163.849 70.2113Z" fill="#66B4BF"/>
<path opacity="0.1" d="M261.758 147.65C261.967 150.179 258.254 152.552 253.467 152.947C248.68 153.342 244.636 151.61 244.427 149.08C244.218 146.55 247.93 144.178 252.718 143.783C257.499 143.387 261.549 145.12 261.758 147.65Z" fill="#C4007B"/>
<path opacity="0.1" d="M211.229 151.947C211.014 154.476 206.959 156.197 202.177 155.785C197.396 155.378 193.689 152.993 193.904 150.464C194.119 147.934 198.174 146.213 202.956 146.626C207.743 147.039 211.444 149.417 211.229 151.947Z" fill="#C4007B"/>
<path d="M185.782 130.106C185.55 128.228 186.909 126.53 188.791 126.355C192.074 126.047 197.425 125.785 203.38 126.437C213.187 127.512 217.539 128.135 218.73 131.03C219.921 133.932 219.195 145.952 216.232 148.673C213.269 151.395 195.589 150.208 191.313 147.836C188.17 146.097 186.468 135.589 185.782 130.106Z" stroke="#1E344A" stroke-width="4" stroke-miterlimit="10"/>
<path d="M230.989 127.373C228.827 127.78 227.386 129.838 227.747 132.013C228.67 137.607 234.387 148.103 237.467 148.702C241.807 149.545 260.724 147.498 262.374 144.719C264.024 141.939 266.748 124.087 263.518 122.854C260.962 121.878 239.791 125.715 230.989 127.373Z" stroke="#1E344A" stroke-width="4" stroke-miterlimit="10"/>
<path d="M219.433 135.002L227.997 134.49" stroke="#1E344A" stroke-width="6" stroke-miterlimit="10"/>
<path d="M264.75 129.92L279.089 116.941" stroke="#1E344A" stroke-width="4" stroke-miterlimit="10"/>
<path d="M277.34 147.835C272.919 147.312 270.374 137.991 271.669 127.006C272.965 116.022 277.596 107.543 282.017 108.061L289.791 109.893L284.056 149.435L277.34 147.835Z" fill="#A23D3D" stroke="#1E344A" stroke-width="1.5" stroke-miterlimit="10" stroke-linejoin="round"/>
<path d="M294.396 130.5C295.688 119.519 293.149 110.195 288.726 109.674C284.303 109.153 279.671 117.632 278.379 128.613C277.088 139.594 279.626 148.919 284.049 149.44C288.472 149.961 293.105 141.481 294.396 130.5Z" fill="#D65555" stroke="#1E344A" stroke-width="1.5" stroke-miterlimit="10" stroke-linejoin="round"/>
<path d="M93.1482 310.743C93.1482 310.743 122.622 313.755 127.217 296.676C131.813 279.603 113.001 279.161 119.345 267.997C125.689 256.832 133.783 262.525 135.311 248.732C136.844 234.938 126.34 225.745 126.34 225.745C126.34 225.745 115.406 243.475 107.092 266.246C98.778 289.018 93.1482 310.743 93.1482 310.743Z" fill="#365D8D" stroke="#1E344A" stroke-width="1.5" stroke-miterlimit="10"/>
<path d="M310.508 239.98C310.508 239.98 331.836 252.459 333.474 272.492C335.113 292.524 319.368 281.028 318.712 295.804C318.055 310.58 329.541 309.923 326.584 322.076C323.632 334.224 295.908 320.105 295.908 320.105C295.908 320.105 295.089 299.089 298.04 278.731C300.991 258.367 310.508 239.98 310.508 239.98Z" fill="#365D8D" stroke="#1E344A" stroke-width="1.5" stroke-miterlimit="10"/>
<path d="M220.117 253.116C220.117 253.116 257.028 339.312 284.584 362.955C312.146 386.599 336.751 397.927 340.196 385.611C343.641 373.294 348.562 363.938 330.354 332.415C312.146 300.892 244.228 241.783 244.228 241.783C244.228 241.783 249.742 202.752 243.734 197.943C239.633 194.658 214.209 194.001 211.251 196.961C208.3 199.915 199.934 233.409 203.867 231.932C207.806 230.455 214.697 211.242 214.697 211.242H221.093C221.093 211.242 215.19 229.466 216.172 237.346C217.166 245.231 220.117 253.116 220.117 253.116Z" fill="#EED58C" stroke="#1E344A" stroke-width="2" stroke-miterlimit="10"/>
<path d="M213.721 204.514C213.721 204.514 215.034 207.143 214.703 210.097C214.377 213.051 213.721 213.871 213.721 213.871" fill="#EED58C"/>
<path d="M213.721 204.514C213.721 204.514 215.034 207.143 214.703 210.097C214.377 213.051 213.721 213.871 213.721 213.871" stroke="#1E344A" stroke-width="2" stroke-miterlimit="10" stroke-linecap="round"/>
<path d="M225.201 204.84C225.201 204.84 222.575 207.305 221.593 209.765C220.611 212.225 219.786 216.499 219.786 216.499" fill="#EED58C"/>
<path d="M225.201 204.84C225.201 204.84 222.575 207.305 221.593 209.765C220.611 212.225 219.786 216.499 219.786 216.499" stroke="#1E344A" stroke-width="2" stroke-miterlimit="10" stroke-linecap="round"/>
<path opacity="0.1" d="M223.563 259.518C223.563 259.518 259.491 268.386 271.297 292.03C283.108 315.674 274.742 329.955 284.09 342.766C293.438 355.57 307.219 353.605 313.616 364.438C320.013 375.277 316.567 385.128 316.567 385.128C316.567 385.128 297.372 378.725 276.212 353.605C255.052 328.484 247.668 310.26 247.668 310.26L223.563 259.518Z" fill="#C4007B"/>
<path d="M295.907 422.064L312.64 396.449H295.907V422.064Z" fill="#E3E3E3" stroke="#1E344A" stroke-width="2" stroke-miterlimit="10" stroke-linejoin="round"/>
<path d="M312.64 396.449L312.651 398.113C312.68 402.061 311.548 405.934 309.392 409.237L298.83 425.455C297.005 428.257 293.897 429.95 290.556 429.967L285.572 429.996L295.907 422.059L312.64 396.449Z" fill="#AFAFAF" stroke="#1E344A" stroke-width="2" stroke-miterlimit="10" stroke-linejoin="round"/>
<path d="M71.8783 268.787L79.0186 422.931C79.2104 427.13 82.673 430.427 86.8678 430.415L288.029 429.956C292.369 429.944 295.879 426.408 295.855 422.059L294.961 270.2C294.937 265.909 291.475 262.437 287.187 262.397L79.7739 260.565C75.2829 260.536 71.6691 264.287 71.8783 268.787Z" fill="#E3E3E3" stroke="#1E344A" stroke-width="2" stroke-miterlimit="10"/>
<path d="M178.704 338.364C178.704 338.364 170.774 330.897 163.471 337.428C156.162 343.964 168.444 360.769 172.488 361.234C176.531 361.699 179.948 359.99 179.948 359.99C179.948 359.99 184.282 362.292 188.186 361.077C192.694 359.676 203.112 343.184 194.873 337.579C186.629 331.985 178.704 338.364 178.704 338.364Z" fill="white"/>
<path d="M179.013 333.537C179.013 333.537 177.926 328.868 180.878 324.047C183.829 319.221 188.337 317.046 188.337 317.046C188.337 317.046 188.181 323.425 185.386 327.472C182.591 331.519 179.013 333.537 179.013 333.537Z" fill="white"/>
<path opacity="0.5" d="M71.8774 268.787L78.5007 422.227C78.7099 427.071 82.7303 430.874 87.5758 430.805L113.325 430.438C113.325 430.438 135.473 396.944 130.552 377.731C125.631 358.518 101.514 368.863 95.6108 345.714C89.708 322.564 111.849 321.087 110.374 299.415C108.828 276.725 71.8774 268.787 71.8774 268.787Z" fill="#AFAFAF"/>
<path d="M360.049 406.138L357.754 371.655L382.027 376.58L382.359 413.36L360.049 406.138Z" fill="#D65555" stroke="#1E344A" stroke-width="2" stroke-miterlimit="10" stroke-linejoin="round"/>
<path d="M382.027 376.58L412.216 369.032L409.589 403.841L382.359 413.36L382.027 376.58Z" fill="#993939" stroke="#1E344A" stroke-width="2" stroke-miterlimit="10" stroke-linejoin="round"/>
<path d="M357.754 371.655L383.126 365.089L412.216 369.032L382.027 376.58L357.754 371.655Z" fill="#1E344A"/>
<path d="M377.856 371.823C377.856 371.823 366.957 366.183 363.576 359.036C360.194 351.889 362.263 339.102 362.263 339.102C362.263 339.102 368.462 342.865 374.667 353.582C380.86 364.299 377.856 371.823 377.856 371.823Z" fill="#56A219" stroke="#1E344A" stroke-width="2" stroke-miterlimit="10"/>
<path d="M404.419 339.096C404.419 339.096 393.519 344.737 390.138 351.884C386.757 359.03 388.825 371.817 388.825 371.817C388.825 371.817 395.024 368.055 401.229 357.338C407.422 346.621 404.419 339.096 404.419 339.096Z" fill="#56A219" stroke="#1E344A" stroke-width="2" stroke-miterlimit="10"/>
<path d="M382.358 372.969C382.358 372.969 376.781 361.641 377.106 351.953C377.431 342.266 384.978 334.224 384.978 334.224C384.978 334.224 391.212 341.283 390.556 351.465C389.905 361.641 382.358 372.969 382.358 372.969Z" fill="#74BC66" stroke="#1E344A" stroke-width="2" stroke-miterlimit="10"/>
<path d="M92.323 201.682C103.547 201.682 112.646 192.575 112.646 181.341C112.646 170.107 103.547 161 92.323 161C81.0989 161 72 170.107 72 181.341C72 192.575 81.0989 201.682 92.323 201.682Z" fill="#E8BB51"/>
<path d="M91.6841 170.025L95.0422 176.834L102.554 177.927L97.1221 183.231L98.4003 190.715L91.6841 187.179L84.9678 190.715L86.2518 183.231L80.8196 177.927L88.326 176.834L91.6841 170.025Z" fill="white"/>
<path d="M384.985 144.091C400.387 144.091 412.873 131.594 412.873 116.179C412.873 100.763 400.387 88.2668 384.985 88.2668C369.583 88.2668 357.098 100.763 357.098 116.179C357.098 131.594 369.583 144.091 384.985 144.091Z" fill="#1E344A"/>
<path d="M366.642 120.453L380.203 110.381H400.328L386.983 120.453H366.642Z" fill="white"/>
<path d="M371.86 121.93V125.465C371.86 128.291 374.149 130.583 376.973 130.583H385.321C386.483 130.583 387.611 130.187 388.517 129.46L393.728 125.291C395.773 123.657 396.959 121.18 396.959 118.563L396.796 115.202L387.117 122.098L371.86 121.93Z" fill="white"/>
<path d="M383.997 113.882C383.997 113.882 390.069 109.282 387.936 106.985C385.804 104.688 384.328 104.031 385.473 101.566C386.623 99.1002 390.725 99.926 390.725 99.926" stroke="white" stroke-miterlimit="10"/>
<path d="M393.839 100.17C393.839 101.077 393.107 101.81 392.201 101.81C391.294 101.81 390.562 101.077 390.562 100.17C390.562 99.263 391.294 98.5303 392.201 98.5303C393.107 98.5303 393.839 99.2688 393.839 100.17Z" fill="white"/>
<path d="M394.577 100.827L398.104 102.717L398.76 101.24L397.697 100.746L399.092 100.502L398.842 98.9431L394.746 99.6002L394.577 100.827Z" fill="white"/>
<defs>
<linearGradient id="paint0_linear" x1="235.687" y1="385.195" x2="236" y2="541" gradientUnits="userSpaceOnUse">
<stop offset="0.164583" stop-color="#F9CA5C"/>
<stop offset="0.419792" stop-color="#F8D98E"/>
<stop offset="0.669792" stop-color="#F7F3E5"/>
<stop offset="1" stop-color="#F7FAFB"/>
</linearGradient>
</defs>
</svg>
