<svg width="24" height="26" viewBox="0 0 24 26" fill="none" xmlns="http://www.w3.org/2000/svg">
<path d="M13.2881 1.36652C12.94 1.03739 12.4791 0.854004 12 0.854004C11.5209 0.854004 11.06 1.03739 10.7119 1.36652L1.62938 9.95027C1.35128 10.2134 1.12984 10.5306 0.978631 10.8824C0.827421 11.2341 0.749622 11.613 0.750001 11.9959V22.4396C0.750498 23.1852 1.04703 23.9001 1.57443 24.4272C2.10182 24.9542 2.8169 25.2503 3.5625 25.2503H6.375C7.12092 25.2503 7.83629 24.954 8.36374 24.4265C8.89119 23.8991 9.1875 23.1837 9.1875 22.4378V17.7503C9.1875 17.5016 9.28627 17.2632 9.46209 17.0874C9.63791 16.9115 9.87636 16.8128 10.125 16.8128H13.875C14.1236 16.8128 14.3621 16.9115 14.5379 17.0874C14.7137 17.2632 14.8125 17.5016 14.8125 17.7503V22.4378C14.8125 23.1837 15.1088 23.8991 15.6363 24.4265C16.1637 24.954 16.8791 25.2503 17.625 25.2503H20.4375C21.1834 25.2503 21.8988 24.954 22.4262 24.4265C22.9537 23.8991 23.25 23.1837 23.25 22.4378V11.994C23.2499 11.6113 23.1717 11.2327 23.0201 10.8813C22.8686 10.5299 22.647 10.2131 22.3688 9.95027L13.2881 1.36277V1.36652Z" fill="#FFB34C"/>
</svg>
