<svg width="36" height="36" viewBox="0 0 36 36" fill="none" xmlns="http://www.w3.org/2000/svg">
<path fill-rule="evenodd" clip-rule="evenodd" d="M10.3409 0.510842C12.2171 0.424468 12.8154 0.405273 17.5947 0.405273C22.3741 0.405273 22.9723 0.426067 24.847 0.510842C26.7216 0.595616 28.0012 0.894727 29.1209 1.3282C30.2933 1.77126 31.357 2.46386 32.2367 3.35959C33.1325 4.23772 33.8235 5.29981 34.2649 6.47385C34.7 7.59352 34.9975 8.87314 35.0839 10.7446C35.1703 12.624 35.1894 13.2222 35.1894 18C35.1894 22.7794 35.1687 23.3776 35.0839 25.2538C34.9991 27.1253 34.7 28.4049 34.2649 29.5245C33.8234 30.6987 33.1313 31.7626 32.2367 32.642C31.357 33.5377 30.2933 34.2287 29.1209 34.6702C28.0012 35.1053 26.7216 35.4028 24.8501 35.4892C22.9723 35.5755 22.3741 35.5947 17.5947 35.5947C12.8154 35.5947 12.2171 35.5739 10.3409 35.4892C8.46946 35.4044 7.18984 35.1053 6.07018 34.6702C4.89601 34.2287 3.83216 33.5365 2.95271 32.642C2.05759 31.7633 1.36489 30.7 0.922923 29.5261C0.489453 28.4065 0.191942 27.1269 0.105568 25.2554C0.0191942 23.376 0 22.7778 0 18C0 13.2206 0.0207937 12.6224 0.105568 10.7478C0.190343 8.87313 0.489453 7.59352 0.922923 6.47385C1.36555 5.29994 2.05877 4.23663 2.95431 3.35799C3.83252 2.46306 4.89529 1.77037 6.06858 1.3282C7.18825 0.894727 8.46786 0.597216 10.3393 0.510842H10.3409ZM24.7046 3.67789C22.8491 3.59312 22.2925 3.57552 17.5947 3.57552C12.8969 3.57552 12.3403 3.59312 10.4849 3.67789C8.76857 3.75627 7.83765 4.04258 7.21704 4.28411C6.39648 4.60401 5.80946 4.9831 5.19364 5.59892C4.60989 6.16683 4.16064 6.85819 3.87884 7.62231C3.63731 8.24292 3.351 9.17384 3.27262 10.8901C3.18784 12.7456 3.17025 13.3022 3.17025 18C3.17025 22.6978 3.18784 23.2544 3.27262 25.1099C3.351 26.8262 3.63731 27.7571 3.87884 28.3777C4.16035 29.1407 4.60982 29.8333 5.19364 30.4011C5.76147 30.9849 6.45407 31.4344 7.21704 31.7159C7.83765 31.9574 8.76857 32.2437 10.4849 32.3221C12.3403 32.4069 12.8953 32.4245 17.5947 32.4245C22.2941 32.4245 22.8491 32.4069 24.7046 32.3221C26.4209 32.2437 27.3518 31.9574 27.9724 31.7159C28.793 31.396 29.38 31.0169 29.9958 30.4011C30.5796 29.8333 31.0291 29.1407 31.3106 28.3777C31.5521 27.7571 31.8385 26.8262 31.9168 25.1099C32.0016 23.2544 32.0192 22.6978 32.0192 18C32.0192 13.3022 32.0016 12.7456 31.9168 10.8901C31.8385 9.17384 31.5521 8.24292 31.3106 7.62231C30.9907 6.80176 30.6116 6.21473 29.9958 5.59892C29.4279 5.01521 28.7365 4.56596 27.9724 4.28411C27.3518 4.04258 26.4209 3.75627 24.7046 3.67789ZM15.3474 23.424C16.6025 23.9464 18 24.0169 19.3013 23.6235C20.6026 23.23 21.7269 22.3969 22.4822 21.2666C23.2376 20.1363 23.577 18.7788 23.4426 17.4259C23.3083 16.0731 22.7084 14.8089 21.7455 13.8492C21.1316 13.2358 20.3894 12.7661 19.5723 12.4739C18.7551 12.1817 17.8833 12.0744 17.0197 12.1595C16.1561 12.2447 15.3221 12.5203 14.5777 12.9665C13.8334 13.4127 13.1972 14.0184 12.7151 14.7399C12.2329 15.4615 11.9167 16.281 11.7893 17.1394C11.6619 17.9978 11.7263 18.8738 11.9781 19.7043C12.2298 20.5348 12.6626 21.2992 13.2452 21.9424C13.8278 22.5856 14.5458 23.0916 15.3474 23.424ZM11.1998 11.6051C12.0396 10.7653 13.0366 10.0992 14.1338 9.64468C15.2311 9.19019 16.4071 8.95627 17.5947 8.95627C18.7824 8.95627 19.9584 9.19019 21.0556 9.64468C22.1528 10.0992 23.1498 10.7653 23.9896 11.6051C24.8294 12.4449 25.4956 13.4419 25.95 14.5391C26.4045 15.6363 26.6385 16.8124 26.6385 18C26.6385 19.1876 26.4045 20.3636 25.95 21.4609C25.4956 22.5581 24.8294 23.5551 23.9896 24.3949C22.2936 26.0909 19.9933 27.0437 17.5947 27.0437C15.1962 27.0437 12.8959 26.0909 11.1998 24.3949C9.50381 22.6989 8.551 20.3985 8.551 18C8.551 15.6015 9.50381 13.3011 11.1998 11.6051ZM28.6442 10.3031C28.8523 10.1068 29.0189 9.87072 29.1342 9.60887C29.2494 9.34702 29.3109 9.06471 29.3151 8.77865C29.3192 8.49259 29.266 8.20861 29.1584 7.94351C29.0509 7.67841 28.8912 7.43758 28.6889 7.23529C28.4866 7.03299 28.2458 6.87335 27.9807 6.76579C27.7156 6.65824 27.4316 6.60498 27.1456 6.60915C26.8595 6.61332 26.5772 6.67484 26.3154 6.79007C26.0535 6.90531 25.8174 7.07191 25.6211 7.28001C25.2393 7.68474 25.0303 8.22232 25.0384 8.77865C25.0465 9.33498 25.2711 9.86624 25.6646 10.2597C26.058 10.6531 26.5892 10.8777 27.1456 10.8858C27.7019 10.8939 28.2395 10.6849 28.6442 10.3031Z" fill="black"/>
</svg>
