<?xml version="1.0" encoding="utf-8"?>
<!-- Generator: Adobe Illustrator 23.0.5, SVG Export Plug-In . SVG Version: 6.00 Build 0)  -->
<svg version="1.1" id="b3df86d2-2022-47c6-a781-bb5144daf06b"
	 xmlns="http://www.w3.org/2000/svg" xmlns:xlink="http://www.w3.org/1999/xlink" x="0px" y="0px" viewBox="0 0 1920 1080"
	 style="enable-background:new 0 0 1920 1080;" xml:space="preserve">
<style type="text/css">
	.st0{display:none;fill:#FFFFFF;}
	.st1{display:none;}
	.st2{display:inline;fill:#2D3092;}
	.st3{display:inline;}
	.st4{fill:#2D3092;}
	.st5{display:inline;fill:none;stroke:#2D3092;stroke-width:6;stroke-miterlimit:10;}
	.st6{fill:#FFFFFF;}
	.st7{display:inline;fill:none;stroke:#FFFFFF;stroke-width:6;stroke-miterlimit:10;}
	.st8{display:inline;fill:#0B0B1D;}
	.st9{fill:#0B0B1D;}
	.st10{display:inline;fill:#F4F4F4;stroke:#000000;stroke-width:0.75;stroke-miterlimit:10;}
	.st11{display:inline;fill:#FFFFFF;stroke:#000000;stroke-width:0.75;stroke-miterlimit:10;}
	.st12{display:inline;fill:url(#SVGID_1_);}
	.st13{font-family:'MyriadPro-Regular';}
	.st14{font-size:18.8855px;}
	.st15{font-size:17.1126px;}
	.st16{display:inline;fill:#42459D;}
</style>
<title>researching</title>
<rect x="46.9" y="48" class="st0" width="737" height="737"/>
<g class="st1">
	<rect x="46.9" y="399.2" class="st2" width="737" height="368.5"/>
</g>
<g class="st1">
	<path class="st2" d="M277.2,321.4V350h17.6v6.6h-24.9v-35.2H277.2z"/>
	<path class="st2" d="M313.8,329.4c2.6,0,4.8,0.6,6.7,1.7c1.9,1.1,3.3,2.7,4.3,4.6c1,2,1.5,4.3,1.5,6.9v2.8h-19.2
		c0.3,1.8,1.2,3.2,2.6,4.3c1.4,1.1,3.1,1.6,5.1,1.6c1.9,0,3.7-0.4,5.3-1.2c1.6-0.8,2.8-1.6,3.8-2.4l-0.1,6.2
		c-0.8,0.7-2.1,1.5-3.8,2.2c-1.7,0.8-3.5,1.1-5.5,1.1c-2.6,0-5-0.6-7.2-1.8c-2.2-1.2-3.9-2.8-5.1-4.9c-1.3-2.1-1.9-4.4-1.9-7.1
		c0-2.6,0.6-5,1.7-7.1c1.2-2.1,2.7-3.9,4.8-5.2C308.9,330,311.2,329.4,313.8,329.4z M313.6,335.2c-1.6,0-3,0.5-4.1,1.5
		c-1.1,1-1.9,2.4-2.3,4.1h12.7c-0.1-1.9-0.8-3.3-2.1-4.2C316.5,335.6,315.1,335.2,313.6,335.2z"/>
	<path class="st2" d="M342.9,329.4c1.4,0,2.9,0.3,4.4,1c1.5,0.7,2.7,1.6,3.7,2.7v-3h6.7v26.5h-6.7v-4.5c-0.8,1.4-1.9,2.7-3.4,3.7
		c-1.5,1-3.2,1.5-5.1,1.5c-2.1,0-4.1-0.5-5.9-1.6c-1.8-1.1-3.2-2.7-4.3-4.7c-1.1-2.1-1.6-4.6-1.6-7.5s0.6-5.5,1.7-7.6
		s2.6-3.7,4.5-4.9C338.5,329.9,340.6,329.4,342.9,329.4z M344.3,335.9c-1.4,0-2.6,0.4-3.6,1.1c-1,0.7-1.8,1.7-2.3,2.8
		c-0.6,1.2-0.8,2.4-0.8,3.7c0,2,0.6,3.7,1.8,5.1c1.2,1.4,2.8,2.1,4.8,2.1c1.2,0,2.3-0.3,3.3-0.9c1-0.6,1.9-1.5,2.5-2.7
		c0.6-1.1,1-2.5,1-4.1v-3.8c-0.9-1-2-1.8-3.1-2.4C346.8,336.2,345.6,335.9,344.3,335.9z"/>
	<path class="st2" d="M382.5,337.5c-1.1-0.6-2.3-0.9-3.5-0.9c-1.5,0-2.8,0.5-3.8,1.5c-1,1-1.9,2.2-2.7,3.7v14.8h-6.7V330h6.7v5
		c0.9-1.6,2-2.9,3.2-3.9c1.2-1.1,2.7-1.6,4.2-1.6c0.9,0,1.8,0.2,2.6,0.5V337.5z"/>
	<path class="st2" d="M394.3,330v3.8c0.8-1.1,1.9-2.1,3.3-3c1.4-0.9,3-1.4,4.8-1.4c2.7,0,5,0.9,6.8,2.7c1.8,1.8,2.7,4.6,2.7,8.2
		v16.3h-6.7l-0.1-15.4c0-1.8-0.4-3.1-1.3-4c-0.9-0.9-2-1.3-3.5-1.3c-1.2,0-2.3,0.4-3.3,1.2c-1,0.8-1.9,1.7-2.7,2.7v16.8h-6.7V330
		H394.3z"/>
	<path class="st2" d="M449.7,320.5c2.7,0,5.1,0.4,7.1,1.3c2,0.9,3.6,2,4.8,3.5c1.1,1.5,1.7,3.2,1.7,5.2c0,1.8-0.5,3.3-1.4,4.7
		c-0.9,1.4-2.1,2.4-3.5,3.2c1.1,0.3,2.1,0.7,3,1.4c1,0.6,1.8,1.5,2.4,2.6c0.6,1.1,0.9,2.4,0.9,4.1c0,2-0.6,3.8-1.8,5.4
		c-1.2,1.6-2.9,2.9-5,3.9c-2.1,1-4.6,1.5-7.5,1.5c-1.5,0-3.2-0.1-5-0.2c-1.8-0.1-3.5-0.3-5.1-0.5c-1.6-0.2-3-0.5-4.1-0.7v-33.9
		c2-0.4,4.1-0.7,6.4-1C445.1,320.6,447.4,320.5,449.7,320.5z M449.7,327.2c-2.2,0-4.2,0.2-6,0.5v8.5h6.6c1.8,0,3.2-0.4,4.2-1.3
		c1-0.9,1.5-2,1.5-3.4c0-1.4-0.6-2.5-1.9-3.2C453,327.6,451.5,327.2,449.7,327.2z M443.8,350c1,0.2,2.1,0.4,3.4,0.5
		c1.3,0.1,2.3,0.1,3.1,0.1c2,0,3.7-0.4,5-1.2c1.3-0.8,2-1.9,2-3.4s-0.7-2.6-2-3.3c-1.4-0.7-3-1.1-4.9-1.1h-6.5V350z"/>
	<path class="st2" d="M484.1,329.4c2.6,0,5,0.6,7.1,1.9c2.1,1.2,3.9,2.9,5.2,5c1.3,2.1,2,4.5,2,7.1s-0.7,5-2,7.1
		c-1.3,2.1-3,3.8-5.2,5c-2.1,1.2-4.5,1.9-7.1,1.9c-2.6,0-4.9-0.6-7.1-1.9c-2.2-1.2-3.9-2.9-5.2-5c-1.3-2.1-1.9-4.5-1.9-7.1
		s0.6-5,1.9-7.1c1.3-2.1,3-3.8,5.2-5C479.2,330,481.6,329.4,484.1,329.4z M484.1,335.8c-1.3,0-2.4,0.3-3.5,0.9
		c-1.1,0.6-2,1.5-2.6,2.6c-0.6,1.1-1,2.5-1,4.1c0,1.6,0.3,3,1,4.1c0.6,1.1,1.5,2,2.6,2.5c1.1,0.6,2.3,0.9,3.5,0.9
		c1.3,0,2.4-0.3,3.5-0.9c1.1-0.6,2-1.4,2.6-2.5c0.7-1.1,1-2.5,1-4.1c0-1.6-0.3-3-1-4.1c-0.7-1.1-1.5-2-2.6-2.6
		C486.6,336.1,485.4,335.8,484.1,335.8z"/>
	<path class="st2" d="M541,330l-9.2,26.5H527l-6.2-17.2l-6.2,17.2h-4.9l-9.1-26.5h7.2l4.9,15.7l5.7-15.7h4.8l5.7,15.7l4.9-15.7H541z
		"/>
	<path class="st2" d="M552.3,318.7v37.8h-6.7v-37.8H552.3z"/>
</g>
<g class="st1">
	<g class="st3">
		<path class="st4" d="M369.2,209.6c-1.5-3.3-3.7-6.1-6.4-8.3c-1.8-1.5-3.9-2.6-6.2-3.4c-2.3-0.8-5.5-1.6-9.6-2.3
			c3-1.1,5.3-2,6.9-2.9c1.6-0.9,3-2,4.3-3.3c3.5-3.6,5.2-8.2,5.2-13.9c0-3.5-0.8-6.6-2.3-9.4c-1.5-2.8-3.7-5-6.5-6.8
			c-3.2-1.9-7.3-3.1-12.2-3.5c-1.3-0.1-4.1-0.1-8.4-0.1h-42.3v1.5c2.4,0.1,4.4,0.5,6,1c1.5,0.6,2.9,1.5,4.1,2.7
			c1.4,1.4,2.3,3.1,2.8,5.2c0.5,2.1,0.7,5.4,0.7,9.8v47.5c0,4.4-0.2,7.7-0.7,9.8c-0.4,1.9-1.2,3.4-2.3,4.7c0.1,0,0.1,0,0.2,0
			c2.8-0.1,5.2-0.6,7.3-1.3c2.4-0.9,4.3-2.3,5.8-4.3c1-1.3,1.9-2.8,2.5-4.5c0.1-0.2,0.1-0.3,0.2-0.5c0.4-1.1,0.8-2.5,1.2-4V198h11.5
			c8.2,0,14.3,1.6,18.2,4.8c2.1,1.7,3.8,4.2,5,7.4c1.2,3.2,1.9,6.7,1.9,10.4c0,8.5-5,14.3-6,15.5c-7.3,8.5-17.6,9-19.3,9
			c0.7,0,14.2-0.6,23-2.4c2.5-0.5,5.8-1.4,9.1-3.7c2.8-2,5-4.6,6.5-7.8c1.6-3.2,2.4-6.8,2.4-10.7
			C371.4,216.5,370.7,212.9,369.2,209.6z M341.4,192.3c-1.2,0.8-2.4,1.5-3.8,1.9c-1.4,0.5-3.2,0.9-5.5,1.2c-2.6,0.3-5.2,0.5-7.6,0.5
			h-5.2v-38.3h6c4.6,0,8,0.3,10.3,0.8c2.3,0.5,4.3,1.5,6,2.9c2,1.6,3.6,3.9,4.9,6.9c1.2,2.9,1.8,6,1.8,9.3c0,3.1-0.6,5.9-1.8,8.5
			C345.3,188.6,343.6,190.7,341.4,192.3z"/>
		<path class="st4" d="M324.8,227.5l-0.4,14l-0.1,3.9H272v-1c2.9,0,5.2-0.8,6.8-2.5c0.9-0.9,1.5-2.1,1.9-3.6
			c0.3-1.4,0.5-3.6,0.5-6.6v-32.2c0-3.1-0.2-5.4-0.5-6.8c-0.4-1.5-1-2.7-2-3.6c-0.8-0.8-1.7-1.3-2.7-1.7c-1-0.3-2.3-0.6-3.9-0.6v-1
			H300v1c-1.6,0.1-2.9,0.3-3.9,0.7c-1,0.3-1.9,0.9-2.7,1.7c-1,1-1.7,2.2-2,3.6c-0.3,1.5-0.5,3.7-0.5,6.8v25.2c0,3.9,0.1,6.8,0.3,8.6
			c0.2,1.9,0.6,3.4,1.2,4.6c1,2.1,2.5,3.6,4.5,4.6c2,1,4.7,1.5,8,1.5c0.5,0,0.9,0,1.3,0c0.1,0,0.1,0,0.2,0c2.8-0.1,5.2-0.6,7.3-1.3
			c2.4-0.9,4.3-2.3,5.8-4.3c1-1.3,1.9-2.8,2.5-4.5c0.1-0.2,0.1-0.3,0.2-0.5c0.4-1.1,0.8-2.5,1.2-4c0.2-0.6,0.3-1.3,0.4-2
			L324.8,227.5z"/>
	</g>
	<rect x="248.9" y="127.7" class="st5" width="145.7" height="145.7"/>
</g>
<g class="st1">
	<rect x="441.2" y="127.7" class="st2" width="145.7" height="145.7"/>
	<g class="st3">
		<path class="st6" d="M561.5,209.6c-1.5-3.3-3.7-6.1-6.4-8.3c-1.8-1.5-3.9-2.6-6.2-3.4c-2.3-0.8-5.5-1.6-9.6-2.3
			c3-1.1,5.3-2,6.9-2.9c1.6-0.9,3-2,4.3-3.3c3.5-3.6,5.2-8.2,5.2-13.9c0-3.5-0.8-6.6-2.3-9.4c-1.5-2.8-3.7-5-6.5-6.8
			c-3.2-1.9-7.3-3.1-12.2-3.5c-1.3-0.1-4.1-0.1-8.4-0.1h-42.3v1.5c2.4,0.1,4.4,0.5,6,1c1.5,0.6,2.9,1.5,4.1,2.7
			c1.4,1.4,2.3,3.1,2.8,5.2c0.5,2.1,0.7,5.4,0.7,9.8v47.5c0,4.4-0.2,7.7-0.7,9.8c-0.4,1.9-1.2,3.4-2.3,4.7c0.1,0,0.1,0,0.2,0
			c2.8-0.1,5.2-0.6,7.3-1.3c2.4-0.9,4.3-2.3,5.8-4.3c1-1.3,1.9-2.8,2.5-4.5c0.1-0.2,0.1-0.3,0.2-0.5c0.4-1.1,0.8-2.5,1.2-4V198h11.5
			c8.2,0,14.3,1.6,18.2,4.8c2.1,1.7,3.8,4.2,5,7.4c1.2,3.2,1.9,6.7,1.9,10.4c0,8.5-5,14.3-6,15.5c-7.3,8.5-17.6,9-19.3,9
			c0.7,0,14.2-0.6,23-2.4c2.5-0.5,5.8-1.4,9.1-3.7c2.8-2,5-4.6,6.5-7.8c1.6-3.2,2.4-6.8,2.4-10.7C563.8,216.5,563,212.9,561.5,209.6
			z M533.8,192.3c-1.2,0.8-2.4,1.5-3.8,1.9c-1.4,0.5-3.2,0.9-5.5,1.2c-2.6,0.3-5.2,0.5-7.6,0.5h-5.2v-38.3h6c4.6,0,8,0.3,10.3,0.8
			c2.3,0.5,4.3,1.5,6,2.9c2,1.6,3.6,3.9,4.9,6.9c1.2,2.9,1.8,6,1.8,9.3c0,3.1-0.6,5.9-1.8,8.5C537.6,188.6,535.9,190.7,533.8,192.3z
			"/>
		<path class="st6" d="M517.1,227.5l-0.4,14l-0.1,3.9h-52.2v-1c2.9,0,5.2-0.8,6.8-2.5c0.9-0.9,1.5-2.1,1.9-3.6
			c0.3-1.4,0.5-3.6,0.5-6.6v-32.2c0-3.1-0.2-5.4-0.5-6.8c-0.4-1.5-1-2.7-2-3.6c-0.8-0.8-1.7-1.3-2.7-1.7c-1-0.3-2.3-0.6-3.9-0.6v-1
			h27.9v1c-1.6,0.1-2.9,0.3-3.9,0.7c-1,0.3-1.9,0.9-2.7,1.7c-1,1-1.7,2.2-2,3.6c-0.3,1.5-0.5,3.7-0.5,6.8v25.2
			c0,3.9,0.1,6.8,0.3,8.6c0.2,1.9,0.6,3.4,1.2,4.6c1,2.1,2.5,3.6,4.5,4.6c2,1,4.7,1.5,8,1.5c0.5,0,0.9,0,1.3,0c0.1,0,0.1,0,0.2,0
			c2.8-0.1,5.2-0.6,7.3-1.3c2.4-0.9,4.3-2.3,5.8-4.3c1-1.3,1.9-2.8,2.5-4.5c0.1-0.2,0.1-0.3,0.2-0.5c0.4-1.1,0.8-2.5,1.2-4
			c0.2-0.6,0.3-1.3,0.4-2L517.1,227.5z"/>
	</g>
</g>
<g class="st1">
	<g class="st3">
		<path class="st6" d="M462.1,592.5c-1.5-3.3-3.7-6.1-6.4-8.3c-1.8-1.5-3.9-2.6-6.2-3.4c-2.3-0.8-5.5-1.6-9.6-2.3
			c3-1.1,5.3-2,6.9-2.9c1.6-0.9,3-2,4.3-3.3c3.5-3.6,5.2-8.2,5.2-13.9c0-3.5-0.8-6.6-2.3-9.4c-1.5-2.8-3.7-5-6.5-6.8
			c-3.2-1.9-7.3-3.1-12.2-3.5c-1.3-0.1-4.1-0.1-8.4-0.1h-42.3v1.5c2.4,0.1,4.4,0.5,6,1c1.5,0.6,2.9,1.5,4.1,2.7
			c1.4,1.4,2.3,3.1,2.8,5.2c0.5,2.1,0.7,5.4,0.7,9.8v47.5c0,4.4-0.2,7.7-0.7,9.8c-0.4,1.9-1.2,3.4-2.3,4.7c0.1,0,0.1,0,0.2,0
			c2.8-0.1,5.2-0.6,7.3-1.3c2.4-0.9,4.3-2.3,5.8-4.3c1-1.3,1.9-2.8,2.5-4.5c0.1-0.2,0.1-0.3,0.2-0.5c0.4-1.1,0.8-2.5,1.2-4v-25.4
			h11.5c8.2,0,14.3,1.6,18.2,4.8c2.1,1.7,3.8,4.2,5,7.4c1.2,3.2,1.9,6.7,1.9,10.4c0,8.5-5,14.3-6,15.5c-7.3,8.5-17.6,9-19.3,9
			c0.7,0,14.2-0.6,23-2.4c2.5-0.5,5.8-1.4,9.1-3.7c2.8-2,5-4.6,6.5-7.8c1.6-3.2,2.4-6.8,2.4-10.7
			C464.4,599.4,463.7,595.8,462.1,592.5z M434.4,575.2c-1.2,0.8-2.4,1.5-3.8,1.9c-1.4,0.5-3.2,0.9-5.5,1.2c-2.6,0.3-5.2,0.5-7.6,0.5
			h-5.2v-38.3h6c4.6,0,8,0.3,10.3,0.8c2.3,0.5,4.3,1.5,6,2.9c2,1.6,3.6,3.9,4.9,6.9c1.2,2.9,1.8,6,1.8,9.3c0,3.1-0.6,5.9-1.8,8.5
			C438.3,571.5,436.6,573.6,434.4,575.2z"/>
		<path class="st6" d="M417.8,610.4l-0.4,14l-0.1,3.9H365v-1c2.9,0,5.2-0.8,6.8-2.5c0.9-0.9,1.5-2.1,1.9-3.6
			c0.3-1.4,0.5-3.6,0.5-6.6v-32.2c0-3.1-0.2-5.4-0.5-6.8c-0.4-1.5-1-2.7-2-3.6c-0.8-0.8-1.7-1.3-2.7-1.7c-1-0.3-2.3-0.6-3.9-0.6v-1
			h27.9v1c-1.6,0.1-2.9,0.3-3.9,0.7c-1,0.3-1.9,0.9-2.7,1.7c-1,1-1.7,2.2-2,3.6c-0.3,1.5-0.5,3.7-0.5,6.8v25.2
			c0,3.9,0.1,6.8,0.3,8.6c0.2,1.9,0.6,3.4,1.2,4.6c1,2.1,2.5,3.6,4.5,4.6c2,1,4.7,1.5,8,1.5c0.5,0,0.9,0,1.3,0c0.1,0,0.1,0,0.2,0
			c2.8-0.1,5.2-0.6,7.3-1.3c2.4-0.9,4.3-2.3,5.8-4.3c1-1.3,1.9-2.8,2.5-4.5c0.1-0.2,0.1-0.3,0.2-0.5c0.4-1.1,0.8-2.5,1.2-4
			c0.2-0.6,0.3-1.3,0.4-2L417.8,610.4z"/>
	</g>
	<rect x="341.9" y="510.6" class="st7" width="145.7" height="145.7"/>
</g>
<g>
	<g class="st1">
		<g class="st3">
			<path class="st4" d="M1107.6,584.8c-2-4.4-4.8-8-8.4-10.9c-2.4-1.9-5.1-3.4-8.1-4.5c-3-1.1-7.2-2.1-12.6-3c3.9-1.4,6.9-2.7,9-3.8
				c2.1-1.2,3.9-2.6,5.6-4.3c4.6-4.7,6.8-10.8,6.8-18.1c0-4.6-1-8.7-3-12.3c-2-3.7-4.8-6.6-8.5-8.9c-4.2-2.5-9.5-4-16-4.6
				c-1.7-0.1-5.4-0.2-11-0.2H1006v1.9c3.2,0.2,5.8,0.6,7.8,1.3c2,0.7,3.8,1.9,5.3,3.5c1.8,1.8,3,4.1,3.6,6.8c0.6,2.8,0.9,7,0.9,12.8
				v62.2c0,5.8-0.3,10.1-0.9,12.8c-0.5,2.4-1.6,4.5-3,6.2c0.1,0,0.1,0,0.2,0c3.7-0.1,6.9-0.7,9.5-1.8c3.1-1.2,5.7-3.1,7.6-5.6
				c1.3-1.7,2.4-3.7,3.3-5.8c0.1-0.2,0.2-0.4,0.2-0.6c0.5-1.5,1.1-3.2,1.5-5.3v-33.3h15.1c10.8,0,18.7,2.1,23.8,6.2
				c2.8,2.2,4.9,5.5,6.6,9.7c1.6,4.2,2.4,8.7,2.4,13.6c0,11.2-6.6,18.7-7.9,20.2c-9.5,11.2-23,11.8-25.3,11.8
				c0.9,0,18.5-0.7,30.1-3.1c3.2-0.7,7.6-1.8,11.9-4.8c3.7-2.6,6.5-6,8.6-10.3c2.1-4.2,3.1-8.9,3.1-14
				C1110.6,593.8,1109.6,589.1,1107.6,584.8z M1071.3,562.1c-1.5,1.1-3.2,1.9-5,2.5c-1.8,0.6-4.2,1.2-7.2,1.6
				c-3.4,0.5-6.8,0.7-10,0.7h-6.8v-50.1h7.8c6,0,10.5,0.3,13.5,1c3,0.7,5.6,1.9,7.9,3.8c2.6,2.1,4.8,5.1,6.4,9
				c1.6,3.9,2.4,7.9,2.4,12.2c0,4.1-0.8,7.7-2.3,11.1C1076.3,557.2,1074.1,560,1071.3,562.1z"/>
			<path class="st4" d="M1049.5,608.2l-0.6,18.3l-0.2,5.2h-68.3v-1.4c3.9,0,6.8-1.1,8.9-3.3c1.2-1.2,2-2.8,2.4-4.7
				c0.4-1.9,0.7-4.8,0.7-8.7v-42.2c0-4-0.2-7-0.7-9c-0.5-1.9-1.4-3.5-2.7-4.7c-1.1-1-2.3-1.7-3.6-2.2c-1.3-0.5-3-0.7-5.1-0.8v-1.3
				h36.6v1.3c-2.1,0.1-3.8,0.4-5.1,0.9c-1.3,0.5-2.5,1.2-3.5,2.2c-1.3,1.3-2.2,2.8-2.6,4.7c-0.5,1.9-0.7,4.9-0.7,8.9v33
				c0,5.1,0.1,8.8,0.4,11.3c0.3,2.5,0.8,4.5,1.5,6.1c1.3,2.7,3.3,4.8,5.9,6c2.6,1.3,6.1,1.9,10.5,1.9c0.6,0,1.2,0,1.7,0
				c0.1,0,0.1,0,0.2,0c3.7-0.1,6.9-0.7,9.5-1.8c3.1-1.2,5.7-3.1,7.6-5.6c1.3-1.7,2.4-3.7,3.3-5.8c0.1-0.2,0.2-0.4,0.2-0.6
				c0.5-1.5,1.1-3.2,1.5-5.3c0.2-0.8,0.4-1.7,0.6-2.7L1049.5,608.2z"/>
		</g>
	</g>
	<g class="st1">
		<path class="st8" d="M1126.6,386.3h13.8v49.6h24.2v11.6h-38V386.3z"/>
		<path class="st8" d="M1170,424.2c0-15.1,10.8-24.4,22-24.4c13.3,0,19.8,9.6,19.8,22.4c0,2.5-0.3,5-0.6,6.1h-27.9
			c1.2,6.8,5.9,9.9,12.1,9.9c3.5,0,6.7-1.1,10.1-3l4.6,8.3c-4.8,3.3-11,5.2-16.5,5.2C1180.3,448.6,1170,439.6,1170,424.2z
			 M1200,419.1c0-5.1-2.2-8.8-7.7-8.8c-4.4,0-8.1,2.9-9.1,8.8H1200z"/>
		<path class="st8" d="M1218.1,434.6c0-9.8,7.8-15.1,26.2-17.1c-0.3-4.1-2.3-6.7-7.4-6.7c-3.9,0-7.8,1.6-12.3,4.2l-4.9-9.1
			c5.9-3.6,12.6-6.1,19.9-6.1c11.9,0,18.5,6.8,18.5,21.1v26.6h-11.3l-1-4.8h-0.3c-3.9,3.4-8.3,5.9-13.6,5.9
			C1223.5,448.6,1218.1,442.4,1218.1,434.6z M1244.4,434v-8.1c-9.8,1.3-13,4.1-13,7.7c0,3,2.1,4.5,5.3,4.5
			C1239.8,437.9,1241.9,436.4,1244.4,434z"/>
		<path class="st8" d="M1269.8,400.9h11.3l1,8.1h0.3c3.4-6.2,8.5-9.3,13.2-9.3c2.7,0,4.2,0.3,5.6,0.9l-2.3,11.9
			c-1.7-0.4-3-0.8-5-0.8c-3.5,0-7.8,2.3-10.3,8.6v27h-13.8V400.9z"/>
		<path class="st8" d="M1307.2,400.9h11.3l1,5.9h0.3c3.9-3.8,8.6-7,15-7c10.1,0,14.5,7.2,14.5,18.8v28.9h-13.8v-27.2
			c0-6.7-1.8-8.8-5.8-8.8c-3.5,0-5.6,1.6-8.6,4.5v31.4h-13.8V400.9z"/>
		<path class="st8" d="M1362.1,386.3h21c12.7,0,22.6,3.5,22.6,15.2c0,5.5-3.1,11.3-8.1,13.2v0.4c6.3,1.6,11.1,6.2,11.1,14.4
			c0,12.5-10.5,18-23.8,18h-22.7V386.3z M1382.4,410.8c6.7,0,9.7-2.8,9.7-7.3c0-4.7-3.1-6.5-9.6-6.5h-6.6v13.8H1382.4z
			 M1383.7,436.8c7.5,0,11.4-2.7,11.4-8.3c0-5.4-3.8-7.6-11.4-7.6h-7.7v15.8H1383.7z"/>
		<path class="st8" d="M1415.1,424.2c0-15.5,10.9-24.4,22.7-24.4c11.8,0,22.7,9,22.7,24.4c0,15.5-10.9,24.4-22.7,24.4
			C1426,448.6,1415.1,439.7,1415.1,424.2z M1446.3,424.2c0-8.1-2.8-13.3-8.5-13.3c-5.7,0-8.5,5.2-8.5,13.3c0,8.1,2.8,13.3,8.5,13.3
			C1443.5,437.5,1446.3,432.3,1446.3,424.2z"/>
		<path class="st8" d="M1465.3,400.9h13.7l4.5,21.6c0.8,4.6,1.3,9.1,2.1,13.8h0.4c0.8-4.7,1.6-9.4,2.8-13.8l5.1-21.6h12l5.2,21.6
			c1.1,4.6,1.9,9.1,2.9,13.8h0.4c0.8-4.7,1.3-9.2,2.1-13.8l4.4-21.6h12.8l-11.1,46.6h-16.2l-4.3-18.6c-0.9-4.3-1.6-8.6-2.5-13.6
			h-0.4c-0.8,5-1.5,9.3-2.4,13.7l-4.1,18.6H1477L1465.3,400.9z"/>
		<path class="st8" d="M1542,433v-51.3h13.8v51.9c0,3,1.4,3.9,2.5,3.9c0.5,0,0.9,0,1.7-0.2l1.6,10.2c-1.5,0.7-3.8,1.1-6.9,1.1
			C1545.2,448.6,1542,442.4,1542,433z"/>
	</g>
	<g class="st1">
		<path class="st8" d="M1126.6,544h13.8v49.6h24.2v11.6h-38V544z"/>
		<path class="st8" d="M1170,582c0-15.1,10.8-24.4,22-24.4c13.3,0,19.8,9.6,19.8,22.4c0,2.5-0.3,5-0.6,6.1h-27.9
			c1.2,6.8,5.9,9.9,12.1,9.9c3.5,0,6.7-1.1,10.1-3l4.6,8.3c-4.8,3.3-11,5.2-16.5,5.2C1180.3,606.4,1170,597.4,1170,582z M1200,576.8
			c0-5.1-2.2-8.8-7.7-8.8c-4.4,0-8.1,2.9-9.1,8.8H1200z"/>
		<path class="st8" d="M1218.1,592.3c0-9.8,7.8-15.1,26.2-17.1c-0.3-4.1-2.3-6.7-7.4-6.7c-3.9,0-7.8,1.6-12.3,4.2l-4.9-9.1
			c5.9-3.6,12.6-6.1,19.9-6.1c11.9,0,18.5,6.8,18.5,21.1v26.6h-11.3l-1-4.8h-0.3c-3.9,3.4-8.3,5.9-13.6,5.9
			C1223.5,606.4,1218.1,600.2,1218.1,592.3z M1244.4,591.7v-8.1c-9.8,1.3-13,4.1-13,7.7c0,3,2.1,4.5,5.3,4.5
			C1239.8,595.7,1241.9,594.1,1244.4,591.7z"/>
		<path class="st8" d="M1269.8,558.6h11.3l1,8.1h0.3c3.4-6.2,8.5-9.3,13.2-9.3c2.7,0,4.2,0.3,5.6,0.9l-2.3,11.9
			c-1.7-0.4-3-0.8-5-0.8c-3.5,0-7.8,2.3-10.3,8.6v27h-13.8V558.6z"/>
		<path class="st8" d="M1307.2,558.6h11.3l1,5.9h0.3c3.9-3.8,8.6-7,15-7c10.1,0,14.5,7.2,14.5,18.8v28.9h-13.8v-27.2
			c0-6.7-1.8-8.8-5.8-8.8c-3.5,0-5.6,1.6-8.6,4.5v31.4h-13.8V558.6z"/>
		<path class="st8" d="M1362.1,544h21c12.7,0,22.6,3.5,22.6,15.2c0,5.5-3.1,11.3-8.1,13.2v0.4c6.3,1.6,11.1,6.2,11.1,14.4
			c0,12.5-10.5,18-23.8,18h-22.7V544z M1382.4,568.5c6.7,0,9.7-2.8,9.7-7.3c0-4.7-3.1-6.5-9.6-6.5h-6.6v13.8H1382.4z M1383.7,594.6
			c7.5,0,11.4-2.7,11.4-8.3c0-5.4-3.8-7.6-11.4-7.6h-7.7v15.8H1383.7z"/>
		<path class="st8" d="M1415.1,582c0-15.5,10.9-24.4,22.7-24.4c11.8,0,22.7,9,22.7,24.4c0,15.5-10.9,24.4-22.7,24.4
			C1426,606.4,1415.1,597.4,1415.1,582z M1446.3,582c0-8.1-2.8-13.3-8.5-13.3c-5.7,0-8.5,5.2-8.5,13.3c0,8.1,2.8,13.3,8.5,13.3
			C1443.5,595.2,1446.3,590,1446.3,582z"/>
		<path class="st8" d="M1465.3,558.6h13.7l4.5,21.6c0.8,4.6,1.3,9.1,2.1,13.8h0.4c0.8-4.7,1.6-9.4,2.8-13.8l5.1-21.6h12l5.2,21.6
			c1.1,4.6,1.9,9.1,2.9,13.8h0.4c0.8-4.7,1.3-9.2,2.1-13.8l4.4-21.6h12.8l-11.1,46.6h-16.2l-4.3-18.6c-0.9-4.3-1.6-8.6-2.5-13.6
			h-0.4c-0.8,5-1.5,9.3-2.4,13.7l-4.1,18.6H1477L1465.3,558.6z"/>
		<path class="st8" d="M1542,590.8v-51.3h13.8v51.9c0,3,1.4,3.9,2.5,3.9c0.5,0,0.9,0,1.7-0.2l1.6,10.2c-1.5,0.7-3.8,1.1-6.9,1.1
			C1545.2,606.4,1542,600.2,1542,590.8z"/>
	</g>
	<g class="st1">
		<path class="st8" d="M1126.6,706.4h13.8V756h24.2v11.6h-38V706.4z"/>
		<path class="st8" d="M1170,744.3c0-15.1,10.8-24.4,22-24.4c13.3,0,19.8,9.6,19.8,22.4c0,2.5-0.3,5-0.6,6.1h-27.9
			c1.2,6.8,5.9,9.9,12.1,9.9c3.5,0,6.7-1.1,10.1-3l4.6,8.3c-4.8,3.3-11,5.2-16.5,5.2C1180.3,768.7,1170,759.7,1170,744.3z
			 M1200,739.2c0-5.1-2.2-8.8-7.7-8.8c-4.4,0-8.1,2.9-9.1,8.8H1200z"/>
		<path class="st8" d="M1218.1,754.7c0-9.8,7.8-15.1,26.2-17.1c-0.3-4.1-2.3-6.7-7.4-6.7c-3.9,0-7.8,1.6-12.3,4.2l-4.9-9.1
			c5.9-3.6,12.6-6.1,19.9-6.1c11.9,0,18.5,6.8,18.5,21.1v26.6h-11.3l-1-4.8h-0.3c-3.9,3.4-8.3,5.9-13.6,5.9
			C1223.5,768.7,1218.1,762.5,1218.1,754.7z M1244.4,754.1v-8.1c-9.8,1.3-13,4.1-13,7.7c0,3,2.1,4.5,5.3,4.5
			C1239.8,758,1241.9,756.5,1244.4,754.1z"/>
		<path class="st8" d="M1269.8,721h11.3l1,8.1h0.3c3.4-6.2,8.5-9.3,13.2-9.3c2.7,0,4.2,0.3,5.6,0.9l-2.3,11.9c-1.7-0.4-3-0.8-5-0.8
			c-3.5,0-7.8,2.3-10.3,8.6v27h-13.8V721z"/>
		<path class="st8" d="M1307.2,721h11.3l1,5.9h0.3c3.9-3.8,8.6-7,15-7c10.1,0,14.5,7.2,14.5,18.8v28.9h-13.8v-27.2
			c0-6.7-1.8-8.8-5.8-8.8c-3.5,0-5.6,1.6-8.6,4.5v31.4h-13.8V721z"/>
		<path class="st8" d="M1362.1,706.4h21c12.7,0,22.6,3.5,22.6,15.2c0,5.5-3.1,11.3-8.1,13.2v0.4c6.3,1.6,11.1,6.2,11.1,14.4
			c0,12.5-10.5,18-23.8,18h-22.7V706.4z M1382.4,730.9c6.7,0,9.7-2.8,9.7-7.3c0-4.7-3.1-6.5-9.6-6.5h-6.6v13.8H1382.4z
			 M1383.7,756.9c7.5,0,11.4-2.7,11.4-8.3c0-5.4-3.8-7.6-11.4-7.6h-7.7v15.8H1383.7z"/>
		<path class="st8" d="M1415.1,744.3c0-15.5,10.9-24.4,22.7-24.4c11.8,0,22.7,9,22.7,24.4c0,15.5-10.9,24.4-22.7,24.4
			C1426,768.7,1415.1,759.8,1415.1,744.3z M1446.3,744.3c0-8.1-2.8-13.3-8.5-13.3c-5.7,0-8.5,5.2-8.5,13.3c0,8.1,2.8,13.3,8.5,13.3
			C1443.5,757.6,1446.3,752.4,1446.3,744.3z"/>
		<path class="st8" d="M1465.3,721h13.7l4.5,21.6c0.8,4.6,1.3,9.1,2.1,13.8h0.4c0.8-4.7,1.6-9.4,2.8-13.8l5.1-21.6h12l5.2,21.6
			c1.1,4.6,1.9,9.1,2.9,13.8h0.4c0.8-4.7,1.3-9.2,2.1-13.8l4.4-21.6h12.8l-11.1,46.6h-16.2l-4.3-18.6c-0.9-4.3-1.6-8.6-2.5-13.6
			h-0.4c-0.8,5-1.5,9.3-2.4,13.7l-4.1,18.6H1477L1465.3,721z"/>
		<path class="st8" d="M1542,753.1v-51.3h13.8v51.9c0,3,1.4,3.9,2.5,3.9c0.5,0,0.9,0,1.7-0.2l1.6,10.2c-1.5,0.7-3.8,1.1-6.9,1.1
			C1545.2,768.7,1542,762.5,1542,753.1z"/>
	</g>
	<g class="st1">
		<path class="st2" d="M1096.5,474.5H977.9V355.8h118.6V474.5z M981.5,470.8h111.3V359.5H981.5V470.8z"/>
		<g class="st3">
			<path class="st4" d="M1074.6,422.3c-1.2-2.6-2.9-4.8-5.1-6.6c-1.5-1.2-3.1-2.1-4.9-2.7c-1.8-0.6-4.3-1.2-7.6-1.8
				c2.4-0.8,4.2-1.6,5.4-2.3c1.3-0.7,2.4-1.6,3.4-2.6c2.7-2.8,4.1-6.5,4.1-10.9c0-2.7-0.6-5.2-1.8-7.4c-1.2-2.2-2.9-4-5.1-5.3
				c-2.5-1.5-5.7-2.4-9.6-2.7c-1.1-0.1-3.3-0.1-6.7-0.1h-33.4v1.2c1.9,0.1,3.5,0.4,4.7,0.8c1.2,0.4,2.3,1.2,3.2,2.1
				c1.1,1.1,1.8,2.5,2.2,4.1c0.4,1.7,0.6,4.2,0.6,7.7v37.5c0,3.5-0.2,6.1-0.6,7.7c-0.3,1.5-0.9,2.7-1.8,3.7c0,0,0.1,0,0.1,0
				c2.2-0.1,4.1-0.4,5.7-1.1c1.9-0.7,3.4-1.8,4.6-3.4c0.8-1,1.5-2.2,2-3.5c0-0.1,0.1-0.3,0.1-0.4c0.3-0.9,0.6-2,0.9-3.2v-20h9.1
				c6.5,0,11.3,1.3,14.3,3.8c1.7,1.4,3,3.3,4,5.8c1,2.5,1.5,5.3,1.5,8.2c0,6.7-4,11.3-4.8,12.2c-5.7,6.7-13.9,7.1-15.2,7.1
				c0.5,0,11.2-0.4,18.1-1.9c1.9-0.4,4.6-1.1,7.1-2.9c2.2-1.6,3.9-3.6,5.2-6.2c1.2-2.6,1.9-5.4,1.9-8.5
				C1076.4,427.8,1075.8,424.9,1074.6,422.3z M1052.7,408.7c-0.9,0.6-1.9,1.2-3,1.5c-1.1,0.4-2.6,0.7-4.3,1c-2.1,0.3-4.1,0.4-6,0.4
				h-4.1v-30.2h4.7c3.6,0,6.3,0.2,8.1,0.6c1.8,0.4,3.4,1.2,4.8,2.3c1.6,1.3,2.9,3.1,3.8,5.4c1,2.3,1.4,4.8,1.4,7.4
				c0,2.4-0.5,4.7-1.4,6.7C1055.8,405.7,1054.5,407.4,1052.7,408.7z"/>
			<path class="st4" d="M1039.6,436.4l-0.3,11l-0.1,3.1H998v-0.8c2.3,0,4.1-0.7,5.4-2c0.7-0.7,1.2-1.7,1.5-2.8
				c0.3-1.1,0.4-2.9,0.4-5.2v-25.4c0-2.4-0.1-4.2-0.4-5.4c-0.3-1.2-0.8-2.1-1.6-2.8c-0.6-0.6-1.4-1-2.2-1.3
				c-0.8-0.3-1.8-0.4-3.1-0.5v-0.8h22v0.8c-1.3,0.1-2.3,0.2-3.1,0.5c-0.8,0.3-1.5,0.7-2.1,1.3c-0.8,0.8-1.3,1.7-1.6,2.9
				c-0.3,1.1-0.4,2.9-0.4,5.3v19.9c0,3.1,0.1,5.3,0.2,6.8c0.2,1.5,0.5,2.7,0.9,3.7c0.8,1.7,2,2.9,3.6,3.6c1.6,0.8,3.7,1.2,6.3,1.2
				c0.4,0,0.7,0,1,0c0,0,0.1,0,0.1,0c2.2-0.1,4.1-0.4,5.7-1.1c1.9-0.7,3.4-1.8,4.6-3.4c0.8-1,1.5-2.2,2-3.5c0-0.1,0.1-0.3,0.1-0.4
				c0.3-0.9,0.6-2,0.9-3.2c0.1-0.5,0.2-1,0.4-1.6L1039.6,436.4z"/>
		</g>
	</g>
	<g class="st1">
		<path class="st8" d="M1126.6,244h13.8v49.6h24.2v11.6h-38V244z"/>
		<path class="st8" d="M1170,281.9c0-15.1,10.8-24.4,22-24.4c13.3,0,19.8,9.6,19.8,22.4c0,2.5-0.3,5-0.6,6.1h-27.9
			c1.2,6.8,5.9,9.9,12.1,9.9c3.5,0,6.7-1.1,10.1-3l4.6,8.3c-4.8,3.3-11,5.2-16.5,5.2C1180.3,306.4,1170,297.4,1170,281.9z
			 M1200,276.8c0-5.1-2.2-8.8-7.7-8.8c-4.4,0-8.1,2.9-9.1,8.8H1200z"/>
		<path class="st8" d="M1218.1,292.3c0-9.8,7.8-15.1,26.2-17.1c-0.3-4.1-2.3-6.7-7.4-6.7c-3.9,0-7.8,1.6-12.3,4.2l-4.9-9.1
			c5.9-3.6,12.6-6.1,19.9-6.1c11.9,0,18.5,6.8,18.5,21.1v26.6h-11.3l-1-4.8h-0.3c-3.9,3.4-8.3,5.9-13.6,5.9
			C1223.5,306.4,1218.1,300.1,1218.1,292.3z M1244.4,291.7v-8.1c-9.8,1.3-13,4.1-13,7.7c0,3,2.1,4.5,5.3,4.5
			C1239.8,295.7,1241.9,294.1,1244.4,291.7z"/>
		<path class="st8" d="M1269.8,258.6h11.3l1,8.1h0.3c3.4-6.2,8.5-9.3,13.2-9.3c2.7,0,4.2,0.3,5.6,0.9l-2.3,11.9
			c-1.7-0.4-3-0.8-5-0.8c-3.5,0-7.8,2.3-10.3,8.6v27h-13.8V258.6z"/>
		<path class="st8" d="M1307.2,258.6h11.3l1,5.9h0.3c3.9-3.8,8.6-7,15-7c10.1,0,14.5,7.2,14.5,18.8v28.9h-13.8v-27.2
			c0-6.7-1.8-8.8-5.8-8.8c-3.5,0-5.6,1.6-8.6,4.5v31.4h-13.8V258.6z"/>
		<path class="st8" d="M1362.1,244h21c12.7,0,22.6,3.5,22.6,15.2c0,5.5-3.1,11.3-8.1,13.2v0.4c6.3,1.6,11.1,6.2,11.1,14.4
			c0,12.5-10.5,18-23.8,18h-22.7V244z M1382.4,268.5c6.7,0,9.7-2.8,9.7-7.3c0-4.7-3.1-6.5-9.6-6.5h-6.6v13.8H1382.4z M1383.7,294.5
			c7.5,0,11.4-2.7,11.4-8.3c0-5.4-3.8-7.6-11.4-7.6h-7.7v15.8H1383.7z"/>
		<path class="st8" d="M1415.1,281.9c0-15.5,10.9-24.4,22.7-24.4c11.8,0,22.7,9,22.7,24.4c0,15.5-10.9,24.4-22.7,24.4
			C1426,306.4,1415.1,297.4,1415.1,281.9z M1446.3,281.9c0-8.1-2.8-13.3-8.5-13.3c-5.7,0-8.5,5.2-8.5,13.3c0,8.1,2.8,13.3,8.5,13.3
			C1443.5,295.2,1446.3,290,1446.3,281.9z"/>
		<path class="st8" d="M1465.3,258.6h13.7l4.5,21.6c0.8,4.6,1.3,9.1,2.1,13.8h0.4c0.8-4.7,1.6-9.4,2.8-13.8l5.1-21.6h12l5.2,21.6
			c1.1,4.6,1.9,9.1,2.9,13.8h0.4c0.8-4.7,1.3-9.2,2.1-13.8l4.4-21.6h12.8l-11.1,46.6h-16.2l-4.3-18.6c-0.9-4.3-1.6-8.6-2.5-13.6
			h-0.4c-0.8,5-1.5,9.3-2.4,13.7l-4.1,18.6H1477L1465.3,258.6z"/>
		<path class="st8" d="M1542,290.7v-51.3h13.8v51.9c0,3,1.4,3.9,2.5,3.9c0.5,0,0.9,0,1.7-0.2l1.6,10.2c-1.5,0.7-3.8,1.1-6.9,1.1
			C1545.2,306.4,1542,300.2,1542,290.7z"/>
	</g>
	<g class="st1">
		<rect x="979.7" y="215.4" class="st2" width="115" height="115"/>
		<g class="st3">
			<path class="st6" d="M1074.6,280c-1.2-2.6-2.9-4.8-5.1-6.6c-1.5-1.2-3.1-2.1-4.9-2.7c-1.8-0.6-4.3-1.2-7.6-1.8
				c2.4-0.8,4.2-1.6,5.4-2.3c1.3-0.7,2.4-1.6,3.4-2.6c2.7-2.8,4.1-6.5,4.1-10.9c0-2.7-0.6-5.2-1.8-7.4c-1.2-2.2-2.9-4-5.1-5.3
				c-2.5-1.5-5.7-2.4-9.6-2.7c-1.1-0.1-3.3-0.1-6.7-0.1h-33.4v1.2c1.9,0.1,3.5,0.4,4.7,0.8c1.2,0.4,2.3,1.2,3.2,2.1
				c1.1,1.1,1.8,2.5,2.2,4.1c0.4,1.7,0.6,4.2,0.6,7.7V291c0,3.5-0.2,6.1-0.6,7.7c-0.3,1.5-0.9,2.7-1.8,3.7c0,0,0.1,0,0.1,0
				c2.2-0.1,4.1-0.4,5.7-1.1c1.9-0.7,3.4-1.8,4.6-3.4c0.8-1,1.5-2.2,2-3.5c0-0.1,0.1-0.3,0.1-0.4c0.3-0.9,0.6-2,0.9-3.2v-20h9.1
				c6.5,0,11.3,1.3,14.3,3.8c1.7,1.4,3,3.3,4,5.8c1,2.5,1.5,5.3,1.5,8.2c0,6.7-4,11.3-4.8,12.2c-5.7,6.7-13.9,7.1-15.2,7.1
				c0.5,0,11.2-0.4,18.1-1.9c1.9-0.4,4.6-1.1,7.1-2.9c2.2-1.6,3.9-3.6,5.2-6.2c1.2-2.6,1.9-5.4,1.9-8.5
				C1076.4,285.5,1075.8,282.7,1074.6,280z M1052.7,266.4c-0.9,0.6-1.9,1.2-3,1.5c-1.1,0.4-2.6,0.7-4.3,1c-2.1,0.3-4.1,0.4-6,0.4
				h-4.1v-30.2h4.7c3.6,0,6.3,0.2,8.1,0.6c1.8,0.4,3.4,1.2,4.8,2.3c1.6,1.3,2.9,3.1,3.8,5.4c1,2.3,1.4,4.8,1.4,7.4
				c0,2.4-0.5,4.7-1.4,6.7C1055.8,263.4,1054.5,265.1,1052.7,266.4z"/>
			<path class="st6" d="M1039.6,294.1l-0.3,11l-0.1,3.1H998v-0.8c2.3,0,4.1-0.7,5.4-2c0.7-0.7,1.2-1.7,1.5-2.8
				c0.3-1.1,0.4-2.9,0.4-5.2V272c0-2.4-0.1-4.2-0.4-5.4c-0.3-1.2-0.8-2.1-1.6-2.8c-0.6-0.6-1.4-1-2.2-1.3c-0.8-0.3-1.8-0.4-3.1-0.5
				v-0.8h22v0.8c-1.3,0.1-2.3,0.2-3.1,0.5c-0.8,0.3-1.5,0.7-2.1,1.3c-0.8,0.8-1.3,1.7-1.6,2.9c-0.3,1.1-0.4,2.9-0.4,5.3v19.9
				c0,3.1,0.1,5.3,0.2,6.8c0.2,1.5,0.5,2.7,0.9,3.7c0.8,1.7,2,2.9,3.6,3.6c1.6,0.8,3.7,1.2,6.3,1.2c0.4,0,0.7,0,1,0c0,0,0.1,0,0.1,0
				c2.2-0.1,4.1-0.4,5.7-1.1c1.9-0.7,3.4-1.8,4.6-3.4c0.8-1,1.5-2.2,2-3.5c0-0.1,0.1-0.3,0.1-0.4c0.3-0.9,0.6-2,0.9-3.2
				c0.1-0.5,0.2-1,0.4-1.6L1039.6,294.1z"/>
		</g>
	</g>
	<g class="st1">
		<path class="st8" d="M1126.6,90.8h13.8v49.6h24.2V152h-38V90.8z"/>
		<path class="st8" d="M1170,128.7c0-15.1,10.8-24.4,22-24.4c13.3,0,19.8,9.6,19.8,22.4c0,2.5-0.3,5-0.6,6.1h-27.9
			c1.2,6.8,5.9,9.9,12.1,9.9c3.5,0,6.7-1.1,10.1-3l4.6,8.3c-4.8,3.3-11,5.2-16.5,5.2C1180.3,153.1,1170,144.1,1170,128.7z
			 M1200,123.6c0-5.1-2.2-8.8-7.7-8.8c-4.4,0-8.1,2.9-9.1,8.8H1200z"/>
		<path class="st8" d="M1218.1,139.1c0-9.8,7.8-15.1,26.2-17.1c-0.3-4.1-2.3-6.7-7.4-6.7c-3.9,0-7.8,1.6-12.3,4.2l-4.9-9.1
			c5.9-3.6,12.6-6.1,19.9-6.1c11.9,0,18.5,6.8,18.5,21.1V152h-11.3l-1-4.8h-0.3c-3.9,3.4-8.3,5.9-13.6,5.9
			C1223.5,153.1,1218.1,146.9,1218.1,139.1z M1244.4,138.5v-8.1c-9.8,1.3-13,4.1-13,7.7c0,3,2.1,4.5,5.3,4.5
			C1239.8,142.5,1241.9,140.9,1244.4,138.5z"/>
		<path class="st8" d="M1269.8,105.4h11.3l1,8.1h0.3c3.4-6.2,8.5-9.3,13.2-9.3c2.7,0,4.2,0.3,5.6,0.9l-2.3,11.9
			c-1.7-0.4-3-0.8-5-0.8c-3.5,0-7.8,2.3-10.3,8.6v27h-13.8V105.4z"/>
		<path class="st8" d="M1307.2,105.4h11.3l1,5.9h0.3c3.9-3.8,8.6-7,15-7c10.1,0,14.5,7.2,14.5,18.8V152h-13.8v-27.2
			c0-6.7-1.8-8.8-5.8-8.8c-3.5,0-5.6,1.6-8.6,4.5V152h-13.8V105.4z"/>
		<path class="st8" d="M1362.1,90.8h21c12.7,0,22.6,3.5,22.6,15.2c0,5.5-3.1,11.3-8.1,13.2v0.4c6.3,1.6,11.1,6.2,11.1,14.4
			c0,12.5-10.5,18-23.8,18h-22.7V90.8z M1382.4,115.3c6.7,0,9.7-2.8,9.7-7.3c0-4.7-3.1-6.5-9.6-6.5h-6.6v13.8H1382.4z M1383.7,141.3
			c7.5,0,11.4-2.7,11.4-8.3c0-5.4-3.8-7.6-11.4-7.6h-7.7v15.8H1383.7z"/>
		<path class="st8" d="M1415.1,128.7c0-15.5,10.9-24.4,22.7-24.4c11.8,0,22.7,9,22.7,24.4c0,15.5-10.9,24.4-22.7,24.4
			C1426,153.1,1415.1,144.2,1415.1,128.7z M1446.3,128.7c0-8.1-2.8-13.3-8.5-13.3c-5.7,0-8.5,5.2-8.5,13.3c0,8.1,2.8,13.3,8.5,13.3
			C1443.5,142,1446.3,136.8,1446.3,128.7z"/>
		<path class="st8" d="M1465.3,105.4h13.7l4.5,21.6c0.8,4.6,1.3,9.1,2.1,13.8h0.4c0.8-4.7,1.6-9.4,2.8-13.8l5.1-21.6h12l5.2,21.6
			c1.1,4.6,1.9,9.1,2.9,13.8h0.4c0.8-4.7,1.3-9.2,2.1-13.8l4.4-21.6h12.8l-11.1,46.6h-16.2l-4.3-18.6c-0.9-4.3-1.6-8.6-2.5-13.6
			h-0.4c-0.8,5-1.5,9.3-2.4,13.7l-4.1,18.6H1477L1465.3,105.4z"/>
		<path class="st8" d="M1542,137.5V86.2h13.8v51.9c0,3,1.4,3.9,2.5,3.9c0.5,0,0.9,0,1.7-0.2l1.6,10.2c-1.5,0.7-3.8,1.1-6.9,1.1
			C1545.2,153.1,1542,147,1542,137.5z"/>
	</g>
	<g class="st1">
		<path class="st2" d="M1090,177.2H984.4c-2.6,0-4.7-2.1-4.7-4.7V66.8c0-2.6,2.1-4.7,4.7-4.7H1090c2.6,0,4.7,2.1,4.7,4.7v105.7
			C1094.7,175.1,1092.6,177.2,1090,177.2z"/>
		<g class="st3">
			<path class="st6" d="M1074.6,126.8c-1.2-2.6-2.9-4.8-5.1-6.6c-1.5-1.2-3.1-2.1-4.9-2.7c-1.8-0.6-4.3-1.2-7.6-1.8
				c2.4-0.8,4.2-1.6,5.4-2.3c1.3-0.7,2.4-1.6,3.4-2.6c2.7-2.8,4.1-6.5,4.1-10.9c0-2.7-0.6-5.2-1.8-7.4c-1.2-2.2-2.9-4-5.1-5.3
				c-2.5-1.5-5.7-2.4-9.6-2.7c-1.1-0.1-3.3-0.1-6.7-0.1h-33.4v1.2c1.9,0.1,3.5,0.4,4.7,0.8c1.2,0.4,2.3,1.2,3.2,2.1
				c1.1,1.1,1.8,2.5,2.2,4.1c0.4,1.7,0.6,4.2,0.6,7.7v37.5c0,3.5-0.2,6.1-0.6,7.7c-0.3,1.5-0.9,2.7-1.8,3.7c0,0,0.1,0,0.1,0
				c2.2-0.1,4.1-0.4,5.7-1.1c1.9-0.7,3.4-1.8,4.6-3.4c0.8-1,1.5-2.2,2-3.5c0-0.1,0.1-0.3,0.1-0.4c0.3-0.9,0.6-2,0.9-3.2v-20h9.1
				c6.5,0,11.3,1.3,14.3,3.8c1.7,1.4,3,3.3,4,5.8c1,2.5,1.5,5.3,1.5,8.2c0,6.7-4,11.3-4.8,12.2c-5.7,6.7-13.9,7.1-15.2,7.1
				c0.5,0,11.2-0.4,18.1-1.9c1.9-0.4,4.6-1.1,7.1-2.9c2.2-1.6,3.9-3.6,5.2-6.2c1.2-2.6,1.9-5.4,1.9-8.5
				C1076.4,132.3,1075.8,129.5,1074.6,126.8z M1052.7,113.2c-0.9,0.6-1.9,1.2-3,1.5c-1.1,0.4-2.6,0.7-4.3,1c-2.1,0.3-4.1,0.4-6,0.4
				h-4.1V85.8h4.7c3.6,0,6.3,0.2,8.1,0.6c1.8,0.4,3.4,1.2,4.8,2.3c1.6,1.3,2.9,3.1,3.8,5.4c1,2.3,1.4,4.8,1.4,7.4
				c0,2.4-0.5,4.7-1.4,6.7C1055.8,110.2,1054.5,111.9,1052.7,113.2z"/>
			<path class="st6" d="M1039.6,140.9l-0.3,11l-0.1,3.1H998v-0.8c2.3,0,4.1-0.7,5.4-2c0.7-0.7,1.2-1.7,1.5-2.8
				c0.3-1.1,0.4-2.9,0.4-5.2v-25.4c0-2.4-0.1-4.2-0.4-5.4c-0.3-1.2-0.8-2.1-1.6-2.8c-0.6-0.6-1.4-1-2.2-1.3
				c-0.8-0.3-1.8-0.4-3.1-0.5V108h22v0.8c-1.3,0.1-2.3,0.2-3.1,0.5c-0.8,0.3-1.5,0.7-2.1,1.3c-0.8,0.8-1.3,1.7-1.6,2.9
				c-0.3,1.1-0.4,2.9-0.4,5.3v19.9c0,3.1,0.1,5.3,0.2,6.8c0.2,1.5,0.5,2.7,0.9,3.7c0.8,1.7,2,2.9,3.6,3.6c1.6,0.8,3.7,1.2,6.3,1.2
				c0.4,0,0.7,0,1,0c0,0,0.1,0,0.1,0c2.2-0.1,4.1-0.4,5.7-1.1c1.9-0.7,3.4-1.8,4.6-3.4c0.8-1,1.5-2.2,2-3.5c0-0.1,0.1-0.3,0.1-0.4
				c0.3-0.9,0.6-2,0.9-3.2c0.1-0.5,0.2-1,0.4-1.6L1039.6,140.9z"/>
		</g>
	</g>
	<g class="st1">
		<path class="st2" d="M1079.8,794h-85.2c-8.9,0-16.1-7.2-16.1-16.1v-85.2c0-8.9,7.2-16.1,16.1-16.1h85.2c8.9,0,16.1,7.2,16.1,16.1
			v85.2C1095.9,786.8,1088.7,794,1079.8,794z"/>
		<g class="st3">
			<path class="st6" d="M1067.7,741.1c-1-2.1-2.4-3.9-4.1-5.4c-1.2-0.9-2.5-1.7-4-2.2c-1.5-0.5-3.5-1-6.2-1.5
				c1.9-0.7,3.4-1.3,4.4-1.9c1-0.6,1.9-1.3,2.7-2.1c2.2-2.3,3.4-5.3,3.4-8.9c0-2.2-0.5-4.3-1.5-6.1c-1-1.8-2.4-3.2-4.2-4.4
				c-2.1-1.2-4.7-2-7.8-2.2c-0.9-0.1-2.7-0.1-5.4-0.1h-27.2v1c1.6,0.1,2.9,0.3,3.9,0.7c1,0.4,1.9,0.9,2.6,1.7c0.9,0.9,1.5,2,1.8,3.4
				c0.3,1.4,0.5,3.5,0.5,6.3V750c0,2.8-0.2,4.9-0.5,6.3c-0.3,1.2-0.8,2.2-1.5,3c0,0,0.1,0,0.1,0c1.8-0.1,3.4-0.4,4.7-0.9
				c1.5-0.6,2.8-1.5,3.8-2.7c0.7-0.8,1.2-1.8,1.6-2.9c0-0.1,0.1-0.2,0.1-0.3c0.3-0.7,0.5-1.6,0.8-2.6v-16.3h7.4
				c5.3,0,9.2,1,11.7,3.1c1.4,1.1,2.4,2.7,3.2,4.7c0.8,2.1,1.2,4.3,1.2,6.7c0,5.5-3.2,9.2-3.9,9.9c-4.7,5.5-11.3,5.8-12.4,5.8
				c0.4,0,9.1-0.4,14.8-1.5c1.6-0.3,3.8-0.9,5.8-2.4c1.8-1.3,3.2-2.9,4.2-5c1-2.1,1.5-4.4,1.5-6.9
				C1069.2,745.6,1068.7,743.2,1067.7,741.1z M1049.9,730c-0.7,0.5-1.6,0.9-2.5,1.2c-0.9,0.3-2.1,0.6-3.5,0.8
				c-1.7,0.2-3.3,0.3-4.9,0.3h-3.4v-24.6h3.9c3,0,5.2,0.2,6.6,0.5c1.5,0.3,2.7,1,3.9,1.9c1.3,1.1,2.3,2.5,3.1,4.4
				c0.8,1.9,1.2,3.9,1.2,6c0,2-0.4,3.8-1.1,5.5C1052.3,727.6,1051.3,728.9,1049.9,730z"/>
			<path class="st6" d="M1039.1,752.6l-0.3,9l-0.1,2.5h-33.6v-0.7c1.9,0,3.4-0.5,4.4-1.6c0.6-0.6,1-1.4,1.2-2.3
				c0.2-0.9,0.3-2.3,0.3-4.3v-20.7c0-2-0.1-3.5-0.4-4.4c-0.2-0.9-0.7-1.7-1.3-2.3c-0.5-0.5-1.1-0.8-1.8-1.1
				c-0.6-0.2-1.5-0.4-2.5-0.4v-0.6h18v0.6c-1,0.1-1.9,0.2-2.5,0.4c-0.7,0.2-1.2,0.6-1.7,1.1c-0.6,0.6-1.1,1.4-1.3,2.3
				c-0.2,0.9-0.3,2.4-0.3,4.4v16.2c0,2.5,0.1,4.3,0.2,5.6c0.1,1.2,0.4,2.2,0.8,3c0.7,1.3,1.6,2.3,2.9,3c1.3,0.6,3,0.9,5.1,0.9
				c0.3,0,0.6,0,0.9,0c0,0,0.1,0,0.1,0c1.8-0.1,3.4-0.4,4.7-0.9c1.5-0.6,2.8-1.5,3.8-2.7c0.7-0.8,1.2-1.8,1.6-2.9
				c0-0.1,0.1-0.2,0.1-0.3c0.3-0.7,0.5-1.6,0.8-2.6c0.1-0.4,0.2-0.8,0.3-1.3L1039.1,752.6z"/>
		</g>
	</g>
	<g>
		<path class="st9" d="M592.8,452h38v136.4h66.4v31.9H592.8V452z"/>
		<path class="st9" d="M712.2,556.3c0-41.6,29.7-67.2,60.4-67.2c36.5,0,54.6,26.5,54.6,61.5c0,6.8-0.9,13.7-1.6,16.8H749
			c3.4,18.6,16.1,27.1,33.2,27.1c9.7,0,18.4-2.9,27.7-8.4l12.6,22.9c-13.1,9.1-30.3,14.4-45.5,14.4
			C740.5,623.4,712.2,598.7,712.2,556.3z M794.8,542.2c0-14.1-6.1-24.2-21.3-24.2c-12,0-22.3,8-24.9,24.2H794.8z"/>
		<path class="st9" d="M844.5,584.7c0-27,21.5-41.6,72.1-47c-0.8-11.2-6.4-18.5-20.3-18.5c-10.7,0-21.5,4.5-33.9,11.6L849,505.9
			c16.3-9.9,34.6-16.9,54.7-16.9c32.7,0,50.9,18.7,50.9,58v73.2h-31l-2.7-13.1H920c-10.8,9.5-22.9,16.2-37.3,16.2
			C859.4,623.4,844.5,606.3,844.5,584.7z M916.7,583v-22.4c-27,3.6-35.8,11.4-35.8,21c0,8.3,5.7,12.3,14.7,12.3
			C904.2,594,909.9,589.8,916.7,583z"/>
		<path class="st9" d="M986.5,492.2h31l2.7,22.4h0.9c9.3-17.1,23.3-25.5,36.4-25.5c7.3,0,11.6,0.9,15.3,2.6l-6.3,32.8
			c-4.6-1.1-8.3-2.1-13.8-2.1c-9.7,0-21.4,6.2-28.2,23.7v74.2h-38V492.2z"/>
		<path class="st9" d="M1089.4,492.2h31l2.7,16.2h0.9c10.8-10.4,23.7-19.3,41.2-19.3c27.9,0,39.7,19.7,39.7,51.7v79.5h-38v-74.7
			c0-18.4-5-24.2-15.9-24.2c-9.5,0-15.4,4.4-23.7,12.4v86.4h-38V492.2z"/>
		<path class="st9" d="M1240.2,452h57.6c34.9,0,62.1,9.6,62.1,41.7c0,15.1-8.4,31.2-22.2,36.3v1c17.2,4.5,30.5,17.1,30.5,39.6
			c0,34.2-29,49.6-65.6,49.6h-62.4V452z M1296.1,519.4c18.5,0,26.6-7.8,26.6-20c0-13-8.6-18-26.4-18h-18.1v38H1296.1z M1299.5,590.9
			c20.7,0,31.5-7.4,31.5-22.7c0-14.8-10.5-20.8-31.5-20.8h-21.3v43.5H1299.5z"/>
		<path class="st9" d="M1385.9,556.3c0-42.6,30-67.2,62.4-67.2s62.4,24.6,62.4,67.2c0,42.5-30,67.1-62.4,67.1
			S1385.9,598.8,1385.9,556.3z M1471.8,556.3c0-22.2-7.8-36.6-23.5-36.6s-23.5,14.4-23.5,36.6c0,22.2,7.8,36.5,23.5,36.5
			S1471.8,578.4,1471.8,556.3z"/>
		<path class="st9" d="M1524,492.2h37.7l12.3,59.3c2.2,12.6,3.6,25.1,5.8,38.1h1c2.2-13,4.5-25.9,7.6-38.1l14-59.3h33l14.4,59.3
			c3.1,12.6,5.3,25.1,8,38.1h1c2.2-13,3.6-25.4,5.9-38.1l12.2-59.3h35.1l-30.6,128.1h-44.5l-11.8-51.2c-2.3-11.9-4.5-23.7-6.8-37.5
			h-1c-2.2,13.8-4.1,25.7-6.5,37.5l-11.2,51.1h-43.4L1524,492.2z"/>
		<path class="st9" d="M1734.8,580.5V439.4h38V582c0,8.1,3.8,10.7,6.9,10.7c1.5,0,2.5,0,4.6-0.5l4.5,28c-4.2,1.8-10.4,3.2-19.1,3.2
			C1743.7,623.4,1734.8,606.4,1734.8,580.5z"/>
	</g>
	<g>
		<g>
			<path class="st4" d="M347.1,689.4c-87.2,0-158.1-70.9-158.1-158.1S260,373.3,347.1,373.3s158.1,70.9,158.1,158.1
				S434.3,689.4,347.1,689.4z M347.1,382.8c-81.9,0-148.5,66.6-148.5,148.5c0,81.9,66.6,148.5,148.5,148.5s148.5-66.6,148.5-148.5
				C495.6,449.5,429,382.8,347.1,382.8z"/>
			<circle class="st4" cx="347.2" cy="530.2" r="151.4"/>
			<path class="st6" d="M426.7,546.6c-2.6-5.6-6.1-10.3-10.8-14c-3.1-2.4-6.6-4.4-10.4-5.7c-3.8-1.4-9.2-2.6-16.1-3.8
				c5-1.8,8.9-3.4,11.6-4.9c2.7-1.5,5-3.3,7.1-5.6c5.8-6.1,8.8-13.8,8.8-23.3c0-5.8-1.3-11.1-3.8-15.8c-2.6-4.7-6.2-8.5-10.9-11.4
				c-5.4-3.2-12.2-5.2-20.5-5.8c-2.2-0.1-7-0.2-14.2-0.2h-71.1v2.5c4.1,0.2,7.5,0.8,10.1,1.7c2.6,0.9,4.9,2.5,6.8,4.5
				c2.3,2.3,3.9,5.2,4.7,8.8c0.8,3.5,1.2,9,1.2,16.5v79.8c0,7.4-0.4,12.9-1.2,16.5c-0.7,3.1-2,5.8-3.9,7.9c0.1,0,0.2,0,0.3,0
				c4.7-0.2,8.8-0.9,12.2-2.3c4-1.5,7.3-3.9,9.8-7.2c1.7-2.2,3.1-4.7,4.2-7.5c0.1-0.3,0.2-0.5,0.3-0.8c0.7-1.9,1.4-4.2,2-6.8v-42.7
				h19.4c13.9,0,24,2.7,30.5,8c3.5,2.9,6.3,7,8.4,12.4c2.1,5.4,3.1,11.2,3.1,17.5c0,14.3-8.4,24-10.1,26
				c-12.2,14.3-29.6,15.1-32.4,15.2c1.1,0,23.8-0.9,38.6-4c4.1-0.9,9.8-2.3,15.2-6.2c4.7-3.3,8.4-7.7,11-13.1c2.6-5.4,4-11.5,4-18
				C430.6,558.2,429.3,552.2,426.7,546.6z M380.1,517.5c-1.9,1.4-4.1,2.5-6.4,3.2c-2.3,0.8-5.4,1.5-9.3,2.1
				c-4.4,0.6-8.7,0.9-12.8,0.9h-8.8v-64.3H353c7.7,0,13.5,0.4,17.3,1.3c3.8,0.9,7.2,2.5,10.1,4.9c3.4,2.7,6.1,6.6,8.2,11.5
				c2.1,4.9,3.1,10.2,3.1,15.6c0,5.2-1,9.9-3,14.2C386.7,511.3,383.8,514.8,380.1,517.5z"/>
			<path class="st6" d="M352.2,576.6l-0.7,23.5l-0.2,6.6h-87.6v-1.8c4.9,0,8.8-1.4,11.4-4.2c1.5-1.6,2.6-3.6,3.1-6
				c0.6-2.4,0.8-6.1,0.8-11.1v-54.1c0-5.2-0.3-9-0.9-11.5c-0.6-2.5-1.7-4.5-3.4-6.1c-1.4-1.3-2.9-2.2-4.6-2.8
				c-1.7-0.6-3.9-0.9-6.5-1v-1.7h46.9v1.7c-2.7,0.1-4.9,0.5-6.6,1.1c-1.7,0.6-3.2,1.5-4.5,2.8c-1.7,1.6-2.8,3.6-3.4,6.1
				c-0.6,2.4-0.9,6.2-0.9,11.4v42.3c0,6.5,0.2,11.3,0.5,14.5c0.3,3.2,1,5.8,2,7.8c1.7,3.5,4.3,6.1,7.6,7.7c3.4,1.6,7.9,2.5,13.4,2.5
				c0.8,0,1.5,0,2.2,0c0.1,0,0.2,0,0.3,0c4.7-0.2,8.8-0.9,12.2-2.3c4-1.5,7.3-3.9,9.8-7.2c1.7-2.2,3.1-4.7,4.2-7.5
				c0.1-0.3,0.2-0.5,0.3-0.8c0.7-1.9,1.4-4.2,2-6.8c0.3-1.1,0.5-2.2,0.8-3.4L352.2,576.6z"/>
		</g>
	</g>
</g>
<g class="st1">
	<path class="st2" d="M729.5,1036h-38.7c-4.4,0-8-3.6-8-8v-38.7c0-4.4,3.6-8,8-8h38.7c4.4,0,8,3.6,8,8v38.7
		C737.5,1032.4,733.9,1036,729.5,1036z"/>
	<g class="st3">
		<path class="st6" d="M723.9,1011.2c-0.4-1-1.1-1.8-1.9-2.4c-0.5-0.4-1.1-0.8-1.8-1c-0.7-0.2-1.6-0.5-2.8-0.7
			c0.9-0.3,1.5-0.6,2-0.8c0.5-0.3,0.9-0.6,1.2-1c1-1,1.5-2.4,1.5-4c0-1-0.2-1.9-0.7-2.7c-0.4-0.8-1.1-1.5-1.9-2
			c-0.9-0.6-2.1-0.9-3.5-1c-0.4,0-1.2,0-2.4,0h-12.3v0.4c0.7,0,1.3,0.1,1.7,0.3c0.4,0.2,0.8,0.4,1.2,0.8c0.4,0.4,0.7,0.9,0.8,1.5
			c0.1,0.6,0.2,1.6,0.2,2.8v13.7c0,1.3-0.1,2.2-0.2,2.8c-0.1,0.5-0.3,1-0.7,1.4c0,0,0,0,0,0c0.8,0,1.5-0.2,2.1-0.4
			c0.7-0.3,1.3-0.7,1.7-1.2c0.3-0.4,0.5-0.8,0.7-1.3c0,0,0-0.1,0.1-0.1c0.1-0.3,0.2-0.7,0.3-1.2v-7.4h3.3c2.4,0,4.1,0.5,5.3,1.4
			c0.6,0.5,1.1,1.2,1.5,2.1c0.4,0.9,0.5,1.9,0.5,3c0,2.5-1.5,4.1-1.7,4.5c-2.1,2.5-5.1,2.6-5.6,2.6c0.2,0,4.1-0.2,6.7-0.7
			c0.7-0.1,1.7-0.4,2.6-1.1c0.8-0.6,1.4-1.3,1.9-2.3c0.5-0.9,0.7-2,0.7-3.1C724.5,1013.2,724.3,1012.2,723.9,1011.2z M715.8,1006.2
			c-0.3,0.2-0.7,0.4-1.1,0.6c-0.4,0.1-0.9,0.3-1.6,0.4c-0.8,0.1-1.5,0.1-2.2,0.1h-1.5v-11.1h1.7c1.3,0,2.3,0.1,3,0.2
			c0.7,0.2,1.2,0.4,1.7,0.8c0.6,0.5,1.1,1.1,1.4,2c0.4,0.9,0.5,1.8,0.5,2.7c0,0.9-0.2,1.7-0.5,2.5
			C717,1005.2,716.5,1005.8,715.8,1006.2z"/>
		<path class="st6" d="M711,1016.4l-0.1,4l0,1.1h-15.1v-0.3c0.9,0,1.5-0.2,2-0.7c0.3-0.3,0.4-0.6,0.5-1c0.1-0.4,0.1-1.1,0.1-1.9
			v-9.3c0-0.9-0.1-1.6-0.2-2c-0.1-0.4-0.3-0.8-0.6-1c-0.2-0.2-0.5-0.4-0.8-0.5c-0.3-0.1-0.7-0.2-1.1-0.2v-0.3h8.1v0.3
			c-0.5,0-0.8,0.1-1.1,0.2c-0.3,0.1-0.6,0.3-0.8,0.5c-0.3,0.3-0.5,0.6-0.6,1c-0.1,0.4-0.2,1.1-0.2,2v7.3c0,1.1,0,2,0.1,2.5
			c0.1,0.5,0.2,1,0.3,1.3c0.3,0.6,0.7,1.1,1.3,1.3c0.6,0.3,1.4,0.4,2.3,0.4c0.1,0,0.3,0,0.4,0c0,0,0,0,0,0c0.8,0,1.5-0.2,2.1-0.4
			c0.7-0.3,1.3-0.7,1.7-1.2c0.3-0.4,0.5-0.8,0.7-1.3c0,0,0-0.1,0.1-0.1c0.1-0.3,0.2-0.7,0.3-1.2c0-0.2,0.1-0.4,0.1-0.6L711,1016.4z"
			/>
	</g>
</g>
<g class="st1">
	<path class="st2" d="M810.4,1036h-50.2c-1.2,0-2.3-1-2.3-2.3v-50.2c0-1.2,1-2.3,2.3-2.3h50.2c1.2,0,2.2,1,2.2,2.3v50.2
		C812.7,1035,811.7,1036,810.4,1036z"/>
	<g class="st3">
		<path class="st6" d="M799.1,1011.2c-0.4-1-1.1-1.8-1.9-2.4c-0.5-0.4-1.1-0.8-1.8-1c-0.7-0.2-1.6-0.5-2.8-0.7
			c0.9-0.3,1.5-0.6,2-0.8c0.5-0.3,0.9-0.6,1.2-1c1-1,1.5-2.4,1.5-4c0-1-0.2-1.9-0.7-2.7c-0.4-0.8-1.1-1.5-1.9-2
			c-0.9-0.6-2.1-0.9-3.5-1c-0.4,0-1.2,0-2.4,0h-12.3v0.4c0.7,0,1.3,0.1,1.7,0.3c0.4,0.2,0.8,0.4,1.2,0.8c0.4,0.4,0.7,0.9,0.8,1.5
			c0.1,0.6,0.2,1.6,0.2,2.8v13.7c0,1.3-0.1,2.2-0.2,2.8c-0.1,0.5-0.3,1-0.7,1.4c0,0,0,0,0,0c0.8,0,1.5-0.2,2.1-0.4
			c0.7-0.3,1.3-0.7,1.7-1.2c0.3-0.4,0.5-0.8,0.7-1.3c0,0,0-0.1,0.1-0.1c0.1-0.3,0.2-0.7,0.3-1.2v-7.4h3.3c2.4,0,4.1,0.5,5.3,1.4
			c0.6,0.5,1.1,1.2,1.5,2.1c0.4,0.9,0.5,1.9,0.5,3c0,2.5-1.5,4.1-1.7,4.5c-2.1,2.5-5.1,2.6-5.6,2.6c0.2,0,4.1-0.2,6.7-0.7
			c0.7-0.1,1.7-0.4,2.6-1.1c0.8-0.6,1.4-1.3,1.9-2.3c0.5-0.9,0.7-2,0.7-3.1C799.7,1013.2,799.5,1012.2,799.1,1011.2z M791,1006.2
			c-0.3,0.2-0.7,0.4-1.1,0.6c-0.4,0.1-0.9,0.3-1.6,0.4c-0.8,0.1-1.5,0.1-2.2,0.1h-1.5v-11.1h1.7c1.3,0,2.3,0.1,3,0.2
			c0.7,0.2,1.2,0.4,1.7,0.8c0.6,0.5,1.1,1.1,1.4,2c0.4,0.9,0.5,1.8,0.5,2.7c0,0.9-0.2,1.7-0.5,2.5
			C792.2,1005.2,791.7,1005.8,791,1006.2z"/>
		<path class="st6" d="M786.2,1016.4l-0.1,4l0,1.1H771v-0.3c0.9,0,1.5-0.2,2-0.7c0.3-0.3,0.4-0.6,0.5-1c0.1-0.4,0.1-1.1,0.1-1.9
			v-9.3c0-0.9-0.1-1.6-0.2-2c-0.1-0.4-0.3-0.8-0.6-1c-0.2-0.2-0.5-0.4-0.8-0.5c-0.3-0.1-0.7-0.2-1.1-0.2v-0.3h8.1v0.3
			c-0.5,0-0.8,0.1-1.1,0.2c-0.3,0.1-0.6,0.3-0.8,0.5c-0.3,0.3-0.5,0.6-0.6,1c-0.1,0.4-0.2,1.1-0.2,2v7.3c0,1.1,0,2,0.1,2.5
			c0.1,0.5,0.2,1,0.3,1.3c0.3,0.6,0.7,1.1,1.3,1.3c0.6,0.3,1.4,0.4,2.3,0.4c0.1,0,0.3,0,0.4,0c0,0,0,0,0,0c0.8,0,1.5-0.2,2.1-0.4
			c0.7-0.3,1.3-0.7,1.7-1.2c0.3-0.4,0.5-0.8,0.7-1.3c0,0,0-0.1,0.1-0.1c0.1-0.3,0.2-0.7,0.3-1.2c0-0.2,0.1-0.4,0.1-0.6L786.2,1016.4
			z"/>
	</g>
</g>
<g class="st1">
	<rect x="833.2" y="981.3" class="st2" width="54.7" height="54.7"/>
	<g class="st3">
		<path class="st6" d="M874.3,1011.2c-0.4-1-1.1-1.8-1.9-2.4c-0.5-0.4-1.1-0.8-1.8-1c-0.7-0.2-1.6-0.5-2.8-0.7
			c0.9-0.3,1.5-0.6,2-0.8c0.5-0.3,0.9-0.6,1.2-1c1-1,1.5-2.4,1.5-4c0-1-0.2-1.9-0.7-2.7c-0.4-0.8-1.1-1.5-1.9-2
			c-0.9-0.6-2.1-0.9-3.5-1c-0.4,0-1.2,0-2.4,0h-12.3v0.4c0.7,0,1.3,0.1,1.7,0.3c0.4,0.2,0.8,0.4,1.2,0.8c0.4,0.4,0.7,0.9,0.8,1.5
			c0.1,0.6,0.2,1.6,0.2,2.8v13.7c0,1.3-0.1,2.2-0.2,2.8c-0.1,0.5-0.3,1-0.7,1.4c0,0,0,0,0,0c0.8,0,1.5-0.2,2.1-0.4
			c0.7-0.3,1.3-0.7,1.7-1.2c0.3-0.4,0.5-0.8,0.7-1.3c0,0,0-0.1,0.1-0.1c0.1-0.3,0.2-0.7,0.3-1.2v-7.4h3.3c2.4,0,4.1,0.5,5.3,1.4
			c0.6,0.5,1.1,1.2,1.5,2.1c0.4,0.9,0.5,1.9,0.5,3c0,2.5-1.5,4.1-1.7,4.5c-2.1,2.5-5.1,2.6-5.6,2.6c0.2,0,4.1-0.2,6.7-0.7
			c0.7-0.1,1.7-0.4,2.6-1.1c0.8-0.6,1.4-1.3,1.9-2.3c0.5-0.9,0.7-2,0.7-3.1C874.9,1013.2,874.7,1012.2,874.3,1011.2z M866.2,1006.2
			c-0.3,0.2-0.7,0.4-1.1,0.6c-0.4,0.1-0.9,0.3-1.6,0.4c-0.8,0.1-1.5,0.1-2.2,0.1h-1.5v-11.1h1.7c1.3,0,2.3,0.1,3,0.2
			c0.7,0.2,1.2,0.4,1.7,0.8c0.6,0.5,1.1,1.1,1.4,2c0.4,0.9,0.5,1.8,0.5,2.7c0,0.9-0.2,1.7-0.5,2.5
			C867.4,1005.2,866.9,1005.8,866.2,1006.2z"/>
		<path class="st6" d="M861.4,1016.4l-0.1,4l0,1.1h-15.1v-0.3c0.9,0,1.5-0.2,2-0.7c0.3-0.3,0.4-0.6,0.5-1c0.1-0.4,0.1-1.1,0.1-1.9
			v-9.3c0-0.9-0.1-1.6-0.2-2c-0.1-0.4-0.3-0.8-0.6-1c-0.2-0.2-0.5-0.4-0.8-0.5c-0.3-0.1-0.7-0.2-1.1-0.2v-0.3h8.1v0.3
			c-0.5,0-0.8,0.1-1.1,0.2c-0.3,0.1-0.6,0.3-0.8,0.5c-0.3,0.3-0.5,0.6-0.6,1c-0.1,0.4-0.2,1.1-0.2,2v7.3c0,1.1,0,2,0.1,2.5
			c0.1,0.5,0.2,1,0.3,1.3c0.3,0.6,0.7,1.1,1.3,1.3c0.6,0.3,1.4,0.4,2.3,0.4c0.1,0,0.3,0,0.4,0c0,0,0,0,0,0c0.8,0,1.5-0.2,2.1-0.4
			c0.7-0.3,1.3-0.7,1.7-1.2c0.3-0.4,0.5-0.8,0.7-1.3c0,0,0-0.1,0.1-0.1c0.1-0.3,0.2-0.7,0.3-1.2c0-0.2,0.1-0.4,0.1-0.6L861.4,1016.4
			z"/>
	</g>
</g>
<g class="st1">
	<path class="st2" d="M963.8,1015.7l-4.5,4.5v6.4c0,3.3-2.6,5.9-5.9,5.9H947l-4.5,4.5c-2.3,2.3-6,2.3-8.3,0l-4.5-4.5h-6.4
		c-3.2,0-5.9-2.6-5.9-5.9v-6.4l-4.5-4.5c-2.3-2.3-2.3-6,0-8.3l4.5-4.5v-6.4c0-3.2,2.6-5.9,5.9-5.9h6.4l4.5-4.5c2.3-2.3,6-2.3,8.3,0
		l4.5,4.5h6.4c3.2,0,5.9,2.6,5.9,5.9v6.4l4.5,4.5C966.1,1009.7,966.1,1013.4,963.8,1015.7z"/>
	<g class="st3">
		<path class="st6" d="M948.8,1013.5c-0.3-0.7-0.8-1.4-1.4-1.8c-0.4-0.3-0.9-0.6-1.4-0.8c-0.5-0.2-1.2-0.3-2.1-0.5
			c0.7-0.2,1.2-0.5,1.5-0.6c0.4-0.2,0.7-0.4,0.9-0.7c0.8-0.8,1.2-1.8,1.2-3.1c0-0.8-0.2-1.5-0.5-2.1c-0.3-0.6-0.8-1.1-1.4-1.5
			c-0.7-0.4-1.6-0.7-2.7-0.8c-0.3,0-0.9,0-1.9,0h-9.4v0.3c0.5,0,1,0.1,1.3,0.2s0.6,0.3,0.9,0.6c0.3,0.3,0.5,0.7,0.6,1.2
			c0.1,0.5,0.2,1.2,0.2,2.2v10.5c0,1-0.1,1.7-0.2,2.2c-0.1,0.4-0.3,0.8-0.5,1c0,0,0,0,0,0c0.6,0,1.2-0.1,1.6-0.3
			c0.5-0.2,1-0.5,1.3-0.9c0.2-0.3,0.4-0.6,0.6-1c0,0,0-0.1,0-0.1c0.1-0.2,0.2-0.5,0.3-0.9v-5.6h2.6c1.8,0,3.2,0.4,4,1.1
			c0.5,0.4,0.8,0.9,1.1,1.6c0.3,0.7,0.4,1.5,0.4,2.3c0,1.9-1.1,3.2-1.3,3.4c-1.6,1.9-3.9,2-4.3,2c0.1,0,3.1-0.1,5.1-0.5
			c0.5-0.1,1.3-0.3,2-0.8c0.6-0.4,1.1-1,1.4-1.7c0.3-0.7,0.5-1.5,0.5-2.4C949.3,1015.1,949.2,1014.3,948.8,1013.5z M942.7,1009.7
			c-0.3,0.2-0.5,0.3-0.8,0.4c-0.3,0.1-0.7,0.2-1.2,0.3c-0.6,0.1-1.1,0.1-1.7,0.1h-1.2v-8.5h1.3c1,0,1.8,0.1,2.3,0.2
			c0.5,0.1,0.9,0.3,1.3,0.6c0.4,0.4,0.8,0.9,1.1,1.5c0.3,0.7,0.4,1.3,0.4,2.1c0,0.7-0.1,1.3-0.4,1.9
			C943.6,1008.9,943.2,1009.3,942.7,1009.7z"/>
		<path class="st6" d="M939,1017.5l-0.1,3.1l0,0.9h-11.6v-0.2c0.7,0,1.2-0.2,1.5-0.6c0.2-0.2,0.3-0.5,0.4-0.8
			c0.1-0.3,0.1-0.8,0.1-1.5v-7.1c0-0.7,0-1.2-0.1-1.5c-0.1-0.3-0.2-0.6-0.4-0.8c-0.2-0.2-0.4-0.3-0.6-0.4c-0.2-0.1-0.5-0.1-0.9-0.1
			v-0.2h6.2v0.2c-0.4,0-0.6,0.1-0.9,0.1c-0.2,0.1-0.4,0.2-0.6,0.4c-0.2,0.2-0.4,0.5-0.4,0.8c-0.1,0.3-0.1,0.8-0.1,1.5v5.6
			c0,0.9,0,1.5,0.1,1.9c0,0.4,0.1,0.8,0.3,1c0.2,0.5,0.6,0.8,1,1c0.4,0.2,1,0.3,1.8,0.3c0.1,0,0.2,0,0.3,0c0,0,0,0,0,0
			c0.6,0,1.2-0.1,1.6-0.3c0.5-0.2,1-0.5,1.3-0.9c0.2-0.3,0.4-0.6,0.6-1c0,0,0-0.1,0-0.1c0.1-0.2,0.2-0.5,0.3-0.9
			c0-0.1,0.1-0.3,0.1-0.4L939,1017.5z"/>
	</g>
</g>
<g class="st1">
	<path class="st8" d="M1755.7,332.4v-36.5c0-7.6,6.1-13.7,13.7-13.7h36.5c7.6,0,13.7,6.1,13.7,13.7v36.5c0,7.6-6.1,13.7-13.7,13.7
		h-36.5C1761.8,346.1,1755.7,339.9,1755.7,332.4z"/>
	<path class="st10" d="M1755.7,248.6v-36.5c0-7.6,6.1-13.7,13.7-13.7h36.5c7.6,0,13.7,6.1,13.7,13.7v36.5c0,7.6-6.1,13.7-13.7,13.7
		h-36.5C1761.8,262.3,1755.7,256.2,1755.7,248.6z"/>
	<path class="st2" d="M1755.7,501.6v-36.5c0-7.6,6.1-13.7,13.7-13.7h36.5c7.6,0,13.7,6.1,13.7,13.7v36.5c0,7.6-6.1,13.7-13.7,13.7
		h-36.5C1761.8,515.3,1755.7,509.1,1755.7,501.6z"/>
	<path class="st11" d="M1755.7,589.7v-36.5c0-7.6,6.1-13.7,13.7-13.7h36.5c7.6,0,13.7,6.1,13.7,13.7v36.5c0,7.6-6.1,13.7-13.7,13.7
		h-36.5C1761.8,603.4,1755.7,597.3,1755.7,589.7z"/>
	
		<linearGradient id="SVGID_1_" gradientUnits="userSpaceOnUse" x1="3457.8884" y1="-6616.3481" x2="3527.5571" y2="-6641.7056" gradientTransform="matrix(0 1 -1 0 -4841.3936 -2826.3936)">
		<stop  offset="0" style="stop-color:#0B0B1D"/>
		<stop  offset="1" style="stop-color:#2D3092"/>
	</linearGradient>
	<path class="st12" d="M1755.7,684.6v-36.5c0-7.6,6.1-13.7,13.7-13.7h36.5c7.6,0,13.7,6.1,13.7,13.7v36.5c0,7.6-6.1,13.7-13.7,13.7
		h-36.5C1761.8,698.3,1755.7,692.1,1755.7,684.6z"/>
	<text transform="matrix(0 1 -1 0 1724.5725 280.5445)" class="st3 st13 st14">0B0B1D</text>
	<text transform="matrix(0 1 -1 0 1718.9875 456.0797)" class="st3 st13 st15">2D3092</text>
	<path class="st16" d="M1755.7,415v-36.5c0-7.6,6.1-13.7,13.7-13.7h36.5c7.6,0,13.7,6.1,13.7,13.7V415c0,7.6-6.1,13.7-13.7,13.7
		h-36.5C1761.8,428.7,1755.7,422.6,1755.7,415z"/>
</g>
</svg>
