<svg width="38" height="34" viewBox="0 0 38 34" fill="none" xmlns="http://www.w3.org/2000/svg">
<path d="M37.1895 20.8453V34H29.2589V21.726C29.2589 18.6419 28.1114 16.5383 25.2417 16.5383C23.0505 16.5383 21.7454 17.9573 21.1726 19.3282C20.9631 19.8185 20.9094 20.5013 20.9094 21.1876V34H12.9751C12.9751 34 13.0826 13.2135 12.9751 11.0582H20.9094V14.3099L20.8575 14.3848H20.9094V14.3099C21.9623 12.75 23.8439 10.5198 28.0576 10.5198C33.2761 10.5198 37.1895 13.8 37.1895 20.8453ZM4.6775 0C1.96539 0 0.189453 1.71141 0.189453 3.96298C0.189453 6.16464 1.91349 7.92775 4.57369 7.92775H4.6256C7.39332 7.92775 9.11179 6.16464 9.11179 3.96298C9.0636 1.71141 7.39517 0 4.67936 0H4.6775ZM0.660318 34H8.59088V11.0582H0.660318V34Z" fill="black"/>
</svg>
