<svg width="125" height="125" viewBox="0 0 125 125" fill="none" xmlns="http://www.w3.org/2000/svg">
<g opacity="0.4">
<path opacity="0.4" d="M87.2676 103.184C101.647 81.2308 95.507 51.7771 73.5534 37.3977C51.5998 23.0183 22.1461 29.1584 7.76668 51.1119C-6.61272 73.0655 -0.472632 102.519 21.481 116.899C43.4345 131.278 72.8882 125.138 87.2676 103.184Z" fill="white"/>
<path opacity="0.4" d="M82.0376 109.823C100.595 91.2652 100.595 61.1775 82.0376 42.6199C63.48 24.0624 33.3923 24.0624 14.8348 42.6199C-3.72275 61.1775 -3.72275 91.2652 14.8348 109.823C33.3923 128.38 63.48 128.38 82.0376 109.823Z" fill="#FAFDF7"/>
<path opacity="0.4" d="M82.9614 108.904C101.519 90.3467 101.519 60.259 82.9614 41.7015C64.4039 23.1439 34.3162 23.1439 15.7586 41.7015C-2.79892 60.259 -2.79892 90.3467 15.7586 108.904C34.3162 127.462 64.4039 127.462 82.9614 108.904Z" fill="#F5FCEF"/>
<path opacity="0.4" d="M83.8921 107.979C102.45 89.4211 102.45 59.3333 83.8921 40.7758C65.3345 22.2183 35.2468 22.2183 16.6893 40.7758C-1.86825 59.3333 -1.86826 89.421 16.6893 107.979C35.2468 126.536 65.3345 126.536 83.8921 107.979Z" fill="#EFFAE7"/>
<path opacity="0.4" d="M84.8081 107.053C103.366 88.4955 103.366 58.4078 84.8081 39.8503C66.2505 21.2927 36.1628 21.2927 17.6053 39.8503C-0.952239 58.4078 -0.952241 88.4955 17.6053 107.053C36.1628 125.611 66.2505 125.611 84.8081 107.053Z" fill="#EAF8DF"/>
<path opacity="0.4" d="M85.7319 106.135C104.289 87.5771 104.289 57.4893 85.7319 38.9318C67.1744 20.3743 37.0867 20.3743 18.5291 38.9318C-0.0284105 57.4893 -0.0284132 87.5771 18.5291 106.135C37.0867 124.692 67.1744 124.692 85.7319 106.135Z" fill="#E5F6D7"/>
<path opacity="0.4" d="M86.6626 105.209C105.22 86.6514 105.22 56.5637 86.6626 38.0062C68.105 19.4486 38.0173 19.4486 19.4598 38.0062C0.902254 56.5637 0.902254 86.6514 19.4598 105.209C38.0173 123.766 68.105 123.766 86.6626 105.209Z" fill="#E0F5D0"/>
<path opacity="0.4" d="M87.5796 104.283C106.137 85.7259 106.137 55.6382 87.5796 37.0806C69.022 18.5231 38.9343 18.5231 20.3768 37.0806C1.81925 55.6382 1.81925 85.7259 20.3768 104.283C38.9343 122.841 69.022 122.841 87.5796 104.283Z" fill="#DAF3C8"/>
<path opacity="0.4" d="M88.5102 103.358C107.068 84.8003 107.068 54.7126 88.5102 36.1551C69.9527 17.5975 39.865 17.5975 21.3074 36.1551C2.74991 54.7126 2.74991 84.8003 21.3074 103.358C39.865 121.915 69.9527 121.915 88.5102 103.358Z" fill="#D5F1C0"/>
<path opacity="0.4" d="M89.4331 102.439C107.991 83.8817 107.991 53.794 89.4331 35.2365C70.8755 16.679 40.7878 16.679 22.2303 35.2365C3.67276 53.794 3.67276 83.8817 22.2303 102.439C40.7878 120.997 70.8755 120.997 89.4331 102.439Z" fill="#D0EFB8"/>
<path opacity="0.4" d="M90.3501 101.514C108.908 82.9562 108.908 52.8685 90.3501 34.311C71.7925 15.7534 41.7048 15.7534 23.1473 34.311C4.58975 52.8685 4.58976 82.9562 23.1473 101.514C41.7048 120.071 71.7925 120.071 90.3501 101.514Z" fill="#CBEEB0"/>
<path opacity="0.4" d="M91.2807 100.588C109.838 82.0307 109.838 51.943 91.2807 33.3854C72.7232 14.8279 42.6355 14.8279 24.078 33.3854C5.52042 51.943 5.52041 82.0307 24.078 100.588C42.6355 119.146 72.7232 119.146 91.2807 100.588Z" fill="#C6ECA8"/>
<path opacity="0.4" d="M92.2046 99.6696C110.762 81.1121 110.762 51.0244 92.2046 32.4668C73.647 13.9093 43.5593 13.9093 25.0018 32.4668C6.44424 51.0244 6.44425 81.1121 25.0018 99.6696C43.5593 118.227 73.647 118.227 92.2046 99.6696Z" fill="#C0EAA0"/>
<path opacity="0.4" d="M69.928 111.501C95.5349 105.753 111.634 80.3355 105.886 54.7286C100.139 29.1218 74.7211 13.0227 49.1143 18.7702C23.5075 24.5178 7.40834 49.9356 13.1559 75.5424C18.9035 101.149 44.3212 117.248 69.928 111.501Z" fill="#BBE898"/>
<path opacity="0.4" d="M67.2731 111.243C93.2448 107.474 111.244 83.3647 107.475 57.3931C103.706 31.4214 79.597 13.4224 53.6254 17.1911C27.6538 20.9599 9.65476 45.0692 13.4235 71.0408C17.1922 97.0124 41.3015 115.011 67.2731 111.243Z" fill="#B6E790"/>
<path opacity="0.4" d="M65.1555 110.658C91.3161 108.566 110.828 85.6632 108.736 59.5026C106.644 33.342 83.7414 13.8303 57.5808 15.922C31.4202 18.0137 11.9085 40.9167 14.0002 67.0773C16.0919 93.2379 38.9949 112.75 65.1555 110.658Z" fill="#B1E588"/>
<path opacity="0.4" d="M63.5542 109.871C89.7883 109.171 110.487 87.3357 109.786 61.1016C109.086 34.8675 87.2507 14.1687 61.0166 14.8694C34.7825 15.5701 14.0837 37.4051 14.7844 63.6392C15.4851 89.8732 37.3201 110.572 63.5542 109.871Z" fill="#ABE381"/>
<path opacity="0.4" d="M110.742 62.2483C111.185 36.0063 90.2716 14.3735 64.0296 13.9299C37.7877 13.4864 16.1548 34.4002 15.7113 60.6421C15.2678 86.884 36.1815 108.517 62.4235 108.96C88.6654 109.404 110.298 88.4902 110.742 62.2483Z" fill="#A6E179"/>
<path opacity="0.4" d="M111.592 63.0349C112.977 36.827 92.8552 14.458 66.6474 13.0723C40.4395 11.6866 18.0706 31.8089 16.6848 58.0167C15.2991 84.2246 35.4214 106.594 61.6293 107.979C87.8371 109.365 110.206 89.2427 111.592 63.0349Z" fill="#A1E071"/>
<path opacity="0.4" d="M112.425 63.5295C114.593 37.3741 95.1473 14.4137 68.9919 12.2459C42.8366 10.0781 19.8762 29.5238 17.7084 55.6792C15.5406 81.8345 34.9863 104.795 61.1416 106.963C87.297 109.131 110.257 89.6848 112.425 63.5295Z" fill="#9CDE69"/>
<path opacity="0.4" d="M113.236 63.7826C116.057 37.6902 97.1922 14.2511 71.0999 11.4298C45.0075 8.60852 21.5684 27.4734 18.7471 53.5658C15.9258 79.6582 34.7907 103.097 60.8831 105.919C86.9754 108.74 110.415 89.875 113.236 63.7826Z" fill="#96DC61"/>
<path opacity="0.4" d="M114.037 63.8671C117.412 37.8403 99.0493 14.0055 73.0225 10.6304C46.9958 7.25536 23.1609 25.6182 19.7859 51.6449C16.4108 77.6717 34.7736 101.507 60.8004 104.882C86.8271 108.257 110.662 89.8938 114.037 63.8671Z" fill="#91DA59"/>
<path opacity="0.4" d="M114.842 63.7865C118.687 37.8253 100.758 13.6628 74.7973 9.81798C48.8362 5.97315 24.6737 23.902 20.8289 49.8631C16.984 75.8242 34.9128 99.9867 60.874 103.832C86.8351 107.676 110.998 89.7476 114.842 63.7865Z" fill="#8CD951"/>
<path opacity="0.4" d="M115.654 63.5963C119.903 37.6981 102.353 13.2591 76.4545 9.01006C50.5564 4.76107 26.1173 22.3112 21.8683 48.2093C17.6193 74.1075 35.1694 98.5465 61.0675 102.796C86.9657 107.045 111.405 89.4944 115.654 63.5963Z" fill="#87D749"/>
<path opacity="0.4" d="M116.462 63.3132C121.062 37.4754 103.846 12.8002 78.0084 8.19954C52.1706 3.59887 27.4954 20.8149 22.8947 46.6527C18.294 72.4905 35.5101 97.1657 61.3479 101.766C87.1857 106.367 111.861 89.151 116.462 63.3132Z" fill="#82D541"/>
<path opacity="0.4" d="M117.293 62.9359C122.2 37.1532 105.278 12.2737 79.4952 7.366C53.7125 2.45826 28.833 19.3807 23.9253 45.1634C19.0176 70.9461 35.94 95.8256 61.7227 100.733C87.5054 105.641 112.385 88.7185 117.293 62.9359Z" fill="#7CD339"/>
<path opacity="0.4" d="M118.105 62.5093C123.283 36.7818 106.624 11.7278 80.8968 6.54978C55.1692 1.37173 30.1153 18.0304 24.9372 43.7579C19.7592 69.4855 36.4178 94.5394 62.1454 99.7175C87.8729 104.896 112.927 88.2369 118.105 62.5093Z" fill="#77D232"/>
<path opacity="0.4" d="M118.945 62.0315C124.364 36.3538 107.942 11.1445 82.2639 5.72504C56.5862 0.305532 31.3769 16.728 25.9574 42.4057C20.5379 68.0834 36.9604 93.2927 62.6381 98.7122C88.3158 104.132 113.525 87.7092 118.945 62.0315Z" fill="#72D02A"/>
<path opacity="0.4" d="M119.791 61.4806C125.423 35.8475 109.209 10.5021 83.5759 4.87003C57.9429 -0.76206 32.5975 15.4519 26.9654 41.085C21.3333 66.7181 37.5473 92.0635 63.1804 97.6956C88.8134 103.328 114.159 87.1137 119.791 61.4806Z" fill="#6DCE22"/>
<path opacity="0.4" d="M120.64 60.9126C126.466 35.3216 110.444 9.85274 84.8526 4.02645C59.2615 -1.79985 33.7927 14.2227 27.9664 39.8138C22.1401 65.4048 38.1627 90.8737 63.7537 96.7C89.3448 102.526 114.814 86.5037 120.64 60.9126Z" fill="#75C538"/>
<path opacity="0.4" d="M121.479 60.3033C127.476 34.7542 111.626 9.18118 86.077 3.1843C60.5279 -2.81259 34.9548 13.0376 28.9579 38.5867C22.961 64.1358 38.8112 89.7088 64.3603 95.7057C89.9094 101.703 115.482 85.8524 121.479 60.3033Z" fill="#9AF853"/>
<path opacity="0.4" d="M122.344 59.6593C128.499 34.147 112.806 8.47606 87.2936 2.3217C61.7812 -3.83265 36.1103 11.8601 29.9559 37.3725C23.8016 62.8848 39.4943 88.5557 65.0067 94.7101C90.519 100.864 116.19 85.1717 122.344 59.6593Z" fill="#5DC90A"/>
</g>
<path d="M122.344 59.6593C128.499 34.147 112.806 8.47606 87.2936 2.3217C61.7812 -3.83265 36.1103 11.8601 29.9559 37.3725C23.8016 62.8848 39.4943 88.5557 65.0067 94.7101C90.519 100.864 116.19 85.1717 122.344 59.6593Z" fill="white"/>
<path d="M76.1499 97.03C49.3999 97.03 27.6299 75.27 27.6299 48.51C27.6299 21.76 49.3999 0 76.1499 0C102.9 0 124.67 21.76 124.67 48.52C124.66 75.27 102.9 97.03 76.1499 97.03ZM76.1499 2C50.4999 2 29.6299 22.87 29.6299 48.52C29.6299 74.17 50.4999 95.03 76.1499 95.03C101.8 95.03 122.67 74.16 122.67 48.51C122.67 22.86 101.8 2 76.1499 2Z" fill="#82D66C"/>
<path d="M71.2707 101.66C48.6407 101.66 28.7907 85.62 24.0707 63.52C23.9807 63.11 24.2407 62.72 24.6507 62.63C25.0507 62.54 25.4507 62.8 25.5407 63.21C30.1107 84.62 49.3507 100.16 71.2807 100.16C76.2307 100.16 81.1107 99.39 85.7707 97.87C86.1707 97.74 86.5907 97.96 86.7207 98.35C86.8507 98.74 86.6307 99.17 86.2407 99.3C81.4207 100.86 76.3807 101.66 71.2707 101.66ZM103.091 89.43C102.891 89.43 102.681 89.35 102.531 89.18C102.251 88.87 102.281 88.4 102.581 88.12C112.401 79.26 118.031 66.6 118.031 53.38V53.19C118.031 52.78 118.361 52.44 118.771 52.43C118.771 52.43 118.771 52.43 118.781 52.43C119.191 52.43 119.531 52.76 119.531 53.17V53.37C119.531 67.01 113.721 80.08 103.581 89.22C103.451 89.37 103.271 89.43 103.091 89.43ZM23.7607 54.19C23.3507 54.19 23.0107 53.9 23.0107 53.49V53.39C23.0107 39.79 28.8007 26.74 38.8807 17.61C39.1907 17.33 39.6607 17.36 39.9407 17.66C40.2207 17.97 40.1907 18.44 39.8907 18.72C30.1107 27.57 24.5107 40.21 24.5107 53.39C24.5107 53.8 24.1707 54.19 23.7607 54.19ZM117.721 44.07C117.371 44.07 117.061 43.83 116.991 43.48C112.381 22.12 93.1607 6.62 71.2707 6.62C66.2807 6.62 61.3807 7.39999 56.6907 8.93999C56.2907 9.06999 55.8707 8.85 55.7407 8.46C55.6107 8.07 55.8307 7.64 56.2207 7.51C61.0607 5.92 66.1307 5.12 71.2707 5.12C93.8507 5.12 113.701 21.12 118.451 43.16C118.541 43.56 118.281 43.96 117.881 44.05C117.831 44.07 117.771 44.07 117.721 44.07Z" fill="black"/>
<path d="M98.9607 25.16L66.2307 57.9L53.2707 44.94L44.2607 53.95L66.2307 75.92L107.971 34.17L98.9607 25.16Z" fill="#82D66C"/>
</svg>
