<svg width="15" height="20" viewBox="0 0 15 20" fill="none" xmlns="http://www.w3.org/2000/svg">
<path d="M13.5001 4.58333H11.1059C10.8973 3.79444 10.5285 3.05692 10.0226 2.41667H13.5001C13.7874 2.41667 14.063 2.30253 14.2661 2.09937C14.4693 1.8962 14.5834 1.62065 14.5834 1.33333C14.5834 1.04602 14.4693 0.770465 14.2661 0.567301C14.063 0.364137 13.7874 0.25 13.5001 0.25H1.58342C1.2961 0.25 1.02055 0.364137 0.817384 0.567301C0.614219 0.770465 0.500082 1.04602 0.500082 1.33333C0.500082 1.62065 0.614219 1.8962 0.817384 2.09937C1.02055 2.30253 1.2961 2.41667 1.58342 2.41667H5.37508C6.09034 2.41918 6.7903 2.62395 7.39413 3.00734C7.99797 3.39072 8.48105 3.93709 8.78758 4.58333H1.58342C1.2961 4.58333 1.02055 4.69747 0.817384 4.90063C0.614219 5.1038 0.500082 5.37935 0.500082 5.66667C0.500082 5.95398 0.614219 6.22953 0.817384 6.4327C1.02055 6.63586 1.2961 6.75 1.58342 6.75H9.16675C9.03688 7.64982 8.58802 8.47302 7.90198 9.06958C7.21594 9.66613 6.33838 9.99634 5.42925 10H1.58342C1.53299 9.99493 1.48218 9.99493 1.43175 10C1.35996 9.98882 1.28687 9.98882 1.21508 10C1.14124 10.0251 1.07179 10.0617 1.00925 10.1083L0.879249 10.1842C0.819907 10.2378 0.7688 10.2998 0.727582 10.3683C0.691299 10.4164 0.658706 10.4671 0.630082 10.52C0.620439 10.5846 0.620439 10.6504 0.630082 10.715C0.552882 10.8231 0.507815 10.9508 0.500082 11.0833C0.495014 11.1338 0.495014 11.1846 0.500082 11.235C0.488905 11.3068 0.488905 11.3799 0.500082 11.4517C0.525232 11.5255 0.561785 11.595 0.608416 11.6575C0.608416 11.6575 0.608416 11.7442 0.684249 11.7875L7.18425 19.3708C7.37101 19.5892 7.63686 19.7244 7.92332 19.7468C8.20978 19.7691 8.49339 19.6768 8.71175 19.49C8.93011 19.3032 9.06534 19.0374 9.08769 18.7509C9.11004 18.4645 9.01767 18.1809 8.83091 17.9625L3.94508 12.1667H5.37508C6.86581 12.1728 8.3047 11.62 9.40776 10.6172C10.5108 9.61441 11.1979 8.23457 11.3334 6.75H13.5001C13.7874 6.75 14.063 6.63586 14.2661 6.4327C14.4693 6.22953 14.5834 5.95398 14.5834 5.66667C14.5834 5.37935 14.4693 5.1038 14.2661 4.90063C14.063 4.69747 13.7874 4.58333 13.5001 4.58333Z" fill="#1E2063"/>
</svg>
