<svg width="207" height="430" viewBox="0 0 207 430" fill="none" xmlns="http://www.w3.org/2000/svg">
<path opacity="0.5" d="M71.7189 47.5513L42.5608 39.3599L43.0488 29.4978L86.4821 0.873657L97.5657 3.98679L87.2569 40.4481L95.271 42.6992L92.2679 53.3231L84.2538 51.072L80.6256 63.9064L68.0928 60.3858L71.7189 47.5513ZM74.7221 36.9274L79.9599 18.4002L58.863 32.4722L74.7221 36.9274Z" fill="#A7A8CA"/>
<path opacity="0.3" d="M130.126 334.392C130.126 334.392 119.551 359.169 124.206 360.837C128.861 362.505 134.031 332.384 134.031 332.384C134.031 332.384 160.269 326.066 169.347 329.029C169.347 329.029 149.028 351.013 153.956 351.466C158.882 351.917 181.065 330.027 181.065 330.027C181.065 330.027 206.339 330.831 206.965 346.282C207.592 361.733 199.672 367.637 195.874 367.755C192.077 367.872 169.091 362.471 169.008 365.642C168.927 368.814 183.408 377.121 192.702 376.305C192.702 376.305 177.747 398.199 165.442 394.202C153.138 390.205 151.016 381.441 143.367 379.112C135.717 376.783 129.553 377.652 132.97 380.641C136.386 383.629 149.88 385.113 154.953 391.93C160.026 398.747 164.368 403.216 152.147 403.065C139.925 402.914 119.306 396.758 117.156 386.712C117.062 386.275 117.156 386.712 117.156 386.712C114.716 387.511 110.125 392.88 106.838 397.053C106.341 397.777 105.589 398.765 104.505 400.09C104.049 400.698 103.683 401.197 103.429 401.544C96.9726 411.09 95.1125 429.626 95.1125 429.626L92.4647 429.755C91.0098 410.335 104.053 397.532 104.053 397.532C112.993 387.068 115.008 376.666 115.008 376.666C115.008 376.666 95.4084 358.934 109.767 343.924C109.765 343.926 120.531 335.141 130.126 334.392Z" fill="#01265B"/>
<path d="M14.4515 120.715L23.0417 255.685L18.7981 255.956C18.7504 255.959 15.5727 243.134 15.5727 243.134L7.80762 121.14L14.4515 120.715Z" fill="#01265B"/>
<path d="M19.7207 255.896L21.7503 264.51L22.2119 255.738L19.7207 255.896Z" fill="#0B0755"/>
<path d="M17.0572 241.694C16.9067 239.345 18.6875 237.319 21.0325 237.171C23.3775 237.02 25.3991 238.804 25.547 241.151C25.6975 243.501 23.9168 245.526 21.5717 245.674C19.2267 245.825 17.2052 244.043 17.0572 241.694Z" fill="#F78248"/>
<path d="M17.634 119.886L82.9923 238.219L86.7143 236.156C86.7544 236.133 82.5358 223.614 82.5358 223.614L23.4578 116.657L17.634 119.886Z" fill="#01265B"/>
<path d="M85.9042 236.605L88.826 244.955L83.7197 237.816L85.9042 236.605Z" fill="#0B0755"/>
<path d="M69.7644 195.512L67.6594 196.679L72.8537 206.083L74.9587 204.916L69.7644 195.512Z" fill="#F78248"/>
<path d="M11.258 94.686L6.45728 96.0627L11.2005 112.624L16.0013 111.248L11.258 94.686Z" fill="#0B0755"/>
<path d="M24.1548 115.544L23.1366 125.095L27.7991 141.39L17.1322 144.453L12.4697 128.158L6.55561 120.599C5.16362 115.735 7.97266 110.656 12.8308 109.262L12.8409 109.259C17.6965 107.865 22.7628 110.679 24.1548 115.544Z" fill="#F78248"/>
<path d="M12.8811 118.499C12.5023 117.172 13.2673 115.785 14.5941 115.406C15.9209 115.026 17.3028 115.793 17.6816 117.122C18.0603 118.451 17.2953 119.836 15.9685 120.215C14.6417 120.594 13.2598 119.828 12.8811 118.499Z" fill="#0B0755"/>
<path d="M63.304 132.876L37.562 93.4335L89.5482 60.9297L63.304 132.876Z" fill="#01265B"/>
<path d="M60.9892 114.125L49.356 96.3013L72.8488 81.613L60.9892 114.125Z" fill="#EBF3FA"/>
<path d="M41.4151 92.0293L41.1841 92.1737L43.0655 95.0558L43.2965 94.9114L41.4151 92.0293Z" fill="#060633"/>
<path d="M42.7706 91.1816L42.5396 91.3259L43.6452 93.0197L43.8762 92.8754L42.7706 91.1816Z" fill="#060633"/>
<path d="M43.91 90.4685L43.679 90.6128L44.785 92.3063L45.016 92.162L43.91 90.4685Z" fill="#060633"/>
<path d="M44.993 89.7915L44.762 89.9358L45.8683 91.6291L46.0994 91.4848L44.993 89.7915Z" fill="#060633"/>
<path d="M45.9933 89.1655L45.7622 89.3098L46.8686 91.0032L47.0996 90.8589L45.9933 89.1655Z" fill="#060633"/>
<path d="M47.0931 88.4531L46.8621 88.5974L47.9682 90.2907L48.1992 90.1464L47.0931 88.4531Z" fill="#060633"/>
<path d="M48.2244 87.7713L47.9934 87.9158L49.8735 90.797L50.1045 90.6525L48.2244 87.7713Z" fill="#060633"/>
<path d="M49.5816 86.8974L49.3506 87.0417L50.4559 88.7356L50.6869 88.5912L49.5816 86.8974Z" fill="#060633"/>
<path d="M50.7056 86.1929L50.4746 86.3372L51.5809 88.0303L51.812 87.8861L50.7056 86.1929Z" fill="#060633"/>
<path d="M51.7966 85.511L51.5657 85.6554L52.673 87.3479L52.904 87.2035L51.7966 85.511Z" fill="#060633"/>
<path d="M52.7989 84.8913L52.5679 85.0355L53.674 86.7288L53.9051 86.5846L52.7989 84.8913Z" fill="#060633"/>
<path d="M53.919 84.2133L53.688 84.3575L54.7943 86.0509L55.0254 85.9066L53.919 84.2133Z" fill="#060633"/>
<path d="M55.4575 83.2231L55.2266 83.3677L57.1087 86.2471L57.3396 86.1025L55.4575 83.2231Z" fill="#060633"/>
<path d="M56.8218 82.396L56.5908 82.5404L57.6963 84.2342L57.9273 84.0899L56.8218 82.396Z" fill="#060633"/>
<path d="M57.9673 81.6736L57.7363 81.818L58.842 83.5118L59.073 83.3674L57.9673 81.6736Z" fill="#060633"/>
<path d="M59.044 81.0065L58.813 81.1508L59.9193 82.8441L60.1504 82.6998L59.044 81.0065Z" fill="#060633"/>
<path d="M60.0428 80.3828L59.8118 80.5271L60.9179 82.2206L61.1489 82.0763L60.0428 80.3828Z" fill="#060633"/>
<path d="M61.1499 79.6638L60.9189 79.8082L62.0261 81.5009L62.257 81.3564L61.1499 79.6638Z" fill="#060633"/>
<path d="M62.2745 78.9868L62.0435 79.1312L63.9244 82.0137L64.1554 81.8693L62.2745 78.9868Z" fill="#060633"/>
<path d="M63.6319 78.1381L63.4009 78.2825L64.5065 79.9763L64.7375 79.8319L63.6319 78.1381Z" fill="#060633"/>
<path d="M64.7547 77.4105L64.5237 77.5548L65.6297 79.2482L65.8607 79.1039L64.7547 77.4105Z" fill="#060633"/>
<path d="M65.8561 76.7434L65.625 76.8877L66.7313 78.581L66.9624 78.4368L65.8561 76.7434Z" fill="#060633"/>
<path d="M66.8492 76.1065L66.6182 76.2507L67.7243 77.9441L67.9553 77.7998L66.8492 76.1065Z" fill="#060633"/>
<path d="M67.9706 75.428L67.7395 75.5723L68.8458 77.2656L69.0769 77.1213L67.9706 75.428Z" fill="#060633"/>
<path d="M69.3961 74.526L69.165 74.6704L71.0454 77.5512L71.2765 77.4068L69.3961 74.526Z" fill="#060633"/>
<path d="M70.7461 73.6902L70.5151 73.8346L71.6208 75.5284L71.8518 75.384L70.7461 73.6902Z" fill="#060633"/>
<path d="M71.8868 72.976L71.6558 73.1204L72.7617 74.8139L72.9927 74.6696L71.8868 72.976Z" fill="#060633"/>
<path d="M72.9617 72.293L72.7307 72.4374L73.8379 74.1301L74.0688 73.9858L72.9617 72.293Z" fill="#060633"/>
<path d="M73.9681 71.6754L73.7371 71.8197L74.8432 73.5132L75.0742 73.3689L73.9681 71.6754Z" fill="#060633"/>
<path d="M75.0687 70.9642L74.8376 71.1085L75.9438 72.8017L76.1748 72.6574L75.0687 70.9642Z" fill="#060633"/>
<path d="M76.2015 70.28L75.9705 70.4244L77.8505 73.3055L78.0815 73.161L76.2015 70.28Z" fill="#060633"/>
<path d="M77.5567 69.4307L77.3257 69.5751L78.4313 71.2689L78.6623 71.1245L77.5567 69.4307Z" fill="#060633"/>
<path d="M78.6797 68.7067L78.4487 68.8511L79.5544 70.5447L79.7854 70.4003L78.6797 68.7067Z" fill="#060633"/>
<path d="M79.7617 68.0301L79.5308 68.1744L80.6364 69.868L80.8674 69.7236L79.7617 68.0301Z" fill="#060633"/>
<path d="M80.7671 67.4189L80.5361 67.5632L81.6433 69.2559L81.8743 69.1116L80.7671 67.4189Z" fill="#060633"/>
<path d="M81.8804 66.6993L81.6494 66.8436L82.7555 68.5369L82.9866 68.3926L81.8804 66.6993Z" fill="#060633"/>
<path d="M83.4391 65.7534L83.208 65.8977L85.0897 68.7778L85.3208 68.6335L83.4391 65.7534Z" fill="#060633"/>
<path d="M99.1195 116.187L103.017 102.705C109.538 104.9 115.199 105.359 120.658 102.942C126.997 100.134 129.604 95.2717 127.129 89.5888C124.809 84.2612 118.966 83.1427 112.54 85.9896C108.666 87.7048 105.609 90.3302 103.245 92.8612L93.1283 91.0934L81.5503 59.6807L119.407 42.9128L124.626 54.8993L98.391 66.5195L102.364 77.576C104.558 75.863 106.566 74.444 109.999 72.924C121.973 67.6206 134.121 69.2304 140.306 83.4388C146.027 96.5811 140.419 109.022 126.244 115.299C116.384 119.661 107.618 119.306 99.1195 116.187Z" fill="#9CB7FF"/>
<path d="M0.897461 366.567L27.1726 336.755C39.9457 349.819 51.226 356.514 67.5618 358.459C91.3744 361.296 106.248 344.765 112.11 318.998C101.741 325.927 88.1046 329.654 71.2134 327.641C29.1275 322.629 4.7552 296.076 9.49168 256.095C14.1283 216.948 47.7306 191.67 91.4785 196.88C117.506 199.98 131.978 208.18 144.91 224.643C157.11 240.174 163.747 262.363 159.143 301.232C151.677 364.254 116.953 403.759 61.8511 397.197C33.6102 393.831 15.6233 382.116 0.897461 366.567ZM119.06 267.456C121.099 250.243 109.843 236.232 88.5234 233.693C67.4793 231.187 54.1269 241.984 52.0223 259.752C49.9828 276.966 61.3065 290.422 82.3483 292.928C103.39 295.434 117.02 284.669 119.06 267.456Z" fill="#01265B"/>
<path d="M97.4169 233.203C97.8162 233.661 97.8659 234.172 97.6693 234.72C97.6693 234.722 97.6673 234.726 97.6652 234.728C97.299 235.739 96.0929 236.867 94.6924 237.994C94.5124 238.14 94.3531 238.27 94.2145 238.392C94.1772 238.423 94.142 238.457 94.1069 238.488C94.0779 238.513 94.051 238.54 94.0241 238.562C92.7167 239.769 93.209 240.046 90.861 242.494C88.184 245.284 86.3407 245.334 85.8173 245.081C85.3746 244.863 86.2745 243.383 87.2737 241.721C87.3213 241.64 87.3689 241.559 87.4185 241.479C87.5509 241.257 87.6833 241.033 87.8157 240.811C88.9867 238.809 88.6846 237.87 88.4074 234.892C88.1819 232.471 84.6484 221.368 84.6484 221.368L89.7769 220.483C89.7769 220.483 91.3223 229.325 93.0228 230.686C93.9331 231.412 94.9509 231.422 95.826 231.959C95.8881 231.996 95.9481 232.036 96.0081 232.075C96.5108 232.402 97.0176 232.744 97.4169 233.203Z" fill="#FFB27D"/>
<path d="M97.4166 233.203C97.8158 233.661 97.8655 234.173 97.669 234.72C97.669 234.722 97.6669 234.726 97.6648 234.728C97.218 235.738 96.0408 236.861 94.6878 237.984C94.512 238.131 94.3548 238.266 94.2161 238.393C94.1789 238.424 94.1437 238.457 94.1086 238.488C94.0796 238.513 94.0527 238.54 94.0258 238.562C92.7184 239.769 93.2107 240.046 90.8626 242.494C88.1856 245.284 86.3423 245.334 85.8189 245.081C85.3762 244.863 86.2761 243.383 87.2754 241.721C87.7967 241.53 90.2172 240.546 92.046 238.2C93.6576 236.14 94.7333 233.493 95.8298 231.959C95.8919 231.996 95.9519 232.036 96.0119 232.075C96.5104 232.403 97.0173 232.745 97.4166 233.203Z" fill="#233862"/>
<path d="M56.0557 229.994C55.7392 231.58 53.4821 231.317 50.9603 230.699C48.4385 230.081 49.0384 230.815 45.4491 230.417C41.8597 230.019 40.7736 228.678 40.664 228.143C40.5667 227.669 42.3397 227.501 44.2409 227.281C44.4809 227.254 44.7209 227.225 44.9608 227.194C47.1082 226.925 48.6805 225.536 50.6314 224.396C52.4788 223.316 55.2365 218.916 55.2365 218.916L60.1581 219.306C60.1581 219.306 57.5763 223.235 56.577 224.945C55.9895 225.951 56.0205 227.279 56.095 228.305C56.1322 228.865 56.1695 229.435 56.0557 229.994Z" fill="#FFB27D"/>
<path d="M50.9603 230.699C48.4384 230.081 49.0384 230.815 45.4491 230.417C41.8597 230.019 40.7736 228.678 40.664 228.143C40.5667 227.669 42.3397 227.501 44.2409 227.281L44.2595 227.318C44.2595 227.318 46.411 228.848 49.3983 228.919C51.8333 228.979 54.411 228.278 56.0929 228.307C56.1301 228.865 56.1674 229.435 56.0557 229.994C55.7391 231.58 53.4821 231.317 50.9603 230.699Z" fill="#233862"/>
<path d="M74.9167 198.465L79.5177 210.868L85.5234 227.063C85.5234 227.063 87.1536 227.221 88.7134 226.771C90.1512 226.355 91.8 225.267 91.8 225.267C91.8 225.267 90.1326 207.877 87.0211 197.895C86.2247 195.333 85.331 193.261 84.3442 192.094C79.5218 186.384 74.9167 198.465 74.9167 198.465Z" fill="#ED7D2B"/>
<path d="M79.5943 178.767C82.292 177.895 89.4582 178.804 97.1251 180.22C98.7657 180.523 100.421 179.779 101.285 178.35L101.65 177.749L120.302 176.29C120.302 176.29 126.282 189.899 123.086 198.679C122.19 201.141 112.831 201.437 104.949 200.801C95.7039 200.055 85.3165 194.413 83.978 194.144C81.7851 193.705 80.908 198.098 78.7151 202.712C76.5222 207.326 58.1038 223.142 58.1038 223.142C58.1038 223.142 55.2737 223.171 54.1028 222.732C52.845 222.259 52.3857 221.646 52.3857 221.646C52.3857 221.646 72.7963 180.964 79.5943 178.767Z" fill="#9CB7FF"/>
<path d="M99.0902 154.356C104.715 159.45 117.647 164.217 117.726 164.186C117.726 164.186 122.118 167.146 125.281 165.973C130.552 164.018 134.919 156.435 128.239 147.439C124.907 142.954 122.031 141.383 123.024 135.702C124.098 129.548 121.714 121.617 114.616 120.916C114.023 120.858 110.446 120.186 107.833 120.86C101.169 122.576 89.7228 150.683 99.0902 154.356Z" fill="#A9453D"/>
<path d="M106.782 146.876C106.749 146.888 109.699 148.743 112.07 148.3C114.3 147.883 116.4 144.975 116.371 144.967C115.463 144.708 114.854 143.605 115.322 138.144L114.898 138.191L107.765 139.008C107.765 139.008 107.744 141.234 107.576 143.319C107.438 145.07 107.196 146.72 106.782 146.876Z" fill="#FFB27D"/>
<path d="M107.765 139.008C107.765 139.008 107.744 141.234 107.577 143.319C111.514 143.53 113.884 140.111 114.896 138.191L107.765 139.008Z" fill="#ED975D"/>
<path d="M106.292 140.873C106.292 140.873 115.572 141.789 116.052 135.992C116.534 130.193 118.055 126.406 112.151 125.575C106.246 124.744 104.91 126.862 104.279 128.759C103.648 130.653 103.89 140.486 106.292 140.873Z" fill="#FFB27D"/>
<path d="M107.285 124.659C107.285 124.659 108.454 131.743 113.739 133.424C117.595 134.651 119.342 133.843 119.342 133.843C119.342 133.843 117.486 131.376 116.826 127.948C116.631 126.939 115.914 126.106 114.939 125.784C112.198 124.881 108.878 122.412 107.285 124.659Z" fill="#A9453D"/>
<path d="M109.035 126.17C109.035 126.17 107.287 126.56 105.735 128.821C104.889 130.056 103.906 133.171 104.074 134.55C104.074 134.55 102.45 127.994 104.819 125.554C107.33 122.968 109.035 126.17 109.035 126.17Z" fill="#A9453D"/>
<path d="M123.492 165.925C123.326 166.63 123.186 167.276 123.07 167.875C122.881 168.839 122.751 169.67 122.66 170.406C122.377 172.692 122.461 174.048 122.271 175.53C122.166 176.359 121.969 177.227 121.578 178.319C121.193 179.381 111.11 180.328 105.371 179.946C103.549 179.828 102.245 179.445 101.668 179.144C99.9304 178.241 99.4298 179.385 99.5456 162.538C99.6077 153.396 107.289 145.255 107.289 145.255C107.289 145.255 107.918 149.16 115.732 144.513C116.009 144.351 119.087 148.915 122.048 154.536C125.308 160.743 124.414 162.058 123.492 165.925Z" fill="#01265B"/>
<path d="M79.5178 210.868L85.5235 227.063C85.5235 227.063 87.1537 227.221 88.7135 226.771C90.1513 226.355 91.8002 225.267 91.8002 225.267C91.8002 225.267 90.1327 207.877 87.0213 197.895L79.5178 210.868Z" fill="#9CB7FF"/>
<path d="M107.285 145.251C107.285 145.251 100.686 145.816 98.4782 152.192C97.3031 155.589 90.894 172.873 90.894 172.873C90.894 172.873 96.0329 173.577 97.9217 171.685C99.8105 169.793 104.347 155.235 104.347 155.235L107.285 145.251Z" fill="#01265B"/>
<path d="M74.509 168.491L72.6037 167.735C72.6037 167.735 71.4576 167.48 70.839 167.674C70.2205 167.869 68.671 167.849 68.6648 168.103C68.6586 168.358 70.4294 169.148 70.4294 169.148L70.4853 169.127C69.8129 170.655 66.445 171.528 66.2815 172.087C66.085 172.767 67.6511 173.117 68.5055 173.329C69.3599 173.54 71.4493 173.519 72.4796 172.431C73.2326 171.635 74.507 170.541 74.507 170.541V168.491H74.509Z" fill="#FFB27D"/>
<path d="M108.434 137.453C108.434 137.453 108.045 138.406 107.016 138.406C105.988 138.406 105.711 138.253 105.516 138.035C105.322 137.818 105.129 137.398 105.129 137.398C105.129 137.398 106.832 137.06 108.434 137.453Z" fill="white"/>
<path d="M93.0764 166.246L78.8928 162.93C78.8928 162.93 75.9758 164.101 77.2295 166.246C77.2295 166.246 90.0705 174.305 94.899 173.436C100.394 172.45 104.113 162.128 104.113 162.128L93.0764 166.246Z" fill="#01265B"/>
<path d="M122.66 170.404C122.377 172.69 122.461 174.046 122.271 175.528C114.97 175.55 105.212 169.88 105.212 169.88L122.66 170.404Z" fill="#94B0ED"/>
<path d="M105.21 165.084C105.21 165.084 116.582 164.744 118.5 158.269C120.606 151.153 122.964 161.195 122.964 161.195L121.708 167.604H109.232L105.21 165.084Z" fill="#94B0ED"/>
<path d="M67.0521 175.138L47.4421 180.141L43.6355 165.164L63.2434 160.161L58.2763 140.625L73.6597 136.699L78.6269 156.236L98.2348 151.232L102.041 166.209L82.4335 171.212L87.4006 190.749L72.0171 194.675L67.0521 175.138Z" fill="#505ABA"/>
<path d="M105.212 166.584L103.919 164.992C103.919 164.992 103.044 164.211 102.409 164.076C101.774 163.944 100.433 163.168 100.303 163.386C100.172 163.604 101.333 165.162 101.333 165.162L101.393 165.171C100.061 166.174 96.6968 165.289 96.2831 165.697C95.7804 166.195 96.9761 167.266 97.6175 167.869C98.2588 168.472 100.094 169.476 101.523 169.03C102.568 168.705 104.215 168.373 104.215 168.373L105.212 166.584Z" fill="#FFB27D"/>
<path d="M115.752 144.507C115.752 144.507 123.111 144.996 124.956 147.881C126.802 150.766 129.092 165.411 128.132 170.441C127.172 175.472 103.532 169.48 103.532 169.48L104.287 165.115C104.287 165.115 117.931 165.194 118.709 163.413C119.741 161.046 115.752 144.507 115.752 144.507Z" fill="#01265B"/>
</svg>
