<svg width="136" height="136" viewBox="0 0 136 136" fill="none" xmlns="http://www.w3.org/2000/svg">
<circle cx="68" cy="68" r="68" fill="white"/>
<path d="M106.77 110.534C104.6 110.68 103.27 109.764 101.92 108.757C97.6401 105.523 95.4001 105.532 91.1701 108.665C87.4301 111.44 82.2801 111.422 78.5501 108.61C74.5401 105.587 71.8901 105.587 68.0001 108.582C64.3801 111.376 59.2001 111.605 55.7501 108.711C52.3901 105.889 48.4201 105.715 44.8401 108.527C40.7501 111.743 36.1101 111.431 31.8601 108.262C30.7801 107.465 29.7501 106.558 28.2501 106.466C27.1701 106.402 26.9001 105.77 27.0301 104.964C27.2101 103.874 28.2101 104.149 28.9401 104.222C30.7001 104.396 32.0301 105.376 33.3501 106.366C37.2401 109.288 39.8001 109.288 43.7201 106.411C48.1101 103.187 52.2301 103.196 56.7101 106.439C60.7001 109.324 62.9901 109.297 67.0401 106.329C71.2401 103.251 75.3201 103.233 79.4701 106.265C83.7101 109.361 86.0001 109.361 90.3401 106.247C94.4301 103.306 98.4701 103.279 102.55 106.182C103.88 107.126 105.07 108.289 106.88 108.463C107.77 108.546 108.04 109.059 108.02 109.782C107.97 110.827 107.08 110.479 106.77 110.534Z" fill="#7AAF52"/>
<path d="M87.4219 72.6071C88.1592 72.6071 88.855 72.6071 89.598 72.6071C89.598 73.3312 89.598 74.044 89.598 74.8002C88.8814 74.8002 88.1705 74.8002 87.4219 74.8002C87.4219 74.0798 87.4219 73.384 87.4219 72.6071Z" fill="#7AAF52"/>
<path d="M75.6943 79.338C75.9791 81.6235 76.2563 83.8373 76.541 86.1322C76.9973 86.1322 77.4367 86.1209 77.8779 86.1341C79.7222 86.1888 81.1798 87.6728 81.1911 89.5001C81.2024 91.3594 79.7373 92.9075 77.8591 92.9132C70.2842 92.932 62.7075 92.9339 55.1308 92.9113C53.2884 92.9056 51.8346 91.3688 51.8289 89.5415C51.8214 87.6841 53.2922 86.1812 55.1704 86.1341C55.589 86.1228 56.0095 86.1322 56.4753 86.1322C56.76 83.8656 57.0372 81.6518 57.3276 79.3399C57.0429 79.3399 56.7939 79.3399 56.5431 79.3399C51.744 79.3399 46.943 79.3399 42.1439 79.3399C38.3631 79.3399 36.0135 76.996 36.0135 73.2246C36.0116 62.2366 36.0135 51.2486 36.0135 40.2606C36.0135 36.197 38.6177 33.7927 42.7398 34.1001C42.7398 34.8091 42.7398 35.5257 42.7398 36.3252C42.4419 36.3252 42.1458 36.3233 41.8479 36.3252C39.6982 36.3403 38.2764 37.7659 38.2745 39.9325C38.2688 47.8789 38.2726 55.8252 38.2726 63.7697C38.2726 65.1575 38.2726 66.5435 38.2726 67.9748C39.0344 67.9748 39.7472 67.9748 40.5317 67.9748C40.5317 65.7666 40.4958 63.5792 40.5468 61.3937C40.5713 60.3641 40.641 59.3081 40.8918 58.3162C41.8064 54.707 44.0296 52.1651 47.4069 50.6301C48.3272 50.2115 49.2474 49.7966 50.1827 49.412C50.556 49.2592 50.7823 49.0688 50.6975 48.6388C50.6937 48.6162 50.6956 48.5917 50.6975 48.569C50.8201 47.1793 50.7088 45.9762 49.4133 44.9862C48.6685 44.4186 48.3385 43.3117 47.7935 42.4669C47.6653 42.2689 47.4409 42.0257 47.2372 42.003C45.2949 41.7786 43.9674 40.4756 43.924 38.6899C43.8788 36.8588 45.1328 35.4823 47.109 35.1938C47.1542 35.1862 47.1976 35.1711 47.2485 35.1561C47.3089 33.985 47.2806 32.8008 47.4484 31.6449C47.9971 27.8339 51.3631 24.9997 55.2364 25.0072C59.1134 25.0148 62.436 27.8433 62.9904 31.6807C63.1544 32.814 63.1223 33.9756 63.1827 35.1598C64.6385 35.3107 65.751 35.9895 66.2922 37.4132C67.0936 39.5196 65.6341 41.8013 63.3656 41.9615C62.9074 41.9936 62.7264 42.1558 62.5793 42.5574C62.089 43.8925 61.2461 44.9749 60.175 45.9045C59.9487 46.1007 59.7733 46.4703 59.7564 46.7701C59.7149 47.564 59.5056 48.5313 59.8695 49.1121C60.2127 49.6628 61.1857 49.8457 61.9042 50.1304C64.4141 51.1223 66.5694 52.5592 68.0516 54.8824C68.9907 56.3551 69.5884 57.9485 69.7845 59.689C69.8015 59.8474 69.843 60.0039 69.9373 60.1642C70.4238 58.9668 71.2648 57.8844 70.6633 56.4286C70.3069 55.5688 70.1937 54.6089 69.9618 53.6963C69.8317 53.189 69.8977 52.6799 70.3559 52.4517C70.7066 52.2782 71.1913 52.2914 71.5986 52.348C71.9267 52.3932 72.2284 52.629 72.6263 52.8213C72.8658 52.1085 73.0751 51.4466 73.3108 50.7942C73.5729 50.0644 74.0349 49.8079 74.7986 49.9588C76.5033 50.2963 78.2098 50.632 79.9107 50.9903C81.1534 51.2505 81.4344 51.7898 80.9686 52.9608C79.0867 57.6826 77.2029 62.4025 75.3191 67.1224C75.2078 67.4015 75.1097 67.6844 74.9947 67.9955C81.5966 67.9955 88.1305 67.9955 94.7418 67.9955C94.7418 60.464 94.7418 52.959 94.7418 45.418C95.5149 45.418 96.2107 45.418 97.0103 45.418C97.0103 45.6651 97.0103 45.914 97.0103 46.1629C97.0103 55.2161 97.0122 64.2713 97.0084 73.3245C97.0065 76.9545 94.6211 79.338 90.9911 79.3399C86.1675 79.3418 81.3458 79.3399 76.5221 79.3399C76.2638 79.338 76.0092 79.338 75.6943 79.338ZM94.738 70.3338C75.8772 70.3338 57.0938 70.3338 38.2745 70.3338C38.2745 71.3012 38.2745 72.2195 38.2745 73.1359C38.2745 75.7703 39.5832 77.0733 42.2288 77.0733C58.4175 77.0733 74.6044 77.0733 90.7931 77.0733C91.0515 77.0733 91.3117 77.0808 91.57 77.0639C93.2521 76.9564 94.6475 75.6006 94.7286 73.9129C94.7851 72.7399 94.738 71.5595 94.738 70.3338ZM42.9265 67.971C43.958 67.971 45.0479 67.971 46.2133 67.971C46.2133 65.3235 46.2133 62.7212 46.2133 60.1322C46.9883 60.1322 47.6841 60.1322 48.4573 60.1322C48.4573 62.7721 48.4573 65.3725 48.4573 67.9616C53.0112 67.9616 57.4898 67.9616 62.0192 67.9616C62.0192 65.3216 62.0192 62.7382 62.0192 60.1416C62.7848 60.1416 63.4976 60.1416 64.2877 60.1416C64.2877 62.791 64.2877 65.3914 64.2877 68.0163C65.0703 68.0163 65.7755 68.0276 66.4789 68.0068C66.6373 68.0031 66.8881 67.9201 66.9315 67.8088C67.1936 67.1357 67.5688 66.453 67.6084 65.7553C67.7046 64.0865 67.7008 62.4063 67.6197 60.7356C67.4632 57.5205 65.9811 55.0427 63.2619 53.321C63.1129 53.2267 62.9394 53.1758 62.7452 53.0891C62.4982 54.2997 62.2681 55.4537 62.023 56.6021C61.7458 57.9014 60.9312 58.1861 59.8884 57.3564C59.0134 56.6587 58.1403 55.9591 57.2182 55.2199C56.8845 55.8837 56.6544 56.5154 56.2754 57.0396C56.0302 57.379 55.5664 57.7656 55.2043 57.7618C54.8404 57.7581 54.3897 57.3602 54.1445 57.017C53.7693 56.4909 53.5373 55.861 53.2168 55.2199C52.2984 55.9534 51.4404 56.6436 50.5787 57.33C49.4963 58.1937 48.6892 57.9165 48.4045 56.5757C48.1593 55.4273 47.9312 54.2771 47.6879 53.0853C47.5012 53.1664 47.3447 53.2154 47.2108 53.2984C44.8575 54.7523 43.2301 56.819 42.9831 59.5721C42.7342 62.3309 42.9265 65.1274 42.9265 67.971ZM74.2687 86.0907C73.9802 83.7977 73.7011 81.5877 73.4239 79.372C68.7813 79.372 64.2047 79.372 59.5999 79.372C59.3189 81.6178 59.0417 83.8316 58.7588 86.0907C63.9313 86.0907 69.068 86.0907 74.2687 86.0907ZM49.5717 37.4057C49.5717 38.2543 49.5566 39.0481 49.5736 39.8439C49.6377 42.7234 51.861 45.1031 54.7159 45.3615C57.5954 45.6217 60.324 43.6493 60.7068 40.7585C60.9425 38.984 60.7501 37.153 60.7501 35.2786C59.2454 35.0184 57.7406 35.2937 56.347 35.9405C54.2086 36.9324 52.0307 37.6339 49.5717 37.4057ZM60.8143 32.9724C61.0405 29.184 57.0127 26.265 53.3921 27.5887C50.0978 28.7937 49.1833 31.6185 49.666 35.0561C50.8747 35.371 52.7491 35.1146 54.4444 34.2981C56.4508 33.3307 58.5288 32.7838 60.8143 32.9724ZM66.511 88.3932C62.9112 88.3932 59.3114 88.3932 55.7115 88.3932C55.5004 88.3932 55.2835 88.3724 55.078 88.4101C54.4689 88.5233 54.1031 88.8966 54.1031 89.5227C54.1031 90.1487 54.4708 90.5221 55.078 90.6371C55.2835 90.6767 55.5004 90.6541 55.7115 90.656C62.9112 90.656 70.1108 90.656 77.3104 90.656C77.5216 90.656 77.7384 90.6767 77.944 90.639C78.5512 90.524 78.9207 90.1506 78.9207 89.5246C78.9207 88.9004 78.553 88.5233 77.9458 88.4101C77.7403 88.3724 77.5234 88.3932 77.3122 88.3932C73.7106 88.3932 70.1108 88.3932 66.511 88.3932ZM69.3112 68.0182C70.1673 68.0182 70.9235 67.9729 71.6702 68.0314C72.3038 68.0823 72.6093 67.8786 72.8431 67.2639C73.8048 64.7352 74.8307 62.2309 75.8301 59.7173C75.9225 59.4854 75.9998 59.2478 76.1035 58.9611C75.1135 58.9611 74.1971 58.9461 73.2806 58.9743C73.1203 58.98 72.879 59.1271 72.8205 59.2685C71.6552 62.1442 70.5086 65.0256 69.3112 68.0182ZM52.9924 47.4131C52.9924 48.158 52.7774 49.0122 53.0357 49.6816C53.6147 51.1751 54.4293 52.5762 55.2156 54.1545C55.836 52.9099 56.315 51.7615 56.958 50.715C57.6199 49.6382 57.4502 48.5219 57.4615 47.4037C56.6883 47.4867 55.968 47.6243 55.2496 47.6262C54.5066 47.6262 53.7636 47.4923 52.9924 47.4131ZM78.5002 53.0136C77.3688 52.7874 76.2827 52.5705 75.2097 52.3555C75.1456 52.4988 75.1116 52.5592 75.089 52.6252C74.9155 53.1343 74.7609 53.6529 74.5648 54.1545C74.412 54.5392 74.2914 55.0068 73.9991 55.2501C73.7011 55.499 73.2146 55.5179 72.7847 55.6461C72.8601 55.9478 72.9506 56.3061 73.0506 56.6983C74.2989 56.6983 75.5152 56.7096 76.7315 56.6832C76.8823 56.6794 77.101 56.5003 77.1652 56.3513C77.6158 55.2727 78.0364 54.1809 78.5002 53.0136ZM50.3241 54.6335C50.9068 54.1696 51.414 53.7924 51.8836 53.3719C51.9967 53.272 52.0665 52.9948 52.0118 52.8571C51.8119 52.365 51.5517 51.8992 51.2934 51.3844C50.8804 51.5673 50.5089 51.6729 50.2129 51.886C50.0394 52.0104 49.8772 52.3178 49.9017 52.5196C49.9885 53.1928 50.16 53.8547 50.3241 54.6335ZM59.136 51.3919C58.8701 51.9237 58.6118 52.3951 58.4043 52.8873C58.3534 53.008 58.4175 53.2607 58.5194 53.3493C59.0096 53.7773 59.532 54.1715 60.109 54.6297C60.2749 53.832 60.4409 53.1287 60.5521 52.4178C60.5767 52.2631 60.456 52.001 60.324 51.9237C59.9676 51.7144 59.5678 51.5786 59.136 51.3919ZM47.2787 37.451C46.564 37.5905 46.1812 37.9601 46.1982 38.6088C46.2133 39.2499 46.5867 39.6233 47.2787 39.6987C47.2787 38.9501 47.2787 38.2335 47.2787 37.451ZM63.1525 39.6704C63.8936 39.5479 64.2934 39.1462 64.2406 38.5428C64.184 37.9054 63.8238 37.5415 63.1525 37.4717C63.1525 38.2316 63.1525 38.9501 63.1525 39.6704Z" fill="#7AAF52"/>
<path d="M76.6777 43.1148C75.5293 43.1148 74.4733 43.1223 73.4173 43.1129C71.3525 43.0959 69.9099 41.659 69.9043 39.5923C69.8949 35.8906 69.893 32.189 69.9043 28.4874C69.9118 26.464 71.3619 25.0083 73.3834 25.0064C80.0889 24.997 86.7926 24.9988 93.4982 25.0064C95.563 25.0083 96.9999 26.4546 97.0056 28.5308C97.0169 32.2079 97.015 35.8869 97.0056 39.564C96.9999 41.6779 95.5649 43.1072 93.4491 43.111C90.1322 43.1185 86.8152 43.1261 83.4983 43.1016C82.9797 43.0978 82.629 43.2562 82.2745 43.622C81.1487 44.793 79.9834 45.9263 78.8406 47.0823C78.4371 47.4896 78.0109 47.797 77.4075 47.5556C76.7795 47.3029 76.6626 46.7787 76.6739 46.1677C76.6909 45.1815 76.6777 44.1953 76.6777 43.1148ZM78.9349 43.7955C79.7948 42.9262 80.5227 42.2228 81.2091 41.4817C81.6428 41.0122 82.133 40.8368 82.7704 40.8406C86.274 40.8614 89.7796 40.8519 93.2832 40.85C94.3505 40.85 94.7446 40.4654 94.7465 39.4169C94.7503 35.8341 94.7503 32.2512 94.7465 28.6684C94.7446 27.6615 94.3448 27.2692 93.3247 27.2673C86.7398 27.2655 80.1549 27.2636 73.5701 27.2673C72.5575 27.2673 72.1634 27.6652 72.1615 28.6816C72.1577 32.2644 72.1577 35.8473 72.1615 39.4301C72.1634 40.4484 72.5575 40.8425 73.5663 40.8482C74.9297 40.8538 76.2949 40.8406 77.6583 40.8538C78.4955 40.8614 78.9104 41.2837 78.933 42.1172C78.9462 42.6056 78.9349 43.094 78.9349 43.7955Z" fill="#7AAF52"/>
<path d="M91.3243 32.8999C86.0651 32.8999 80.853 32.8999 75.5938 32.8999C75.5938 32.1702 75.5938 31.4574 75.5938 30.7031C80.8322 30.7031 86.0613 30.7031 91.3243 30.7031C91.3243 31.4272 91.3243 32.1249 91.3243 32.8999Z" fill="#7AAF52"/>
<path d="M75.5811 37.4067C75.5811 36.6562 75.5811 35.9585 75.5811 35.2269C80.8252 35.2269 86.0373 35.2269 91.304 35.2269C91.304 35.9283 91.304 36.643 91.304 37.4067C86.0901 37.4067 80.8629 37.4067 75.5811 37.4067Z" fill="#7AAF52"/>
</svg>
