<svg id="Layer_1" data-name="Layer 1" xmlns="http://www.w3.org/2000/svg" xmlns:xlink="http://www.w3.org/1999/xlink" viewBox="0 0 100 100"><defs><style>.cls-1{fill:#fff;stroke:#fff;}.cls-2,.cls-4{fill:none;}.cls-3{mask:url(#mask);}.cls-4{stroke:#ff4949;stroke-linecap:round;stroke-width:2px;}.cls-5{clip-path:url(#clip-path);}.cls-6{fill:#1d6b8d;}.cls-7{fill:#e76044;}.cls-8{fill:#e8b83e;}.cls-9{fill:#009daa;}</style><mask id="mask" x="-38.76" y="-36.9" width="158" height="154.01" maskUnits="userSpaceOnUse"><g id="mask0_1120:940" data-name="mask0 1120:940"><rect class="cls-1" x="1.23" y="1.38" width="75.1" height="75.1" rx="3.93"/></g></mask><clipPath id="clip-path"><rect class="cls-2" x="18.26" y="7.06" width="72.48" height="86.46"/></clipPath></defs><g class="cls-3"><line class="cls-4" x1="-16.49" y1="70.52" x2="67.52" y2="-13.49"/><line class="cls-4" x1="10.86" y1="97.68" x2="94.87" y2="13.67"/><line class="cls-4" x1="-37.76" y1="48.11" x2="46.25" y2="-35.9"/><line class="cls-4" x1="-32.83" y1="53.24" x2="51.19" y2="-30.77"/><line class="cls-4" x1="-10.41" y1="75.84" x2="73.6" y2="-8.17"/><line class="cls-4" x1="16.94" y1="103" x2="100.95" y2="18.99"/><line class="cls-4" x1="-27.89" y1="59.7" x2="56.12" y2="-24.32"/><line class="cls-4" x1="-3.77" y1="80.4" x2="80.25" y2="-3.61"/><line class="cls-4" x1="23.59" y1="107.56" x2="107.6" y2="23.55"/><line class="cls-4" x1="-21.43" y1="64.63" x2="62.58" y2="-19.38"/><line class="cls-4" x1="5.92" y1="91.8" x2="89.93" y2="7.78"/><line class="cls-4" x1="1.36" y1="85.91" x2="85.37" y2="1.9"/><line class="cls-4" x1="28.71" y1="113.07" x2="112.73" y2="29.06"/><line class="cls-4" x1="34.22" y1="116.11" x2="118.23" y2="32.1"/></g><g class="cls-5"><path class="cls-6" d="M90.29,57a5.73,5.73,0,0,1-.58.92c-2,2.47-6,3.21-6.21,3.92a6,6,0,0,0,.4,1.86A2.69,2.69,0,0,1,82.73,67s2.58,1.81,2.13,3.71-1.58,1.74-1.58,4.17,3,7.81-4.19,8.35a142.39,142.39,0,0,1-16,0l3.26,10.29H36.15s2.17-12-1.45-20S19.32,55.07,21.13,38.21,32,12.46,45.75,11.18s25.66-.27,31.68,18.14C80.64,39.16,89.71,48.24,90.66,54A5,5,0,0,1,90.29,57Z"/><path class="cls-7" d="M67.36,21.57a4,4,0,0,1-7,2.58H57.52V36.07H45.61v3a3.91,3.91,0,0,1,1.4,3,4,4,0,1,1-6.55-3v-3H28.56V24.14h4.92a3.91,3.91,0,0,0,3,1.4,4,4,0,0,0,0-8,3.94,3.94,0,0,0-3,1.4H28.56V7.06h11.9V9.22a3.94,3.94,0,0,0-1.4,3,4,4,0,1,0,7.95,0,3.94,3.94,0,0,0-1.4-3V7.06H57.52V19h2.84a4,4,0,0,1,7,2.59Z"/><path class="cls-8" d="M28.89,43.55a2.92,2.92,0,0,1,1.89,5.14v2.09h8.74v8.76h2.19a2.88,2.88,0,0,1,2.21-1,2.92,2.92,0,1,1-2.21,4.81H39.52v8.75H30.78V68.45a2.91,2.91,0,1,0-3.78,0v3.62H18.26V63.32h1.59a2.89,2.89,0,0,0,2.21,1,2.92,2.92,0,1,0,0-5.84,2.88,2.88,0,0,0-2.21,1H18.26V50.78H27V48.69a2.92,2.92,0,0,1,1.9-5.14Z"/><path class="cls-9" d="M62.25,41.84a1.87,1.87,0,0,1,1.21,3.29v1.34h5.59v5.6h1.4a1.87,1.87,0,1,1,1.42,3.08,1.89,1.89,0,0,1-1.42-.65h-1.4v5.59H63.46V57.78a1.87,1.87,0,1,0-2.42,0v2.31H55.45V54.5h1a1.84,1.84,0,0,0,1.42.65,1.87,1.87,0,0,0,0-3.74,1.85,1.85,0,0,0-1.42.66h-1v-5.6H61V45.13a1.87,1.87,0,0,1,1.21-3.29Z"/></g></svg>