<svg width="105" height="106" viewBox="0 0 105 106" fill="none" xmlns="http://www.w3.org/2000/svg">
<mask id="mask0" style="mask-type:alpha" maskUnits="userSpaceOnUse" x="0" y="0" width="87" height="87">
<rect x="0.5" y="0.5" width="86" height="86" rx="4.5" fill="white" stroke="white"/>
</mask>
<g mask="url(#mask0)">
<line x1="-19.793" y1="79.6716" x2="76.4086" y2="-16.53" stroke="#56A219" stroke-width="2" stroke-linecap="round"/>
<line x1="11.5273" y1="110.774" x2="107.729" y2="14.5725" stroke="#56A219" stroke-width="2" stroke-linecap="round"/>
<line x1="-44.1523" y1="54.0066" x2="52.0492" y2="-42.195" stroke="#56A219" stroke-width="2" stroke-linecap="round"/>
<line x1="-38.4971" y1="59.8791" x2="57.7045" y2="-36.3225" stroke="#56A219" stroke-width="2" stroke-linecap="round"/>
<line x1="-12.832" y1="85.7616" x2="83.3695" y2="-10.44" stroke="#56A219" stroke-width="2" stroke-linecap="round"/>
<line x1="18.4873" y1="116.864" x2="114.689" y2="20.6625" stroke="#56A219" stroke-width="2" stroke-linecap="round"/>
<line x1="-32.8428" y1="67.2741" x2="63.3588" y2="-28.9275" stroke="#56A219" stroke-width="2" stroke-linecap="round"/>
<line x1="-5.21973" y1="90.9816" x2="90.9818" y2="-5.21998" stroke="#56A219" stroke-width="2" stroke-linecap="round"/>
<line x1="26.0996" y1="122.084" x2="122.301" y2="25.8825" stroke="#56A219" stroke-width="2" stroke-linecap="round"/>
<line x1="-25.4473" y1="72.929" x2="70.7543" y2="-23.2725" stroke="#56A219" stroke-width="2" stroke-linecap="round"/>
<line x1="5.87207" y1="104.032" x2="102.074" y2="7.83001" stroke="#56A219" stroke-width="2" stroke-linecap="round"/>
<line x1="0.652344" y1="97.2891" x2="96.8539" y2="1.08752" stroke="#56A219" stroke-width="2" stroke-linecap="round"/>
<line x1="31.9727" y1="128.392" x2="128.174" y2="32.19" stroke="#56A219" stroke-width="2" stroke-linecap="round"/>
<line x1="38.2803" y1="131.872" x2="134.482" y2="35.67" stroke="#56A219" stroke-width="2" stroke-linecap="round"/>
</g>
<g clip-path="url(#clip0)">
<path d="M56.4324 104.493C55.7499 104.493 55.0882 104.121 54.7495 103.479C53.0563 100.222 50.9253 96.4069 47.0907 92.2704C46.6426 91.7889 46.4811 91.1055 46.6635 90.4739C48.0858 85.566 50.321 78.8513 50.3418 78.7892C50.67 77.8004 51.7433 77.2671 52.7332 77.5933C53.7231 77.9195 54.265 78.9859 53.9368 79.9696C53.9159 80.0317 51.9934 85.8145 50.5919 90.5153C54.1139 94.4862 56.2865 98.2551 58.11 101.75C58.5894 102.671 58.2299 103.805 57.2973 104.281C57.0211 104.426 56.7242 104.493 56.4324 104.493Z" fill="#007CFF"/>
<path d="M59.584 106H44.9072L52.6859 101.62L59.2037 101.869L59.584 106Z" fill="#1A2E35"/>
<path d="M58.1744 88.3419C64.8567 86.2667 68.871 80.1243 67.1405 74.6224C65.4101 69.1204 58.5903 66.3424 51.908 68.4176C45.2257 70.4927 41.2114 76.6351 42.9418 82.1371C44.6722 87.639 51.4921 90.417 58.1744 88.3419Z" fill="#1A2E35"/>
<path d="M21.6546 71.5205C20.9095 71.5205 20.2062 71.0856 19.904 70.3608C19.5028 69.4031 19.9613 68.3004 20.9304 67.9017C22.0297 67.4513 22.1808 66.3331 22.186 66.3227C22.2642 65.484 22.8998 64.7955 23.7334 64.6453C24.1867 64.5625 24.6191 64.4382 25.1245 64.2933C27.6879 63.5478 30.866 62.6263 40.8642 65.4115C50.7268 59.929 50.8415 49.6524 50.8415 49.2072C50.8415 48.1718 51.6855 47.3279 52.7275 47.3228H52.7327C53.7747 47.3228 54.6188 48.1563 54.624 49.1865C54.6292 49.7301 54.5667 62.6366 41.9479 69.0976C41.5206 69.3202 41.0205 69.3668 40.5568 69.2322C31.0223 66.4987 28.3391 67.2753 26.1821 67.9017C25.9894 67.9587 25.7966 68.0156 25.5986 68.0674C25.1297 69.2633 24.1606 70.6404 22.3736 71.3756C22.1391 71.4739 21.8942 71.5205 21.6546 71.5205Z" fill="#1A2E35"/>
<path d="M43.772 58.0652C40.1822 43.8852 30.6165 7.31415 61.2674 5.07765C88.7663 3.07411 96.3105 39.4432 98.1444 52.0391C99.2125 59.3802 99.572 66.0432 99.6345 71.2461C99.7127 77.9608 94.9663 83.7488 88.3443 85.0845C73.3601 88.1079 59.1834 88.5376 49.6385 84.7946C47.0543 83.7799 45.4965 81.1655 45.7414 78.4216C46.1165 74.3524 46.1217 67.3478 43.772 58.0652Z" fill="#007CFF"/>
<path d="M94.0444 71.4377C93.9402 71.4377 93.8568 71.3548 93.8568 71.2513C93.7787 64.7747 93.2785 58.3189 92.3667 52.0701C87.8131 20.7746 75.5434 4.9482 56.8861 6.31495C56.7871 6.32531 56.6933 6.24247 56.6829 6.13893C56.6777 6.03539 56.7558 5.9422 56.86 5.93702C75.7414 4.55474 88.1518 20.495 92.7419 52.0132C93.6536 58.2827 94.159 64.754 94.2371 71.2461C94.2371 71.3497 94.1538 71.4377 94.0444 71.4377Z" fill="#1A2E35"/>
<path d="M93.7554 89.3468C100.438 87.2717 104.452 81.1292 102.722 75.6273C100.991 70.1254 94.1713 67.3474 87.489 69.4225C80.8067 71.4976 76.7924 77.6401 78.5228 83.142C80.2533 88.6439 87.0731 91.4219 93.7554 89.3468Z" fill="#1A2E35"/>
<path d="M94.9138 104.493C94.2313 104.493 93.5696 104.121 93.231 103.479C91.5377 100.222 89.4068 96.4069 85.5722 92.2704C85.1241 91.7889 84.9626 91.1055 85.1449 90.4739C86.5673 85.566 88.8024 78.8513 88.8232 78.7892C89.1515 77.8004 90.2195 77.2671 91.2147 77.5933C92.2046 77.9195 92.7464 78.9859 92.4182 79.9696C92.3974 80.0317 90.4748 85.8145 89.0733 90.5153C92.5953 94.4862 94.7679 98.2551 96.5915 101.75C97.0708 102.671 96.7113 103.805 95.7787 104.281C95.5026 104.426 95.2056 104.493 94.9138 104.493Z" fill="#007CFF"/>
<path d="M90.9389 47.1726C90.2564 47.1726 89.5999 46.8051 89.2612 46.1683C88.7767 45.2519 89.131 44.1182 90.0532 43.6315C90.4179 43.44 98.655 38.9618 100.968 28.2193C95.4769 25.9362 85.6038 20.785 83.4416 18.1912C83.2332 17.9427 83.0925 17.6373 83.0352 17.3163C82.9831 17.0316 82.6288 14.8106 83.4572 12.7035L82.4621 10.7932C81.9828 9.87165 82.3423 8.73787 83.2749 8.2564C84.2023 7.78011 85.3433 8.13733 85.8278 9.06403L87.2606 11.8131C87.568 12.4033 87.5419 13.1073 87.1876 13.6716C86.7344 14.3964 86.677 15.4577 86.7135 16.1515C89.1466 18.3362 98.9676 23.5081 103.771 25.2787C104.615 25.5893 105.121 26.4487 104.985 27.3288C102.844 41.0637 92.2675 46.7274 91.8194 46.9604C91.5328 47.1053 91.2359 47.1726 90.9389 47.1726Z" fill="#1A2E35"/>
<path d="M84.9001 17.9272C84.723 17.9272 84.5406 17.8754 84.3843 17.7719C83.9467 17.4871 83.8216 16.9073 84.1082 16.4724C84.1759 16.3741 85.739 14.0288 88.12 13.3972C88.6253 13.2626 89.1463 13.5629 89.2766 14.0599C89.4121 14.5621 89.1099 15.0746 88.6097 15.2092C86.9477 15.6493 85.7077 17.482 85.6973 17.4975C85.5097 17.7771 85.2075 17.9272 84.9001 17.9272Z" fill="#1A2E35"/>
<path d="M98.0655 106H83.3887L91.1621 101.62L97.6852 101.869L98.0655 106Z" fill="#1A2E35"/>
<path d="M69.0869 27.6343C61.1207 27.6343 55.822 23.7204 55.5615 23.5288C54.7279 22.9024 54.5664 21.722 55.1968 20.8937C55.8272 20.0705 57.0099 19.9049 57.8435 20.5261C57.9373 20.5934 64.2259 25.1544 72.9632 23.5081C73.9896 23.3166 74.9795 23.9844 75.1775 25.0043C75.3703 26.0242 74.6982 27.0078 73.6718 27.2046C72.0671 27.5049 70.5301 27.6343 69.0869 27.6343Z" fill="#1A2E35"/>
<path d="M35.2478 24.3934C35.0342 24.3934 34.8206 24.3572 34.607 24.2847C33.6223 23.9327 33.1117 22.8558 33.466 21.8773C34.4715 19.1024 36.1335 17.3008 38.4103 16.5242C42.5367 15.1109 46.9861 17.8599 47.1737 17.9738C48.0594 18.5278 48.3199 19.6874 47.7624 20.5675C47.205 21.4425 46.0379 21.7065 45.1574 21.1577C44.2977 20.6245 41.625 19.3923 39.6295 20.0809C38.4781 20.4795 37.6288 21.4787 37.0245 23.1457C36.7535 23.9171 36.0241 24.3934 35.2478 24.3934Z" fill="#1A2E35"/>
<path d="M50.1644 56.1186C50.1123 56.1186 50.0602 56.1135 50.0081 56.0979C49.7111 56.0099 49.5339 55.7045 49.6173 55.4094C49.6329 55.3576 49.9872 54.141 51.5398 53.3437C53.7124 52.2306 57.0208 52.4636 61.3713 54.0271C61.6682 54.1306 61.8193 54.4568 61.7099 54.7519C61.6057 55.047 61.2775 55.1971 60.9805 55.0884C55.9892 53.2919 53.3946 53.6802 52.1025 54.3222C50.9719 54.8813 50.7114 55.6838 50.701 55.72C50.6333 55.9581 50.4092 56.1186 50.1644 56.1186Z" fill="#1A2E35"/>
<path d="M32.2993 54.053C21.2852 55.0366 13.4023 59.5666 13.4023 59.5666C16.6639 58.9557 28.3188 73.2859 31.3146 84.339C36.8425 82.3044 43.2874 80.9169 50.1647 79.8297C46.0018 68.4401 38.3847 55.5336 32.2993 54.053Z" fill="#007CFF"/>
<path opacity="0.6" d="M32.2993 54.053C21.2852 55.0366 13.4023 59.5666 13.4023 59.5666C16.6639 58.9557 28.3188 73.2859 31.3146 84.339C36.8425 82.3044 43.2874 80.9169 50.1647 79.8297C46.0018 68.4401 38.3847 55.5336 32.2993 54.053Z" fill="white"/>
<path d="M32.2991 54.053C25.0936 53.2454 13.3917 59.2404 13.3917 59.2404C11.3181 60.5554 11.8808 63.0197 13.0114 64.0551C14.0951 62.5072 26.1877 58.4846 30.7361 57.941C28.4749 55.865 30.5746 54.3584 32.2991 54.053Z" fill="#007CFF"/>
<path opacity="0.2" d="M32.2991 54.053C25.0936 53.2454 13.3917 59.2404 13.3917 59.2404C11.3181 60.5554 11.8808 63.0197 13.0114 64.0551C14.0951 62.5072 26.1877 58.4846 30.7361 57.941C28.4749 55.865 30.5746 54.3584 32.2991 54.053Z" fill="white"/>
<path d="M21.6553 71.5205C21.0353 71.5205 20.431 71.2202 20.0663 70.6663C18.696 68.5747 19.5505 65.3908 19.738 64.7696C20.035 63.7756 21.0927 63.2113 22.093 63.5064C23.0933 63.8015 23.6612 64.8472 23.3643 65.8412C23.0569 66.8922 22.9943 68.2382 23.234 68.611C23.8071 69.4807 23.557 70.6456 22.6817 71.2151C22.3691 71.4221 22.0096 71.5205 21.6553 71.5205Z" fill="#1A2E35"/>
</g>
<defs>
<clipPath id="clip0">
<rect width="93" height="101" fill="white" transform="translate(12 5)"/>
</clipPath>
</defs>
</svg>
