<svg width="381" height="225" viewBox="0 0 381 225" fill="none" xmlns="http://www.w3.org/2000/svg">
<g opacity="0.3" clip-path="url(#clip0_1631:2801)">
<path d="M202.285 49.5674C202.277 49.6 202.277 49.6349 202.285 49.6675C202.277 49.6349 202.277 49.6 202.285 49.5674Z" fill="#E4EEED"/>
<path d="M202.412 49.3389C202.361 49.3897 202.319 49.4521 202.293 49.5218C202.319 49.4521 202.361 49.3897 202.412 49.3389Z" fill="#E4EEED"/>
<path d="M202.994 51.3936C202.945 51.4473 202.905 51.509 202.874 51.5765C202.905 51.509 202.945 51.4473 202.994 51.3936Z" fill="#FF7485"/>
<path d="M202.865 51.5947C202.858 51.6281 202.858 51.6622 202.865 51.6956C202.858 51.6622 202.858 51.6281 202.865 51.5947Z" fill="#FF7485"/>
<path d="M202.866 51.5945C202.862 51.5764 202.862 51.5582 202.866 51.5401C202.896 51.4726 202.937 51.4101 202.986 51.3572C203.795 50.6945 204.753 50.2692 205.764 50.1233H206.106H206.49C206.57 50.1139 206.65 50.1139 206.73 50.1233H206.772H206.918H206.96L207.046 50.1879C207.069 50.2104 207.086 50.2387 207.097 50.2699L208.704 55.6423C208.798 55.9624 208.883 56.2818 208.969 56.5561C209.029 56.7709 209.029 56.9996 208.969 57.2137C208.914 57.4452 208.801 57.6564 208.645 57.8263C208.564 57.9126 208.479 57.9918 208.388 58.0636L208.132 58.2371H208.08C207.976 58.3009 207.868 58.3561 207.756 58.4018L207.414 58.5477H207.345L207.08 58.6392H207.003L206.576 58.7401H206.473H206.294H205.833H205.695L205.524 58.6943H205.431L205.285 58.703H205.208C205.168 58.6813 205.131 58.6537 205.097 58.621L205.003 58.539L204.944 58.4751C204.836 58.3445 204.755 58.1921 204.704 58.0273L204.157 56.1453L203.926 55.3411L203.422 53.6137C203.234 52.9561 203.046 52.3167 202.883 51.7411C202.872 51.7186 202.864 51.6947 202.861 51.67C202.858 51.6446 202.86 51.6192 202.866 51.5945Z" fill="#FF7485"/>
<path d="M212.379 36.9023C212.359 36.9299 212.345 36.9611 212.336 36.9938C212.345 36.9611 212.359 36.9299 212.379 36.9023Z" fill="#E4EEED"/>
<path d="M212.576 36.7744C212.512 36.8049 212.454 36.8484 212.406 36.9022C212.454 36.8484 212.512 36.8049 212.576 36.7744Z" fill="#E4EEED"/>
<path d="M212.465 38.8398C212.403 38.874 212.345 38.9168 212.294 38.9683C212.345 38.9168 212.403 38.874 212.465 38.8398Z" fill="#FF7485"/>
<path d="M212.268 39.0137C212.255 39.0253 212.245 39.0391 212.237 39.055C212.23 39.0703 212.226 39.0877 212.225 39.1051C212.226 39.0877 212.23 39.0703 212.237 39.055C212.245 39.0391 212.255 39.0253 212.268 39.0137Z" fill="#FF7485"/>
<path d="M204.994 45.3086C204.988 45.342 204.988 45.3761 204.994 45.4095C204.992 45.3761 204.992 45.342 204.994 45.3086Z" fill="#E4EEED"/>
<path d="M205.164 45.1172C205.106 45.1564 205.054 45.2057 205.011 45.2631C205.054 45.2057 205.106 45.1564 205.164 45.1172Z" fill="#E4EEED"/>
<path d="M209.557 47.1645C209.562 47.134 209.562 47.1028 209.557 47.073C209.539 47.0411 209.516 47.0135 209.488 46.991C209.446 46.9613 209.4 46.9366 209.352 46.9177H209.309C209.237 46.8851 209.163 46.8604 209.087 46.8444H209.027L208.796 46.7987H208.703H208.361C207.343 46.7109 206.322 46.9032 205.395 47.3561C205.336 47.3953 205.284 47.4447 205.241 47.502V47.5477C205.233 47.5811 205.233 47.6152 205.241 47.6486L205.164 46.5889C205.164 46.2231 205.112 45.8486 205.087 45.538C205.081 45.5046 205.081 45.4705 205.087 45.4371C205.13 45.3797 205.182 45.3304 205.241 45.2912C206.166 44.8397 207.184 44.6481 208.198 44.7338H208.549H208.634L208.873 44.7795H208.933L209.155 44.8528H209.198C209.244 44.8695 209.288 44.8942 209.326 44.9254H209.369C209.408 44.9493 209.441 44.9842 209.463 45.0263C209.471 45.056 209.471 45.088 209.463 45.1177L209.54 46.1687L209.557 47.1645Z" fill="#E4EEED"/>
<path d="M205.285 47.2275C205.226 47.2667 205.175 47.3161 205.132 47.3734C205.175 47.3161 205.226 47.2667 205.285 47.2275Z" fill="#FF7485"/>
<path d="M205.148 47.4199C205.141 47.4533 205.141 47.4874 205.148 47.5208C205.141 47.4874 205.141 47.4533 205.148 47.4199Z" fill="#FF7485"/>
<path d="M205.148 47.4192V47.3734C205.191 47.3161 205.243 47.2668 205.302 47.2276C206.229 46.7747 207.251 46.5823 208.268 46.6701H208.61H208.703L208.934 46.7159H208.994C209.07 46.7318 209.144 46.7565 209.216 46.7892H209.259C209.307 46.8073 209.353 46.832 209.395 46.8617C209.423 46.8842 209.446 46.9126 209.464 46.9445C209.469 46.9743 209.469 47.0055 209.464 47.0352L209.875 52.6094C209.875 52.9469 209.925 53.2764 209.943 53.5871C209.961 53.8106 209.919 54.0356 209.823 54.2352C209.721 54.4457 209.571 54.625 209.387 54.7563C209.288 54.8217 209.186 54.8797 209.079 54.9298L208.798 55.0394H208.738L208.387 55.1309L208.019 55.1947H207.951H207.678H207.593C207.37 55.1947 207.208 55.1947 207.156 55.1947H207.054H206.875H206.763H206.704H206.609L206.421 55.1403L206.302 55.0851C206.241 55.0677 206.183 55.0394 206.131 55.0031H206.054L205.917 54.8935L205.849 54.8384L205.754 54.72C205.727 54.6903 205.704 54.6562 205.686 54.6192C205.684 54.5952 205.684 54.5705 205.686 54.5459C205.604 54.392 205.555 54.2207 205.541 54.0436L205.395 52.0883C205.395 51.8139 205.353 51.5309 205.336 51.2478L205.199 49.4202C205.148 48.7351 205.097 48.068 205.054 47.4649C205.08 47.4409 205.113 47.425 205.148 47.4192Z" fill="#FF7485"/>
<path d="M214.224 55.1437C214.239 55.13 214.247 55.1104 214.25 55.085L214.224 55.1437Z" fill="#0075F2"/>
<path d="M212.183 49.082L212.251 49.2105L212.362 49.3107L212.559 49.4384H212.619L212.824 49.548H212.909L213.234 49.6765C214.19 50.0546 215.221 50.1591 216.226 49.9777C216.293 49.9552 216.357 49.9218 216.414 49.8775C216.414 49.8775 216.457 49.8775 216.465 49.8129C215.696 51.5128 214.935 53.2213 214.166 54.9211C214.166 54.9211 214.123 54.985 214.063 55.0031C213.71 55.1084 213.338 55.1244 212.978 55.0489L212.747 54.9393H212.704C212.652 54.9175 212.605 54.8834 212.567 54.8384V54.7658C212.448 52.8831 212.328 50.9916 212.2 49.1096L212.183 49.082Z" fill="url(#paint0_linear_1631:2801)"/>
<path d="M216.568 49.9043C216.568 49.9043 216.568 49.9043 216.517 49.9682C216.537 49.95 216.555 49.929 216.568 49.9043Z" fill="#0075F2"/>
<path d="M216.295 50.1236C216.362 50.1018 216.426 50.0677 216.482 50.0234C216.426 50.0677 216.362 50.1018 216.295 50.1236Z" fill="#0075F2"/>
<path d="M212.25 49.2109C212.25 49.2109 212.259 49.2206 212.25 49.2109V49.2109Z" fill="#0075F2"/>
<path d="M211.576 42.6591H211.739H211.79H212.038C212.435 42.6061 212.813 42.4421 213.132 42.1845C213.149 42.1699 213.163 42.1518 213.174 42.1315C213.184 42.1112 213.19 42.0887 213.192 42.0654C213.192 42.9792 213.252 43.975 213.277 44.9251C213.209 44.9781 213.13 45.0122 213.047 45.026H212.935L211.533 42.5866C211.543 42.6134 211.557 42.6388 211.576 42.6591Z" fill="#0075F2"/>
<path d="M208.772 37.808L208.883 37.89H208.925H209.071H209.113H209.353H209.738H210.088C211.097 37.7477 212.054 37.3289 212.866 36.675C212.917 36.6271 212.958 36.5676 212.985 36.5015C212.985 36.5015 212.985 36.5015 212.985 36.4464C212.985 36.3912 212.985 36.3912 212.985 36.373C213.046 38.2645 213.097 40.156 213.156 42.038C213.154 42.0612 213.148 42.0837 213.138 42.104C213.128 42.1243 213.113 42.1425 213.097 42.157C212.777 42.4147 212.4 42.5787 212.003 42.6324H211.755H211.703H211.541C211.517 42.6186 211.497 42.5997 211.481 42.5772L208.703 37.7709C208.722 37.7898 208.746 37.8029 208.772 37.808Z" fill="url(#paint1_linear_1631:2801)"/>
<path d="M212.977 36.373C212.977 36.373 212.977 36.373 212.977 36.4464C212.979 36.4217 212.979 36.3977 212.977 36.373Z" fill="#0075F2"/>
<path d="M212.865 36.7018C212.917 36.6546 212.957 36.5951 212.984 36.5283C212.957 36.5951 212.917 36.6546 212.865 36.7018Z" fill="#0075F2"/>
<path d="M209.934 52.7555C209.978 52.7889 210.027 52.8136 210.079 52.8288H210.13C210.21 52.8593 210.294 52.8782 210.379 52.8833C210.772 52.95 211.176 52.9058 211.549 52.7555C211.588 52.7381 211.618 52.7054 211.635 52.6641L210.968 55.4054C210.884 55.4265 210.796 55.4265 210.712 55.4054H210.643C210.413 54.4916 210.173 53.5779 209.942 52.6641C209.942 52.6641 209.908 52.7374 209.934 52.7555Z" fill="#0075F2"/>
<path d="M208.506 47.264C208.531 47.3075 208.563 47.3445 208.601 47.3736L208.729 47.4563H208.772L208.985 47.547H209.053L209.276 47.6022H209.361L209.711 47.6573C210.716 47.8286 211.744 47.7154 212.694 47.3278C212.757 47.2937 212.812 47.2473 212.857 47.1907C212.857 47.1907 212.857 47.1907 212.857 47.1457C212.863 47.1246 212.863 47.1021 212.857 47.0811C212.418 48.9086 211.98 50.7362 211.541 52.5638C211.525 52.6044 211.494 52.6371 211.455 52.6552C211.082 52.8055 210.678 52.8498 210.284 52.783C210.2 52.7772 210.117 52.759 210.036 52.7278H209.985C209.933 52.7133 209.884 52.6879 209.84 52.6552C209.84 52.6552 209.797 52.6552 209.797 52.5906C209.327 50.7638 208.865 48.9362 208.404 47.1086C208.404 47.1086 208.498 47.2364 208.506 47.264Z" fill="url(#paint2_linear_1631:2801)"/>
<path d="M212.978 47.1543C212.984 47.1753 212.984 47.1971 212.978 47.2182C212.981 47.1971 212.981 47.1753 212.978 47.1543Z" fill="#0075F2"/>
<path d="M212.73 47.4292C212.793 47.3951 212.847 47.3486 212.893 47.292C212.847 47.3486 212.793 47.3951 212.73 47.4292Z" fill="#0075F2"/>
<path d="M166.432 31.2912C166.432 33.7856 177.133 35.8598 190.364 35.8598C203.595 35.8598 214.297 33.8313 214.297 31.2912C214.297 28.7511 203.587 26.7227 190.364 26.7227C177.141 26.7227 166.432 28.7876 166.432 31.2912Z" fill="#0274E1"/>
<path d="M189.33 78.4384C189.295 78.4051 189.254 78.3804 189.21 78.3659H189.073H188.971C188.893 78.3601 188.817 78.3601 188.739 78.3659H188.355L188.004 78.4109C186.997 78.5582 186.043 78.9835 185.235 79.6447C185.183 79.6955 185.142 79.758 185.116 79.8276C185.116 79.8276 185.116 79.8276 185.116 79.8734C185.107 79.906 185.107 79.9409 185.116 79.9735C184.671 78.4109 184.201 76.8032 183.731 75.1672L182.38 70.517C181.525 67.666 180.671 64.7425 179.816 61.7543L178.312 56.5645L177.91 55.1483L174.807 44.4579C174.278 42.6305 173.745 40.803 173.209 38.9757L172.824 37.6234L171.311 32.2965L168.747 23.5614L167.388 18.8924L166.004 14.1046C166 14.0712 166 14.0375 166.004 14.0041C166.004 14.0041 166.004 14.0041 166.004 13.9492C166.032 13.883 166.07 13.8214 166.115 13.7665C166.927 13.1092 167.883 12.6846 168.892 12.533L169.234 12.4873H169.628H169.859H169.91H170.047H170.089C170.133 12.502 170.174 12.5269 170.209 12.5604V12.6153C170.662 14.1686 171.124 15.7767 171.594 17.403L172.944 22.0721C173.798 24.9137 174.653 27.8468 175.508 30.8254L177.013 36.0335L177.423 37.4406L179.013 42.9228L182.107 53.6223L182.594 55.1391L184.098 60.3563L186.663 69.1096C187.124 70.6905 187.569 72.2437 188.013 73.7693L189.397 78.5575C189.387 78.5284 189.372 78.5009 189.355 78.4754L189.33 78.4384Z" fill="url(#paint3_linear_1631:2801)"/>
<path d="M199.612 67.4373C199.592 67.3916 199.563 67.3509 199.526 67.319C199.492 67.2813 199.452 67.2501 199.407 67.2276L199.185 67.118H199.133L198.903 67.0446H198.817L198.484 66.9532C197.488 66.718 196.452 66.7587 195.475 67.0722C195.411 67.1027 195.353 67.1463 195.304 67.2C195.285 67.2276 195.27 67.258 195.262 67.2914C195.347 65.6649 195.441 63.9839 195.535 62.2751L195.8 57.4233C195.962 54.4355 196.125 51.3746 196.296 48.2863L196.595 42.8588L196.672 41.3878L197.287 30.2132C197.39 28.2852 197.493 26.3573 197.603 24.4476L197.681 23.0314C197.783 21.204 197.877 19.3766 197.98 17.5491L198.475 8.41212C198.57 6.75829 198.655 5.1319 198.741 3.53295L198.92 -1.51075C198.928 -1.5437 198.943 -1.57469 198.962 -1.60213C199.011 -1.65606 199.069 -1.69946 199.133 -1.73002C200.107 -2.04393 201.141 -2.08486 202.133 -1.84883C202.249 -1.82589 202.363 -1.79541 202.475 -1.75745H202.561L202.783 -1.67522H202.843L203.057 -1.56555H203.1C203.142 -1.54036 203.182 -1.50973 203.219 -1.47417C203.253 -1.43918 203.281 -1.39919 203.305 -1.35543C203.309 -1.33431 203.309 -1.31253 203.305 -1.29141C203.21 0.334977 203.117 2.00702 203.031 3.71564L202.758 8.58573C202.598 11.5644 202.433 14.6101 202.262 17.7228L201.962 23.205L201.886 24.6761L201.569 30.4141C201.365 34.1421 201.159 37.8883 200.963 41.5888L200.877 43.0599C200.786 44.8872 200.686 46.7147 200.578 48.5421L200.082 57.6791C199.988 59.333 199.903 60.9593 199.817 62.5492L199.544 67.5563C199.547 67.5259 199.547 67.4954 199.544 67.4649L199.612 67.4373Z" fill="url(#paint4_linear_1631:2801)"/>
<path d="M192.219 75.2399C192.196 75.1978 192.164 75.163 192.124 75.1397H192.082C192.043 75.1078 192 75.0831 191.953 75.0664H191.911L191.689 74.9931H191.628L191.39 74.9474H191.304H190.953C189.939 74.8618 188.922 75.0534 187.996 75.5048C187.938 75.544 187.885 75.5934 187.842 75.6514C187.84 75.6848 187.84 75.7182 187.842 75.7516C187.723 74.1251 187.594 72.4441 187.475 70.7443L187.116 65.8835C186.893 62.9143 186.663 59.8532 186.441 56.7466L186.039 51.3284C185.996 50.835 185.962 50.3506 185.928 49.8572L185.073 38.7009C184.925 36.776 184.782 34.8573 184.646 32.9446L184.543 31.5284C184.406 29.7009 184.269 27.8735 184.133 26.0461L183.458 16.909C183.338 15.2552 183.218 13.6197 183.099 12.0299L182.731 7.03189C182.724 7.00198 182.724 6.97041 182.731 6.94051C182.731 6.94051 182.731 6.94051 182.731 6.89485C182.77 6.83425 182.82 6.78163 182.876 6.73946C183.804 6.28438 184.826 6.09545 185.842 6.19126H186.184H186.278L186.509 6.23698H186.569L186.791 6.31007H186.834L186.971 6.38316C187.006 6.41183 187.038 6.44565 187.064 6.48369C187.064 6.48369 187.064 6.48369 187.064 6.54763C187.064 6.61157 187.064 6.54763 187.064 6.54763C187.184 8.17402 187.304 9.84613 187.432 11.5456L187.791 16.4156C188.013 19.3852 188.236 22.437 188.466 25.5527L188.868 31.035L188.97 32.4969L189.398 38.2258C189.671 41.9537 189.954 45.6907 190.253 49.3913L190.355 50.8532C190.492 52.6806 190.626 54.508 190.757 56.3354L191.432 65.4727C191.552 67.1261 191.671 68.7527 191.791 70.3429L192.158 75.3408C192.167 75.311 192.167 75.2791 192.158 75.2493L192.219 75.2399Z" fill="url(#paint5_linear_1631:2801)"/>
<path d="M207.134 11.6379C207.146 11.6857 207.17 11.7296 207.202 11.7658L207.313 11.8755L207.518 12.0125H207.569L207.783 12.1222H207.86L208.193 12.2592C209.15 12.6301 210.18 12.7339 211.185 12.5607C211.25 12.5387 211.311 12.5047 211.364 12.4602C211.388 12.4373 211.404 12.4092 211.416 12.378C211.125 13.9861 210.834 15.6399 210.561 17.3211L209.706 22.0998C209.176 25.0298 208.638 28.0328 208.091 31.109L207.134 36.445L206.877 37.8978L204.902 48.8623C204.569 50.7628 204.227 52.6541 203.894 54.5363L203.638 55.9343C203.313 57.7617 202.996 59.5892 202.672 61.3252L201.065 70.3068L200.21 75.1218L199.355 80.0377C199.341 80.0696 199.32 80.0972 199.295 80.1204C199.238 80.1647 199.175 80.1981 199.107 80.2206C198.103 80.402 197.071 80.2975 196.116 79.9194L195.791 79.7909H195.706L195.501 79.6813H195.44L195.244 79.5536L195.133 79.4534L195.064 79.3249V79.2248C195.347 77.6345 195.646 75.9811 195.919 74.3089L196.774 69.512C197.304 66.5791 197.843 63.5728 198.389 60.512L199.321 55.1394L199.578 53.6958L200.595 48.0399C201.244 44.385 201.902 40.7303 202.561 37.0755L202.817 35.6318C203.142 33.8044 203.461 32.0166 203.775 30.2683L205.39 21.2683C205.681 19.6511 205.962 18.0429 206.245 16.4806L207.1 11.5557C207.095 11.5859 207.095 11.6167 207.1 11.647L207.134 11.6379Z" fill="url(#paint6_linear_1631:2801)"/>
<path d="M173.107 2.03479C173.137 2.07144 173.175 2.09967 173.218 2.11702H173.261H173.406C173.483 2.12261 173.56 2.12261 173.637 2.11702H174.03L174.44 2.14446C175.45 2.00249 176.409 1.58733 177.226 0.938311C177.276 0.885037 177.316 0.82327 177.347 0.755625V0.709899C177.355 0.67702 177.355 0.642327 177.347 0.609375C177.791 2.17182 178.244 3.78913 178.697 5.42467L180.005 10.0937L182.466 18.8835L183.919 24.0734C184.056 24.5485 184.185 24.9871 184.321 25.4987L187.321 36.2165C187.845 38.0439 188.361 39.8714 188.868 41.6987L189.253 43.0602L190.731 48.3231L193.184 57.0855C193.629 58.6754 194.068 60.2379 194.501 61.7729L195.808 66.5972C195.813 66.6306 195.813 66.6647 195.808 66.6981C195.808 66.6981 195.808 66.698 195.808 66.7525C195.781 66.8193 195.741 66.8788 195.689 66.926C194.877 67.5806 193.919 67.9994 192.911 68.1417H192.561H192.176H191.937H191.894H191.749H191.706L191.595 68.0589C191.59 68.0379 191.59 68.0161 191.595 67.9951C191.159 66.4418 190.74 64.8247 190.244 63.1982L188.937 58.5201L186.407 49.7119L184.945 44.4855C184.808 44.0196 184.68 43.5718 184.552 43.0784L183.005 37.5962C182.005 34.0145 180.996 30.4236 179.996 26.8693L179.603 25.4622C179.116 23.7079 178.628 21.9718 178.141 20.2358L175.679 11.4642L174.44 6.75863L173.09 1.95255C173.097 1.98362 173.112 2.01214 173.133 2.03479H173.107Z" fill="url(#paint7_linear_1631:2801)"/>
<path d="M190.868 8.59513C190.888 8.6381 190.917 8.67555 190.953 8.7048C190.992 8.73637 191.036 8.76105 191.082 8.77789H191.124L191.347 8.86927H191.407L191.629 8.93321H191.723C191.836 8.95796 191.95 8.97625 192.065 8.98801C193.071 9.15538 194.101 9.04528 195.056 8.66822C195.114 8.632 195.166 8.58562 195.21 8.53119C195.217 8.49809 195.217 8.46376 195.21 8.43066C195.21 10.0571 195.21 11.7383 195.21 13.4469V18.3169C195.21 21.3048 195.253 24.3748 195.279 27.4541V32.9363C195.279 33.4297 195.279 33.9231 195.279 34.4165L195.355 45.6094C195.355 47.5373 195.355 49.4652 195.355 51.384V52.8002C195.355 54.6277 195.355 56.455 195.398 58.2825L195.458 67.4194C195.458 69.0823 195.458 70.7182 195.458 72.3172V77.3238C195.465 77.3543 195.465 77.3855 195.458 77.4152C195.458 77.4152 195.458 77.4152 195.458 77.461C195.412 77.5176 195.357 77.564 195.296 77.5981C194.346 77.985 193.317 78.099 192.313 77.9269L191.962 77.8725H191.877L191.654 77.8173H191.586L191.372 77.7259H191.329L191.201 77.6439C191.163 77.6148 191.131 77.5771 191.107 77.5343C191.107 77.5343 191.107 77.5343 191.107 77.461C191.107 75.8344 191.107 74.1535 191.107 72.4449V67.566C191.107 64.5873 191.065 61.5261 191.039 58.4286V52.9464C191.039 52.4622 191.039 51.9688 191.039 51.4845L190.996 45.7281C190.996 41.9911 190.945 38.2449 190.92 34.5352V33.0185C190.92 31.1911 190.92 29.3637 190.877 27.5363L190.817 18.3992C190.817 16.7454 190.817 15.119 190.817 13.52V8.50375C190.808 8.53351 190.808 8.56537 190.817 8.59513H190.868Z" fill="url(#paint8_linear_1631:2801)"/>
<path d="M166.432 31.291V108.134C166.432 110.637 177.133 112.702 190.364 112.702C203.595 112.702 214.297 110.674 214.297 108.134V31.291C214.297 33.7854 203.587 35.8595 190.364 35.8595C177.141 35.8595 166.432 33.7854 166.432 31.291Z" fill="url(#paint9_linear_1631:2801)"/>
<g style="mix-blend-mode:multiply">
<g style="mix-blend-mode:multiply">
<path d="M314.518 145.295L402 121.895H227.207L314.518 145.295Z" fill="#E6E6E6"/>
</g>
</g>
<path d="M211.077 118.167L313.201 145.642V115.197L211.077 90.3079V118.167Z" fill="url(#paint10_linear_1631:2801)"/>
<path d="M297.209 129.595V125.006L298.838 128.842L299.528 129.018L301.157 126.019V130.608L302.393 130.925V123.933L301.067 123.593L299.188 127.089L297.289 122.624L295.973 122.286V129.278L297.209 129.595ZM292.918 121.502L291.664 121.181L289.327 127.574L290.599 127.899L291.19 126.308L293.41 126.878L293.993 128.77L295.264 129.096L292.918 121.502ZM291.414 125.41L292.291 122.75L293.205 125.869L291.414 125.41ZM284.471 120.527L286.503 121.048V126.848L287.73 127.163V121.363L289.762 121.884V120.692L284.471 119.335V120.527ZM278.337 117.761V124.753L279.563 125.068V122.084L282.446 122.824V125.808L283.682 126.125V119.132L282.446 118.815V121.642L279.563 120.902V118.076L278.337 117.761ZM272.597 122.089V123.28L277.011 124.413V117.421L272.677 116.309V117.501L275.775 118.296V119.979L273.098 119.293V120.396L275.775 121.083V122.904L272.597 122.089ZM266.449 121.703V117.114L268.079 120.95L268.768 121.126L270.397 118.127V122.716L271.633 123.034V116.041L270.308 115.702L268.428 119.198L266.529 114.732L265.214 114.394V121.387L266.449 121.703ZM262.158 113.61L260.905 113.289L258.568 119.682L259.839 120.008L260.43 118.416L262.651 118.986L263.233 120.879L264.504 121.205L262.158 113.61ZM260.654 117.518L261.532 114.858L262.445 117.978L260.654 117.518ZM253.711 112.635L255.744 113.156V118.957L256.97 119.272V113.471L259.003 113.992V112.801L253.711 111.443V112.635ZM252.922 118.233V111.241L251.686 110.924V117.916L252.922 118.233ZM250.745 114.129C250.745 113.703 250.677 113.265 250.539 112.816C250.396 112.366 250.19 111.938 249.921 111.535C249.653 111.131 249.324 110.781 248.937 110.484C248.549 110.181 248.107 109.966 247.612 109.839C247.033 109.69 246.528 109.702 246.098 109.874C245.669 110.046 245.349 110.332 245.14 110.731L246.089 111.694C246.197 111.458 246.337 111.288 246.51 111.181C246.683 111.075 246.871 111.015 247.074 111.001C247.272 110.986 247.462 111.002 247.647 111.05C247.958 111.129 248.229 111.268 248.462 111.466C248.689 111.662 248.88 111.891 249.035 112.155C249.191 112.417 249.307 112.697 249.384 112.992C249.456 113.286 249.492 113.571 249.492 113.847C249.492 114.261 249.414 114.628 249.259 114.95C249.104 115.264 248.886 115.497 248.605 115.649C248.325 115.8 248 115.828 247.629 115.733C247.438 115.684 247.242 115.597 247.038 115.473C246.83 115.347 246.638 115.183 246.465 114.982C246.292 114.779 246.158 114.541 246.062 114.267L245.051 114.648C245.182 115.029 245.388 115.378 245.669 115.693C245.949 116.001 246.265 116.266 246.617 116.488C246.97 116.702 247.319 116.855 247.665 116.943C248.119 117.06 248.534 117.065 248.91 116.957C249.279 116.843 249.602 116.649 249.877 116.378C250.151 116.101 250.366 115.768 250.521 115.381C250.671 114.987 250.745 114.569 250.745 114.129ZM240.435 109.869C240.489 109.817 240.602 109.761 240.775 109.7C240.948 109.633 241.157 109.588 241.402 109.566C241.641 109.535 241.888 109.553 242.145 109.619C242.819 109.791 243.157 110.14 243.157 110.666C243.157 110.856 243.103 110.993 242.996 111.077C242.888 111.162 242.727 111.215 242.512 111.239C242.297 111.263 242.029 111.279 241.707 111.289C241.289 111.3 240.928 111.345 240.623 111.424C240.313 111.502 240.077 111.652 239.916 111.873C239.748 112.086 239.665 112.406 239.665 112.832C239.665 113.332 239.775 113.764 239.996 114.129C240.211 114.486 240.497 114.78 240.856 115.009C241.214 115.239 241.602 115.408 242.019 115.515C242.497 115.637 242.971 115.681 243.443 115.643C243.909 115.599 244.324 115.482 244.688 115.294L244.141 113.981C244.088 114.026 243.993 114.081 243.855 114.144C243.718 114.201 243.551 114.253 243.353 114.301C243.157 114.342 242.942 114.366 242.709 114.372C242.476 114.378 242.241 114.35 242.002 114.289C241.321 114.114 240.981 113.788 240.981 113.309C240.981 113.105 241.05 112.958 241.187 112.869C241.325 112.779 241.519 112.724 241.769 112.703C242.014 112.68 242.3 112.658 242.629 112.638C243.035 112.617 243.372 112.566 243.641 112.484C243.903 112.393 244.1 112.25 244.231 112.054C244.363 111.852 244.428 111.57 244.428 111.209C244.428 110.729 244.327 110.303 244.124 109.929C243.915 109.547 243.634 109.229 243.282 108.975C242.93 108.713 242.539 108.528 242.109 108.417C241.667 108.304 241.255 108.277 240.874 108.337C240.492 108.396 240.164 108.493 239.889 108.626L240.435 109.869Z" fill="white"/>
<path d="M313.202 115.197L376.648 99.3717L274.524 74.4823L211.077 90.3078L313.202 115.197Z" fill="url(#paint11_linear_1631:2801)"/>
<path d="M374.854 100.478V129.003C374.854 129.003 314.261 144.536 313.201 144.655V115.298L374.854 100.478Z" fill="url(#paint12_linear_1631:2801)"/>
<path d="M315.073 114.731L376.648 99.3716V100.341L315.073 116.294V143.586L376.648 128.235V129.204L313.202 145.642V144.052V116.778V115.197L315.073 114.731Z" fill="url(#paint13_linear_1631:2801)"/>
<path d="M204.138 89.2756L306.663 114.942L306.193 84.4969L203.71 61.4163L204.138 89.2756Z" fill="url(#paint14_linear_1631:2801)"/>
<path d="M306.193 84.4969L369.392 67.5566L266.9 44.4767L203.709 61.4163L306.193 84.4969Z" fill="url(#paint15_linear_1631:2801)"/>
<path d="M367.614 68.6897L368.05 97.2524C368.05 97.2524 307.714 113.836 306.654 113.991L306.193 84.6429L367.614 68.6897Z" fill="url(#paint16_linear_1631:2801)"/>
<path d="M308.056 83.994L369.392 67.5566L369.401 68.5249L308.082 85.5661L308.509 112.858L369.836 96.4118L369.854 97.38L306.672 114.942L306.646 113.351L306.218 86.0778L306.193 84.497L308.056 83.994Z" fill="url(#paint17_linear_1631:2801)"/>
<path d="M287.85 97.3154V92.7261L289.479 96.562L290.168 96.7391L291.798 93.7394V98.3286L293.033 98.6458V91.6534L291.708 91.3137L289.828 94.8099L287.93 90.344L286.614 90.0065V96.999L287.85 97.3154ZM283.558 89.2227L282.305 88.9011L279.968 95.294L281.24 95.6199L281.831 94.0282L284.051 94.598L284.633 96.4909L285.904 96.8168L283.558 89.2227ZM282.055 93.1304L282.932 90.4703L283.845 93.5898L282.055 93.1304ZM275.111 88.2472L277.144 88.7683V94.5689L278.371 94.8839V89.0833L280.403 89.6044V88.4134L275.111 87.0554V88.2472ZM268.977 85.4819V92.4743L270.204 92.7885V89.8048L273.087 90.5443V93.5281L274.322 93.8453V86.8529L273.087 86.5357V89.3627L270.204 88.6231V85.7961L268.977 85.4819ZM263.237 89.8098V91.0016L267.651 92.1339V85.1414L263.317 84.0295V85.2213L266.416 86.016V87.6999L263.739 87.0133V88.1165L266.416 88.8031V90.6249L263.237 89.8098ZM257.09 89.4244V84.8352L258.719 88.6703L259.409 88.8474L261.038 85.8477V90.4369L262.274 90.7541V83.7617L260.948 83.422L259.069 86.9182L257.17 82.4523L255.854 82.1148V89.1073L257.09 89.4244ZM252.799 81.331L251.545 81.0094L249.208 87.4023L250.48 87.7282L251.071 86.1365L253.291 86.7063L253.874 88.5992L255.144 88.9251L252.799 81.331ZM251.295 85.2387L252.172 82.5786L253.086 85.6981L251.295 85.2387ZM244.352 80.3555L246.384 80.8766V86.6772L247.611 86.9923V81.1916L249.643 81.7127V80.5217L244.352 79.1637V80.3555ZM243.563 85.9536V78.9612L242.327 78.6447V85.6364L243.563 85.9536ZM241.386 81.8499C241.386 81.4231 241.317 80.9855 241.18 80.5362C241.036 80.0862 240.831 79.6587 240.562 79.2551C240.293 78.8516 239.965 78.501 239.577 78.2049C239.189 77.9015 238.747 77.6867 238.252 77.5597C237.673 77.4109 237.168 77.4225 236.739 77.5945C236.309 77.7665 235.99 78.0525 235.781 78.4517L236.73 79.4141C236.837 79.1797 236.978 79.0084 237.151 78.9017C237.324 78.7957 237.512 78.7355 237.715 78.7217C237.912 78.7064 238.103 78.7224 238.288 78.7703C238.598 78.8501 238.87 78.9888 239.102 79.1862C239.33 79.3822 239.52 79.6115 239.676 79.875C239.831 80.1377 239.947 80.4172 240.025 80.7126C240.096 81.0072 240.132 81.2918 240.132 81.5676C240.132 81.9813 240.054 82.3485 239.9 82.6701C239.744 82.9843 239.526 83.2173 239.246 83.369C238.965 83.52 238.64 83.5483 238.27 83.4532C238.079 83.4046 237.882 83.3175 237.679 83.1934C237.47 83.0678 237.279 82.9038 237.106 82.702C236.933 82.4995 236.799 82.2614 236.703 81.9878L235.691 82.3681C235.823 82.7499 236.028 83.0983 236.309 83.4133C236.59 83.7218 236.906 83.9867 237.258 84.2081C237.61 84.4236 237.96 84.5753 238.306 84.6639C238.76 84.7807 239.174 84.7851 239.55 84.6784C239.92 84.563 240.242 84.3699 240.517 84.0992C240.792 83.8212 241.006 83.4888 241.162 83.1019C241.311 82.7071 241.386 82.2897 241.386 81.8499ZM231.076 77.5894C231.129 77.5379 231.242 77.4813 231.416 77.421C231.589 77.3535 231.798 77.3085 232.043 77.286C232.281 77.2556 232.529 77.273 232.786 77.339C233.46 77.5118 233.797 77.8609 233.797 78.3864C233.797 78.5765 233.744 78.7137 233.636 78.7979C233.529 78.8821 233.368 78.9358 233.153 78.9597C232.938 78.983 232.67 78.9997 232.347 79.0091C231.929 79.02 231.568 79.065 231.264 79.1448C230.953 79.2225 230.717 79.372 230.556 79.5934C230.389 79.8068 230.305 80.1268 230.305 80.5529C230.305 81.0523 230.416 81.4841 230.637 81.8499C230.852 82.207 231.138 82.5002 231.496 82.7296C231.855 82.9597 232.243 83.1281 232.66 83.2355C233.138 83.3581 233.612 83.401 234.084 83.3639C234.549 83.3197 234.964 83.2028 235.328 83.0141L234.782 81.7018C234.728 81.7468 234.633 81.8013 234.496 81.8644C234.358 81.921 234.192 81.9733 233.994 82.0219C233.797 82.0633 233.582 82.0865 233.349 82.0923C233.117 82.0981 232.881 82.0706 232.642 82.0096C231.962 81.8347 231.622 81.5081 231.622 81.029C231.622 80.8251 231.69 80.6785 231.827 80.5892C231.965 80.4999 232.159 80.4447 232.41 80.4237C232.655 80.4005 232.941 80.3794 233.269 80.3584C233.675 80.3373 234.012 80.2865 234.281 80.2045C234.544 80.1138 234.741 79.9708 234.871 79.7748C235.003 79.5723 235.069 79.29 235.069 78.9293C235.069 78.4495 234.967 78.0235 234.764 77.6497C234.555 77.2679 234.275 76.9493 233.923 76.6952C233.571 76.4339 233.18 76.2481 232.75 76.1378C232.308 76.0246 231.897 75.9977 231.515 76.0572C231.133 76.1168 230.804 76.2133 230.529 76.3461L231.076 77.5894Z" fill="white"/>
<path d="M352.87 57.259C352.911 57.3185 352.946 57.3831 352.973 57.4514C352.974 57.4724 352.974 57.4942 352.973 57.5152C353.01 57.619 353.038 57.7257 353.058 57.8353C353.165 58.3434 353.145 58.8732 352.998 59.3697C352.998 59.4343 352.938 59.48 352.896 59.4887L355.998 58.4014C356.025 58.294 356.025 58.1801 355.998 58.0727C356.001 58.0422 356.001 58.0117 355.998 57.9812L352.802 57.2685C352.824 57.2612 352.847 57.2583 352.87 57.259Z" fill="#575755"/>
<path d="M346.494 55.8428C346.545 55.8668 346.592 55.9009 346.631 55.9437C346.669 55.9953 346.703 56.0504 346.733 56.1078C346.782 56.1978 346.822 56.2929 346.853 56.3908V56.4641C346.853 56.5556 346.913 56.6565 346.939 56.7566V56.8757C346.973 57.0158 347.007 57.1616 347.041 57.3141C347.31 58.6118 347.26 59.9625 346.896 61.2341C346.861 61.3191 346.811 61.396 346.75 61.462C346.727 61.4838 346.701 61.502 346.674 61.5172L352.828 59.3695C352.828 59.3695 352.905 59.3151 352.93 59.2512C353.077 58.7541 353.097 58.2242 352.99 57.7162C352.97 57.6073 352.941 57.4999 352.905 57.3961C352.906 57.375 352.906 57.3533 352.905 57.3322C352.878 57.264 352.843 57.1994 352.802 57.1406C352.781 57.1159 352.754 57.097 352.725 57.0854L346.443 55.8247C346.461 55.8269 346.478 55.8327 346.494 55.8428Z" fill="url(#paint18_linear_1631:2801)"/>
<path d="M346.715 61.6173C346.743 61.6021 346.768 61.5839 346.792 61.5629C346.771 61.5875 346.745 61.6064 346.715 61.6173Z" fill="#0075F2"/>
<path d="M347.015 61.3248C346.98 61.4097 346.931 61.4874 346.87 61.5535C346.931 61.4874 346.98 61.4097 347.015 61.3248Z" fill="#0075F2"/>
<path d="M267.866 60.612C267.916 60.6418 267.962 60.6788 268.003 60.7216C268.041 60.771 268.075 60.8225 268.105 60.8777V60.9321C268.152 61.02 268.192 61.1114 268.225 61.2065V61.2885C268.225 61.38 268.285 61.4714 268.319 61.581V61.6906C268.319 61.8278 268.387 61.9737 268.421 62.1384C268.691 63.4362 268.641 64.7869 268.276 66.0578C268.241 66.1405 268.192 66.2145 268.131 66.277C268.098 66.3031 268.06 66.3212 268.02 66.3321L273.755 65.9852L279.311 65.647L289.781 65.0075L296.012 64.7237L297.722 64.6236L310.491 63.847L317.082 63.4449L318.697 63.344L324.971 62.9695L335.399 62.33L340.989 61.9918L346.698 61.6173C346.74 61.6129 346.779 61.5933 346.809 61.5629C346.87 61.4968 346.919 61.4191 346.955 61.3342C347.319 60.0626 347.369 58.7126 347.1 57.4141C347.066 57.2559 347.032 57.11 346.997 56.9758V56.8567C346.997 56.7566 346.937 56.6557 346.912 56.565V56.4917C346.88 56.3937 346.84 56.2986 346.792 56.2086C346.762 56.1505 346.728 56.0961 346.69 56.0438C346.65 56.001 346.604 55.9669 346.553 55.9437C346.528 55.935 346.501 55.935 346.476 55.9437L340.758 56.2906L335.185 56.6288L324.731 57.2683L318.509 57.6428L316.799 57.7437L310.235 58.145L297.414 58.9224L295.705 59.0225L289.482 59.397L279.02 60.0365L273.456 60.3747L267.737 60.7216C267.771 60.7086 267.807 60.7086 267.841 60.7216L267.866 60.612Z" fill="url(#paint19_linear_1631:2801)"/>
<path d="M268.199 66.3599C268.166 66.3853 268.128 66.4041 268.089 66.4143C268.128 66.4041 268.166 66.3853 268.199 66.3599Z" fill="#E4EEED"/>
<path d="M268.388 66.1035C268.353 66.1863 268.303 66.2603 268.243 66.3234C268.303 66.2603 268.353 66.1863 268.388 66.1035Z" fill="#E4EEED"/>
<path d="M265.344 60.7035C265.381 60.6941 265.419 60.6941 265.456 60.7035L265.558 60.7768C265.596 60.8254 265.631 60.8777 265.661 60.9321V60.9873C265.707 61.0751 265.747 61.1666 265.781 61.2609V61.3437C265.815 61.4388 265.844 61.536 265.866 61.6354C265.87 61.6725 265.87 61.7088 265.866 61.7458C265.866 61.8822 265.934 62.0288 265.96 62.1929C266.232 63.4906 266.184 64.8406 265.823 66.113C265.788 66.195 265.739 66.2697 265.678 66.3321H265.627C265.596 66.3575 265.561 66.3764 265.524 66.3873L266.729 66.314L267.934 66.2407C267.974 66.2305 268.012 66.2117 268.046 66.1863C268.107 66.1231 268.156 66.0491 268.191 65.9671C268.555 64.6954 268.606 63.3447 268.336 62.047C268.336 61.8822 268.268 61.7363 268.234 61.5992V61.4896C268.234 61.38 268.174 61.2885 268.139 61.1971V61.115C268.107 61.0207 268.067 60.9285 268.02 60.8407V60.7863C267.99 60.7311 267.955 60.6796 267.917 60.6309C267.877 60.5874 267.831 60.5511 267.78 60.5213C267.748 60.5075 267.711 60.5075 267.678 60.5213L266.473 60.5939L265.344 60.7035Z" fill="#E4EEED"/>
<path d="M265.978 66.2501C265.942 66.3321 265.894 66.4069 265.833 66.4693C265.894 66.4069 265.942 66.3321 265.978 66.2501Z" fill="#FF7485"/>
<path d="M265.781 66.5057C265.751 66.5311 265.716 66.55 265.679 66.5609C265.716 66.55 265.751 66.5311 265.781 66.5057Z" fill="#FF7485"/>
<path d="M265.985 61.7726C265.989 61.8089 265.989 61.8459 265.985 61.8822C265.989 61.8459 265.989 61.8089 265.985 61.7726Z" fill="#FF7485"/>
<path d="M265.781 66.5058H265.832C265.893 66.4433 265.942 66.3693 265.977 66.2866C266.338 65.015 266.386 63.6642 266.114 62.3672C266.114 62.2025 266.054 62.0566 266.02 61.9194C266.023 61.8831 266.023 61.8461 266.02 61.8098C265.998 61.7104 265.969 61.6124 265.935 61.5173V61.4353C265.901 61.3402 265.861 61.2487 265.815 61.1609V61.1058C265.785 61.0513 265.751 60.9991 265.713 60.9504L265.61 60.8779C265.574 60.8677 265.535 60.8677 265.499 60.8779L259.122 61.2611L257.994 61.3344C257.738 61.3453 257.491 61.4374 257.285 61.5993C257.06 61.7604 256.882 61.9847 256.772 62.2482C256.709 62.3854 256.661 62.5291 256.627 62.6779C256.592 62.7998 256.566 62.9254 256.55 63.0524C256.546 63.0792 256.546 63.1075 256.55 63.1344C256.541 63.2897 256.541 63.445 256.55 63.6004C256.541 63.7615 256.541 63.9233 256.55 64.0845V64.1759C256.55 64.3037 256.55 64.4321 256.55 64.5417C256.55 64.6513 256.55 64.6143 256.55 64.6419C256.562 64.8328 256.588 65.0222 256.627 65.2087V65.3459L256.678 65.5651C256.681 65.6137 256.681 65.6624 256.678 65.711V65.7843C256.678 65.7843 256.678 65.8663 256.678 65.9026C256.678 65.9396 256.738 66.0674 256.772 66.1407L256.849 66.296C256.849 66.3599 256.926 66.4332 256.969 66.4876L257.036 66.5885C257.088 66.6524 257.14 66.6981 257.191 66.7525C257.21 66.7787 257.233 66.8004 257.259 66.8164C257.303 66.8592 257.352 66.8962 257.404 66.926L257.533 66.9993H257.627C257.813 67.0806 258.015 67.1176 258.217 67.1089L260.456 66.9717L261.413 66.9079L263.482 66.7896L265.721 66.6524C265.753 66.6096 265.773 66.5595 265.781 66.5058Z" fill="#FF7485"/>
<path d="M148.642 112.2C149.06 112.04 149.498 111.947 149.941 111.926C150.227 111.905 150.514 111.924 150.796 111.98L153.642 112.537C153.856 112.318 154.078 112.099 154.317 111.889L154.95 111.286L155.557 110.756C155.89 110.464 156.241 110.18 156.6 109.906L157.334 109.34C157.941 108.883 158.582 108.426 159.241 108.006L160.096 107.476L160.659 107.137C161.155 106.827 161.694 106.516 162.224 106.224C162.506 106.06 162.805 105.895 163.079 105.74C163.839 105.337 164.617 104.954 165.411 104.579L166.343 104.159C167.198 103.794 167.993 103.446 168.848 103.117L169.813 102.743C170.685 102.42 171.566 102.116 172.455 101.829C172.788 101.729 173.113 101.619 173.446 101.528C174.301 101.253 175.25 101.007 176.164 100.769L177.181 100.522L177.96 100.349C178.626 100.202 179.293 100.056 179.95 99.9374L180.96 99.7553C181.891 99.5999 182.823 99.4628 183.737 99.3437L184.737 99.2247C185.661 99.1245 186.575 99.0425 187.498 98.9874H188.242H188.473C192.603 98.7711 196.742 99.0991 200.798 99.965L201.165 100.056C201.439 100.112 201.695 100.176 201.96 100.248C202.687 100.431 203.388 100.641 204.063 100.869C204.311 100.943 204.55 101.034 204.781 101.116L205.636 101.436C206.003 101.582 206.354 101.729 206.696 101.884L207.345 102.185C207.926 102.468 208.482 102.779 209.054 103.099L209.619 103.446C210.108 103.764 210.582 104.109 211.037 104.479C211.208 104.607 211.362 104.744 211.516 104.881C211.923 105.235 212.311 105.613 212.679 106.014C212.815 106.16 212.943 106.306 213.072 106.462C213.383 106.851 213.669 107.263 213.927 107.695C214.031 107.848 214.128 108.006 214.217 108.17C214.455 108.59 214.666 109.027 214.849 109.477C214.918 109.65 214.986 109.815 215.037 109.988C215.19 110.432 215.31 110.887 215.396 111.35C215.396 111.523 215.457 111.706 215.482 111.889C215.544 112.352 215.575 112.819 215.576 113.287C215.576 113.469 215.576 113.67 215.576 113.853C215.555 114.329 215.501 114.803 215.414 115.269C215.414 115.462 215.337 115.653 215.294 115.846C215.185 116.327 215.045 116.8 214.875 117.262C214.807 117.463 214.739 117.654 214.653 117.855C214.465 118.313 214.252 118.769 214.012 119.245L213.679 119.838C213.422 120.286 213.14 120.752 212.824 121.19L212.405 121.784L212.106 122.168C211.866 122.469 211.619 122.771 211.354 123.082L210.832 123.658L210.61 123.904L213.106 124.398C213.274 124.409 213.438 124.461 213.585 124.547C213.733 124.634 213.861 124.755 213.961 124.9C214.007 124.985 214.036 125.08 214.043 125.178C214.051 125.276 214.037 125.375 214.003 125.467C213.926 125.687 213.796 125.882 213.627 126.033L208.456 131.25L142.146 118.632L142.24 118.011L147.437 112.967C147.781 112.62 148.193 112.359 148.642 112.2ZM199.208 121.574C199.293 121.501 199.362 121.419 199.439 121.346C204.815 115.864 202.054 109.833 193.063 107.923C191.633 107.627 190.184 107.443 188.729 107.375C185.309 107.224 181.886 107.577 178.557 108.426C173.626 109.65 169.156 111.88 166.437 114.822C166.359 114.894 166.288 114.974 166.224 115.06L199.208 121.574Z" fill="#2C2E95"/>
<path d="M148.36 111.322C148.779 111.164 149.216 111.069 149.659 111.039C149.945 111.023 150.232 111.042 150.514 111.094L153.361 111.661L154.036 111.002C154.241 110.801 154.454 110.6 154.676 110.409L155.275 109.879C155.608 109.586 155.959 109.303 156.318 109.029C156.677 108.755 156.805 108.645 157.053 108.463C157.659 108.006 158.301 107.549 158.959 107.129L159.814 106.599L160.378 106.251C160.874 105.941 161.412 105.639 161.942 105.337L162.797 104.863C163.557 104.461 164.335 104.067 165.13 103.702L166.061 103.273C166.916 102.907 167.711 102.569 168.566 102.24L169.498 101.911C170.353 101.582 171.25 101.281 172.139 100.998L173.13 100.705C173.985 100.431 174.934 100.176 175.857 99.9469C176.182 99.8649 176.524 99.7735 176.866 99.7002L177.643 99.5267C178.31 99.3714 178.977 99.2342 179.635 99.1065L180.643 98.933C181.575 98.7777 182.507 98.6311 183.43 98.5215L184.422 98.4024C185.353 98.3023 186.259 98.2203 187.182 98.1651H187.934H188.156C192.287 97.9488 196.427 98.2769 200.482 99.1428L200.85 99.2248L201.644 99.4171C202.379 99.6087 203.072 99.8192 203.747 100.038L204.465 100.294L205.319 100.614C205.678 100.751 206.029 100.897 206.379 101.052L207.021 101.363C207.61 101.646 208.157 101.948 208.687 102.277L209.252 102.633C209.741 102.951 210.215 103.295 210.67 103.666C210.837 103.789 210.997 103.924 211.149 104.067C211.559 104.422 211.95 104.8 212.32 105.2L212.704 105.639C213.012 106.032 213.297 106.444 213.559 106.873C213.662 107.028 213.764 107.193 213.85 107.348C214.088 107.768 214.299 108.204 214.482 108.654C214.551 108.828 214.619 109.001 214.67 109.166C214.823 109.613 214.943 110.07 215.029 110.536C215.029 110.711 215.09 110.893 215.115 111.067C215.176 111.533 215.208 112.003 215.209 112.474C215.209 112.657 215.209 112.848 215.209 113.04C215.188 113.516 215.134 113.989 215.047 114.457C215.047 114.648 214.978 114.84 214.927 115.032C214.817 115.514 214.678 115.987 214.508 116.448C214.439 116.64 214.372 116.842 214.294 117.033C214.106 117.49 213.884 117.947 213.645 118.422C213.542 118.623 213.431 118.824 213.312 119.025C213.055 119.473 212.773 119.939 212.457 120.378C212.32 120.569 212.183 120.77 212.038 120.962L211.739 121.355C211.499 121.657 211.252 121.958 210.987 122.268L210.465 122.845L210.243 123.091L212.739 123.584C212.907 123.597 213.071 123.647 213.218 123.735C213.366 123.821 213.494 123.941 213.593 124.087C213.634 124.175 213.656 124.272 213.656 124.37C213.656 124.468 213.634 124.566 213.593 124.653C213.515 124.87 213.388 125.065 213.226 125.22L208.046 130.437L141.822 117.865L147.112 112.2C147.456 111.804 147.884 111.503 148.36 111.322ZM198.926 120.688L199.157 120.468C204.533 114.986 201.773 108.956 192.781 107.046C191.352 106.74 189.903 106.556 188.447 106.498C185.028 106.343 181.605 106.694 178.276 107.54C173.344 108.773 168.873 111.002 166.156 113.935C166.08 114.013 166.008 114.096 165.942 114.182L198.926 120.688Z" fill="url(#paint20_linear_1631:2801)"/>
<g style="mix-blend-mode:multiply">
<path style="mix-blend-mode:screen" d="M187.943 98.0735L188.448 106.498C189.904 106.557 191.353 106.74 192.781 107.046C201.773 108.956 204.534 114.968 199.157 120.468L198.927 120.688L189.157 118.751L189.645 126.828L206.252 129.98L205.286 100.513L204.431 100.194L203.713 99.9374C203.038 99.7182 202.345 99.5084 201.611 99.3161L200.816 99.1245L200.448 99.0424C196.393 98.1766 192.253 97.8478 188.123 98.0648L187.943 98.0735Z" fill="url(#paint21_linear_1631:2801)"/>
<path style="mix-blend-mode:screen" d="M160.327 106.251L161.917 121.565L179.593 124.918L178.968 116.695L165.943 114.109C166.009 114.022 166.08 113.94 166.156 113.863C168.9 110.975 173.344 108.746 178.276 107.467L177.652 99.4075L176.874 99.5809C176.532 99.6542 176.19 99.7457 175.866 99.8277C174.943 100.056 174.029 100.312 173.14 100.586L172.148 100.879C171.293 101.162 170.378 101.464 169.507 101.792L168.541 102.167C167.686 102.496 166.832 102.834 166.036 103.2L165.105 103.629C164.31 103.995 163.532 104.387 162.772 104.789L161.917 105.265C161.361 105.639 160.823 105.94 160.327 106.251Z" fill="url(#paint22_linear_1631:2801)"/>
</g>
<g style="mix-blend-mode:multiply">
<g style="mix-blend-mode:multiply">
<path d="M318.031 165.031L327.86 157.027L241.524 133.946L231.011 142.655L318.031 165.031Z" fill="#E6E6E6"/>
</g>
</g>
<path d="M232.215 136.989C232.161 137.009 232.109 137.037 232.061 137.072H232.018L231.89 137.209C231.828 137.289 231.77 137.374 231.72 137.464V137.528C231.72 137.611 231.626 137.702 231.583 137.802L231.531 137.903L231.361 138.324C230.874 139.547 230.695 140.886 230.839 142.207C230.857 142.295 230.893 142.379 230.942 142.453L230.984 142.499C230.984 142.499 230.984 142.554 231.053 142.563L225.351 139.255C225.331 139.239 225.314 139.218 225.3 139.195C225.287 139.171 225.278 139.145 225.275 139.118C225.217 138.599 225.288 138.073 225.48 137.592C225.518 137.491 225.565 137.394 225.617 137.3C225.614 137.282 225.614 137.263 225.617 137.245C225.651 137.18 225.694 137.122 225.745 137.072C225.773 137.064 225.802 137.064 225.831 137.072L232.31 136.934H232.258L232.215 136.989Z" fill="url(#paint23_linear_1631:2801)"/>
<path d="M231.01 142.654C231.01 142.654 230.958 142.609 230.941 142.591L231.01 142.654Z" fill="#0075F2"/>
<path d="M231.463 137.985L231.515 137.885L231.463 137.985Z" fill="#0075F2"/>
<path d="M230.771 142.289C230.79 142.377 230.824 142.461 230.873 142.535C230.824 142.461 230.79 142.377 230.771 142.289Z" fill="#0075F2"/>
<path d="M308.732 156.908C308.677 156.92 308.626 156.948 308.586 156.99L308.458 157.118L308.415 157.164C308.355 157.244 308.301 157.33 308.253 157.419C308.251 157.444 308.251 157.468 308.253 157.493L308.116 157.758V157.867C308.051 158.004 307.994 158.144 307.945 158.287C307.457 159.511 307.275 160.849 307.415 162.17C307.433 162.257 307.469 162.337 307.518 162.408C307.543 162.441 307.575 162.467 307.612 162.481L302.031 161.029L296.629 159.621L286.44 156.971L280.406 155.4L278.764 154.97L266.336 151.736L259.926 150.064L258.345 149.653L252.242 148.072L242.088 145.422L236.652 144.015L231.096 142.563L231.002 142.489L230.959 142.444C230.91 142.37 230.875 142.286 230.857 142.197C230.712 140.876 230.892 139.538 231.378 138.314L231.549 137.894L231.6 137.793C231.643 137.693 231.694 137.601 231.737 137.519V137.455C231.788 137.365 231.845 137.28 231.908 137.199L232.036 137.062H232.079C232.126 137.028 232.178 136.999 232.233 136.98H232.335L237.891 138.442L243.31 139.849L253.49 142.499L259.55 144.07L261.174 144.5L267.567 146.163L279.995 149.397L281.628 149.817L287.688 151.398L297.859 154.048L303.279 155.455L308.834 156.908H308.732Z" fill="url(#paint24_linear_1631:2801)"/>
<path d="M308.167 157.556C308.165 157.532 308.165 157.508 308.167 157.483C308.165 157.508 308.165 157.532 308.167 157.556Z" fill="#E4EEED"/>
<path d="M307.432 162.491C307.456 162.523 307.489 162.549 307.525 162.564C307.489 162.549 307.456 162.523 307.432 162.491Z" fill="#E4EEED"/>
<path d="M307.287 162.208C307.305 162.293 307.34 162.374 307.389 162.445C307.34 162.374 307.305 162.293 307.287 162.208Z" fill="#E4EEED"/>
<path d="M308.372 157.2L308.415 157.154L308.372 157.2Z" fill="#E4EEED"/>
<path d="M309.637 162.811C309.654 162.9 309.689 162.984 309.739 163.057C309.689 162.984 309.654 162.9 309.637 162.811Z" fill="#FF7485"/>
<path d="M309.784 163.103C309.808 163.136 309.84 163.161 309.877 163.176C309.84 163.161 309.808 163.136 309.784 163.103Z" fill="#FF7485"/>
<path d="M310.381 158.407L310.33 158.516L310.381 158.407Z" fill="#FF7485"/>
<path d="M309.782 163.103C309.732 163.03 309.696 162.946 309.679 162.857C309.535 161.535 309.717 160.196 310.209 158.973C310.261 158.827 310.321 158.69 310.372 158.562L310.423 158.452C310.423 158.351 310.517 158.269 310.56 158.187V158.114C310.62 158.014 310.68 157.931 310.731 157.859V157.813C310.731 157.758 310.817 157.721 310.859 157.676C310.895 157.65 310.936 157.631 310.979 157.621C311.013 157.611 311.048 157.611 311.081 157.621L317.38 159.128L318.492 159.384C318.742 159.446 318.97 159.582 319.15 159.777C319.339 159.987 319.474 160.245 319.543 160.526C319.58 160.673 319.603 160.823 319.612 160.974C319.62 161.102 319.62 161.23 319.612 161.358V161.44C319.612 161.595 319.612 161.75 319.612 161.906C319.612 162.071 319.56 162.235 319.535 162.381V162.473L319.458 162.829V162.929C319.381 163.204 319.304 163.413 319.287 163.468L319.236 163.596C319.236 163.669 319.176 163.743 319.141 163.807C319.127 163.852 319.107 163.894 319.082 163.934C319.086 163.958 319.086 163.984 319.082 164.008C319.063 164.045 319.044 164.082 319.022 164.117C318.981 164.191 318.936 164.261 318.885 164.327L318.791 164.464L318.637 164.638L318.552 164.72L318.381 164.848L318.295 164.903L318.133 164.985H317.996H317.893C317.699 165.024 317.498 165.024 317.304 164.985L315.115 164.41L314.184 164.172L312.175 163.651L309.996 163.076C309.965 163.099 309.93 163.114 309.892 163.119C309.855 163.124 309.817 163.118 309.782 163.103Z" fill="#FF7485"/>
<g style="mix-blend-mode:multiply">
<g style="mix-blend-mode:multiply">
<path d="M237.303 142.572C237.303 142.572 256.766 139.95 255.757 139.585C254.749 139.219 218.149 134.751 218.149 134.751L204.977 138.122L237.303 142.572Z" fill="#E6E6E6"/>
</g>
</g>
<path d="M204.942 122.197V138.124L237.311 142.573V126.647L204.942 122.197Z" fill="#E8E2E4"/>
<path d="M245.406 125.066L237.303 126.657V142.573L245.406 140.983V125.066Z" fill="#CCCCCC"/>
<path d="M204.943 122.197L237.311 126.647L245.414 125.066L213.037 120.616L204.943 122.197Z" fill="#F2F2F2"/>
<path d="M204.942 122.197V138.124L226.473 141.083V125.158L204.942 122.197Z" fill="#77E2FF"/>
<path d="M204.943 122.197L226.474 125.158L234.568 123.577L213.037 120.616L204.943 122.197Z" fill="#0274E1"/>
<g style="mix-blend-mode:multiply">
<g style="mix-blend-mode:multiply">
<path d="M118.044 127.677L119.249 127.193L136.326 120.312L137.557 120.577L152.472 123.757L160.763 125.53L175.114 128.591L216.594 137.444L229.638 140.232L266.066 147.998V148.684L247.177 158.305L111.992 130.802V130.117L118.044 127.677Z" fill="#E6E6E6"/>
</g>
</g>
<path d="M132.334 122.497L108 130.601V131.287L243.185 158.79L262.074 149.178V148.483L132.334 122.497Z" fill="#C1272D"/>
<path d="M132.334 120.798L108 130.601L243.211 157.812L262.074 148.483L132.334 120.798Z" fill="url(#paint25_linear_1631:2801)"/>
<g opacity="0.38">
<g style="mix-blend-mode:screen" opacity="0.38">
<g style="mix-blend-mode:screen" opacity="0.38">
<path d="M212.61 137.929L221.064 149.351L221.654 150.145L221.721 150.246L222.08 150.73L222.773 151.662L223.132 152.147L223.824 153.088L224.183 153.572L224.551 154.056L238.953 156.962L238.363 156.24L237.988 155.774L237.244 154.888L236.868 154.422L236.141 153.526L235.765 153.06L235.731 153.024L235.064 152.22L225.645 140.716L212.61 137.929Z" fill="#FFB501"/>
</g>
</g>
<g style="mix-blend-mode:screen" opacity="0.38">
<g style="mix-blend-mode:screen" opacity="0.38">
<path d="M191.541 133.434L200.26 145.084L200.875 145.906L201.174 146.317L201.541 146.811L202.259 147.761L202.618 148.254L203.337 149.204L203.713 149.698L203.849 149.89L218.79 152.905L218.431 152.467L218.038 151.991L217.286 151.087L216.893 150.612L216.141 149.698L215.747 149.223L215.474 148.885L214.79 148.063L205.072 136.321L191.541 133.434Z" fill="#FFB501"/>
</g>
</g>
<g style="mix-blend-mode:screen" opacity="0.38">
<g style="mix-blend-mode:screen" opacity="0.38">
<path d="M156.77 126.015L165.907 138.057L166.548 138.898L167.275 139.848L167.659 140.369L168.403 141.347L168.796 141.858L169.54 142.845L169.677 143.019L185.515 146.199L185.148 145.778L184.361 144.837L183.951 144.343L183.164 143.411L182.745 142.918L182.027 142.059L181.31 141.209L171.121 129.075L156.77 126.015Z" fill="#FFB501"/>
</g>
</g>
<g style="mix-blend-mode:screen" opacity="0.38">
<g style="mix-blend-mode:screen" opacity="0.38">
<path d="M133.572 121.062L143.001 133.361L143.881 134.521L144.658 135.526L145.06 136.047L145.821 137.052L146.231 137.573L146.881 138.432L163.343 141.739L163.232 141.621L162.429 140.661L162.001 140.158L161.172 139.2L160.745 138.697L159.933 137.737L159.001 136.641L148.479 124.251L133.572 121.062Z" fill="#FFB501"/>
</g>
</g>
</g>
<path d="M115.257 127.678L114.034 128.171L116.719 128.719L110.718 131.15L111.889 131.387L117.881 128.957L120.086 129.404L114.111 131.835L115.282 132.064L121.24 129.642L123.445 130.09L117.505 132.52L118.667 132.749L124.591 130.328L126.778 130.775L120.881 133.197L122.034 133.425L127.924 131.003L130.086 131.451L124.232 133.864L125.377 134.101L131.223 131.68L133.394 132.128L127.565 134.539L128.701 134.768L134.522 132.356L136.677 132.795L130.881 135.207L132.018 135.435L137.796 133.023L139.933 133.462L134.18 135.874L135.301 136.093L141.044 133.69L143.181 134.119L137.462 136.532L138.582 136.76L144.292 134.348L146.411 134.786L140.728 137.189L141.839 137.409L147.514 135.005L149.617 135.435L143.967 137.838L145.07 138.067L150.711 135.664L152.814 136.093L147.198 138.487L148.301 138.715L153.908 136.312L155.994 136.742L150.412 139.135L151.506 139.355L157.079 136.961L159.148 137.381L153.591 139.775L154.686 139.995L160.233 137.61L162.293 138.03L156.771 140.415L157.857 140.634L163.37 138.249L165.43 138.669L159.934 141.054L161.019 141.274L166.498 138.889L168.532 139.3L163.07 141.685L164.147 141.904L169.592 139.519L171.626 139.931L166.199 142.315L167.267 142.534L172.686 140.15L174.712 140.561L169.31 142.946L170.379 143.156L175.764 140.78L177.763 141.192L172.396 143.567L173.456 143.778L178.806 141.401L180.815 141.813L175.481 144.179L176.533 144.399L181.849 142.023L183.849 142.425L178.541 144.8L179.593 145.011L184.884 142.645L186.85 143.046L181.584 145.413L182.619 145.623L187.884 143.256L189.858 143.659L184.618 146.025L185.644 146.226L190.875 143.868L192.841 144.262L187.627 146.628L188.661 146.838L193.858 144.471L195.799 144.874L190.619 147.231L191.644 147.441L196.816 145.075L198.756 145.477L193.602 147.834L194.627 148.035L199.764 145.678L201.696 146.08L196.576 148.428L197.593 148.629L202.704 146.281L204.61 146.674L199.516 149.022L200.534 149.223L205.611 146.875L207.526 147.267L202.457 149.616L203.465 149.817L208.517 147.468L210.423 147.852L205.389 150.201L206.38 150.401L211.406 148.053L213.295 148.446L208.286 150.785L209.278 150.986L214.278 148.647L216.158 149.031L211.175 151.37L212.166 151.571L217.133 149.223L219.013 149.607L214.056 151.946L215.039 152.147L219.988 149.808L221.842 150.192L216.919 152.521L217.893 152.722L222.808 150.383L224.663 150.767L219.765 153.097L220.739 153.298L225.629 150.959L227.475 151.334L222.603 153.672L223.569 153.865L228.432 151.534L230.261 151.91L225.415 154.23L226.381 154.431L231.21 152.101L233.039 152.476L228.227 154.797L229.184 154.988L233.988 152.667L235.808 153.042L231.022 155.363L231.971 155.555L236.749 153.234L238.553 153.6L233.791 155.92L234.74 156.112L239.492 153.792L241.287 154.157L236.561 156.478L237.501 156.669L242.228 154.349L244.014 154.714L239.313 157.026L240.253 157.218L244.945 154.906L247.878 155.509L248.826 155.034L115.257 127.678Z" fill="#FFF551"/>
<g style="mix-blend-mode:multiply">
<g style="mix-blend-mode:multiply">
<path d="M238.745 150.558L238.122 148.73C238.053 148.424 238.082 148.102 238.207 147.816L256.405 107.303L256.063 108.061L255.875 107.093L263.952 89.1016C263.551 87.6188 263.604 86.0366 264.106 84.5886C264.747 82.9091 265.841 81.472 267.25 80.4602C268.657 79.4477 270.315 78.9062 272.012 78.9048L275.08 69.8591C275.332 69.2124 275.799 68.6883 276.391 68.3878C276.983 68.0874 277.657 68.0322 278.286 68.2332C278.597 68.3203 278.888 68.4764 279.14 68.6898C279.449 68.7515 279.742 68.8807 280.002 69.0694C280.261 69.2581 280.482 69.502 280.649 69.7857C280.816 70.0703 280.926 70.3882 280.972 70.7199C281.018 71.0516 281 71.3905 280.918 71.7142L277.764 81.0067C278.979 82.0787 279.83 83.5499 280.183 85.191C280.614 86.083 280.866 87.0614 280.924 88.0637C280.982 89.0661 280.843 90.0699 280.516 91.012C279.992 92.5216 279.065 93.8339 277.849 94.7854L273.354 113.836L272.567 113.68L262.447 156.643C262.329 157.039 262.071 157.369 261.727 157.562C261.383 157.755 260.982 157.796 260.61 157.676L259.481 157.383L255.84 165.049L257.874 156.991L257.481 156.89L257.96 154.99L268.216 111.442H268.166L267.755 111.113L268.277 111.213L267.755 111.113L271.174 96.5941C270.785 96.5383 270.399 96.4562 270.02 96.3474C269.346 96.1427 268.698 95.8516 268.089 95.4793L261.251 110.721L260.738 110.51L242.541 152.322L241.044 151.874L237.464 159.357L239.48 151.38C239.313 151.303 239.161 151.19 239.035 151.049C238.909 150.907 238.811 150.741 238.745 150.558ZM276.619 95.909L276.713 95.562L276.619 95.909Z" fill="#E6E6E6"/>
</g>
</g>
<path d="M256.771 155.976L259.917 156.615C260.107 156.665 260.305 156.67 260.497 156.633C260.689 156.596 260.871 156.515 261.033 156.397C261.194 156.278 261.33 156.126 261.432 155.947C261.535 155.77 261.601 155.571 261.627 155.364L269.636 91.1663L265.891 90.6278L256.771 155.976Z" fill="#333333"/>
<path d="M241.72 152.129L238.908 151.434C238.704 151.385 238.513 151.291 238.345 151.157C238.178 151.024 238.039 150.854 237.937 150.659C237.834 150.465 237.772 150.25 237.751 150.028C237.732 149.806 237.756 149.581 237.822 149.369L256.891 88.0236L260.473 89.3024L241.72 152.129Z" fill="#333333"/>
<path d="M237.096 148.575L237.874 150.521L238.694 150.247L237.848 147.396L237.096 148.575Z" fill="#333333"/>
<path d="M257.655 84.454C255.93 80.0026 257.907 74.8973 262.072 73.0523C266.236 71.2073 271.011 73.3209 272.737 77.773C274.463 82.2251 272.486 87.3297 268.321 89.1747C264.157 91.0197 259.382 88.9061 257.655 84.454Z" fill="#333333"/>
<path d="M262.43 81.7192L267.267 82.9161L271.747 62.1841C271.857 61.483 271.709 60.763 271.333 60.1766C270.956 59.5901 270.381 59.1829 269.729 59.0407C268.387 58.7024 266.9 60.9873 266.592 62.4128L262.43 81.7192Z" fill="#333333"/>
<path d="M261.823 80.2939C261.674 80.9965 261.722 81.7303 261.962 82.4031C262.202 83.0767 262.622 83.6588 263.171 84.0776C263.719 84.4964 264.371 84.7323 265.044 84.7562C265.717 84.7794 266.383 84.59 266.956 84.2111C267.529 83.8322 267.985 83.2806 268.266 82.626C268.546 81.9713 268.639 81.2426 268.534 80.5313C268.428 79.8193 268.129 79.1573 267.672 78.6275C267.216 78.0977 266.623 77.7239 265.969 77.5526C265.528 77.4379 265.07 77.4176 264.622 77.4931C264.174 77.5693 263.745 77.7398 263.359 77.9946C262.973 78.2501 262.639 78.5847 262.375 78.9795C262.112 79.3744 261.924 79.8207 261.823 80.2939Z" fill="#333333"/>
<path d="M257.011 154.267L259.183 154.807C259.373 154.856 259.57 154.862 259.762 154.824C259.954 154.786 260.137 154.706 260.298 154.587C260.46 154.47 260.595 154.317 260.698 154.139C260.8 153.961 260.866 153.761 260.892 153.555L268.909 89.3483L265.166 88.8185L257.011 154.267Z" fill="#373F42"/>
<path d="M240.993 150.32L238.173 149.626C237.969 149.574 237.779 149.477 237.612 149.343C237.446 149.208 237.307 149.038 237.205 148.843C237.104 148.648 237.04 148.433 237.02 148.21C237 147.988 237.023 147.764 237.087 147.551L256.165 86.2142L259.746 87.4844L240.993 150.32Z" fill="#373F42"/>
<path d="M256.122 105.805L255.601 105.612L254.874 103.803L251.114 102.469L250.849 103.31L250.575 102.278L255.396 103.986L256.122 105.805Z" fill="url(#paint26_linear_1631:2801)"/>
<path d="M265.296 83.5417L270.328 84.2625L267.548 106.45L262.516 105.729L265.296 83.5417Z" fill="url(#paint27_linear_1631:2801)"/>
<path d="M255.389 103.972L250.571 102.263L257.163 81.016L261.982 82.7245L255.389 103.972Z" fill="url(#paint28_linear_1631:2801)"/>
<path d="M256.515 77.3427C256.15 79.0244 256.261 80.7837 256.832 82.3979C257.403 84.0128 258.409 85.41 259.724 86.4131C261.037 87.4161 262.6 87.9801 264.215 88.0338C265.828 88.0875 267.421 87.6273 268.791 86.7136C270.16 85.799 271.246 84.4708 271.909 82.8973C272.573 81.3237 272.784 79.5745 272.518 77.8725C272.252 76.1698 271.519 74.5897 270.413 73.3326C269.306 72.0755 267.875 71.1973 266.302 70.8097C264.194 70.2893 261.979 70.6856 260.144 71.9107C258.308 73.1359 257.003 75.089 256.515 77.3427Z" fill="#373F42"/>
<path d="M261.704 79.8918L266.541 81.0886L270.713 61.7916C270.861 61.1043 270.748 60.3821 270.398 59.784C270.05 59.1867 269.492 58.7614 268.849 58.6024C268.531 58.5226 268.201 58.511 267.879 58.5676C267.556 58.6249 267.247 58.7498 266.97 58.9348C266.693 59.1199 266.452 59.3616 266.263 59.6469C266.074 59.9314 265.939 60.2536 265.866 60.594L261.704 79.8918Z" fill="#373F42"/>
<path d="M261.106 78.4757C260.956 79.1783 261.004 79.9128 261.244 80.5864C261.484 81.2599 261.904 81.8427 262.453 82.2615C263.002 82.6803 263.654 82.9162 264.328 82.9394C265.002 82.9634 265.668 82.7732 266.24 82.3936C266.814 82.0133 267.269 81.461 267.549 80.8056C267.83 80.1502 267.922 79.4207 267.815 78.7087C267.709 77.9967 267.408 77.3348 266.95 76.8057C266.492 76.2765 265.898 75.9035 265.243 75.7344C264.355 75.5174 263.422 75.6836 262.647 76.1967C261.873 76.7098 261.319 77.5286 261.106 78.4757Z" fill="url(#paint29_radial_1631:2801)"/>
<path d="M257.275 155.291L255.925 164.912L258.993 155.775C259.173 155.217 257.353 154.743 257.275 155.291Z" fill="url(#paint30_linear_1631:2801)"/>
<path d="M238.745 150.494L237.395 160.115L240.463 150.978C240.668 150.421 238.848 149.945 238.745 150.494Z" fill="url(#paint31_linear_1631:2801)"/>
<path d="M270.216 85.4928L270.9 87.3567L268.276 108.28L267.319 106.426L270.216 85.4928Z" fill="url(#paint32_linear_1631:2801)"/>
<path d="M260.644 87.0917L261.422 88.7364L256.122 105.804L255.396 103.986L260.644 87.0917Z" fill="url(#paint33_linear_1631:2801)"/>
<path d="M268.276 108.28L267.319 106.426L262.515 105.74L262.951 106.06L266.797 106.672L267.498 108.162L268.276 108.28Z" fill="url(#paint34_linear_1631:2801)"/>
</g>
<defs>
<linearGradient id="paint0_linear_1631:2801" x1="-3826.48" y1="-2857.28" x2="-3805.41" y2="-2850.09" gradientUnits="userSpaceOnUse">
<stop stop-color="#9BB3D5"/>
<stop offset="0.02" stop-color="#9DB4D6"/>
<stop offset="0.46" stop-color="#CBD6E5"/>
<stop offset="0.8" stop-color="#E7EAEE"/>
<stop offset="1" stop-color="#F2F2F2"/>
</linearGradient>
<linearGradient id="paint1_linear_1631:2801" x1="-5300.57" y1="-3241.02" x2="-5277.73" y2="-3243.82" gradientUnits="userSpaceOnUse">
<stop stop-color="#9BB3D5"/>
<stop offset="0.02" stop-color="#9DB4D6"/>
<stop offset="0.46" stop-color="#CBD6E5"/>
<stop offset="0.8" stop-color="#E7EAEE"/>
<stop offset="1" stop-color="#F2F2F2"/>
</linearGradient>
<linearGradient id="paint2_linear_1631:2801" x1="-4560.44" y1="-2931.65" x2="-4537.64" y2="-2928.35" gradientUnits="userSpaceOnUse">
<stop stop-color="#9BB3D5"/>
<stop offset="0.02" stop-color="#9DB4D6"/>
<stop offset="0.46" stop-color="#CBD6E5"/>
<stop offset="0.8" stop-color="#E7EAEE"/>
<stop offset="1" stop-color="#F2F2F2"/>
</linearGradient>
<linearGradient id="paint3_linear_1631:2801" x1="180.739" y1="44.8683" x2="177.39" y2="45.9041" gradientUnits="userSpaceOnUse">
<stop stop-color="#F15A24"/>
<stop offset="0.99" stop-color="#FFB501"/>
</linearGradient>
<linearGradient id="paint4_linear_1631:2801" x1="-13478.6" y1="42291.7" x2="-13511.6" y2="42285.5" gradientUnits="userSpaceOnUse">
<stop stop-color="#F15A24"/>
<stop offset="0.99" stop-color="#FFB501"/>
</linearGradient>
<linearGradient id="paint5_linear_1631:2801" x1="-8192.21" y1="34596.5" x2="-8231.45" y2="34594.5" gradientUnits="userSpaceOnUse">
<stop stop-color="#F15A24"/>
<stop offset="0.99" stop-color="#FFB501"/>
</linearGradient>
<linearGradient id="paint6_linear_1631:2801" x1="-15303.5" y1="-25325" x2="-15238.2" y2="-25305.9" gradientUnits="userSpaceOnUse">
<stop stop-color="#F15A24"/>
<stop offset="0.99" stop-color="#FFB501"/>
</linearGradient>
<linearGradient id="paint7_linear_1631:2801" x1="-38520.4" y1="-46730.9" x2="-38427.9" y2="-46748.1" gradientUnits="userSpaceOnUse">
<stop stop-color="#F15A24"/>
<stop offset="0.99" stop-color="#FFB501"/>
</linearGradient>
<linearGradient id="paint8_linear_1631:2801" x1="-585.276" y1="-32817.6" x2="-566.161" y2="-32815.1" gradientUnits="userSpaceOnUse">
<stop stop-color="#F15A24"/>
<stop offset="0.99" stop-color="#FFB501"/>
</linearGradient>
<linearGradient id="paint9_linear_1631:2801" x1="218.493" y1="70.0412" x2="166.699" y2="72.3124" gradientUnits="userSpaceOnUse">
<stop stop-color="#0274E1"/>
<stop offset="0.99" stop-color="#77E2FF"/>
</linearGradient>
<linearGradient id="paint10_linear_1631:2801" x1="-16397.3" y1="8691.96" x2="-16397.3" y2="11158.8" gradientUnits="userSpaceOnUse">
<stop stop-color="#F15A24"/>
<stop offset="0.99" stop-color="#FFB501"/>
</linearGradient>
<linearGradient id="paint11_linear_1631:2801" x1="-18952.1" y1="7002.09" x2="-19206" y2="4384.14" gradientUnits="userSpaceOnUse">
<stop stop-color="#F15A24"/>
<stop offset="0.99" stop-color="#FFB501"/>
</linearGradient>
<linearGradient id="paint12_linear_1631:2801" x1="373.845" y1="111.762" x2="326.679" y2="126.142" gradientUnits="userSpaceOnUse">
<stop offset="0.01" stop-color="#E4E4E4"/>
<stop offset="0.58" stop-color="#F6F7F6"/>
<stop offset="0.99" stop-color="#FEFFFD"/>
</linearGradient>
<linearGradient id="paint13_linear_1631:2801" x1="-6195.83" y1="9215.04" x2="-2105.95" y2="5908.26" gradientUnits="userSpaceOnUse">
<stop stop-color="#F15A24"/>
<stop offset="0.99" stop-color="#FFB501"/>
</linearGradient>
<linearGradient id="paint14_linear_1631:2801" x1="227.472" y1="89.9608" x2="304.586" y2="85.6328" gradientUnits="userSpaceOnUse">
<stop offset="0.01" stop-color="#575755"/>
<stop offset="1" stop-color="#B3B3B3"/>
</linearGradient>
<linearGradient id="paint15_linear_1631:2801" x1="-13662.2" y1="2796.27" x2="-15092.6" y2="7895.5" gradientUnits="userSpaceOnUse">
<stop offset="0.01" stop-color="#575755"/>
<stop offset="1" stop-color="#B3B3B3"/>
</linearGradient>
<linearGradient id="paint16_linear_1631:2801" x1="-2325.83" y1="5992.31" x2="-5682.39" y2="7451.45" gradientUnits="userSpaceOnUse">
<stop offset="0.01" stop-color="#E4E4E4"/>
<stop offset="0.58" stop-color="#F6F7F6"/>
<stop offset="0.99" stop-color="#FEFFFD"/>
</linearGradient>
<linearGradient id="paint17_linear_1631:2801" x1="-7568.63" y1="8368.89" x2="-4553.17" y2="5597.97" gradientUnits="userSpaceOnUse">
<stop offset="0.01" stop-color="#575755"/>
<stop offset="1" stop-color="#B3B3B3"/>
</linearGradient>
<linearGradient id="paint18_linear_1631:2801" x1="-4849.03" y1="-2463.96" x2="-4838.63" y2="-2420.67" gradientUnits="userSpaceOnUse">
<stop stop-color="#9BB3D5"/>
<stop offset="0.02" stop-color="#9DB4D6"/>
<stop offset="0.46" stop-color="#CBD6E5"/>
<stop offset="0.8" stop-color="#E7EAEE"/>
<stop offset="1" stop-color="#F2F2F2"/>
</linearGradient>
<linearGradient id="paint19_linear_1631:2801" x1="-19413.1" y1="-48105.2" x2="-19579.2" y2="-47941" gradientUnits="userSpaceOnUse">
<stop stop-color="#F15A24"/>
<stop offset="0.99" stop-color="#FFB501"/>
</linearGradient>
<linearGradient id="paint20_linear_1631:2801" x1="-17513.8" y1="6411.21" x2="-23823.1" y2="6698.84" gradientUnits="userSpaceOnUse">
<stop stop-color="#0274E1"/>
<stop offset="0.99" stop-color="#77E2FF"/>
</linearGradient>
<linearGradient id="paint21_linear_1631:2801" x1="-4236.57" y1="5652.67" x2="-4605.52" y2="5669.49" gradientUnits="userSpaceOnUse">
<stop stop-color="#0274E1"/>
<stop offset="0.99" stop-color="#77E2FF"/>
</linearGradient>
<linearGradient id="paint22_linear_1631:2801" x1="-5163.81" y1="4553.41" x2="-5578.04" y2="4572.29" gradientUnits="userSpaceOnUse">
<stop stop-color="#0274E1"/>
<stop offset="0.99" stop-color="#77E2FF"/>
</linearGradient>
<linearGradient id="paint23_linear_1631:2801" x1="-453.734" y1="-721.911" x2="-473.077" y2="-679.074" gradientUnits="userSpaceOnUse">
<stop stop-color="#9BB3D5"/>
<stop offset="0.02" stop-color="#9DB4D6"/>
<stop offset="0.46" stop-color="#CBD6E5"/>
<stop offset="0.8" stop-color="#E7EAEE"/>
<stop offset="1" stop-color="#F2F2F2"/>
</linearGradient>
<linearGradient id="paint24_linear_1631:2801" x1="-533.838" y1="-10187.1" x2="-481.234" y2="-9828.39" gradientUnits="userSpaceOnUse">
<stop stop-color="#F15A24"/>
<stop offset="0.99" stop-color="#FFB501"/>
</linearGradient>
<linearGradient id="paint25_linear_1631:2801" x1="-28962.8" y1="8446.41" x2="-56737.8" y2="8446.41" gradientUnits="userSpaceOnUse">
<stop stop-color="#F15A24"/>
<stop offset="0.99" stop-color="#FFB501"/>
</linearGradient>
<linearGradient id="paint26_linear_1631:2801" x1="256.678" y1="105.01" x2="244.564" y2="101.912" gradientUnits="userSpaceOnUse">
<stop offset="0.02" stop-color="#999999"/>
<stop offset="0.28" stop-color="#BEBEBD"/>
<stop offset="0.58" stop-color="#E1E1E0"/>
<stop offset="0.83" stop-color="#F6F7F5"/>
<stop offset="0.99" stop-color="#FEFFFD"/>
</linearGradient>
<linearGradient id="paint27_linear_1631:2801" x1="-530.525" y1="3357.72" x2="-594.253" y2="3348.87" gradientUnits="userSpaceOnUse">
<stop offset="0.01" stop-color="#E4E4E4"/>
<stop offset="0.58" stop-color="#F6F7F6"/>
<stop offset="0.99" stop-color="#FEFFFD"/>
</linearGradient>
<linearGradient id="paint28_linear_1631:2801" x1="-595.167" y1="3278.21" x2="-662.997" y2="3278.21" gradientUnits="userSpaceOnUse">
<stop offset="0.01" stop-color="#E4E4E4"/>
<stop offset="0.58" stop-color="#F6F7F6"/>
<stop offset="0.99" stop-color="#FEFFFD"/>
</linearGradient>
<radialGradient id="paint29_radial_1631:2801" cx="0" cy="0" r="1" gradientUnits="userSpaceOnUse" gradientTransform="translate(264.473 79.3068) rotate(180) scale(3.45314 3.69137)">
<stop offset="0.01" stop-color="#FEFFFD"/>
<stop offset="1" stop-color="#B3B3B3"/>
</radialGradient>
<linearGradient id="paint30_linear_1631:2801" x1="257.737" y1="160.197" x2="253.272" y2="159.084" gradientUnits="userSpaceOnUse">
<stop offset="0.02" stop-color="#999999"/>
<stop offset="0.04" stop-color="#A2A2A2"/>
<stop offset="0.12" stop-color="#BEBFBE"/>
<stop offset="0.22" stop-color="#D6D6D5"/>
<stop offset="0.33" stop-color="#E8E9E7"/>
<stop offset="0.46" stop-color="#F5F5F4"/>
<stop offset="0.63" stop-color="#FCFDFB"/>
<stop offset="0.99" stop-color="#FEFFFD"/>
</linearGradient>
<linearGradient id="paint31_linear_1631:2801" x1="-346.92" y1="2237.91" x2="-363.915" y2="2236.49" gradientUnits="userSpaceOnUse">
<stop offset="0.02" stop-color="#999999"/>
<stop offset="0.04" stop-color="#A2A2A2"/>
<stop offset="0.12" stop-color="#BEBFBE"/>
<stop offset="0.22" stop-color="#D6D6D5"/>
<stop offset="0.33" stop-color="#E8E9E7"/>
<stop offset="0.46" stop-color="#F5F5F4"/>
<stop offset="0.63" stop-color="#FCFDFB"/>
<stop offset="0.99" stop-color="#FEFFFD"/>
</linearGradient>
<linearGradient id="paint32_linear_1631:2801" x1="-276.904" y1="3463.56" x2="-309.43" y2="3462.17" gradientUnits="userSpaceOnUse">
<stop offset="0.02" stop-color="#999999"/>
<stop offset="0.28" stop-color="#BEBEBD"/>
<stop offset="0.58" stop-color="#E1E1E0"/>
<stop offset="0.83" stop-color="#F6F7F5"/>
<stop offset="0.99" stop-color="#FEFFFD"/>
</linearGradient>
<linearGradient id="paint33_linear_1631:2801" x1="-743.33" y1="2846.66" x2="-773.098" y2="2844.03" gradientUnits="userSpaceOnUse">
<stop offset="0.02" stop-color="#999999"/>
<stop offset="0.28" stop-color="#BEBEBD"/>
<stop offset="0.58" stop-color="#E1E1E0"/>
<stop offset="0.83" stop-color="#F6F7F5"/>
<stop offset="0.99" stop-color="#FEFFFD"/>
</linearGradient>
<linearGradient id="paint34_linear_1631:2801" x1="-633.015" y1="508.805" x2="-671.849" y2="508.805" gradientUnits="userSpaceOnUse">
<stop offset="0.02" stop-color="#999999"/>
<stop offset="0.28" stop-color="#BEBEBD"/>
<stop offset="0.58" stop-color="#E1E1E0"/>
<stop offset="0.83" stop-color="#F6F7F5"/>
<stop offset="0.99" stop-color="#FEFFFD"/>
</linearGradient>
<clipPath id="clip0_1631:2801">
<rect width="418" height="225" fill="white" transform="matrix(-1 0 0 1 418 0)"/>
</clipPath>
</defs>
</svg>
