<svg width="6" height="1168" viewBox="0 0 6 1168" fill="none" xmlns="http://www.w3.org/2000/svg">
<circle cx="3" cy="745" r="3" fill="#5193FA"/>
<circle cx="3" cy="983" r="3" fill="#5193FA"/>
<circle cx="3" cy="633" r="3" fill="#5193FA"/>
<circle cx="3" cy="1081" r="3" fill="#5193FA"/>
<circle cx="3" cy="801" r="3" fill="#5193FA"/>
<circle cx="3" cy="1109" r="3" fill="#5193FA"/>
<circle cx="3" cy="1025" r="3" fill="#5193FA"/>
<circle cx="3" cy="1011" r="3" fill="#5193FA"/>
<circle cx="3" cy="927" r="3" fill="#5193FA"/>
<circle cx="3" cy="1123" r="3" fill="#5193FA"/>
<circle cx="3" cy="913" r="3" fill="#5193FA"/>
<circle cx="3" cy="899" r="3" fill="#5193FA"/>
<circle cx="3" cy="885" r="3" fill="#5193FA"/>
<circle cx="3" cy="871" r="3" fill="#5193FA"/>
<circle cx="3" cy="857" r="3" fill="#5193FA"/>
<circle cx="3" cy="843" r="3" fill="#5193FA"/>
<circle cx="3" cy="829" r="3" fill="#5193FA"/>
<circle cx="3" cy="815" r="3" fill="#5193FA"/>
<circle cx="3" cy="1053" r="3" fill="#5193FA"/>
<circle cx="3" cy="1039" r="3" fill="#5193FA"/>
<circle cx="3" cy="955" r="3" fill="#5193FA"/>
<circle cx="3" cy="941" r="3" fill="#5193FA"/>
<circle cx="3" cy="1095" r="3" fill="#5193FA"/>
<circle cx="3" cy="787" r="3" fill="#5193FA"/>
<circle cx="3" cy="997" r="3" fill="#5193FA"/>
<circle cx="3" cy="773" r="3" fill="#5193FA"/>
<circle cx="3" cy="731" r="3" fill="#5193FA"/>
<circle cx="3" cy="1151" r="3" fill="#5193FA"/>
<circle cx="3" cy="717" r="3" fill="#5193FA"/>
<circle cx="3" cy="689" r="3" fill="#5193FA"/>
<circle cx="3" cy="605" r="3" fill="#5193FA"/>
<circle cx="3" cy="675" r="3" fill="#5193FA"/>
<circle cx="3" cy="661" r="3" fill="#5193FA"/>
<circle cx="3" cy="619" r="3" fill="#5193FA"/>
<circle cx="3" cy="3" r="3" fill="#5193FA"/>
<circle cx="3" cy="591" r="3" fill="#5193FA"/>
<circle cx="3" cy="577" r="3" fill="#5193FA"/>
<circle cx="3" cy="563" r="3" fill="#5193FA"/>
<circle cx="3" cy="549" r="3" fill="#5193FA"/>
<circle cx="3" cy="535" r="3" fill="#5193FA"/>
<circle cx="3" cy="521" r="3" fill="#5193FA"/>
<circle cx="3" cy="703" r="3" fill="#5193FA"/>
<circle cx="3" cy="759" r="3" fill="#5193FA"/>
<circle cx="3" cy="1137" r="3" fill="#5193FA"/>
<circle cx="3" cy="647" r="3" fill="#5193FA"/>
<circle cx="3" cy="1067" r="3" fill="#5193FA"/>
<circle cx="3" cy="507" r="3" fill="#5193FA"/>
<circle cx="3" cy="969" r="3" fill="#5193FA"/>
<circle cx="3" cy="493" r="3" fill="#5193FA"/>
<circle cx="3" cy="479" r="3" fill="#5193FA"/>
<circle cx="3" cy="465" r="3" fill="#5193FA"/>
<circle cx="3" cy="451" r="3" fill="#5193FA"/>
<circle cx="3" cy="437" r="3" fill="#5193FA"/>
<circle cx="3" cy="423" r="3" fill="#5193FA"/>
<circle cx="3" cy="1165" r="3" fill="#5193FA"/>
<circle cx="3" cy="409" r="3" fill="#5193FA"/>
<circle cx="3" cy="395" r="3" fill="#5193FA"/>
<circle cx="3" cy="381" r="3" fill="#5193FA"/>
<circle cx="3" cy="367" r="3" fill="#5193FA"/>
<circle cx="3" cy="353" r="3" fill="#5193FA"/>
<circle cx="3" cy="339" r="3" fill="#5193FA"/>
<circle cx="3" cy="325" r="3" fill="#5193FA"/>
<circle cx="3" cy="311" r="3" fill="#5193FA"/>
<circle cx="3" cy="297" r="3" fill="#5193FA"/>
<circle cx="3" cy="283" r="3" fill="#5193FA"/>
<circle cx="3" cy="269" r="3" fill="#5193FA"/>
<circle cx="3" cy="255" r="3" fill="#5193FA"/>
<circle cx="3" cy="241" r="3" fill="#5193FA"/>
<circle cx="3" cy="227" r="3" fill="#5193FA"/>
<circle cx="3" cy="213" r="3" fill="#5193FA"/>
<circle cx="3" cy="199" r="3" fill="#5193FA"/>
<circle cx="3" cy="185" r="3" fill="#5193FA"/>
<circle cx="3" cy="171" r="3" fill="#5193FA"/>
<circle cx="3" cy="157" r="3" fill="#5193FA"/>
<circle cx="3" cy="143" r="3" fill="#5193FA"/>
<circle cx="3" cy="129" r="3" fill="#5193FA"/>
<circle cx="3" cy="115" r="3" fill="#5193FA"/>
<circle cx="3" cy="101" r="3" fill="#5193FA"/>
<circle cx="3" cy="87" r="3" fill="#5193FA"/>
<circle cx="3" cy="73" r="3" fill="#5193FA"/>
<circle cx="3" cy="59" r="3" fill="#5193FA"/>
<circle cx="3" cy="45" r="3" fill="#5193FA"/>
<circle cx="3" cy="31" r="3" fill="#5193FA"/>
<circle cx="3" cy="17" r="3" fill="#5193FA"/>
</svg>
