<svg width="18" height="13" viewBox="0 0 18 13" fill="none" xmlns="http://www.w3.org/2000/svg">
<path d="M17.831 11.0216C17.8408 10.8247 17.9308 10.2749 17.928 10.168C17.9182 8.79833 17.0491 4.28426 16.9099 3.18458L16.9015 3.11708C16.8537 2.68536 16.8354 2.17208 16.6765 1.76426C16.5162 1.35364 15.9973 1.2102 15.6232 1.06536C14.0749 0.474733 12.3269 -0.0230794 10.6844 0.497233C10.0432 0.699733 9.46522 1.06114 9.00116 1.63067C8.5385 1.06114 7.95913 0.699733 7.31928 0.497233C5.67678 -0.0230794 3.92881 0.474733 2.38053 1.06536C2.00647 1.2088 1.48475 1.35223 1.32585 1.76426C1.16694 2.17208 1.14866 2.68395 1.10084 3.11708L1.09241 3.18458C0.953189 4.28426 0.0855323 8.79833 0.0742823 10.168C0.0714698 10.2763 0.162876 10.8247 0.17272 11.0216C0.186782 11.3057 0.153032 11.5911 0.167095 11.8738C0.13897 11.9722 0.164282 12.065 0.224751 12.1382C0.264126 12.2141 0.324595 12.2605 0.390689 12.2844C0.541157 12.4504 0.81397 12.3407 0.992564 12.2844C2.59288 11.7669 4.3521 11.7866 6.00303 12.006C6.29553 12.044 6.58663 12.0918 6.87631 12.148C7.17725 12.2071 7.46272 12.314 7.751 12.4166C7.98866 12.501 8.23756 12.5713 8.48788 12.6191C8.66788 12.6599 8.84366 12.6768 8.92381 12.6782C8.95194 12.6782 8.97725 12.6754 9.00397 12.674C9.03069 12.674 9.05741 12.6782 9.08413 12.6782C9.16428 12.6782 9.34006 12.6613 9.52006 12.6191C9.77038 12.5713 10.0193 12.501 10.2569 12.4166C10.5452 12.314 10.8321 12.2071 11.133 12.148C11.4227 12.0918 11.7138 12.044 12.0063 12.006C13.6558 11.7866 15.4165 11.7669 17.0168 12.2844C17.194 12.3421 17.4668 12.4504 17.6173 12.2844C17.6848 12.2605 17.7438 12.2141 17.7832 12.1382C17.8437 12.065 17.869 11.9722 17.8408 11.8738C17.8507 11.5897 17.8169 11.3057 17.831 11.0216ZM5.11288 9.18364C4.46741 9.16255 3.82053 9.19489 3.1821 9.28489C2.63366 9.36223 2.09225 9.48458 1.56491 9.64911C1.43694 9.68848 1.2935 9.72083 1.17256 9.7813C1.09522 9.82067 1.03194 9.86567 0.963032 9.77989C0.867407 9.66458 0.930689 9.45505 0.946157 9.32286C0.977095 9.05708 1.01225 8.7927 1.05303 8.52833C1.23022 7.3513 1.46788 6.18551 1.6296 5.00567C1.69991 4.48395 1.75756 3.95801 1.82506 3.4363C1.85881 3.1677 1.89678 2.89911 1.94038 2.63192C1.99381 2.30426 2.00506 2.07364 2.31163 1.87536C2.83335 1.53786 3.45913 1.3888 4.05678 1.24395C4.70085 1.08786 5.3435 0.95567 6.01006 0.980983C6.47694 0.999264 6.93116 1.12301 7.34319 1.34098C7.54288 1.44645 7.73413 1.5702 7.91553 1.70661C8.09553 1.8402 8.31491 1.98364 8.45835 2.1552C8.58631 2.30708 8.6271 2.44489 8.63975 2.60239C8.55116 4.61755 8.56522 9.61395 8.58069 9.96833C8.5821 9.99786 8.58491 10.0274 8.58631 10.0569C8.57928 10.0949 8.55819 10.1244 8.49631 10.1244C8.42178 10.1258 8.34022 10.0766 8.27553 10.0429C8.14194 9.97255 8.00694 9.90505 7.87194 9.84176C6.99866 9.42973 6.07897 9.21458 5.11288 9.18364ZM17.0365 9.77848C16.9662 9.86427 16.9043 9.81926 16.8269 9.77989C16.7074 9.71942 16.564 9.68708 16.4346 9.6477C15.9073 9.48317 15.3658 9.36223 14.8174 9.28348C14.179 9.19348 13.5307 9.16255 12.8852 9.18223C11.9205 9.21317 11.0008 9.42833 10.1262 9.84036C9.99116 9.90505 9.85616 9.97255 9.72256 10.0415C9.65788 10.0752 9.57631 10.123 9.50038 10.123C9.4385 10.123 9.41741 10.0935 9.41038 10.0555C9.41178 10.026 9.416 9.99645 9.416 9.96692C9.43147 9.61255 9.44694 4.61614 9.35694 2.60098C9.3696 2.44348 9.41038 2.30567 9.53694 2.1538C9.68319 1.98223 9.90116 1.83739 10.0812 1.7052C10.2626 1.5702 10.4524 1.44505 10.6535 1.33958C11.0669 1.12161 11.5198 0.997858 11.9866 0.979577C12.6532 0.952858 13.2958 1.08645 13.9399 1.24255C14.5376 1.38739 15.1633 1.53505 15.6865 1.87395C15.993 2.07223 16.0043 2.30286 16.0577 2.63051C16.1013 2.8977 16.1393 3.1663 16.173 3.43489C16.2391 3.95801 16.2968 4.48255 16.3685 5.00426C16.5302 6.1827 16.7693 7.34989 16.9451 8.52692C16.983 8.7913 17.021 9.05567 17.0519 9.32145C17.0688 9.45364 17.1321 9.66317 17.0365 9.77848Z" fill="#D65555"/>
</svg>
