<svg width="104" height="131" viewBox="0 0 104 131" fill="none" xmlns="http://www.w3.org/2000/svg">
<path d="M32.2952 114.503C32.011 116.104 33.0825 117.626 34.6852 117.91L68.0986 123.799C69.7013 124.078 71.2247 123.012 71.5089 121.411L71.7046 120.308C71.9888 118.706 70.9172 117.179 69.3146 116.9L35.9012 111.016C34.2985 110.732 32.7751 111.803 32.4909 113.404L32.2952 114.503Z" fill="#69E0C1"/>
<path d="M32.2952 106.24C32.011 107.842 33.0825 109.368 34.6852 109.648L68.0986 115.536C69.7013 115.815 71.2247 114.75 71.5089 113.148L71.7046 112.045C71.9888 110.444 70.9172 108.921 69.3146 108.638L35.9012 102.749C34.2985 102.465 32.7751 103.536 32.4909 105.137L32.2952 106.24Z" fill="#69E0C1"/>
<path d="M32.2952 97.973C32.011 99.5743 33.0825 101.097 34.6852 101.38L68.0986 107.269C69.7013 107.553 71.2247 106.482 71.5089 104.881L71.7046 103.778C71.9888 102.176 70.9172 100.654 69.3146 100.37L35.9012 94.4818C34.2985 94.1978 32.7751 95.2685 32.4909 96.8698L32.2952 97.973Z" fill="#69E0C1"/>
<path d="M41.3521 121.867C41.3521 126.908 46.1833 131 52.1467 131C57.2435 131 61.5156 128.012 62.6431 123.99L41.5198 120.27C41.4126 120.787 41.3521 121.322 41.3521 121.867Z" fill="#005180"/>
<path d="M35.0394 81.3362C31.9412 81.3362 29.1086 80.4052 26.8537 78.641C24.3566 79.2787 18.0578 80.233 12.742 75.6804C8.30677 71.882 6.49447 66.7475 7.20728 59.9792C7.53806 56.8418 9.30843 53.7741 12.0711 51.563C14.1071 49.9291 16.4784 48.9423 18.8125 48.7095C18.8125 46.6334 19.1852 43.482 21.114 41.2057C22.6235 39.4229 24.7479 38.5012 27.4268 38.464C30.6088 38.4174 35.9479 39.5439 36.1109 47.5644C36.1342 48.5932 35.3143 49.445 34.2846 49.4636C33.269 49.4869 32.4025 48.6676 32.3838 47.6389C32.3046 43.7706 30.8278 42.1321 27.478 42.1879C25.908 42.2112 24.7573 42.6721 23.9652 43.6077C22.344 45.5162 22.4558 49.0819 22.6375 50.2969C22.7213 50.8694 22.535 51.4513 22.1343 51.8656C21.7336 52.2799 21.1606 52.4894 20.5829 52.4242C18.5656 52.1915 16.3154 52.9362 14.4052 54.4677C12.4159 56.0597 11.144 58.2103 10.9204 60.3656C10.3287 65.9748 11.6425 69.8245 15.174 72.8502C20.1403 77.1048 26.3972 74.9123 26.6581 74.8146C27.3196 74.5772 28.0651 74.7261 28.5729 75.2056C30.4877 77.0024 33.1991 77.831 36.2041 77.547C39.5072 77.2305 42.6706 75.6106 44.2546 73.4227C48.1821 67.9997 47.6929 60.8125 47.6882 60.7426C47.6836 60.6961 47.6836 60.6495 47.6836 60.603V15.7431C47.6836 14.7143 48.5175 13.8811 49.5471 13.8811C50.5767 13.8811 51.4107 14.7143 51.4107 15.7431V60.5471C51.4666 61.4688 51.8113 69.3543 47.2782 75.6152C45.056 78.6828 40.9515 80.8474 36.5628 81.2664C36.041 81.3129 35.5379 81.3362 35.0394 81.3362Z" fill="#465560"/>
<path d="M9.06151 62.0413C8.93106 62.0413 8.79595 62.0274 8.66084 61.9994C5.66519 61.3384 0 57.8891 0 49.5381C0 43.9987 3.20996 40.2095 6.52242 38.3801C5.25521 36.9883 3.88084 34.9727 3.36836 32.4218C2.74873 29.3169 3.51745 26.1609 5.65121 23.0374C8.15768 19.3693 14.0791 17.5771 19.4275 18.8619C24.0724 19.9791 27.0541 23.1072 27.6038 27.4456C27.7343 28.4651 27.0121 29.3961 25.9918 29.5264C24.9716 29.6567 24.0398 28.9352 23.9093 27.9158C23.4388 24.1965 20.3546 22.9163 18.5563 22.4834C14.7593 21.5711 10.352 22.7581 8.73073 25.1368C7.18864 27.3944 6.6156 29.5869 7.02092 31.663C7.71975 35.2194 11.0555 37.4631 11.0928 37.4864C11.731 37.91 12.0478 38.6827 11.8894 39.4275C11.731 40.177 11.13 40.7542 10.3753 40.8799C7.6126 41.336 3.7271 44.3292 3.7271 49.5381C3.7271 57.014 9.4016 58.3453 9.46217 58.3592C10.4685 58.578 11.1021 59.5742 10.8831 60.5797C10.6875 61.4455 9.91874 62.0413 9.06151 62.0413Z" fill="#465560"/>
<path d="M37.3551 31.1882C36.9358 31.1882 36.5165 31.1603 36.0972 31.1091C32.4353 30.6482 29.7611 28.0973 29.1228 24.4571C28.4752 20.7518 30.0872 16.9952 32.9664 15.5243C34.979 14.4955 36.8566 14.286 38.5477 14.9052C40.9098 15.7663 41.8742 17.9076 41.972 18.1497C42.3727 19.0993 41.9254 20.1885 40.9797 20.5889C40.0386 20.9845 38.953 20.5516 38.5477 19.616C38.5244 19.5648 38.0958 18.6896 37.2432 18.3917C36.5724 18.159 35.7012 18.3079 34.6622 18.8386C33.2506 19.5601 32.4306 21.7433 32.794 23.8101C33.0037 25.0018 33.7724 27.0593 36.5677 27.413C38.7341 27.6877 41.0356 26.8032 43.0435 24.918C46.2023 21.9574 47.9819 17.107 47.6791 12.2611C47.3623 7.13136 43.6911 5.09714 42.1304 4.46407C39.2046 3.27705 35.813 3.56566 34.0612 5.153C31.5734 7.40601 32.2396 10.32 32.2489 10.3479C32.4399 11.1439 32.0905 11.9679 31.387 12.3868C30.6836 12.8058 29.789 12.7127 29.1834 12.1634C29.039 12.033 25.3771 8.86301 21.0304 11.1998C18.8966 12.3449 16.9026 16.0735 17.3918 20.1001C17.5176 21.1195 16.7861 22.0505 15.7658 22.1716C14.7456 22.2972 13.8138 21.5664 13.6926 20.547C13.0637 15.3939 15.463 9.96624 19.2647 7.91805C22.9918 5.91176 26.3508 6.53553 28.6336 7.51772C28.9505 5.91642 29.7425 4.04047 31.5594 2.39261C34.406 -0.186241 39.2233 -0.740182 43.5374 1.01474C48.2195 2.91862 51.0894 6.93585 51.4016 12.033C51.7743 18.0473 49.6032 23.8799 45.5966 27.6365C43.1227 29.9547 40.2389 31.1882 37.3551 31.1882Z" fill="#465560"/>
<path d="M48.359 71.1744C48.1959 71.1744 48.0329 71.1511 47.8698 71.1092C46.8775 70.8392 46.2905 69.8151 46.5607 68.8236C47.0219 67.1199 47.8978 62.1717 46.4675 59.7371C46.0901 59.0901 45.5823 58.7084 44.8742 58.5315C43.0479 58.0753 41.6688 58.3127 40.7883 59.2391C39.6655 60.4168 39.5304 62.4091 39.768 63.1911C40.0615 64.1547 39.5351 65.1788 38.5754 65.5C37.6203 65.8165 36.5814 65.3184 36.2319 64.3735C36.0735 63.9592 34.5501 60.2352 30.8277 60.8264C28.2932 61.2314 27.7155 63.4006 27.5991 64.0523C27.3568 65.4162 27.7854 66.701 28.638 67.1804C29.5371 67.6832 29.8539 68.819 29.3508 69.7174C28.8476 70.6158 27.7109 70.9323 26.8117 70.4296C24.5615 69.1681 23.4014 66.3425 23.9279 63.4006C24.5242 60.0723 26.9375 57.6796 30.236 57.149C32.9474 56.7161 35.0812 57.5726 36.6559 58.8434C36.996 58.0567 37.4665 57.3119 38.0769 56.6695C39.3674 55.3149 41.748 53.9091 45.7687 54.9146C47.4412 55.3335 48.7923 56.3483 49.6728 57.8519C52.142 62.0646 50.3576 69.0145 50.1433 69.7965C49.929 70.6298 49.179 71.1744 48.359 71.1744Z" fill="#465560"/>
<path d="M49.575 53.9883C49.5704 53.9883 49.5704 53.9883 49.5657 53.9883C48.5361 53.9836 47.7068 53.1457 47.7115 52.117C47.7348 47.0198 47.7534 42.2065 46.435 40.8845C46.2439 40.6937 45.9225 40.4702 45.1491 40.4702C42.7684 40.4702 42.5821 42.3462 42.5821 42.9234C42.5821 43.9522 41.7481 44.7854 40.7185 44.7854C39.6889 44.7854 38.855 43.9522 38.855 42.9234C38.855 40.4423 40.5322 36.7463 45.1491 36.7463C46.7564 36.7463 48.0795 37.2537 49.0765 38.2545C51.4898 40.6751 51.4665 45.479 51.4386 52.1309C51.4339 53.1597 50.6 53.9883 49.575 53.9883Z" fill="#465560"/>
<path d="M68.9607 81.3361C68.4622 81.3361 67.959 81.3128 67.4465 81.2616C63.0579 80.8427 58.9488 78.6781 56.7311 75.6105C52.198 69.3496 52.5381 61.4641 52.5987 60.5424V15.743C52.5987 14.7143 53.4326 13.881 54.4623 13.881C55.4919 13.881 56.3258 14.7143 56.3258 15.743V60.6076C56.3258 60.6541 56.3258 60.7007 56.3211 60.7472C56.3165 60.817 55.8506 68.0369 59.7547 73.4273C61.3434 75.6198 64.5021 77.2397 67.8053 77.5516C70.8102 77.8356 73.5217 77.007 75.4365 75.2102C75.949 74.7261 76.6944 74.5725 77.3606 74.8192C77.6169 74.9123 83.8737 77.1048 88.8401 72.8501C92.3715 69.8244 93.6806 65.9747 93.0936 60.3655C92.8653 58.2103 91.5935 56.0597 89.6088 54.4677C87.6987 52.9362 85.4438 52.1914 83.4311 52.4241C82.8534 52.4893 82.2804 52.2845 81.8751 51.8655C81.4697 51.4466 81.288 50.8647 81.3766 50.2922C81.5583 49.0819 81.6701 45.5115 80.0441 43.6076C79.2521 42.6766 78.1014 42.2111 76.5313 42.1879C76.4847 42.1879 76.4382 42.1879 76.3916 42.1879C73.1304 42.1879 71.7001 43.8264 71.6209 47.6388C71.6022 48.6676 70.759 49.4822 69.7201 49.4636C68.6905 49.4403 67.8752 48.5931 67.8938 47.5644C68.0568 39.5439 73.3819 38.4174 76.5779 38.4639C79.2568 38.5011 81.3812 39.4228 82.8907 41.2057C84.8195 43.482 85.1875 46.6334 85.1922 48.7095C87.5263 48.9376 89.8976 49.9291 91.9336 51.563C94.6916 53.7741 96.4667 56.8417 96.7974 59.9791C97.5102 66.7475 95.6979 71.8819 91.2627 75.6803C85.9469 80.2329 79.6528 79.274 77.151 78.6409C74.8961 80.4051 72.0588 81.3361 68.9607 81.3361Z" fill="#465560"/>
<path d="M94.9384 62.0413C94.0812 62.0413 93.3125 61.4501 93.1214 60.5796C92.9025 59.5788 93.5314 58.592 94.5284 58.3639C94.7986 58.2987 100.273 56.8883 100.273 49.5381C100.273 44.3292 96.3873 41.336 93.6293 40.8752C92.8699 40.7495 92.2689 40.1723 92.1105 39.4182C91.9521 38.6687 92.2735 37.896 92.9165 37.4771C92.9444 37.4584 96.2848 35.2148 96.979 31.6584C97.3843 29.5822 96.8113 27.3851 95.2692 25.1321C93.6479 22.7581 89.2359 21.5664 85.4436 22.4788C83.65 22.9117 80.5658 24.1918 80.0906 27.9111C79.9601 28.9305 79.0284 29.6521 78.0081 29.5217C76.9878 29.3914 76.2656 28.4604 76.3961 27.441C76.9458 23.1025 79.9275 19.9744 84.5724 18.8572C89.9208 17.5678 95.8469 19.3646 98.3487 23.0327C100.482 26.1562 101.251 29.3123 100.627 32.4171C100.114 34.968 98.7447 36.9836 97.4728 38.3755C100.785 40.2095 103.995 43.9987 103.995 49.5334C103.995 57.8844 98.3301 61.3337 95.3344 61.9948C95.204 62.0273 95.0689 62.0413 94.9384 62.0413Z" fill="#465560"/>
<path d="M66.6456 31.1882C63.7617 31.1882 60.8826 29.9547 58.4087 27.6365C54.4021 23.8799 52.231 18.0473 52.6037 12.033C52.9205 6.93585 55.7857 2.91862 60.4679 1.01474C64.7867 -0.740182 69.5993 -0.186241 72.4459 2.39261C74.2675 4.04047 75.0595 5.92107 75.3763 7.51772C77.6592 6.53553 81.0182 5.91176 84.7453 7.91805C88.5469 9.96624 90.9463 15.3939 90.3173 20.547C90.1915 21.5664 89.2644 22.2926 88.2441 22.1716C87.2238 22.0459 86.497 21.1195 86.6182 20.1001C87.1074 16.0735 85.1087 12.3449 82.9796 11.1998C78.577 8.83042 74.8638 12.1261 74.8266 12.1634C74.2209 12.7127 73.3264 12.8058 72.6229 12.3868C71.9194 11.9679 71.57 11.1439 71.761 10.3479C71.7843 10.2455 72.3853 7.36411 69.9487 5.153C68.197 3.56566 64.8053 3.27705 61.8796 4.46407C60.3188 5.1018 56.6476 7.13136 56.3308 12.2611C56.0327 17.107 57.8077 21.9574 60.9664 24.918C62.9744 26.7986 65.2759 27.683 67.4422 27.413C70.2376 27.0593 71.0063 25.0064 71.2159 23.8101C71.5793 21.7433 70.7594 19.5601 69.3477 18.8386C68.3088 18.3079 67.4423 18.159 66.7667 18.3917C65.8908 18.6943 65.4669 19.6067 65.4622 19.616C65.0616 20.5656 63.976 20.9985 63.0256 20.5982C62.0752 20.1978 61.6373 19.0946 62.038 18.1497C62.1405 17.9076 63.1002 15.7663 65.4622 14.9052C67.1534 14.2907 69.0309 14.5002 71.0436 15.5243C73.9181 16.9952 75.5347 20.7518 74.8871 24.4571C74.2489 28.0973 71.5747 30.6482 67.9128 31.1091C67.4842 31.1603 67.0649 31.1882 66.6456 31.1882Z" fill="#465560"/>
<path d="M55.641 71.1744C54.821 71.1744 54.071 70.6297 53.8427 69.8012C53.633 69.0238 51.844 62.0693 54.3132 57.8565C55.1937 56.353 56.5448 55.3382 58.2174 54.9192C62.238 53.9138 64.6186 55.3196 65.9091 56.6742C66.5195 57.3165 66.99 58.0613 67.3301 58.848C68.9048 57.5772 71.0386 56.7161 73.75 57.1536C77.0485 57.6796 79.4665 60.0769 80.0581 63.4052C80.5846 66.3472 79.4245 69.1727 77.1743 70.4342C76.2751 70.937 75.1384 70.6204 74.6352 69.722C74.132 68.8236 74.4489 67.6925 75.348 67.1851C76.2052 66.7056 76.6292 65.4208 76.3869 64.0569C76.2705 63.4006 75.6928 61.236 73.1583 60.831C69.4452 60.2399 67.9125 63.9592 67.7494 64.3874C67.3953 65.3277 66.3517 65.8212 65.4013 65.4953C64.4509 65.1695 63.9245 64.1547 64.218 63.1958C64.4556 62.4137 64.3205 60.4214 63.1977 59.2437C62.3172 58.3174 60.9428 58.0753 59.1119 58.5361C58.4037 58.713 57.9005 59.0947 57.5185 59.7418C56.0882 62.1763 56.9967 67.2409 57.4253 68.8236C57.6956 69.8151 57.1085 70.8392 56.1162 71.1092C55.9671 71.1511 55.8041 71.1744 55.641 71.1744Z" fill="#465560"/>
<path d="M54.425 53.9882C53.4001 53.9882 52.5662 53.1597 52.5615 52.1356C52.5335 45.4836 52.5103 40.6797 54.9235 38.2591C55.9205 37.2583 57.2437 36.7509 58.851 36.7509C63.4679 36.7509 65.1405 40.4423 65.1405 42.9281C65.1405 43.9568 64.3065 44.79 63.2769 44.79C62.252 44.79 61.4227 43.9661 61.4134 42.9467C61.3947 42.2019 61.1105 40.4795 58.851 40.4795C58.0729 40.4795 57.7561 40.703 57.5605 40.8938C56.242 42.2158 56.2653 47.0291 56.2839 52.1263C56.2886 53.155 55.4593 53.9929 54.4297 53.9975C54.4297 53.9882 54.425 53.9882 54.425 53.9882Z" fill="#465560"/>
<path d="M65.1683 99.2112C65.0658 99.2112 64.9633 99.2019 64.8608 99.1879C63.8451 99.0203 63.1603 98.0614 63.328 97.0466C63.3932 96.6603 65.0285 87.4481 75.8184 80.5402C76.685 79.9862 77.8357 80.2376 78.3948 81.1034C78.9492 81.9692 78.6976 83.119 77.8311 83.6776C68.4201 89.7011 67.0178 97.5773 67.0085 97.6564C66.8548 98.5642 66.0674 99.2112 65.1683 99.2112Z" fill="#465560"/>
<path d="M37.3922 93.8906C36.6561 93.8906 35.9619 93.4531 35.6684 92.7315C35.6311 92.6431 33.0129 86.4706 26.8678 83.8126C25.9221 83.403 25.4888 82.3091 25.8988 81.3641C26.3087 80.4192 27.4036 79.9863 28.3493 80.3959C35.9386 83.6823 38.9949 91.0139 39.1206 91.3257C39.5073 92.28 39.0508 93.3646 38.0957 93.751C37.8627 93.8487 37.6251 93.8906 37.3922 93.8906Z" fill="#465560"/>
<path d="M54.029 96.2135C54.0243 96.2135 54.0243 96.2135 54.029 96.2135C53.3861 96.2135 52.8643 95.6921 52.8643 95.0497C52.8643 94.8123 52.9015 89.2357 55.9764 84.8879C56.3491 84.3619 57.0759 84.2409 57.6023 84.6086C58.1288 84.981 58.2546 85.7072 57.8819 86.2332C55.2403 89.9665 55.1984 95.0032 55.1984 95.0544C55.189 95.6921 54.6672 96.2135 54.029 96.2135Z" fill="#465560"/>
<path d="M57.5417 86.722C55.5896 86.722 54.001 85.1346 54.001 83.1842C54.001 81.2338 55.5896 79.6464 57.5417 79.6464C59.4938 79.6464 61.0825 81.2338 61.0825 83.1842C61.0778 85.1346 59.4938 86.722 57.5417 86.722ZM57.5417 81.9786C56.8755 81.9786 56.3304 82.5232 56.3304 83.1888C56.3304 83.8545 56.8755 84.3991 57.5417 84.3991C58.2079 84.3991 58.753 83.8545 58.753 83.1888C58.7484 82.5185 58.2079 81.9786 57.5417 81.9786Z" fill="#465560"/>
<path d="M49.9708 96.2134C49.3279 96.2134 48.8061 95.6921 48.8061 95.0497C48.8061 94.9985 48.7642 89.9618 46.1226 86.2285C45.7499 85.7025 45.8757 84.9763 46.4021 84.6039C46.9286 84.2315 47.6554 84.3572 48.0234 84.8832C51.103 89.2356 51.1356 94.8123 51.1356 95.045C51.1356 95.6921 50.6138 96.2134 49.9708 96.2134Z" fill="#465560"/>
<path d="M46.4582 86.722C44.5062 86.722 42.9175 85.1346 42.9175 83.1842C42.9175 81.2338 44.5062 79.6464 46.4582 79.6464C48.4103 79.6464 49.999 81.2338 49.999 83.1842C49.999 85.1346 48.4103 86.722 46.4582 86.722ZM46.4582 81.9786C45.792 81.9786 45.2469 82.5232 45.2469 83.1888C45.2469 83.8545 45.792 84.3991 46.4582 84.3991C47.1244 84.3991 47.6695 83.8545 47.6695 83.1888C47.6695 82.5185 47.1244 81.9786 46.4582 81.9786Z" fill="#465560"/>
<path d="M46.4583 81.8901C45.7454 81.8901 45.1631 82.472 45.1631 83.1842C45.1631 83.8964 45.7454 84.4783 46.4583 84.4783C47.1711 84.4783 47.7534 83.8964 47.7534 83.1842C47.7534 82.472 47.1711 81.8901 46.4583 81.8901Z" fill="#FFEC3D"/>
<path d="M57.5417 81.8901C56.8289 81.8901 56.2466 82.472 56.2466 83.1842C56.2466 83.8964 56.8289 84.4783 57.5417 84.4783C58.2546 84.4783 58.8369 83.8964 58.8369 83.1842C58.8369 82.472 58.2546 81.8901 57.5417 81.8901Z" fill="#FFEC3D"/>
</svg>
