<svg width="30" height="30" viewBox="0 0 30 30" fill="none" xmlns="http://www.w3.org/2000/svg">
<path d="M15.0003 9.35938H15C13.8844 9.35938 12.7938 9.69019 11.8662 10.31C10.9386 10.9298 10.2157 11.8107 9.78874 12.8414C9.36182 13.8721 9.25011 15.0063 9.46776 16.1004C9.6854 17.1946 10.2226 18.1997 11.0115 18.9885C11.8003 19.7774 12.8054 20.3146 13.8996 20.5322C14.9937 20.7499 16.1279 20.6382 17.1586 20.2113C18.1893 19.7843 19.0702 19.0614 19.69 18.1338C20.3098 17.2062 20.6406 16.1156 20.6406 15V14.9997C20.6389 13.5043 20.0441 12.0707 18.9867 11.0133C17.9293 9.95585 16.4957 9.36106 15.0003 9.35938ZM20.1565 3.26562H20.1562L9.84375 3.26562L9.84346 3.26563C8.09953 3.26762 6.42759 3.96129 5.19444 5.19444C3.96129 6.42759 3.26762 8.09953 3.26562 9.84346V9.84375L3.26562 20.1562L3.26563 20.1565C3.26762 21.9005 3.96129 23.5724 5.19444 24.8056C6.42759 26.0387 8.09953 26.7324 9.84346 26.7344H9.84375H20.1562H20.1565C21.9005 26.7324 23.5724 26.0387 24.8056 24.8056C26.0387 23.5724 26.7324 21.9005 26.7344 20.1565V20.1562V9.84375V9.84346C26.7324 8.09953 26.0387 6.42759 24.8056 5.19444C23.5724 3.96129 21.9005 3.26762 20.1565 3.26562ZM22.5156 8.90625V8.90595C22.5152 8.52906 22.3653 8.16774 22.0988 7.90124C21.8323 7.63475 21.4709 7.48483 21.094 7.48438H21.0938C20.8125 7.48438 20.5376 7.56777 20.3038 7.724C20.07 7.88024 19.8877 8.10231 19.7801 8.36212C19.6725 8.62194 19.6443 8.90783 19.6992 9.18364C19.7541 9.45946 19.8895 9.71281 20.0883 9.91167L20.2651 9.73489L20.0883 9.91167C20.2872 10.1105 20.5405 10.2459 20.8164 10.3008C21.0922 10.3557 21.3781 10.3275 21.6379 10.2199C21.8977 10.1123 22.1198 9.93003 22.276 9.6962C22.4322 9.46238 22.5156 9.18747 22.5156 8.90625ZM14.9997 18.7344C14.2612 18.7343 13.5393 18.5153 12.9253 18.105C12.3112 17.6947 11.8325 17.1115 11.5499 16.4291C11.2672 15.7467 11.1933 14.9959 11.3374 14.2715C11.4815 13.5471 11.8371 12.8817 12.3594 12.3594C12.8817 11.8371 13.5471 11.4815 14.2715 11.3374C14.9959 11.1933 15.7467 11.2672 16.4291 11.5499C17.1115 11.8325 17.6947 12.3112 18.105 12.9253C18.5153 13.5393 18.7343 14.2612 18.7344 14.9997C18.7332 15.9899 18.3394 16.9391 17.6393 17.6393C16.9391 18.3394 15.9899 18.7332 14.9997 18.7344ZM24.8281 20.156C24.8267 21.3947 24.3341 22.5823 23.4582 23.4582C22.5823 24.3341 21.3947 24.8267 20.156 24.8281H9.84403C8.60532 24.8267 7.41774 24.3341 6.54185 23.4582C5.66595 22.5823 5.17326 21.3947 5.17187 20.156V9.84403C5.17326 8.60532 5.66595 7.41774 6.54185 6.54185C7.41774 5.66595 8.60532 5.17326 9.84403 5.17187H20.156C21.3947 5.17326 22.5823 5.66595 23.4582 6.54185C24.3341 7.41774 24.8267 8.60532 24.8281 9.84403V20.156Z" fill="white" stroke="white" stroke-width="0.5"/>
</svg>
