<svg width="38" height="38" viewBox="0 0 38 38" fill="none" xmlns="http://www.w3.org/2000/svg">
<rect x="0.757812" y="0.73999" width="37.2422" height="37.0019" rx="10" fill="#395185"/>
<g clip-path="url(#clip0)">
<path d="M28.0887 29.0357C28.723 29.0357 29.2373 28.5248 29.2373 27.8945V9.49938C29.2373 8.86903 28.723 8.35815 28.0887 8.35815H9.57417C8.93965 8.35815 8.42554 8.86903 8.42554 9.49938V27.8945C8.42554 28.5248 8.93965 29.0357 9.57417 29.0357H28.0887Z" fill="#395185"/>
<path d="M20.0426 28.3925V20.2467H22.8317L23.2493 17.0722H20.0426V15.0453C20.0426 14.1262 20.303 13.4998 21.6475 13.4998L23.3623 13.4991V10.6598C23.0655 10.6211 22.0477 10.5347 20.8635 10.5347C18.3912 10.5347 16.6986 12.0141 16.6986 14.731V17.0722H13.9023V20.2467H16.6986V28.3925H20.0426Z" fill="white"/>
</g>
<defs>
<clipPath id="clip0">
<rect width="20.8118" height="20.6775" fill="white" transform="translate(8.42554 8.35815)"/>
</clipPath>
</defs>
</svg>
