<svg width="21" height="21" viewBox="0 0 21 21" fill="none" xmlns="http://www.w3.org/2000/svg">
<path d="M11.5139 0.659248L13.8824 5.67764C14.0471 6.02667 14.3656 6.26852 14.734 6.3244L20.0304 7.12919C20.9582 7.27027 21.3284 8.46212 20.6573 9.14599L16.8248 13.0522C16.5584 13.3239 16.4367 13.7155 16.4997 14.0989L17.4043 19.6147C17.5629 20.5807 16.5931 21.3173 15.7634 20.8615L11.0263 18.2575C10.6969 18.0766 10.3031 18.0766 9.97368 18.2575L5.23662 20.8615C4.40695 21.3177 3.43711 20.5807 3.59568 19.6147L4.50025 14.0989C4.56333 13.7155 4.44156 13.3239 4.17522 13.0522L0.342726 9.14599C-0.328366 8.46166 0.0417858 7.26982 0.969575 7.12919L6.26603 6.3244C6.63443 6.26852 6.95289 6.02667 7.1176 5.67764L9.48613 0.659248C9.90053 -0.219749 11.099 -0.219749 11.5139 0.659248Z" fill="#1E2063"/>
</svg>
