<svg width="40" height="40" viewBox="0 0 40 40" fill="none" xmlns="http://www.w3.org/2000/svg">
<path d="M13.6835 28.3335C14.4168 26.9168 15.1002 25.2668 15.7335 23.3335H15.0002V20.0002H16.6668C17.6835 15.6668 18.3335 10.2168 18.3335 3.3335H21.6668C21.6668 10.2168 22.3335 15.6668 23.3335 20.0002H25.0002V23.3335H24.2668C24.9002 25.2668 25.5835 26.9168 26.3168 28.3335H28.3335V31.6668L31.6668 36.6668H27.6335C26.3502 33.7335 23.4168 31.6668 20.0002 31.6668C16.5835 31.6668 13.6502 33.7335 12.3668 36.6668H8.3335L11.6668 31.6668L11.6168 28.3335H13.6835ZM20.9835 23.3335H19.0168C18.5128 25.0442 17.8833 26.7154 17.1335 28.3335H22.8668C22.2002 26.8835 21.5502 25.2168 20.9835 23.3335Z" fill="#FFB34C"/>
</svg>
