<svg width="61" height="61" viewBox="0 0 61 61" fill="none" xmlns="http://www.w3.org/2000/svg">
<path d="M61.0002 30.5391C60.9841 47.3847 47.2066 61.2842 29.9528 60.994C13.5117 60.7198 -0.0642651 47.296 0.000228845 30.3617C0.0647228 13.5162 13.7987 -0.086658 30.6607 0.000415706C47.5162 0.0891019 61.018 13.8 61.0002 30.5391ZM30.5607 40.3784V40.3752C35.6154 40.3752 40.6717 40.3752 45.7265 40.3752C46.5939 40.3752 46.639 40.3285 46.639 39.4835C46.639 32.1903 46.639 24.8971 46.639 17.6038C46.639 16.825 46.5713 16.7573 45.7748 16.7573C35.6315 16.7573 25.4882 16.7573 15.345 16.7573C14.5807 16.7573 14.5098 16.8282 14.5098 17.5829C14.5098 24.8922 14.5098 32.2016 14.5098 39.5109C14.5098 40.3365 14.5533 40.3768 15.3917 40.3784C20.4513 40.3784 25.506 40.3784 30.5607 40.3784ZM30.4607 42.0441C30.4607 42.0361 30.4607 42.0264 30.4607 42.0183C29.5111 42.0183 28.563 42.0167 27.6133 42.0183C25.7962 42.0232 23.9791 42.0377 22.162 42.0377C19.974 42.0361 17.7877 42.0054 15.5997 42.0232C14.4259 42.0328 14.4259 42.0667 14.4243 43.2406C14.4227 44.0839 22.1438 31 23 31C32.9305 31.0016 26.5695 27.9984 36.5 28C37.8866 28 46.5858 44.2226 46.5697 42.8294C46.5616 42.136 46.4794 42.0457 45.8022 42.0183C45.4814 42.0054 45.1589 42.0103 44.8364 42.0119C42.9709 42.0216 41.1055 42.0409 39.24 42.0441C36.3152 42.0474 33.3888 42.0441 30.4607 42.0441Z" fill="#BBF4FF"/>
<path d="M30.5649 42.8264C24.7705 42.8264 18.9742 42.8264 13.1798 42.8264C12.2168 42.8264 12.1688 42.7802 12.1688 41.8319C12.1669 33.4529 12.1688 25.0739 12.1688 16.6949C12.1688 15.8299 12.2501 15.7485 13.1262 15.7485C24.7538 15.7485 36.3815 15.7485 48.0091 15.7485C48.9222 15.7485 48.9998 15.8243 48.9998 16.719C48.9998 25.0795 48.9998 33.44 48.9998 41.8005C48.9998 42.7691 48.9481 42.8227 47.9537 42.8227C42.1593 42.8245 36.363 42.8227 30.5686 42.8227C30.5649 42.8245 30.5649 42.8245 30.5649 42.8264ZM36.7364 24.2994C36.7345 24.2994 36.7345 24.2994 36.7327 24.2994C36.7327 25.8503 36.7327 27.3993 36.7327 28.9501C36.7327 29.2163 36.7142 29.4862 37.1097 29.4769C38.934 29.4363 40.7619 29.451 42.5825 29.3457C43.7802 29.2754 44.6859 28.3272 44.9428 27.1072C45.1886 25.9427 44.7432 24.9908 43.6638 24.3715C43.0501 24.0185 43.0464 23.9445 43.612 23.451C44.4511 22.719 44.6415 21.6506 44.1721 20.6432C43.6804 19.5878 42.7988 19.1719 41.7268 19.1349C40.2703 19.0831 38.812 19.1219 37.3537 19.0924C36.8491 19.0813 36.7271 19.3031 36.7327 19.7597C36.7474 21.2717 36.7364 22.7856 36.7364 24.2994ZM25.3638 28.9021C25.4377 28.9021 25.5116 28.9002 25.5856 28.9021C26.5134 28.9242 26.5855 28.8429 26.2195 27.9889C25.0533 25.2625 23.7946 22.5711 22.7318 19.804C22.279 18.6284 21.5859 18.4343 20.5268 18.5489C20.1442 18.5896 19.9483 18.695 19.7949 19.0591C18.9631 21.0277 18.0981 22.9833 17.2479 24.9445C16.7655 26.061 16.2923 27.1812 15.8118 28.2976C15.6491 28.6766 15.7619 28.854 16.1777 28.8577C16.5456 28.8614 16.9152 28.8799 17.283 28.9021C17.6194 28.9224 17.8375 28.8059 17.9614 28.4714C18.1222 28.0407 18.3403 27.6303 18.5048 27.2015C18.6711 26.7653 18.9391 26.5693 19.4252 26.5878C20.2551 26.6192 21.085 26.5878 21.9149 26.5971C23.521 26.6155 23.3454 26.3993 23.9314 27.8836C24.192 28.5472 24.4914 29.1165 25.3638 28.9021ZM25.2418 35.4492C25.3435 36.0444 25.3656 36.6674 25.556 37.233C26.8239 40.9669 31.3208 41.6452 33.8438 39.6988C34.9786 38.8227 34.8178 38.9798 33.951 38.0408C33.5979 37.6581 33.3577 37.5897 32.9178 37.9742C31.733 39.0094 29.9254 39.1221 28.8146 38.3069C27.3489 37.233 26.9552 35.0241 27.9662 33.5583C29.0049 32.0518 31.1674 31.6784 32.7477 32.7339C33.6885 33.3624 33.6885 33.3624 34.45 32.464C34.877 31.9612 34.8751 31.8152 34.3594 31.3938C33.5628 30.7413 32.6756 30.3254 31.6369 30.1461C28.3192 29.573 25.1457 32.0999 25.2418 35.4492Z" fill="#1BA9B4"/>
<path d="M30.4497 44.7353C33.8043 44.7353 37.1608 44.7409 40.5155 44.7335C42.654 44.7298 44.7925 44.7076 46.9309 44.6965C47.3006 44.6947 47.6703 44.6891 48.0381 44.7039C48.8144 44.7353 48.9086 44.8407 48.9179 45.6337C48.9363 47.2289 48.9363 47.2289 47.3468 47.2289C35.9631 47.227 24.5776 47.227 13.194 47.2234C12.2144 47.2234 12.0684 47.0736 12.0684 46.105C12.0702 44.7594 12.0702 44.7206 13.4158 44.7095C15.9221 44.6891 18.4302 44.7261 20.9383 44.7261C23.0214 44.728 25.1044 44.7113 27.1874 44.7039C28.2761 44.7002 29.3629 44.7039 30.4515 44.7039C30.4497 44.715 30.4497 44.7243 30.4497 44.7353Z" fill="#1BA9B4"/>
<path d="M36.7362 24.2994C36.7362 22.7856 36.7473 21.2735 36.7306 19.7597C36.7251 19.305 36.8489 19.0831 37.3517 19.0924C38.81 19.122 40.2683 19.0831 41.7247 19.1349C42.7986 19.1737 43.6784 19.5896 44.17 20.6432C44.6395 21.6506 44.4491 22.719 43.61 23.451C43.0444 23.9445 43.0481 24.0185 43.6618 24.3715C44.7412 24.9908 45.1866 25.9427 44.9408 27.1072C44.6839 28.3272 43.7782 29.2755 42.5805 29.3457C40.7599 29.4529 38.932 29.4363 37.1077 29.4769C36.7122 29.4862 36.7306 29.2145 36.7306 28.9501C36.7306 27.3993 36.7306 25.8503 36.7306 24.2994C36.7343 24.2994 36.7343 24.2994 36.7362 24.2994ZM40.4051 25.0129C40.4032 25.0259 40.4032 25.037 40.4014 25.0499C40.126 25.0499 39.8487 25.0573 39.5733 25.0481C39.0835 25.0296 38.8636 25.2643 38.8765 25.7486C38.8876 26.1719 38.8747 26.5952 38.8821 27.0185C38.8932 27.6082 39.0429 27.7745 39.6454 27.7708C40.3053 27.7653 40.9688 27.7339 41.6268 27.6692C42.3957 27.5934 42.708 27.2736 42.7302 26.6211C42.7616 25.7579 42.4678 25.3087 41.7155 25.1627C41.2848 25.0776 40.8431 25.0592 40.4051 25.0129ZM38.8765 22.1774C38.8765 22.3253 38.8747 22.4713 38.8765 22.6192C38.8821 23.3641 39.0466 23.5508 39.7822 23.5157C40.2553 23.4917 40.7359 23.427 41.1924 23.305C41.9262 23.1072 42.1036 22.8318 42.0778 22.1238C42.05 21.4122 41.856 21.1719 41.1074 21.0203C40.7858 20.9556 40.4513 20.939 40.1241 20.9353C38.8821 20.9205 38.8821 20.926 38.8765 22.1774Z" fill="#BBF4FF"/>
<path d="M25.3636 28.9024C24.4912 29.1168 24.1918 28.5475 23.9312 27.8839C23.3452 26.3996 23.5208 26.6159 21.9147 26.5974C21.0848 26.5881 20.253 26.6195 19.425 26.5881C18.9408 26.5696 18.6709 26.7656 18.5046 27.2018C18.3401 27.6325 18.122 28.041 17.9612 28.4717C17.8373 28.8063 17.6192 28.9246 17.2828 28.9024C16.915 28.8802 16.5454 28.8617 16.1775 28.858C15.7617 28.8543 15.6489 28.6769 15.8116 28.2979C16.2921 27.1815 16.7653 26.0613 17.2477 24.9449C18.0961 22.9837 18.9629 21.028 19.7947 19.0594C19.9481 18.6953 20.144 18.5899 20.5266 18.5492C21.5875 18.4346 22.2806 18.6287 22.7316 19.8043C23.7944 22.5715 25.0531 25.2628 26.2193 27.9892C26.5835 28.8414 26.5132 28.9246 25.5854 28.9024C25.5115 28.9005 25.4375 28.9024 25.3636 28.9024ZM21.0256 24.7489C21.2641 24.7489 21.5062 24.7693 21.7409 24.7452C22.1254 24.7046 22.3268 24.4717 22.1901 24.0983C21.9646 23.479 21.715 22.8635 21.4249 22.272C21.2271 21.869 20.8334 21.8931 20.6301 22.296C20.4397 22.6731 20.2752 23.0631 20.1163 23.4532C19.6376 24.6288 19.7374 24.7711 21.0256 24.7489Z" fill="#BBF4FF"/>
<path d="M25.2424 35.4493C25.1463 32.0999 28.3179 29.5731 31.6375 30.1461C32.6762 30.3254 33.5634 30.7431 34.36 31.3938C34.8757 31.8152 34.8775 31.9613 34.4506 32.464C33.6891 33.3624 33.6891 33.3624 32.7483 32.7339C31.168 31.6785 29.0055 32.05 27.9668 33.5583C26.9557 35.0241 27.3513 37.233 28.8151 38.307C29.926 39.1221 31.7336 39.0094 32.9183 37.9743C33.3582 37.5898 33.5985 37.6582 33.9515 38.0408C34.8184 38.978 34.9792 38.8227 33.8443 39.6989C31.3214 41.6453 26.8245 40.9669 25.5566 37.233C25.3662 36.6674 25.344 36.0445 25.2424 35.4493Z" fill="#BBF4FF"/>
<path d="M40.4059 25.0134C40.8439 25.0615 41.2857 25.0781 41.7163 25.1632C42.4667 25.3092 42.7625 25.7565 42.7311 26.6216C42.707 27.2741 42.3965 27.5939 41.6276 27.6696C40.9696 27.7343 40.3079 27.7658 39.6462 27.7713C39.0437 27.7769 38.8958 27.6105 38.8829 27.019C38.8755 26.5957 38.8866 26.1724 38.8774 25.7491C38.8663 25.2648 39.0844 25.0301 39.5742 25.0485C39.8496 25.0578 40.1268 25.0504 40.4022 25.0504C40.404 25.0375 40.4059 25.0245 40.4059 25.0134Z" fill="#1BA9B4"/>
<path d="M38.8783 22.1781C38.882 20.9285 38.882 20.923 40.1259 20.9359C40.4549 20.9396 40.7895 20.9563 41.1092 21.021C41.8578 21.1725 42.0537 21.411 42.0796 22.1245C42.1073 22.8306 41.928 23.1079 41.1943 23.3056C40.7377 23.4276 40.2572 23.4923 39.784 23.5164C39.0484 23.5533 38.8839 23.3666 38.8783 22.6199C38.8765 22.472 38.8765 22.3241 38.8783 22.1781Z" fill="#1BA9B4"/>
<path d="M21.0268 24.7489C19.7385 24.7711 19.6387 24.6306 20.1174 23.4513C20.2764 23.0613 20.4409 22.6694 20.6312 22.2942C20.8345 21.8912 21.2301 21.8672 21.426 22.2701C21.7162 22.8616 21.9657 23.4772 22.1912 24.0964C22.328 24.4698 22.1265 24.7027 21.7421 24.7434C21.5073 24.7692 21.267 24.7489 21.0268 24.7489Z" fill="#1BA9B4"/>
</svg>
