<svg width="61" height="61" viewBox="0 0 61 61" fill="none" xmlns="http://www.w3.org/2000/svg">
<circle cx="30.5" cy="30.5" r="30.5" fill="#EFECFF"/>
<path d="M27.6392 39.0804C27.3968 39.9074 27.1532 40.7344 26.9107 41.5613C26.0312 44.5583 25.1561 47.5564 24.272 50.5523C23.972 51.5697 23.0677 52.1522 22.1509 51.9438C21.0548 51.6936 20.4785 50.7213 20.7932 49.6307C21.4923 47.2128 22.1982 44.7972 22.9019 42.3804C23.5232 40.2442 24.1491 38.1092 24.7625 35.9707C24.8302 35.7364 24.8494 35.484 24.8629 35.2384C24.9509 33.6441 25.0309 32.0487 25.1132 30.4545C25.1177 30.3609 25.1144 30.2663 25.1144 30.1717C25.0738 30.1559 25.032 30.1401 24.9915 30.1243C24.7298 30.5964 24.4096 31.0471 24.2179 31.5462C23.7375 32.7935 23.3236 34.0666 22.8681 35.324C22.6064 36.0451 21.9174 36.4507 21.2262 36.3234C20.3116 36.1544 19.7805 35.253 20.0872 34.3517C20.3917 33.4582 20.7751 32.5895 21.0333 31.6837C21.4517 30.2179 22.1768 28.9334 23.1184 27.7504C23.5097 27.2592 23.8356 26.715 24.2393 26.2339C24.7456 25.63 25.4267 25.2728 26.2138 25.2683C28.1478 25.2559 30.084 25.2525 32.0157 25.3325C32.8265 25.3663 33.6271 25.6244 34.4345 25.7742C34.5958 25.8046 34.7615 25.8069 35.0209 25.8317C34.8878 25.1962 34.8033 24.6092 34.6386 24.0459C34.3781 23.1513 34.0658 22.2713 33.7726 21.3869C33.5606 20.7492 33.7534 20.0867 34.2688 19.6946C34.7706 19.3138 35.4303 19.2845 35.9321 19.6653C36.1305 19.8163 36.3313 20.0236 36.4226 20.2489C37.1612 22.0652 37.7837 23.9186 37.8987 25.897C37.9224 26.3083 37.901 26.733 37.822 27.1375C37.636 28.0873 36.9718 28.636 35.9636 28.7701C34.9758 28.9008 34.0128 28.7374 33.0486 28.5616C32.7193 28.5019 32.3901 28.4377 32.0191 28.3678C31.9931 28.6382 31.9683 28.8794 31.9469 29.1205C31.7529 31.4065 31.4879 33.6881 31.3831 35.9775C31.2353 39.2009 31.2049 42.43 31.126 45.6568C31.0899 47.1632 31.0605 48.6707 31.0233 50.1771C31.0053 50.9117 30.6918 51.4818 30.0186 51.8063C29.4018 52.1037 28.7883 52.0598 28.229 51.661C27.6708 51.2632 27.4588 50.6931 27.4757 50.0182C27.5219 48.1288 27.5591 46.2405 27.602 44.351C27.6392 42.6982 27.6798 41.0453 27.7181 39.3925C27.7204 39.2922 27.7181 39.1908 27.7181 39.0905C27.6911 39.0871 27.6651 39.0838 27.6392 39.0804Z" fill="#6C15FA"/>
<path d="M38.4655 18.4169C37.9682 18.3797 37.5927 18.3876 37.2318 18.32C36.1854 18.1228 35.4479 17.2383 35.4343 16.1736C35.4219 15.1619 35.4422 14.149 35.4298 13.1361C35.4163 12.095 36.3996 10.9616 37.5904 11.001C39.3 11.0573 41.0129 11.0506 42.7224 11.0033C43.8749 10.9717 44.8007 12.0184 44.8233 12.9671C44.8492 14.1028 44.8673 15.2407 44.821 16.3742C44.7782 17.4445 43.8884 18.3031 42.8138 18.3988C42.5116 18.4259 42.2048 18.4383 41.9038 18.4157C41.5677 18.3909 41.3467 18.5059 41.1347 18.7729C40.5652 19.4895 39.9134 20.1227 39.1308 20.6128C38.8478 20.7908 38.5783 20.8606 38.2941 20.6297C38.0189 20.4066 38.0539 20.1373 38.1374 19.8331C38.2614 19.3757 38.3516 18.9081 38.4655 18.4169ZM40.1683 16.1781C40.1683 16.1793 40.1683 16.1793 40.1683 16.1804C40.8088 16.1804 41.4493 16.1826 42.0898 16.1793C42.4811 16.177 42.7191 15.981 42.7157 15.6756C42.7123 15.3973 42.5003 15.2261 42.1191 15.2238C40.8268 15.2182 39.5357 15.2182 38.2434 15.2238C37.8498 15.2249 37.6344 15.4063 37.6367 15.7015C37.6389 15.9979 37.8566 16.1736 38.2479 16.177C38.8872 16.1826 39.5278 16.1781 40.1683 16.1781ZM40.1615 13.9788C40.1615 13.9777 40.1615 13.9777 40.1615 13.9766C40.8246 13.9766 41.4888 13.9957 42.1507 13.9631C42.3165 13.9552 42.533 13.8121 42.6164 13.6679C42.6818 13.5552 42.6311 13.2972 42.5341 13.1913C42.4326 13.0797 42.2172 13.0302 42.0504 13.0279C40.7806 13.0155 39.5097 13.02 38.24 13.0223C38.1396 13.0223 38.0043 13.0009 37.9456 13.0549C37.8092 13.18 37.6299 13.3389 37.6175 13.4955C37.6073 13.6307 37.7799 13.8121 37.9152 13.9169C38.0065 13.9878 38.1734 13.9743 38.3065 13.9755C38.9245 13.9811 39.5435 13.9788 40.1615 13.9788Z" fill="#6C15FA"/>
<path d="M32.6103 20.446C32.6092 22.5698 30.8918 24.2936 28.7729 24.297C26.6585 24.3004 24.9287 22.5754 24.9219 20.4573C24.9151 18.3402 26.6371 16.6164 28.7616 16.6141C30.8895 16.6119 32.6114 18.3256 32.6103 20.446Z" fill="#6C15FA"/>
</svg>
