<svg width="27" height="29" viewBox="0 0 27 29" fill="none" xmlns="http://www.w3.org/2000/svg">
<path d="M14.198 3.45178C12.7082 2.36905 10.5739 3.34695 10.492 5.14999L10.373 7.73476H13.909C14.3189 7.73476 14.712 7.89253 15.0019 8.17338C15.2917 8.45422 15.4545 8.83513 15.4545 9.2323C15.4545 9.62948 15.2917 10.0104 15.0019 10.2912C14.712 10.5721 14.3189 10.7298 13.909 10.7298H10.2354L9.62806 23.9831C9.42714 28.3724 4.07515 30.5873 0.662726 27.6955L0.528269 27.5817C0.375444 27.4522 0.250439 27.2948 0.160391 27.1185C0.0703426 26.9422 0.017015 26.7504 0.00345325 26.5541C-0.0101086 26.3579 0.0163608 26.1609 0.0813499 25.9745C0.146339 25.7882 0.248575 25.616 0.382221 25.4679C0.515868 25.3199 0.678306 25.1987 0.860263 25.1115C1.04222 25.0242 1.24013 24.9725 1.4427 24.9594C1.64526 24.9463 1.84852 24.9719 2.04085 25.0349C2.23319 25.0979 2.41084 25.1969 2.56367 25.3264L2.69812 25.4402C4.16015 26.6817 6.45364 25.7308 6.54019 23.8498L7.14293 10.7298H4.63616C4.22627 10.7298 3.83317 10.5721 3.54334 10.2912C3.2535 10.0104 3.09068 9.62948 3.09068 9.2323C3.09068 8.83513 3.2535 8.45422 3.54334 8.17338C3.83317 7.89253 4.22627 7.73476 4.63616 7.73476H7.27893L7.40257 5.01671C7.5973 0.808608 12.5753 -1.47066 16.0526 1.0557L16.3818 1.29531C16.5442 1.41331 16.681 1.56114 16.7844 1.73036C16.8878 1.89958 16.9558 2.08688 16.9845 2.28156C17.0132 2.47625 17.002 2.6745 16.9516 2.86501C16.9013 3.05552 16.8127 3.23455 16.6909 3.39187C16.5691 3.5492 16.4166 3.68175 16.2419 3.78195C16.0673 3.88214 15.874 3.94803 15.6731 3.97584C15.4722 4.00365 15.2676 3.99285 15.071 3.94404C14.8744 3.89523 14.6896 3.80938 14.5272 3.69138L14.198 3.45178Z" fill="#FFB34C"/>
<path d="M15.8973 14.9979C15.9811 14.9507 16.0734 14.9216 16.1685 14.9124C16.2636 14.9031 16.3596 14.914 16.4505 14.9443C16.5414 14.9746 16.6253 15.0236 16.697 15.0885C16.7687 15.1533 16.8267 15.2325 16.8675 15.3212L18.0056 17.8024L13.393 22.5363C13.138 22.8072 12.9969 23.1702 13.0001 23.5468C13.0032 23.9235 13.1505 24.2839 13.41 24.5503C13.6696 24.8166 14.0207 24.9677 14.3877 24.971C14.7548 24.9743 15.1084 24.8295 15.3724 24.5678L19.2724 20.5651L20.3643 22.9457C20.5914 23.441 20.9258 23.8764 21.3419 24.2188C21.758 24.5611 22.2448 24.8014 22.7652 24.9211C23.2856 25.0409 23.8258 25.037 24.3445 24.9098C24.8632 24.7826 25.3467 24.5353 25.7581 24.187L26.472 23.5836C26.6174 23.4648 26.7383 23.3175 26.8276 23.1503C26.917 22.983 26.973 22.7992 26.9924 22.6095C27.0118 22.4198 26.9941 22.228 26.9406 22.0454C26.887 21.8628 26.7985 21.6929 26.6803 21.5457C26.5621 21.3986 26.4165 21.277 26.252 21.1882C26.0876 21.0994 25.9075 21.0451 25.7224 21.0284C25.5372 21.0117 25.3507 21.0331 25.1737 21.0912C24.9967 21.1493 24.8327 21.243 24.6914 21.3668L23.9774 21.9702C23.8952 22.04 23.7985 22.0896 23.6948 22.1152C23.591 22.1408 23.483 22.1417 23.3788 22.1179C23.2747 22.094 23.1772 22.0461 23.0939 21.9776C23.0106 21.9092 22.9436 21.8222 22.8981 21.7231L21.3765 18.4058L25.1715 14.5109C25.3052 14.3784 25.4119 14.2198 25.4852 14.0446C25.5586 13.8693 25.5972 13.6807 25.5988 13.49C25.6004 13.2992 25.565 13.11 25.4946 12.9335C25.4242 12.7569 25.3203 12.5965 25.1889 12.4616C25.0574 12.3267 24.9011 12.22 24.7291 12.1478C24.557 12.0756 24.3727 12.0392 24.1868 12.0409C24.001 12.0425 23.8173 12.0821 23.6465 12.1574C23.4757 12.2327 23.3212 12.3422 23.1921 12.4794L20.1096 15.643L19.4012 14.0986C19.1976 13.6545 18.9075 13.258 18.5488 12.9335C18.1901 12.609 17.7704 12.3634 17.3157 12.2118C16.8609 12.0602 16.3806 12.0059 15.9046 12.0521C15.4286 12.0984 14.9668 12.2443 14.5479 12.4808L13.7079 12.955C13.3894 13.1423 13.1554 13.4504 13.0562 13.8131C12.9569 14.1758 13.0005 14.564 13.1774 14.8941C13.3544 15.2242 13.6506 15.4697 14.0022 15.5778C14.3539 15.6859 14.7328 15.6479 15.0574 15.472L15.8973 14.9979Z" fill="#FFB34C"/>
</svg>
