<svg width="496" height="274" viewBox="0 0 496 274" fill="none" xmlns="http://www.w3.org/2000/svg">
<path d="M382.14 164.45C382.88 164.447 383.606 164.255 384.25 163.89C383.344 166.235 381.841 168.304 379.89 169.89C379.778 169.982 379.686 170.095 379.618 170.223C379.55 170.35 379.508 170.49 379.494 170.634C379.48 170.778 379.494 170.923 379.537 171.061C379.579 171.2 379.648 171.328 379.74 171.44C379.832 171.552 379.945 171.644 380.072 171.712C380.2 171.78 380.34 171.822 380.484 171.836C380.628 171.85 380.773 171.835 380.911 171.793C381.05 171.751 381.178 171.682 381.29 171.59C385.29 168.34 387.07 163.84 387.07 161.05C387.063 160.063 386.769 159.1 386.224 158.278C385.679 157.456 384.906 156.81 384 156.42C383.413 156.136 382.771 155.986 382.12 155.98C381.546 155.952 380.973 156.041 380.435 156.241C379.897 156.441 379.405 156.749 378.99 157.145C378.574 157.541 378.243 158.017 378.017 158.545C377.791 159.073 377.674 159.641 377.674 160.215C377.674 160.789 377.791 161.357 378.017 161.885C378.243 162.413 378.574 162.889 378.99 163.285C379.405 163.681 379.897 163.988 380.435 164.189C380.973 164.389 381.546 164.478 382.12 164.45H382.14Z" fill="#1E1E1E"/>
<path d="M371 164.45C371.74 164.448 372.467 164.255 373.11 163.89C372.204 166.233 370.705 168.301 368.76 169.89C368.638 169.978 368.536 170.089 368.459 170.218C368.382 170.347 368.332 170.49 368.313 170.639C368.293 170.788 368.304 170.939 368.345 171.084C368.387 171.228 368.457 171.362 368.552 171.479C368.647 171.595 368.765 171.69 368.898 171.759C369.031 171.828 369.177 171.869 369.327 171.88C369.477 171.89 369.627 171.87 369.769 171.82C369.91 171.77 370.04 171.692 370.15 171.59C374.15 168.34 375.93 163.84 375.93 161.05C375.925 160.075 375.64 159.121 375.108 158.304C374.576 157.486 373.82 156.839 372.93 156.44C372.329 156.148 371.669 155.997 371 156C370.427 155.972 369.854 156.061 369.315 156.261C368.777 156.461 368.286 156.769 367.87 157.165C367.454 157.561 367.123 158.037 366.897 158.565C366.671 159.093 366.554 159.661 366.554 160.235C366.554 160.809 366.671 161.377 366.897 161.905C367.123 162.433 367.454 162.909 367.87 163.305C368.286 163.701 368.777 164.008 369.315 164.209C369.854 164.409 370.427 164.498 371 164.47V164.45Z" fill="#1E1E1E"/>
<g clip-path="url(#clip0)">
<path d="M29.2237 4.95368L27.6012 2.50458C16.3684 9.9131 10.1279 18.9135 10.1279 26.3221C10.1279 33.4857 15.4947 36.8532 20.0502 36.8532C25.7914 36.8532 29.8477 32.0775 29.8477 27.0568C29.8477 22.8321 27.1019 19.2197 23.4201 17.8727C22.3592 17.5053 21.3607 17.1992 21.3607 15.4236C21.3607 13.1582 23.0457 9.79065 29.2237 4.95368ZM53.9983 4.95368L52.3757 2.50458C41.2678 9.9131 34.9025 18.9135 34.9025 26.3221C34.9025 33.4857 40.3941 36.8532 44.9496 36.8532C50.7532 36.8532 54.8719 32.0775 54.8719 27.0568C54.8719 22.8321 52.0637 19.2197 48.2571 17.8727C47.1962 17.5053 46.2601 17.1992 46.2601 15.4236C46.2601 13.1582 48.0074 9.79065 53.9983 4.95368Z" stroke="#FBA229" stroke-width="2.5" stroke-linecap="round" stroke-linejoin="round"/>
</g>
<line x1="9.5" y1="76.5" x2="154.5" y2="76.5" stroke="#232323" stroke-width="5" stroke-linecap="round"/>
<path d="M46.7455 136.456H37.4335L35.8335 141H32.0255L39.9935 118.728H44.2175L52.1855 141H48.3455L46.7455 136.456ZM45.7215 133.48L42.1055 123.144L38.4575 133.48H45.7215ZM64.546 123.08C65.9327 123.08 67.17 123.368 68.258 123.944C69.3673 124.52 70.2313 125.373 70.85 126.504C71.4687 127.635 71.778 129 71.778 130.6V141H68.162V131.144C68.162 129.565 67.7673 128.36 66.978 127.528C66.1887 126.675 65.1113 126.248 63.746 126.248C62.3807 126.248 61.2927 126.675 60.482 127.528C59.6927 128.36 59.298 129.565 59.298 131.144V141H55.65V123.368H59.298V125.384C59.8953 124.659 60.6527 124.093 61.57 123.688C62.5087 123.283 63.5007 123.08 64.546 123.08ZM86.5998 121.032C85.9384 121.032 85.3838 120.808 84.9358 120.36C84.4878 119.912 84.2638 119.357 84.2638 118.696C84.2638 118.035 84.4878 117.48 84.9358 117.032C85.3838 116.584 85.9384 116.36 86.5998 116.36C87.2398 116.36 87.7838 116.584 88.2318 117.032C88.6798 117.48 88.9038 118.035 88.9038 118.696C88.9038 119.357 88.6798 119.912 88.2318 120.36C87.7838 120.808 87.2398 121.032 86.5998 121.032ZM88.3918 123.368V141H84.7438V123.368H88.3918ZM102.077 123.08C103.464 123.08 104.701 123.368 105.789 123.944C106.899 124.52 107.763 125.373 108.381 126.504C109 127.635 109.309 129 109.309 130.6V141H105.693V131.144C105.693 129.565 105.299 128.36 104.509 127.528C103.72 126.675 102.643 126.248 101.277 126.248C99.9119 126.248 98.8239 126.675 98.0133 127.528C97.2239 128.36 96.8293 129.565 96.8293 131.144V141H93.1813V123.368H96.8293V125.384C97.4266 124.659 98.1839 124.093 99.1013 123.688C100.04 123.283 101.032 123.08 102.077 123.08ZM120.779 137.736L125.771 123.368H129.642L122.923 141H118.571L111.883 123.368H115.786L120.779 137.736ZM148.56 131.752C148.56 132.413 148.517 133.011 148.432 133.544H134.96C135.067 134.952 135.589 136.083 136.528 136.936C137.467 137.789 138.619 138.216 139.984 138.216C141.947 138.216 143.333 137.395 144.144 135.752H148.08C147.547 137.373 146.576 138.707 145.168 139.752C143.781 140.776 142.053 141.288 139.984 141.288C138.299 141.288 136.784 140.915 135.44 140.168C134.117 139.4 133.072 138.333 132.304 136.968C131.557 135.581 131.184 133.981 131.184 132.168C131.184 130.355 131.547 128.765 132.272 127.4C133.019 126.013 134.053 124.947 135.376 124.2C136.72 123.453 138.256 123.08 139.984 123.08C141.648 123.08 143.131 123.443 144.432 124.168C145.733 124.893 146.747 125.917 147.472 127.24C148.197 128.541 148.56 130.045 148.56 131.752ZM144.752 130.6C144.731 129.256 144.251 128.179 143.312 127.368C142.373 126.557 141.211 126.152 139.824 126.152C138.565 126.152 137.488 126.557 136.592 127.368C135.696 128.157 135.163 129.235 134.992 130.6H144.752ZM158.55 141.288C157.163 141.288 155.915 141.043 154.806 140.552C153.718 140.04 152.854 139.357 152.214 138.504C151.574 137.629 151.233 136.659 151.19 135.592H154.966C155.03 136.339 155.382 136.968 156.022 137.48C156.683 137.971 157.505 138.216 158.486 138.216C159.51 138.216 160.299 138.024 160.854 137.64C161.43 137.235 161.718 136.723 161.718 136.104C161.718 135.443 161.398 134.952 160.758 134.632C160.139 134.312 159.147 133.96 157.782 133.576C156.459 133.213 155.382 132.861 154.55 132.52C153.718 132.179 152.993 131.656 152.374 130.952C151.777 130.248 151.478 129.32 151.478 128.168C151.478 127.229 151.755 126.376 152.31 125.608C152.865 124.819 153.654 124.2 154.678 123.752C155.723 123.304 156.918 123.08 158.262 123.08C160.267 123.08 161.878 123.592 163.094 124.616C164.331 125.619 164.993 126.995 165.078 128.744H161.43C161.366 127.955 161.046 127.325 160.47 126.856C159.894 126.387 159.115 126.152 158.134 126.152C157.174 126.152 156.438 126.333 155.926 126.696C155.414 127.059 155.158 127.539 155.158 128.136C155.158 128.605 155.329 129 155.67 129.32C156.011 129.64 156.427 129.896 156.918 130.088C157.409 130.259 158.134 130.483 159.094 130.76C160.374 131.101 161.419 131.453 162.23 131.816C163.062 132.157 163.777 132.669 164.374 133.352C164.971 134.035 165.281 134.941 165.302 136.072C165.302 137.075 165.025 137.971 164.47 138.76C163.915 139.549 163.126 140.168 162.102 140.616C161.099 141.064 159.915 141.288 158.55 141.288ZM173.5 126.344V136.104C173.5 136.765 173.649 137.245 173.948 137.544C174.268 137.821 174.801 137.96 175.548 137.96H177.788V141H174.908C173.265 141 172.006 140.616 171.132 139.848C170.257 139.08 169.82 137.832 169.82 136.104V126.344H167.74V123.368H169.82V118.984H173.5V123.368H177.788V126.344H173.5ZM202.494 123.08C203.881 123.08 205.118 123.368 206.206 123.944C207.315 124.52 208.179 125.373 208.798 126.504C209.438 127.635 209.758 129 209.758 130.6V141H206.142V131.144C206.142 129.565 205.747 128.36 204.958 127.528C204.169 126.675 203.091 126.248 201.726 126.248C200.361 126.248 199.273 126.675 198.462 127.528C197.673 128.36 197.278 129.565 197.278 131.144V141H193.662V131.144C193.662 129.565 193.267 128.36 192.478 127.528C191.689 126.675 190.611 126.248 189.246 126.248C187.881 126.248 186.793 126.675 185.982 127.528C185.193 128.36 184.798 129.565 184.798 131.144V141H181.15V123.368H184.798V125.384C185.395 124.659 186.153 124.093 187.07 123.688C187.987 123.283 188.969 123.08 190.014 123.08C191.422 123.08 192.681 123.379 193.79 123.976C194.899 124.573 195.753 125.437 196.35 126.568C196.883 125.501 197.715 124.659 198.846 124.04C199.977 123.4 201.193 123.08 202.494 123.08ZM230.56 131.752C230.56 132.413 230.517 133.011 230.432 133.544H216.96C217.067 134.952 217.589 136.083 218.528 136.936C219.467 137.789 220.619 138.216 221.984 138.216C223.947 138.216 225.333 137.395 226.144 135.752H230.08C229.547 137.373 228.576 138.707 227.168 139.752C225.781 140.776 224.053 141.288 221.984 141.288C220.299 141.288 218.784 140.915 217.44 140.168C216.117 139.4 215.072 138.333 214.304 136.968C213.557 135.581 213.184 133.981 213.184 132.168C213.184 130.355 213.547 128.765 214.272 127.4C215.019 126.013 216.053 124.947 217.376 124.2C218.72 123.453 220.256 123.08 221.984 123.08C223.648 123.08 225.131 123.443 226.432 124.168C227.733 124.893 228.747 125.917 229.472 127.24C230.197 128.541 230.56 130.045 230.56 131.752ZM226.752 130.6C226.731 129.256 226.251 128.179 225.312 127.368C224.373 126.557 223.211 126.152 221.824 126.152C220.565 126.152 219.488 126.557 218.592 127.368C217.696 128.157 217.163 129.235 216.992 130.6H226.752ZM243.046 123.08C244.433 123.08 245.67 123.368 246.758 123.944C247.867 124.52 248.731 125.373 249.35 126.504C249.969 127.635 250.278 129 250.278 130.6V141H246.662V131.144C246.662 129.565 246.267 128.36 245.478 127.528C244.689 126.675 243.611 126.248 242.246 126.248C240.881 126.248 239.793 126.675 238.982 127.528C238.193 128.36 237.798 129.565 237.798 131.144V141H234.15V123.368H237.798V125.384C238.395 124.659 239.153 124.093 240.07 123.688C241.009 123.283 242.001 123.08 243.046 123.08ZM259.187 126.344V136.104C259.187 136.765 259.337 137.245 259.635 137.544C259.955 137.821 260.489 137.96 261.235 137.96H263.475V141H260.595C258.953 141 257.694 140.616 256.819 139.848C255.945 139.08 255.507 137.832 255.507 136.104V126.344H253.427V123.368H255.507V118.984H259.187V123.368H263.475V126.344H259.187ZM277.006 121.032C276.345 121.032 275.79 120.808 275.342 120.36C274.894 119.912 274.67 119.357 274.67 118.696C274.67 118.035 274.894 117.48 275.342 117.032C275.79 116.584 276.345 116.36 277.006 116.36C277.646 116.36 278.19 116.584 278.638 117.032C279.086 117.48 279.31 118.035 279.31 118.696C279.31 119.357 279.086 119.912 278.638 120.36C278.19 120.808 277.646 121.032 277.006 121.032ZM278.798 123.368V141H275.15V123.368H278.798ZM292.484 123.08C293.87 123.08 295.108 123.368 296.196 123.944C297.305 124.52 298.169 125.373 298.788 126.504C299.406 127.635 299.716 129 299.716 130.6V141H296.1V131.144C296.1 129.565 295.705 128.36 294.916 127.528C294.126 126.675 293.049 126.248 291.684 126.248C290.318 126.248 289.23 126.675 288.42 127.528C287.63 128.36 287.236 129.565 287.236 131.144V141H283.588V123.368H287.236V125.384C287.833 124.659 288.59 124.093 289.508 123.688C290.446 123.283 291.438 123.08 292.484 123.08ZM319.657 132.2L327.785 141H322.857L316.329 133.416V141H312.681V117.32H316.329V131.08L322.729 123.368H327.785L319.657 132.2ZM339.296 123.08C340.683 123.08 341.92 123.368 343.008 123.944C344.117 124.52 344.981 125.373 345.6 126.504C346.219 127.635 346.528 129 346.528 130.6V141H342.912V131.144C342.912 129.565 342.517 128.36 341.728 127.528C340.939 126.675 339.861 126.248 338.496 126.248C337.131 126.248 336.043 126.675 335.232 127.528C334.443 128.36 334.048 129.565 334.048 131.144V141H330.4V123.368H334.048V125.384C334.645 124.659 335.403 124.093 336.32 123.688C337.259 123.283 338.251 123.08 339.296 123.08ZM358.829 141.288C357.165 141.288 355.661 140.915 354.317 140.168C352.973 139.4 351.917 138.333 351.149 136.968C350.381 135.581 349.997 133.981 349.997 132.168C349.997 130.376 350.392 128.787 351.181 127.4C351.971 126.013 353.048 124.947 354.413 124.2C355.779 123.453 357.304 123.08 358.989 123.08C360.675 123.08 362.2 123.453 363.565 124.2C364.931 124.947 366.008 126.013 366.797 127.4C367.587 128.787 367.981 130.376 367.981 132.168C367.981 133.96 367.576 135.549 366.765 136.936C365.955 138.323 364.845 139.4 363.437 140.168C362.051 140.915 360.515 141.288 358.829 141.288ZM358.829 138.12C359.768 138.12 360.643 137.896 361.453 137.448C362.285 137 362.957 136.328 363.469 135.432C363.981 134.536 364.237 133.448 364.237 132.168C364.237 130.888 363.992 129.811 363.501 128.936C363.011 128.04 362.36 127.368 361.549 126.92C360.739 126.472 359.864 126.248 358.925 126.248C357.987 126.248 357.112 126.472 356.301 126.92C355.512 127.368 354.883 128.04 354.413 128.936C353.944 129.811 353.709 130.888 353.709 132.168C353.709 134.067 354.189 135.539 355.149 136.584C356.131 137.608 357.357 138.12 358.829 138.12ZM395.268 123.368L389.796 141H385.956L382.404 127.976L378.852 141H375.012L369.508 123.368H373.22L376.9 137.544L380.644 123.368H384.452L388.036 137.48L391.684 123.368H395.268ZM401.642 117.32V141H397.994V117.32H401.642ZM422.591 131.752C422.591 132.413 422.549 133.011 422.463 133.544H408.991C409.098 134.952 409.621 136.083 410.559 136.936C411.498 137.789 412.65 138.216 414.015 138.216C415.978 138.216 417.365 137.395 418.175 135.752H422.111C421.578 137.373 420.607 138.707 419.199 139.752C417.813 140.776 416.085 141.288 414.015 141.288C412.33 141.288 410.815 140.915 409.471 140.168C408.149 139.4 407.103 138.333 406.335 136.968C405.589 135.581 405.215 133.981 405.215 132.168C405.215 130.355 405.578 128.765 406.303 127.4C407.05 126.013 408.085 124.947 409.407 124.2C410.751 123.453 412.287 123.08 414.015 123.08C415.679 123.08 417.162 123.443 418.463 124.168C419.765 124.893 420.778 125.917 421.503 127.24C422.229 128.541 422.591 130.045 422.591 131.752ZM418.783 130.6C418.762 129.256 418.282 128.179 417.343 127.368C416.405 126.557 415.242 126.152 413.855 126.152C412.597 126.152 411.519 126.557 410.623 127.368C409.727 128.157 409.194 129.235 409.023 130.6H418.783ZM424.965 132.104C424.965 130.333 425.328 128.765 426.053 127.4C426.8 126.035 427.803 124.979 429.061 124.232C430.341 123.464 431.76 123.08 433.317 123.08C434.469 123.08 435.6 123.336 436.709 123.848C437.84 124.339 438.736 125 439.397 125.832V117.32H443.077V141H439.397V138.344C438.8 139.197 437.968 139.901 436.901 140.456C435.856 141.011 434.651 141.288 433.285 141.288C431.749 141.288 430.341 140.904 429.061 140.136C427.803 139.347 426.8 138.259 426.053 136.872C425.328 135.464 424.965 133.875 424.965 132.104ZM439.397 132.168C439.397 130.952 439.141 129.896 438.629 129C438.139 128.104 437.488 127.421 436.677 126.952C435.867 126.483 434.992 126.248 434.053 126.248C433.115 126.248 432.24 126.483 431.429 126.952C430.619 127.4 429.957 128.072 429.445 128.968C428.955 129.843 428.709 130.888 428.709 132.104C428.709 133.32 428.955 134.387 429.445 135.304C429.957 136.221 430.619 136.925 431.429 137.416C432.261 137.885 433.136 138.12 434.053 138.12C434.992 138.12 435.867 137.885 436.677 137.416C437.488 136.947 438.139 136.264 438.629 135.368C439.141 134.451 439.397 133.384 439.397 132.168ZM454.973 123.08C456.338 123.08 457.543 123.357 458.589 123.912C459.655 124.445 460.487 125.117 461.085 125.928V123.368H464.765V141.288C464.765 142.909 464.423 144.349 463.741 145.608C463.058 146.888 462.066 147.891 460.765 148.616C459.485 149.341 457.949 149.704 456.157 149.704C453.767 149.704 451.783 149.139 450.205 148.008C448.626 146.899 447.73 145.384 447.517 143.464H451.133C451.41 144.381 451.997 145.117 452.893 145.672C453.81 146.248 454.898 146.536 456.157 146.536C457.629 146.536 458.813 146.088 459.709 145.192C460.626 144.296 461.085 142.995 461.085 141.288V138.344C460.466 139.176 459.623 139.88 458.557 140.456C457.511 141.011 456.317 141.288 454.973 141.288C453.437 141.288 452.029 140.904 450.749 140.136C449.49 139.347 448.487 138.259 447.741 136.872C447.015 135.464 446.653 133.875 446.653 132.104C446.653 130.333 447.015 128.765 447.741 127.4C448.487 126.035 449.49 124.979 450.749 124.232C452.029 123.464 453.437 123.08 454.973 123.08ZM461.085 132.168C461.085 130.952 460.829 129.896 460.317 129C459.826 128.104 459.175 127.421 458.365 126.952C457.554 126.483 456.679 126.248 455.741 126.248C454.802 126.248 453.927 126.483 453.117 126.952C452.306 127.4 451.645 128.072 451.133 128.968C450.642 129.843 450.397 130.888 450.397 132.104C450.397 133.32 450.642 134.387 451.133 135.304C451.645 136.221 452.306 136.925 453.117 137.416C453.949 137.885 454.823 138.12 455.741 138.12C456.679 138.12 457.554 137.885 458.365 137.416C459.175 136.947 459.826 136.264 460.317 135.368C460.829 134.451 461.085 133.384 461.085 132.168ZM485.716 131.752C485.716 132.413 485.674 133.011 485.588 133.544H472.116C472.223 134.952 472.746 136.083 473.684 136.936C474.623 137.789 475.775 138.216 477.14 138.216C479.103 138.216 480.49 137.395 481.3 135.752H485.236C484.703 137.373 483.732 138.707 482.324 139.752C480.938 140.776 479.21 141.288 477.14 141.288C475.455 141.288 473.94 140.915 472.596 140.168C471.274 139.4 470.228 138.333 469.46 136.968C468.714 135.581 468.34 133.981 468.34 132.168C468.34 130.355 468.703 128.765 469.428 127.4C470.175 126.013 471.21 124.947 472.532 124.2C473.876 123.453 475.412 123.08 477.14 123.08C478.804 123.08 480.287 123.443 481.588 124.168C482.89 124.893 483.903 125.917 484.628 127.24C485.354 128.541 485.716 130.045 485.716 131.752ZM481.908 130.6C481.887 129.256 481.407 128.179 480.468 127.368C479.53 126.557 478.367 126.152 476.98 126.152C475.722 126.152 474.644 126.557 473.748 127.368C472.852 128.157 472.319 129.235 472.148 130.6H481.908ZM12.048 166.96C12.6667 166.149 13.5093 165.467 14.576 164.912C15.6427 164.357 16.848 164.08 18.192 164.08C19.728 164.08 21.1253 164.464 22.384 165.232C23.664 165.979 24.6667 167.035 25.392 168.4C26.1173 169.765 26.48 171.333 26.48 173.104C26.48 174.875 26.1173 176.464 25.392 177.872C24.6667 179.259 23.664 180.347 22.384 181.136C21.1253 181.904 19.728 182.288 18.192 182.288C16.848 182.288 15.6533 182.021 14.608 181.488C13.5627 180.933 12.7093 180.251 12.048 179.44V190.384H8.4V164.368H12.048V166.96ZM22.768 173.104C22.768 171.888 22.512 170.843 22 169.968C21.5093 169.072 20.848 168.4 20.016 167.952C19.2053 167.483 18.3307 167.248 17.392 167.248C16.4747 167.248 15.6 167.483 14.768 167.952C13.9573 168.421 13.296 169.104 12.784 170C12.2933 170.896 12.048 171.952 12.048 173.168C12.048 174.384 12.2933 175.451 12.784 176.368C13.296 177.264 13.9573 177.947 14.768 178.416C15.6 178.885 16.4747 179.12 17.392 179.12C18.3307 179.12 19.2053 178.885 20.016 178.416C20.848 177.925 21.5093 177.221 22 176.304C22.512 175.387 22.768 174.32 22.768 173.104ZM28.8715 173.104C28.8715 171.333 29.2342 169.765 29.9595 168.4C30.7062 167.035 31.7088 165.979 32.9675 165.232C34.2475 164.464 35.6555 164.08 37.1915 164.08C38.5782 164.08 39.7835 164.357 40.8075 164.912C41.8528 165.445 42.6848 166.117 43.3035 166.928V164.368H46.9835V182H43.3035V179.376C42.6848 180.208 41.8422 180.901 40.7755 181.456C39.7088 182.011 38.4928 182.288 37.1275 182.288C35.6128 182.288 34.2262 181.904 32.9675 181.136C31.7088 180.347 30.7062 179.259 29.9595 177.872C29.2342 176.464 28.8715 174.875 28.8715 173.104ZM43.3035 173.168C43.3035 171.952 43.0475 170.896 42.5355 170C42.0448 169.104 41.3942 168.421 40.5835 167.952C39.7728 167.483 38.8982 167.248 37.9595 167.248C37.0208 167.248 36.1462 167.483 35.3355 167.952C34.5248 168.4 33.8635 169.072 33.3515 169.968C32.8608 170.843 32.6155 171.888 32.6155 173.104C32.6155 174.32 32.8608 175.387 33.3515 176.304C33.8635 177.221 34.5248 177.925 35.3355 178.416C36.1675 178.885 37.0422 179.12 37.9595 179.12C38.8982 179.12 39.7728 178.885 40.5835 178.416C41.3942 177.947 42.0448 177.264 42.5355 176.368C43.0475 175.451 43.3035 174.384 43.3035 173.168ZM67.647 164.368L56.831 190.288H53.055L56.639 181.712L49.695 164.368H53.759L58.719 177.808L63.871 164.368H67.647ZM76.8 182.288C75.4133 182.288 74.1653 182.043 73.056 181.552C71.968 181.04 71.104 180.357 70.464 179.504C69.824 178.629 69.4827 177.659 69.44 176.592H73.216C73.28 177.339 73.632 177.968 74.272 178.48C74.9333 178.971 75.7547 179.216 76.736 179.216C77.76 179.216 78.5493 179.024 79.104 178.64C79.68 178.235 79.968 177.723 79.968 177.104C79.968 176.443 79.648 175.952 79.008 175.632C78.3893 175.312 77.3973 174.96 76.032 174.576C74.7093 174.213 73.632 173.861 72.8 173.52C71.968 173.179 71.2427 172.656 70.624 171.952C70.0267 171.248 69.728 170.32 69.728 169.168C69.728 168.229 70.0053 167.376 70.56 166.608C71.1147 165.819 71.904 165.2 72.928 164.752C73.9733 164.304 75.168 164.08 76.512 164.08C78.5173 164.08 80.128 164.592 81.344 165.616C82.5813 166.619 83.2427 167.995 83.328 169.744H79.68C79.616 168.955 79.296 168.325 78.72 167.856C78.144 167.387 77.3653 167.152 76.384 167.152C75.424 167.152 74.688 167.333 74.176 167.696C73.664 168.059 73.408 168.539 73.408 169.136C73.408 169.605 73.5787 170 73.92 170.32C74.2613 170.64 74.6773 170.896 75.168 171.088C75.6587 171.259 76.384 171.483 77.344 171.76C78.624 172.101 79.6693 172.453 80.48 172.816C81.312 173.157 82.0267 173.669 82.624 174.352C83.2213 175.035 83.5307 175.941 83.552 177.072C83.552 178.075 83.2747 178.971 82.72 179.76C82.1653 180.549 81.376 181.168 80.352 181.616C79.3493 182.064 78.1653 182.288 76.8 182.288ZM100.062 167.344V177.104C100.062 177.765 100.212 178.245 100.51 178.544C100.83 178.821 101.364 178.96 102.11 178.96H104.35V182H101.47C99.8276 182 98.5689 181.616 97.6943 180.848C96.8196 180.08 96.3823 178.832 96.3823 177.104V167.344H94.3023V164.368H96.3823V159.984H100.062V164.368H104.35V167.344H100.062ZM116.833 164.08C118.177 164.08 119.371 164.368 120.417 164.944C121.483 165.52 122.315 166.373 122.913 167.504C123.531 168.635 123.841 170 123.841 171.6V182H120.225V172.144C120.225 170.565 119.83 169.36 119.041 168.528C118.251 167.675 117.174 167.248 115.809 167.248C114.443 167.248 113.355 167.675 112.545 168.528C111.755 169.36 111.361 170.565 111.361 172.144V182H107.713V158.32H111.361V166.416C111.979 165.669 112.758 165.093 113.697 164.688C114.657 164.283 115.702 164.08 116.833 164.08ZM144.654 172.752C144.654 173.413 144.611 174.011 144.526 174.544H131.054C131.16 175.952 131.683 177.083 132.622 177.936C133.56 178.789 134.712 179.216 136.078 179.216C138.04 179.216 139.427 178.395 140.238 176.752H144.174C143.64 178.373 142.67 179.707 141.262 180.752C139.875 181.776 138.147 182.288 136.078 182.288C134.392 182.288 132.878 181.915 131.534 181.168C130.211 180.4 129.166 179.333 128.398 177.968C127.651 176.581 127.278 174.981 127.278 173.168C127.278 171.355 127.64 169.765 128.366 168.4C129.112 167.013 130.147 165.947 131.47 165.2C132.814 164.453 134.35 164.08 136.078 164.08C137.742 164.08 139.224 164.443 140.526 165.168C141.827 165.893 142.84 166.917 143.566 168.24C144.291 169.541 144.654 171.045 144.654 172.752ZM140.846 171.6C140.824 170.256 140.344 169.179 139.406 168.368C138.467 167.557 137.304 167.152 135.918 167.152C134.659 167.152 133.582 167.557 132.686 168.368C131.79 169.157 131.256 170.235 131.086 171.6H140.846ZM160.204 166.992C160.823 166.139 161.666 165.445 162.732 164.912C163.82 164.357 165.026 164.08 166.348 164.08C167.906 164.08 169.314 164.453 170.572 165.2C171.831 165.947 172.823 167.013 173.548 168.4C174.274 169.765 174.636 171.333 174.636 173.104C174.636 174.875 174.274 176.464 173.548 177.872C172.823 179.259 171.82 180.347 170.54 181.136C169.282 181.904 167.884 182.288 166.348 182.288C164.983 182.288 163.767 182.021 162.7 181.488C161.655 180.955 160.823 180.272 160.204 179.44V182H156.556V158.32H160.204V166.992ZM170.924 173.104C170.924 171.888 170.668 170.843 170.156 169.968C169.666 169.072 169.004 168.4 168.172 167.952C167.362 167.483 166.487 167.248 165.548 167.248C164.631 167.248 163.756 167.483 162.924 167.952C162.114 168.421 161.452 169.104 160.94 170C160.45 170.896 160.204 171.952 160.204 173.168C160.204 174.384 160.45 175.451 160.94 176.368C161.452 177.264 162.114 177.947 162.924 178.416C163.756 178.885 164.631 179.12 165.548 179.12C166.487 179.12 167.362 178.885 168.172 178.416C169.004 177.925 169.666 177.221 170.156 176.304C170.668 175.387 170.924 174.32 170.924 173.104ZM194.404 172.752C194.404 173.413 194.361 174.011 194.276 174.544H180.804C180.91 175.952 181.433 177.083 182.372 177.936C183.31 178.789 184.462 179.216 185.828 179.216C187.79 179.216 189.177 178.395 189.988 176.752H193.924C193.39 178.373 192.42 179.707 191.012 180.752C189.625 181.776 187.897 182.288 185.828 182.288C184.142 182.288 182.628 181.915 181.284 181.168C179.961 180.4 178.916 179.333 178.148 177.968C177.401 176.581 177.028 174.981 177.028 173.168C177.028 171.355 177.39 169.765 178.116 168.4C178.862 167.013 179.897 165.947 181.22 165.2C182.564 164.453 184.1 164.08 185.828 164.08C187.492 164.08 188.974 164.443 190.276 165.168C191.577 165.893 192.59 166.917 193.316 168.24C194.041 169.541 194.404 171.045 194.404 172.752ZM190.596 171.6C190.574 170.256 190.094 169.179 189.156 168.368C188.217 167.557 187.054 167.152 185.668 167.152C184.409 167.152 183.332 167.557 182.436 168.368C181.54 169.157 181.006 170.235 180.836 171.6H190.596ZM204.394 182.288C203.007 182.288 201.759 182.043 200.65 181.552C199.562 181.04 198.698 180.357 198.058 179.504C197.418 178.629 197.076 177.659 197.034 176.592H200.81C200.874 177.339 201.226 177.968 201.866 178.48C202.527 178.971 203.348 179.216 204.33 179.216C205.354 179.216 206.143 179.024 206.698 178.64C207.274 178.235 207.562 177.723 207.562 177.104C207.562 176.443 207.242 175.952 206.602 175.632C205.983 175.312 204.991 174.96 203.626 174.576C202.303 174.213 201.226 173.861 200.394 173.52C199.562 173.179 198.836 172.656 198.218 171.952C197.62 171.248 197.322 170.32 197.322 169.168C197.322 168.229 197.599 167.376 198.154 166.608C198.708 165.819 199.498 165.2 200.522 164.752C201.567 164.304 202.762 164.08 204.106 164.08C206.111 164.08 207.722 164.592 208.938 165.616C210.175 166.619 210.836 167.995 210.922 169.744H207.274C207.21 168.955 206.89 168.325 206.314 167.856C205.738 167.387 204.959 167.152 203.978 167.152C203.018 167.152 202.282 167.333 201.77 167.696C201.258 168.059 201.002 168.539 201.002 169.136C201.002 169.605 201.172 170 201.514 170.32C201.855 170.64 202.271 170.896 202.762 171.088C203.252 171.259 203.978 171.483 204.938 171.76C206.218 172.101 207.263 172.453 208.074 172.816C208.906 173.157 209.62 173.669 210.218 174.352C210.815 175.035 211.124 175.941 211.146 177.072C211.146 178.075 210.868 178.971 210.314 179.76C209.759 180.549 208.97 181.168 207.946 181.616C206.943 182.064 205.759 182.288 204.394 182.288ZM219.344 167.344V177.104C219.344 177.765 219.493 178.245 219.792 178.544C220.112 178.821 220.645 178.96 221.392 178.96H223.632V182H220.752C219.109 182 217.85 181.616 216.976 180.848C216.101 180.08 215.664 178.832 215.664 177.104V167.344H213.584V164.368H215.664V159.984H219.344V164.368H223.632V167.344H219.344ZM237.162 162.032C236.501 162.032 235.946 161.808 235.498 161.36C235.05 160.912 234.826 160.357 234.826 159.696C234.826 159.035 235.05 158.48 235.498 158.032C235.946 157.584 236.501 157.36 237.162 157.36C237.802 157.36 238.346 157.584 238.794 158.032C239.242 158.48 239.466 159.035 239.466 159.696C239.466 160.357 239.242 160.912 238.794 161.36C238.346 161.808 237.802 162.032 237.162 162.032ZM238.954 164.368V182H235.306V164.368H238.954ZM252.64 164.08C254.026 164.08 255.264 164.368 256.352 164.944C257.461 165.52 258.325 166.373 258.944 167.504C259.562 168.635 259.872 170 259.872 171.6V182H256.256V172.144C256.256 170.565 255.861 169.36 255.072 168.528C254.282 167.675 253.205 167.248 251.84 167.248C250.474 167.248 249.386 167.675 248.576 168.528C247.786 169.36 247.392 170.565 247.392 172.144V182H243.744V164.368H247.392V166.384C247.989 165.659 248.746 165.093 249.664 164.688C250.602 164.283 251.594 164.08 252.64 164.08ZM268.781 167.344V177.104C268.781 177.765 268.93 178.245 269.229 178.544C269.549 178.821 270.082 178.96 270.829 178.96H273.069V182H270.189C268.546 182 267.288 181.616 266.413 180.848C265.538 180.08 265.101 178.832 265.101 177.104V167.344H263.021V164.368H265.101V159.984H268.781V164.368H273.069V167.344H268.781ZM292.591 172.752C292.591 173.413 292.549 174.011 292.463 174.544H278.991C279.098 175.952 279.621 177.083 280.559 177.936C281.498 178.789 282.65 179.216 284.015 179.216C285.978 179.216 287.365 178.395 288.175 176.752H292.111C291.578 178.373 290.607 179.707 289.199 180.752C287.813 181.776 286.085 182.288 284.015 182.288C282.33 182.288 280.815 181.915 279.471 181.168C278.149 180.4 277.103 179.333 276.335 177.968C275.589 176.581 275.215 174.981 275.215 173.168C275.215 171.355 275.578 169.765 276.303 168.4C277.05 167.013 278.085 165.947 279.407 165.2C280.751 164.453 282.287 164.08 284.015 164.08C285.679 164.08 287.162 164.443 288.463 165.168C289.765 165.893 290.778 166.917 291.503 168.24C292.229 169.541 292.591 171.045 292.591 172.752ZM288.783 171.6C288.762 170.256 288.282 169.179 287.343 168.368C286.405 167.557 285.242 167.152 283.855 167.152C282.597 167.152 281.519 167.557 280.623 168.368C279.727 169.157 279.194 170.235 279.023 171.6H288.783ZM299.829 166.928C300.363 166.032 301.067 165.339 301.941 164.848C302.837 164.336 303.893 164.08 305.109 164.08V167.856H304.181C302.752 167.856 301.664 168.219 300.917 168.944C300.192 169.669 299.829 170.928 299.829 172.72V182H296.181V164.368H299.829V166.928ZM324.623 172.752C324.623 173.413 324.58 174.011 324.495 174.544H311.023C311.129 175.952 311.652 177.083 312.591 177.936C313.529 178.789 314.681 179.216 316.047 179.216C318.009 179.216 319.396 178.395 320.207 176.752H324.142C323.609 178.373 322.639 179.707 321.231 180.752C319.844 181.776 318.116 182.288 316.047 182.288C314.361 182.288 312.847 181.915 311.503 181.168C310.18 180.4 309.135 179.333 308.367 177.968C307.62 176.581 307.247 174.981 307.247 173.168C307.247 171.355 307.609 169.765 308.335 168.4C309.081 167.013 310.116 165.947 311.439 165.2C312.783 164.453 314.319 164.08 316.047 164.08C317.711 164.08 319.193 164.443 320.495 165.168C321.796 165.893 322.809 166.917 323.535 168.24C324.26 169.541 324.623 171.045 324.623 172.752ZM320.815 171.6C320.793 170.256 320.313 169.179 319.375 168.368C318.436 167.557 317.273 167.152 315.887 167.152C314.628 167.152 313.551 167.557 312.655 168.368C311.759 169.157 311.225 170.235 311.055 171.6H320.815ZM334.613 182.288C333.226 182.288 331.978 182.043 330.869 181.552C329.781 181.04 328.917 180.357 328.277 179.504C327.637 178.629 327.295 177.659 327.253 176.592H331.029C331.093 177.339 331.445 177.968 332.085 178.48C332.746 178.971 333.567 179.216 334.549 179.216C335.573 179.216 336.362 179.024 336.917 178.64C337.493 178.235 337.781 177.723 337.781 177.104C337.781 176.443 337.461 175.952 336.821 175.632C336.202 175.312 335.21 174.96 333.845 174.576C332.522 174.213 331.445 173.861 330.613 173.52C329.781 173.179 329.055 172.656 328.437 171.952C327.839 171.248 327.541 170.32 327.541 169.168C327.541 168.229 327.818 167.376 328.373 166.608C328.927 165.819 329.717 165.2 330.741 164.752C331.786 164.304 332.981 164.08 334.325 164.08C336.33 164.08 337.941 164.592 339.157 165.616C340.394 166.619 341.055 167.995 341.141 169.744H337.493C337.429 168.955 337.109 168.325 336.533 167.856C335.957 167.387 335.178 167.152 334.197 167.152C333.237 167.152 332.501 167.333 331.989 167.696C331.477 168.059 331.221 168.539 331.221 169.136C331.221 169.605 331.391 170 331.733 170.32C332.074 170.64 332.49 170.896 332.981 171.088C333.471 171.259 334.197 171.483 335.157 171.76C336.437 172.101 337.482 172.453 338.293 172.816C339.125 173.157 339.839 173.669 340.437 174.352C341.034 175.035 341.343 175.941 341.365 177.072C341.365 178.075 341.087 178.971 340.533 179.76C339.978 180.549 339.189 181.168 338.165 181.616C337.162 182.064 335.978 182.288 334.613 182.288ZM349.562 167.344V177.104C349.562 177.765 349.712 178.245 350.01 178.544C350.33 178.821 350.864 178.96 351.61 178.96H353.85V182H350.97C349.328 182 348.069 181.616 347.194 180.848C346.32 180.08 345.882 178.832 345.882 177.104V167.344H343.802V164.368H345.882V159.984H349.562V164.368H353.85V167.344H349.562ZM358.685 182.224C358.023 182.224 357.469 182 357.021 181.552C356.573 181.104 356.349 180.549 356.349 179.888C356.349 179.227 356.573 178.672 357.021 178.224C357.469 177.776 358.023 177.552 358.685 177.552C359.325 177.552 359.869 177.776 360.317 178.224C360.765 178.672 360.989 179.227 360.989 179.888C360.989 180.549 360.765 181.104 360.317 181.552C359.869 182 359.325 182.224 358.685 182.224Z" fill="#1E1E1E"/>
<path d="M11.8602 119.55C11.1204 119.553 10.3938 119.745 9.75018 120.11C10.6563 117.765 12.1592 115.696 14.1102 114.11C14.2218 114.018 14.3142 113.905 14.3822 113.777C14.4501 113.65 14.4923 113.51 14.5062 113.366C14.5201 113.222 14.5056 113.077 14.4634 112.939C14.4211 112.8 14.3521 112.672 14.2602 112.56C14.1683 112.448 14.0552 112.356 13.9276 112.288C13.8 112.22 13.6602 112.178 13.5162 112.164C13.3723 112.15 13.227 112.165 13.0887 112.207C12.9504 112.249 12.8218 112.318 12.7102 112.41C8.71018 115.66 6.93018 120.16 6.93018 122.95C6.93707 123.937 7.23105 124.9 7.77622 125.722C8.32139 126.544 9.09416 127.19 10.0002 127.58C10.5865 127.864 11.2287 128.014 11.8802 128.02C12.4536 128.048 13.0268 127.959 13.5649 127.759C14.103 127.559 14.5948 127.251 15.0105 126.855C15.4262 126.459 15.7572 125.983 15.9833 125.455C16.2094 124.927 16.326 124.359 16.326 123.785C16.326 123.211 16.2094 122.643 15.9833 122.115C15.7572 121.587 15.4262 121.111 15.0105 120.715C14.5948 120.319 14.103 120.012 13.5649 119.811C13.0268 119.611 12.4536 119.522 11.8802 119.55H11.8602Z" fill="#1E1E1E"/>
<path d="M22.9998 119.55C22.26 119.552 21.5331 119.745 20.8898 120.11C21.7956 117.767 23.2946 115.699 25.2398 114.11C25.3616 114.022 25.4641 113.911 25.541 113.782C25.618 113.653 25.6678 113.51 25.6873 113.361C25.7068 113.212 25.6956 113.061 25.6545 112.916C25.6134 112.772 25.5432 112.638 25.4482 112.521C25.3532 112.405 25.2354 112.31 25.1021 112.241C24.9688 112.172 24.8228 112.131 24.6731 112.12C24.5233 112.11 24.3731 112.13 24.2315 112.18C24.0899 112.23 23.96 112.308 23.8498 112.41C19.8498 115.66 18.0698 120.16 18.0698 122.95C18.0746 123.925 18.36 124.879 18.8919 125.696C19.4239 126.514 20.18 127.161 21.0698 127.56C21.671 127.852 22.3313 128.003 22.9998 128C23.5733 128.028 24.1464 127.939 24.6845 127.739C25.2226 127.539 25.7144 127.231 26.1301 126.835C26.5458 126.439 26.8768 125.963 27.1029 125.435C27.3291 124.907 27.4457 124.339 27.4457 123.765C27.4457 123.191 27.3291 122.623 27.1029 122.095C26.8768 121.567 26.5458 121.091 26.1301 120.695C25.7144 120.299 25.2226 119.992 24.6845 119.791C24.1464 119.591 23.5733 119.502 22.9998 119.53V119.55Z" fill="#1E1E1E"/>
<path d="M8.99121 251.361C8.69499 251.065 8.70638 250.78 9.02539 250.507C9.36719 250.233 9.89128 249.983 10.5977 249.755C11.3268 249.527 12.1927 249.333 13.1953 249.174C14.1979 249.014 15.2347 248.889 16.3057 248.798C17.3766 248.707 18.4134 248.673 19.416 248.695C20.4414 248.695 21.3301 248.764 22.082 248.9C22.8568 249.037 23.4264 249.242 23.791 249.516C24.1784 249.789 24.2695 250.142 24.0645 250.575C23.8138 250.575 23.3923 250.598 22.7998 250.644C22.2301 250.666 21.6149 250.701 20.9541 250.746C20.2933 250.792 19.6667 250.837 19.0742 250.883C18.4818 250.906 18.0716 250.928 17.8438 250.951C17.2741 250.997 16.5791 251.133 15.7588 251.361C14.9385 251.566 14.0954 251.749 13.2295 251.908C12.3864 252.045 11.5775 252.102 10.8027 252.079C10.028 252.056 9.42415 251.817 8.99121 251.361ZM26.0127 260.624C25.6481 260.373 25.5 259.997 25.5684 259.496C25.6367 258.995 25.7962 258.482 26.0469 257.958C26.2975 257.366 26.6621 256.716 27.1406 256.01C27.8698 254.62 28.5192 253.378 29.0889 252.284C29.6813 251.168 30.2282 250.119 30.7295 249.14C31.2308 248.16 31.7093 247.214 32.165 246.303C32.6208 245.391 33.0765 244.434 33.5322 243.432C34.0107 242.429 34.5007 241.358 35.002 240.219C35.5033 239.079 36.0615 237.781 36.6768 236.322C36.7223 236.231 36.7907 236.106 36.8818 235.946C36.9958 235.764 37.1211 235.627 37.2578 235.536C37.4173 235.422 37.5768 235.388 37.7363 235.434C37.8958 235.456 38.0553 235.616 38.2148 235.912C38.4427 236.368 38.4541 236.994 38.249 237.792C38.0667 238.59 37.7363 239.512 37.2578 240.561C36.7793 241.586 36.2096 242.702 35.5488 243.91C34.888 245.095 34.193 246.303 33.4639 247.533C32.7347 248.764 32.0169 249.983 31.3105 251.19C30.6042 252.398 29.9775 253.526 29.4307 254.574C28.9066 255.622 28.4964 256.579 28.2002 257.445C27.9268 258.288 27.8356 258.961 27.9268 259.462C29.5446 259.621 31.1738 259.61 32.8145 259.428C34.4551 259.245 36.0957 259.029 37.7363 258.778C39.377 258.505 41.0176 258.266 42.6582 258.061C44.3216 257.855 45.9736 257.81 47.6143 257.924C47.9105 257.878 48.1611 257.981 48.3662 258.231C48.5713 258.482 48.5827 258.756 48.4004 259.052C48.3548 259.052 48.2523 259.052 48.0928 259.052C47.9561 259.029 47.8079 259.018 47.6484 259.018C47.4889 259.018 47.3294 259.029 47.1699 259.052C47.0332 259.052 46.9307 259.052 46.8623 259.052C45.5863 259.166 44.0938 259.371 42.3848 259.667C40.6758 259.94 38.9098 260.202 37.0869 260.453C35.264 260.704 33.4411 260.897 31.6182 261.034C29.818 261.171 28.1888 261.16 26.7305 261C26.7077 261 26.5938 260.954 26.3887 260.863C26.2064 260.749 26.0811 260.67 26.0127 260.624ZM51.8867 260.624C51.2031 260.396 50.679 260.054 50.3145 259.599C49.9727 259.12 49.7448 258.596 49.6309 258.026C49.5169 257.457 49.4941 256.864 49.5625 256.249C49.6536 255.611 49.7904 255.007 49.9727 254.438C50.6562 253.708 51.4196 252.877 52.2627 251.942C53.1286 250.985 54.04 250.051 54.9971 249.14C55.9541 248.228 56.9453 247.385 57.9707 246.61C59.0189 245.813 60.0785 245.209 61.1494 244.799C61.514 244.639 61.7988 244.651 62.0039 244.833C62.2318 244.993 62.3913 245.255 62.4824 245.619C62.5736 245.984 62.6077 246.405 62.585 246.884C62.585 247.362 62.5508 247.829 62.4824 248.285C62.4141 248.741 62.3229 249.151 62.209 249.516C62.0951 249.88 61.9811 250.131 61.8672 250.268C61.5938 250.587 61.0583 250.963 60.2607 251.396C59.486 251.828 58.6201 252.307 57.6631 252.831C56.7061 253.332 55.749 253.856 54.792 254.403C53.835 254.95 53.0488 255.497 52.4336 256.044C51.8184 256.568 51.4538 257.092 51.3398 257.616C51.2259 258.14 51.5449 258.619 52.2969 259.052C53.0716 259.143 54.0059 259.109 55.0996 258.949C56.2161 258.767 57.3441 258.539 58.4834 258.266C59.6455 257.969 60.762 257.673 61.833 257.377C62.904 257.058 63.7812 256.807 64.4648 256.625L64.875 257.001C64.3737 257.662 63.5534 258.266 62.4141 258.812C61.2747 259.359 60.0443 259.815 58.7227 260.18C57.401 260.521 56.1136 260.749 54.8604 260.863C53.6071 260.954 52.6159 260.875 51.8867 260.624ZM60.0557 247.567C60.0329 247.545 59.862 247.647 59.543 247.875C59.224 248.08 58.8252 248.365 58.3467 248.729C57.891 249.071 57.3896 249.459 56.8428 249.892C56.3187 250.302 55.8288 250.689 55.373 251.054C54.9401 251.418 54.5755 251.737 54.2793 252.011C53.9831 252.261 53.8577 252.387 53.9033 252.387C54.2679 252.455 54.735 252.41 55.3047 252.25C55.8971 252.068 56.501 251.817 57.1162 251.498C57.7542 251.179 58.3581 250.826 58.9277 250.438C59.4974 250.028 59.9417 249.63 60.2607 249.242C60.6025 248.855 60.7734 248.513 60.7734 248.217C60.7962 247.921 60.557 247.704 60.0557 247.567ZM65.7979 260.214C65.251 259.758 64.9434 259.086 64.875 258.197C64.8294 257.309 64.9548 256.306 65.251 255.189C65.57 254.073 66.0257 252.911 66.6182 251.703C67.2334 250.473 67.9398 249.311 68.7373 248.217C69.5348 247.1 70.4007 246.109 71.335 245.243C72.2692 244.354 73.2035 243.705 74.1377 243.295C75.0719 242.862 75.9834 242.714 76.8721 242.851C77.7607 242.965 78.5697 243.477 79.2988 244.389C79.7546 244.958 80.028 245.539 80.1191 246.132C80.2103 246.701 80.1989 247.294 80.085 247.909C79.971 248.502 79.7887 249.117 79.5381 249.755C79.2874 250.37 79.0368 250.997 78.7861 251.635C78.5583 252.273 78.3646 252.922 78.2051 253.583C78.0684 254.244 78.0456 254.916 78.1367 255.6C78.2507 256.465 78.638 256.978 79.2988 257.138C79.9596 257.297 80.7458 257.252 81.6572 257.001C82.5915 256.75 83.5713 256.352 84.5967 255.805C85.6221 255.258 86.5677 254.711 87.4336 254.164C88.3223 253.617 89.0514 253.139 89.6211 252.729C90.2135 252.318 90.5098 252.113 90.5098 252.113C91.1478 251.977 91.501 252.022 91.5693 252.25C91.6605 252.455 91.5352 252.774 91.1934 253.207C90.8743 253.617 90.3844 254.096 89.7236 254.643C89.0628 255.167 88.3109 255.679 87.4678 256.181C86.6247 256.682 85.7246 257.138 84.7676 257.548C83.8105 257.958 82.8763 258.243 81.9648 258.402C81.0534 258.539 80.1875 258.528 79.3672 258.368C78.5697 258.186 77.9089 257.776 77.3848 257.138C77.1341 256.864 76.9404 256.591 76.8037 256.317C76.6898 256.044 76.4961 255.805 76.2227 255.6C75.8809 255.919 75.4707 256.34 74.9922 256.864C74.5137 257.366 73.9896 257.878 73.4199 258.402C72.873 258.904 72.2806 259.382 71.6426 259.838C71.0273 260.294 70.3893 260.635 69.7285 260.863C69.0677 261.091 68.3955 261.171 67.7119 261.103C67.0511 261.034 66.4131 260.738 65.7979 260.214ZM66.1738 259.052C66.3789 259.781 66.8346 260.123 67.541 260.077C68.2474 260.009 69.0677 259.656 70.002 259.018C70.9362 258.38 71.9046 257.514 72.9072 256.42C73.9098 255.303 74.8099 254.073 75.6074 252.729C76.4049 251.361 77.0088 249.926 77.4189 248.422C77.8519 246.918 77.9658 245.437 77.7607 243.979C77.2139 243.546 76.5303 243.534 75.71 243.944C74.8896 244.332 74.0124 244.981 73.0781 245.893C72.1667 246.781 71.2552 247.852 70.3438 249.105C69.4551 250.336 68.6689 251.589 67.9854 252.865C67.3018 254.118 66.7777 255.303 66.4131 256.42C66.0713 257.536 65.9915 258.414 66.1738 259.052ZM88.835 260.624C88.7894 260.601 88.7894 260.339 88.835 259.838C88.9033 259.314 88.9945 258.664 89.1084 257.89C89.2223 257.115 89.3704 256.26 89.5527 255.326C89.735 254.392 89.9287 253.503 90.1338 252.66C90.3389 251.794 90.5553 251.042 90.7832 250.404C91.0339 249.743 91.2731 249.288 91.501 249.037C91.6605 248.878 91.82 248.878 91.9795 249.037C92.139 249.174 92.2985 249.356 92.458 249.584C92.6175 249.789 92.777 249.983 92.9365 250.165C93.096 250.325 93.2669 250.336 93.4492 250.199C94.0872 249.311 94.7822 248.467 95.5342 247.67C96.3089 246.85 97.1634 246.143 98.0977 245.551C98.1888 245.482 98.4395 245.38 98.8496 245.243C99.2598 245.084 99.7269 244.936 100.251 244.799C100.775 244.639 101.311 244.514 101.857 244.423C102.427 244.309 102.906 244.263 103.293 244.286C103.703 244.286 103.977 244.389 104.113 244.594C104.273 244.776 104.204 245.095 103.908 245.551C102.541 245.574 101.265 245.972 100.08 246.747C98.8952 247.522 97.8014 248.479 96.7988 249.618C95.7962 250.757 94.8848 251.999 94.0645 253.344C93.2441 254.665 92.5264 255.896 91.9111 257.035C91.3187 258.174 90.8174 259.12 90.4072 259.872C90.0199 260.624 89.735 261 89.5527 261C89.5299 261 89.4274 260.954 89.2451 260.863C89.0628 260.749 88.9261 260.67 88.835 260.624ZM117.785 260.624C117.717 259.872 117.774 259.132 117.956 258.402C118.161 257.65 118.423 256.921 118.742 256.215C119.084 255.486 119.437 254.768 119.802 254.062C120.189 253.332 120.52 252.626 120.793 251.942C121.066 251.236 121.26 250.552 121.374 249.892C121.488 249.208 121.442 248.536 121.237 247.875C120.668 247.67 120.007 247.715 119.255 248.012C118.526 248.308 117.751 248.764 116.931 249.379C116.11 249.971 115.256 250.678 114.367 251.498C113.501 252.296 112.647 253.116 111.804 253.959C110.983 254.779 110.197 255.565 109.445 256.317C108.693 257.069 108.01 257.696 107.395 258.197C106.802 258.676 106.301 258.983 105.891 259.12C105.48 259.234 105.207 259.086 105.07 258.676C105.048 258.653 105.173 258.368 105.446 257.821C105.743 257.252 106.096 256.545 106.506 255.702C106.939 254.859 107.406 253.948 107.907 252.968C108.431 251.988 108.921 251.076 109.377 250.233C109.833 249.368 110.231 248.638 110.573 248.046C110.915 247.453 111.132 247.134 111.223 247.089C111.701 247.408 111.94 247.761 111.94 248.148C111.963 248.513 111.906 248.9 111.77 249.311C111.633 249.698 111.473 250.097 111.291 250.507C111.132 250.917 111.109 251.327 111.223 251.737C111.587 251.487 112.089 251.145 112.727 250.712C113.387 250.256 114.094 249.789 114.846 249.311C115.62 248.832 116.418 248.365 117.238 247.909C118.081 247.453 118.868 247.1 119.597 246.85C120.326 246.576 120.975 246.428 121.545 246.405C122.137 246.382 122.57 246.553 122.844 246.918C123.117 247.283 123.197 247.886 123.083 248.729C122.992 249.55 122.639 250.678 122.023 252.113C121.955 252.273 121.784 252.66 121.511 253.275C121.26 253.868 120.975 254.517 120.656 255.224C120.36 255.907 120.075 256.557 119.802 257.172C119.551 257.764 119.392 258.14 119.323 258.3C119.3 258.391 119.266 258.562 119.221 258.812C119.198 259.04 119.164 259.302 119.118 259.599C119.073 259.872 119.004 260.146 118.913 260.419C118.822 260.67 118.708 260.863 118.571 261C118.435 261.137 118.275 261.125 118.093 260.966C117.91 260.784 117.808 260.67 117.785 260.624ZM126.672 260.897C125.988 260.51 125.51 260.134 125.236 259.77C124.963 259.405 124.826 259.018 124.826 258.607C124.826 258.197 124.929 257.742 125.134 257.24C125.339 256.739 125.578 256.158 125.852 255.497C125.92 255.36 126.057 255.087 126.262 254.677C126.467 254.244 126.695 253.743 126.945 253.173C127.219 252.603 127.504 252.011 127.8 251.396C128.119 250.757 128.404 250.154 128.654 249.584C128.928 249.014 129.156 248.524 129.338 248.114C129.543 247.681 129.68 247.396 129.748 247.26C130.044 246.622 130.17 246.063 130.124 245.585C130.101 245.084 130.044 244.617 129.953 244.184C129.885 243.751 129.851 243.329 129.851 242.919C129.873 242.509 130.09 242.042 130.5 241.518C130.568 241.449 130.716 241.29 130.944 241.039C131.172 240.788 131.411 240.526 131.662 240.253C131.936 239.957 132.186 239.695 132.414 239.467C132.642 239.216 132.779 239.057 132.824 238.988C132.938 238.852 133.257 238.624 133.781 238.305C134.328 237.986 134.989 237.644 135.764 237.279C136.538 236.892 137.393 236.505 138.327 236.117C139.284 235.707 140.23 235.354 141.164 235.058C142.098 234.739 142.998 234.499 143.864 234.34C144.73 234.18 145.471 234.135 146.086 234.203C146.701 234.271 147.146 234.488 147.419 234.853C147.715 235.217 147.761 235.775 147.556 236.527C147.214 237.758 146.656 238.84 145.881 239.774C145.129 240.709 144.331 241.54 143.488 242.27C142.645 242.999 141.836 243.648 141.062 244.218C140.31 244.787 139.751 245.323 139.387 245.824C142.121 245.915 144.115 246.246 145.368 246.815C146.644 247.385 147.362 248.103 147.521 248.969C147.704 249.835 147.43 250.803 146.701 251.874C145.972 252.922 144.969 253.97 143.693 255.019C142.417 256.044 140.97 257.024 139.353 257.958C137.735 258.869 136.117 259.621 134.499 260.214C132.904 260.806 131.4 261.182 129.987 261.342C128.597 261.501 127.492 261.353 126.672 260.897ZM129.372 252.626C128.939 253.15 128.54 253.731 128.176 254.369C127.811 254.984 127.526 255.6 127.321 256.215C127.139 256.807 127.059 257.377 127.082 257.924C127.105 258.448 127.276 258.881 127.595 259.223C127.914 259.542 128.392 259.735 129.03 259.804C129.691 259.872 130.568 259.747 131.662 259.428C134.077 258.881 136.174 258.186 137.951 257.343C139.751 256.5 141.232 255.622 142.395 254.711C143.579 253.777 144.445 252.854 144.992 251.942C145.562 251.031 145.824 250.233 145.778 249.55C145.756 248.843 145.425 248.308 144.787 247.943C144.172 247.579 143.272 247.476 142.087 247.636C140.902 247.772 139.432 248.24 137.678 249.037C135.946 249.812 133.941 251.008 131.662 252.626C131.411 252.831 131.184 252.934 130.979 252.934C130.773 252.911 130.58 252.865 130.397 252.797C130.215 252.706 130.044 252.626 129.885 252.558C129.725 252.489 129.554 252.512 129.372 252.626ZM130.124 249.755C130.124 249.823 130.113 249.926 130.09 250.062C130.09 250.199 130.09 250.347 130.09 250.507C130.09 250.644 130.09 250.78 130.09 250.917C130.113 251.054 130.124 251.156 130.124 251.225C130.306 251.179 130.682 250.963 131.252 250.575C131.822 250.188 132.505 249.687 133.303 249.071C134.123 248.456 135.012 247.761 135.969 246.986C136.926 246.189 137.883 245.368 138.84 244.525C139.82 243.66 140.743 242.805 141.608 241.962C142.497 241.096 143.26 240.287 143.898 239.535C144.536 238.783 145.015 238.122 145.334 237.553C145.676 236.96 145.778 236.505 145.642 236.186C144.639 236.049 143.579 236.117 142.463 236.391C141.369 236.641 140.287 237.017 139.216 237.519C138.168 238.02 137.188 238.601 136.276 239.262C135.365 239.9 134.602 240.526 133.986 241.142C133.85 241.438 133.622 241.962 133.303 242.714C132.984 243.466 132.631 244.263 132.243 245.106C131.879 245.95 131.525 246.747 131.184 247.499C130.865 248.228 130.637 248.741 130.5 249.037C130.5 249.083 130.443 249.208 130.329 249.413C130.215 249.595 130.147 249.709 130.124 249.755ZM151.384 260.624C150.427 260.237 149.823 259.656 149.572 258.881C149.344 258.106 149.356 257.252 149.606 256.317C149.857 255.36 150.29 254.381 150.905 253.378C151.521 252.353 152.204 251.418 152.956 250.575C153.708 249.732 154.46 249.026 155.212 248.456C155.987 247.864 156.647 247.533 157.194 247.465C158.607 247.283 159.712 247.385 160.51 247.772C161.33 248.137 161.888 248.673 162.185 249.379C162.481 250.085 162.561 250.917 162.424 251.874C162.287 252.808 161.979 253.754 161.501 254.711C161.045 255.668 160.441 256.591 159.689 257.479C158.96 258.368 158.14 259.12 157.229 259.735C156.34 260.328 155.394 260.727 154.392 260.932C153.389 261.114 152.386 261.011 151.384 260.624ZM151.008 258.676C151.19 259.405 151.577 259.815 152.17 259.906C152.762 259.975 153.446 259.826 154.221 259.462C155.018 259.075 155.85 258.528 156.716 257.821C157.582 257.092 158.368 256.306 159.074 255.463C159.803 254.62 160.396 253.777 160.852 252.934C161.33 252.068 161.558 251.316 161.535 250.678C161.535 250.04 161.228 249.561 160.612 249.242C160.02 248.9 159.017 248.832 157.604 249.037C157.285 249.333 156.875 249.698 156.374 250.131C155.873 250.541 155.349 250.997 154.802 251.498C154.278 251.999 153.754 252.546 153.229 253.139C152.705 253.708 152.25 254.301 151.862 254.916C151.475 255.531 151.19 256.158 151.008 256.796C150.848 257.434 150.848 258.061 151.008 258.676ZM174.797 260.624C174.341 260.282 173.988 259.838 173.737 259.291C173.487 258.744 173.293 258.163 173.156 257.548C173.042 256.933 172.963 256.317 172.917 255.702C172.871 255.087 172.849 254.54 172.849 254.062C172.803 254.016 172.735 253.993 172.644 253.993C172.575 253.993 172.518 254.016 172.473 254.062C171.903 254.472 171.356 254.962 170.832 255.531C170.308 256.101 169.784 256.682 169.26 257.274C168.758 257.867 168.257 258.459 167.756 259.052C167.277 259.621 166.787 260.146 166.286 260.624C165.967 260.738 165.637 260.772 165.295 260.727C164.953 260.658 164.657 260.544 164.406 260.385C164.178 260.202 164.007 259.975 163.894 259.701C163.802 259.405 163.837 259.063 163.996 258.676C164.429 257.286 164.896 255.816 165.397 254.267C165.922 252.694 166.468 251.202 167.038 249.789C167.243 249.288 167.46 249.014 167.688 248.969C167.938 248.923 168.155 249.014 168.337 249.242C168.519 249.47 168.645 249.789 168.713 250.199C168.781 250.587 168.747 250.974 168.61 251.361C168.542 251.544 168.417 251.874 168.234 252.353C168.052 252.808 167.858 253.31 167.653 253.856C167.448 254.381 167.255 254.882 167.072 255.36C166.89 255.839 166.765 256.169 166.696 256.352V257.514C167.403 256.876 167.995 256.306 168.474 255.805C168.952 255.303 169.396 254.802 169.807 254.301C170.24 253.777 170.684 253.23 171.14 252.66C171.595 252.068 172.165 251.373 172.849 250.575C173.373 249.96 173.783 249.63 174.079 249.584C174.375 249.516 174.592 249.641 174.729 249.96C174.888 250.256 174.979 250.701 175.002 251.293C175.025 251.863 175.025 252.489 175.002 253.173C175.002 253.834 174.979 254.506 174.934 255.189C174.888 255.85 174.865 256.431 174.865 256.933C174.888 257.411 174.945 257.764 175.036 257.992C175.127 258.197 175.298 258.174 175.549 257.924C175.822 257.491 176.221 256.864 176.745 256.044C177.269 255.224 177.862 254.324 178.522 253.344C179.183 252.341 179.901 251.339 180.676 250.336C181.473 249.311 182.282 248.399 183.103 247.602C183.923 246.781 184.743 246.143 185.563 245.688C186.384 245.209 187.17 245.027 187.922 245.141C187.945 245.232 187.808 245.482 187.512 245.893C187.238 246.303 186.862 246.793 186.384 247.362C185.928 247.909 185.415 248.513 184.846 249.174C184.299 249.812 183.752 250.427 183.205 251.02C182.681 251.612 182.214 252.147 181.804 252.626C181.394 253.104 181.109 253.458 180.949 253.686C180.881 253.777 180.733 253.982 180.505 254.301C180.3 254.597 180.049 254.962 179.753 255.395C179.479 255.805 179.172 256.249 178.83 256.728C178.511 257.206 178.203 257.662 177.907 258.095C177.611 258.528 177.349 258.904 177.121 259.223C176.916 259.542 176.779 259.747 176.711 259.838C176.506 260.134 176.335 260.373 176.198 260.556C176.062 260.738 175.925 260.863 175.788 260.932C175.674 261 175.537 261.011 175.378 260.966C175.218 260.92 175.025 260.806 174.797 260.624ZM190.827 260.624C190.166 260.146 189.733 259.542 189.528 258.812C189.346 258.083 189.323 257.297 189.46 256.454C189.597 255.588 189.836 254.7 190.178 253.788C190.542 252.877 190.93 251.999 191.34 251.156C191.773 250.313 192.183 249.538 192.57 248.832C192.98 248.126 193.299 247.545 193.527 247.089C193.596 246.952 193.755 246.622 194.006 246.098C194.279 245.574 194.564 245.004 194.86 244.389C195.157 243.773 195.43 243.204 195.681 242.68C195.954 242.133 196.125 241.791 196.193 241.654C196.262 241.54 196.353 241.324 196.467 241.005C196.604 240.663 196.752 240.299 196.911 239.911C197.071 239.524 197.242 239.159 197.424 238.817C197.629 238.453 197.834 238.191 198.039 238.031C198.267 237.872 198.483 237.849 198.688 237.963C198.916 238.077 199.133 238.419 199.338 238.988C199.247 239.216 199.019 239.672 198.654 240.355C198.312 241.039 197.902 241.859 197.424 242.816C196.945 243.773 196.41 244.833 195.817 245.995C195.248 247.157 194.689 248.331 194.143 249.516C193.596 250.701 193.083 251.863 192.604 253.002C192.126 254.118 191.727 255.144 191.408 256.078C191.112 256.99 190.93 257.753 190.861 258.368C190.816 258.961 190.93 259.325 191.203 259.462C191.522 259.621 191.932 259.69 192.434 259.667C192.958 259.621 193.493 259.553 194.04 259.462C194.587 259.371 195.122 259.28 195.646 259.188C196.171 259.075 196.626 259.029 197.014 259.052C197.105 259.257 197.036 259.462 196.809 259.667C196.581 259.849 196.262 260.02 195.852 260.18C195.441 260.316 194.963 260.442 194.416 260.556C193.892 260.647 193.379 260.715 192.878 260.761C192.399 260.806 191.966 260.818 191.579 260.795C191.215 260.772 190.964 260.715 190.827 260.624ZM224.46 260.624C224.323 260.054 224.323 259.405 224.46 258.676C224.619 257.924 224.836 257.172 225.109 256.42C225.383 255.668 225.679 254.95 225.998 254.267C226.317 253.56 226.579 252.979 226.784 252.523C226.898 252.25 227.069 251.851 227.297 251.327C227.548 250.803 227.821 250.211 228.117 249.55C228.436 248.889 228.755 248.194 229.074 247.465C229.416 246.736 229.735 246.041 230.031 245.38C230.35 244.719 230.624 244.138 230.852 243.637C231.102 243.113 231.285 242.725 231.398 242.475C231.011 242.406 230.453 242.44 229.724 242.577C229.017 242.714 228.231 242.896 227.365 243.124C226.499 243.329 225.611 243.546 224.699 243.773C223.788 244.001 222.933 244.172 222.136 244.286C221.361 244.377 220.689 244.389 220.119 244.32C219.572 244.229 219.23 243.99 219.094 243.603C219.253 243.306 219.834 242.965 220.837 242.577C221.84 242.19 223.116 241.791 224.665 241.381C226.237 240.948 227.98 240.515 229.895 240.082C231.831 239.649 233.802 239.239 235.808 238.852C237.813 238.464 239.772 238.111 241.687 237.792C243.601 237.473 245.31 237.211 246.813 237.006C248.317 236.801 249.525 236.664 250.437 236.596C251.371 236.527 251.861 236.55 251.906 236.664C251.975 236.846 251.986 237.074 251.94 237.348C251.895 237.598 251.747 237.758 251.496 237.826C250.38 238.008 249.172 238.214 247.873 238.441C246.574 238.646 245.253 238.874 243.908 239.125C242.587 239.353 241.288 239.592 240.012 239.843C238.736 240.071 237.551 240.299 236.457 240.526C235.751 240.663 235.067 241.073 234.406 241.757C233.745 242.44 233.107 243.295 232.492 244.32C231.877 245.323 231.285 246.451 230.715 247.704C230.145 248.935 229.598 250.188 229.074 251.464C228.573 252.74 228.106 253.97 227.673 255.155C227.24 256.34 226.841 257.388 226.477 258.3C226.112 259.188 225.793 259.883 225.52 260.385C225.246 260.886 225.018 261.091 224.836 261C224.79 260.954 224.722 260.886 224.631 260.795C224.54 260.704 224.483 260.647 224.46 260.624ZM240.456 260.624C239.772 260.396 239.248 260.054 238.884 259.599C238.542 259.12 238.314 258.596 238.2 258.026C238.086 257.457 238.063 256.864 238.132 256.249C238.223 255.611 238.36 255.007 238.542 254.438C239.226 253.708 239.989 252.877 240.832 251.942C241.698 250.985 242.609 250.051 243.566 249.14C244.523 248.228 245.515 247.385 246.54 246.61C247.588 245.813 248.648 245.209 249.719 244.799C250.083 244.639 250.368 244.651 250.573 244.833C250.801 244.993 250.961 245.255 251.052 245.619C251.143 245.984 251.177 246.405 251.154 246.884C251.154 247.362 251.12 247.829 251.052 248.285C250.983 248.741 250.892 249.151 250.778 249.516C250.664 249.88 250.55 250.131 250.437 250.268C250.163 250.587 249.628 250.963 248.83 251.396C248.055 251.828 247.189 252.307 246.232 252.831C245.275 253.332 244.318 253.856 243.361 254.403C242.404 254.95 241.618 255.497 241.003 256.044C240.388 256.568 240.023 257.092 239.909 257.616C239.795 258.14 240.114 258.619 240.866 259.052C241.641 259.143 242.575 259.109 243.669 258.949C244.785 258.767 245.913 258.539 247.053 258.266C248.215 257.969 249.331 257.673 250.402 257.377C251.473 257.058 252.351 256.807 253.034 256.625L253.444 257.001C252.943 257.662 252.123 258.266 250.983 258.812C249.844 259.359 248.614 259.815 247.292 260.18C245.97 260.521 244.683 260.749 243.43 260.863C242.176 260.954 241.185 260.875 240.456 260.624ZM248.625 247.567C248.602 247.545 248.431 247.647 248.112 247.875C247.793 248.08 247.395 248.365 246.916 248.729C246.46 249.071 245.959 249.459 245.412 249.892C244.888 250.302 244.398 250.689 243.942 251.054C243.509 251.418 243.145 251.737 242.849 252.011C242.552 252.261 242.427 252.387 242.473 252.387C242.837 252.455 243.304 252.41 243.874 252.25C244.466 252.068 245.07 251.817 245.686 251.498C246.324 251.179 246.927 250.826 247.497 250.438C248.067 250.028 248.511 249.63 248.83 249.242C249.172 248.855 249.343 248.513 249.343 248.217C249.366 247.921 249.126 247.704 248.625 247.567ZM254.367 260.214C253.82 259.758 253.513 259.086 253.444 258.197C253.399 257.309 253.524 256.306 253.82 255.189C254.139 254.073 254.595 252.911 255.188 251.703C255.803 250.473 256.509 249.311 257.307 248.217C258.104 247.1 258.97 246.109 259.904 245.243C260.839 244.354 261.773 243.705 262.707 243.295C263.641 242.862 264.553 242.714 265.441 242.851C266.33 242.965 267.139 243.477 267.868 244.389C268.324 244.958 268.597 245.539 268.688 246.132C268.78 246.701 268.768 247.294 268.654 247.909C268.54 248.502 268.358 249.117 268.107 249.755C267.857 250.37 267.606 250.997 267.355 251.635C267.128 252.273 266.934 252.922 266.774 253.583C266.638 254.244 266.615 254.916 266.706 255.6C266.82 256.465 267.207 256.978 267.868 257.138C268.529 257.297 269.315 257.252 270.227 257.001C271.161 256.75 272.141 256.352 273.166 255.805C274.191 255.258 275.137 254.711 276.003 254.164C276.892 253.617 277.621 253.139 278.19 252.729C278.783 252.318 279.079 252.113 279.079 252.113C279.717 251.977 280.07 252.022 280.139 252.25C280.23 252.455 280.104 252.774 279.763 253.207C279.444 253.617 278.954 254.096 278.293 254.643C277.632 255.167 276.88 255.679 276.037 256.181C275.194 256.682 274.294 257.138 273.337 257.548C272.38 257.958 271.446 258.243 270.534 258.402C269.623 258.539 268.757 258.528 267.937 258.368C267.139 258.186 266.478 257.776 265.954 257.138C265.703 256.864 265.51 256.591 265.373 256.317C265.259 256.044 265.065 255.805 264.792 255.6C264.45 255.919 264.04 256.34 263.562 256.864C263.083 257.366 262.559 257.878 261.989 258.402C261.442 258.904 260.85 259.382 260.212 259.838C259.597 260.294 258.959 260.635 258.298 260.863C257.637 261.091 256.965 261.171 256.281 261.103C255.62 261.034 254.982 260.738 254.367 260.214ZM254.743 259.052C254.948 259.781 255.404 260.123 256.11 260.077C256.817 260.009 257.637 259.656 258.571 259.018C259.506 258.38 260.474 257.514 261.477 256.42C262.479 255.303 263.379 254.073 264.177 252.729C264.974 251.361 265.578 249.926 265.988 248.422C266.421 246.918 266.535 245.437 266.33 243.979C265.783 243.546 265.1 243.534 264.279 243.944C263.459 244.332 262.582 244.981 261.647 245.893C260.736 246.781 259.825 247.852 258.913 249.105C258.024 250.336 257.238 251.589 256.555 252.865C255.871 254.118 255.347 255.303 254.982 256.42C254.641 257.536 254.561 258.414 254.743 259.052ZM297.673 260.214C297.422 259.918 297.274 259.587 297.229 259.223C297.206 258.835 297.229 258.459 297.297 258.095C297.388 257.707 297.502 257.343 297.639 257.001C297.798 256.636 297.946 256.306 298.083 256.01C298.174 255.782 298.356 255.372 298.63 254.779C298.926 254.164 299.234 253.526 299.553 252.865C299.895 252.204 300.214 251.589 300.51 251.02C300.806 250.427 301.011 250.017 301.125 249.789V249.037C300.897 248.923 300.43 249.083 299.724 249.516C299.017 249.926 298.197 250.507 297.263 251.259C296.328 251.988 295.337 252.808 294.289 253.72C293.241 254.631 292.25 255.508 291.315 256.352C290.404 257.172 289.606 257.912 288.923 258.573C288.239 259.211 287.806 259.633 287.624 259.838C287.123 259.997 286.792 259.895 286.633 259.53C286.496 259.143 286.462 258.619 286.53 257.958C286.599 257.274 286.735 256.522 286.94 255.702C287.146 254.859 287.351 254.073 287.556 253.344C287.784 252.592 287.977 251.954 288.137 251.43C288.319 250.906 288.399 250.621 288.376 250.575C287.92 250.416 287.442 250.473 286.94 250.746C286.439 251.02 285.926 251.43 285.402 251.977C284.878 252.501 284.354 253.127 283.83 253.856C283.306 254.563 282.782 255.281 282.258 256.01C281.734 256.716 281.232 257.4 280.754 258.061C280.275 258.699 279.82 259.223 279.387 259.633C278.954 260.043 278.544 260.282 278.156 260.351C277.792 260.419 277.473 260.248 277.199 259.838C277.176 259.815 277.165 259.758 277.165 259.667C277.165 259.576 277.176 259.507 277.199 259.462C277.313 259.234 277.484 258.881 277.712 258.402C277.963 257.901 278.236 257.343 278.532 256.728C278.828 256.112 279.147 255.474 279.489 254.813C279.831 254.13 280.15 253.492 280.446 252.899C280.765 252.284 281.039 251.737 281.267 251.259C281.517 250.78 281.711 250.427 281.848 250.199C281.962 249.971 282.121 249.687 282.326 249.345C282.531 248.98 282.736 248.638 282.941 248.319C283.146 247.978 283.329 247.693 283.488 247.465C283.648 247.214 283.728 247.089 283.728 247.089H284.548C284.707 247.613 284.685 248.103 284.479 248.559C284.274 249.014 284.024 249.459 283.728 249.892C283.454 250.325 283.215 250.757 283.01 251.19C282.827 251.601 282.827 252.045 283.01 252.523C284.969 250.792 286.473 249.516 287.521 248.695C288.592 247.875 289.344 247.408 289.777 247.294C290.21 247.18 290.415 247.351 290.393 247.807C290.37 248.262 290.267 248.878 290.085 249.652C289.925 250.427 289.755 251.316 289.572 252.318C289.413 253.298 289.401 254.255 289.538 255.189H289.948C290.085 255.098 290.313 254.927 290.632 254.677C290.951 254.426 291.293 254.153 291.657 253.856C292.045 253.56 292.398 253.287 292.717 253.036C293.059 252.785 293.298 252.615 293.435 252.523C293.685 252.318 294.05 252.034 294.528 251.669C295.007 251.304 295.485 250.94 295.964 250.575C296.465 250.188 296.91 249.857 297.297 249.584C297.707 249.288 297.969 249.105 298.083 249.037C298.174 248.969 298.368 248.832 298.664 248.627C298.983 248.399 299.325 248.16 299.689 247.909C300.077 247.659 300.441 247.431 300.783 247.226C301.125 246.998 301.376 246.827 301.535 246.713C301.877 246.485 302.196 246.382 302.492 246.405C302.788 246.428 303.028 246.542 303.21 246.747C303.415 246.929 303.54 247.191 303.586 247.533C303.632 247.852 303.586 248.217 303.449 248.627C302.902 249.652 302.355 250.655 301.809 251.635C301.285 252.615 300.795 253.606 300.339 254.608C299.906 255.588 299.541 256.602 299.245 257.65C298.972 258.699 298.824 259.815 298.801 261C298.687 261.068 298.562 261.068 298.425 261C298.311 260.932 298.197 260.84 298.083 260.727C297.969 260.613 297.867 260.499 297.775 260.385C297.707 260.271 297.673 260.214 297.673 260.214Z" fill="black"/>
<defs>
<clipPath id="clip0">
<rect width="47" height="39" fill="white" transform="translate(9)"/>
</clipPath>
</defs>
</svg>
