<svg width="61" height="61" viewBox="0 0 61 61" fill="none" xmlns="http://www.w3.org/2000/svg">
<circle cx="30.5" cy="30.5" r="30.5" fill="#00D3AD"/>
<path d="M30.5 0C13.6559 0 0 13.6559 0 30.5C0 47.3441 13.6559 61 30.5 61C47.3441 61 61 47.3441 61 30.5C61 13.6559 47.3441 0 30.5 0ZM16.2667 14.9684L20.9626 13.2167H24.4V27.45H20.3892V16.1731H20.3333L16.9478 17.4653L16.2667 14.9684ZM21.5604 47.7833C19.6979 47.7833 18.1272 47.3167 17.2833 46.8083L17.9706 44.3938C18.5664 44.6896 19.9439 45.2396 21.3164 45.2396C23.0641 45.2396 23.9516 44.4375 23.9516 43.3984C23.9516 42.0422 22.5334 41.4271 21.0491 41.4271H19.6766V39.1183H20.985C22.1125 39.0979 23.5501 38.6974 23.5501 37.5313C23.5501 36.7047 22.8435 36.0917 21.4252 36.0917C20.252 36.0917 19.0107 36.5786 18.4128 36.9182L17.7276 34.587C18.5918 34.0583 20.3191 33.55 22.1776 33.55C25.255 33.55 26.963 35.0964 26.963 36.9792C26.963 38.4422 26.0989 39.5859 24.3258 40.1797V40.2193C26.0562 40.5182 27.45 41.7667 27.45 43.5682C27.45 46.0021 25.2143 47.7833 21.5604 47.7833ZM34.0583 25.4705L35.9127 23.8327C39.0441 21.0989 40.567 19.5261 40.6087 17.8893C40.6087 16.7476 39.9042 15.8417 38.25 15.8417C37.0148 15.8417 35.9351 16.4456 35.1817 17.0068L34.2362 14.6593C35.317 13.8612 36.9924 13.2156 38.9322 13.2156C42.1744 13.2156 43.9617 15.066 43.9617 17.6077C43.9617 19.9551 42.2181 21.8288 40.1451 23.6385L38.8224 24.7131V24.7568H44.225V27.45H34.0583V25.4705ZM44.7333 44.3897H42.8708V47.7833H39.4212V44.3897H32.5333V42.2211L38.4188 33.55H42.8708V41.8918H44.7333V44.3897Z" fill="#B2FFF9"/>
<path d="M38.5409 39.2269L36.5898 42.1406V42.1797H39.8629V39.2269C39.8629 38.4225 39.9077 37.6038 39.9744 36.7402H39.8867C39.4159 37.6038 39.0337 38.3844 38.5409 39.2269Z" fill="#B2FFF9"/>
</svg>
