<svg width="192" height="193" viewBox="0 0 192 193" fill="none" xmlns="http://www.w3.org/2000/svg">
<path d="M137.367 3.54235L2.79712 53.7104L53.1024 187.47L187.672 137.302L137.367 3.54235Z" fill="#5F74AA"/>
<path d="M63.5004 109.185C65.5311 109.703 67.1658 110.93 67.8953 112.83C69.6425 117.441 65.2829 124.312 59.0965 126.621C55.8004 127.858 52.7334 127.522 50.4544 125.728C50.3516 122.888 50.4665 116.591 50.732 112.751C51.0075 108.576 51.3721 105.775 51.9155 103.963C49.8327 105.545 48.1455 107.299 47.5426 108.488C46.5959 108.285 44.991 106.93 44.5199 105.969C46.1892 103.588 50.898 100.372 54.8844 98.8595C59.9708 96.9485 63.9029 97.9559 65.2585 101.556C66.2723 104.226 65.5198 106.938 63.5004 109.185ZM54.5368 113.31C54.2154 118.328 54.1446 123.322 54.4725 124.548C55.2024 124.688 56.0717 124.521 57.2931 124.069C63.1155 121.92 66.9377 116.484 65.4667 112.559C64.9519 111.141 63.9079 110.361 62.5017 110.202C61.1051 111.467 59.3127 112.56 57.234 113.304C56.6651 113.526 56.4224 113.633 55.9669 113.718C55.5034 113.721 55.0241 113.557 54.5368 113.31ZM55.1283 101.854C55.3491 101.958 55.536 102.15 55.719 102.3C55.3368 103.594 54.9222 107.196 54.6647 111.118C55.3391 110.677 56.4272 110.154 57.4437 109.763C57.9708 109.545 58.5477 109.406 59.0827 109.271C62.8763 107.065 64.8283 104.112 63.9258 101.726C63.1844 99.701 61.0781 99.2736 58.0247 100.404C57.1296 100.741 56.1668 101.252 55.1283 101.854Z" fill="white"/>
<path d="M70.8368 114.938C69.5427 111.541 70.2102 106.615 72.4228 103.303C73.2685 102.006 74.2373 101.118 75.216 100.773C76.0255 100.863 77.0458 101.394 78.0978 102.257C78.3026 102.196 78.4618 102.097 78.6667 102.035C79.8045 101.591 80.7193 102.342 81.5064 104.405C83.4882 109.706 81.5256 115.635 76.8388 118.639C74.2429 119.264 71.9121 117.811 70.8368 114.938ZM74.4627 115.388C74.8543 116.398 75.6636 117.368 76.123 117.324C79.6163 115.063 80.8567 109.957 78.9942 105.022C78.5946 103.928 78.2467 103.375 77.7933 103.041C76.1421 104.288 75.1431 106.186 74.5957 107.957C73.9069 110.453 73.8365 113.687 74.4627 115.388Z" fill="white"/>
<path d="M89.8618 98.3254C89.7816 101.015 88.0995 106.792 88.5863 108.799C89.4142 106.876 90.5547 103.372 91.0025 102.324C92.0035 100.007 93.8285 95.7251 95.9032 94.9401C97.0033 94.5416 98.115 95.1479 98.809 95.7941C98.8587 95.8732 98.4987 96.0752 98.2021 96.9417C97.6288 98.8825 97.011 103.887 97.9751 106.477C98.3706 107.529 98.7167 107.622 99.2438 107.404C99.6914 107.235 100.187 106.685 100.471 106.574C100.684 106.596 100.925 106.908 100.986 107.112C100.556 107.907 99.4562 109.186 98.7242 109.465C96.2397 110.373 95.1062 109.098 94.4225 107.236C94.0269 106.184 93.8084 104.78 94.0242 100.861C93.9446 100.911 92.9081 101.974 92.0982 103.644C90.8325 106.279 89.9986 108.58 89.1824 111.508C88.7484 113.142 88.404 114.391 87.9881 114.891C86.9161 114.701 86.1187 113.855 85.568 112.943C84.9537 111.368 84.5767 107.422 84.8044 103.628C85.0222 99.2907 85.6833 96.5033 85.9936 96.2222C87.3422 96.2191 88.8994 97.0762 89.8618 98.3254Z" fill="white"/>
<path d="M103.751 90.167C104.361 89.941 105.163 89.9482 106.201 90.2262C105.723 93.1637 105.589 94.853 105.728 96.3066C106.18 101.921 106.608 109.047 106.63 111.476C106.626 117.176 105.645 119.701 103.081 120.658C101.207 121.34 98.9695 121.302 97.8379 120.489C97.7684 120.202 97.9336 119.725 98.1345 119.622C99.1508 120.112 99.9981 120.156 101.098 119.758C103.825 118.743 104.053 115.829 102.423 100.981C101.681 94.0948 102.082 90.7875 103.751 90.167ZM103.182 86.8684C102.874 86.7302 102.542 86.3428 102.377 85.9395C102.093 85.1704 101.783 82.811 101.819 81.4245C102.794 81.038 105.535 81.4886 106.529 82.1899C105.855 83.5117 104.605 87.1935 104.592 87.9491C104.053 88.0425 103.441 87.8077 103.276 87.4043C103.272 87.3628 103.21 87.1591 103.182 86.8684Z" fill="white"/>
<path d="M109.788 100.403C108.494 97.0063 109.161 92.0809 111.374 88.7681C112.219 87.4719 113.188 86.583 114.167 86.238C114.976 86.3283 115.997 86.8595 117.049 87.723C117.254 87.6615 117.413 87.5624 117.618 87.5009C118.755 87.0569 119.67 87.8078 120.457 89.87C122.439 95.171 120.477 101.1 115.79 104.105C113.194 104.73 110.863 103.276 109.788 100.403ZM113.414 100.853C113.805 101.863 114.614 102.834 115.074 102.79C118.567 100.528 119.808 95.4224 117.945 90.4872C117.546 89.3938 117.198 88.8403 116.744 88.5064C115.093 89.7539 114.094 91.6515 113.547 93.4221C112.858 95.9188 112.791 99.1942 113.414 100.853Z" fill="white"/>
<path d="M132.09 92.9497C131.917 92.4633 131.835 92.052 131.808 91.7613C131.44 91.8803 130.358 96.007 129.998 97.0892C129.652 97.8767 129.286 98.4565 129.005 98.609C127.613 99.0354 125.481 98.7781 124.594 97.4379C124.145 96.2654 123.998 95.6089 123.819 94.6201C123.36 91.1434 123.65 84.9129 125.602 81.9603C126.334 81.6808 127.91 81.4046 128.842 81.9022C128.601 82.4701 127.755 85.5266 127.537 90.7443C127.473 91.8401 127.658 95.0915 128.061 96.2265C128.176 96.5508 128.401 96.6969 128.489 96.7305C129.034 96.2593 129.492 94.8744 130.379 91.8139C130.784 90.3084 131.639 87.7958 131.646 85.6578C131.618 84.4869 131.625 82.3488 132.54 80.4592C133.682 80.0567 135.406 80.0177 135.985 80.3396C135.805 84.6317 134.676 89.1402 135.962 92.454C136.642 94.275 137.609 94.6856 137.778 95.1305C137.827 95.2095 137.71 95.3046 137.71 95.3046C137.141 95.5266 135.451 95.4786 134.199 95.179C133.024 94.7884 132.37 93.6774 132.09 92.9497Z" fill="white"/>
<path d="M139.719 79.2703C139.785 77.7552 139.919 76.9461 140.231 76.2457C141.472 76.0014 143.258 76.166 144.012 76.555C143.339 78.3376 143.184 80.2385 143.306 83.2862C144.803 80.4191 145.883 78.0526 146.578 75.1782C146.688 75.0001 146.847 74.9011 147.173 74.7861C147.784 74.5601 148.498 74.5338 148.818 74.7966C148.804 75.9714 148.991 77.0433 149.382 78.0536C149.724 78.9849 150.122 79.6175 150.579 79.9929C150.649 80.2796 150.33 81.3578 149.908 82.2364C148.544 82.0734 147.166 81.3249 146.261 80.2379C143.254 84.5066 142.76 87.278 143.702 93.6004C142.92 93.8009 140.943 93.403 140.428 92.8655C139.923 90.2314 139.531 83.4793 139.719 79.2703Z" fill="white"/>
<path d="M0.676289 100.183C3.76334 99.846 7.13861 100.32 9.01159 103.158C10.2463 105.052 10.1129 105.861 12.3507 105.019C13.409 104.624 14.9823 104.767 15.9528 105.219C16.9691 105.709 17.3945 106.632 17.7065 107.692C17.949 108.465 18.5056 109.879 20.1722 110.558L54.5633 32.4196C53.5174 31.1784 51.9121 31.5832 49.5295 30.4697C48.205 29.8419 47.2127 28.7213 46.0016 27.9569C45.6396 27.6981 41.9239 28.5141 40.9175 28.5684C38.0274 28.7607 34.6647 25.771 32.6979 24.1568C31.3257 23.0306 29.472 23.04 27.5286 23.4353L-4.65342 96.4592C-3.26559 98.6316 -1.7842 100.46 0.676289 100.183Z" fill="#FF4B4B"/>
</svg>
