<svg width="66" height="48" viewBox="0 0 66 48" fill="none" xmlns="http://www.w3.org/2000/svg">
<path d="M36.75 42.5V15C36.7545 11.0231 38.3363 7.21041 41.1483 4.39833C43.9604 1.58625 47.7731 0.00446701 51.75 0C52.413 0 53.0489 0.26339 53.5178 0.732231C53.9866 1.20107 54.25 1.83696 54.25 2.5C54.25 3.16304 53.9866 3.79893 53.5178 4.26777C53.0489 4.73661 52.413 5 51.75 5C49.0987 5.00298 46.5569 6.0575 44.6822 7.93222C42.8075 9.80694 41.753 12.3487 41.75 15V17.5L60.5 17.5C61.8256 17.5015 63.0965 18.0288 64.0339 18.9661C64.9712 19.9035 65.4985 21.1744 65.5 22.5V42.5C65.4985 43.8256 64.9712 45.0965 64.0339 46.0339C63.0965 46.9712 61.8256 47.4985 60.5 47.5H41.75C40.4244 47.4985 39.1535 46.9712 38.2161 46.0339C37.2788 45.0965 36.7515 43.8256 36.75 42.5ZM5.5 47.5H24.25C25.5756 47.4985 26.8465 46.9712 27.7839 46.0339C28.7212 45.0965 29.2485 43.8256 29.25 42.5V22.5C29.2485 21.1744 28.7212 19.9035 27.7839 18.9661C26.8465 18.0288 25.5756 17.5015 24.25 17.5L5.5 17.5V15C5.50298 12.3487 6.5575 9.80694 8.43222 7.93222C10.3069 6.0575 12.8487 5.00298 15.5 5C16.163 5 16.7989 4.73661 17.2678 4.26777C17.7366 3.79893 18 3.16304 18 2.5C18 1.83696 17.7366 1.20107 17.2678 0.732231C16.7989 0.26339 16.163 0 15.5 0C11.5231 0.00446701 7.71041 1.58625 4.89833 4.39833C2.08625 7.21041 0.504463 11.0231 0.5 15V42.5C0.501488 43.8256 1.02876 45.0965 1.96611 46.0339C2.90347 46.9712 4.17437 47.4985 5.5 47.5Z" fill="#56A219" fill-opacity="0.8"/>
</svg>
