<svg width="534" height="350" viewBox="0 0 534 350" fill="none" xmlns="http://www.w3.org/2000/svg">
<g clip-path="url(#clip0)">
<path d="M20.153 213.636C17.2782 271.107 55.5833 300.615 110.829 307.625C172.803 315.488 236.437 304.882 298.148 299.487C321.395 297.455 344.72 295.929 368.072 296.057C390.076 296.178 413.898 302.253 435.515 298.891C489.551 290.484 517.398 234.547 508.977 185.763C503.756 155.513 484.147 126.603 449.445 128.526C425.062 129.881 403.445 140.494 380.153 146.242C349.48 153.813 316.881 152.592 286.802 142.743C271.778 137.815 257.45 130.824 242.829 124.703C213.71 112.527 182.914 103.744 151.556 103.259C120.206 102.766 88.1524 111.027 62.8034 130.351C36.0751 150.728 21.758 181.556 20.153 213.636Z" stroke="#F0F0F0" stroke-width="4.2643" stroke-miterlimit="10"/>
<path d="M498.964 230.973C501.825 287.748 463.721 316.897 408.762 323.822C347.112 331.589 283.811 321.111 222.421 315.783C199.295 313.775 176.093 312.268 152.862 312.393C130.974 312.512 107.275 318.516 85.7725 315.193C32.0196 306.887 4.31781 251.63 12.6938 203.436C16.6082 180.919 25.2486 156.011 44.6724 142.339C64.2102 128.588 86.9352 132.105 108.352 138.075C147.356 148.949 189.856 169.353 231.184 161.369C254.871 156.792 275.513 143.355 298.007 135.314C320.436 127.297 344.399 122.303 368.243 121.93C399.428 121.444 431.314 129.604 456.53 148.693C483.126 168.825 497.368 199.281 498.964 230.973Z" fill="#F0F0F0"/>
<path d="M459.499 278.585C459.499 278.585 438.016 293.761 413.34 280.611L436.42 267.709L459.499 278.585Z" fill="#6F3428"/>
<path d="M301.336 177.15C301.336 177.15 280.435 216.42 286.978 228.02L310.777 214.784L301.336 177.15Z" fill="#6F3428"/>
<path d="M292.337 217.016C289.723 215.058 287.203 212.857 284.785 210.461C280.02 205.729 275.636 200.234 271.642 194.371C271.642 194.362 271.642 194.362 271.642 194.362C268.958 190.427 266.451 186.318 264.127 182.159C257.409 170.159 252.161 157.742 248.426 147.798C244.528 137.424 242.262 129.732 241.66 127.969C241.592 127.763 241.544 127.638 241.514 127.599L252.82 95.0785C258.284 86.3129 261.346 114.761 261.346 114.761C262.853 113.875 264.681 111.274 265.76 109.871C266.975 108.284 267.907 110.796 268.074 111.692C269.018 116.922 264.816 126.866 264.816 126.866L291.774 166.446C293.427 168.871 295.274 171.16 297.278 173.272C298.561 174.636 299.922 175.931 301.34 177.148C303.73 187.332 303.488 206.955 292.337 217.016Z" fill="#F9B384"/>
<path opacity="0.6" d="M292.338 217.016C289.723 215.058 287.204 212.857 284.785 210.461C293.245 200.75 299.717 184.623 301.341 177.153C302.624 178.516 299.92 175.935 301.341 177.153C303.73 187.332 303.488 206.955 292.338 217.016Z" fill="#E28B6D"/>
<path d="M459.503 278.587C444.776 275.714 433.167 275.899 423.366 277.847C419.808 278.557 416.493 279.494 413.342 280.613L410.376 291.258L404.524 312.304L400.723 325.978L397.263 338.396L395.318 345.398H290.847L307.373 237.447L286.976 228.019C288.289 226.08 289.492 223.803 290.612 221.28C296.804 207.305 300.13 186.121 301.336 177.15C307.17 182.175 314.041 185.934 321.537 188.079C330.433 190.621 341.155 192.822 351.188 192.587C351.539 192.578 351.879 192.567 352.219 192.557C375.425 191.651 385.777 198.713 385.777 198.713C391.028 199.754 404.715 205.023 416.664 210.292C421.932 212.601 426.861 214.919 430.596 216.865C440.629 222.113 447.911 231.445 450.612 242.461L459.503 278.587Z" fill="#EE6F57"/>
<path opacity="0.6" d="M423.366 277.847C419.807 278.558 416.492 279.494 413.342 280.613L419.632 258.007L423.366 277.847Z" fill="#AE5140"/>
<path opacity="0.3" d="M271.639 194.362C268.956 190.427 266.854 186.873 261.811 177.906C269.72 175.195 274.448 186.873 271.639 194.362Z" fill="#EE6F57"/>
<path opacity="0.6" d="M411.514 287.184L404.526 312.304L400.726 325.978L306.978 333.136L296.323 314.456C364.86 313.044 393.54 303.258 411.514 287.184Z" fill="#AE5140"/>
<path opacity="0.6" d="M248.422 147.8C244.523 137.426 242.257 129.734 241.655 127.971L259.196 117.088C259.869 126.991 252.049 141.108 248.422 147.8Z" fill="#E28B6D"/>
<path d="M359.361 216.931C360.385 220.576 362.587 223.76 365.473 226.06C368.371 228.355 371.861 229.865 375.502 230.516C379.143 231.178 382.934 231.004 386.525 230.043C388.323 229.57 390.072 228.88 391.722 227.994C393.396 227.142 394.953 226.064 396.439 224.875L396.959 225.43C395.619 226.864 394.066 228.102 392.402 229.175C390.715 230.214 388.9 231.057 387.006 231.676C383.21 232.905 379.095 233.151 375.155 232.425C371.227 231.692 367.424 230.002 364.415 227.321C362.915 225.987 361.602 224.434 360.601 222.698C359.623 220.953 358.914 219.053 358.618 217.098L359.361 216.931Z" fill="#AE5140"/>
<path d="M401.968 179.724L399.061 202.486C397.983 210.988 390.633 217.299 382.077 217.066C372.91 216.822 365.842 209.276 365.842 200.403C365.842 199.535 365.911 198.649 366.047 197.762L366.572 194.433L368.624 181.451L380.173 180.857L401.968 179.724Z" fill="#F9B384"/>
<path d="M361.52 142.225C361.844 138.87 363.41 134.871 365.195 131.244C368.608 124.312 375.215 119.5 382.85 118.397C394.322 116.741 409.152 118.356 417.229 129.392C426.334 141.834 418.768 166.713 409.006 168.835C399.244 170.956 361.52 142.225 361.52 142.225Z" fill="#102048"/>
<path d="M391.422 185.569C387.524 189.268 378.541 197.927 366.048 197.762L368.624 181.448L380.173 180.855L391.422 185.569Z" fill="#E28B6D"/>
<path d="M408.046 148.092L406.306 157.159L405.878 159.379L404.166 168.3L403.183 173.414L401.968 179.724L396.027 183.298C396.027 183.298 394.404 184.39 391.419 185.569C391.419 185.569 391.419 185.578 391.41 185.578C386.91 187.371 379.316 189.358 369.574 188.072C368.895 187.985 368.252 187.827 367.65 187.615C363.061 186.046 360.708 181.206 359.678 175.177C358.919 170.746 358.862 165.671 359.142 160.772C359.58 153.087 360.854 145.831 361.515 142.229C371.733 133.085 385.683 131.42 396.027 129.394L408.046 148.092Z" fill="#F9B384"/>
<path d="M361.52 142.225C377.795 129.392 399.72 142.392 399.72 142.392C399.72 142.392 396.367 162.604 402.848 160.937C409.33 159.267 415.907 145.756 415.907 145.756L401.072 124.328L368.619 129.928L361.52 142.225Z" fill="#102048"/>
<path d="M402.009 161.601C405.198 155.992 411.406 154.193 414.742 158.447C418.079 162.702 418.207 176.091 401.797 173.199L402.009 161.601Z" fill="#F9B384"/>
<path d="M374.725 157.171C373.669 160.03 372.034 162.577 370.968 165.258C370.844 165.582 370.687 165.955 370.607 166.24C370.521 166.523 370.475 166.8 370.523 167.01C370.53 167.236 370.66 167.393 370.817 167.581C371.013 167.743 371.257 167.907 371.565 168.024C372.789 168.494 374.305 168.611 375.78 168.757L375.794 169.328C374.298 169.524 372.762 169.705 371.134 169.232C370.726 169.125 370.311 168.91 369.923 168.611C369.556 168.284 369.196 167.811 369.126 167.279C369.014 166.756 369.103 166.268 369.219 165.838C369.338 165.404 369.467 165.08 369.62 164.712C370.817 161.834 372.595 159.411 374.212 156.917L374.725 157.171Z" fill="#E28B6D"/>
<path d="M385.636 157.774C385.237 159.121 384.14 159.987 383.185 159.704C382.23 159.42 381.778 158.098 382.175 156.748C382.574 155.401 383.671 154.535 384.626 154.818C385.583 155.102 386.035 156.424 385.636 157.774Z" fill="#102048"/>
<path d="M368.357 156.963C368.755 155.615 368.304 154.292 367.349 154.009C366.394 153.726 365.297 154.59 364.898 155.938C364.5 157.287 364.951 158.61 365.906 158.893C366.861 159.176 367.959 158.312 368.357 156.963Z" fill="#102048"/>
<path d="M379.556 152.571C380.376 151.79 381.348 151.141 382.444 150.707C383.536 150.269 384.77 150.084 385.98 150.232C387.193 150.376 388.342 150.865 389.295 151.557C390.252 152.247 391.034 153.117 391.636 154.078L391.208 154.455C390.344 153.779 389.502 153.137 388.606 152.639C387.713 152.144 386.771 151.801 385.8 151.676C384.829 151.543 383.828 151.639 382.836 151.893C381.842 152.151 380.869 152.576 379.882 153.041L379.556 152.571Z" fill="#102048"/>
<path d="M370.988 152.649C370.195 151.381 368.895 150.776 367.568 150.78C366.905 150.783 366.239 150.938 365.601 151.219C364.96 151.502 364.354 151.906 363.716 152.37L363.271 152.014C363.649 151.258 364.235 150.582 364.988 150.093C365.733 149.602 366.647 149.316 367.573 149.328C368.496 149.337 369.429 149.627 370.163 150.198C370.899 150.753 371.431 151.593 371.529 152.473L370.988 152.649Z" fill="#102048"/>
<path d="M368.526 173.537L379.106 173.761C379.106 173.761 373.241 181.732 368.934 174.314L368.526 173.537Z" fill="white"/>
<path d="M404.544 165.879C404.551 164.966 404.713 164.045 405.039 163.159C405.363 162.273 405.876 161.414 406.64 160.734C407.394 160.053 408.457 159.621 409.496 159.672C410.538 159.706 411.461 160.174 412.154 160.788L411.869 161.282C411.044 161.033 410.251 160.864 409.523 160.955C408.801 161.042 408.156 161.346 407.597 161.828C407.032 162.307 406.571 162.963 406.172 163.678C405.776 164.397 405.452 165.178 405.105 165.989L404.544 165.879Z" fill="#E28B6D"/>
<path opacity="0.3" d="M391.358 176.522C395.474 176.522 398.811 173.18 398.811 169.056C398.811 164.933 395.474 161.59 391.358 161.59C387.242 161.59 383.905 164.933 383.905 169.056C383.905 173.18 387.242 176.522 391.358 176.522Z" fill="#EE6F57"/>
<path opacity="0.3" d="M364.91 168.047C364.91 171.388 362.703 174.222 359.68 175.177C358.921 170.746 358.864 165.671 359.145 160.772C362.45 161.542 364.91 164.502 364.91 168.047Z" fill="#EE6F57"/>
<path d="M214.961 136.981C214.961 136.981 236.179 147.387 232.247 164.648L218.212 168.583L214.961 136.981Z" fill="#102048"/>
<path d="M214.961 136.981C217.239 134.734 228.916 121.809 228.508 105.653C228.198 93.4021 233.622 98.936 234.319 107.389C234.319 107.389 237.301 90.0996 245.522 91.8514L243.105 95.1653C243.105 95.1653 246.222 89.3094 248.739 90.8761C251.253 92.4429 248.976 97.4515 248.976 97.4515C248.976 97.4515 250.15 93.1075 252.307 92.7763C254.463 92.4452 256.442 99.2512 251.618 117.008C251.618 117.008 256.846 111.817 258.909 110.94C260.974 110.063 260.835 123.65 246.185 138.109C231.538 152.569 221.174 163.753 221.174 163.753L214.961 136.981Z" fill="#F9B384"/>
<path d="M129.465 207.812C129.98 208.609 214.962 136.981 214.962 136.981L232.247 164.648L145.505 266.978L129.465 207.812Z" fill="#708CD5"/>
<path d="M245.672 91.9701C244.66 93.5346 243.723 95.1607 242.862 96.812C242.013 98.4724 241.209 100.156 240.538 101.891C239.827 103.611 239.257 105.383 238.781 107.181L238.432 108.533L238.163 109.901C237.933 110.81 237.885 111.742 237.711 112.664L237.333 112.644C237.356 110.748 237.531 108.839 237.955 106.982C238.375 105.125 238.927 103.294 239.645 101.533C240.377 99.7787 241.179 98.0521 242.143 96.4146C243.101 94.7747 244.147 93.1943 245.374 91.7349L245.672 91.9701Z" fill="#E28B6D"/>
<path d="M249.159 97.504C248.876 99.0479 248.543 100.58 248.203 102.108C247.873 103.641 247.481 105.155 247.132 106.683L245.974 111.235C245.566 112.747 245.162 114.259 244.709 115.761L244.337 115.682C244.54 114.119 244.836 112.578 245.146 111.038C245.47 109.504 245.826 107.976 246.195 106.452C246.594 104.936 246.966 103.412 247.406 101.907C247.836 100.4 248.281 98.8949 248.789 97.4081L249.159 97.504Z" fill="#E28B6D"/>
<path d="M254.315 93.4821C254.869 98.8081 254.627 104.182 253.843 109.481C253.626 110.803 253.399 112.125 253.082 113.43C252.931 114.083 252.769 114.734 252.582 115.38L252.448 115.866L252.386 116.093C252.395 116.072 252.391 116.015 252.368 115.981C252.338 115.91 252.211 115.889 252.147 115.937L252.489 115.636C253.485 114.752 254.491 113.877 255.51 113.016L257.058 111.739C257.331 111.523 257.557 111.338 257.881 111.102C258.337 110.789 258.995 110.844 259.397 111.232C259.602 111.401 259.734 111.737 259.759 111.918L259.857 112.436C259.894 112.783 259.953 113.13 259.957 113.475C259.978 113.822 259.989 114.167 259.969 114.512C259.962 114.857 259.948 115.202 259.903 115.54C259.782 116.908 259.458 118.239 259.05 119.53C258.213 122.111 257.003 124.536 255.592 126.818C254.171 129.097 252.553 131.233 250.857 133.297C249.999 134.32 249.083 135.293 248.201 136.294L245.412 139.16L245.141 138.893L247.808 135.94C248.65 134.914 249.523 133.916 250.332 132.87C251.969 130.792 253.524 128.647 254.871 126.382C256.196 124.107 257.39 121.75 258.168 119.256C258.553 118.011 258.849 116.739 258.954 115.453C258.995 115.133 259.005 114.811 259.009 114.492C259.027 114.17 259.014 113.852 258.993 113.535C258.989 113.215 258.929 112.904 258.897 112.589L258.808 112.128C258.779 111.979 258.774 111.995 258.729 111.938C258.651 111.861 258.503 111.84 258.405 111.909L257.65 112.489L256.114 113.74C255.097 114.588 254.092 115.453 253.093 116.326L252.683 116.68C252.352 116.947 251.794 116.826 251.595 116.463C251.483 116.287 251.458 116.051 251.509 115.871L251.579 115.615L251.714 115.14C251.901 114.51 252.065 113.87 252.218 113.229C252.532 111.947 252.79 110.652 253.027 109.353C253.474 106.747 253.761 104.111 253.921 101.469C254.08 98.8264 254.139 96.1656 253.939 93.5277L254.315 93.4821Z" fill="#E28B6D"/>
<path d="M95.1472 270.009C95.1472 270.009 65.7858 258.407 53.7964 280.604C38.7201 308.515 61.3744 341.312 61.3744 341.312H101.225L95.1472 270.009Z" fill="#FBC343"/>
<path d="M66.4037 279.16C65.656 279.937 65.0176 280.814 64.4431 281.727C63.8641 282.639 63.3876 283.614 62.9521 284.605C62.0927 286.592 61.4361 288.668 60.9801 290.79C60.0637 295.031 59.7718 299.4 59.9747 303.74C60.164 308.084 60.8912 312.393 61.9741 316.609C63.0798 320.823 64.6141 324.92 66.438 328.892L66.0983 329.063C65.6013 328.084 65.0746 327.115 64.6301 326.11C64.4021 325.61 64.1559 325.117 63.9461 324.608L63.301 323.086C62.4939 321.038 61.7667 318.955 61.1534 316.833C59.9611 312.585 59.1951 308.205 59.0058 303.783C58.8143 299.368 59.1312 294.91 60.1776 290.603C60.6952 288.451 61.4064 286.339 62.3503 284.331C62.8336 283.333 63.3625 282.353 63.994 281.437C64.6164 280.517 65.3186 279.647 66.1347 278.886L66.4037 279.16Z" fill="#102048"/>
<path d="M170.884 172.665C180.512 178.55 187.169 175.051 189.113 168.698C191.058 162.344 198.166 138.411 168.454 142.268C168.454 142.268 132.043 127.56 116.634 149.259C103.042 168.401 115.512 181.634 94.7435 197.507C80.2623 208.574 63.8433 228.02 96.4101 261.273L131.733 251.525L170.884 172.665Z" fill="#AE5140"/>
<path d="M159.914 200.419C160.635 203.787 168.425 212.507 171.543 215.778C180.968 225.667 183.049 244.217 156.175 249.888L141.056 214.606L159.914 200.419Z" fill="#6F3428"/>
<path d="M161.254 204.829L158.076 219.487L153.136 242.296L125.576 236.463L132.059 191.731L160.165 204.342L161.254 204.829Z" fill="#F9B384"/>
<path d="M178.211 175.851C178.211 175.851 186.166 184.785 185.885 187.058C185.605 189.333 178.211 193.407 178.211 193.407V175.851Z" fill="#E28B6D"/>
<path d="M161.254 204.829L158.076 219.487C149.6 214.967 143.415 203.787 143.415 203.787L160.165 204.342L161.254 204.829Z" fill="#E28B6D"/>
<path d="M180.076 196.182C178.959 204.676 176.139 211.201 170.111 211.783C153.448 213.4 129.465 194.7 129.465 194.7L130.757 160.457L148.88 149.257L178.211 154.711C178.562 158.578 180.359 170.401 180.651 182.294C180.767 187.085 180.639 191.886 180.076 196.182Z" fill="#F9B384"/>
<path d="M182.817 160.457L179.201 163.246C160.349 148.51 164.257 169.739 162.508 176.536C160.757 183.335 151.825 181.542 144.854 177.15L143.609 186.665L122.658 187.327L121.442 160.729L142.334 144.367L181.009 151.925L182.817 160.457Z" fill="#AE5140"/>
<path d="M155.753 259.22C166.044 253.69 163.126 239.254 159.12 234.314C155.115 229.374 138.092 221.086 136.028 205.53C134.879 196.879 143.611 186.665 143.611 186.665L125.902 177.146L107.754 205.729L121.447 254.816L155.753 259.22Z" fill="#AE5140"/>
<path d="M168.575 338.444L82.1956 338.503C78.4226 283.096 92.2085 254.764 104.127 240.848C111.632 232.092 122.967 227.759 134.401 229.161C144.345 230.388 152.979 235.122 161.728 255.751L120.838 274.801L147.088 321.102C149.723 325.757 153.544 329.635 158.151 332.341L168.575 338.444Z" fill="#708CD5"/>
<path d="M120.84 274.796C120.84 274.796 133.694 326.332 138.456 333.115C143.415 340.177 154.061 338.402 172.619 338.444C230.083 338.567 172.619 338.444 172.619 338.444L149.176 286.124L120.84 274.796Z" fill="#1F3C88"/>
<path d="M225.704 324.434L221.99 338.128L172.619 338.443H168.575L158.154 332.336C153.546 329.63 149.725 325.752 147.09 321.097L120.84 274.796L161.731 255.746C166.124 266.078 170.537 280.417 175.156 300.284C175.779 302.963 177.634 305.201 180.154 306.302L225.704 324.434Z" fill="#708CD5"/>
<path d="M149.176 180.916C147.692 172.665 137.918 171.573 136.218 177.148C134.517 182.723 134.932 192.302 147.206 191.735L149.176 180.916Z" fill="#F9B384"/>
<path d="M145.255 181.565L143.725 179.816C143.217 179.27 142.69 178.747 142.143 178.434C141.584 178.121 141.142 178.032 140.629 178.306C140.102 178.573 139.599 179.144 139.077 179.729L138.566 179.473C138.782 178.671 139.138 177.845 139.936 177.226C140.319 176.904 140.884 176.732 141.427 176.725C141.974 176.753 142.478 176.926 142.877 177.18C143.691 177.682 144.252 178.354 144.708 179.053C145.161 179.756 145.515 180.503 145.752 181.289L145.255 181.565Z" fill="#E28B6D"/>
<path opacity="0.2" d="M179.643 198.9C179.226 198.987 171.388 196.735 171.388 189.339C171.388 185.395 174.835 182.031 178.772 182.031C179.424 182.031 180.056 182.118 180.649 182.294C180.767 187.085 180.665 194.264 179.643 198.9Z" fill="#EE6F57"/>
<path d="M322.033 338.972H219.28L238.69 255.219H341.445L322.033 338.972Z" fill="#1F3C88"/>
<path opacity="0.6" d="M322.032 338.971L341.442 255.216C312.072 323.304 268.43 330.85 219.277 338.971" fill="#102048"/>
<path d="M286.044 299.48C287.609 295.743 286.332 291.644 283.192 290.325C280.052 289.006 276.239 290.967 274.674 294.704C273.11 298.442 274.387 302.541 277.527 303.86C280.666 305.178 284.48 303.218 286.044 299.48Z" fill="white"/>
<path d="M449.392 277.03L449.082 285.542L447.682 323.69V323.738C447.566 326.621 446.807 329.407 445.514 331.919C444.222 334.413 442.375 336.633 440.079 338.396H397.265L307.845 338.698C306.251 338.698 304.616 334.977 306.978 333.137C312.199 329.046 320.374 324.547 326.062 320.904C329.202 318.899 332.945 318.022 336.641 318.499C342.794 319.287 351.671 322.414 362.715 319.152C364.63 318.588 366.574 318.15 368.537 317.848L404.528 312.307L418.693 310.126L419.092 286.091L419.217 278.816C420.569 278.456 421.948 278.136 423.369 277.853C430.803 276.368 439.291 275.911 449.392 277.03Z" fill="#F9B384"/>
<path opacity="0.6" d="M449.392 277.03L449.082 285.542C443.852 283.701 423.649 277.945 419.217 278.811C420.569 278.45 421.948 278.13 423.368 277.847C430.803 276.367 439.29 275.91 449.392 277.03Z" fill="#E28B6D"/>
<path opacity="0.3" d="M447.68 323.692V323.74C447.564 326.622 446.805 329.408 445.512 331.921C444.219 334.415 442.373 336.635 440.077 338.398H427.068C429.346 325.861 438.825 321.967 447.68 323.692Z" fill="#EE6F57"/>
<path d="M413.253 310.676C414.774 310.062 416.37 309.541 418.025 309.349C419.671 309.091 421.356 309.102 423.013 309.28C424.673 309.454 426.31 309.845 427.865 310.429C429.426 311.005 430.903 311.777 432.235 312.804L431.92 313.279C430.491 312.61 428.975 312.085 427.466 311.647C425.95 311.213 424.406 310.893 422.849 310.722C421.292 310.537 419.719 310.477 418.148 310.585C416.57 310.646 415.013 310.929 413.427 311.215L413.253 310.676Z" fill="#E28B6D"/>
<path d="M519.91 341H1V352.52H519.91V341Z" fill="#D3DFFF"/>
<path d="M0.832031 338.502H519.74" stroke="#102048" stroke-width="6" stroke-miterlimit="10"/>
<path d="M101.19 81.5171C97.2071 59.9891 76.5591 45.7718 55.0698 49.7618C33.5805 53.7518 19.391 74.4393 23.3738 95.965C27.3566 117.493 48.0047 131.71 69.494 127.72C74.872 126.722 79.7918 124.678 84.0847 121.837L97.7748 127.816L91.1885 115.814C99.4596 106.935 103.568 94.3777 101.19 81.5171Z" fill="#C6EAE9"/>
<path d="M47.4711 102.579V90.5179L46.7689 90.8674C46.0485 91.2259 45.2666 91.4064 44.4481 91.4064C41.5459 91.4064 39.1841 89.0403 39.1841 86.1329C39.1841 83.2209 41.5459 80.8525 44.4481 80.8525C45.262 80.8525 46.044 81.0329 46.7712 81.3869L47.4711 81.7295V69.6797H57.8989C57.7347 70.2392 57.6527 70.8216 57.6527 71.4154C57.6527 74.8641 60.4523 77.6687 63.8947 77.6687C67.3372 77.6687 70.1368 74.8641 70.1368 71.4154C70.1368 70.8216 70.0547 70.2392 69.8906 69.6797H80.3184V80.2221C79.6686 79.9938 78.9824 79.8796 78.2688 79.8796C74.8263 79.8796 72.0268 82.6842 72.0268 86.1329C72.0268 89.577 74.8263 92.3816 78.2688 92.3816C78.9664 92.3816 79.6641 92.2606 80.3184 92.0322V102.581H47.4711V102.579Z" fill="white"/>
<path d="M79.8327 70.1662V79.5713C79.3266 79.4502 78.8045 79.3908 78.2687 79.3908C74.5572 79.3908 71.5388 82.4147 71.5388 86.1329C71.5388 89.8465 74.5572 92.8681 78.2687 92.8681C78.7954 92.8681 79.322 92.8041 79.8327 92.6808V102.093H47.9589V91.3036V89.7346L46.5546 90.4312C45.9003 90.7555 45.1935 90.9199 44.4503 90.9199C41.8149 90.9199 39.6719 88.7731 39.6719 86.1329C39.6719 83.4904 41.8149 81.339 44.4503 81.339C45.1912 81.339 45.9003 81.5034 46.5614 81.8255L47.9589 82.5083V80.9507V70.1662H57.2833C57.2057 70.575 57.167 70.9929 57.167 71.4155C57.167 75.1336 60.1854 78.1575 63.8969 78.1575C67.6084 78.1575 70.6269 75.1336 70.6269 71.4155C70.6269 70.9929 70.5881 70.575 70.5106 70.1662H79.8327ZM80.8039 69.1932H69.202C69.4938 69.8784 69.6511 70.6298 69.6511 71.4155C69.6511 74.5969 67.0704 77.1823 63.8947 77.1823C60.7189 77.1823 58.1382 74.5969 58.1382 71.4155C58.1382 70.6275 58.2978 69.8784 58.5873 69.1932H46.9854V80.9507C46.2172 80.5762 45.3622 80.366 44.4503 80.366C41.2746 80.366 38.7007 82.9446 38.7007 86.1329C38.7007 89.3144 41.2746 91.8929 44.4503 91.8929C45.3622 91.8929 46.2194 91.6828 46.9854 91.3013V103.066H80.8039V91.2968C80.0424 91.6782 79.1807 91.8929 78.2687 91.8929C75.0862 91.8929 72.5123 89.3144 72.5123 86.1329C72.5123 82.9446 75.0862 80.366 78.2687 80.366C79.1807 80.366 80.0447 80.5762 80.8039 80.9576V69.1932Z" fill="#8CBFBE"/>
<path d="M454.93 135.937C456.248 114.083 475.001 97.4379 496.814 98.758C518.63 100.078 535.245 118.865 533.927 140.718C532.609 162.572 513.856 179.217 492.043 177.897C486.583 177.566 481.451 176.143 476.841 173.85L463.988 181.465L469.056 168.746C459.759 160.948 454.144 148.992 454.93 135.937Z" fill="#D3DFFF"/>
<path d="M501.162 155.045C500.134 152.886 497.964 151.507 495.554 151.507C493.144 151.507 490.981 152.886 489.957 155.045H479.108V142.992L478.449 143.324C477.721 143.687 476.937 143.872 476.116 143.872C473.194 143.872 470.816 141.492 470.816 138.569C470.816 135.641 473.194 133.258 476.116 133.258C476.946 133.258 477.731 133.441 478.449 133.802L479.108 134.133V122.088H490.771L490.559 121.48C490.361 120.916 490.26 120.327 490.26 119.726C490.26 116.798 492.636 114.416 495.554 114.416C498.477 114.416 500.854 116.798 500.854 119.726C500.854 120.327 500.754 120.916 500.556 121.48L500.341 122.088H512.005V155.047H501.162V155.045Z" fill="white"/>
<path d="M495.554 114.869C498.226 114.869 500.398 117.045 500.398 119.722C500.398 120.27 500.307 120.809 500.127 121.325L499.701 122.54H500.987H511.551V154.586H501.443C500.291 152.418 498.043 151.048 495.554 151.048C493.067 151.048 490.821 152.418 489.677 154.586H479.563V143.73V142.253L478.243 142.913C477.58 143.244 476.864 143.413 476.114 143.413C473.442 143.413 471.269 141.238 471.269 138.566C471.269 135.89 473.442 133.713 476.114 133.713C476.871 133.713 477.587 133.88 478.243 134.206L479.563 134.866V133.389V122.538H490.128H491.414L490.987 121.321C490.807 120.807 490.716 120.265 490.716 119.717C490.716 117.045 492.886 114.869 495.554 114.869ZM495.554 113.955C492.378 113.955 489.804 116.54 489.804 119.722C489.804 120.389 489.918 121.031 490.128 121.627H478.651V133.391C477.89 133.01 477.028 132.799 476.116 132.799C472.934 132.799 470.36 135.378 470.36 138.566C470.36 141.748 472.934 144.326 476.116 144.326C477.028 144.326 477.892 144.109 478.651 143.73V155.499H490.253C491.115 153.423 493.165 151.961 495.554 151.961C497.95 151.961 499.999 153.423 500.868 155.499H512.465V121.627H500.989C501.199 121.031 501.313 120.389 501.313 119.722C501.31 116.54 498.736 113.955 495.554 113.955Z" fill="#708CD5"/>
<path opacity="0.2" d="M268.988 44.6205C268.988 54.6171 262.165 64.0792 253.112 66.8998H240.867C231.442 64.3145 224.512 54.8843 224.512 44.6205C224.512 32.3171 234.468 22.3411 246.751 22.3411C259.035 22.3411 268.988 32.3171 268.988 44.6205Z" fill="#FBC343"/>
<path d="M246.749 0V16.6336" stroke="#FBC343" stroke-width="8.5287" stroke-miterlimit="10"/>
<path d="M231.173 21.3589L216.619 10.4739" stroke="#FBC343" stroke-width="8.5287" stroke-miterlimit="10"/>
<path d="M262.327 21.3589L276.881 10.4739" stroke="#FBC343" stroke-width="8.5287" stroke-miterlimit="10"/>
<path d="M238.827 18.2779L235.79 10.4739" stroke="#FBC343" stroke-width="8.5287" stroke-miterlimit="10"/>
<path d="M254.673 18.2779L257.708 10.4739" stroke="#FBC343" stroke-width="8.5287" stroke-miterlimit="10"/>
<path d="M260.97 47.4433C260.97 39.895 254.215 33.8199 246.037 34.1921C238.783 34.5233 232.849 40.1029 232.543 46.8746C232.375 50.6522 233.9 54.0917 236.469 56.5971C239.194 59.2533 240.867 62.6951 240.867 66.3699V66.8975H253.112V65.8035C253.112 62.2909 254.667 58.9907 257.218 56.4076C259.545 54.0506 260.97 50.9057 260.97 47.4433Z" fill="#FBC343"/>
<path d="M246.749 77.794C243.368 77.794 240.625 75.0488 240.625 71.6595V71.3557H252.87V71.6595C252.873 75.0465 250.13 77.794 246.749 77.794Z" fill="#FBC343"/>
<path opacity="0.8" d="M242.189 48.8594C244.047 48.8594 245.552 47.3512 245.552 45.4907C245.552 43.6302 244.047 42.1219 242.189 42.1219C240.332 42.1219 238.827 43.6302 238.827 45.4907C238.827 47.3512 240.332 48.8594 242.189 48.8594Z" fill="white"/>
<path d="M369.554 81.2701V73.7264H365.961C365.496 71.6047 364.648 69.6268 363.49 67.8682L366.064 65.2897L360.74 59.9568L358.103 62.5993C356.354 61.5053 354.403 60.7105 352.317 60.288V56.4602H344.786V60.4182C342.778 60.8978 340.904 61.72 339.228 62.8254L336.363 59.9546L331.039 65.2874L333.969 68.2223C332.929 69.8918 332.161 71.7463 331.725 73.7264H327.549V81.2701H331.725C332.161 83.2503 332.927 85.1048 333.969 86.7743L331.039 89.7091L336.363 95.042L339.228 92.1712C340.904 93.2766 342.778 94.101 344.786 94.5784V98.5364H352.317V94.7086C354.403 94.286 356.354 93.4912 358.103 92.3973L360.74 95.0397L366.064 89.7068L363.49 87.1283C364.646 85.3697 365.496 83.3896 365.961 81.2701H369.554Z" fill="#F0F0F0"/>
<path d="M356.859 85.8247C361.449 81.2269 361.449 73.7724 356.859 69.1746C352.27 64.5768 344.829 64.5768 340.239 69.1746C335.65 73.7724 335.65 81.2269 340.239 85.8247C344.829 90.4225 352.27 90.4224 356.859 85.8247Z" fill="white"/>
<path d="M407.809 69.3664L409.5 64.1728L407.027 63.3643C407.182 61.7999 407.043 60.2468 406.639 58.7737L408.99 57.5769L406.521 52.7054L404.111 53.9318C403.153 52.7853 401.988 51.7987 400.646 51.0382L401.505 48.4025L396.321 46.7079L395.432 49.4326C393.943 49.3092 392.466 49.4554 391.066 49.8391L389.737 47.2172L384.874 49.6907L386.233 52.3719C385.141 53.2855 384.197 54.3909 383.454 55.6562L380.579 54.7152L378.887 59.9088L381.762 60.8498C381.616 62.3115 381.73 63.7617 382.072 65.1435L379.396 66.5047L381.865 71.3762L384.482 70.0447C385.387 71.1821 386.493 72.171 387.767 72.9544L386.878 75.6791L392.062 77.3737L392.922 74.7381C394.451 74.9163 395.974 74.8089 397.424 74.4481L398.648 76.8621L403.511 74.3887L402.317 72.034C403.507 71.0839 404.535 69.9123 405.333 68.5556L407.809 69.3664Z" fill="#F0F0F0"/>
<path d="M402.005 65.4264C403.868 61.1033 401.879 56.0861 397.564 54.22C393.249 52.354 388.241 54.3458 386.378 58.6688C384.515 62.9918 386.504 68.0091 390.819 69.8751C395.134 71.7411 400.142 69.7494 402.005 65.4264Z" fill="white"/>
<path d="M167.638 84.5634L171.434 79.3698L168.96 77.5541C169.708 75.8571 170.118 74.0666 170.207 72.2714L173.278 71.7964L172.298 65.4334L169.151 65.9199C168.499 64.2847 167.556 62.7499 166.331 61.4069L168.258 58.7713L163.074 54.9686L161.081 57.6956C159.458 57.0104 157.753 56.6313 156.043 56.5468L155.514 53.121L149.162 54.103L149.703 57.6043C148.145 58.2278 146.684 59.1162 145.387 60.2604L142.512 58.1501L138.716 63.3437L141.591 65.454C140.893 67.0367 140.488 68.7017 140.365 70.3758L136.87 70.9171L137.85 77.28L141.27 76.7501C141.867 78.358 142.742 79.8722 143.885 81.2152L141.892 83.9421L147.076 87.7448L149.003 85.1092C150.651 85.872 152.395 86.3105 154.15 86.4407L154.636 89.5925L160.988 88.6104L160.513 85.534C162.196 84.9059 163.776 83.9741 165.164 82.7477L167.638 84.5634Z" fill="#F0F0F0"/>
<path d="M165.093 71.8066C165.346 66.2634 161.065 61.5647 155.532 61.3117C149.998 61.0586 145.308 65.3472 145.055 70.8903C144.803 76.4335 149.084 81.1322 154.617 81.3853C160.15 81.6383 164.84 77.3498 165.093 71.8066Z" fill="white"/>
<path d="M121.203 73.2284L124.983 70.5083L123.686 68.7017C124.581 67.7014 125.265 66.5617 125.731 65.3467L127.951 65.7098L128.703 61.1078L126.428 60.7355C126.346 59.4611 126.041 58.1935 125.5 56.9922L127.418 55.6127L124.702 51.826L122.719 53.2535C121.755 52.4176 120.667 51.7712 119.509 51.3281L119.915 48.8501L115.321 48.0964L114.908 50.6293C113.698 50.7069 112.489 50.9901 111.343 51.4857L109.836 49.3868L106.056 52.107L107.563 54.2059C106.728 55.1377 106.074 56.1928 105.614 57.3188L103.085 56.9054L102.333 61.5075L104.807 61.914C104.857 63.1542 105.121 64.3943 105.605 65.5774L103.621 67.0048L106.336 70.7915L108.254 69.412C109.218 70.3096 110.319 71.0039 111.498 71.4881L111.126 73.7674L115.72 74.5211L116.082 72.2966C117.382 72.244 118.679 71.9563 119.91 71.4264L121.203 73.2284Z" fill="#F0F0F0"/>
<path d="M117.235 68.3793C121.134 67.4325 123.528 63.4987 122.583 59.5929C121.638 55.6872 117.711 53.2884 113.813 54.2352C109.914 55.182 107.52 59.1158 108.465 63.0216C109.41 66.9274 113.337 69.3261 117.235 68.3793Z" fill="white"/>
</g>
<defs>
<clipPath id="clip0">
<rect width="534" height="350" fill="white"/>
</clipPath>
</defs>
</svg>
