<svg width="103" height="106" viewBox="0 0 103 106" fill="none" xmlns="http://www.w3.org/2000/svg">
<mask id="mask0" style="mask-type:alpha" maskUnits="userSpaceOnUse" x="0" y="0" width="87" height="87">
<rect x="0.5" y="0.5" width="86" height="86" rx="4.5" fill="white" stroke="white"/>
</mask>
<g mask="url(#mask0)">
<line x1="-19.7925" y1="79.6716" x2="76.4091" y2="-16.53" stroke="#FF4949" stroke-width="2" stroke-linecap="round"/>
<line x1="11.5273" y1="110.774" x2="107.729" y2="14.5725" stroke="#FF4949" stroke-width="2" stroke-linecap="round"/>
<line x1="-44.1523" y1="54.0066" x2="52.0492" y2="-42.195" stroke="#FF4949" stroke-width="2" stroke-linecap="round"/>
<line x1="-38.4976" y1="59.8791" x2="57.704" y2="-36.3225" stroke="#FF4949" stroke-width="2" stroke-linecap="round"/>
<line x1="-12.8325" y1="85.7616" x2="83.3691" y2="-10.44" stroke="#FF4949" stroke-width="2" stroke-linecap="round"/>
<line x1="18.4873" y1="116.864" x2="114.689" y2="20.6625" stroke="#FF4949" stroke-width="2" stroke-linecap="round"/>
<line x1="-32.8423" y1="67.2741" x2="63.3593" y2="-28.9275" stroke="#FF4949" stroke-width="2" stroke-linecap="round"/>
<line x1="-5.22021" y1="90.9816" x2="90.9814" y2="-5.21998" stroke="#FF4949" stroke-width="2" stroke-linecap="round"/>
<line x1="26.1001" y1="122.084" x2="122.302" y2="25.8825" stroke="#FF4949" stroke-width="2" stroke-linecap="round"/>
<line x1="-25.4473" y1="72.929" x2="70.7543" y2="-23.2725" stroke="#FF4949" stroke-width="2" stroke-linecap="round"/>
<line x1="5.87256" y1="104.032" x2="102.074" y2="7.83001" stroke="#FF4949" stroke-width="2" stroke-linecap="round"/>
<line x1="0.652344" y1="97.2891" x2="96.8539" y2="1.08752" stroke="#FF4949" stroke-width="2" stroke-linecap="round"/>
<line x1="31.9727" y1="128.392" x2="128.174" y2="32.19" stroke="#FF4949" stroke-width="2" stroke-linecap="round"/>
<line x1="38.2798" y1="131.872" x2="134.481" y2="35.67" stroke="#FF4949" stroke-width="2" stroke-linecap="round"/>
</g>
<g clip-path="url(#clip0)">
<path d="M102.482 64.1873C102.293 64.5647 102.069 64.9186 101.816 65.237C99.5734 68.0737 94.8933 68.917 94.7108 69.725C94.6048 70.1968 94.9521 70.9811 95.1641 71.8657C95.4643 73.0983 95.5408 74.5255 93.8277 75.6283C93.8277 75.6283 96.783 77.7042 96.2649 79.8744C95.7469 82.0388 94.4517 81.8736 94.4517 84.6454C94.4517 87.4172 97.8544 93.5977 89.6539 94.211C81.4534 94.8244 71.369 94.211 71.369 94.211L75.1014 106H40.492C40.492 106 42.9763 92.2944 38.826 83.1534C34.6875 74.0242 21.2123 61.9757 23.2845 42.6676C25.3567 23.3535 35.7177 13.1805 51.4771 11.7238C67.2246 10.2731 80.8588 11.4113 87.7524 32.4945C91.4376 43.7645 101.816 54.1617 102.911 60.7786C103.129 62.1232 102.935 63.2378 102.482 64.1873Z" fill="#1D6B8D"/>
<path d="M76.2207 23.613C76.2207 26.1253 74.1839 28.1717 71.6701 28.1717C70.2808 28.1717 69.0446 27.5466 68.2145 26.5676H64.959V40.2261H51.3249V43.6525C52.3021 44.484 52.9261 45.7225 52.9261 47.1143C52.9261 49.6266 50.8892 51.673 48.3755 51.673C45.8618 51.673 43.8249 49.6325 43.8249 47.1143C43.8249 45.7343 44.4371 44.4899 45.4203 43.6525V40.2261H31.792V26.5617H37.4258C38.2559 27.5407 39.4921 28.1658 40.8814 28.1658C43.3893 28.1658 45.432 26.1253 45.432 23.6071C45.432 21.0948 43.3952 19.0484 40.8814 19.0484C39.5039 19.0484 38.2617 19.6618 37.4258 20.6466H31.792V7H45.4203V9.47692C44.443 10.3144 43.8249 11.5528 43.8249 12.9387C43.8249 15.451 45.8618 17.4974 48.3755 17.4974C50.8892 17.4974 52.9261 15.4569 52.9261 12.9387C52.9261 11.5469 52.3021 10.3085 51.3249 9.47692V7H64.959V20.6525H68.2145C69.0504 19.6736 70.2867 19.0543 71.6701 19.0543C74.1839 19.0543 76.2207 21.1007 76.2207 23.613Z" fill="#E76044"/>
<path d="M32.1742 48.7891C34.0168 48.7891 35.5121 50.2871 35.5121 52.133C35.5121 53.1532 35.0529 54.0614 34.3347 54.6747V57.0691H44.3425V67.0947H46.8503C47.4567 66.3752 48.3692 65.9152 49.3876 65.9152C51.2302 65.9152 52.7255 67.4132 52.7255 69.2591C52.7255 71.105 51.2302 72.6029 49.3876 72.6029C48.3751 72.6029 47.4685 72.1488 46.8503 71.4293H44.3425V81.449H34.3347V77.3031C35.0529 76.6957 35.5121 75.7816 35.5121 74.7614C35.5121 72.9155 34.0168 71.4175 32.1742 71.4175C30.3316 71.4175 28.8363 72.9155 28.8363 74.7614C28.8363 75.7757 29.2896 76.6839 30.0078 77.3031V81.449H20V71.4293H21.8191C22.4313 72.1488 23.3438 72.6029 24.3563 72.6029C26.1989 72.6029 27.6942 71.105 27.6942 69.2591C27.6942 67.4132 26.1989 65.9152 24.3563 65.9152C23.3379 65.9152 22.4313 66.3752 21.8191 67.0947H20V57.0691H30.0019V54.6747C29.2837 54.0614 28.8304 53.1473 28.8304 52.133C28.8363 50.2871 30.3316 48.7891 32.1742 48.7891Z" fill="#E8B83E"/>
<path d="M70.3748 46.8312C71.5522 46.8312 72.5118 47.7925 72.5118 48.9719C72.5118 49.6266 72.2174 50.2045 71.7583 50.5996V52.133H78.1632V58.5435H79.7704C80.1589 58.0835 80.7417 57.7886 81.3952 57.7886C82.5726 57.7886 83.5321 58.7499 83.5321 59.9293C83.5321 61.1088 82.5726 62.0701 81.3952 62.0701C80.7476 62.0701 80.1648 61.7811 79.7704 61.3211H78.1632V67.7316H71.7583V65.0837C72.2174 64.6945 72.5118 64.1106 72.5118 63.456C72.5118 62.2765 71.5522 61.3152 70.3748 61.3152C69.1974 61.3152 68.2379 62.2765 68.2379 63.456C68.2379 64.1047 68.5263 64.6886 68.9855 65.0837V67.7316H62.5923V61.3211H63.752C64.1464 61.7811 64.7234 62.0701 65.3768 62.0701C66.5542 62.0701 67.5138 61.1088 67.5138 59.9293C67.5138 58.7499 66.5542 57.7886 65.3768 57.7886C64.7234 57.7886 64.1464 58.0835 63.752 58.5435H62.5923V52.1271H68.9914V50.5937C68.5322 50.1986 68.2437 49.6207 68.2437 48.966C68.2437 47.7866 69.1974 46.8312 70.3748 46.8312Z" fill="#009DAA"/>
</g>
<defs>
<clipPath id="clip0">
<rect width="83" height="99" fill="white" transform="translate(20 7)"/>
</clipPath>
</defs>
</svg>
