<svg width="351" height="81" viewBox="0 0 351 81" fill="none" xmlns="http://www.w3.org/2000/svg">
<rect x="12.5" y="12.5" width="327" height="55" stroke="#FBA229" stroke-linejoin="round"/>
<path d="M11.4889 13.4002L5.75381 11.7939L5.74821 11.7925C4.92351 11.5778 4.14443 11.1468 3.49919 10.5009C1.56697 8.56675 1.56785 5.43205 3.50271 3.49913C5.43688 1.56691 8.57228 1.56849 10.5045 3.50266C11.1497 4.14855 11.5793 4.92876 11.7931 5.75368L11.7938 5.75298L13.3957 11.4953C13.7193 12.657 12.6496 13.7256 11.4889 13.4002Z" fill="#FBA229"/>
<path d="M13.5336 69.1454L11.9272 74.8805L11.9258 74.8861C11.7111 75.7108 11.28 76.4898 10.6341 77.1351C8.69994 79.0672 5.56524 79.0663 3.63236 77.1314C1.70018 75.1972 1.70182 72.0618 3.63603 70.1296C4.28193 69.4844 5.06215 69.0549 5.88708 68.8411L5.88638 68.8404L11.6287 67.2385C12.7904 66.915 13.8591 67.9847 13.5336 69.1454Z" fill="#FBA229"/>
<path d="M339.237 11.6212L340.844 5.88615L340.845 5.88054C341.06 5.05585 341.491 4.27677 342.137 3.63155C344.071 1.69937 347.206 1.70031 349.139 3.63521C351.071 5.56942 351.069 8.70482 349.135 10.637C348.489 11.2822 347.709 11.7117 346.884 11.9255L346.885 11.9263L341.142 13.5281C339.981 13.8516 338.912 12.7819 339.237 11.6212Z" fill="#FBA229"/>
<path d="M341.146 66.2366L346.881 67.843L346.886 67.8444C347.711 68.0591 348.49 68.4901 349.135 69.136C351.067 71.0702 351.067 74.2049 349.132 76.1378C347.197 78.07 344.062 78.0683 342.13 76.1341C341.485 75.4882 341.055 74.708 340.841 73.8831L340.841 73.8838L339.239 68.1415C338.915 66.9797 339.985 65.9111 341.146 66.2366Z" fill="#FBA229"/>
<path d="M56.329 22.602L44.128 57H33.642L21.441 22.602H30.359L38.885 48.572L47.46 22.602H56.329ZM85.605 42.888C85.605 43.672 85.556 44.4887 85.458 45.338H66.495C66.6256 47.0367 67.1646 48.3433 68.112 49.258C69.092 50.14 70.2843 50.581 71.689 50.581C73.7796 50.581 75.2333 49.699 76.05 47.935H84.968C84.5106 49.7317 83.6776 51.3487 82.469 52.786C81.293 54.2233 79.8066 55.3503 78.01 56.167C76.2133 56.9837 74.2043 57.392 71.983 57.392C69.3043 57.392 66.9196 56.8203 64.829 55.677C62.7383 54.5337 61.105 52.9003 59.929 50.777C58.753 48.6537 58.165 46.171 58.165 43.329C58.165 40.487 58.7366 38.0043 59.88 35.881C61.056 33.7577 62.6893 32.1243 64.78 30.981C66.8706 29.8377 69.2716 29.266 71.983 29.266C74.629 29.266 76.981 29.8213 79.039 30.932C81.097 32.0427 82.6976 33.627 83.841 35.685C85.017 37.743 85.605 40.144 85.605 42.888ZM77.03 40.683C77.03 39.2457 76.54 38.1023 75.56 37.253C74.58 36.4037 73.355 35.979 71.885 35.979C70.4803 35.979 69.288 36.3873 68.308 37.204C67.3606 38.0207 66.7726 39.1803 66.544 40.683H77.03ZM88.3593 43.28C88.3593 40.4707 88.882 38.0043 89.9273 35.881C91.0053 33.7577 92.459 32.1243 94.2883 30.981C96.1176 29.8377 98.1593 29.266 100.413 29.266C102.21 29.266 103.843 29.6417 105.313 30.393C106.816 31.1443 107.992 32.157 108.841 33.431V20.74H117.22V57H108.841V53.08C108.057 54.3867 106.93 55.432 105.46 56.216C104.023 57 102.341 57.392 100.413 57.392C98.1593 57.392 96.1176 56.8203 94.2883 55.677C92.459 54.501 91.0053 52.8513 89.9273 50.728C88.882 48.572 88.3593 46.0893 88.3593 43.28ZM108.841 43.329C108.841 41.2383 108.253 39.5887 107.077 38.38C105.934 37.1713 104.529 36.567 102.863 36.567C101.197 36.567 99.7763 37.1713 98.6003 38.38C97.457 39.556 96.8853 41.1893 96.8853 43.28C96.8853 45.3707 97.457 47.0367 98.6003 48.278C99.7763 49.4867 101.197 50.091 102.863 50.091C104.529 50.091 105.934 49.4867 107.077 48.278C108.253 47.0693 108.841 45.4197 108.841 43.329ZM127.496 26.816C126.026 26.816 124.817 26.3913 123.87 25.542C122.955 24.66 122.498 23.582 122.498 22.308C122.498 21.0013 122.955 19.9233 123.87 19.074C124.817 18.192 126.026 17.751 127.496 17.751C128.933 17.751 130.109 18.192 131.024 19.074C131.971 19.9233 132.445 21.0013 132.445 22.308C132.445 23.582 131.971 24.66 131.024 25.542C130.109 26.3913 128.933 26.816 127.496 26.816ZM131.661 29.658V57H123.282V29.658H131.661ZM136.067 43.329C136.067 40.487 136.639 38.0043 137.782 35.881C138.958 33.7577 140.575 32.1243 142.633 30.981C144.724 29.8377 147.109 29.266 149.787 29.266C153.217 29.266 156.076 30.1643 158.362 31.961C160.682 33.7577 162.201 36.2893 162.919 39.556H154.001C153.25 37.4653 151.796 36.42 149.64 36.42C148.105 36.42 146.88 37.0243 145.965 38.233C145.051 39.409 144.593 41.1077 144.593 43.329C144.593 45.5503 145.051 47.2653 145.965 48.474C146.88 49.65 148.105 50.238 149.64 50.238C151.796 50.238 153.25 49.1927 154.001 47.102H162.919C162.201 50.3033 160.682 52.8187 158.362 54.648C156.043 56.4773 153.185 57.392 149.787 57.392C147.109 57.392 144.724 56.8203 142.633 55.677C140.575 54.5337 138.958 52.9003 137.782 50.777C136.639 48.6537 136.067 46.171 136.067 43.329ZM216.74 22.602V57H208.361V36.371L200.668 57H193.906L186.164 36.322V57H177.785V22.602H187.683L197.336 46.416L206.891 22.602H216.74ZM221.1 43.28C221.1 40.4707 221.622 38.0043 222.668 35.881C223.746 33.7577 225.199 32.1243 227.029 30.981C228.858 29.8377 230.9 29.266 233.154 29.266C235.081 29.266 236.763 29.658 238.201 30.442C239.671 31.226 240.798 32.255 241.582 33.529V29.658H249.961V57H241.582V53.129C240.765 54.403 239.622 55.432 238.152 56.216C236.714 57 235.032 57.392 233.105 57.392C230.883 57.392 228.858 56.8203 227.029 55.677C225.199 54.501 223.746 52.8513 222.668 50.728C221.622 48.572 221.1 46.0893 221.1 43.28ZM241.582 43.329C241.582 41.2383 240.994 39.5887 239.818 38.38C238.674 37.1713 237.27 36.567 235.604 36.567C233.938 36.567 232.517 37.1713 231.341 38.38C230.197 39.556 229.626 41.1893 229.626 43.28C229.626 45.3707 230.197 47.0367 231.341 48.278C232.517 49.4867 233.938 50.091 235.604 50.091C237.27 50.091 238.674 49.4867 239.818 48.278C240.994 47.0693 241.582 45.4197 241.582 43.329ZM271.261 49.895V57H266.998C263.96 57 261.592 56.265 259.893 54.795C258.195 53.2923 257.345 50.8587 257.345 47.494V36.616H254.013V29.658H257.345V22.994H265.724V29.658H271.212V36.616H265.724V47.592C265.724 48.4087 265.92 48.9967 266.312 49.356C266.704 49.7153 267.358 49.895 268.272 49.895H271.261ZM292.736 29.364C295.872 29.364 298.387 30.4093 300.282 32.5C302.176 34.558 303.124 37.4 303.124 41.026V57H294.794V42.153C294.794 40.3237 294.32 38.9027 293.373 37.89C292.425 36.8773 291.151 36.371 289.551 36.371C287.95 36.371 286.676 36.8773 285.729 37.89C284.781 38.9027 284.308 40.3237 284.308 42.153V57H275.929V20.74H284.308V33.333C285.157 32.1243 286.317 31.1607 287.787 30.442C289.257 29.7233 290.906 29.364 292.736 29.364ZM320.069 57.392C317.685 57.392 315.561 56.9837 313.699 56.167C311.837 55.3503 310.367 54.2397 309.289 52.835C308.211 51.3977 307.607 49.797 307.476 48.033H315.757C315.855 48.9803 316.296 49.748 317.08 50.336C317.864 50.924 318.828 51.218 319.971 51.218C321.017 51.218 321.817 51.022 322.372 50.63C322.96 50.2053 323.254 49.6663 323.254 49.013C323.254 48.229 322.846 47.6573 322.029 47.298C321.213 46.906 319.89 46.4813 318.06 46.024C316.1 45.5667 314.467 45.093 313.16 44.603C311.854 44.0803 310.727 43.28 309.779 42.202C308.832 41.0913 308.358 39.605 308.358 37.743C308.358 36.175 308.783 34.754 309.632 33.48C310.514 32.1733 311.788 31.1443 313.454 30.393C315.153 29.6417 317.162 29.266 319.481 29.266C322.911 29.266 325.606 30.1153 327.566 31.814C329.559 33.5127 330.702 35.7667 330.996 38.576H323.254C323.124 37.6287 322.699 36.8773 321.98 36.322C321.294 35.7667 320.38 35.489 319.236 35.489C318.256 35.489 317.505 35.685 316.982 36.077C316.46 36.4363 316.198 36.9427 316.198 37.596C316.198 38.38 316.607 38.968 317.423 39.36C318.273 39.752 319.579 40.144 321.343 40.536C323.369 41.0587 325.018 41.5813 326.292 42.104C327.566 42.594 328.677 43.4107 329.624 44.554C330.604 45.6647 331.111 47.1673 331.143 49.062C331.143 50.6627 330.686 52.1 329.771 53.374C328.889 54.6153 327.599 55.5953 325.9 56.314C324.234 57.0327 322.291 57.392 320.069 57.392Z" fill="#2D3092"/>
</svg>
