<svg width="104" height="104" viewBox="0 0 104 104" fill="none" xmlns="http://www.w3.org/2000/svg">
<g opacity="0.3" clip-path="url(#clip0_1505:13622)">
<path d="M91.7058 42.8397L54.2197 45.8593L51.4736 42.2026L50.5791 31.1177L88.065 28.0981L90.8178 31.7575L91.7058 42.8397ZM55.062 43.9909L89.7706 41.1956L89.0626 32.4185L87.2162 29.9652L52.507 32.7605L53.2116 41.5349L55.062 43.9909Z" fill="white"/>
<path d="M87.637 29.0316L87.8962 32.2515L53.8395 34.9947L54.381 41.7043L52.3408 41.8687L54.6404 44.9243L58.9414 44.5784L90.737 42.0183L89.9362 32.0873L87.637 29.0316Z" fill="#AF563A"/>
<path d="M87.637 29.0306L51.54 31.9382L52.3416 41.869L88.4386 38.9614L87.637 29.0306Z" fill="#D16B42"/>
<path d="M69.5386 96.1376L68.5332 91.6704L95.1252 65.1016L102.995 72.9638L104 77.4297L77.4106 104L69.5386 96.1376ZM101.359 73.8652L95.1284 67.639L70.5026 92.2424L71.171 95.236L77.4106 101.462L102.029 76.8595L101.359 73.8652Z" fill="white"/>
<path d="M95.1252 104L68.5332 77.4231L69.5386 72.9571L77.4106 65.1016L104 91.6704L102.995 96.1376L95.1252 104ZM70.5026 76.8595L95.1252 101.462L101.356 95.236L102.024 92.2424L77.4106 67.639L71.179 73.8652L70.5026 76.8595Z" fill="white"/>
<path d="M102.174 95.6864L103.014 91.956L100.728 94.2416L93.3156 86.836L99.9628 80.1944L103.014 77.1452L102.174 73.4151L100.728 74.8601L95.9644 70.1003L86.266 79.7909L76.5674 70.1003L71.8037 74.8601L70.3558 73.4151L69.5176 77.1452L72.5685 80.1944L79.2145 86.836L71.8037 94.2416L69.5176 91.956L70.3558 95.6864L77.407 102.731L86.266 93.8792L95.1244 102.731L102.174 95.6864Z" fill="#AF563A"/>
<path d="M103.014 91.956L93.3156 82.2656L102.174 73.4152L95.1244 66.3704L86.266 75.2222L77.407 66.3704L70.3558 73.4152L79.2145 82.2656L69.5176 91.956L76.5674 99.0008L86.266 89.3104L95.9644 99.0008L103.014 91.956Z" fill="#D16B42"/>
<path d="M33.6758 50.774L31.3949 49.7349C30.6652 49.367 29.8696 49.1477 29.0542 49.0897C28.2388 49.0317 27.42 49.1362 26.6456 49.3972C25.871 49.6581 25.1561 50.0704 24.5425 50.6098C23.9289 51.1493 23.4288 51.8052 23.0713 52.5395C22.7138 53.2737 22.506 54.0717 22.46 54.887C22.414 55.7022 22.5307 56.5185 22.8034 57.2882C23.076 58.058 23.4992 58.7659 24.0483 59.3708C24.5973 59.9757 25.2613 60.4655 26.0016 60.8117L28.3974 61.8962C28.6065 62.0054 28.8216 62.1026 29.0419 62.1873L29.0632 62.1967C30.5736 62.7784 32.2523 62.7433 33.7369 62.099C35.2216 61.4548 36.393 60.2532 36.9983 58.7535C37.6036 57.2539 37.5941 55.5766 36.972 54.0839C36.3498 52.5912 35.1649 51.4028 33.6731 50.7753L33.6758 50.774Z" fill="#D16B42"/>
<path d="M32.959 63.1984C31.5862 63.546 30.1398 63.4654 28.8144 62.9674C28.7843 62.9575 28.7548 62.9459 28.7262 62.9326C28.4925 62.8418 28.264 62.7383 28.0416 62.6227L25.6658 61.5543H25.6525C24.8165 61.164 24.0663 60.6119 23.4455 59.9299C22.8247 59.248 22.3455 58.4498 22.0357 57.5815C21.7259 56.7132 21.5917 55.7922 21.6407 54.8717C21.6898 53.9512 21.9213 53.0497 22.3217 52.2192C22.7221 51.3887 23.2834 50.6458 23.9733 50.0336C24.6631 49.4214 25.4677 48.952 26.3405 48.6526C27.2132 48.3533 28.1367 48.2298 29.0576 48.2895C29.9784 48.3492 30.8782 48.5909 31.7049 49.0004L31.7263 49.0098L34.0071 50.0502H34.0138C35.3538 50.6258 36.4794 51.6067 37.2321 52.8548C37.9848 54.1029 38.3268 55.5554 38.2099 57.0078C38.093 58.4602 37.5231 59.8394 36.5805 60.9514C35.6378 62.0633 34.3698 62.8519 32.955 63.2064L32.959 63.1984ZM29.3491 61.4395H29.3558C30.6655 61.9318 32.1161 61.8928 33.3973 61.3307C34.6785 60.7686 35.6886 59.728 36.2118 58.4315C36.7349 57.135 36.7294 55.6855 36.1965 54.393C35.6635 53.1006 34.6455 52.0676 33.3601 51.5152L33.3173 51.4952L31.1073 50.4882C31.0832 50.4788 31.0605 50.4682 31.0364 50.4562C29.7588 49.8338 28.2861 49.7439 26.9422 50.2062C25.5982 50.6686 24.4933 51.6453 23.8702 52.9215C23.2473 54.1977 23.1573 55.6689 23.6202 57.0113C24.083 58.3538 25.0607 59.4576 26.3383 60.0799L28.7328 61.167L28.7742 61.187C28.9559 61.2823 29.143 61.367 29.3345 61.4408L29.3491 61.4395Z" fill="white"/>
<path d="M55.3502 74.7333L18.8777 83.8857L15.558 80.7297L12.8467 69.9454L49.3204 60.7917L52.6402 63.9476L55.3502 74.7333ZM19.3992 81.9041L53.1709 73.4298L51.0251 64.8825L48.7991 62.7697L15.0272 71.2489L17.1664 79.7883L19.3992 81.9041Z" fill="white"/>
<path d="M49.0595 61.7827L49.8483 64.9172L16.7088 73.2322L18.3507 79.7615L16.3652 80.26L19.1381 82.8944L23.3228 81.8448L54.2616 74.0816L51.8323 64.419L49.0595 61.7827Z" fill="#AF563A"/>
<path d="M49.0589 61.7853L13.9355 70.5982L16.365 80.26L51.4883 71.4469L49.0589 61.7853Z" fill="#D16B42"/>
<path d="M33.6752 50.7739L31.3943 49.7349L31.7606 50.3025C30.5068 50.2019 29.2522 50.4867 28.165 51.1187C27.0778 51.7507 26.21 52.6997 25.6782 53.8384C25.1462 54.977 24.9756 56.2509 25.1891 57.4893C25.4026 58.7275 25.9901 59.871 26.8727 60.7663L26.0023 60.8104L28.3982 61.8948C28.6073 62.004 28.8225 62.1013 29.0426 62.186L29.064 62.1953C30.5743 62.7769 32.253 62.7418 33.7378 62.0977C35.2224 61.4534 36.3938 60.2517 36.999 58.7521C37.6043 57.2525 37.5949 55.5753 36.9727 54.0825C36.3506 52.5897 35.1657 51.4013 33.6738 50.7739H33.6752Z" fill="#AF563A"/>
<path d="M28.6462 61.406C32.0509 61.406 34.8109 58.6484 34.8109 55.2466C34.8109 51.8448 32.0509 49.0872 28.6462 49.0872C25.2414 49.0872 22.4814 51.8448 22.4814 55.2466C22.4814 58.6484 25.2414 61.406 28.6462 61.406Z" fill="#D16B42"/>
<path d="M42.077 84.1968L39.8041 83.1576C39.0744 82.7896 38.2787 82.5704 37.4634 82.5128C36.648 82.4544 35.8293 82.5592 35.0547 82.82C34.2802 83.0808 33.5653 83.4936 32.9517 84.0328C32.3381 84.572 31.838 85.228 31.4805 85.9624C31.123 86.6968 30.9151 87.4944 30.8691 88.3096C30.8231 89.1248 30.9399 89.9416 31.2126 90.7112C31.4852 91.4808 31.9084 92.1888 32.4575 92.7936C33.0065 93.3984 33.6705 93.8888 34.4107 94.2344L36.8066 95.3192C37.0157 95.428 37.2309 95.5256 37.4511 95.6104L37.4724 95.6192C38.9827 96.2016 40.6615 96.1664 42.1461 95.5216C43.6308 94.8776 44.8022 93.676 45.4075 92.1768C46.0127 90.6768 46.0033 88.9992 45.3811 87.5064C44.759 86.0144 43.5741 84.8256 42.0823 84.1984L42.077 84.1968Z" fill="#D16B42"/>
<path d="M41.3608 96.6217C39.9901 96.9673 38.5463 96.8873 37.2229 96.3905C37.1924 96.3809 37.1625 96.3689 37.1333 96.3553C36.8993 96.2649 36.6704 96.1609 36.4474 96.0457L34.0729 94.9777H34.0596C32.393 94.1753 31.1136 92.7457 30.5027 91.0017C29.8917 89.2569 29.9995 87.3425 30.8021 85.6777C31.6047 84.0129 33.0365 82.7345 34.7824 82.1241C36.5284 81.5137 38.4455 81.6217 40.1121 82.4233L40.1334 82.4329L42.4129 83.4721H42.4209C43.7603 84.0481 44.8851 85.0289 45.6373 86.2769C46.3894 87.5249 46.7311 88.9769 46.6142 90.4289C46.4973 91.8809 45.9278 93.2601 44.9857 94.3721C44.0437 95.4841 42.7764 96.2729 41.3621 96.6281L41.3608 96.6217ZM37.7509 94.8625C39.0608 95.3569 40.5125 95.3201 41.7952 94.7585C43.0778 94.1969 44.0894 93.1561 44.6134 91.8593C45.1374 90.5617 45.1321 89.1113 44.5986 87.8177C44.0652 86.5249 43.0459 85.4913 41.7592 84.9393C41.7458 84.9393 41.7311 84.9273 41.7177 84.9193L39.5077 83.9129L39.4369 83.8817C38.8018 83.5457 38.1056 83.3417 37.3897 83.2801C36.6738 83.2185 35.9529 83.3017 35.2697 83.5241C34.5866 83.7465 33.9553 84.1041 33.4134 84.5753C32.8714 85.0465 32.43 85.6217 32.1152 86.2673C31.8004 86.9121 31.6187 87.6145 31.581 88.3313C31.5433 89.0481 31.6505 89.7649 31.8958 90.4393C32.1413 91.1137 32.52 91.7321 33.0095 92.2577C33.4991 92.7833 34.0894 93.2049 34.7454 93.4977L37.1333 94.5777L37.1761 94.5977C37.3577 94.6937 37.5448 94.7777 37.7362 94.8521L37.7509 94.8625Z" fill="white"/>
<path d="M42.0775 84.1968L39.8046 83.1576L40.171 83.7256C38.9163 83.6232 37.6604 83.9072 36.5721 84.5392C35.4838 85.1712 34.6152 86.1208 34.083 87.2608C33.5508 88.4 33.3806 89.6752 33.5951 90.9144C33.8095 92.1536 34.3986 93.2968 35.283 94.192L34.4127 94.236L36.8085 95.3208C37.0175 95.4296 37.2327 95.5272 37.4529 95.6112L37.4743 95.6208C38.9846 96.2024 40.6634 96.1672 42.148 95.5232C43.6327 94.8792 44.8041 93.6776 45.4094 92.1776C46.0146 90.6784 46.0051 89.0008 45.383 87.508C44.7609 86.0152 43.5759 84.8272 42.0842 84.1992L42.0775 84.1968Z" fill="#AF563A"/>
<path d="M43.2123 88.6825C43.2165 85.2809 40.4599 82.5201 37.0551 82.5161C33.6504 82.5113 30.887 85.2657 30.8828 88.6673C30.8787 92.0697 33.6354 94.8305 37.0401 94.8345C40.4447 94.8385 43.2082 92.0841 43.2123 88.6825Z" fill="#D16B42"/>
<path d="M16.3999 40.0243L12.5293 37.5763V0H23.6649L27.5421 2.44802V40.0243H16.3999ZM23.1368 1.79494H14.3249V36.5934L16.9213 38.2347H25.7332V3.4363L23.1368 1.79494Z" fill="white"/>
<path d="M40.0569 27.5118H2.45066L0 23.6388V12.5178H37.6062L40.0569 16.3909V27.5118ZM3.43868 25.7115H38.26V16.9064L36.6182 14.3128H1.79688V23.1179L3.43868 25.7115Z" fill="white"/>
<path d="M39.1584 16.646L37.1129 13.4154V16.646H26.631V7.25322V2.94215L23.397 0.897461V2.94215H16.6599V16.646H2.944V23.377H0.898438L2.944 26.609H7.25973H16.6599V37.0822H13.4258L16.6599 39.1269H26.631V26.609H39.1584V16.646Z" fill="#AF563A"/>
<path d="M37.1129 13.4154H23.397V0.897461H13.4258V13.4154H0.898438V23.377H13.4258V37.0822H23.397V23.377H37.1129V13.4154Z" fill="#D16B42"/>
</g>
<defs>
<clipPath id="clip0_1505:13622">
<rect width="104" height="104" fill="white"/>
</clipPath>
</defs>
</svg>
