<svg width="136" height="136" viewBox="0 0 136 136" fill="none" xmlns="http://www.w3.org/2000/svg">
<circle cx="68" cy="68" r="68" fill="white"/>
<path d="M61.2815 110.601C59.0415 110.977 57.0615 109.914 55.1515 108.43C51.6515 105.701 49.2815 105.691 45.5715 108.156C40.4015 111.6 36.7515 111.572 31.6415 108.082C30.6015 107.377 29.5415 106.672 28.2115 106.507C27.3915 106.406 26.9715 106.085 27.0015 105.27C27.0415 104.29 27.9115 104.436 28.5115 104.299C30.3215 103.878 31.5215 104.977 32.7315 105.884C37.5415 109.438 39.2415 109.475 44.2415 106.03C48.2015 103.301 52.2215 103.319 56.2415 106.113C61.0615 109.456 62.6815 109.429 67.4715 105.92C70.9715 103.346 75.6015 103.401 79.2015 106.058C83.7115 109.383 85.9715 109.392 90.5515 106.085C94.3215 103.365 98.4515 103.319 102.271 105.957C103.771 106.992 105.081 108.293 107.111 108.522C108.031 108.623 108.101 109.328 108.011 109.988C107.901 110.775 107.161 110.583 106.611 110.611C104.801 110.693 103.401 109.933 102.041 108.888C97.6915 105.563 95.7415 105.545 91.2915 108.586C86.8115 111.646 82.3815 111.517 78.0215 108.22C74.7515 105.746 71.7315 105.783 68.3815 108.339C65.4015 110.592 65.3615 110.611 61.2815 110.601Z" fill="#D88051"/>
<path d="M96.999 72C77.2661 72 57.7466 72 38.063 72C38.1368 69.1062 37.5705 66.2082 38.8469 63.4597C40.0945 60.7735 42.1877 59.1335 45.0154 58.4069C48.5286 57.5018 50.2975 55.1893 50.3139 51.5066C50.3345 47.3299 50.1128 43.1448 51.2374 39.0429C53.5891 30.4486 58.6947 24.1627 66.5665 20.1977C67.0877 19.9362 67.966 19.932 68.479 20.1977C78.682 25.5536 84.1036 34.0648 84.6905 45.6858C84.7931 47.7077 84.6987 49.7421 84.7152 51.7723C84.7398 55.1062 86.6236 57.5434 89.7879 58.3613C94.4298 59.5611 96.9785 62.866 96.9949 67.7029C97.0031 69.102 96.999 70.5012 96.999 72ZM57.172 31.7523C56.9668 32.0429 56.7616 32.2961 56.5974 32.5743C54.139 36.7095 52.8175 41.1852 52.7928 46.0096C52.7518 53.4995 52.7805 60.9935 52.7846 68.4875C52.7846 68.8072 52.8339 69.1228 52.8585 69.4466C62.688 69.4466 72.4355 69.4466 82.2075 69.4466C82.228 69.1477 82.2527 68.9443 82.2527 68.7408C82.2527 61.0433 82.2732 53.3417 82.2362 45.6442C82.2198 42.6383 81.6452 39.7071 80.5125 36.9296C79.7737 35.1235 78.8462 33.3922 78.1444 31.9225C74.8569 33.0642 71.906 34.0856 68.7294 35.1858C68.7294 36.4314 68.7294 38.0257 68.7294 39.6241C67.847 39.6241 67.1 39.6241 66.2628 39.6241C66.2628 37.9634 66.2628 36.4023 66.2628 34.9076C64.658 34.5132 63.119 34.2516 61.662 33.7451C60.1681 33.222 58.7521 32.4622 57.172 31.7523ZM76.1333 29.5975C76.121 29.5186 76.1374 29.4148 76.0964 29.3608C73.9006 26.5085 71.1303 24.3662 67.9701 22.7303C67.6623 22.5726 67.0631 22.693 66.743 22.9047C64.9782 24.0838 63.201 25.263 61.5389 26.5874C60.5046 27.4095 59.6674 28.4889 58.7275 29.4688C63.6115 33.1597 71.4997 33.1597 76.1333 29.5975ZM40.3695 69.4466C43.8334 69.4466 47.0347 69.4466 50.2072 69.4466C50.2072 65.7515 50.2072 62.1477 50.2072 58.8512C48.5368 59.5404 46.8828 60.3085 45.1755 60.9146C43.0167 61.6827 41.4284 63.0362 40.8251 65.2657C40.4762 66.5611 40.5173 67.9603 40.3695 69.4466ZM94.5324 69.5047C94.5324 68.6163 94.5652 67.8357 94.5283 67.0593C94.3969 64.4354 93.1985 62.4508 90.8386 61.3464C88.8399 60.4123 86.7549 59.6691 84.8137 58.8802C84.8137 62.2349 84.8137 65.8512 84.8137 69.5047C88.0519 69.5047 91.1957 69.5047 94.5324 69.5047Z" fill="#D88051"/>
<path d="M44 84.4504C44.5394 83.9924 45.083 83.5344 45.7151 83C51.716 88.5728 58.8758 91.718 67.4895 91.7218C76.1073 91.7256 83.2755 88.5919 89.2849 83.0038C89.9043 83.5191 90.4522 83.9695 91 84.4199C79.1415 97.0312 56.3726 97.3442 44 84.4504Z" fill="#D88051"/>
<path d="M49 80.5086C49.5526 80.0517 50.1094 79.5908 50.776 79.0394C55.3909 83.2698 60.9087 85.6411 67.4431 85.6568C73.9943 85.6726 79.5289 83.3407 84.262 79C84.8737 79.5318 85.4389 80.0241 86 80.5165C76.3608 90.5135 58.6392 90.4781 49 80.5086Z" fill="#D88051"/>
<path d="M54 76.8267C54.5681 76.1845 55.0832 75.5994 55.5818 75.0333C64.8562 82.0402 69.6957 82.0402 78.5531 75C79.0231 75.5803 79.5136 76.1892 80 76.7934C74.4534 84.2141 61.7456 85.8695 54 76.8267Z" fill="#D88051"/>
<path d="M42 35C42.3505 35 42.6619 35 43 35C43 38.0051 43 40.9528 43 44C42.6833 44 42.3612 44 42 44C42 41.0484 42 38.0739 42 35Z" fill="#D88051"/>
<path d="M91 46C90.3012 46 89.6809 46 89 46C89 42.6469 89 39.3531 89 36C89.6774 36 90.3012 36 91 36C91 39.3023 91 42.592 91 46Z" fill="#D88051"/>
<path d="M36 57C34.9661 57 34.0286 57 33 57C33 53.6512 33 50.3573 33 47C34.0071 47 34.9393 47 36 47C36 50.2939 36 53.5835 36 57Z" fill="#D88051"/>
<path d="M99 33C100.048 33 100.979 33 102 33C102 36.0232 102 38.9768 102 42C100.984 42 100.048 42 99 42C99 39.029 99 36.0755 99 33Z" fill="#D88051"/>
<path d="M99 59C98.3025 59 97.6797 59 97 59C97 55.6409 97 52.3591 97 49C97.6797 49 98.2989 49 99 49C99 52.3059 99 55.5876 99 59Z" fill="#D88051"/>
<path d="M46 28C45.3012 28 44.6774 28 44 28C44 25.3107 44 22.6893 44 20C44.6774 20 45.3012 20 46 20C46 22.635 46 25.2564 46 28Z" fill="#D88051"/>
<path d="M36 31C34.9537 31 34.0196 31 33 31C33 28.983 33 27.017 33 25C34.0196 25 34.9484 25 36 25C36 26.9796 36 28.9457 36 31Z" fill="#D88051"/>
<path d="M93 23C94.0089 23 94.9428 23 96 23C96 24.9685 96 26.9411 96 29C95.0394 29 94.068 29 93 29C93 27.0027 93 25.0343 93 23Z" fill="#D88051"/>
<path d="M33 35C34.0125 35 34.9446 35 36 35C36 35.3239 36 35.6442 36 36C35.0357 36 34.0661 36 33 36C33 35.6796 33 35.3717 33 35Z" fill="#D88051"/>
<path d="M91 51.9987C90.5098 51.9987 90.0912 52.0039 89.6726 51.9935C89.4687 51.9883 89.2612 51.9518 89 51.9257C89 50.9505 89 50.043 89 49C89.6225 49 90.2701 49 91 49C91 49.897 91 50.8409 91 51.9987Z" fill="#D88051"/>
<path d="M72.9796 43.3992C72.6289 44.1054 72.2991 44.7655 71.9693 45.4257C70.884 45.129 69.8989 44.8616 68.7759 44.5608C68.7759 45.4257 68.7759 46.1193 68.7759 46.9173C67.916 46.9173 67.1521 46.9173 66.2964 46.9173C66.2504 46.1986 66.2087 45.4716 66.1419 44.402C64.4847 45.0789 62.9861 45.6889 61.2412 46.4034C61.7755 46.98 62.0719 47.3017 62.3683 47.6192C62.6479 47.9201 62.936 48.2209 63.3284 48.6345C62.6897 49.1401 62.0886 49.6164 61.404 50.1554C60.9281 49.7042 60.3019 49.1108 59.4128 48.271C58.699 49.9548 58.0728 51.4465 57.3298 53.2055C58.4026 53.2055 59.1206 53.2055 59.9137 53.2055C59.9137 54.1247 59.9137 54.8851 59.9137 55.7166C59.1665 55.75 58.4736 55.7834 57.789 55.8169C57.5677 59.8739 62.0176 64.1608 66.7305 64.495C72.0027 64.8669 76.8951 60.9059 77.275 55.8169C76.557 55.8169 75.839 55.8169 75.05 55.8169C75.05 54.9311 75.05 54.1999 75.05 53.3099C75.7597 53.3099 76.4819 53.3099 77.4461 53.3099C77.1122 52.0941 76.8283 51.0746 76.5069 49.9047C77.1205 49.5746 77.7884 49.2153 78.4438 48.8602C81.3575 53.03 80.0301 60.1037 75.7096 63.9059C70.9508 68.0966 63.7333 68.0214 59.0705 63.7346C54.295 59.3433 53.6396 52.1986 57.5385 46.9591C61.0575 42.2252 68.1164 40.5413 72.9796 43.3992Z" fill="#D88051"/>
<path d="M76.3258 44C76.9626 44.6751 77.4393 45.1793 78 45.7732C77.6916 46.1449 77.4513 46.4611 77.1829 46.7473C75.3204 48.7427 73.4659 50.738 71.5834 52.7077C71.1228 53.1905 70.9145 53.6093 71.0908 54.3698C71.4873 56.0746 70.6782 57.7666 69.2563 58.5613C67.8624 59.3432 66.1802 59.0612 65.0587 57.8648C63.9372 56.6642 63.6809 54.8654 64.4138 53.3828C65.1668 51.866 66.7449 51.0115 68.3471 51.4345C69.064 51.6267 69.4526 51.396 69.9052 50.9046C71.996 48.6316 74.1108 46.3756 76.3258 44ZM67.4138 56.6087C67.5821 56.6087 67.7463 56.6087 67.9145 56.6087C68.2029 56.0917 68.7436 55.549 68.6996 55.0705C68.6595 54.6475 67.8785 53.9169 67.5821 53.9938C67.1214 54.1177 66.5607 54.78 66.4966 55.2799C66.4445 55.6687 67.0814 56.16 67.4138 56.6087Z" fill="#D88051"/>
</svg>
