<svg id="Layer_1" data-name="Layer 1" xmlns="http://www.w3.org/2000/svg" xmlns:xlink="http://www.w3.org/1999/xlink" viewBox="0 0 100 100"><defs><style>.cls-1{fill:#fff;stroke:#fff;}.cls-2{mask:url(#mask);}.cls-3{fill:none;stroke:#4980a9;stroke-linecap:round;stroke-width:2px;}.cls-4{fill:#6fd8e5;isolation:isolate;opacity:0.3;}.cls-5{fill:#9b3248;}.cls-6{fill:#953551;}.cls-7{fill:#ffcf21;}.cls-8{fill:#91704f;}</style><mask id="mask" x="-38.76" y="-36.9" width="158" height="154.01" maskUnits="userSpaceOnUse"><g id="mask0_1120:940" data-name="mask0 1120:940"><rect class="cls-1" x="1.23" y="1.38" width="75.1" height="75.1" rx="3.93"/></g></mask></defs><g class="cls-2"><line class="cls-3" x1="-16.49" y1="70.52" x2="67.52" y2="-13.49"/><line class="cls-3" x1="10.86" y1="97.68" x2="94.87" y2="13.67"/><line class="cls-3" x1="-37.76" y1="48.11" x2="46.25" y2="-35.9"/><line class="cls-3" x1="-32.83" y1="53.24" x2="51.19" y2="-30.77"/><line class="cls-3" x1="-10.41" y1="75.84" x2="73.6" y2="-8.17"/><line class="cls-3" x1="16.94" y1="103" x2="100.95" y2="18.99"/><line class="cls-3" x1="-27.89" y1="59.7" x2="56.12" y2="-24.32"/><line class="cls-3" x1="-3.77" y1="80.4" x2="80.25" y2="-3.61"/><line class="cls-3" x1="23.59" y1="107.56" x2="107.6" y2="23.55"/><line class="cls-3" x1="-21.43" y1="64.63" x2="62.58" y2="-19.38"/><line class="cls-3" x1="5.92" y1="91.8" x2="89.93" y2="7.78"/><line class="cls-3" x1="1.36" y1="85.91" x2="85.37" y2="1.9"/><line class="cls-3" x1="28.71" y1="113.07" x2="112.73" y2="29.06"/><line class="cls-3" x1="34.22" y1="116.11" x2="118.23" y2="32.1"/></g><path class="cls-4" d="M70.7,74.84l0-.18h-.07c-.27.34-.54.72-.54.72.32.71,1.09,2.71-.38,3.35-.49.21-.41.27-.07.24l.23-.11c1-.22,1.72-.43,1.72-.88a1.48,1.48,0,0,0-.07-.44C71.36,76.8,70.87,75.35,70.7,74.84Z"/><path class="cls-5" d="M63.68,77.4a23.78,23.78,0,0,0,7.51-1.07c-.19-.6-.39-1.2-.49-1.49l0-.18H56.14l0,.18-.46,1.4C56.88,76.82,60.29,77.4,63.68,77.4Z"/><path class="cls-6" d="M57.82,86a9.38,9.38,0,0,0,1.78,2.56,9.91,9.91,0,0,0,4.24.78,9.51,9.51,0,0,0,3.46-.67,10.28,10.28,0,0,0,1.9-2.33Z"/><path class="cls-5" d="M63.68,80.7a23.56,23.56,0,0,0,7.54-1.07c-.2-.62-.32-1-.42-1.28L68,79.08l-4.44.46-7.5-1.1c-.1.29-.17.5-.36,1.1C56.83,80.12,60.27,80.71,63.68,80.7Z"/><path class="cls-5" d="M63.68,84a23.56,23.56,0,0,0,7.54-1.07c-.2-.62-.32-1-.42-1.28L68,82.34l-4.44.46-7.5-1.1c-.1.29-.17.5-.36,1.1C56.83,83.38,60.27,84,63.68,84Z"/><path class="cls-7" d="M63.57,57,48.44,54.71c1.47,1.75,5,4.88,5.39,6.72a34.88,34.88,0,0,1,.49,5.12A11.42,11.42,0,0,0,55.16,71c.52,1.39,3.4,2.13,8.32,2.14h.18c4.92,0,7.8-.75,8.32-2.14a11.42,11.42,0,0,0,.84-4.47,34.88,34.88,0,0,1,.49-5.12c.4-1.84,3.92-5,5.39-6.72Z"/><path class="cls-8" d="M71,70.32c0,.67-3.26,1.21-7.27,1.21s-7.26-.54-7.26-1.21,3.25-1.2,7.26-1.2S71,69.66,71,70.32Z"/><path class="cls-7" d="M83.46,43.14A19.95,19.95,0,1,0,62.14,61.57,19.92,19.92,0,0,0,83.46,43.14Z"/><path class="cls-5" d="M70.4,76c.26.62.59,2.47-1,3s-5.65.45-5.65.45,4.76.09,5.41-2.77Z"/><path class="cls-5" d="M70.46,79.27c.26.62.59,2.47-1,3s-5.66.45-5.66.45,4.76.09,5.42-2.77Z"/><path class="cls-5" d="M70.46,82.44c.26.62.59,2.47-1,3s-5.66.46-5.66.46,4.76.09,5.42-2.78Z"/><path class="cls-7" d="M46.88,25a.43.43,0,0,1-.28-.11l-3.52-3.62a.38.38,0,0,1,0-.54.39.39,0,0,1,.55,0l3.53,3.62a.38.38,0,0,1,0,.54A.43.43,0,0,1,46.88,25Z"/><path class="cls-7" d="M83.13,63.4a.39.39,0,0,1-.28-.12l-3.4-3.7a.39.39,0,0,1,0-.55.38.38,0,0,1,.54,0l3.4,3.7a.39.39,0,0,1,0,.54A.39.39,0,0,1,83.13,63.4Z"/><path class="cls-7" d="M40.48,35.86h-.11l-4.84-1.37a.39.39,0,0,1-.27-.47.4.4,0,0,1,.48-.27l4.84,1.37a.39.39,0,0,1,.27.48A.38.38,0,0,1,40.48,35.86Z"/><path class="cls-7" d="M91.12,51,91,51,86.2,49.5a.38.38,0,1,1,.24-.73l4.79,1.51a.37.37,0,0,1,.25.48A.38.38,0,0,1,91.12,51Z"/><path class="cls-7" d="M35.61,49.62a.39.39,0,0,1-.1-.76l4.87-1.23a.39.39,0,1,1,.19.75L35.7,49.61Z"/><path class="cls-7" d="M87,37.36a.37.37,0,0,1-.37-.3.38.38,0,0,1,.29-.46l4.91-1.09a.39.39,0,0,1,.17.76l-4.91,1.08Z"/><path class="cls-7" d="M43.16,62.59a.39.39,0,0,1-.27-.11.39.39,0,0,1,0-.55l3.6-3.49a.39.39,0,0,1,.55,0A.38.38,0,0,1,47,59l-3.6,3.5A.38.38,0,0,1,43.16,62.59Z"/><path class="cls-7" d="M81.53,26.36a.37.37,0,0,1-.28-.13.38.38,0,0,1,0-.54L85,22.3a.39.39,0,1,1,.53.57L81.8,26.26A.45.45,0,0,1,81.53,26.36Z"/><path class="cls-7" d="M71.17,19.48l-.12,0A.38.38,0,0,1,70.8,19l1.51-4.78A.38.38,0,0,1,72.8,14a.39.39,0,0,1,.25.48l-1.51,4.78A.39.39,0,0,1,71.17,19.48Z"/><path class="cls-7" d="M58.63,18.76a.39.39,0,0,1-.38-.3l-1.08-4.89a.38.38,0,0,1,.29-.46.38.38,0,0,1,.46.29L59,18.29a.39.39,0,0,1-.3.46Z"/></svg>