<svg width="208" height="185" viewBox="0 0 208 185" fill="none" xmlns="http://www.w3.org/2000/svg">
<g opacity="0.3">
<path opacity="0.5" d="M2.57935 152.531L-5.97998 147.388H61.1942L2.57935 152.531Z" fill="#2E1036"/>
<g opacity="0.5">
<path opacity="0.5" d="M101.677 145.9L-3.28532 39.736C-3.45595 39.5643 -3.67366 39.4465 -3.91099 39.3981C-4.14832 39.3501 -4.39464 39.373 -4.61889 39.4645C-4.84314 39.556 -5.03528 39.712 -5.17107 39.9127C-5.30686 40.113 -5.38021 40.3496 -5.38189 40.5915L-6 147.394L100.806 148.002C101.051 148.004 101.29 147.933 101.494 147.799C101.698 147.664 101.857 147.471 101.951 147.245C102.044 147.019 102.068 146.77 102.019 146.531C101.971 146.291 101.851 146.071 101.677 145.9ZM49.6677 131.845L19.0748 131.647C16.9555 131.632 14.9284 130.777 13.4386 129.27C11.9489 127.762 11.1181 125.725 11.1286 123.605L11.3066 93.0306C11.3462 85.904 19.9797 82.3876 24.9936 87.4522L55.4186 118.224C60.4229 123.274 56.798 131.894 49.6677 131.845Z" fill="#2E1036"/>
</g>
<path d="M110.389 150.732L5.42685 44.5732C5.25647 44.3996 5.03834 44.2807 4.80019 44.2312C4.562 44.182 4.31454 44.2045 4.08929 44.2964C3.864 44.3879 3.67108 44.5447 3.53505 44.7461C3.39902 44.9479 3.326 45.1857 3.32533 45.4287L2.73193 152.226L109.509 152.824C109.751 152.824 109.988 152.752 110.19 152.619C110.391 152.484 110.549 152.294 110.643 152.07C110.737 151.847 110.763 151.601 110.718 151.363C110.673 151.125 110.558 150.905 110.389 150.732ZM58.3799 136.681L27.782 136.479C26.7326 136.472 25.6948 136.259 24.7278 135.851C23.7608 135.444 22.8836 134.85 22.1462 134.103C21.4087 133.356 20.8256 132.472 20.43 131.499C20.0345 130.527 19.8342 129.487 19.8407 128.437L20.0089 97.8677C20.0484 90.7411 28.6819 87.2198 33.6911 92.2889L64.1211 123.061C69.1298 128.13 65.5102 136.731 58.3799 136.681Z" fill="#E27197" stroke="#2E1036" stroke-width="1.71" stroke-linejoin="round"/>
<path d="M11.5093 152.062L11.5241 148.887L11.5389 145.717" stroke="#2E1036" stroke-width="1.77" stroke-miterlimit="10" stroke-linecap="round"/>
<path d="M14.4263 152.072L14.4411 148.902" stroke="#2E1036" stroke-width="1.77" stroke-miterlimit="10" stroke-linecap="round"/>
<path d="M17.3442 152.087L17.3591 148.917L17.3739 145.742" stroke="#2E1036" stroke-width="1.77" stroke-miterlimit="10" stroke-linecap="round"/>
<path d="M20.2563 152.102L20.2712 148.927" stroke="#2E1036" stroke-width="1.77" stroke-miterlimit="10" stroke-linecap="round"/>
<path d="M23.1743 152.112L23.1892 148.942L23.204 145.772" stroke="#2E1036" stroke-width="1.77" stroke-miterlimit="10" stroke-linecap="round"/>
<path d="M26.0913 152.126L26.1061 148.956" stroke="#2E1036" stroke-width="1.77" stroke-miterlimit="10" stroke-linecap="round"/>
<path d="M29.0093 152.142L29.0241 148.971L29.034 145.796" stroke="#2E1036" stroke-width="1.77" stroke-miterlimit="10" stroke-linecap="round"/>
<path d="M31.9209 152.156L31.9355 148.981" stroke="#2E1036" stroke-width="1.77" stroke-miterlimit="10" stroke-linecap="round"/>
<path d="M34.8379 152.166L34.8529 148.996L34.8675 145.825" stroke="#2E1036" stroke-width="1.77" stroke-miterlimit="10" stroke-linecap="round"/>
<path d="M37.7559 152.181L37.7709 149.01" stroke="#2E1036" stroke-width="1.77" stroke-miterlimit="10" stroke-linecap="round"/>
<path d="M40.6738 152.195L40.6888 149.02L40.7035 145.85" stroke="#2E1036" stroke-width="1.77" stroke-miterlimit="10" stroke-linecap="round"/>
<path d="M43.5859 152.205L43.6006 149.035" stroke="#2E1036" stroke-width="1.77" stroke-miterlimit="10" stroke-linecap="round"/>
<path d="M46.5034 152.22L46.5184 149.05L46.5334 145.875" stroke="#2E1036" stroke-width="1.77" stroke-miterlimit="10" stroke-linecap="round"/>
<path d="M49.4204 152.235L49.4354 149.06" stroke="#2E1036" stroke-width="1.77" stroke-miterlimit="10" stroke-linecap="round"/>
<path d="M52.3374 152.245L52.3524 149.075L52.3622 145.905" stroke="#2E1036" stroke-width="1.77" stroke-miterlimit="10" stroke-linecap="round"/>
<path d="M55.2505 152.26L55.2651 149.09" stroke="#2E1036" stroke-width="1.77" stroke-miterlimit="10" stroke-linecap="round"/>
<path d="M58.1685 152.275L58.1831 149.1L58.1981 145.93" stroke="#2E1036" stroke-width="1.77" stroke-miterlimit="10" stroke-linecap="round"/>
<path d="M61.0854 152.285L61.1004 149.115" stroke="#2E1036" stroke-width="1.77" stroke-miterlimit="10" stroke-linecap="round"/>
<path d="M64.0272 145.954L64.0174 149.129L64.0024 152.3" stroke="#2E1036" stroke-width="1.77" stroke-miterlimit="10" stroke-linecap="round"/>
<path d="M66.915 152.314L66.9297 149.144" stroke="#2E1036" stroke-width="1.77" stroke-miterlimit="10" stroke-linecap="round"/>
<path d="M69.833 152.329L69.8476 149.154L69.8626 145.984" stroke="#2E1036" stroke-width="1.77" stroke-miterlimit="10" stroke-linecap="round"/>
<path d="M72.75 152.339L72.765 149.169" stroke="#2E1036" stroke-width="1.77" stroke-miterlimit="10" stroke-linecap="round"/>
<path d="M75.667 152.354L75.6771 149.184L75.6917 146.009" stroke="#2E1036" stroke-width="1.77" stroke-miterlimit="10" stroke-linecap="round"/>
<path d="M78.5801 152.369L78.5947 149.194" stroke="#2E1036" stroke-width="1.77" stroke-miterlimit="10" stroke-linecap="round"/>
<path d="M81.4971 152.379L81.5117 149.209L81.5267 146.039" stroke="#2E1036" stroke-width="1.77" stroke-miterlimit="10" stroke-linecap="round"/>
<path d="M84.4146 152.393L84.4296 149.223" stroke="#2E1036" stroke-width="1.77" stroke-miterlimit="10" stroke-linecap="round"/>
<path d="M87.3267 152.408L87.3417 149.233L87.3563 146.063" stroke="#2E1036" stroke-width="1.77" stroke-miterlimit="10" stroke-linecap="round"/>
<path d="M90.2446 152.418L90.2593 149.248" stroke="#2E1036" stroke-width="1.77" stroke-miterlimit="10" stroke-linecap="round"/>
<path d="M93.1616 152.433L93.1762 149.263L93.1913 146.088" stroke="#2E1036" stroke-width="1.77" stroke-miterlimit="10" stroke-linecap="round"/>
<path d="M96.0786 152.448L96.0936 149.273" stroke="#2E1036" stroke-width="1.77" stroke-miterlimit="10" stroke-linecap="round"/>
<path d="M98.9917 152.463L99.0067 149.288L99.0213 146.117" stroke="#2E1036" stroke-width="1.77" stroke-miterlimit="10" stroke-linecap="round"/>
<path d="M101.909 152.473L101.924 149.302" stroke="#2E1036" stroke-width="1.77" stroke-miterlimit="10" stroke-linecap="round"/>
<path d="M3.54346 53.0197L6.71798 53.0347" stroke="#2E1036" stroke-width="1.77" stroke-miterlimit="10" stroke-linecap="round"/>
<path d="M3.52881 55.9384L6.70333 55.953L9.8729 55.968" stroke="#2E1036" stroke-width="1.77" stroke-miterlimit="10" stroke-linecap="round"/>
<path d="M3.51855 58.8562L6.68816 58.8708" stroke="#2E1036" stroke-width="1.77" stroke-miterlimit="10" stroke-linecap="round"/>
<path d="M3.50391 61.774L6.67348 61.789L9.848 61.8037" stroke="#2E1036" stroke-width="1.77" stroke-miterlimit="10" stroke-linecap="round"/>
<path d="M3.48877 64.6869L6.66329 64.7019" stroke="#2E1036" stroke-width="1.77" stroke-miterlimit="10" stroke-linecap="round"/>
<path d="M3.479 67.6047L6.64858 67.6197L9.81815 67.6347" stroke="#2E1036" stroke-width="1.77" stroke-miterlimit="10" stroke-linecap="round"/>
<path d="M3.46436 70.5226L6.63393 70.5372" stroke="#2E1036" stroke-width="1.77" stroke-miterlimit="10" stroke-linecap="round"/>
<path d="M3.44922 73.4403L6.62374 73.4501L9.79331 73.4651" stroke="#2E1036" stroke-width="1.77" stroke-miterlimit="10" stroke-linecap="round"/>
<path d="M3.43945 76.3533L6.60903 76.3683" stroke="#2E1036" stroke-width="1.77" stroke-miterlimit="10" stroke-linecap="round"/>
<path d="M3.42432 79.2711L6.59389 79.2861L9.76841 79.3011" stroke="#2E1036" stroke-width="1.77" stroke-miterlimit="10" stroke-linecap="round"/>
<path d="M3.40967 82.1897L6.58419 82.2043" stroke="#2E1036" stroke-width="1.77" stroke-miterlimit="10" stroke-linecap="round"/>
<path d="M3.39941 85.1025L6.56902 85.1172L9.7386 85.1322" stroke="#2E1036" stroke-width="1.77" stroke-miterlimit="10" stroke-linecap="round"/>
<path d="M3.38574 88.0204L6.55532 88.0354" stroke="#2E1036" stroke-width="1.77" stroke-miterlimit="10" stroke-linecap="round"/>
<path d="M3.37061 90.9382L6.54513 90.9532L9.71474 90.9679" stroke="#2E1036" stroke-width="1.77" stroke-miterlimit="10" stroke-linecap="round"/>
<path d="M3.36084 93.8561L6.53041 93.8707" stroke="#2E1036" stroke-width="1.77" stroke-miterlimit="10" stroke-linecap="round"/>
<path d="M3.3457 96.7698L6.51528 96.7844L9.6898 96.7994" stroke="#2E1036" stroke-width="1.77" stroke-miterlimit="10" stroke-linecap="round"/>
<path d="M3.33105 99.6876L6.50558 99.7026" stroke="#2E1036" stroke-width="1.77" stroke-miterlimit="10" stroke-linecap="round"/>
<path d="M3.31592 102.605L6.49044 102.62L9.66001 102.635" stroke="#2E1036" stroke-width="1.77" stroke-miterlimit="10" stroke-linecap="round"/>
<path d="M3.30615 105.523L6.47572 105.538" stroke="#2E1036" stroke-width="1.77" stroke-miterlimit="10" stroke-linecap="round"/>
<path d="M3.29102 108.436L6.46059 108.451L9.63511 108.466" stroke="#2E1036" stroke-width="1.77" stroke-miterlimit="10" stroke-linecap="round"/>
<path d="M3.27637 111.354L6.45085 111.369" stroke="#2E1036" stroke-width="1.77" stroke-miterlimit="10" stroke-linecap="round"/>
<path d="M3.2666 114.272L6.43617 114.287L9.60575 114.301" stroke="#2E1036" stroke-width="1.77" stroke-miterlimit="10" stroke-linecap="round"/>
<path d="M3.25146 117.19L6.42104 117.205" stroke="#2E1036" stroke-width="1.77" stroke-miterlimit="10" stroke-linecap="round"/>
<path d="M3.23682 120.103L6.41134 120.118L9.58091 120.133" stroke="#2E1036" stroke-width="1.77" stroke-miterlimit="10" stroke-linecap="round"/>
<path d="M3.22656 123.021L6.39614 123.036" stroke="#2E1036" stroke-width="1.77" stroke-miterlimit="10" stroke-linecap="round"/>
<path d="M3.21191 125.939L6.38149 125.954L9.55601 125.969" stroke="#2E1036" stroke-width="1.77" stroke-miterlimit="10" stroke-linecap="round"/>
<path d="M3.19775 128.857L6.37228 128.871" stroke="#2E1036" stroke-width="1.77" stroke-miterlimit="10" stroke-linecap="round"/>
<path d="M3.18799 131.771L6.3576 131.785L9.52717 131.8" stroke="#2E1036" stroke-width="1.77" stroke-miterlimit="10" stroke-linecap="round"/>
<path d="M3.17188 134.688L6.34145 134.703" stroke="#2E1036" stroke-width="1.77" stroke-miterlimit="10" stroke-linecap="round"/>
<path d="M3.1582 137.605L6.33273 137.62L9.50234 137.635" stroke="#2E1036" stroke-width="1.77" stroke-miterlimit="10" stroke-linecap="round"/>
<path d="M3.14795 140.524L6.31752 140.534" stroke="#2E1036" stroke-width="1.77" stroke-miterlimit="10" stroke-linecap="round"/>
<path d="M3.1333 143.437L6.30287 143.452L9.47248 143.467" stroke="#2E1036" stroke-width="1.77" stroke-miterlimit="10" stroke-linecap="round"/>
<path opacity="0.2" d="M61.2485 120.736V135.741C62.4074 135.275 63.4335 134.53 64.2358 133.573C65.038 132.615 65.5919 131.474 65.8481 130.252C66.1042 129.029 66.0551 127.762 65.7048 126.563C65.3545 125.363 64.7139 124.269 63.8397 123.377L61.2485 120.736Z" fill="#2E1036"/>
<path opacity="0.5" d="M100.559 174.802C121.549 174.802 138.564 170.331 138.564 164.817C138.564 159.302 121.549 154.831 100.559 154.831C79.5691 154.831 62.5537 159.302 62.5537 164.817C62.5537 170.331 79.5691 174.802 100.559 174.802Z" fill="#2E1036"/>
<path opacity="0.2" d="M107.235 146.929H131.286V64.9934C131.286 58.9496 109.272 57.3373 96.2672 57.3373C83.2625 57.3373 61.2485 58.9496 61.2485 64.9934V100.409L107.235 146.929Z" fill="#2E1036"/>
<path opacity="0.5" d="M106.74 153.229H109.504C109.829 153.229 110.147 153.132 110.418 152.952C110.688 152.772 110.9 152.516 111.025 152.216C111.151 151.916 111.186 151.585 111.124 151.266C111.063 150.946 110.908 150.652 110.681 150.42L59.0132 98.1687V118.495L63.8194 123.357C64.8282 124.386 65.5232 125.681 65.8221 127.091C66.121 128.5 66.0119 129.966 65.5074 131.316C65.003 132.666 64.1239 133.844 62.9736 134.712C61.8234 135.58 60.4496 136.101 59.0132 136.216V152.947L76.8934 165.049L111.907 165.855L106.74 153.229Z" fill="#2E1036"/>
<path d="M74.3267 64.9932V161.093H74.4553C74.4553 173.358 143.4 173.358 143.4 161.093H143.528V64.9932C143.528 55.3489 74.3267 55.3489 74.3267 64.9932Z" fill="#35669A" stroke="#2E1036" stroke-width="1.71" stroke-linejoin="round"/>
<path d="M108.931 72.5204C126.034 72.5204 139.9 69.8456 139.9 66.5464C139.9 63.2467 126.034 60.5719 108.931 60.5719C91.8273 60.5719 77.9619 63.2467 77.9619 66.5464C77.9619 69.8456 91.8269 72.5204 108.931 72.5204Z" fill="#2E1036" stroke="#2E1036" stroke-width="0.32" stroke-miterlimit="10"/>
<path d="M96.4709 52.1146L87.1533 133.782L104.835 135.8L114.152 54.1324L96.4709 52.1146Z" fill="#B2ACAB" stroke="#2E1036" stroke-width="1.71" stroke-miterlimit="10"/>
<path d="M115.146 35.3986L106.878 108.011L91.4111 106.25L98.8284 41.0267C98.9878 41.0871 99.1535 41.1287 99.3227 41.1505C99.7236 41.1959 100.129 41.1351 100.499 40.9742C100.869 40.8133 101.19 40.5579 101.43 40.2335C101.67 39.9095 101.82 39.5277 101.866 39.1271C101.912 38.7262 101.852 38.3204 101.691 37.9505L115.146 35.3986Z" fill="#B2ACAB" stroke="#2E1036" stroke-width="1.71" stroke-miterlimit="10"/>
<path d="M115.156 35.3986L106.878 108.011L105.435 107.848L113.663 35.6805L115.156 35.3986Z" fill="#B2ACAB" stroke="#2E1036" stroke-width="1.71" stroke-miterlimit="10"/>
<path d="M114.306 42.8516L98.29 45.898" stroke="#2E1036" stroke-width="1.71" stroke-miterlimit="10"/>
<path d="M113.454 50.3053L97.4385 53.3518" stroke="#2E1036" stroke-width="1.71" stroke-miterlimit="10"/>
<path d="M112.605 57.7576L96.5884 60.8041" stroke="#2E1036" stroke-width="1.71" stroke-miterlimit="10"/>
<path d="M111.754 65.2163L95.7378 68.2579" stroke="#2E1036" stroke-width="1.71" stroke-miterlimit="10"/>
<path d="M110.908 72.6693L94.8926 75.7109" stroke="#2E1036" stroke-width="1.71" stroke-miterlimit="10"/>
<path d="M110.058 80.1223L94.042 83.1639" stroke="#2E1036" stroke-width="1.71" stroke-miterlimit="10"/>
<path d="M109.207 87.5753L93.1914 90.6169" stroke="#2E1036" stroke-width="1.71" stroke-miterlimit="10"/>
<path d="M108.357 95.0283L92.3408 98.0748" stroke="#2E1036" stroke-width="1.71" stroke-miterlimit="10"/>
<path d="M105.464 133.917L115.042 49.9044C115.09 49.5049 115.022 49.1003 114.847 48.7383C114.672 48.3761 114.396 48.0723 114.053 47.8619L108.149 44.3406L98.0127 133.066" fill="#1B4D78"/>
<path d="M105.464 133.917L115.042 49.9044C115.09 49.5049 115.022 49.1003 114.847 48.7383C114.672 48.3761 114.396 48.0723 114.053 47.8619L108.149 44.3406L98.0127 133.066" stroke="#2E1036" stroke-width="1.71" stroke-linejoin="round"/>
<path d="M107.655 133.921L116.263 58.4496C116.291 58.2036 116.247 57.9546 116.136 57.7325C116.025 57.5105 115.854 57.3252 115.641 57.1985L112.021 55.0225L103.086 133.397" fill="#E27197"/>
<path d="M107.655 133.921L116.263 58.4496C116.291 58.2036 116.247 57.9546 116.136 57.7325C116.025 57.5105 115.854 57.3252 115.641 57.1985L112.021 55.0225L103.086 133.397" stroke="#2E1036" stroke-width="1.71" stroke-linejoin="round"/>
<path d="M87.1938 131.829L96.7766 47.8169C96.8223 47.4168 96.9821 47.0383 97.2375 46.7267C97.4926 46.4154 97.8323 46.184 98.2156 46.061L104.762 43.9592L94.6456 132.67" fill="#1B4D78"/>
<path d="M87.1938 131.829L96.7766 47.8169C96.8223 47.4168 96.9821 47.0383 97.2375 46.7267C97.4926 46.4154 97.8323 46.184 98.2156 46.061L104.762 43.9592L94.6456 132.67" stroke="#2E1036" stroke-width="1.71" stroke-linejoin="round"/>
<path d="M85.0576 131.344L93.6664 55.8683C93.6941 55.623 93.792 55.3909 93.948 55.2C94.1041 55.0087 94.3118 54.8666 94.5466 54.79L98.5618 53.5044L89.6268 131.863" fill="#E27197"/>
<path d="M85.0576 131.344L93.6664 55.8683C93.6941 55.623 93.792 55.3909 93.948 55.2C94.1041 55.0087 94.3118 54.8666 94.5466 54.79L98.5618 53.5044L89.6268 131.863" stroke="#2E1036" stroke-width="1.71" stroke-linejoin="round"/>
<path d="M99.378 92.5459C99.3435 92.8494 99.4001 93.1558 99.54 93.4269C99.6799 93.6985 99.8971 93.922 100.164 94.0697C100.431 94.2171 100.736 94.2824 101.04 94.2569C101.344 94.2314 101.634 94.1163 101.872 93.9257C102.111 93.7356 102.288 93.4791 102.381 93.188C102.473 92.8974 102.478 92.5857 102.393 92.2924C102.309 91.9991 102.139 91.7373 101.906 91.5404C101.673 91.3435 101.387 91.2202 101.084 91.186C100.882 91.1624 100.678 91.1793 100.483 91.2352C100.289 91.2907 100.106 91.3848 99.9481 91.5112C99.7894 91.6376 99.6574 91.794 99.5595 91.9717C99.4617 92.1491 99.4001 92.3445 99.378 92.5459Z" fill="#2E1036"/>
<path d="M99.086 110.82C100.432 110.973 101.794 110.724 102.999 110.104C104.204 109.483 105.198 108.519 105.856 107.334C106.513 106.148 106.804 104.795 106.692 103.444C106.58 102.093 106.07 100.805 105.227 99.7441C104.384 98.6831 103.245 97.8959 101.955 97.4818C100.664 97.0682 99.2799 97.046 97.9766 97.4188C96.6737 97.792 95.5107 98.5428 94.6342 99.5768C93.7578 100.611 93.2076 101.881 93.0534 103.228C92.8475 105.035 93.3673 106.849 94.4985 108.273C95.6296 109.697 97.2798 110.613 99.086 110.82Z" fill="#2E1036"/>
<path d="M99.086 110.82C100.432 110.973 101.794 110.724 102.999 110.104C104.204 109.483 105.198 108.519 105.856 107.334C106.513 106.148 106.804 104.795 106.692 103.444C106.58 102.093 106.07 100.805 105.227 99.7441C104.384 98.6831 103.245 97.8959 101.955 97.4818C100.664 97.0682 99.2799 97.046 97.9766 97.4188C96.6737 97.792 95.5107 98.5428 94.6342 99.5768C93.7578 100.611 93.2076 101.881 93.0534 103.228C92.8475 105.035 93.3673 106.849 94.4985 108.273C95.6296 109.697 97.2798 110.613 99.086 110.82Z" stroke="#B2ACAB" stroke-width="1.71" stroke-miterlimit="10"/>
<path d="M148.35 35.1112C147.287 40.1854 143.727 43.7363 140.364 43.044C137.002 42.3517 135.113 37.6731 136.162 32.5988C137.086 28.1131 144.459 16.4264 146.16 13.7706C146.186 13.7275 146.226 13.6936 146.272 13.6735C146.319 13.6534 146.37 13.6482 146.42 13.6584C146.47 13.6687 146.515 13.694 146.55 13.7308C146.585 13.7677 146.607 13.8144 146.615 13.8646C147.119 16.9754 149.265 30.6255 148.35 35.1112Z" fill="#41204C" stroke="#2E1036" stroke-width="1.71" stroke-miterlimit="10"/>
<path d="M120.091 141.34C119.64 141.248 119.243 140.982 118.986 140.601C118.728 140.218 118.632 139.75 118.716 139.298L136.76 42.1646C136.802 41.9347 136.89 41.7161 137.019 41.5207C137.147 41.3253 137.313 41.1576 137.507 41.0271C137.7 40.897 137.918 40.8066 138.148 40.7616C138.377 40.7166 138.613 40.7177 138.841 40.7649L142.664 41.5514C142.893 41.5987 143.11 41.6913 143.302 41.8237C143.495 41.9561 143.659 42.1256 143.785 42.3225C143.911 42.519 143.997 42.7388 144.037 42.9691C144.077 43.1994 144.071 43.4353 144.019 43.6633L122.178 140.01C122.076 140.462 121.8 140.856 121.409 141.105C121.018 141.355 120.544 141.439 120.091 141.34Z" fill="#00B9F2" stroke="#2E1036" stroke-width="1.71" stroke-miterlimit="10"/>
<path d="M137.046 39.8942C137.353 38.4105 144.958 39.9883 144.647 41.4618L141.714 54.3949C141.813 53.9006 134.727 52.4611 134.628 52.9112L137.046 39.8942Z" fill="#B2ACAB" stroke="#2E1036" stroke-width="1.71" stroke-miterlimit="10"/>
<path d="M136.097 43.539L136.691 39.2758C136.943 38.0443 145.472 39.805 145.22 41.0314L144.078 45.1858C144.043 45.3242 143.648 45.359 143.193 45.2649L136.903 43.9643C136.409 43.8701 136.078 43.6822 136.097 43.539Z" fill="#E5D9DA" stroke="#2E1036" stroke-width="1.71" stroke-miterlimit="10"/>
<path d="M82.5653 50.6311L73.5609 34.2213L68.8931 36.7832L79.0196 55.2355L115.032 120.8C115.101 120.922 115.194 121.028 115.306 121.111C115.418 121.195 115.547 121.253 115.683 121.283C115.82 121.313 115.961 121.313 116.098 121.285C116.234 121.256 116.363 121.199 116.476 121.117C131.212 110.187 101.795 53.6577 82.5653 50.6311Z" fill="#B2ACAB" stroke="#2E1036" stroke-width="1.71" stroke-miterlimit="10"/>
<path d="M68.0916 40.1511L73.6891 50.3542C74.7771 52.3322 83.3315 47.634 82.2435 45.6557L76.6163 35.3983C81.1855 30.507 79.8601 24.409 76.4682 18.222C72.2354 10.5067 65.0259 6.35231 57.3173 10.566C49.6083 14.7797 48.7629 23.3951 52.9953 31.1054C56.4221 37.3518 61.4559 41.4765 68.0916 40.1511ZM60.012 27.2528C57.9155 23.4248 57.342 19.6859 61.169 17.5839C64.9963 15.482 67.3452 18.2467 69.4466 22.0746C71.548 25.9026 72.6161 29.3695 68.7891 31.4714C64.9618 33.5733 62.1137 31.0807 60.012 27.2528Z" fill="#1B4D78" stroke="#2E1036" stroke-width="1.71" stroke-miterlimit="10"/>
<path d="M90.2991 30.5721L84.9836 30.9084L86.1552 49.5832C71.5338 62.442 76.8988 125.925 95.2043 127.29C95.3438 127.299 95.4833 127.279 95.6146 127.23C95.7455 127.181 95.8647 127.106 95.9641 127.007C96.0635 126.909 96.1412 126.791 96.1918 126.661C96.2424 126.53 96.2649 126.391 96.2574 126.251L91.5896 51.5713L90.2991 30.5721Z" fill="#E5D9DA" stroke="#2E1036" stroke-width="1.71" stroke-miterlimit="10"/>
<path d="M89.1318 51.0216L93.8439 126.413C93.8566 126.633 93.7959 126.851 93.671 127.032C94.1721 127.171 94.6855 127.26 95.2038 127.299C95.3433 127.308 95.4832 127.288 95.6141 127.239C95.745 127.19 95.8643 127.114 95.9636 127.016C96.0634 126.918 96.1407 126.8 96.1913 126.67C96.2419 126.539 96.2644 126.4 96.2569 126.26L91.525 50.5022C90.7052 50.5502 89.8977 50.7254 89.1318 51.0216Z" fill="#B2ACAB" stroke="#2E1036" stroke-width="1.71" stroke-miterlimit="10"/>
<path d="M87.2732 59.4743C87.2968 59.8483 87.209 60.2211 87.0211 60.5451C86.8329 60.8691 86.5531 61.1302 86.2167 61.2952C85.8803 61.4602 85.5026 61.5217 85.1309 61.4718C84.7596 61.422 84.4116 61.2629 84.1307 61.015C83.8494 60.7671 83.6484 60.4416 83.5524 60.0793C83.4564 59.717 83.4702 59.3345 83.5917 58.98C83.7133 58.6256 83.9372 58.3151 84.2349 58.0878C84.5331 57.8609 84.8916 57.727 85.2656 57.7038C85.7663 57.6741 86.2583 57.8433 86.6341 58.1752C87.0103 58.5067 87.2402 58.974 87.2732 59.4743Z" fill="#B2ACAB" stroke="#2E1036" stroke-width="1.71" stroke-miterlimit="10"/>
<path d="M100.436 16.0758C99.8866 7.29717 94.576 0.482009 85.7992 1.03098C77.0224 1.57995 73.1606 8.94406 73.7093 17.7474C74.1492 24.79 76.2952 30.6506 82.773 32.3371L83.4998 44.0188C83.6431 46.2691 93.3893 45.6608 93.2408 43.4105L92.514 31.7783C98.8286 29.3648 100.88 23.1876 100.436 16.0758ZM87.2874 24.8543C82.9264 25.1263 81.9767 21.6297 81.7 17.2726C81.4232 12.9154 81.9422 9.31993 86.2988 9.04791C90.6549 8.77593 92.1678 12.2428 92.4401 16.6C92.712 20.9571 91.6439 24.5576 87.2874 24.8543Z" fill="#35669A" stroke="#2E1036" stroke-width="1.71" stroke-miterlimit="10"/>
<path opacity="0.5" d="M78.6095 65.4982L78.1152 69.4546C78.1152 69.4546 85.0029 74.4599 97.8347 75.8397C110.666 77.2195 139.395 70.3251 139.395 70.3251V65.2312C136.774 68.0155 124.126 70.1323 108.926 70.1323C93.9729 70.1323 81.4974 68.0898 78.5945 65.3696L78.6095 65.4982Z" fill="#2E1036"/>
<path d="M111.141 144.485L111.759 134.712L113.366 134.95L111.141 144.485Z" fill="#2E1036"/>
<path d="M136.171 144.644L134.064 135.084L135.676 134.866L136.171 144.644Z" fill="#2E1036"/>
<path d="M112.134 137.883C111.8 137.834 111.479 137.719 111.19 137.546C110.9 137.373 110.647 137.144 110.446 136.873C110.245 136.602 110.099 136.294 110.017 135.966C109.935 135.639 109.919 135.299 109.969 134.965L121.341 57.7383C121.442 57.0643 121.805 56.4575 122.352 56.0513C122.899 55.6452 123.585 55.4727 124.259 55.572C124.593 55.6208 124.914 55.7352 125.203 55.9084C125.493 56.0817 125.746 56.3105 125.947 56.5817C126.148 56.8524 126.294 57.1607 126.376 57.4881C126.458 57.8156 126.474 58.1561 126.424 58.4899L115.052 135.717C114.951 136.391 114.588 136.997 114.041 137.403C113.494 137.809 112.808 137.982 112.134 137.883Z" fill="#B2ACAB" stroke="#2E1036" stroke-width="1.71" stroke-miterlimit="10"/>
<path d="M135.187 138.031C135.522 137.987 135.844 137.877 136.136 137.707C136.429 137.538 136.685 137.313 136.89 137.045C137.095 136.777 137.246 136.471 137.333 136.144C137.42 135.818 137.442 135.478 137.397 135.143L127.013 57.7776C126.969 57.443 126.859 57.1205 126.689 56.8283C126.52 56.5362 126.295 56.2804 126.027 56.0756C125.759 55.8704 125.453 55.7208 125.126 55.6342C124.8 55.5479 124.46 55.5265 124.126 55.5719C123.45 55.6627 122.839 56.0182 122.425 56.5598C122.012 57.101 121.83 57.7847 121.92 58.4601L132.304 135.825C132.396 136.499 132.751 137.109 133.291 137.522C133.831 137.935 134.512 138.118 135.187 138.031Z" fill="#E5D9DA" stroke="#2E1036" stroke-width="1.71" stroke-miterlimit="10"/>
<path d="M127.271 57.2881L121.545 57.2532L121.674 36.8474C121.679 36.0906 121.983 35.3665 122.521 34.8336C123.058 34.3007 123.785 34.0024 124.542 34.0037C125.301 34.0089 126.028 34.3155 126.562 34.8561C127.096 35.3967 127.394 36.1271 127.39 36.887L127.271 57.2881Z" fill="#B2ACAB" stroke="#2E1036" stroke-width="1.71" stroke-miterlimit="10"/>
<path d="M124.591 38.3064L124.467 57.2683" stroke="#2E1036" stroke-width="1.71" stroke-miterlimit="10" stroke-linecap="round"/>
<path d="M124.358 64.9786C122.905 64.9654 121.516 64.3766 120.496 63.3411C119.477 62.3056 118.91 60.9078 118.919 59.4542L118.988 48.8262L129.965 48.8952L129.896 59.5236C129.892 60.2459 129.745 60.96 129.464 61.6253C129.182 62.2906 128.773 62.8937 128.259 63.4004C127.744 63.9074 127.135 64.3076 126.466 64.5784C125.796 64.8492 125.08 64.9853 124.358 64.9786Z" fill="#E27197" stroke="#2E1036" stroke-width="1.71" stroke-miterlimit="10"/>
<path d="M126.628 57.0509C126.626 57.5137 126.486 57.966 126.227 58.3497C125.968 58.7337 125.601 59.0319 125.173 59.2067C124.744 59.3818 124.273 59.4253 123.819 59.3323C123.366 59.2393 122.95 59.0139 122.625 58.6842C122.3 58.3549 122.079 57.936 121.992 57.4815C121.905 57.0265 121.954 56.5562 122.135 56.1294C122.315 55.703 122.618 55.3396 123.005 55.0857C123.392 54.8314 123.846 54.6975 124.309 54.7016C124.615 54.7028 124.919 54.7646 125.202 54.8835C125.484 55.0024 125.741 55.1761 125.956 55.3943C126.172 55.6126 126.342 55.8714 126.457 56.1557C126.572 56.44 126.631 56.7441 126.628 57.0509Z" fill="#B2ACAB" stroke="#2E1036" stroke-width="1.71" stroke-miterlimit="10"/>
<path d="M142.312 65.518C141.205 66.0097 140.213 66.7271 139.399 67.6246C136.779 70.4093 124.13 72.5261 108.93 72.5261C92.9438 72.5261 79.7858 70.1865 78.1341 67.1896C77.8821 66.7223 77.4823 66.3517 76.997 66.1361L74.752 65.1767C74.7058 65.1572 74.6556 65.1493 74.6057 65.1538C74.5558 65.1583 74.5082 65.1752 74.4662 65.2022C74.4242 65.2296 74.3893 65.2667 74.3653 65.3106C74.3409 65.3545 74.3278 65.4036 74.3267 65.4535V161.093H74.4553C74.4553 173.359 143.4 173.359 143.4 161.093H143.528V65.4535C143.528 65.4036 143.514 65.3545 143.49 65.3106C143.466 65.2667 143.431 65.2296 143.389 65.2022C143.347 65.1752 143.299 65.1583 143.249 65.1538C143.199 65.1493 143.149 65.1572 143.103 65.1767L142.312 65.518Z" fill="#35669A"/>
<path d="M74.3267 64.9929V161.092H74.4553C74.4553 173.358 143.4 173.358 143.4 161.092H143.528V64.9929" stroke="#2E1036" stroke-width="1.71" stroke-linecap="round" stroke-linejoin="round"/>
<path d="M139.9 66.5515C139.884 66.8943 139.763 67.224 139.554 67.4959C139.337 67.761 139.088 67.9969 138.812 68.1983C138.252 68.591 137.652 68.9225 137.022 69.1873C135.769 69.7135 134.478 70.1452 133.16 70.4782C130.522 71.1278 127.85 71.6232 125.154 71.9619C119.773 72.6373 114.354 72.9678 108.931 72.9513C103.506 72.9655 98.0853 72.6351 92.7023 71.9619C90.0091 71.6214 87.3376 71.1259 84.7014 70.4782C83.3832 70.1403 82.0908 69.7071 80.8347 69.1824C80.2062 68.9177 79.6076 68.5861 79.0495 68.1935C78.7709 67.9936 78.5196 67.7573 78.3032 67.491C78.0935 67.2191 77.9728 66.8894 77.957 66.5466C77.9912 66.8804 78.1296 67.1955 78.3523 67.4467C78.5792 67.695 78.8388 67.911 79.1238 68.0896C79.6894 68.4474 80.2909 68.744 80.9188 68.9747C82.1819 69.4367 83.4777 69.8035 84.7956 70.0728C87.4295 70.6466 90.0942 71.0712 92.7761 71.3438C98.1442 71.8813 103.536 72.1419 108.931 72.125C114.324 72.1419 119.714 71.8809 125.08 71.3438C127.762 71.0817 130.426 70.6672 133.061 70.1024C134.379 69.8339 135.675 69.4671 136.938 69.0043C137.567 68.7725 138.17 68.4759 138.738 68.1192C139.019 67.9395 139.276 67.7254 139.504 67.4812C139.731 67.221 139.869 66.8954 139.9 66.5515Z" fill="#2E1036"/>
<path opacity="0.5" d="M162.892 181.301L147.069 158.62L143.949 159.871V87.2982L122.222 88.5692H122.123C117.267 88.8659 114.171 91.7395 114.414 95.7108L116.238 126.695C116.245 126.759 116.256 126.822 116.273 126.883C116.342 127.793 117.321 144 117.84 152.601L118.874 170.366L119.561 170.311L137.14 182.428L162.892 181.301Z" fill="#2E1036"/>
<path opacity="0.2" d="M200.221 146.928L196.596 84.8748C196.522 83.6221 195.954 82.4497 195.017 81.6153C194.08 80.7808 192.85 80.3521 191.597 80.4237L143.95 83.2129V146.928H200.221Z" fill="#2E1036"/>
<path d="M130.173 95.6961L131.088 111.191L131.998 126.686C132.003 126.731 132.013 126.776 132.027 126.82C132.027 126.869 133.595 152.587 133.595 152.587L135.078 178.215C135.175 179.837 135.912 181.354 137.126 182.434C138.341 183.513 139.934 184.066 141.556 183.972L169.741 182.32L197.926 180.668C202.025 180.411 204.577 177.409 205.407 176.479C205.945 175.875 206.357 175.171 206.621 174.407C206.885 173.643 206.995 172.834 206.945 172.028L204.532 130.766L202.173 89.524C202.105 88.3682 201.58 87.2869 200.716 86.5173C199.851 85.7477 198.716 85.3528 197.56 85.4192L167.595 87.1699L137.64 88.9307H137.541C133.224 89.2075 129.921 91.6607 130.173 95.6961Z" fill="#2E1036" stroke="#2E1036" stroke-width="1.47" stroke-linejoin="round"/>
<path d="M201.229 178.527L144.815 181.83C144.011 181.878 143.206 181.768 142.446 181.505C141.685 181.241 140.984 180.83 140.382 180.295C139.781 179.761 139.29 179.113 138.939 178.388C138.588 177.664 138.384 176.877 138.337 176.074L133.531 93.55C133.465 92.3933 133.86 91.2577 134.631 90.3925C135.401 89.5273 136.483 89.0033 137.64 88.9358L197.555 85.4194C198.127 85.386 198.701 85.4655 199.243 85.6538C199.784 85.8421 200.284 86.135 200.712 86.516C201.14 86.8975 201.489 87.3591 201.739 87.8752C201.989 88.3913 202.135 88.9516 202.168 89.5243L206.99 172.048C207.084 173.671 206.531 175.265 205.451 176.48C204.37 177.695 202.852 178.431 201.229 178.527Z" fill="#4582C3" stroke="#2E1036" stroke-width="1.71" stroke-miterlimit="10"/>
<path d="M203.894 120.519C204.171 125.227 135.533 129.253 135.261 124.539L133.442 93.5548C133.375 92.3981 133.771 91.2625 134.541 90.3973C135.312 89.532 136.394 89.0081 137.551 88.9406L197.466 85.4242C198.622 85.3578 199.757 85.7531 200.622 86.5227C201.486 87.2919 202.011 88.3735 202.079 89.529L203.894 120.519Z" stroke="#2E1036" stroke-width="1.71" stroke-miterlimit="10"/>
<path d="M198.712 116.68L139.934 120.142C139.64 120.16 139.345 120.12 139.066 120.024C138.788 119.928 138.53 119.778 138.31 119.582C138.089 119.386 137.91 119.149 137.781 118.883C137.653 118.618 137.578 118.33 137.56 118.036L136.235 95.419C136.205 94.891 136.278 94.3618 136.452 93.8622C136.626 93.3627 136.896 92.9021 137.248 92.5072C137.6 92.1123 138.026 91.7905 138.502 91.5602C138.978 91.3299 139.495 91.196 140.023 91.1656L195.251 87.9065C196.316 87.8443 197.363 88.208 198.16 88.9176C198.958 89.6268 199.441 90.6241 199.503 91.69L200.824 114.307C200.841 114.601 200.8 114.896 200.703 115.175C200.606 115.454 200.456 115.711 200.26 115.931C200.064 116.152 199.826 116.331 199.56 116.46C199.295 116.588 199.006 116.663 198.712 116.68Z" fill="#35669A"/>
<path d="M151.517 140.278L151.199 135.15C151.136 134.136 150.263 133.364 149.249 133.427L144.121 133.745C143.108 133.808 142.337 134.681 142.4 135.695L142.718 140.824C142.781 141.838 143.653 142.609 144.667 142.547L149.795 142.228C150.809 142.166 151.58 141.292 151.517 140.278Z" fill="#EAEAEA" stroke="#2E1036" stroke-width="1.71" stroke-miterlimit="10"/>
<path d="M152.243 152.049L151.924 146.921C151.862 145.907 150.989 145.135 149.975 145.198L144.847 145.517C143.833 145.58 143.062 146.453 143.125 147.467L143.443 152.595C143.506 153.61 144.379 154.381 145.393 154.318L150.521 154C151.534 153.937 152.306 153.064 152.243 152.049Z" fill="#EAEAEA" stroke="#2E1036" stroke-width="1.71" stroke-miterlimit="10"/>
<path d="M152.978 163.825L152.66 158.697C152.597 157.683 151.724 156.911 150.71 156.974L145.583 157.292C144.569 157.355 143.798 158.228 143.86 159.242L144.179 164.371C144.242 165.385 145.115 166.157 146.129 166.094L151.256 165.775C152.27 165.713 153.041 164.839 152.978 163.825Z" fill="#EAEAEA" stroke="#2E1036" stroke-width="1.71" stroke-miterlimit="10"/>
<path d="M163.287 139.548L162.969 134.419C162.906 133.405 162.033 132.634 161.019 132.697L155.891 133.015C154.877 133.078 154.106 133.951 154.169 134.965L154.487 140.094C154.55 141.108 155.423 141.879 156.437 141.816L161.565 141.498C162.579 141.435 163.349 140.562 163.287 139.548Z" fill="#EAEAEA" stroke="#2E1036" stroke-width="1.71" stroke-miterlimit="10"/>
<path d="M164.017 151.324L163.699 146.195C163.636 145.181 162.763 144.41 161.749 144.473L156.621 144.791C155.607 144.854 154.836 145.727 154.899 146.741L155.217 151.87C155.28 152.884 156.153 153.655 157.167 153.593L162.295 153.274C163.309 153.211 164.08 152.338 164.017 151.324Z" fill="#EAEAEA" stroke="#2E1036" stroke-width="1.71" stroke-miterlimit="10"/>
<path d="M164.743 163.095L164.424 157.967C164.362 156.953 163.489 156.181 162.475 156.244L157.347 156.562C156.333 156.625 155.562 157.499 155.625 158.513L155.943 163.641C156.006 164.656 156.879 165.427 157.893 165.364L163.021 165.046C164.035 164.983 164.806 164.109 164.743 163.095Z" fill="#EAEAEA" stroke="#2E1036" stroke-width="1.71" stroke-miterlimit="10"/>
<path d="M175.06 138.822L174.742 133.693C174.679 132.679 173.806 131.908 172.792 131.971L167.665 132.289C166.651 132.352 165.88 133.225 165.943 134.239L166.261 139.368C166.324 140.382 167.197 141.153 168.21 141.09L173.338 140.772C174.352 140.709 175.123 139.836 175.06 138.822Z" fill="#EAEAEA" stroke="#2E1036" stroke-width="1.71" stroke-miterlimit="10"/>
<path d="M175.785 150.588L175.467 145.46C175.404 144.446 174.531 143.674 173.517 143.737L168.389 144.056C167.376 144.119 166.605 144.992 166.668 146.006L166.986 151.134C167.049 152.149 167.921 152.92 168.936 152.857L174.063 152.539C175.077 152.476 175.848 151.603 175.785 150.588Z" fill="#EAEAEA" stroke="#2E1036" stroke-width="1.71" stroke-miterlimit="10"/>
<path d="M176.516 162.364L176.198 157.235C176.135 156.221 175.262 155.45 174.248 155.513L169.12 155.831C168.106 155.894 167.335 156.767 167.398 157.781L167.716 162.91C167.779 163.924 168.652 164.695 169.666 164.632L174.794 164.314C175.808 164.251 176.579 163.378 176.516 162.364Z" fill="#EAEAEA" stroke="#2E1036" stroke-width="1.71" stroke-miterlimit="10"/>
<path d="M186.825 138.087L186.507 132.958C186.444 131.944 185.571 131.173 184.557 131.235L179.429 131.554C178.415 131.617 177.644 132.49 177.707 133.504L178.025 138.633C178.088 139.647 178.961 140.418 179.975 140.355L185.103 140.037C186.117 139.974 186.888 139.101 186.825 138.087Z" fill="#EAEAEA" stroke="#2E1036" stroke-width="1.71" stroke-miterlimit="10"/>
<path d="M185.287 142.996L180.16 143.315C179.146 143.377 178.375 144.25 178.438 145.265L179.486 162.166C179.549 163.18 180.422 163.951 181.436 163.888L186.563 163.57C187.578 163.507 188.348 162.634 188.286 161.62L187.237 144.719C187.174 143.704 186.301 142.933 185.287 142.996Z" fill="#EAEAEA" stroke="#2E1036" stroke-width="1.71" stroke-miterlimit="10"/>
<path d="M198.599 137.356L198.281 132.228C198.218 131.213 197.345 130.442 196.331 130.505L191.203 130.823C190.189 130.886 189.418 131.76 189.481 132.774L189.799 137.902C189.862 138.917 190.735 139.688 191.749 139.625L196.877 139.307C197.891 139.244 198.662 138.37 198.599 137.356Z" fill="#EAEAEA" stroke="#2E1036" stroke-width="1.71" stroke-miterlimit="10"/>
<path d="M199.328 149.133L199.01 144.004C198.947 142.99 198.075 142.219 197.06 142.282L191.933 142.6C190.919 142.663 190.148 143.536 190.211 144.55L190.529 149.679C190.592 150.693 191.465 151.464 192.479 151.401L197.606 151.083C198.62 151.02 199.391 150.147 199.328 149.133Z" fill="#EAEAEA" stroke="#2E1036" stroke-width="1.71" stroke-miterlimit="10"/>
<path d="M200.06 160.909L199.741 155.78C199.679 154.766 198.806 153.995 197.792 154.058L192.664 154.376C191.65 154.439 190.879 155.312 190.942 156.326L191.26 161.455C191.323 162.469 192.196 163.24 193.21 163.177L198.338 162.859C199.352 162.796 200.122 161.923 200.06 160.909Z" fill="#EAEAEA" stroke="#2E1036" stroke-width="1.71" stroke-miterlimit="10"/>
<path d="M198.681 93.3762L137.241 97.0055L138.333 115.49L199.773 111.861L198.681 93.3762Z" fill="#E27197" stroke="#2E1036" stroke-width="1.71" stroke-miterlimit="10"/>
<path d="M137.432 115.296L136.374 97.3238C136.359 97.0721 136.394 96.8197 136.477 96.5816C136.56 96.3434 136.689 96.124 136.856 95.9357C137.024 95.7475 137.227 95.5941 137.454 95.4842C137.681 95.3743 137.927 95.3105 138.179 95.2959L197.545 91.7896C197.797 91.7746 198.049 91.8099 198.287 91.8928C198.525 91.9753 198.745 92.1043 198.933 92.2719C199.121 92.4396 199.275 92.6425 199.385 92.8698C199.494 93.0967 199.558 93.3431 199.573 93.5947L200.631 111.567C200.646 111.819 200.612 112.071 200.53 112.309C200.448 112.547 200.319 112.767 200.152 112.955C199.985 113.143 199.782 113.297 199.555 113.407C199.328 113.516 199.082 113.58 198.831 113.595L139.459 117.096C139.208 117.112 138.956 117.077 138.718 116.995C138.48 116.913 138.26 116.785 138.072 116.618C137.884 116.45 137.73 116.247 137.621 116.02C137.511 115.794 137.446 115.548 137.432 115.296ZM139.069 99.7124L139.821 112.601C139.852 113.109 140.084 113.584 140.464 113.922C140.845 114.261 141.344 114.434 141.853 114.406L196.136 111.206C196.644 111.176 197.119 110.945 197.457 110.565C197.795 110.185 197.969 109.686 197.941 109.179L197.184 96.2853C197.17 96.0336 197.106 95.7876 196.996 95.5607C196.886 95.3342 196.733 95.1313 196.544 94.964C196.356 94.7967 196.136 94.6685 195.899 94.5859C195.66 94.5038 195.408 94.4693 195.157 94.4847L140.859 97.6846C140.353 97.7164 139.88 97.9478 139.544 98.3281C139.209 98.7084 139.038 99.2061 139.069 99.7124Z" fill="#EAEAEA" stroke="#2E1036" stroke-width="1.71" stroke-miterlimit="10"/>
<path d="M150.847 108.259L156.855 107.883L156.954 109.465L150.867 109.841L150.773 108.358L149.289 108.451L149.002 103.867L150.486 103.773L150.392 102.289L154.976 102.007L155.07 103.491L156.553 103.397L156.741 106.478L150.733 106.849L150.847 108.259ZM150.659 105.251L155.109 104.975L155.025 103.55L150.575 103.822L150.659 105.251Z" fill="#2E1036"/>
<path d="M158.002 103.288L165.593 102.818L165.692 104.396L158.101 104.865L158.002 103.288ZM158.19 106.295L165.78 105.8L165.875 107.383L158.289 107.853L158.19 106.295Z" fill="#2E1036"/>
<path d="M170.121 104.119L168.692 104.208L168.974 108.718L167.397 108.817L166.902 101.226L168.485 101.127L168.574 102.611L170.002 102.521L169.909 101.038L171.486 100.939L171.58 102.422L173.009 102.333L172.915 100.85L174.492 100.751L174.962 108.337L173.385 108.437L173.108 103.926L171.679 104.015L171.961 108.525L170.378 108.624L170.121 104.119Z" fill="#2E1036"/>
<path d="M177.891 106.582L182.341 106.305L182.247 104.821L183.824 104.722L183.923 106.3L182.439 106.394L182.534 107.878L177.95 108.165L177.856 106.681L176.372 106.775L176.085 102.19L177.569 102.096L177.48 100.612L182.059 100.33L182.153 101.814L183.636 101.725L183.735 103.303L182.158 103.397L182.064 101.913L177.613 102.185L177.891 106.582Z" fill="#2E1036"/>
<path d="M185.148 101.67L186.023 101.616L185.969 100.741L186.844 100.686L186.79 99.8109L188.54 99.7021L188.491 98.871L185.905 99.0293L185.959 99.9047L185.04 99.9643L184.985 99.0443L185.86 98.9899L185.806 98.1146L188.476 97.9462L188.531 98.8268L189.406 98.7724L189.465 99.692L188.585 99.7464L188.639 100.622L186.889 100.731L186.943 101.562L189.569 101.398L189.628 102.318L185.203 102.59L185.148 101.67Z" fill="#2E1036"/>
<path d="M198.712 116.68L139.934 120.142C139.64 120.16 139.345 120.12 139.066 120.024C138.788 119.928 138.53 119.778 138.31 119.582C138.089 119.386 137.91 119.149 137.781 118.883C137.653 118.618 137.578 118.33 137.56 118.036L136.235 95.419C136.205 94.891 136.278 94.3618 136.452 93.8622C136.626 93.3627 136.896 92.9021 137.248 92.5072C137.6 92.1123 138.026 91.7905 138.502 91.5602C138.978 91.3299 139.495 91.196 140.023 91.1656L195.251 87.9065C196.316 87.8443 197.363 88.208 198.16 88.9176C198.958 89.6268 199.441 90.6241 199.503 91.69L200.824 114.307C200.841 114.601 200.8 114.896 200.703 115.175C200.606 115.454 200.456 115.711 200.26 115.931C200.064 116.152 199.826 116.331 199.56 116.46C199.295 116.588 199.006 116.663 198.712 116.68Z" stroke="#2E1036" stroke-width="1.71" stroke-miterlimit="10"/>
<path d="M154.551 123.871L146.475 124.366C146.166 124.384 145.862 124.278 145.629 124.072C145.397 123.867 145.255 123.578 145.234 123.268C145.224 123.114 145.245 122.959 145.295 122.814C145.344 122.667 145.423 122.533 145.525 122.417C145.627 122.301 145.751 122.206 145.889 122.139C146.028 122.071 146.178 122.031 146.332 122.021L154.402 121.527C154.556 121.517 154.71 121.537 154.857 121.587C155.002 121.637 155.137 121.715 155.253 121.817C155.369 121.919 155.463 122.043 155.531 122.182C155.599 122.32 155.639 122.471 155.648 122.625C155.667 122.936 155.562 123.241 155.357 123.475C155.151 123.708 154.861 123.851 154.551 123.871Z" fill="#EAEAEA" stroke="#2E1036" stroke-width="1.71" stroke-miterlimit="10"/>
<path d="M192.823 121.498L184.748 121.992C184.438 122.01 184.134 121.905 183.901 121.699C183.669 121.493 183.527 121.204 183.507 120.895C183.497 120.74 183.517 120.586 183.567 120.44C183.617 120.294 183.695 120.159 183.797 120.043C183.899 119.927 184.023 119.833 184.161 119.765C184.3 119.697 184.451 119.658 184.605 119.648L192.674 119.154C192.829 119.144 192.983 119.164 193.129 119.214C193.275 119.264 193.41 119.342 193.525 119.444C193.641 119.546 193.736 119.67 193.804 119.808C193.871 119.947 193.911 120.098 193.92 120.251C193.931 120.406 193.91 120.56 193.86 120.706C193.81 120.852 193.732 120.987 193.63 121.103C193.528 121.219 193.405 121.313 193.266 121.381C193.128 121.449 192.977 121.488 192.823 121.498Z" fill="#EAEAEA" stroke="#2E1036" stroke-width="1.71" stroke-miterlimit="10"/>
</g>
</svg>
