<svg width="95" height="112" viewBox="0 0 95 112" fill="none" xmlns="http://www.w3.org/2000/svg">
<mask id="mask0" style="mask-type:alpha" maskUnits="userSpaceOnUse" x="0" y="0" width="87" height="87">
<rect x="0.5" y="0.5" width="86" height="86" rx="4.5" fill="white" stroke="white"/>
</mask>
<g mask="url(#mask0)">
<line x1="-19.7925" y1="79.6716" x2="76.4091" y2="-16.53" stroke="#FFB200" stroke-width="2" stroke-linecap="round"/>
<line x1="11.5273" y1="110.774" x2="107.729" y2="14.5725" stroke="#FFB200" stroke-width="2" stroke-linecap="round"/>
<line x1="-44.1523" y1="54.0066" x2="52.0492" y2="-42.195" stroke="#FFB200" stroke-width="2" stroke-linecap="round"/>
<line x1="-38.4976" y1="59.8791" x2="57.704" y2="-36.3225" stroke="#FFB200" stroke-width="2" stroke-linecap="round"/>
<line x1="-12.8325" y1="85.7616" x2="83.3691" y2="-10.44" stroke="#FFB200" stroke-width="2" stroke-linecap="round"/>
<line x1="18.4873" y1="116.864" x2="114.689" y2="20.6625" stroke="#FFB200" stroke-width="2" stroke-linecap="round"/>
<line x1="-32.8423" y1="67.2741" x2="63.3593" y2="-28.9275" stroke="#FFB200" stroke-width="2" stroke-linecap="round"/>
<line x1="-5.22021" y1="90.9816" x2="90.9814" y2="-5.21998" stroke="#FFB200" stroke-width="2" stroke-linecap="round"/>
<line x1="26.1001" y1="122.084" x2="122.302" y2="25.8825" stroke="#FFB200" stroke-width="2" stroke-linecap="round"/>
<line x1="-25.4473" y1="72.929" x2="70.7543" y2="-23.2725" stroke="#FFB200" stroke-width="2" stroke-linecap="round"/>
<line x1="5.87256" y1="104.032" x2="102.074" y2="7.83001" stroke="#FFB200" stroke-width="2" stroke-linecap="round"/>
<line x1="0.652344" y1="97.2891" x2="96.8539" y2="1.08752" stroke="#FFB200" stroke-width="2" stroke-linecap="round"/>
<line x1="31.9727" y1="128.392" x2="128.174" y2="32.19" stroke="#FFB200" stroke-width="2" stroke-linecap="round"/>
<line x1="38.2798" y1="131.872" x2="134.481" y2="35.67" stroke="#FFB200" stroke-width="2" stroke-linecap="round"/>
</g>
<g clip-path="url(#clip0)">
<path d="M94.9615 25.8299C94.9769 52.2704 95.0077 78.7033 95 105.144C95 109.417 92.5019 111.962 88.2767 111.969C67.5438 112 46.8186 112 26.0858 111.954C21.475 111.946 19.4704 109.625 19.4704 104.629C19.4626 79.1491 19.4626 53.6616 19.4549 28.1818C19.4549 27.2287 19.401 26.2757 19.3701 25.3226C20.4418 24.2465 21.8451 24.3925 23.1636 24.3925C45.6081 24.3695 68.0527 24.3618 90.4972 24.3925C92.1241 24.3925 93.8126 24.3234 94.9615 25.8299Z" fill="#323232"/>
<path d="M19.2935 21.3027C20.3421 16.5449 22.2696 15 27.1888 15C47.4051 15 67.6213 14.9923 87.8376 15.0077C92.4252 15.0153 94.8694 17.4288 94.9696 21.9176C93.8671 22.9475 92.4792 22.7861 91.1608 22.7861C68.6468 22.8092 46.1406 22.8168 23.6266 22.7707C22.0691 22.7707 20.2804 23.1166 19.2935 21.3027Z" fill="#323232"/>
<path d="M19.2933 21.3027C19.8022 22.079 20.604 21.9714 21.3596 21.9714C45.8937 21.956 70.4354 21.9329 94.9695 21.9176C94.9695 23.2242 94.9617 24.5309 94.9617 25.8375C93.9594 25.607 93.0496 25.1688 91.947 25.1688C68.1378 25.215 44.3285 25.1996 20.5192 25.2073C20.1414 25.2073 19.7559 25.2841 19.3781 25.3226C18.769 23.9928 19.0157 22.6478 19.2933 21.3027Z" fill="#F8AB05"/>
<path d="M57.0735 28.8044C66.8655 28.8044 76.6576 28.8966 86.4496 28.7429C88.9246 28.7045 89.4566 29.4885 89.4026 31.7867C89.2484 38.0817 89.3101 44.3844 89.3795 50.6871C89.3949 52.2781 89.2176 53.0313 87.2592 53.0237C67.1971 52.9468 47.135 52.9622 27.0729 53.0083C25.446 53.016 24.9757 52.5702 24.9989 50.9253C25.0991 44.3382 25.1145 37.7512 25.0066 31.1641C24.9757 29.281 25.4769 28.7275 27.4122 28.7506C37.2967 28.8659 47.189 28.8044 57.0735 28.8044Z" fill="#FEFEFE"/>
<path d="M67.4901 87.4809C67.4901 82.4234 67.5672 77.3582 67.4515 72.3084C67.4053 70.2715 67.9142 69.3645 70.1656 69.4337C74.6683 69.5798 79.1865 69.5336 83.697 69.4568C85.9639 69.4184 87.0433 70.2177 87.0279 72.5928C86.9739 82.7078 86.9816 92.8305 87.0279 102.946C87.0356 105.082 86.2106 106.105 83.99 106.074C79.2868 106.02 74.5835 105.989 69.8803 106.089C67.9142 106.128 67.4284 105.305 67.4593 103.514C67.5441 98.1725 67.4978 92.8306 67.4901 87.4809Z" fill="#FEB100"/>
<path d="M35.6774 90.6169C43.9505 90.6093 43.2951 89.8714 43.272 98.0649C43.2643 99.8712 43.2334 101.677 43.2797 103.484C43.3182 105.067 42.3853 105.943 41.0283 105.782C37.5895 105.367 34.1662 105.636 30.7351 105.597C28.8769 105.574 28.1753 104.867 28.2138 103.046C28.2909 99.8174 28.3295 96.5738 28.2061 93.3456C28.1213 91.178 29.0234 90.4402 31.0898 90.5939C32.6164 90.7015 34.1507 90.6169 35.6774 90.6169Z" fill="#497FA8"/>
<path d="M62.8795 78.6342C62.8795 79.7794 62.8795 80.9246 62.8795 82.0699C62.8795 86.0744 62.8795 86.0821 58.7005 86.0821C56.0173 86.0821 53.3342 86.0821 50.6433 86.0821C48.7543 86.0821 47.8291 85.1444 47.8291 83.2766C47.8291 80.033 47.8907 76.7895 47.8059 73.5536C47.7597 71.6397 48.6463 71.0632 50.4274 71.1017C53.6888 71.1785 56.9503 71.1939 60.204 71.094C62.201 71.0325 63.0105 71.8011 62.8872 73.7765C62.7947 75.3906 62.8795 77.0124 62.8795 78.6342Z" fill="#497FA8"/>
<path d="M62.8792 98.2032C62.8792 105.567 62.8792 105.567 55.4619 105.567C47.8442 105.567 47.8519 105.567 47.8442 98.1264C47.8365 89.8944 47.1117 90.6093 55.408 90.6169C62.8792 90.6246 62.8792 90.6169 62.8792 97.9188C62.8792 98.0111 62.8792 98.111 62.8792 98.2032Z" fill="#497FA8"/>
<path d="M28.2371 78.6572C28.2371 71.1171 28.2371 71.1171 35.7315 71.1171C37.0731 71.1171 38.4224 71.24 39.7408 71.094C42.37 70.7942 43.3878 71.9011 43.2952 74.4606C43.195 77.3121 43.2336 80.1637 43.2798 83.0153C43.3184 85.1828 42.2929 86.1205 40.1417 86.0821C37.0808 86.0283 34.0198 85.9745 30.9665 86.1052C28.7768 86.1974 28.0598 85.2597 28.2063 83.2228C28.3219 81.7087 28.2371 80.1791 28.2371 78.6572Z" fill="#497FA8"/>
<path d="M76.1099 57.9429C77.6365 57.9429 79.1863 58.0812 80.6975 57.9121C83.3807 57.6124 84.2751 58.7883 84.198 61.3248C84.0977 64.6606 83.558 65.3985 80.5896 65.4215C77.6288 65.4446 74.6604 65.4677 71.6996 65.4139C68.8931 65.3601 68.6695 64.6683 68.5384 60.364C68.4613 57.866 69.7566 57.8429 71.53 57.9198C73.0412 58.0044 74.5756 57.9429 76.1099 57.9429Z" fill="#497FA8"/>
<path d="M34.8832 57.9506C35.9395 57.9506 36.9881 57.9352 38.0444 57.9506C42.5934 58.0197 41.9689 57.2819 42.1848 62.0934C42.3004 64.6222 41.3135 65.5369 38.8848 65.46C36.1091 65.3754 33.3257 65.3678 30.55 65.46C28.1521 65.5369 27.011 64.6299 27.0727 62.1319C27.196 57.1281 26.7334 58.0428 31.1437 57.9583C32.3851 57.9275 33.6341 57.9506 34.8832 57.9506Z" fill="#4980A8"/>
<path d="M55.023 57.9506C56.0793 57.9506 57.1279 57.9506 58.1842 57.9506C62.0856 57.9506 63.5583 60.072 62.1781 63.7767C61.7309 64.9758 60.7826 65.4677 59.4718 65.4523C56.3106 65.4139 53.1494 65.4523 49.9882 65.4369C48.2071 65.4292 47.0429 64.799 47.2357 62.7314C47.3359 61.6937 47.2973 60.633 47.2434 59.5877C47.1817 58.3272 47.7985 57.9198 48.9782 57.9429C50.9905 57.9813 53.0106 57.9506 55.023 57.9506Z" fill="#497FA8"/>
<path d="M80.4047 49.8339C79.5412 49.8492 78.7239 49.6571 77.8835 49.4188C76.5881 49.0576 76.5265 48.166 76.7423 47.2206C77.0045 46.0753 77.9143 46.598 78.6082 46.7133C78.9783 46.7748 79.3253 46.9823 79.7031 47.0438C80.5898 47.1821 81.2528 46.7286 81.5227 45.9677C81.8928 44.907 80.8827 44.8378 80.2505 44.4843C79.518 44.0692 78.1533 44.6149 78.1071 43.1084C78.0608 41.5789 79.4641 42.1246 80.1503 41.6404C80.6514 41.2868 81.4533 40.987 80.983 40.1339C80.5975 39.4267 79.9035 39.4191 79.225 39.6496C78.3152 39.9648 77.1356 40.9409 76.8503 39.2038C76.6113 37.7511 77.6907 36.9672 79.1094 36.8442C82.7101 36.529 85.8481 36.6059 84.3369 41.9555C84.1519 42.6165 84.3832 42.9547 84.6299 43.4774C86.3724 47.1591 84.5682 49.8416 80.4047 49.8339Z" fill="#FCB006"/>
<path d="M71.7154 46.5058C72.7486 46.5826 73.2189 46.6441 73.6969 46.6441C74.7841 46.6518 75.9252 46.6057 75.9406 48.1506C75.956 49.9722 74.5297 49.2959 73.6353 49.3573C72.2012 49.4573 70.7593 49.4342 69.3252 49.365C68.5388 49.3266 67.4439 49.8108 67.0738 48.704C66.7192 47.651 67.097 46.7287 67.9374 45.8832C69.0708 44.7456 70.05 43.439 71.0832 42.2015C71.6229 41.5558 71.8079 40.841 71.2374 40.1339C70.7208 39.4882 70.1117 39.6112 69.4486 39.9648C68.5157 40.4644 67.7215 40.2953 67.4439 39.2039C67.1586 38.0817 67.7523 37.2592 68.8164 37.0671C70.9598 36.6751 73.35 35.9987 74.8381 38.2815C76.2259 40.4183 75.3315 42.4474 73.8511 44.246C73.3114 44.8917 72.6946 45.4681 71.7154 46.5058Z" fill="#FCB006"/>
<path d="M63.9282 42.263C64.3677 43.9386 62.6252 46.6288 66.0254 47.5742C66.4803 47.7048 66.4957 49.2805 65.1773 49.342C63.2651 49.4265 61.3453 49.3727 59.4331 49.3651C58.824 49.3651 58.2689 49.2421 58.2534 48.4581C58.238 47.774 58.2457 47.1975 59.1787 46.99C62.1086 46.329 60.0422 44.0231 60.5434 42.5474C61.0446 41.0793 60.1116 40.8641 58.878 41.1254C58.7161 41.1562 58.3614 40.8564 58.292 40.6412C58.0453 39.888 58.0376 39.1193 58.6544 38.5198C59.8572 37.3438 61.2296 36.5752 63.003 36.8288C64.1518 36.9903 63.8974 37.8819 63.9128 38.5967C63.9513 39.7342 63.9282 40.8795 63.9282 42.263Z" fill="#FBAF08"/>
<path d="M76.8193 86.0437C76.1562 86.0437 75.47 86.1436 74.8301 86.0206C73.928 85.8515 72.3242 86.6817 72.3242 85.1213C72.3242 83.8531 73.8277 84.3988 74.6836 84.3527C76.2025 84.2682 77.7291 84.2682 79.248 84.3527C80.1039 84.3988 81.6074 83.8531 81.6074 85.1213C81.6074 86.6817 80.0036 85.8669 79.1015 86.0206C78.3536 86.1436 77.5749 86.0437 76.8193 86.0437Z" fill="#EB9715"/>
<path d="M77.3591 88.3495C78.6004 88.8722 81.3221 87.2811 81.4301 89.3026C81.5072 90.8398 78.7161 89.7945 77.228 90.0328C76.1177 90.2096 74.9535 90.0866 73.8123 90.0559C73.1724 90.0405 72.3088 90.1635 72.2549 89.2565C72.2009 88.3034 73.0567 88.3803 73.7044 88.3649C74.8378 88.3265 75.9789 88.3495 77.3591 88.3495Z" fill="#EA9616"/>
<path d="M80.8985 85.3365C78.2847 85.3365 75.6709 85.3365 73.0571 85.3365C73.0571 85.2443 73.0571 85.1444 73.0571 85.0521C75.6246 85.0521 78.1999 85.0521 80.7674 85.0521C80.8059 85.1444 80.8522 85.2443 80.8985 85.3365Z" fill="#323232"/>
<path d="M73.0029 89.0797C75.5936 89.0797 78.1919 89.0797 80.7826 89.0797C80.7826 89.1489 80.7903 89.2258 80.7903 89.2949C78.1919 89.2949 75.6013 89.2949 73.0029 89.2949C73.0029 89.2258 73.0029 89.1489 73.0029 89.0797Z" fill="#323232"/>
</g>
<defs>
<clipPath id="clip0">
<rect width="76" height="97" fill="white" transform="translate(19 15)"/>
</clipPath>
</defs>
</svg>
