<svg width="120" height="136" viewBox="0 0 120 136" fill="none" xmlns="http://www.w3.org/2000/svg">
<mask id="mask0" style="mask-type:alpha" maskUnits="userSpaceOnUse" x="3" y="6" width="87" height="87">
<rect x="3.5" y="6.5" width="86" height="86" rx="4.5" fill="white" stroke="white"/>
</mask>
<g mask="url(#mask0)">
<line x1="-16.793" y1="85.6716" x2="79.4086" y2="-10.53" stroke="#4980A9" stroke-width="2" stroke-linecap="round"/>
<line x1="14.5273" y1="116.774" x2="110.729" y2="20.5725" stroke="#4980A9" stroke-width="2" stroke-linecap="round"/>
<line x1="-41.1523" y1="60.0066" x2="55.0492" y2="-36.195" stroke="#4980A9" stroke-width="2" stroke-linecap="round"/>
<line x1="-35.4971" y1="65.8791" x2="60.7045" y2="-30.3225" stroke="#4980A9" stroke-width="2" stroke-linecap="round"/>
<line x1="-9.83203" y1="91.7616" x2="86.3695" y2="-4.44001" stroke="#4980A9" stroke-width="2" stroke-linecap="round"/>
<line x1="21.4873" y1="122.864" x2="117.689" y2="26.6625" stroke="#4980A9" stroke-width="2" stroke-linecap="round"/>
<line x1="-29.8428" y1="73.2741" x2="66.3588" y2="-22.9275" stroke="#4980A9" stroke-width="2" stroke-linecap="round"/>
<line x1="-2.21973" y1="96.9816" x2="93.9818" y2="0.780023" stroke="#4980A9" stroke-width="2" stroke-linecap="round"/>
<line x1="29.0996" y1="128.084" x2="125.301" y2="31.8825" stroke="#4980A9" stroke-width="2" stroke-linecap="round"/>
<line x1="-22.4473" y1="78.929" x2="73.7543" y2="-17.2725" stroke="#4980A9" stroke-width="2" stroke-linecap="round"/>
<line x1="8.87207" y1="110.032" x2="105.074" y2="13.83" stroke="#4980A9" stroke-width="2" stroke-linecap="round"/>
<line x1="3.65234" y1="103.289" x2="99.8539" y2="7.08752" stroke="#4980A9" stroke-width="2" stroke-linecap="round"/>
<line x1="34.9727" y1="134.392" x2="131.174" y2="38.19" stroke="#4980A9" stroke-width="2" stroke-linecap="round"/>
<line x1="41.2803" y1="137.872" x2="137.482" y2="41.67" stroke="#4980A9" stroke-width="2" stroke-linecap="round"/>
</g>
<path opacity="0.3" d="M70.7068 95.8693L70.7915 95.5895H70.6698C70.2517 96.1279 69.8336 96.7138 69.8336 96.7138C70.3364 97.8222 71.5325 100.926 69.2461 101.918C68.4893 102.245 68.6163 102.34 69.1403 102.282C69.2673 102.24 69.3837 102.187 69.4896 102.119C71.072 101.77 72.1675 101.448 72.1675 100.752C72.1675 100.546 72.157 100.43 72.0564 100.076C71.7336 98.9254 70.9768 96.661 70.7068 95.8693Z" fill="#6FD8E5"/>
<path d="M59.8042 99.8438C64.6679 99.8386 69.4946 99.0257 71.474 98.197C71.1723 97.2628 70.8601 96.3232 70.7066 95.8746L70.7913 95.5948H70.6113H48.2774H48.0974L48.1821 95.8746C48.0392 96.3021 47.7481 97.1678 47.457 98.0545C49.2459 98.9465 54.5436 99.8544 59.8042 99.8438Z" fill="#9B3248"/>
<path d="M50.7012 113.208C50.7012 113.208 52.2571 116.344 53.4744 117.183C54.7816 118.08 58.4704 118.434 60.0581 118.392C61.3072 118.36 64.382 118.038 65.4299 117.352C66.6154 116.576 68.3725 113.726 68.3725 113.726L50.7012 113.208Z" fill="#953551"/>
<path d="M59.8037 104.98C64.6992 104.974 69.5523 104.156 71.5105 103.317C71.1983 102.346 71.0131 101.797 70.8543 101.327L66.5357 102.467L59.6344 103.18L47.9858 101.464C47.8323 101.913 47.7212 102.245 47.4248 103.169C49.1713 104.072 54.506 104.99 59.8037 104.98Z" fill="#9B3248"/>
<path d="M59.8037 110.041C64.6992 110.036 69.5523 109.218 71.5105 108.379C71.1983 107.408 71.0131 106.859 70.8543 106.389L66.5357 107.529L59.6344 108.242L47.9858 106.526C47.8323 106.975 47.7212 107.307 47.4248 108.231C49.1713 109.134 54.506 110.052 59.8037 110.041Z" fill="#9B3248"/>
<path d="M59.6342 68.2164L36.1465 64.6166C38.4169 67.3349 43.884 72.2015 44.5138 75.0518C44.9636 77.0839 45.1171 79.9553 45.2759 82.9956C45.477 86.7801 45.7046 87.6405 46.5725 89.9471C47.3823 92.0953 51.849 93.246 59.4966 93.2724C59.5442 93.2724 59.5865 93.2724 59.6342 93.2724C59.6818 93.2724 59.7241 93.2724 59.7718 93.2724C67.4193 93.246 71.8861 92.0953 72.6958 89.9471C73.5638 87.6405 73.7914 86.7801 73.9925 82.9956C74.1565 79.9553 74.3047 77.0892 74.7546 75.0518C75.3844 72.1962 80.8514 67.3349 83.1219 64.6166L59.6342 68.2164Z" fill="#FFCF21"/>
<path d="M71.1031 88.865C71.1031 89.8943 66.0541 90.7335 59.825 90.7335C53.5958 90.7335 48.5469 89.8996 48.5469 88.865C48.5469 87.8358 53.5958 86.9965 59.825 86.9965C66.0488 86.9965 71.1031 87.8358 71.1031 88.865Z" fill="#91704F"/>
<path d="M90.5167 46.6472C91.7296 29.6277 78.879 14.85 61.8139 13.6403C44.7489 12.4306 29.9316 25.247 28.7187 42.2664C27.5057 59.2859 40.3564 74.0636 57.4215 75.2733C74.4865 76.483 89.3037 63.6667 90.5167 46.6472Z" fill="#FFCF21"/>
<path d="M70.235 97.7167C70.6425 98.6826 71.1559 101.554 68.6473 102.446C66.144 103.338 59.8672 103.148 59.8672 103.148C59.8672 103.148 67.2607 103.285 68.2715 98.8409L70.235 97.7167Z" fill="#9B3248"/>
<path d="M70.3307 102.757C70.7382 103.723 71.2516 106.595 68.743 107.487C66.2397 108.379 59.9629 108.189 59.9629 108.189C59.9629 108.189 67.3564 108.326 68.3725 103.882L70.3307 102.757Z" fill="#9B3248"/>
<path d="M70.3307 107.677C70.7382 108.643 71.2516 111.514 68.743 112.406C66.2397 113.298 59.9629 113.108 59.9629 113.108C59.9629 113.108 67.3564 113.245 68.3725 108.801L70.3307 107.677Z" fill="#9B3248"/>
<path d="M33.7174 18.5162C33.5639 18.5162 33.4051 18.4581 33.2887 18.3367L27.811 12.7207C27.5782 12.4831 27.5835 12.1084 27.8216 11.8761C28.0598 11.6439 28.4355 11.6492 28.6684 11.8867L34.146 17.5028C34.3789 17.7403 34.3736 18.1151 34.1355 18.3473C34.019 18.4581 33.8656 18.5162 33.7174 18.5162Z" fill="#FFCF21"/>
<path d="M90.0131 78.1132C89.849 78.1132 89.6903 78.0498 89.5738 77.9179L84.2973 72.1751C84.075 71.9323 84.0909 71.5523 84.3344 71.3306C84.5778 71.1089 84.9589 71.1247 85.1811 71.3675L90.4577 77.1103C90.68 77.3531 90.6641 77.7331 90.4206 77.9548C90.2989 78.0604 90.156 78.1132 90.0131 78.1132Z" fill="#FFCF21"/>
<path d="M23.773 35.3538C23.7201 35.3538 23.6619 35.3486 23.609 35.3327L16.0937 33.2109C15.7762 33.1211 15.591 32.7886 15.6809 32.4719C15.7709 32.1552 16.1043 31.9705 16.4219 32.0602L23.9371 34.1821C24.2546 34.2718 24.4399 34.6043 24.3499 34.921C24.2758 35.1849 24.0323 35.3538 23.773 35.3538Z" fill="#FFCF21"/>
<path d="M102.408 58.9003C102.35 58.9003 102.286 58.8897 102.228 58.8739L94.7814 56.5303C94.4638 56.43 94.2892 56.0975 94.3897 55.7808C94.4903 55.4641 94.8237 55.2899 95.1413 55.3902L102.588 57.7338C102.905 57.8341 103.08 58.1666 102.979 58.4833C102.9 58.7366 102.662 58.9003 102.408 58.9003Z" fill="#FFCF21"/>
<path d="M16.2105 56.7098C15.9406 56.7098 15.6971 56.5303 15.6283 56.2611C15.5489 55.9391 15.7395 55.6172 16.0623 55.538L23.6304 53.6272C23.9533 53.5481 24.2761 53.7381 24.3555 54.0601C24.4349 54.382 24.2444 54.704 23.9215 54.7832L16.3534 56.6939C16.3058 56.7045 16.2581 56.7098 16.2105 56.7098Z" fill="#FFCF21"/>
<path d="M96.0523 37.6763C95.7771 37.6763 95.5284 37.4863 95.4702 37.2065C95.3961 36.8846 95.6025 36.5679 95.9253 36.494L103.546 34.8102C103.869 34.7363 104.187 34.9422 104.261 35.2641C104.335 35.5861 104.129 35.9028 103.806 35.9767L96.1846 37.6605C96.137 37.671 96.0947 37.6763 96.0523 37.6763Z" fill="#FFCF21"/>
<path d="M27.9438 76.857C27.7903 76.857 27.6316 76.7989 27.5151 76.6775C27.2823 76.44 27.2876 76.0652 27.5257 75.833L33.1198 70.4069C33.358 70.1747 33.7337 70.1799 33.9666 70.4175C34.1995 70.655 34.1942 71.0297 33.956 71.262L28.3619 76.6933C28.2455 76.8042 28.092 76.857 27.9438 76.857Z" fill="#FFCF21"/>
<path d="M87.5315 20.5905C87.3674 20.5905 87.2087 20.5272 87.0922 20.3953C86.87 20.1525 86.8858 19.7724 87.1293 19.5507L92.8874 14.2883C93.1309 14.0666 93.5119 14.0824 93.7342 14.3252C93.9565 14.568 93.9406 14.9481 93.6971 15.1698L87.939 20.4322C87.8226 20.5378 87.6744 20.5905 87.5315 20.5905Z" fill="#FFCF21"/>
<path d="M71.432 9.91263C71.3738 9.91263 71.3103 9.90208 71.2521 9.88624C70.9345 9.78595 70.7599 9.45342 70.8605 9.13673L73.2103 1.7102C73.3108 1.3935 73.6443 1.21932 73.9618 1.31961C74.2794 1.41989 74.454 1.75242 74.3535 2.06912L72.0036 9.49565C71.9242 9.74901 71.6861 9.91263 71.432 9.91263Z" fill="#FFCF21"/>
<path d="M51.9603 8.79888C51.6851 8.79888 51.4364 8.60886 51.3782 8.32911L49.6899 0.728401C49.6158 0.406426 49.8222 0.0897297 50.145 0.0158339C50.4679 -0.0580619 50.7854 0.147791 50.8595 0.469765L52.5478 8.07048C52.6219 8.39245 52.4155 8.70915 52.0926 8.78305C52.045 8.7936 52.0027 8.79888 51.9603 8.79888Z" fill="#FFCF21"/>
</svg>
