<svg width="136" height="136" viewBox="0 0 136 136" fill="none" xmlns="http://www.w3.org/2000/svg">
<circle cx="68" cy="68" r="68" fill="white"/>
<path d="M85.7021 110.556C82.7621 111.188 80.6221 109.732 78.7721 108.055C76.3621 105.893 72.0621 106.214 69.5321 108.211C65.1021 111.71 60.5821 111.674 56.1321 108.367C52.7221 105.838 50.0021 105.82 46.5121 108.303C41.7021 111.719 37.2621 111.637 32.4921 108.11C31.5821 107.442 30.7521 106.58 29.4121 106.58C28.1721 106.58 27.8521 105.838 28.0721 104.932C28.3221 103.924 29.3221 104.19 30.0621 104.254C31.9621 104.419 33.2721 105.646 34.6721 106.635C38.3721 109.246 40.6021 109.31 44.3121 106.764C49.7221 103.054 52.9121 103.09 58.1621 106.91C61.3021 109.191 64.1921 109.164 67.3621 106.828C72.4021 103.109 75.8321 103.063 80.9921 106.681C84.6221 109.219 86.7621 109.274 90.4021 106.901C96.4421 102.98 98.9921 103.017 104.732 107.112C105.682 107.79 106.702 108.367 107.922 108.532C108.832 108.66 109.052 109.228 108.972 109.915C108.862 110.886 107.992 110.62 107.352 110.638C105.522 110.693 104.162 109.832 102.832 108.788C98.9421 105.729 96.7021 105.674 92.5421 108.504C90.5121 109.878 88.4421 111.142 85.7021 110.556Z" fill="#70AE91"/>
<path d="M54.5766 69.9117C57.1849 70.9335 59.3406 72.4424 61.0112 74.6252C62.9728 77.1889 63.9824 80.0969 64.0003 83.3492C64.0147 85.8689 64.0039 88.385 64.0039 91C54.7023 91 45.4475 91 36.0309 91C36.0309 90.4946 36.0237 89.9635 36.0309 89.4325C36.0704 86.8065 35.8728 84.1476 36.2034 81.5582C36.8968 76.1232 39.9111 72.3545 44.8511 70.19C45.0163 70.1168 45.1744 70.0325 45.4582 69.8897C43.2451 67.8204 42.0631 65.3739 42.62 62.2901C42.9793 60.2941 43.9816 58.6973 45.5732 57.4923C48.6809 55.1484 53.0245 55.6135 55.6077 58.5508C58.4891 61.8213 58.1478 65.9892 54.5766 69.9117ZM37.9387 88.8831C40.9925 88.8831 43.6727 88.9124 46.3528 88.8648C47.2043 88.8502 47.7468 88.2751 47.833 87.4035C47.9193 86.5208 47.4558 85.9349 46.6438 85.6858C46.3097 85.5833 45.9325 85.6162 45.5768 85.6162C43.8667 85.6089 42.1565 85.6126 40.4105 85.6126C40.4105 84.8251 40.4105 84.1586 40.4105 83.4554C41.1146 83.4224 41.747 83.3968 42.5086 83.3602C42.5086 81.1663 42.5086 79.0348 42.5086 76.8923C46.1409 76.8923 49.6402 76.8923 53.2688 76.8923C53.2688 80.91 53.2688 84.8654 53.2688 88.8318C54.0341 88.8318 54.6628 88.8318 55.4209 88.8318C55.4209 85.543 55.4209 82.3163 55.4209 79.0861C56.1861 79.0861 56.8149 79.0861 57.5765 79.0861C57.5765 82.3713 57.5765 85.6016 57.5765 88.8245C59.0567 88.8245 60.404 88.8245 61.8447 88.8245C61.8447 86.9054 61.8663 85.0485 61.8411 83.1917C61.7513 77.1889 57.3825 72.2739 51.3934 71.4243C45.9037 70.6442 40.1769 74.2919 38.7865 79.9101C38.086 82.7302 38.2081 85.7554 37.9387 88.8831ZM50.0605 58.2028C47.1253 58.1809 44.6894 60.5981 44.6463 63.5793C44.5996 66.6155 47.0067 69.1352 49.9743 69.1535C52.906 69.1755 55.3454 66.7546 55.3886 63.7771C55.4353 60.7372 53.0317 58.2212 50.0605 58.2028ZM51.0054 88.8465C51.0054 85.543 51.0054 82.3164 51.0054 79.1007C48.857 79.1007 46.7983 79.1007 44.7289 79.1007C44.7289 80.5694 44.7289 81.9648 44.7289 83.4261C46.2954 83.3528 47.772 83.3418 48.9145 84.5504C50.0749 85.7774 50.2258 87.2277 49.7587 88.8465C50.2222 88.8465 50.5743 88.8465 51.0054 88.8465Z" fill="#70AE91"/>
<path d="M103.98 91C94.2823 91 84.7404 91 75.0351 91C75.2691 87.217 74.5634 83.4524 75.5588 79.7645C76.7548 75.3303 79.5851 72.2132 83.8082 70.3071C84.1053 70.1717 84.4099 70.051 84.8407 69.8681C82.6382 67.9473 81.4533 65.6461 81.7913 62.7777C82.0253 60.7765 82.9576 59.1045 84.5287 57.7984C87.6078 55.2338 92.1875 55.435 95.0326 58.2557C98.2714 61.4643 98.0337 65.5692 94.2935 69.8827C94.598 70.0217 94.884 70.1425 95.1663 70.2742C100.771 72.89 103.783 77.2255 103.973 83.3572C104.047 85.8634 103.98 88.3768 103.98 91ZM101.729 88.8049C101.729 86.6207 101.83 84.5719 101.711 82.5341C101.276 75.0486 93.6509 69.729 86.345 71.7559C83.0022 72.6815 80.5025 74.6571 78.7828 77.6206C76.7214 81.1694 77.39 85.0182 77.312 88.8488C80.1868 88.8488 82.8907 88.8707 85.5947 88.8378C86.6161 88.8232 87.3033 88.0805 87.281 87.1768C87.2587 86.3097 86.5975 85.6585 85.6244 85.589C85.1453 85.556 84.6624 85.578 84.1796 85.578C82.6382 85.578 81.1005 85.578 79.5776 85.578C79.5776 84.7585 79.5776 84.1182 79.5776 83.3426C80.3205 83.3426 81.0002 83.3426 81.7728 83.3426C81.7728 81.1072 81.7728 79.0035 81.7728 76.8999C85.5167 76.8999 89.1604 76.8999 92.9006 76.8999C92.9006 80.917 92.9006 84.8426 92.9006 88.7683C93.6769 88.7683 94.3529 88.7683 95.1254 88.7683C95.1254 85.4792 95.1254 82.2816 95.1254 79.095C95.9054 79.095 96.5814 79.095 97.354 79.095C97.354 82.3841 97.354 85.578 97.354 88.8597C98.5983 88.8597 99.7385 88.8634 100.883 88.8561C101.135 88.8488 101.384 88.8231 101.729 88.8049ZM89.5132 69.129C92.5403 69.1327 95.0437 66.6961 95.0734 63.7217C95.1032 60.6887 92.6035 58.1935 89.5281 58.1899C86.4973 58.1862 83.9976 60.6192 83.9679 63.5936C83.9382 66.6266 86.4416 69.1254 89.5132 69.129ZM84.0236 83.3499C85.6207 83.3646 87.203 83.2694 88.4027 84.528C89.5838 85.7646 89.7212 87.2097 89.2755 88.7756C89.7807 88.7756 90.1669 88.7756 90.5309 88.7756C90.5309 85.4792 90.5309 82.2597 90.5309 78.9962C89.3609 78.9962 88.2875 78.9962 87.2141 78.9962C86.1556 78.9962 85.097 78.9962 84.0199 78.9962C84.0236 80.5255 84.0236 81.8938 84.0236 83.3499Z" fill="#70AE91"/>
<path d="M59.0078 34.4824C59.0262 28.9087 62.3904 24.6753 67.2347 23.3672C71.9137 22.1059 76.9931 24.1722 79.5125 28.3624C81.9806 32.4664 81.3452 37.749 77.9627 41.1917C77.7349 41.4253 77.5109 41.6697 77.2465 41.8566C75.95 42.7765 75.4615 43.9948 75.4799 45.5688C75.5093 48.4725 73.2946 50.776 70.4483 50.9844C67.3155 51.2144 64.5426 48.8678 64.5463 45.788C64.5499 44.0631 64.0064 42.834 62.6438 41.7056C60.161 39.6537 59.0445 36.8901 59.0078 34.4824ZM68.9058 42.3812C68.9058 41.1738 68.869 40.0705 68.9205 38.9709C68.9498 38.2881 68.7699 37.9215 68.0831 37.5909C65.2 36.2002 64.7372 32.4951 67.1649 30.515C68.5532 29.383 70.1324 29.1315 71.7888 29.861C73.4342 30.5869 74.3414 31.8914 74.3928 33.6595C74.4442 35.4347 73.5738 36.7284 72.0055 37.6017C71.686 37.7814 71.1792 38.0329 71.1645 38.2773C71.0837 39.6213 71.1241 40.9689 71.1241 42.3848C71.9615 42.3848 72.6556 42.4136 73.3424 42.3705C73.5995 42.3525 73.9006 42.2195 74.0843 42.0434C74.7858 41.3678 75.4175 40.6275 76.1226 39.9591C79.5897 36.6637 79.7109 31.2805 76.3834 27.8557C73.0522 24.4238 67.5726 24.2764 64.0247 27.5179C60.4806 30.7558 60.2676 36.1283 63.551 39.6034C64.3663 40.4658 65.2073 41.3067 66.0557 42.1405C66.1916 42.2734 66.4304 42.3669 66.625 42.3741C67.3412 42.3992 68.0647 42.3812 68.9058 42.3812ZM73.2359 44.6093C71.0176 44.6093 68.9094 44.6093 66.7793 44.6093C66.5405 46.1725 66.8931 47.4555 68.2483 48.318C69.4016 49.0511 70.6172 49.0475 71.7668 48.3144C73.122 47.4519 73.4709 46.1654 73.2359 44.6093ZM69.9819 35.9199C71.1535 35.9342 72.1671 34.9747 72.1965 33.8284C72.2259 32.682 71.26 31.6793 70.0884 31.6362C68.869 31.5895 67.8186 32.585 67.8186 33.778C67.8186 34.928 68.8066 35.9091 69.9819 35.9199Z" fill="#70AE91"/>
<path d="M81.0078 58.9936C81.0115 60.2935 80.0855 61.4334 78.6965 61.8467C77.3222 62.2533 75.8486 61.8467 75.0439 60.6801C74.6433 60.1002 74.2024 59.9835 73.5336 59.9902C71.1525 60.0169 68.7676 60.0102 66.3865 59.9935C65.8096 59.9902 65.4053 60.0569 65.0416 60.5868C64.1927 61.8233 62.7449 62.26 61.3302 61.8467C59.9375 61.4401 59.0115 60.3068 59.0078 59.0036C59.0041 57.7005 59.9265 56.5639 61.3155 56.154C62.7265 55.7373 64.1854 56.1706 65.0305 57.4005C65.387 57.9204 65.7838 58.0104 66.3681 58.0071C68.786 57.9871 71.2076 57.9771 73.6255 58.0138C74.2906 58.0238 74.658 57.8371 75.0255 57.3272C75.856 56.1706 77.3038 55.7507 78.6781 56.1506C80.0744 56.5539 81.0041 57.6938 81.0078 58.9936ZM62.3738 60.3735C62.8405 59.7436 63.388 59.3236 63.3182 59.0203C63.23 58.637 62.6347 58.3471 62.2599 58.0171C61.9145 58.3737 61.3522 58.707 61.2971 59.097C61.2567 59.4036 61.8446 59.7836 62.3738 60.3735ZM78.95 59.257C78.95 59.117 78.9537 58.9803 78.9537 58.8403C78.5642 58.567 78.1379 58.0404 77.7999 58.0838C77.3736 58.1371 76.8077 58.6137 76.7048 58.9936C76.6387 59.2403 77.2707 59.8869 77.6382 59.9169C78.0497 59.9502 78.5127 59.4969 78.95 59.257Z" fill="#70AE91"/>
<path d="M85.0078 34.956C85.6979 34.1714 86.122 33.6888 86.7293 33C87.9872 34.5324 89.3709 35.8548 90.3198 37.4497C91.6136 39.623 92.6199 41.9842 93.655 44.3122C93.9389 44.9494 94.1402 45.4025 94.8698 45.6309C96.2463 46.0582 97.0657 47.4063 97.0046 48.8429C96.9435 50.2648 95.9731 51.4951 94.6074 51.8855C93.2812 52.2649 91.8257 51.6792 91.0601 50.4563C90.2946 49.2371 90.3521 47.7047 91.3476 46.5849C91.8149 46.0618 91.84 45.6345 91.646 45.0157C90.5067 41.3837 88.6342 38.2159 85.9818 35.5416C85.7338 35.2912 85.3636 35.1622 85.0078 34.956ZM94.0683 47.4468C93.9174 47.4468 93.77 47.4432 93.6191 47.4432C93.3208 47.8299 92.7493 48.2535 92.796 48.5924C92.8535 49.0234 93.3603 49.5944 93.77 49.6975C94.036 49.7675 94.7368 49.1339 94.7727 48.7692C94.8087 48.3567 94.3235 47.8889 94.0683 47.4468Z" fill="#70AE91"/>
<path d="M53.259 34C53.7759 34.5201 54.2344 34.9805 55.0078 35.7572C54.5998 35.9645 54.1606 36.0945 53.8614 36.3616C51.0282 38.892 49.0307 41.8897 47.8104 45.3197C47.6044 45.8996 47.6005 46.3142 48.1135 46.8203C49.2017 47.8957 49.2677 49.3366 48.4477 50.5104C47.6277 51.6842 46.0576 52.25 44.6197 51.895C43.1429 51.5295 42.082 50.3557 42.012 49.0027C41.9382 47.5864 42.8437 46.3388 44.4099 45.889C45.0861 45.6922 45.3698 45.3724 45.5757 44.7715C46.8932 40.9232 49.1434 37.5741 52.334 34.7485C52.6022 34.5096 52.8975 34.2917 53.259 34ZM45.568 50.2925C46.0615 49.6283 46.6406 49.1855 46.5668 48.8657C46.4735 48.4615 45.8439 48.1558 45.4475 47.8078C45.0822 48.1839 44.4876 48.5353 44.4293 48.9465C44.3865 49.2698 45.0083 49.6669 45.568 50.2925Z" fill="#70AE91"/>
<path d="M84.1014 34C83.7319 33.6095 83.3948 33.2566 83.0078 32.8511C83.28 32.2203 83.5172 31.6721 83.8068 31C84.2238 31.4355 84.5933 31.826 85.0078 32.2616C84.6807 32.8924 84.4086 33.4105 84.1014 34Z" fill="#70AE91"/>
<path d="M55.7785 31C56.2108 31.6349 56.5755 32.177 57.0078 32.8119C56.4702 33.2055 55.9777 33.5693 55.3913 34C54.9326 33.4356 54.5191 32.927 54.0078 32.2958C54.598 31.8614 55.1432 31.4641 55.7785 31Z" fill="#70AE91"/>
</svg>
