<svg id="Layer_1" data-name="Layer 1" xmlns="http://www.w3.org/2000/svg" xmlns:xlink="http://www.w3.org/1999/xlink" viewBox="0 0 100 100"><defs><style>.cls-1,.cls-45{fill:#fff;}.cls-1{stroke:#fff;}.cls-2,.cls-4{fill:none;}.cls-3{mask:url(#mask);}.cls-4{stroke:#509ad1;stroke-linecap:round;stroke-width:2px;}.cls-5{clip-path:url(#clip-path);}.cls-6{fill:#ec843b;}.cls-7{fill:#d75656;}.cls-8{fill:#eb813c;}.cls-9{fill:#e97e3d;}.cls-10{fill:#d75756;}.cls-11{fill:#e87a40;}.cls-12{fill:#e67742;}.cls-13{fill:#e57643;}.cls-14{fill:#e77a40;}.cls-15{fill:#e87c3e;}.cls-16{fill:#e37345;}.cls-17{fill:#e37245;}.cls-18{fill:#e26f47;}.cls-19{fill:#ea803c;}.cls-20{fill:#e27047;}.cls-21{fill:#e77940;}.cls-22{fill:#e87b3f;}.cls-23{fill:#d85954;}.cls-24{fill:#e47543;}.cls-25{fill:#db5f50;}.cls-26{fill:#db6050;}.cls-27{fill:#dc634e;}.cls-28{fill:#e27046;}.cls-29{fill:#d95b53;}.cls-30{fill:#dd644f;}.cls-31{fill:#e06b4b;}.cls-32{fill:#e06b4a;}.cls-33{fill:#da5d52;}.cls-34{fill:#e16e48;}.cls-35{fill:#df694c;}.cls-36{fill:#e06c4a;}.cls-37{fill:#e16c49;}.cls-38{fill:#eb823c;}.cls-39{fill:#e0694a;}.cls-40{fill:#dd664c;}.cls-41{fill:#de674c;}.cls-42{fill:#da5d51;}.cls-43{fill:#e67843;}.cls-44{fill:#e47446;}.cls-46{fill:#ee8837;}.cls-47{fill:#ed8738;}.cls-48{fill:#ed8639;}.cls-49{fill:#e47444;}.cls-50{fill:#ef8b34;}.cls-51{fill:#f29233;}.cls-52{fill:#f18f34;}.cls-53{fill:#f49530;}.cls-54{fill:#f69931;}.cls-55{fill:#f89d2e;}.cls-56{fill:#f9a02b;}.cls-57{fill:#f29133;}.cls-58{fill:#faa32b;}.cls-59{fill:#ee8936;}.cls-60{fill:#f19034;}.cls-61{fill:#f39432;}.cls-62{fill:#f49533;}</style><mask id="mask" x="-38.76" y="-36.9" width="158" height="154.01" maskUnits="userSpaceOnUse"><g id="mask0_1120:940" data-name="mask0 1120:940"><rect class="cls-1" x="1.23" y="1.38" width="75.1" height="75.1" rx="3.93"/></g></mask><clipPath id="clip-path"><rect class="cls-2" x="10.86" y="43.5" width="84.01" height="51.71"/></clipPath></defs><g class="cls-3"><line class="cls-4" x1="-16.49" y1="70.52" x2="67.52" y2="-13.49"/><line class="cls-4" x1="10.86" y1="97.68" x2="94.87" y2="13.67"/><line class="cls-4" x1="-37.76" y1="48.11" x2="46.25" y2="-35.9"/><line class="cls-4" x1="-32.83" y1="53.24" x2="51.19" y2="-30.77"/><line class="cls-4" x1="-10.41" y1="75.84" x2="73.6" y2="-8.17"/><line class="cls-4" x1="16.94" y1="103" x2="100.95" y2="18.99"/><line class="cls-4" x1="-27.89" y1="59.7" x2="56.12" y2="-24.32"/><line class="cls-4" x1="-3.77" y1="80.4" x2="80.25" y2="-3.61"/><line class="cls-4" x1="23.59" y1="107.56" x2="107.6" y2="23.55"/><line class="cls-4" x1="-21.43" y1="64.63" x2="62.58" y2="-19.38"/><line class="cls-4" x1="5.92" y1="91.8" x2="89.93" y2="7.78"/><line class="cls-4" x1="1.36" y1="85.91" x2="85.37" y2="1.9"/><line class="cls-4" x1="28.71" y1="113.07" x2="112.73" y2="29.06"/><line class="cls-4" x1="34.22" y1="116.11" x2="118.23" y2="32.1"/></g><g class="cls-5"><path class="cls-6" d="M94.87,73c-.75,1.73-.74,3.7-1.53,5.41-.32.68-.58,1.39-.87,2.09A27.51,27.51,0,0,1,87.61,85a4.72,4.72,0,0,0-1.19,1.21,1.68,1.68,0,0,1-.34.2c-1.83.23-3.47,1.15-5.25,1.62a16.32,16.32,0,0,1-9.17-.42,19.67,19.67,0,0,1-5.29-3c-.54-.38-1.09-.72-1.64-1.06A1.72,1.72,0,0,1,64,81.69a1.13,1.13,0,0,1,1.4-.54,4.11,4.11,0,0,1,1.26.94c2.51,2.61,5.63,3.57,9,4.15A12.61,12.61,0,0,0,83.73,85c1.65-.83,3.51-1.47,4.51-3.38A18.18,18.18,0,0,0,93.4,70.06c.2-1.87.41-3.77-.52-5.53a1.22,1.22,0,0,1-.19-.8c.38-1.51-.46-2.61-1.15-3.7a17,17,0,0,0-2.29-3.44,21.36,21.36,0,0,0-3.91-3.05c-.42-.25-.73-.64-1.12-.92a13,13,0,0,0-10.29-1.37,25.61,25.61,0,0,0-6.36,2.91c-.58.35-.84,1-1.28,1.52a15.81,15.81,0,0,0-5.11,10A20.34,20.34,0,0,0,61,71a20.73,20.73,0,0,0,2.73,7.82,2,2,0,0,1-1.7,2c-.87-3-2.5-5.74-2.92-9a20.27,20.27,0,0,1,2.72-13.9c2.91-4.57,6.77-7.82,12-8.81a18.26,18.26,0,0,1,8.6.34A26.64,26.64,0,0,1,87,51.59a11.66,11.66,0,0,0,2,.87,25.89,25.89,0,0,1,5.64,13c0,.22,0,.47.26.56Z"/><path class="cls-7" d="M20.81,66.92c-2.39,0-4.77,0-7.16,0a2.84,2.84,0,0,1-2.79-2.78,2.77,2.77,0,0,1,2.72-2.83q7.23,0,14.45,0c1.7,0,2.59,1.08,2.56,3A2.36,2.36,0,0,1,28,66.92Z"/><path class="cls-8" d="M89,52.45c-.7.71-1.45,0-1.86-.24A16,16,0,0,0,78,49.07,17.44,17.44,0,0,0,69.33,51a18.34,18.34,0,0,0-6,5.12A19.06,19.06,0,0,0,59.24,67a24.28,24.28,0,0,0,.81,7.75c.48,1.66,1.49,3.09,1.86,4.8.08.4.11.82.17,1.22s-.16.36-.39.34c-1.6-.72-2.09-2.44-2.63-3.92a26.34,26.34,0,0,1-1.73-10.12A21,21,0,0,1,59,60.3a19.52,19.52,0,0,1,12-12.14,20.75,20.75,0,0,1,8.34-1,15.76,15.76,0,0,1,6.51,2.18A13.19,13.19,0,0,1,89,52.45Z"/><path class="cls-7" d="M30.82,77.38c-2.09,0-4.18.07-6.27,0a2.37,2.37,0,0,1-2.4-1.71,3.07,3.07,0,0,1,.74-3.41,1.87,1.87,0,0,1,1.29-.46l13,.07c.24.15.57.15.64.57a20.74,20.74,0,0,1,.23,3.85,1,1,0,0,1-.78,1h-2.9A25.33,25.33,0,0,0,30.82,77.38Z"/><path class="cls-9" d="M85.93,49.31A2,2,0,0,1,84,48.78c-1.6-1.33-3.52-1.2-5.29-1.29a17.86,17.86,0,0,0-10.93,2.57,21.06,21.06,0,0,0-8.9,11.55,21,21,0,0,0-1.14,8.61A24.07,24.07,0,0,0,60.8,80a5.19,5.19,0,0,0,1,1c.1.65-.36.89-.73,1.2-1.26.77-1.26.77-1.5-.46a20.36,20.36,0,0,0-1.53-3.63A22.34,22.34,0,0,1,56.6,64.31a22.73,22.73,0,0,1,6.46-12.46,19.86,19.86,0,0,1,6.41-4.35,7,7,0,0,0,1.31-.84,8.46,8.46,0,0,1,4.33-.85c1.14,0,2.24-.58,3.4-.28.61-.12,1.11.6,1.75.26,1.24,0,2.15.9,3.14,1.54A10,10,0,0,1,85.93,49.31Z"/><path class="cls-10" d="M32.29,56.34a2.1,2.1,0,0,1-2-2.17c-.11-1.6.53-3,1.73-3.06a38.39,38.39,0,0,1,8.3.1c.15.26.21.6,0,.76-1.12.8-.66,1.92-.51,3s-.3,1.49-1.05,1.5A49.9,49.9,0,0,1,32.29,56.34Z"/><path class="cls-11" d="M83.63,91.16a15.84,15.84,0,0,1-5.16,2.62c-.38-.74-1-.41-1.51-.33-.27,0-.5.32-.82.27-1.54-.31-3.1-.45-4.64-.84a19.31,19.31,0,0,1-8.58-4.65,11,11,0,0,1-2-1.78,3.11,3.11,0,0,1-.79-2.53c.31-.63.73-1,1.43-.7a14.7,14.7,0,0,0,4.17,4.25A21,21,0,0,0,77.6,91.3a7,7,0,0,0,2-.27c.29-.09.73-.3.85-.1.66,1,1,0,1.46-.21A4,4,0,0,1,83,90.35C83.57,90.31,83.89,90.49,83.63,91.16Z"/><path class="cls-9" d="M83.63,91.16c0-.6-.32-.61-.78-.45a2.86,2.86,0,0,0-2,1.77c0-1.06-.14-1.47-1.08-1.17-2.33.72-4.68.29-7-.29a28.18,28.18,0,0,1-3.24-.94A19.56,19.56,0,0,1,65,87.36c-1.17-.88-2.12-2.1-3.23-3.09-.39-.35-.45-.61-.23-1,0-.55.42-.48.75-.5,1.35.66,2.09,2.1,3.32,3a21.66,21.66,0,0,0,9.11,4c3.65.61,7-.25,10.35-1.36a3.75,3.75,0,0,0,1-.68c.58-.41,1.11-.52,1.44.35A17.3,17.3,0,0,1,83.63,91.16Z"/><path class="cls-12" d="M60.18,84c.91,3.09,3.41,4.39,5.66,6s4.78,2.16,7.28,3c1,.32,2.14-.29,3,.54.1.25.39.45.25.79a1.31,1.31,0,0,1-1.28.28,15.82,15.82,0,0,1-6.67-2,4.58,4.58,0,0,0-2.36-1.23,1.3,1.3,0,0,1-.8-.39,1.88,1.88,0,0,0-1-.86A1.15,1.15,0,0,1,64,90a5.17,5.17,0,0,0-1.47-1.17,1.13,1.13,0,0,1-.27-.22,1.41,1.41,0,0,0-1.08-.94A13.14,13.14,0,0,1,57,81.9a17.51,17.51,0,0,0-2.28-4.58,34.85,34.85,0,0,1-.56-16h.77c.63.27.77.74.59,1.45a28,28,0,0,0-.35,10.72,21.35,21.35,0,0,0,2.15,6.2c.29.61.62,1.2.89,1.83a3.19,3.19,0,0,0,1.46,1.85A.94.94,0,0,1,60.18,84Z"/><path class="cls-13" d="M68.22,43.82a14.54,14.54,0,0,1,6.16,0c.19.69.18.73-.5.8a22.69,22.69,0,0,0-4.12.79,16.36,16.36,0,0,0-3.28,1.68,20.92,20.92,0,0,0-7.27,6.81,3.71,3.71,0,0,0-.39,1c-1.09.45-1.1,1.71-1.65,2.56-1-1.36-2.5-.71-3.76-1.06.18-.51.6-.4,1-.46a1.9,1.9,0,0,0,1.77-.88c.91-1.17,1.61-2.5,2.46-3.71a16.53,16.53,0,0,1,3.46-3.66,12.25,12.25,0,0,0,2.71-2.28,2.23,2.23,0,0,1,1.5-.7A3.31,3.31,0,0,0,68.22,43.82Z"/><path class="cls-14" d="M59.76,83.54c-.25.29-.38.4-.72,0-1.48-1.91-2.22-4.23-3.2-6.43a14.8,14.8,0,0,1-1.31-5.93c0-2.86-.28-5.81.76-8.57.23-.6-.23-.81-.39-1.2a2.81,2.81,0,0,0,2-.64c.4-.16.77-.13.52.43-1.83,4.08-1.38,8.29-.78,12.55A21.27,21.27,0,0,0,60,81.87c.06.25-.24.56,0,.72s.36-.14.45-.34.3-.22.49-.1A1.13,1.13,0,0,1,59.76,83.54Z"/><path class="cls-15" d="M60,81.87c-1.05-.37-1.26-1.52-1.77-2.36a17.81,17.81,0,0,1-2.39-8.6c-.08-2.5-.77-5.18.51-7.64.38-.72,0-1.8.89-2.35.05,0-.24-.15-.39-.19a3.41,3.41,0,0,0,.63-2.2,11.26,11.26,0,0,1,2.19-4.13,18.19,18.19,0,0,0,3.14-3A22,22,0,0,1,69,47.05c.54-.27,1.15-.7,1.8-.18-.49,1-1.54,1.18-2.36,1.5-3.1,1.19-5.27,3.65-7.3,6.21a22.26,22.26,0,0,0-3.73,8.08,26.62,26.62,0,0,0-.43,11,17.3,17.3,0,0,0,2.15,5.84A17.94,17.94,0,0,1,60,81.87Z"/><path class="cls-16" d="M68.22,43.82c-.16,1.29-1.21,1.09-2,1.26a2.14,2.14,0,0,0-1.67,1,2.88,2.88,0,0,1-1.26,1.12,17.38,17.38,0,0,0-5.62,6c-.45.72-1,1.38-1.4,2.12a1.72,1.72,0,0,1-1.93,1c-.48-.48-.37-.92,0-1.45a41.92,41.92,0,0,1,5.44-7.39,1.14,1.14,0,0,0,.2-.89A18.6,18.6,0,0,1,68.22,43.82Z"/><path class="cls-17" d="M53.55,81.84a2.94,2.94,0,0,0,.9-1.92c.11-.29.24-.65.58-.55s.47.66.57,1.07a3.41,3.41,0,0,0,1,2.71c1,1,1.72,2.28,2.61,3.4,1.95,2.46,4.43,4.15,6.8,6a.86.86,0,0,0,1.06.07,31.45,31.45,0,0,0,3,1.18c.54.19,1.29.38,1,1.36h-.78c-.42-.23-.91,0-1.33-.21a10.13,10.13,0,0,1-2.51-.35c-.35,0-.63-.37-1-.27-.2,0-.41.09-.54-.17-2.06-1.12-3.52-3.1-5.38-4.52-1.64-1.25-2.63-3.14-3.8-4.84-.59-.86-1.75-1.21-1.91-2.45A1,1,0,0,1,53.55,81.84Z"/><path class="cls-18" d="M53.87,82.15c.08,0,.19.06.23.12.92,1.6,2.36,2.75,3.25,4.39a14.05,14.05,0,0,0,3.26,3.52,25,25,0,0,1,2.77,2.68c.42.53,1.46.23,1.49,1.3a19.58,19.58,0,0,1-9-5c-.29-1.1-1.16-1.92-1.3-3.1a9.62,9.62,0,0,0-1.27-2.52C52.85,82.79,52.91,82.24,53.87,82.15Z"/><path class="cls-10" d="M38,66.84c-1.15,0-2.3.06-3.46,0A2.47,2.47,0,0,1,32,64.2a2.58,2.58,0,0,1,2.49-2.88c1.07,0,2.13,0,3.2,0,.31,1.73.38,3.42-.74,4.93C37.34,66.44,37.92,66.12,38,66.84Z"/><path class="cls-19" d="M87.46,88c-.39-.26-.74-.6-1.24-.16-1.78,1.56-4,2-6.11,2.28a17.46,17.46,0,0,1-9.9-1.28A18.67,18.67,0,0,1,63,83.61a5.77,5.77,0,0,0-.79-.68.69.69,0,0,1,.89-.66,21.18,21.18,0,0,1,3.15,3c2,2,4.36,2.73,6.87,3.4a32.3,32.3,0,0,0,4.77.56,9.8,9.8,0,0,0,3.37-.6c1.93-.45,4-.88,5.46-2.49a24.22,24.22,0,0,0,2.32-1.86c.5-.4,1-1.09,1.75-.72A16.53,16.53,0,0,1,87.46,88Z"/><path class="cls-16" d="M52.33,61.36h1.54c.36.57,0,1.06-.13,1.58a30.66,30.66,0,0,0,0,11.34,20.63,20.63,0,0,0,.91,3c.12.2.33.36.35.63-.32.76-.72.2-1.1.08-1.26-1-2.75-.37-4.11-.64a.28.28,0,0,1,.11-.34,1.58,1.58,0,0,1,.73-.18l.74,0c.61,0,.74-.36.59-.9a26.3,26.3,0,0,1-.71-4.64A20.56,20.56,0,0,1,52.33,61.36Z"/><path class="cls-18" d="M51.31,77.13h-.77a3,3,0,0,1-.66-1.45,35.3,35.3,0,0,1-.88-5.2A3.32,3.32,0,0,0,48.94,68c.67-1.68.32-3.55.84-5.25a3.32,3.32,0,0,1,.5-1.39h1.29a10.27,10.27,0,0,1-.2,3.75,19.76,19.76,0,0,0-.28,5.58c.27,1.58.29,3.19.54,4.77A1.69,1.69,0,0,1,51.31,77.13Z"/><path class="cls-20" d="M60,46.58c.52.35.8.63.13,1.22a23.16,23.16,0,0,0-3.79,4.39c-.65,1-.95,2.17-1.87,3-.37.32-.09.77-.07,1.16l-1,.13a51.28,51.28,0,0,1-6.44.07c.22-.7.8-.48,1.26-.57s.69,0,1,0c.6,0,1.2,0,1.8,0,1.76.07,1.92.12,2.39-1.69s1.86-2.94,2.36-4.66A14.41,14.41,0,0,1,60,46.58Z"/><path class="cls-10" d="M40.55,87.66c-.63,0-1.26.06-1.89,0a2.21,2.21,0,0,1-2.12-1.42,3.46,3.46,0,0,1,.25-3.23A1.26,1.26,0,0,1,38,82.38c.38,0,.76.06,1.14.07.68,0,1,.38.72,1.07a1.83,1.83,0,0,0,.51,2.11,3.6,3.6,0,0,1,.72,1.3C41.26,87.48,40.86,87.53,40.55,87.66Z"/><path class="cls-21" d="M58.74,54.93c-.11-.29-.34-.59-.05-.89,1.39-1.43,2.36-3.26,4-4.54s3.51-2.43,5.29-3.61,3.77-1.29,5.75-1.54c.25,0,.92.4.68-.49.83.39,1.9-.19,2.58.77a.51.51,0,0,1-.3.39c-.32.07-.64.11-1,.19a8.93,8.93,0,0,1-3.61.56,6.52,6.52,0,0,0-3.19.81,23.5,23.5,0,0,0-9.23,7.75C59.48,54.61,59.37,55.34,58.74,54.93Z"/><path class="cls-22" d="M72.06,45.48c1.32.11,2.54-.58,3.85-.55.25.26.51.14.77,0l.28-.3.48.06c.4-.31-.55,1,.31.3.35-.27.94.06,1,.77-1.88.19-3.75.45-5.63.52-.85,0-1.5.66-2.32.59A17.15,17.15,0,0,0,63.2,51.5c-1.13,1.07-2,2.49-3.44,3.15a1.77,1.77,0,0,1,.67-1.54,26.39,26.39,0,0,1,8.15-6.45C69.7,46.12,70.93,46,72.06,45.48Z"/><path class="cls-23" d="M37.47,77.15c.6-1.2.25-2.46.15-3.67,0-.49.2-1.21-.4-1.59H40a6.05,6.05,0,0,1,.61,5.38A14.62,14.62,0,0,1,37.47,77.15Z"/><path class="cls-24" d="M54.64,77.43c-.77-.35-.85-1.28-1-1.9A28.65,28.65,0,0,1,53,67.24a37.29,37.29,0,0,1,.92-5.88h.27c.72,1-.13,2-.15,3-.08,2.8-.38,5.55.25,8.37a23.65,23.65,0,0,1,.66,4.73C54.81,77.54,54.73,77.54,54.64,77.43Z"/><path class="cls-25" d="M43.12,82.2h2.05a2.15,2.15,0,0,1,2.16,1.72,11.64,11.64,0,0,0,1.23,2.24c.29.47.69,1-.06,1.5H45.93a27.71,27.71,0,0,1-1.32-2.81A22,22,0,0,0,43.12,82.2Z"/><path class="cls-26" d="M46.44,56.55A2.86,2.86,0,0,1,44.73,52c.82-1.23,2.07-1,3.25-.95a.86.86,0,0,1,.13.91A46.93,46.93,0,0,1,46.44,56.55Z"/><path class="cls-14" d="M72.06,45.48c-1.68,1.16-3.75,1.28-5.44,2.5-2.58,1.88-5.1,3.8-6.86,6.67-1,1.14-1.25,2.76-2.26,3.88-.11-.34-.22-.68-.34-1,.14-1.14.06-2.43,1.58-2.57.87-.22.77-1.24,1.26-1.79,3.21-3.56,6.74-6.55,11.33-7.71A1,1,0,0,1,72.06,45.48Z"/><path class="cls-23" d="M32.29,56.34c1.91,0,3.84-.12,5.74,0,.72.05,1-.53,1.47-.69.26-.09.17-.53.11-.57-.84-.6.21-1.7-.55-2.34-.11-.1.16-.45.47-.49.57-.07.72-.54.79-1.07A2.42,2.42,0,0,1,41.84,54c-.11,1.27-.61,2.3-2,2.4A30.93,30.93,0,0,1,32.29,56.34Z"/><path class="cls-27" d="M48.5,87.66c0-.12.18-.31.15-.36-1.12-1.73-1.3-4.22-3.48-5.1h2a2.38,2.38,0,0,1,2.42,1.94,9.81,9.81,0,0,0,2.18,3.52Z"/><path class="cls-28" d="M51.31,77.13a44.9,44.9,0,0,0-.65-7.6,9.79,9.79,0,0,1,.27-3.2c.27-1.65.07-3.38.63-5h.77A36.83,36.83,0,0,0,51.38,70a31.62,31.62,0,0,0,.95,5.76C52.57,76.89,52.39,77.35,51.31,77.13Z"/><path class="cls-26" d="M43.88,66.84H41.83a6.89,6.89,0,0,1,1-5.47h1.8A8.43,8.43,0,0,1,43.88,66.84Z"/><path class="cls-25" d="M42.08,71.89h2.05a16.2,16.2,0,0,1,.69,4.44.84.84,0,0,1-.44.9,6.38,6.38,0,0,1-1.45,0A1.41,1.41,0,0,1,42,76.2a18.1,18.1,0,0,1-.34-3.82C41.68,72.14,41.9,72,42.08,71.89Z"/><path class="cls-29" d="M44.4,87.66H43.1a2,2,0,0,1-1.41-1.46c-.3-1.81-.72-3.5-2.67-4H42.6c1.3,1.14,1.37,3,2.11,4.44A.68.68,0,0,1,44.4,87.66Z"/><path class="cls-23" d="M39,82.19c.1.07.23.22.32.2,1.78-.38,2.16,1,2.36,2.36a4.47,4.47,0,0,0,1.4,2.91H40.55c.67-.81,0-1.3-.43-1.75-.64-.75-1.15-1.44-.55-2.51.33-.6-.07-.76-.51-.66a1.31,1.31,0,0,1-1.1-.36C38.27,82,38.66,82.17,39,82.19Z"/><path class="cls-30" d="M46.44,56.55c-.09-1.63.85-2.9,1.27-4.34A3.38,3.38,0,0,0,48,51l2.31,0c.22.15.52.41.32.63a13.11,13.11,0,0,0-2,4.23.88.88,0,0,1-.35.39c-.42.06-.88-.14-1.27.2Z"/><path class="cls-24" d="M71,95.16c-.18-1.08-1.09-1.08-1.76-1.25a5.16,5.16,0,0,1-2.34-1.21A3.08,3.08,0,0,1,64.75,91a.62.62,0,0,1,.15-.35.38.38,0,0,1,.5.08c.19.33.49.27.77.28.71.58,1.6.81,2.31,1.39,2.14,1,4.46,1.38,6.65,2.18A12.32,12.32,0,0,1,71,95.16Z"/><path class="cls-27" d="M44.39,77.15c.3-1.52-.22-3-.31-4.46a1.66,1.66,0,0,1,.05-.8h1.8c.5,1.42.58,2.94,1,4.39a.85.85,0,0,1-.3,1A6.83,6.83,0,0,1,44.39,77.15Z"/><path class="cls-23" d="M38,66.84c-.35-.46-.9-.08-1.34-.38A6.33,6.33,0,0,0,37.51,62c0-.2.14-.42.21-.63h1.8c.62.92.06,1.85,0,2.76s-.72,1.75-.25,2.72Z"/><path class="cls-31" d="M44.39,77.15H46.7a1.4,1.4,0,0,0,.74-1.79c-.13-.63-.29-1.26-.37-1.9s-.15-1.2.38-1.64l.79-.44A7.54,7.54,0,0,1,49,74.62a6.26,6.26,0,0,0,.76,2.54,1.09,1.09,0,0,1,0,.18l-15.37,0c-.08,0-.11-.1-.08-.15s.06-.08.09-.08h6.4a1.58,1.58,0,0,1,2,0Z"/><path class="cls-29" d="M39.27,66.84c-1-1.36.17-2.66.12-4,0-.46.13-1,.13-1.48h2c.41.78-.16,1.38-.36,2-.34,1.15.18,2.31-.15,3.44Z"/><path class="cls-27" d="M43.88,66.84c.26-1.83.51-3.65.77-5.48h1.79a16.24,16.24,0,0,1-.51,5.47Z"/><path class="cls-32" d="M51.31,56.3H49.26c1.07-1.63,1.47-3.65,2.56-5.26h1.54c.3.29.56.65.38,1.07C53.12,53.63,52.71,55.31,51.31,56.3Z"/><path class="cls-33" d="M42.85,77.15H40.8c-.08-.26-.28-.55-.22-.77.41-1.59-.44-3-.54-4.48h2C42.12,73.68,41.83,75.53,42.85,77.15Z"/><path class="cls-34" d="M51.31,56.3a31.1,31.1,0,0,0,1.87-3.46,2.17,2.17,0,0,0,.18-1.79c1.16.19,1.58-1.1,2.46-1.46a1.12,1.12,0,0,1-.34,1.54,7.09,7.09,0,0,0-1.74,3.53C53.35,56.07,52.57,56.53,51.31,56.3Z"/><path class="cls-35" d="M51.82,51.05c-.57,1.57-1.11,3.15-1.74,4.7-.1.27-.53.38-.82.56h-1c.4-1.2.51-2.52,1.31-3.55.1-.14.3-.39.27-.42-.35-.47-.71-.76.28-.54.63.13.27-.44.2-.74Z"/><path class="cls-24" d="M53.89,78c.34-.37.67.37,1,0,.52-.14.61.28.76.66.45,1.12,1.14,2.09,1.54,3.23a16.16,16.16,0,0,0,4.11,5.56c.31.32,1,.29.86,1a.51.51,0,0,1-.27.25c-.91.13-1.45-.61-1.9-1.18a27.68,27.68,0,0,1-4.59-7.06c-.27-.28-.09-1.45-.95-.56A3.28,3.28,0,0,0,53.89,78Z"/><path class="cls-36" d="M54.9,86c.25.68.3,1.47,1,1.95.39.29-.06.76,0,1.15l-1.56-1.41a2.6,2.6,0,0,1-2.21-2.16c-.29-1.19-1.15-2.2-1.59-3.38h.77c.92.07,1.33.78,1.77,1.53S53.76,85.76,54.9,86Z"/><path class="cls-37" d="M50.29,61.36l-.78,6.41c-.06.47-.35.24-.57.23-.27-.27-.53-.54-.8-.8,0-2,0-4,.86-5.84Z"/><path class="cls-37" d="M49.77,77.16a1,1,0,0,1-.94-1.09c0-1.6-.6-3.1-.6-4.69l.77-.9c.91,2.11.83,4.49,1.54,6.65C50.29,77.15,50,77.15,49.77,77.16Z"/><path class="cls-38" d="M90.81,83.55c-1.54.52-2.39,2.17-3.88,2.77-.31.19-.52.19-.52-.28-.12-.9.63-1,1.08-1.32a34.51,34.51,0,0,0,3.89-3.57,5.23,5.23,0,0,1,1.09-.67A9.5,9.5,0,0,1,90.81,83.55Z"/><path class="cls-39" d="M49,61.36c-.12,1.91-.72,3.77-.52,5.72a2.23,2.23,0,0,1-.34.11l-.67-.33a2.24,2.24,0,0,1-.67-2.32c.21-1.09.16-2.27.92-3.18Z"/><path class="cls-39" d="M50.55,82.19c1.11.82,1.47,2.22,2,3.4s.85,1.74,1.89,1.9a.17.17,0,0,1,0,.13s-.06.07-.08.11l-2-.07A4,4,0,0,1,50.9,85.6a10.94,10.94,0,0,0-2.14-3.41C49.35,82.2,50,82.19,50.55,82.19Z"/><path class="cls-40" d="M47.45,71.82c-.45,1.34.13,2.62.37,3.87s0,1.59-1.12,1.46c-.17-1.77-1.07-3.41-.77-5.25Z"/><path class="cls-41" d="M47.72,61.36c-.13.66-.28,1.32-.41,2a5.28,5.28,0,0,0,.16,3.53l-1.54,0a17.39,17.39,0,0,1,.51-5.47Z"/><path class="cls-33" d="M44.4,87.66c.14-.28.3-.58.07-.88-.89-1.15-.63-2.9-1.77-3.93-.12-.11-.07-.43-.1-.65h.52c.92.14,1,1,1.34,1.71a9.94,9.94,0,0,1,1.47,3.75Z"/><path class="cls-42" d="M41.06,66.83c-.69-1.91-.1-3.69.51-5.47h1.28a20.73,20.73,0,0,0-1,5.47Z"/><path class="cls-41" d="M48.76,82.2c1.88.5,1.77,2.66,2.77,3.91a8.71,8.71,0,0,1,.8,1.55h-.51c-1.37-.5-1.86-1.81-2.31-3.08a3.25,3.25,0,0,0-2.29-2.38C47.73,82.19,48.24,82.19,48.76,82.2Z"/><path class="cls-34" d="M54.9,86c-.62.43-.95.2-1.26-.49-.4-.89-1.06-1.66-1.38-2.58-.21-.58-.72-.41-.94-.78l2.23-.35.32.31c-.56.33-.86.65-.24,1.3A5.54,5.54,0,0,1,54.9,86Z"/><path class="cls-43" d="M76.42,94.33c0-.29-.56-.38-.26-.79.57-.88,1.52-.3,2.25-.64.19-.09,0,.58.06.88A4.65,4.65,0,0,1,76.42,94.33Z"/><path class="cls-22" d="M78.73,45.76c-.42-.62-.94-.71-1.63-.18l.35-.89c1.12-.19,1.9.63,2.81,1.1C79.74,46.63,79.24,45.84,78.73,45.76Z"/><path class="cls-23" d="M34.4,77.15v.23H30.82C32,76.9,33.21,77.26,34.4,77.15Z"/><path class="cls-18" d="M65.41,94.34c.45-.42.7,0,1,.27A1.17,1.17,0,0,1,65.41,94.34Z"/><path class="cls-44" d="M68.93,95c.45,0,.93-.19,1.33.21A1.87,1.87,0,0,1,68.93,95Z"/><path class="cls-45" d="M63.1,82.44c-.41-.1-.63.23-.87.49a.6.6,0,0,0-.67.31,3.12,3.12,0,0,0-1.38.8c-.36,0-.5-.12-.41-.5A5.52,5.52,0,0,0,61,82.15l.85-1.09.26-.28,1.56-2c.13-.71.74-1,1.08-1.55a8.37,8.37,0,0,1,1-1.38,6.23,6.23,0,0,0,1-1.19,14.64,14.64,0,0,1,1.38-1.66c1.69-1.91,1.69-1.91-.34-3.34l-.65-.44A9.48,9.48,0,0,1,65.27,68,3.34,3.34,0,0,0,64.11,67c-.27-.19-.53-.4-.81-.58a4.19,4.19,0,0,1-.79-.67.79.79,0,0,1-.07-.37,1,1,0,0,1,.36-.64l1.35-.88a18.59,18.59,0,0,0,2.23-1.12,17.51,17.51,0,0,0,2.05-1.18c2.6-1.4,5.24-2.71,7.82-4.19,1-.54,2.07-1.1,3.12-1.62a15,15,0,0,1,2-1.07.86.86,0,0,1,.73.11c.38.91-.36,1.32-.71,1.89a17.48,17.48,0,0,1-1.18,1.38,4.8,4.8,0,0,0-.83,1.11c-.68.92-1.58,1.61-2.19,2.59-.84,1.15-1.88,2.09-2.65,3.3-2.66,2.83-2,2.29.38,4.26.28.22.58.4.85.61.62.47,1.25.92,1.89,1.36s1.21.83,1.77,1.32c.49.66.18,1.11-.35,1.47a21.54,21.54,0,0,1-1.93,1.08c-1.22.61-2.4,1.31-3.6,2-.81.4-1.59.84-2.38,1.28-.42.21-.83.44-1.25.66s-.91.49-1.37.73a9.67,9.67,0,0,0-1.2.61c-.36.14-.67.37-1,.54s-.6.31-.94.22a3.08,3.08,0,0,0-1.23.69C63.85,82.22,63.59,82.58,63.1,82.44Z"/><path class="cls-46" d="M84.36,52.43a36.33,36.33,0,0,1,5.47,4.27c1.16,1.17,1.3,3.07,2.78,3.88-.46,1,.46,1.47.75,2.18.1.22,0,.45,0,.48-.72.22-.34.73-.2,1.06,1.52,3.59.5,7-.4,10.52A24.73,24.73,0,0,1,90.28,80a5.49,5.49,0,0,1-1.82,1.63,7.07,7.07,0,0,1-2.84,2.2c-1,.35-1.76,1.23-2.81,1.52a1.67,1.67,0,0,1-1.48,0c-.28-.64.19-.79.56-.91a2.82,2.82,0,0,0,1.21-.63,2,2,0,0,1,.31-.2c1.34-.67,2.59-1.51,3.87-2.3A2,2,0,0,0,88,80c.53-.89,1.11-1.75,1.66-2.63,2.42-3.82,2.8-8,2-12.45a15.15,15.15,0,0,0-5.84-9.44,12.5,12.5,0,0,0-8.39-2.79,14,14,0,0,0-4.89.72,14.18,14.18,0,0,0-8.16,7.68,11.53,11.53,0,0,1-1.47,2.75c-1,.3-1.07-.21-1-1.09.11-2,1.56-3.22,2.33-4.82C64.85,56.7,66,56,66.76,55a20.78,20.78,0,0,1,3.6-2.45c2.42-1.37,5-1.38,7.53-1.65a9.55,9.55,0,0,1,4.21.72C82.85,51.85,83.6,52.18,84.36,52.43Z"/><path class="cls-47" d="M81.29,85.2a7.16,7.16,0,0,0,3.6-1.32c1.19-.76,2.44-1.42,3.57-2.29a4.83,4.83,0,0,1-2.7,2.62c-1.05.41-2,1.31-3.14,1.66a14.48,14.48,0,0,1-6.54.83,24.88,24.88,0,0,1-6-1.71,13.54,13.54,0,0,1-4.73-3.8c.24-.19.45-.5.82-.4A3.62,3.62,0,0,1,68.3,82a13.15,13.15,0,0,0,6.61,3c2,.31,3.94.83,5.92.07C81,84.94,81.16,85.08,81.29,85.2Z"/><path class="cls-47" d="M66.94,55.2a.66.66,0,0,1-.3.57c-2,1.14-2.54,3.67-4,5.31-.52.56-.24,1.49-.47,2.24-.17.54.52.22.71.5a.51.51,0,0,1-.17.59c-.7.5.21.31.18.52l-.31.56c-.22.4,0,.88-.17,1.29-.92,3,0,5.85.86,8.68a1,1,0,0,0,.7.75c.51.22.35,1,.92,1.21a5,5,0,0,1-1.22,1.41C61.84,77,61.38,74.47,60.8,72a17.07,17.07,0,0,1,.32-8.14c.83-3.3,2.2-6.43,5.05-8.41C66.41,55.35,66.6,55,66.94,55.2Z"/><path class="cls-8" d="M63.1,82.44c.32-.22.56-.65,1-.55.16.45.33.91.5,1.37a37.15,37.15,0,0,0,5.31,3.54A16.46,16.46,0,0,0,81,88a13.32,13.32,0,0,0,5.13-2h.25a.53.53,0,0,0,.51.28c-1.75,2-4.16,2.1-6.38,2.84-1.51.5-3,.07-4.46.46-.53.14-1-.15-1.5-.25-2.6-.52-5.23-1.08-7.39-2.82A52.89,52.89,0,0,1,63.1,82.44Z"/><path class="cls-38" d="M86.16,86c-.53,1.19-1.69,1.39-2.64,1.69-6.47,2-12.51,1.19-18-3.35a8,8,0,0,1-.94-1.12c1,0,1.66.86,2.42,1.41,1.17.83,2.55,1.21,3.67,2.14a5.66,5.66,0,0,0,3.4,1c2.16.13,4.27.46,6.52-.13C82.5,87.18,84.2,86.05,86.16,86Z"/><path class="cls-48" d="M66.94,55.2l-.77.28c.75-1.85,2.4-2.3,3.89-3.1a21.24,21.24,0,0,1,3.83-1.46,13,13,0,0,1,6.87-.08,8.46,8.46,0,0,1,3.6,1.58A3.72,3.72,0,0,1,82,51.9a6.41,6.41,0,0,0-4.06-.66,36.06,36.06,0,0,1-4,.25,3,3,0,0,0-1.12.18C70.75,52.7,68.54,53.37,66.94,55.2Z"/><path class="cls-12" d="M57.2,81.87c-.59-1.06-1.21-2.1-1.77-3.18-.15-.29-.25-.57-.53-.71-.09-.18-.17-.37-.26-.55h.26C56.38,78.47,56.58,80.3,57.2,81.87Z"/><path class="cls-24" d="M62.33,88.54h.25a20.33,20.33,0,0,1,1.54,1.39c.26.28.92.12.77.83a2.47,2.47,0,0,1-2.82-2.22C62.16,88.4,62.24,88.4,62.33,88.54Z"/><path class="cls-12" d="M68.48,92.43A3.72,3.72,0,0,1,66.17,91C67,91.48,68.05,91.29,68.48,92.43Z"/><path class="cls-12" d="M64.12,89.93a3.1,3.1,0,0,1-1.54-1.39A2.25,2.25,0,0,1,64.12,89.93Z"/><path class="cls-12" d="M62.33,88.54h-.26c0-.6-.65-.62-.76-1.11Q62.41,87.34,62.33,88.54Z"/><path class="cls-12" d="M64.89,90.76l-.77-.83c.56,0,1.14,0,1.28.83Z"/><path class="cls-49" d="M62.07,88.54a3.86,3.86,0,0,0,2.82,2.22c.33,1.09,1.49,1.15,2,1.95,0,.51,0,.92-.66.42A33.46,33.46,0,0,1,57,84.19a6.1,6.1,0,0,0-.81-1,2.37,2.37,0,0,1-.77-2.66c.81,1.21,1.66,2.38,2.42,3.62a18.8,18.8,0,0,0,3.4,4.2A1.13,1.13,0,0,0,62.07,88.54Z"/><path class="cls-22" d="M76.68,44.93c-.14.22-.27.61-.42.62-.3,0-.33-.34-.35-.62A.62.62,0,0,1,76.68,44.93Z"/><path class="cls-50" d="M62.85,64.93c-.2-.05-.55-.05-.57-.15-.12-.49.37-.64.56-1,1.35-3.87,3.36-7.26,6.74-9.33,2.1-1.28,4.33-2.37,6.93-2.11a34.05,34.05,0,0,1,4,.28A13.72,13.72,0,0,1,88.85,58a16.06,16.06,0,0,1,2.65,4.64,21.43,21.43,0,0,1,.87,6.63c0,4.28-1.76,7.72-4.16,10.9-1.29,1.73-3.25,2.41-4.87,3.61A13.67,13.67,0,0,1,71.7,84a9,9,0,0,1-4.5-3.77,2.94,2.94,0,0,1,1.24-.69c1.16.59,2,1.69,3.28,2.2a3.28,3.28,0,0,0,1.77.56,5,5,0,0,1,2.26.34c2.23.75,4.3-.11,6.4-.75a10.5,10.5,0,0,0,5.43-4.35c1.61-2.36,3.22-4.82,2.86-8.17a29.66,29.66,0,0,0-.48-4.6,12.57,12.57,0,0,0-5-7.4c-1-.71-2.25-1.22-2.94-2.43l-.64,0a2.35,2.35,0,0,1-1.63-.16c-3.26-1.1-6.22-.22-9.09,1.51a11.64,11.64,0,0,0-4.79,5.55,11.51,11.51,0,0,1-1.73,2.34A2.58,2.58,0,0,1,62.85,64.93Z"/><path class="cls-51" d="M69.76,78.87A3.5,3.5,0,0,1,71,78.18a4.56,4.56,0,0,1,2.58.55c4.35,2.15,9.64.15,12.18-4.16A11.18,11.18,0,0,0,87,65.86,10.82,10.82,0,0,0,80,58c.37-.46.74-.92,1.1-1.39a1.64,1.64,0,0,1,2.28.09,15.18,15.18,0,0,1,6.2,9,13.71,13.71,0,0,1-3.4,12.47,11.54,11.54,0,0,1-11.83,3.76,13.76,13.76,0,0,1-4.46-2.35A.45.45,0,0,1,69.76,78.87Z"/><path class="cls-52" d="M69.76,78.87a10.74,10.74,0,0,0,6.41,3,11.09,11.09,0,0,0,7.64-2,13.53,13.53,0,0,0,3.46-3.61,13.85,13.85,0,0,0,2.15-5.36,13,13,0,0,0-1.06-7.85,18.68,18.68,0,0,0-5.69-6.58c-.59-.45-1,.27-1.56.11.29-.57,1-.87.93-1.66a41.17,41.17,0,0,1,3.79,2.62,13.4,13.4,0,0,1,3.88,5.26,11.21,11.21,0,0,1,1.11,4.54c-.15,2.25.62,4.77-1,6.78a4.11,4.11,0,0,0-.53,1.24c-1,2.51-2.91,4.15-4.71,5.76a8,8,0,0,1-3.46,1.41,16.91,16.91,0,0,1-3.76.74c-1,0-2.06-.69-3-.52-1.81.32-3-1.15-4.5-1.55-.56-.15-.95-1.1-1.41-1.68Z"/><path class="cls-53" d="M80,58c1.19-.84,1.78.6,2.65.9s1.3,1.14,2,1.74c2.58,2.41,3.06,5.74,3.26,9.12a7,7,0,0,1-.72,2.9c-2,4.81-6.19,8.23-11.66,7.1-1.56-.32-3-1.14-4.48-1.56a10.73,10.73,0,0,1,2.33-1.26c2,.31,3.85,1.19,5.9.61a8.2,8.2,0,0,0,5.38-4.62,9.2,9.2,0,0,0-.19-9.14A9.09,9.09,0,0,0,80,60.05c-.46-.21-.87-.35-.85-1A2.44,2.44,0,0,1,80,58Z"/><path class="cls-54" d="M79.13,59.05a7.28,7.28,0,0,0,2.63,1.6c1.74.88,2.6,2.43,3.53,4a8.07,8.07,0,0,1,.62,6.18c-1.11,3.76-3.5,6.67-7.43,7.29a10.75,10.75,0,0,1-2.87-.41c-.58-.07-1.11-.47-1.75-.23-.37.14-.47-.26-.51-.6,1.19-.66,2.39-1.31,3.59-2,1,.75,2.65.53,4-.42a8.85,8.85,0,0,0,2.68-3.76,1.76,1.76,0,0,0,0-1.09,13.77,13.77,0,0,1-.22-1.92,6.22,6.22,0,0,0-5.51-5.84,1.34,1.34,0,0,1-1-.35A16.35,16.35,0,0,1,79.13,59.05Z"/><path class="cls-55" d="M77,61.6a7.37,7.37,0,0,1,6.39,3.69c.54,1.11.13,2.39.51,3.45.66,1.87-.34,3.34-1.12,4.52A6.7,6.7,0,0,1,77.87,76c-.71.08-.83-.48-.94-1,.7-.39,1.39-.78,2.09-1.15.55-.29.63-.63.14-1.07a4.17,4.17,0,0,0,2.37-4,4.06,4.06,0,0,0-1.89-3.92c-1.38-.88-2.84-1.6-4.27,0a.66.66,0,0,1-1,0A23.11,23.11,0,0,1,77,61.6Z"/><path class="cls-56" d="M74.34,64.92a1.06,1.06,0,0,0,1-.39,2.24,2.24,0,0,1,3.16-.64,5.14,5.14,0,0,1,2.74,2.26,5.7,5.7,0,0,1-.13,5.27c-.44,1-1,1.44-2,1.33a5.51,5.51,0,0,1-1.69-1.24c0-.52.44-.62.71-.88a2.24,2.24,0,0,0,.49-2.72,1.46,1.46,0,0,0-1.93-.57,2.15,2.15,0,0,0-1,2.35.57.57,0,0,1-.09.51c-.88-.62-1.72-1.32-2.64-1.84s-.73-1.21-.23-1.86A19.38,19.38,0,0,1,74.34,64.92Z"/><path class="cls-52" d="M64.16,64.21c1.72-3.5,3.56-6.92,7-8.72,3.31-1.72,6.72-2.16,10.2-.52l-1.91,1a8.18,8.18,0,0,0-6,.3,13,13,0,0,0-7,6.67A6.07,6.07,0,0,1,64.16,64.21Z"/><path class="cls-57" d="M66.43,63c-.46-1.25.64-1.69,1.14-2.37,2.84-3.91,6.55-5.71,11.18-5.22.49,0,.72.1.74.62l-3.07,1.65c-1.64-.62-3.16.13-4.39,1a22.54,22.54,0,0,0-3.55,3.25A4.52,4.52,0,0,1,66.43,63Z"/><path class="cls-50" d="M62.33,66.59c-.25-.44-.31-.83.21-1.1a.13.13,0,0,1,.07.17c.15.41.51.48.83.62s.51.28.73.49A29.32,29.32,0,0,1,64.3,70a34.59,34.59,0,0,0,1.63,6l-1.08,1.38c-1.3.65-.5-.9-1-1.1A3.88,3.88,0,0,1,63,74.26c-.61-2.24-1.32-4.46-.63-6.84A3.3,3.3,0,0,0,62.33,66.59Z"/><path class="cls-58" d="M75.65,70.2c-.76-1.64,0-3.23,1.6-3.34.92-.06,1.63.2,1.87,1.21s.35,2-.58,2.73c-.34.26-.72.47-1.07.71A5.67,5.67,0,0,1,75.65,70.2Z"/><path class="cls-59" d="M67.2,80.23a4,4,0,0,1,1.49,1.39c1,1.43,2.56,1.87,4,2.44a14.12,14.12,0,0,0,8.6.3c.68-.17,1.27-.76,2-.54a1.2,1.2,0,0,1-1.16.83.83.83,0,0,0-.89.55c-4.44,1.3-8.48,0-12.35-2.26a28.05,28.05,0,0,1-2.76-2.15C66.51,80.59,66.76,80.2,67.2,80.23Z"/><path class="cls-60" d="M65.93,76a5.51,5.51,0,0,1-1-2.16,31.63,31.63,0,0,1-1-4.32,6.19,6.19,0,0,1,.2-2.79,2.16,2.16,0,0,1,1.18,1,13.39,13.39,0,0,1,.29,3.11A3.56,3.56,0,0,0,66.41,73c.24.4.55.86.22,1.25-.47.56.32.42.26.71A2.25,2.25,0,0,1,65.93,76Z"/><path class="cls-61" d="M68.48,61.88a1.47,1.47,0,0,1,.76-1.2,13.57,13.57,0,0,0,2-1.89c1.28-1.41,3.08-1.36,4.7-1.76.4-.1.46.3.5.63C73.84,59.21,71.16,60.55,68.48,61.88Z"/><path class="cls-51" d="M66.89,74.92l-.66-.3c.63-1.11-.42-1.68-.67-2.52a11,11,0,0,1-.21-4.38l1.92,1.33a9.54,9.54,0,0,0,1,4.22Z"/><path class="cls-62" d="M68.25,73.27c-1.43-1.1-1.26-2.65-1-4.22.26.15.53.28.78.45C70.34,71.12,70.34,71.19,68.25,73.27Z"/><path class="cls-59" d="M63.44,66.28c-.43,0-.85.06-.82-.62A1.45,1.45,0,0,1,63.44,66.28Z"/><path class="cls-59" d="M83.34,83.82c.38-.93,1.21-1.1,2-1.46,1.08-.51,1.76-1.7,2.9-2.15.11,1.41-1.12,1.42-1.8,2A7.91,7.91,0,0,1,83.34,83.82Z"/><path class="cls-59" d="M62.33,66.59a.73.73,0,0,1,.42,1c-.94,2.11-.1,4.07.39,6.06.22.89.48,1.78.72,2.67,0,.39-.17.5-.43.15a6.3,6.3,0,0,1-1.09-2.75,21.35,21.35,0,0,1-.63-6.47C61.76,66.91,62.06,66.74,62.33,66.59Z"/></g></svg>