<svg width="136" height="136" viewBox="0 0 136 136" fill="none" xmlns="http://www.w3.org/2000/svg">
<circle cx="68" cy="68" r="68" fill="white"/>
<path d="M80.0672 109.797C78.8072 109.605 77.9772 108.799 77.0472 108.102C73.8972 105.73 70.7272 105.711 67.5972 108.02C62.7572 111.583 58.8872 111.611 53.9772 108.121C50.6972 105.785 48.0572 105.711 44.7772 107.882C39.1472 111.592 36.2371 111.611 30.6671 107.974C29.5271 107.232 28.3571 106.545 26.9171 106.38C25.9171 106.261 25.9672 105.583 26.0272 104.942C26.0872 104.182 26.7472 104.191 27.3472 104.172C29.1872 104.108 30.5072 105.07 31.8272 106.06C36.4072 109.458 38.8072 109.431 43.3972 105.977C46.7172 103.476 51.0872 103.394 54.6772 105.757C60.4572 109.568 60.9472 109.559 66.8572 105.629C69.9972 103.531 74.9672 103.366 77.6772 105.721C80.9972 108.588 84.4172 109.302 88.4572 107.315C88.5272 107.644 88.5072 108.148 89.0372 108.038C89.2772 107.983 89.4172 107.507 89.5972 107.214C89.8272 107.095 90.4172 107.47 90.2472 106.811C90.0372 106.948 89.8172 107.085 89.6072 107.223C89.2372 107.232 88.8772 107.25 88.5072 107.26C91.7672 103.678 96.6172 102.972 100.617 105.519C102.387 106.646 103.797 108.295 106.167 108.524C106.927 108.597 107.017 109.211 107.007 109.77C106.997 110.814 106.097 110.521 105.477 110.548C103.647 110.631 102.307 109.733 100.967 108.725C96.6072 105.446 94.5272 105.473 89.9972 108.716C88.9972 109.431 88.0272 110.273 86.6072 110.273C86.9972 109.843 87.3972 109.412 87.9972 108.753C85.5272 109.064 83.4172 109.834 81.2372 108.954C80.6372 108.67 80.1872 109.165 80.0672 109.797Z" fill="#5B5EA8"/>
<path d="M80.0674 109.798C80.1874 109.174 80.6374 108.67 81.2774 108.927C83.4574 109.807 85.5574 109.037 88.0374 108.725C87.4274 109.385 87.0373 109.816 86.6473 110.247C84.3974 110.686 82.1974 110.696 80.0674 109.798Z" fill="#3A3A91"/>
<path d="M88.5275 107.241C88.8975 107.232 89.2576 107.214 89.6276 107.205L89.6176 107.195C89.4375 107.48 89.2975 107.965 89.0575 108.02C88.5275 108.13 88.5475 107.635 88.4775 107.296L88.5275 107.241Z" fill="#3A3A91"/>
<path d="M89.6279 107.196C89.8379 107.058 90.0579 106.921 90.2679 106.783C90.4479 107.452 89.8479 107.067 89.6279 107.196C89.6279 107.187 89.6279 107.196 89.6279 107.196Z" fill="#3A3A91"/>
<g clip-path="url(#clip0)">
<path d="M102 42.2418C101.597 43.5364 100.897 44.5635 99.5633 45.0932C99.4019 45.1574 99.2997 45.5586 99.2943 45.7993C99.2782 50.0898 99.2836 54.3857 99.2836 58.6761C99.2836 58.8527 99.2889 59.0292 99.2836 59.2058C99.262 60.2169 98.9285 60.5592 97.9226 60.5699C96.7929 60.5806 95.6633 60.5699 94.5336 60.5699C94.3184 60.5699 94.0979 60.5699 93.8666 60.5699C93.7213 61.7201 93.6998 62.8382 93.4309 63.8868C92.936 65.8394 92.2851 67.7546 91.7256 69.6966C91.6395 70.0069 91.5965 70.392 91.7041 70.6809C92.5648 73.0188 91.0263 75.4475 88.5303 75.6829C88.2613 75.7097 87.9332 75.8648 87.7557 76.0628C82.9197 81.5944 76.8195 84.5688 69.4767 85.0342C69.4122 85.0396 69.3476 85.0556 69.197 85.0877C69.197 86.254 69.197 87.4363 69.197 88.6186C69.197 90.079 68.9657 90.3091 67.5133 90.3091C64.5062 90.3091 61.4938 90.3091 58.4599 90.3091C58.0134 91.5235 57.2388 92.4169 55.9908 92.8128C54.1134 93.4119 52.0585 92.4222 51.3807 90.6087C50.676 88.7309 51.5636 86.6659 53.4033 85.8849C55.2108 85.1198 57.3464 85.8849 58.1748 87.6824C58.4169 88.2013 58.6912 88.319 59.213 88.3136C61.6014 88.2869 63.9952 88.3029 66.3836 88.3029C66.6203 88.3029 66.8624 88.3029 67.1421 88.3029C67.1421 87.1955 67.1421 86.1523 67.1421 85.1573C54.3555 83.761 46.3241 76.9027 42.9083 64.5501C41.359 64.5501 39.7452 64.5555 38.1314 64.5501C37.0341 64.5501 36.7059 64.2238 36.7005 63.1271C36.6952 59.1844 36.6898 55.247 36.7059 51.3042C36.7059 50.8334 36.6037 50.5873 36.125 50.3734C34.5488 49.6832 33.7096 47.9178 34.0808 46.2755C34.4681 44.5635 35.9582 43.3545 37.7011 43.3438C39.4332 43.3331 40.9287 44.5261 41.3429 46.2487C41.7356 47.8804 40.9072 49.6618 39.3256 50.3573C38.8039 50.5873 38.7285 50.8655 38.7285 51.3417C38.7447 54.819 38.7339 58.2963 38.7339 61.7736C38.7339 61.993 38.7339 62.2123 38.7339 62.4851C40.0465 62.4851 41.3106 62.4851 42.6393 62.4851C42.6393 62.3086 42.6501 62.1214 42.6393 61.9341C42.1928 56.563 43.2579 51.5235 45.953 46.8372C46.0713 46.6285 46.195 46.4092 46.3618 46.2434C46.7168 45.8849 47.1472 45.8368 47.5668 46.1096C47.9756 46.3771 48.1693 46.773 47.9756 47.2491C47.8196 47.6343 47.6044 47.9927 47.4 48.3619C45.8185 51.2668 44.9148 54.3696 44.6297 57.649C44.6081 57.9058 44.6243 58.1733 44.6243 58.4889C48.1155 58.4889 51.5905 58.4889 55.1355 58.4889C55.2 57.3975 55.1785 56.3169 55.3453 55.263C55.7649 52.5721 56.249 49.8919 56.76 47.217C56.8515 46.7409 56.7654 46.5429 56.3512 46.2915C54.6728 45.2804 53.0268 44.2105 51.3 43.1138C50.9719 43.4722 50.5469 43.943 50.1112 44.4031C49.5786 44.9594 48.9869 45.0504 48.5404 44.6491C48.0724 44.2319 48.0832 43.6701 48.5996 43.0763C53.1828 37.8068 58.9494 34.811 65.9318 34.1476C66.3245 34.1102 66.7171 34.0727 67.1744 34.0299C67.1744 32.7513 67.1744 31.4995 67.1744 30.2477C67.1744 29.1135 67.4918 28.7979 68.6376 28.7979C71.9566 28.7925 75.281 28.7872 78.6001 28.8032C79.0304 28.8032 79.2456 28.6909 79.4285 28.2736C80.1278 26.6901 81.8653 25.8288 83.5221 26.1819C85.2704 26.5564 86.5184 28.065 86.5184 29.809C86.5184 31.537 85.3081 33.0188 83.5813 33.4147C81.903 33.7999 80.1601 32.9386 79.4123 31.339C79.2832 31.0555 79.2133 30.804 78.7883 30.804C75.7114 30.8254 72.6344 30.8147 69.5574 30.8201C69.4552 30.8201 69.3476 30.8522 69.2185 30.8682C69.2185 31.9221 69.2185 32.9493 69.2185 33.9604C70.7624 34.1958 72.3063 34.3509 73.8071 34.6826C78.8637 35.806 83.1833 38.2669 86.7605 42.001C89.8644 45.2376 91.9784 49.0359 93.0489 53.3692C93.4093 54.835 93.5653 56.3544 93.7375 57.8576C93.802 58.3979 93.958 58.5691 94.496 58.5477C95.3782 58.5103 96.2604 58.537 97.234 58.537C97.234 58.2696 97.234 58.0556 97.234 57.8469C97.234 53.8186 97.2287 49.7902 97.2394 45.7619C97.2394 45.3874 97.2018 45.1467 96.7714 44.9594C95.1522 44.264 94.27 42.5734 94.5928 40.9204C94.9209 39.2352 96.3142 38.0208 98.0678 37.8871C99.6978 37.764 101.242 38.8393 101.806 40.4871C101.855 40.6261 101.925 40.7652 101.984 40.899C102 41.3591 102 41.7977 102 42.2418ZM79.181 58.5156C79.1219 54.7227 78.627 51.0849 77.5888 47.4203C74.5441 48.6026 71.4294 49.1857 68.2234 49.1911C65.0011 49.1964 61.8596 48.6079 58.7988 47.4257C57.7552 51.1116 57.2603 54.7601 57.2065 58.5156C64.56 58.5156 71.8329 58.5156 79.181 58.5156ZM59.3959 45.5051C65.297 47.7306 71.1067 47.7306 76.9271 45.5265C76.3408 43.071 74.0707 39.3155 72.2525 37.764C69.6973 35.576 66.9969 35.4744 64.3879 37.5875C61.865 39.6257 60.5632 42.4718 59.3959 45.5051ZM76.9863 73.6126C71.069 71.3871 65.2701 71.3817 59.4067 73.6179C60.4825 76.5282 61.7843 79.203 64.0544 81.2841C66.5074 83.5363 69.31 83.6647 71.9136 81.5997C74.501 79.5508 75.8136 76.6673 76.9863 73.6126ZM85.0768 43.1405C83.2693 44.2693 81.5426 45.366 79.7889 46.4253C79.4231 46.6446 79.5253 46.88 79.6006 47.1475C80.5581 50.598 81.0638 54.1128 81.1714 57.6864C81.1821 57.9593 81.2359 58.2375 81.2682 58.5103C84.7971 58.5103 88.2613 58.5103 91.7902 58.5103C91.4405 52.4597 89.1597 47.3347 85.0768 43.1405ZM57.3302 64.5822C57.7875 66.995 58.2286 69.3167 58.6858 71.7188C65.0872 69.3381 71.3434 69.3595 77.7125 71.7134C78.1697 69.2686 78.6001 66.9575 79.0466 64.5822C71.7414 64.5822 64.63 64.5822 57.3302 64.5822ZM51.3108 75.9718C53.129 74.8323 54.8557 73.7677 56.5556 72.671C56.7062 72.5747 56.8192 72.243 56.7815 72.0505C56.6632 71.4031 56.4319 70.7772 56.3135 70.1299C55.9639 68.2949 55.6519 66.46 55.3184 64.6036C51.9563 64.6036 48.5673 64.6036 45.1192 64.6036C46.1359 69.0546 48.2284 72.8476 51.3108 75.9718ZM85.9859 75.0196C85.9106 74.9126 85.8783 74.8484 85.8299 74.8109C83.7266 73.0295 84.2322 69.5896 86.9057 68.541C87.0402 68.4875 87.2177 68.3163 87.2231 68.1986C87.2446 67.0003 87.2393 65.7966 87.2393 64.5876C85.1144 64.5876 83.0864 64.5876 81.053 64.5876C81.0208 64.6678 80.9885 64.7267 80.9777 64.7855C80.5044 67.241 80.0256 69.6966 79.5791 72.1574C79.5468 72.3286 79.7459 72.6229 79.918 72.7299C80.9186 73.3718 81.9675 73.9443 82.9627 74.5969C83.6566 75.0463 84.2968 75.5813 84.9853 76.1002C85.3296 75.7257 85.6416 75.3887 85.9859 75.0196ZM79.1326 60.6127C71.8329 60.6127 64.5493 60.6127 57.2818 60.6127C57.2818 61.2761 57.2818 61.8913 57.2818 62.5065C64.5977 62.5065 71.8436 62.5065 79.1326 62.5065C79.1326 61.8539 79.1326 61.2494 79.1326 60.6127ZM81.1445 62.5547C81.4511 62.5547 81.6878 62.5547 81.9191 62.5547C83.9095 62.5547 85.8998 62.5493 87.8848 62.5547C88.9176 62.56 89.2404 62.8757 89.2404 63.8868C89.2457 65.2028 89.2673 66.5242 89.2296 67.8402C89.2135 68.3698 89.3856 68.6266 89.9666 68.6373C91.0532 66.0909 91.6557 63.4267 91.774 60.6127C88.2291 60.6127 84.754 60.6127 81.2252 60.6127C81.2037 61.26 81.1768 61.8646 81.1445 62.5547ZM78.869 74.3348C77.7555 77.3039 76.4107 79.9467 74.2052 82.3005C77.7555 81.3215 80.7733 79.7755 83.5437 77.4162C81.9568 76.3677 80.4721 75.3887 78.869 74.3348ZM62.177 82.2791C59.9446 79.936 58.632 77.2718 57.5024 74.3401C55.9209 75.3887 54.4254 76.3784 52.8493 77.4216C55.6519 79.7434 58.632 81.3215 62.177 82.2791ZM61.9403 36.9723C58.5782 37.8122 55.6035 39.3797 52.8385 41.6961C54.4469 42.7553 55.9478 43.7343 57.5131 44.7668C58.6267 41.8459 59.9392 39.2299 61.9403 36.9723ZM78.8744 44.7775C80.4667 43.7236 81.9621 42.7339 83.5329 41.6961C80.7572 39.3797 77.7932 37.8015 74.4257 36.9616C76.4322 39.2085 77.7555 41.8245 78.8744 44.7775ZM55.1462 60.6234C51.6013 60.6234 48.1208 60.6234 44.5812 60.6234C44.6404 61.2815 44.6996 61.886 44.7588 62.5065C48.2715 62.5065 51.7304 62.5065 55.2431 62.5065C55.2108 61.8485 55.1785 61.2387 55.1462 60.6234ZM98.2615 43.2957C99.1491 43.301 99.9667 42.5146 99.9829 41.6319C99.999 40.7652 99.1921 39.9307 98.3153 39.9039C97.4169 39.8772 96.5616 40.7117 96.567 41.6105C96.567 42.4986 97.3685 43.2903 98.2615 43.2957ZM56.561 89.314C56.5664 88.4367 55.7702 87.6289 54.8826 87.6128C53.9951 87.5968 53.1774 88.3725 53.1451 89.2605C53.1182 90.1646 53.9413 90.9938 54.8611 90.9885C55.7541 90.9831 56.5556 90.1967 56.561 89.314ZM37.7495 48.731C38.6532 48.7203 39.4332 47.9285 39.4279 47.0405C39.4171 46.1524 38.6263 45.3767 37.7226 45.3714C36.792 45.3714 35.9797 46.1899 36.012 47.0993C36.0443 47.9927 36.8458 48.747 37.7495 48.731ZM84.4958 29.8197C84.4958 28.9209 83.7212 28.1292 82.8228 28.1185C81.9084 28.1078 81.1068 28.9263 81.1176 29.8518C81.1283 30.7452 81.9352 31.5263 82.8228 31.5156C83.7212 31.5049 84.4958 30.7184 84.4958 29.8197ZM88.2452 73.6875C89.1543 73.6875 89.9235 72.9225 89.9343 72.0184C89.9397 71.1143 89.1812 70.3278 88.2775 70.3118C87.3576 70.2904 86.5453 71.0982 86.5561 72.0184C86.5615 72.9171 87.3361 73.6875 88.2452 73.6875Z" fill="#5B5EA8"/>
<path d="M102 77.7747C101.538 79.0372 100.822 80.059 99.4934 80.5619C99.3643 80.61 99.2944 80.9685 99.2944 81.1825C99.2783 83.6915 99.289 86.2005 99.2836 88.7095C99.2836 90.0256 98.9985 90.3091 97.7021 90.3144C96.9921 90.3144 96.2874 90.3251 95.5773 90.3144C94.8027 90.3037 94.3347 89.9239 94.3239 89.3194C94.3132 88.7202 94.7758 88.3297 95.545 88.3083C96.0561 88.2976 96.5617 88.2976 97.0727 88.2869C97.1104 88.2869 97.1481 88.2441 97.2503 88.1852C97.2503 87.8536 97.2503 87.4844 97.2503 87.1153C97.2503 85.1145 97.261 83.1084 97.2341 81.1076C97.2287 80.8882 97.0512 80.5726 96.8576 80.4763C95.1792 79.6471 94.2916 78.085 94.6036 76.4051C94.921 74.6879 96.3196 73.4788 98.1217 73.3558C99.7839 73.2435 101.242 74.2974 101.855 76.0467C101.887 76.143 101.952 76.234 102 76.3249C102 76.8064 102 77.2878 102 77.7747ZM98.2831 78.7216C99.1814 78.7162 99.9776 77.9298 99.983 77.0471C99.983 76.1644 99.1922 75.3726 98.2939 75.3619C97.3578 75.3512 96.5456 76.1591 96.5671 77.0739C96.5778 77.9566 97.3794 78.7216 98.2831 78.7216Z" fill="#5B5EA8"/>
<path d="M102 30.3493C101.656 31.3444 101.204 32.2538 100.263 32.8316C98.3905 33.9765 95.9806 33.3238 94.9746 31.3979C93.9848 29.5094 94.8402 27.1395 96.809 26.305C98.8101 25.4543 101.086 26.4815 101.806 28.5572C101.86 28.7177 101.941 28.8728 102.011 29.0333C102 29.472 102 29.9107 102 30.3493ZM98.2722 31.4032C99.149 31.4032 99.972 30.5954 99.9828 29.7234C99.9936 28.8568 99.1813 28.0276 98.3044 28.0062C97.4061 27.9848 96.5562 28.83 96.5669 29.7234C96.5723 30.6061 97.3846 31.4032 98.2722 31.4032Z" fill="#5B5EA8"/>
<path d="M39.1321 30.7185C39.1321 31.537 39.0998 32.2806 39.1536 33.0188C39.1698 33.1954 39.4549 33.3987 39.6647 33.5003C41.0902 34.1958 41.9347 35.6028 41.8164 37.1381C41.698 38.6521 40.6598 39.9467 39.2074 40.3908C37.3408 40.9632 35.3397 40.0056 34.6458 38.2134C33.9411 36.3838 34.7211 34.3563 36.5124 33.5485C36.9858 33.3345 37.1202 33.0937 37.0933 32.6176C37.0611 31.8205 37.0826 31.0287 37.088 30.2316C37.0933 28.9744 37.3784 28.6909 38.6641 28.6909C43.3549 28.6909 48.0456 28.6856 52.7364 28.7016C53.2528 28.7016 53.5433 28.6053 53.7854 28.0757C54.5062 26.4975 56.2599 25.7058 57.9275 26.1016C59.6273 26.5082 60.8054 27.9633 60.8162 29.6753C60.8269 31.4086 59.6435 32.8851 57.9113 33.3024C56.2652 33.6983 54.5062 32.8904 53.7746 31.3123C53.5487 30.8255 53.2851 30.7024 52.7848 30.7078C48.4921 30.7292 44.1994 30.7185 39.9067 30.7185C39.6754 30.7185 39.4387 30.7185 39.1321 30.7185ZM57.0883 31.3979C57.9651 31.4032 58.7935 30.6008 58.8097 29.7288C58.8258 28.8675 58.0189 28.0275 57.1421 28.0008C56.2437 27.974 55.3884 28.8086 55.3938 29.7074C55.3992 30.5847 56.2061 31.3925 57.0883 31.3979ZM38.1369 38.5451C39.0299 38.5291 39.826 37.7266 39.8153 36.8439C39.8045 35.9558 39.003 35.1694 38.1047 35.1694C37.1794 35.1694 36.3671 35.9986 36.3994 36.9081C36.4317 37.8069 37.2332 38.5612 38.1369 38.5451Z" fill="#5B5EA8"/>
<path d="M39.1856 88.3083C39.5998 88.3083 39.9064 88.2815 40.2076 88.3136C40.7079 88.3671 40.9769 88.2173 41.1974 87.7091C41.7838 86.3663 43.2685 85.505 44.6671 85.596C46.2917 85.703 47.6096 86.7087 48.0722 88.196C48.6532 90.0523 47.6957 92.0424 45.8936 92.7379C44.0646 93.444 42.0097 92.663 41.1974 90.8922C40.9876 90.4375 40.7671 90.2663 40.2722 90.3037C39.702 90.3519 39.121 90.3198 38.5454 90.3144C37.5341 90.3037 37.1791 89.9614 37.1791 88.9663C37.1737 86.3717 37.1683 83.7717 37.1898 81.1771C37.1952 80.7652 37.0769 80.5779 36.6842 80.4067C35.0381 79.6952 34.1613 77.9352 34.554 76.2286C34.9359 74.5541 36.5013 73.3184 38.2119 73.3398C39.9279 73.3612 41.4556 74.5862 41.8161 76.2126C42.198 77.9566 41.3534 79.6899 39.7074 80.4014C39.2824 80.5886 39.1694 80.7973 39.1748 81.2306C39.1963 83.3651 39.1856 85.4997 39.1856 87.6342C39.1856 87.8215 39.1856 88.0141 39.1856 88.3083ZM38.1312 78.7162C39.0511 78.7376 39.8419 78.0154 39.8741 77.106C39.9118 76.1644 39.1479 75.362 38.2065 75.3566C37.2921 75.3459 36.5121 76.0949 36.4959 76.999C36.4798 77.9138 37.2221 78.6948 38.1312 78.7162ZM46.2271 89.2873C46.2217 88.3885 45.4417 87.6075 44.5434 87.6075C43.645 87.6021 42.8597 88.3778 42.8489 89.2766C42.8381 90.2128 43.6289 90.9992 44.5649 90.9885C45.4686 90.9725 46.2325 90.1914 46.2271 89.2873Z" fill="#5B5EA8"/>
<path d="M89.7784 90.3144C89.7139 90.3144 89.6439 90.3198 89.5794 90.3144C88.6218 90.1807 87.9817 90.384 87.4545 91.3844C86.6799 92.8556 84.7541 93.3477 83.1511 92.77C81.5696 92.2029 80.6174 90.6782 80.7465 88.9235C80.8649 87.3721 82.1236 85.9865 83.6944 85.6869C85.3835 85.3606 87.0726 86.147 87.7612 87.6984C88.0032 88.2441 88.2991 88.3404 88.8101 88.319C89.6063 88.2869 90.4024 88.2976 91.1985 88.319C91.8871 88.335 92.2959 88.7149 92.3067 89.2873C92.3174 89.8651 91.9086 90.2716 91.2362 90.3091C90.7521 90.3358 90.2625 90.3091 89.7784 90.3144ZM84.4421 87.6075C83.5491 87.6021 82.7476 88.3832 82.7369 89.2766C82.7261 90.1753 83.4954 90.9671 84.3937 90.9885C85.3136 91.0099 86.1474 90.1967 86.142 89.2926C86.1366 88.4099 85.3297 87.6128 84.4421 87.6075Z" fill="#5B5EA8"/>
</g>
<defs>
<clipPath id="clip0">
<rect width="68" height="67" fill="white" transform="translate(34 26)"/>
</clipPath>
</defs>
</svg>
