<svg id="Layer_1" data-name="Layer 1" xmlns="http://www.w3.org/2000/svg" xmlns:xlink="http://www.w3.org/1999/xlink" viewBox="0 0 100 100"><defs><style>.cls-1,.cls-5{fill:#fff;}.cls-1{stroke:#fff;}.cls-2{mask:url(#mask);}.cls-3{fill:none;stroke:#56a219;stroke-linecap:round;stroke-width:2px;}.cls-4{fill:#e34400;}.cls-6{fill:#4f6269;}.cls-7{fill:#3d4a4f;}</style><mask id="mask" x="-38.76" y="-36.9" width="158" height="154.01" maskUnits="userSpaceOnUse"><g id="mask0_1120:940" data-name="mask0 1120:940"><rect class="cls-1" x="1.23" y="1.38" width="75.1" height="75.1" rx="3.93"/></g></mask></defs><g class="cls-2"><line class="cls-3" x1="-16.49" y1="70.52" x2="67.52" y2="-13.49"/><line class="cls-3" x1="10.86" y1="97.68" x2="94.87" y2="13.67"/><line class="cls-3" x1="-37.76" y1="48.11" x2="46.25" y2="-35.9"/><line class="cls-3" x1="-32.83" y1="53.24" x2="51.19" y2="-30.77"/><line class="cls-3" x1="-10.41" y1="75.84" x2="73.6" y2="-8.17"/><line class="cls-3" x1="16.94" y1="103" x2="100.95" y2="18.99"/><line class="cls-3" x1="-27.89" y1="59.7" x2="56.12" y2="-24.32"/><line class="cls-3" x1="-3.77" y1="80.4" x2="80.25" y2="-3.61"/><line class="cls-3" x1="23.59" y1="107.56" x2="107.6" y2="23.55"/><line class="cls-3" x1="-21.43" y1="64.63" x2="62.58" y2="-19.38"/><line class="cls-3" x1="5.92" y1="91.8" x2="89.93" y2="7.78"/><line class="cls-3" x1="1.36" y1="85.91" x2="85.37" y2="1.9"/><line class="cls-3" x1="28.71" y1="113.07" x2="112.73" y2="29.06"/><line class="cls-3" x1="34.22" y1="116.11" x2="118.23" y2="32.1"/></g><path class="cls-4" d="M76.26,64.55v.38c0,.38,0,.75,0,1.13A29.29,29.29,0,0,1,57.38,91.93l-.34.13-1,.35-.35.11c-.68.21-1.38.4-2.09.56l-.71.16c-.6.12-1.2.22-1.81.31l-.37,0-.73.08-.37,0-.75.06c-.62,0-1.24,0-1.88,0s-1.26,0-1.88,0l-.74-.06-.37,0-.74-.08-.36,0c-.61-.09-1.21-.19-1.81-.31l-.71-.16c-.71-.16-1.41-.35-2.1-.56l-.34-.11-1-.35-.33-.13A29.28,29.28,0,0,1,17.72,66.06c0-.32,0-.63,0-.94v-.57c0-.35,0-.7,0-1,0-.11,0-.22,0-.33a.61.61,0,0,0,0-.14c0-.25,0-.5.05-.74l0-.38c0-.24.05-.49.07-.73s.06-.49.1-.74.11-.72.17-1.09a29.13,29.13,0,0,1,3.17-8.94c.05-.09.1-.18.16-.27a27.92,27.92,0,0,1,2-3l.12-.16a28.54,28.54,0,0,1,2.19-2.59h0a29.74,29.74,0,0,1,3.39-3.05c.56-.42,1.13-.83,1.72-1.22s1.19-.75,1.81-1.1l.62-.34c.21-.11.42-.22.64-.32l.42-.21.76-.35.2-.09.56-.23.67-.26L36.9,37l.43-.15.59-.2.34-.11.69-.2c.58-.17,1.17-.32,1.76-.45l.72-.14.72-.13,1.09-.16.74-.08.37,0,.74-.06c.62,0,1.25-.06,1.88-.06s1.26,0,1.88.06l.75.06.37,0,.73.08,1.1.16.72.13.71.14c.6.13,1.18.28,1.76.45l.69.2.35.11.59.2L57,37l.34.13.66.26.56.23.2.09.77.35.42.21.63.32c.21.11.42.22.62.34.62.35,1.23.71,1.82,1.1s1.16.8,1.72,1.22a29.74,29.74,0,0,1,3.39,3.05h0a30.37,30.37,0,0,1,2.2,2.59l.12.16a29.48,29.48,0,0,1,2,3l.15.27a28.89,28.89,0,0,1,3.18,8.94c.06.37.12.73.17,1.09l.09.74c0,.24.05.49.08.73l0,.38c0,.24,0,.49,0,.74C76.25,63.54,76.26,64,76.26,64.55Z"/><path class="cls-5" d="M47,88.91A24.36,24.36,0,1,0,22.61,64.55,24.37,24.37,0,0,0,47,88.91Z"/><path class="cls-4" d="M47,83.84A19.3,19.3,0,1,0,27.68,64.55,19.29,19.29,0,0,0,47,83.84Z"/><path class="cls-5" d="M47,79.18A14.63,14.63,0,1,0,32.34,64.55,14.64,14.64,0,0,0,47,79.18Z"/><path class="cls-4" d="M54.19,71.85a10.21,10.21,0,1,0-14.44,0A10.21,10.21,0,0,0,54.19,71.85Z"/><path class="cls-5" d="M47,69.21a4.9,4.9,0,1,0-4.9-4.9A4.9,4.9,0,0,0,47,69.21Z"/><path class="cls-6" d="M86.81,17.67v7.1l7,0L83.05,35.52l-5.47-.13L48,64.93a1,1,0,0,1-1.36,0l-.08-.08a1,1,0,0,1,0-1.36L76.15,33.94,76,28.5Z"/><path class="cls-7" d="M86.82,24.77l7,0L83.05,35.52l-5.47-.13L48,64.93a1,1,0,0,1-1.36,0l0,0L86.82,24.71Z"/></svg>