<svg width="125" height="110" viewBox="0 0 125 110" fill="none" xmlns="http://www.w3.org/2000/svg">
<mask id="mask0" style="mask-type:alpha" maskUnits="userSpaceOnUse" x="0" y="0" width="87" height="87">
<rect x="0.5" y="0.5" width="86" height="86" rx="4.5" fill="white" stroke="white"/>
</mask>
<g mask="url(#mask0)">
<line x1="-19.793" y1="79.6716" x2="76.4086" y2="-16.53" stroke="#56A219" stroke-width="2" stroke-linecap="round"/>
<line x1="11.5273" y1="110.774" x2="107.729" y2="14.5725" stroke="#56A219" stroke-width="2" stroke-linecap="round"/>
<line x1="-44.1523" y1="54.0066" x2="52.0492" y2="-42.195" stroke="#56A219" stroke-width="2" stroke-linecap="round"/>
<line x1="-38.4971" y1="59.8791" x2="57.7045" y2="-36.3225" stroke="#56A219" stroke-width="2" stroke-linecap="round"/>
<line x1="-12.832" y1="85.7616" x2="83.3695" y2="-10.44" stroke="#56A219" stroke-width="2" stroke-linecap="round"/>
<line x1="18.4873" y1="116.864" x2="114.689" y2="20.6625" stroke="#56A219" stroke-width="2" stroke-linecap="round"/>
<line x1="-32.8428" y1="67.2741" x2="63.3588" y2="-28.9275" stroke="#56A219" stroke-width="2" stroke-linecap="round"/>
<line x1="-5.21973" y1="90.9816" x2="90.9818" y2="-5.21998" stroke="#56A219" stroke-width="2" stroke-linecap="round"/>
<line x1="26.0996" y1="122.084" x2="122.301" y2="25.8825" stroke="#56A219" stroke-width="2" stroke-linecap="round"/>
<line x1="-25.4473" y1="72.929" x2="70.7543" y2="-23.2725" stroke="#56A219" stroke-width="2" stroke-linecap="round"/>
<line x1="5.87207" y1="104.032" x2="102.074" y2="7.83001" stroke="#56A219" stroke-width="2" stroke-linecap="round"/>
<line x1="0.652344" y1="97.2891" x2="96.8539" y2="1.08752" stroke="#56A219" stroke-width="2" stroke-linecap="round"/>
<line x1="31.9727" y1="128.392" x2="128.174" y2="32.19" stroke="#56A219" stroke-width="2" stroke-linecap="round"/>
<line x1="38.2803" y1="131.872" x2="134.482" y2="35.67" stroke="#56A219" stroke-width="2" stroke-linecap="round"/>
</g>
<path d="M100.99 70.0114C100.99 70.1837 100.989 70.3564 100.988 70.5278C100.98 71.0438 100.965 71.5578 100.938 72.0687C100.118 88.2563 89.6696 101.904 75.2051 107.403C75.0526 107.461 74.9002 107.518 74.7469 107.574C74.2876 107.742 73.8239 107.902 73.3567 108.054C73.2011 108.104 73.0447 108.154 72.8883 108.202C71.9494 108.495 70.995 108.753 70.0276 108.976C69.7052 109.051 69.3809 109.121 69.0558 109.188C68.2423 109.355 67.4194 109.496 66.5885 109.612C66.4222 109.636 66.2562 109.657 66.0891 109.679C65.7552 109.721 65.4206 109.76 65.0843 109.794C64.9164 109.811 64.7481 109.827 64.5794 109.842C64.2419 109.873 63.9037 109.898 63.5639 109.92C62.7147 109.973 61.8584 110.001 60.9954 110.001C60.1323 110.001 59.2757 109.973 58.4269 109.92C58.0871 109.898 57.7485 109.873 57.411 109.842C57.2427 109.827 57.0744 109.811 56.9061 109.794C56.5698 109.76 56.2351 109.721 55.9017 109.679C55.7346 109.658 55.5682 109.636 55.4019 109.612C54.5714 109.496 53.7484 109.355 52.935 109.188C52.6091 109.121 52.2856 109.051 51.9628 108.976C50.9958 108.753 50.0414 108.495 49.1017 108.202C48.9453 108.154 48.7893 108.104 48.6337 108.054C48.1664 107.902 47.7032 107.742 47.2435 107.574C47.0906 107.518 46.9382 107.461 46.7857 107.403C32.3208 101.904 21.873 88.2567 21.052 72.0687C21.0306 71.6436 21.0159 71.2165 21.0075 70.7878C21.006 70.7013 21.0048 70.6144 21.0036 70.5274C21.0028 70.4643 21.002 70.402 21.0012 70.3385C21.0004 70.2294 21 70.1198 21 70.011C21 69.5359 21.0083 69.0628 21.025 68.5917C21.0302 68.4436 21.0361 68.2956 21.0429 68.1475C21.0457 68.0824 21.0488 68.0181 21.052 67.953C21.0691 67.6121 21.0909 67.2727 21.1163 66.9341C21.1294 66.765 21.1433 66.5959 21.1584 66.4272C21.1886 66.0903 21.2223 65.7537 21.2604 65.4191C21.2989 65.0841 21.3414 64.7507 21.3879 64.418C21.4573 63.9199 21.5363 63.4245 21.6245 62.9324C22.4029 58.575 23.8881 54.4625 25.956 50.7167C26.0242 50.5921 26.0937 50.4683 26.164 50.3448C26.9814 48.9 27.8861 47.5116 28.8714 46.1863C28.927 46.1113 28.983 46.037 29.0385 45.9624C29.9695 44.728 30.9699 43.5491 32.0342 42.4318C32.0413 42.4247 32.0485 42.4167 32.0552 42.4096C33.4871 40.9096 35.0342 39.5208 36.6821 38.2574C37.4451 37.6727 38.2291 37.1146 39.0342 36.5852C39.8389 36.0557 40.6638 35.5543 41.5074 35.0828C41.7885 34.9252 42.0719 34.7716 42.3574 34.6212C42.6424 34.4704 42.9302 34.3231 43.2196 34.1794C43.411 34.0842 43.6035 33.9913 43.7964 33.8996C44.1422 33.7345 44.4912 33.5741 44.8429 33.4189C44.9334 33.3788 45.0239 33.3391 45.1144 33.2998C45.3669 33.1903 45.621 33.0827 45.8766 32.9783C46.1779 32.8553 46.4808 32.7358 46.7853 32.6203C46.9378 32.562 47.0898 32.5052 47.2431 32.4492C47.436 32.3786 47.6289 32.3103 47.823 32.2428C48.0922 32.1492 48.3618 32.0575 48.6333 31.9694C48.7893 31.919 48.9453 31.8689 49.1013 31.8205C49.4146 31.7233 49.7294 31.6296 50.0454 31.5399C50.8366 31.3156 51.6377 31.1144 52.4475 30.9382C52.7715 30.8675 53.097 30.8008 53.4237 30.7381C53.7508 30.6754 54.0787 30.617 54.4086 30.5623C54.9029 30.4801 55.4003 30.4075 55.9013 30.344C56.2348 30.3015 56.5698 30.263 56.9057 30.2289C57.0736 30.2122 57.2419 30.1963 57.4106 30.1812C57.7481 30.1511 58.0867 30.1253 58.4265 30.1038C59.2757 30.0499 60.132 30.0225 60.995 30.0225C61.858 30.0225 62.7143 30.0499 63.5635 30.1038C63.9033 30.1253 64.2415 30.1515 64.579 30.1812C64.7477 30.1963 64.916 30.2118 65.0839 30.2289C65.4202 30.2634 65.7548 30.3019 66.0887 30.344C66.5889 30.4075 67.0867 30.4801 67.581 30.5623C67.9109 30.6167 68.2392 30.6754 68.5663 30.7381C68.893 30.8008 69.2185 30.8675 69.5425 30.9382C70.3527 31.1144 71.1534 31.3156 71.9442 31.5399C72.2606 31.6296 72.5758 31.7233 72.8883 31.8205C73.0451 31.8693 73.2011 31.919 73.3567 31.9694C73.6278 32.0575 73.8982 32.1492 74.1673 32.2428C74.3611 32.3103 74.5544 32.3786 74.7469 32.4492C74.9002 32.5052 75.0526 32.562 75.2051 32.6203C75.5095 32.7358 75.8124 32.8553 76.113 32.9783C76.369 33.0827 76.6231 33.1903 76.876 33.2998C76.9665 33.3391 77.057 33.3784 77.1471 33.4189C77.4984 33.5741 77.8474 33.7345 78.194 33.8996C78.3869 33.9913 78.5794 34.0849 78.7704 34.1794C79.0598 34.3231 79.3472 34.4704 79.6326 34.6212C79.9181 34.7716 80.2015 34.9252 80.4826 35.0828C81.3266 35.5543 82.1515 36.0553 82.9562 36.5852C83.7609 37.1146 84.5453 37.6731 85.3079 38.2574C86.9562 39.5208 88.5032 40.9096 89.9348 42.4096C89.9419 42.4167 89.9491 42.4247 89.9558 42.4318C91.0205 43.5491 92.0205 44.7284 92.9514 45.9624C93.0074 46.037 93.0634 46.1113 93.119 46.1863C94.1039 47.5116 95.0082 48.9 95.8264 50.3448C95.8959 50.4683 95.9654 50.5921 96.0344 50.7167C98.1019 54.4629 99.587 58.5754 100.366 62.9324C100.453 63.4245 100.533 63.9199 100.603 64.4184C100.649 64.7507 100.691 65.0841 100.73 65.4191C100.768 65.7537 100.802 66.0899 100.832 66.4272C100.847 66.5959 100.861 66.765 100.874 66.9341C100.899 67.2727 100.921 67.6125 100.938 67.953C100.973 68.6353 100.99 69.3212 100.99 70.0114Z" fill="#E34400"/>
<path d="M60.9948 103.28C79.3715 103.28 94.2688 88.3852 94.2688 70.0114C94.2688 51.6376 79.3715 36.7427 60.9948 36.7427C42.618 36.7427 27.7207 51.6376 27.7207 70.0114C27.7207 88.3852 42.618 103.28 60.9948 103.28Z" fill="white"/>
<path d="M60.9952 96.3579C75.5482 96.3579 87.3458 84.5622 87.3458 70.0115C87.3458 55.4607 75.5482 43.665 60.9952 43.665C46.4421 43.665 34.6445 55.4607 34.6445 70.0115C34.6445 84.5622 46.4421 96.3579 60.9952 96.3579Z" fill="#E34400"/>
<path d="M60.9953 89.9889C72.0303 89.9889 80.9759 81.0447 80.9759 70.0114C80.9759 58.9782 72.0303 50.034 60.9953 50.034C49.9603 50.034 41.0146 58.9782 41.0146 70.0114C41.0146 81.0447 49.9603 89.9889 60.9953 89.9889Z" fill="white"/>
<path d="M70.8537 79.98C76.2984 74.5362 76.2984 65.71 70.8537 60.2662C65.409 54.8224 56.5814 54.8224 51.1368 60.2662C45.6921 65.71 45.6921 74.5362 51.1368 79.98C56.5814 85.4238 65.409 85.4238 70.8537 79.98Z" fill="#E34400"/>
<path d="M60.9953 76.3764C64.6921 76.3764 67.6889 73.3801 67.6889 69.6839C67.6889 65.9878 64.6921 62.9915 60.9953 62.9915C57.2986 62.9915 54.3018 65.9878 54.3018 69.6839C54.3018 73.3801 57.2986 76.3764 60.9953 76.3764Z" fill="white"/>
<path d="M115.398 6L115.411 15.692L125 15.6345L110.257 30.3749L102.785 30.1907L62.4406 70.5286C61.9297 71.0394 61.094 71.0394 60.5835 70.5286L60.4779 70.423C59.967 69.9122 59.967 69.0767 60.4779 68.5662L100.842 28.2085L100.604 20.7913L115.398 6Z" fill="#4F6269"/>
<path d="M115.411 15.692L125 15.6345L110.257 30.3749L102.785 30.1908L62.4402 70.5286C61.9292 71.0395 61.0936 71.0395 60.5831 70.5286L60.5303 70.4758L115.411 15.6043V15.692Z" fill="#3D4A4F"/>
</svg>
